<svg width="15" height="15" fill="none" xmlns="http://www.w3.org/2000/svg"><path d="M7.5 0C3.364 0 0 3.364 0 7.5S3.364 15 7.5 15 15 11.636 15 7.5 11.636 0 7.5 0zm0 14.024A6.532 6.532 0 01.976 7.5 6.532 6.532 0 017.5.976 6.532 6.532 0 0114.024 7.5 6.532 6.532 0 017.5 14.024z" fill="#000" fill-opacity=".4"/><path d="M10.56 8.722a.488.488 0 00-.674.149 2.538 2.538 0 01-2.148 1.176A2.55 2.55 0 015.192 7.5a2.547 2.547 0 014.66-1.424.488.488 0 00.807-.546 3.521 3.521 0 00-2.92-1.552A3.527 3.527 0 004.215 7.5a3.527 3.527 0 003.522 3.523 3.51 3.51 0 002.97-1.627.488.488 0 00-.148-.674z" fill="#000" fill-opacity=".4"/></svg>