<svg width="28" height="30" fill="none" xmlns="http://www.w3.org/2000/svg"><path d="M23.825 2.06a3.873 3.873 0 00-5.472 0l-1.37 1.377L2.4 18.012l-.031.032c-.008.007-.008.015-.016.015-.015.023-.038.046-.054.07 0 .007-.008.007-.008.015l-.038.062c-.008.008-.008.015-.016.023-.007.024-.015.04-.023.062 0 .008-.008.008-.008.016l-3.235 9.73a.762.762 0 00.186.789.779.779 0 00.797.186l9.722-3.244c.007 0 .007 0 .015-.007a.277.277 0 00.07-.031.027.027 0 00.016-.008c.023-.015.054-.031.077-.047.023-.015.046-.038.07-.054.007-.008.015-.008.015-.015.008-.008.023-.015.031-.031L25.923 9.622a3.873 3.873 0 000-5.472l-2.098-2.09zM9.428 23.95l-5.387-5.388L17.524 5.08l5.388 5.387L9.428 23.949zm-6.146-3.956L7.988 24.7.921 27.053l2.361-7.059zm21.55-11.456l-.821.829-5.387-5.388.828-.828a2.322 2.322 0 013.282 0l2.105 2.105c.9.91.896 2.376-.008 3.282z" fill="#6672FB"/></svg>