<svg width="104" height="73" fill="none" xmlns="http://www.w3.org/2000/svg"><path fill-rule="evenodd" clip-rule="evenodd" d="M38.342 22.354s-.142-8.808-.23-9.814c-.086-1.007-.023-1.682-2.418-2.56-2.396-.877-4.236-1.546-4.236-1.546l-1.104.358-3.858 6.36 11.846 7.202z" fill="#9399DA"/><path fill-rule="evenodd" clip-rule="evenodd" d="M23.813 30.454s-15.509-.498-17.243-.627c-1.734-.13-2.907-.148-4.232-1.594A1515.705 1515.705 0 010 25.676v-.964l12.01-1.355 11.803 7.095v.002z" fill="#3B3F89"/><path d="M60.52 35.285L39.376 22.089l-.124 3.585 21.144 13.195.123-3.584z" fill="#2F1F23"/><path fill-rule="evenodd" clip-rule="evenodd" d="M56.27 11.811l.973-.06s5.252 2.514 5.194 4.195c-.058 1.679-.384 20.785-.384 20.785L39.374 22.09 56.27 11.811z" fill="#9399DA"/><path fill-rule="evenodd" clip-rule="evenodd" d="M103.768 72.463a.686.686 0 01-.324.498c-.087.05-.161.05-.211.013l-15.414-9.675-2.006-.123-13.746-7.221-20.682-7.074-34.281-21.505.16-5.716 34.268 22.665 19.924 7.11.1.698 16.81 9.875-.012.024 15.33 10.236c.063.037.087.1.087.2l-.003-.005z" fill="#3B3F89"/><path fill-rule="evenodd" clip-rule="evenodd" d="M88.364 62.002l-2.503-.571-7.97-4.87-6.338-4.433-20.02-7.806-34.271-22.665 13.076-5.816L64.63 37.348l10.61 12.065 2.303 2.293 10.386 8.628.435 1.668z" fill="#B4B7E9"/><path fill-rule="evenodd" clip-rule="evenodd" d="M19.172 6.162l9.851 16.792 7.693 7.598 1.273 2.353-.596.799L16.63 19.728l.158-13.814 2.385.248z" fill="#3B3F89"/><path fill-rule="evenodd" clip-rule="evenodd" d="M37.364 30.204l-7.692-7.6L19.82 5.81l-2.385-.248-.648.35 2.385.248 9.851 16.793 7.693 7.598 1.273 2.353-.596.799 1.23-.667.014-.482-1.273-2.35z" fill="#B4B7E9"/><path fill-rule="evenodd" clip-rule="evenodd" d="M28.361.612l9.704 16.88 7.627 7.663 1.251 2.364-.6.794-20.667-12.898.303-15.07 2.382.267z" fill="#3B3F89"/><path fill-rule="evenodd" clip-rule="evenodd" d="M46.344 24.81l-7.627-7.664L29.014.269 26.63 0l-.65.345 2.382.266 9.703 16.88 7.627 7.664 1.252 2.364-.6.793 1.235-.656.016-.482-1.252-2.364z" fill="#B4B7E9"/><path fill-rule="evenodd" clip-rule="evenodd" d="M71.617 48.903L60.01 45.092l-6.822-3.474 2.33-3.934 6.709 3.523 9.39 7.696z" fill="#5DC5E1"/><path fill-rule="evenodd" clip-rule="evenodd" d="M71.617 48.902l-9.39-7.696-6.71-3.523 3.811-1.829 6.486 3.447 5.803 9.6z" fill="#A5E5F4"/><path fill-rule="evenodd" clip-rule="evenodd" d="M59.328 35.858l-20.772-8.423-1.513.804 18.474 9.442 3.81-1.823z" fill="#9399DA"/><path fill-rule="evenodd" clip-rule="evenodd" d="M37.043 28.238l16.144 13.386 2.33-3.943-18.474-9.442z" fill="#3B3F89"/><path fill-rule="evenodd" clip-rule="evenodd" d="M3.47 40.794l.183-.554 22.076-10.473 21.144 13.196s-33.651 1.249-36.56 1.149c-2.91-.1-6.842-3.318-6.842-3.318z" fill="#9399DA"/><path fill-rule="evenodd" clip-rule="evenodd" d="M3.405 42.696s3.935 3.218 6.841 3.318c2.91.1 41.133 2.864 41.133 2.864l-4.509-5.916s-33.65 1.236-36.56 1.136c-2.91-.1-6.842-3.318-6.842-3.318l-.066 1.916h.003z" fill="#3B3F89"/><path fill-rule="evenodd" clip-rule="evenodd" d="M23.813 29.492s-15.509-.498-17.243-.627c-1.734-.13-2.907-.148-4.232-1.595C1.012 25.824 0 24.714 0 24.714l.709-.606 11.303-1.713 11.804 7.095-.003.002z" fill="#9399DA"/></svg>