<svg width="245" height="122" fill="none" xmlns="http://www.w3.org/2000/svg"><path d="M6.764 2.817c12.842 9.832 26.355 18.707 39.408 28.314C30.994 23.536 15.535 16.635 0 9.899c90.49 57.585 140.515 100.719 199.743 108.598l1.947-1.674c-4.637-13.133 9.593-7.446-194.926-113.759v-.247z" fill="#fff"/><path d="M29.788 15.806c12.28 9.024 25.2 17.173 37.68 25.991-14.512-6.971-29.292-13.307-44.146-19.489C109.842 75.171 157.671 114.767 214.3 122c.621-.513 1.242-1.024 1.863-1.538-4.435-12.056 9.171-6.835-186.375-104.43v-.226z" fill="#1895A7"/><path fill-rule="evenodd" clip-rule="evenodd" d="M212.124 43.232l6.547 15.488s3.058-.376 3.523.584c.456.97-.59 2.91-.59 2.91l2.153 7.992c18.357 7.12 24.958 14.968 19.251 22.974l-36.865 18.909s2.258 3.554-.604 4.242c-9.983 2.385-37.876-13.031-80.535-37.635l-39.776-22.98-.86-2.056c-3.825-5.908-5.727-10.775-5.704-14.634-1.618-8.514-2.127-14.488-1.516-17.849l-.58-3.936 19.213-9.718 83.348 32.194 10.144-3.835 18.901 4.89.503 1.96 3.449.501h-.002z" fill="#fff"/><path fill-rule="evenodd" clip-rule="evenodd" d="M234.405 97.594c-18.192 2.147-40.849 6.036-38.068 12.458 1.109 2.571 4.378 4.666 8.665 6.388.183-.037.36-.067.536-.11 2.862-.688.604-4.243.604-4.243l28.264-14.493h-.001z" fill="#D8D8D7"/><path fill-rule="evenodd" clip-rule="evenodd" d="M76.787 17.13l78.656 35.607 8.863-5.271 13.993-8.07-82.52-31.875-18.992 9.608z" fill="#E5E5E5"/><path fill-rule="evenodd" clip-rule="evenodd" d="M191.432 83.019l32.217-13.254-2.047-7.551s.65-1.685.194-2.648c-.447-.962-3.127-.846-3.127-.846l-6.546-15.488-31.639 13.312 10.947 26.474h.001z" fill="#D8D8D7"/><path fill-rule="evenodd" clip-rule="evenodd" d="M208.191 40.394l-18.05-4.145c-8.377 1.709-15.888 5.316-25.836 11.217l13.574 5.842 30.349-12.79-.037-.124z" fill="#B4B4B3"/><path fill-rule="evenodd" clip-rule="evenodd" d="M173.404 40.26l-34.697-12.612-17.518 7.88 33.455 14.334 18.76-9.602z" fill="#9F9F9E"/><path fill-rule="evenodd" clip-rule="evenodd" d="M243.006 93.34l-.51.108.512-.27-.002.162zm-20.429-21.708l-29.325 13.027c16.816 8.986 33.171 12.068 49.244 8.789l.51-.108.104-.3c2.457-7.738-4.547-15.013-20.533-21.408z" fill="#B4B4B3"/><path fill-rule="evenodd" clip-rule="evenodd" d="M221.979 74.961l-25.743 11.234c15.768 7.794 31.138 10.34 46.258 7.254l.374-.08-.374.08.373-.197c-.068-6.533-7.127-12.715-20.89-18.29h.002z" fill="#B4B4B3"/><path fill-rule="evenodd" clip-rule="evenodd" d="M221.98 74.962l-25.724 11.223c3.803 1.393 32.176 10.132 46.241 7.264l.358-.078c.013-6.605-7.093-12.825-20.874-18.41h-.001z" fill="#9F9F9E"/><path fill-rule="evenodd" clip-rule="evenodd" d="M217.731 56l-32.408 11.54-40.401-16.656.158 2.924 41.407 17.389 32.411-11.855L217.731 56z" fill="#27B7EF"/><path fill-rule="evenodd" clip-rule="evenodd" d="M133.706 26.909l-15.212 6.445L89.447 18.75c-1.305-3.527 2.533-5.516 11.819-5.966l32.44 14.124z" fill="#B4B4B3"/><path fill-rule="evenodd" clip-rule="evenodd" d="M98.043 9.311l4.741-3.033 9.827 3.54 13.727 15.502c1.305 2.232-.085 3.986-6.313 4.742L95.387 19.867l2.656-10.556z" fill="#AD0800"/><path fill-rule="evenodd" clip-rule="evenodd" d="M184.468 76.391l.247 3.693-5.5-2.24-.289-3.962 5.542 2.509zm-7.785-3.628l.277 3.667-5.36-2.185-.321-3.933 5.404 2.451zm-7.612-3.543l.306 3.637-5.216-2.125-.352-3.909 5.262 2.396zm-7.416-3.467l.334 3.61-5.119-2.08-.38-3.877 5.165 2.347zm-7.262-3.393l.358 3.584-5.014-2.02-.409-3.852 5.065 2.289zm29.523 19.528l.247 3.635-5.443-2.266-.288-3.898 5.484 2.529zm-7.709-3.66l.277 3.611-5.312-2.203-.32-3.886 5.355 2.478zm-7.529-3.576l.305 3.586-5.197-2.153-.35-3.85 5.242 2.417zm-7.37-3.495l.332 3.555-5.075-2.095-.377-3.827 5.12 2.367zm-7.198-3.423l.357 3.532-4.967-2.052-.406-3.795 5.016 2.315zm29.265 19.562l.245 3.583-5.386-2.293-.289-3.845 5.43 2.555zm-7.634-3.692l.277 3.564-5.266-2.238-.318-3.819 5.307 2.493zm-7.466-3.608l.304 3.532-5.145-2.177-.348-3.792 5.189 2.437zm-7.299-3.526l.331 3.515-5.032-2.137-.377-3.767 5.078 2.388zm-7.142-3.457l.358 3.495-4.929-2.08-.404-3.75 4.975 2.335zm29.018 19.593l.248 3.54-5.353-2.322-.288-3.785 5.393 2.567zm-7.571-3.712l.275 3.508-5.231-2.263-.319-3.77 5.275 2.525zm-7.4-3.637l.304 3.483-5.108-2.205-.347-3.737 5.151 2.46zm-7.249-3.556l.33 3.462-4.983-2.156-.375-3.713 5.028 2.407zm-7.076-3.481l.356 3.441-4.88-2.106-.403-3.696 4.927 2.36zm-9.895-22.327l.398 3.562-4.847-1.953-.448-3.82 4.897 2.21zm-6.891-3.2l.422 3.534-4.741-1.899-.472-3.8 4.791 2.165zm-6.744-3.137l.445 3.512-4.643-1.85-.498-3.772 4.696 2.11zm-6.6-3.066l.466 3.487-4.54-1.806-.518-3.746 4.592 2.065zm-6.466-3.003l.487 3.465-4.446-1.765-.542-3.724 4.501 2.024zm26.507 17.741l.397 3.517-4.814-1.976-.445-3.764 4.862 2.223zM136.627 58l.42 3.49-4.702-1.922-.472-3.748 4.754 2.18zm-6.684-3.165l.442 3.468-4.608-1.88-.494-3.723 4.66 2.135zm-6.558-3.098l.464 3.443-4.505-1.833-.514-3.696 4.555 2.086zm-6.413-3.03l.483 3.42-4.42-1.793-.537-3.673 4.474 2.046zm26.305 17.785l.395 3.466-4.769-2-.442-3.72 4.816 2.254zm-6.779-3.266l.419 3.445-4.667-1.954-.467-3.693 4.715 2.202zm-6.637-3.19l.438 3.415-4.572-1.908-.489-3.662 4.623 2.155zm-6.5-3.124l.458 3.392-4.469-1.867-.512-3.642 4.523 2.117zm-6.368-3.066l.479 3.372-4.382-1.822-.531-3.617 4.434 2.066zm26.094 17.824l.392 3.415-4.731-2.018-.441-3.673 4.78 2.276zm-6.728-3.29l.414 3.392-4.628-1.972-.463-3.648 4.677 2.228zm-6.579-3.224l.436 3.372-4.537-1.93-.486-3.62 4.587 2.178zm-6.456-3.159l.458 3.355-4.448-1.886-.508-3.599 4.498 2.13zm-6.32-3.09l.477 3.328-4.345-1.843-.529-3.575 4.397 2.09zm-15.15-20.725l.454 2.894-3.146-1.529-.498-3.113 3.19 1.748zm-4.5-2.534l.465 2.882-3.117-1.505-.509-3.095 3.16 1.718zm-4.444-2.505l.476 2.873-3.067-1.479-.522-3.093 3.113 1.699zm-4.393-2.469l.487 2.863-3.019-1.451-.534-3.076 3.066 1.664zm-4.328-2.43l.497 2.852-2.972-1.438-.544-3.06 3.019 1.646zm17.859 14.294l.451 2.865-3.137-1.54-.495-3.08 3.181 1.755zm-4.48-2.555l.462 2.854-3.102-1.509-.506-3.064 3.146 1.72zm-4.428-2.514l.474 2.847-3.046-1.496-.517-3.054 3.09 1.703zm-4.36-2.473l.482 2.827-3.003-1.466-.528-3.048 3.05 1.687zm-4.303-2.45l.494 2.817-2.962-1.449-.54-3.032 3.008 1.664zm17.759 14.296l.449 2.834-3.126-1.553-.49-3.045 3.167 1.764zm-4.459-2.566l.459 2.824-3.076-1.53-.502-3.035 3.119 1.742zm-4.403-2.526l.47 2.814-3.033-1.509-.514-3.026 3.077 1.72zm-4.334-2.494l.48 2.799-2.99-1.48-.526-3.016 3.037 1.697zm-4.284-2.46l.489 2.785-2.945-1.457-.536-3 2.992 1.672zm17.656 14.298l.445 2.805-3.102-1.568-.487-3.012 3.144 1.775zm-4.426-2.574l.455 2.794-3.056-1.547-.498-3.002 3.099 1.755zm-4.375-2.546l.466 2.785-3.02-1.52-.51-2.987 3.064 1.722zm-4.316-2.506l.477 2.775-2.974-1.494-.523-2.981 3.02 1.7zm-4.261-2.473l.488 2.765-2.927-1.479-.532-2.97 2.971 1.684zm84.262 56.758c-.069-.795-.555-1.477-1.067-1.52-.505-.05-.868.556-.799 1.339.07.783.546 1.46 1.05 1.511.51.058.883-.545.816-1.33zm-3.545-1.957c-.071-.785-.541-1.457-1.048-1.512-.504-.038-.861.56-.787 1.345.073.784.546 1.456 1.05 1.504.504.052.857-.545.785-1.336v-.001zm-3.49-1.931c-.074-.785-.542-1.458-1.054-1.5-.499-.046-.853.556-.777 1.342.076.779.554 1.454 1.05 1.5.51.042.856-.556.782-1.34l-.001-.002zm-3.473-1.91c-.078-.782-.537-1.453-1.029-1.493-.499-.047-.84.556-.761 1.335.079.783.547 1.45 1.043 1.492.491.043.825-.551.747-1.334zm-3.414-1.895c-.079-.785-.554-1.447-1.035-1.487-.504-.044-.831.56-.751 1.336.082.78.542 1.443 1.043 1.484.481.045.825-.553.745-1.334h-.002zm-3.399-1.874c-.083-.781-.543-1.443-1.042-1.48-.474-.039-.808.561-.722 1.345.083.773.552 1.43 1.025 1.469.497.04.822-.56.74-1.334h-.001zm-3.364-1.856c-.086-.779-.543-1.437-1.03-1.476-.48-.028-.79.567-.703 1.341.087.775.535 1.431 1.014 1.469.485.037.803-.557.717-1.335h.002zm-3.333-1.841c-.089-.774-.554-1.426-1.006-1.463-.486-.032-.793.57-.704 1.342.09.774.541 1.424 1.025 1.458.451.04.773-.563.685-1.337zm-3.297-1.817c-.091-.773-.538-1.427-1.013-1.46-.463-.027-.77.57-.678 1.34.092.771.548 1.42 1.009 1.454.474.034.773-.563.682-1.334zm-3.266-1.8c-.093-.77-.537-1.417-.997-1.457-.463-.03-.762.576-.667 1.343.095.774.545 1.412 1.008 1.447.457.032.748-.566.656-1.333zm-3.225-1.786c-.096-.769-.543-1.412-1.007-1.44-.452-.031-.741.567-.644 1.336.098.765.542 1.409.993 1.437.461.03.753-.567.657-1.332l.001-.001zm-3.196-1.766c-.098-.765-.548-1.416-.99-1.436-.463-.026-.744.573-.646 1.338.099.76.542 1.407 1.002 1.425.441.034.731-.567.634-1.328z" fill="#B4B4B3"/><path fill-rule="evenodd" clip-rule="evenodd" d="M142.687 49.344l.404 3.608-60.185-27.5-.64-3.647 60.421 27.539zm78.904 12.771l-33.736 12.334 1.446 3.235 33.792-11.893-1.502-3.676z" fill="#27B7EF"/><path fill-rule="evenodd" clip-rule="evenodd" d="M203.309 36.548c-.135-3.158-3.406-5.178-7.237-4.507-3.785.662-6.646 3.683-6.468 6.742.176 3.037 3.291 5.025 7.032 4.46 3.786-.573 6.805-3.56 6.671-6.695h.002zm-97.848-19.26c-.346-2.319-1.791-3.892-3.215-3.51-1.403.374-2.243 2.533-1.89 4.817.352 2.279 1.761 3.846 3.155 3.506 1.416-.346 2.293-2.5 1.949-4.812h.001z" fill="#fff"/><path fill-rule="evenodd" clip-rule="evenodd" d="M187.166 27.711l4.997 16.666-2.727 1.69-7.821-3.187s2.323-.84 3.127-3.256c.812-2.44.426-11.574.426-11.574l1.998-.339z" fill="#fff"/><path fill-rule="evenodd" clip-rule="evenodd" d="M186.299 27.858l3.455 18.013-.316.195-7.821-3.186s2.323-.84 3.127-3.256c.812-2.44.426-11.574.426-11.574l1.129-.192z" fill="#D8D8D7"/><path fill-rule="evenodd" clip-rule="evenodd" d="M185.622 43.608c-.188-2.997-3.264-4.957-6.792-4.372-3.501.582-6.108 3.416-5.883 6.323.224 2.889 3.166 4.821 6.63 4.33 3.49-.496 6.231-3.304 6.044-6.281h.001z" fill="#fff"/><path fill-rule="evenodd" clip-rule="evenodd" d="M108.473 12.44l11.69 17.592c6.202-.765 7.48-2.488 6.175-4.712L112.611 9.817l-9.827-3.539-4.741 3.033 10.43 3.13z" fill="#D90000"/><path fill-rule="evenodd" clip-rule="evenodd" d="M108.428 5.719c21.736 14.107 47.771 22.87 78.018 23.123 17.473 21.666 36.188 42.791 56.326 63.57l-55.579-64.288c-33.523-1.18-60.294-9.99-78.442-23.02l-.323.615z" fill="#fff"/><path fill-rule="evenodd" clip-rule="evenodd" d="M237.792 87.583s-4.474 2.542-4.206 2.03c.269-.501 1.535-4.323 1.612-4.126.076.193 2.594 2.096 2.594 2.096z" fill="#D4D400"/><path fill-rule="evenodd" clip-rule="evenodd" d="M234.666 84.81c-.988.314-5.23 2.194-5.238 1.644-.008-.542 1.323-4.819 1.392-4.578.069.246 3.848 2.934 3.848 2.934h-.002z" fill="#F9E500"/><path fill-rule="evenodd" clip-rule="evenodd" d="M230.473 80.496c-.3-.217-7.212 3.15-6.497 2.02.717-1.137 3.768-5.267 3.908-4.724.148.55 2.856 2.915 2.59 2.704h-.001z" fill="#fff"/><path fill-rule="evenodd" clip-rule="evenodd" d="M226.637 76.626c-.485.29-5.024 3.94-5.104 3.304-.079-.645 2.199-6.221 2.199-6.221l2.905 2.916v.001z" fill="#3F829E"/><path fill-rule="evenodd" clip-rule="evenodd" d="M223.091 72.558c-.245-.082-4.571 3.604-4.51 3.254.037-.352 2.605-4.846 2.605-4.846s2.149 1.673 1.903 1.59l.002.002z" fill="#8A8695"/><path fill-rule="evenodd" clip-rule="evenodd" d="M220.701 68.746c.266.009-6.5 3.826-6.585 3.39-.068-.445 2.91-6.405 2.91-6.405.166 1.1 1.537 3.007 3.676 3.015h-.001z" fill="#9E2A5E"/><path fill-rule="evenodd" clip-rule="evenodd" d="M215.921 64.278s-5.978 4.733-5.861 4.521c.124-.213 3.148-7.017 3.297-6.828 1.134 1.542.752 2.522 2.564 2.306v.001z" fill="#fff"/><path fill-rule="evenodd" clip-rule="evenodd" d="M212.044 60.254s-4.349 5.065-4.209 3.878c.124-1.191 1.176-6.922 1.264-6.665.686 1.865 1.545 2.814 2.945 2.787z" fill="#EC9F51"/><path fill-rule="evenodd" clip-rule="evenodd" d="M208.564 56.733c-.184-.31-5.213 4.686-5.075 3.82.124-.861 2.025-7.65 2.025-7.65.608 2.56 1.615 3.84 3.05 3.83z" fill="#F2AF00"/><path fill-rule="evenodd" clip-rule="evenodd" d="M204.372 51.917s-5.008 5.522-4.96 4.657c.034-.857 1.772-8.386 1.772-8.386.033 2.731 1.085 3.97 3.188 3.73v-.001z" fill="#58BFF0"/><path fill-rule="evenodd" clip-rule="evenodd" d="M200.697 46.914s-5.827 7.223-5.965 6.322c-.122-.9 3.049-9.67 3.049-9.67.028 2.604 1.004 3.716 2.916 3.348z" fill="#6AB56F"/><path fill-rule="evenodd" clip-rule="evenodd" d="M183.068 31.278s-2.033 4.881-2.117 4.28c-.069-.598-1.245-4.578-1.077-4.456.16.119 3.193.176 3.193.176h.001z" fill="#D4D400"/><path fill-rule="evenodd" clip-rule="evenodd" d="M179.07 30.872c-.575.84-2.791 4.995-3.094 4.534-.323-.458-1.673-4.825-1.483-4.664.196.162 4.577.13 4.577.13z" fill="#F9E500"/><path fill-rule="evenodd" clip-rule="evenodd" d="M173.467 29.806c-.339-.002-3.77 6.96-3.839 5.583-.076-1.376-.003-6.62.402-6.266.399.363 3.764.697 3.437.683z" fill="#fff"/><path fill-rule="evenodd" clip-rule="evenodd" d="M168.442 28.916c-.193.524-1.673 6.266-2.081 5.785-.401-.48-1.664-6.435-1.664-6.435l3.745.65z" fill="#3F829E"/><path fill-rule="evenodd" clip-rule="evenodd" d="M163.599 27.697c-.23.093-1.518 5.684-1.653 5.362-.143-.328-.604-5.516-.604-5.516s2.482.076 2.257.154z" fill="#8A8695"/><path fill-rule="evenodd" clip-rule="evenodd" d="M159.798 26.03c.214-.16-2.828 6.967-3.12 6.654-.293-.317-1.157-6.916-1.157-6.916.695.782 2.692 1.526 4.277.262z" fill="#9E2A5E"/><path fill-rule="evenodd" clip-rule="evenodd" d="M153.968 25.248s-1.998 7.351-2.01 7.108c-.018-.244-1.254-7.505-1.053-7.444 1.605.57 1.835 1.58 3.063.336z" fill="#fff"/><path fill-rule="evenodd" clip-rule="evenodd" d="M149.06 24.325s-.604 6.59-1.118 5.568c-.5-1.03-2.592-6.223-2.398-6.07 1.433 1.078 2.521 1.337 3.516.503v-.001z" fill="#EC9F51"/><path fill-rule="evenodd" clip-rule="evenodd" d="M144.786 23.553c-.293-.138-1.457 6.769-1.784 5.996-.341-.767-2.289-7.235-2.289-7.235 1.679 1.665 3.039 2.082 4.073 1.24z" fill="#F2AF00"/><path fill-rule="evenodd" clip-rule="evenodd" d="M139.412 22.195s-.92 7.26-1.307 6.56c-.374-.713-2.769-7.616-2.769-7.616 1.334 2.106 2.697 2.464 4.076 1.055v.002z" fill="#F9E500"/><path fill-rule="evenodd" clip-rule="evenodd" d="M134.394 20.423s-.723 9.02-1.238 8.381c-.524-.637-2.412-9.287-2.412-9.287 1.251 1.992 2.447 2.304 3.649.907l.001-.001z" fill="#6AB56F"/><path fill-rule="evenodd" clip-rule="evenodd" d="M129.186 18.044c-.269-.132-1.238 6.66-1.557 5.902-.341-.741-2.309-7.07-2.309-7.07 1.623 1.612 2.906 2.005 3.866 1.168z" fill="#F2AF00"/><path fill-rule="evenodd" clip-rule="evenodd" d="M124.295 15.427s-.577 8.943-1.086 8.32c-.52-.622-2.451-9.187-2.451-9.187 1.229 1.974 2.398 2.258 3.537.867z" fill="#6AB56F"/><path fill-rule="evenodd" clip-rule="evenodd" d="M121.012 13.664s-1.469 7.124-1.489 6.885c-.032-.23-1.415-7.194-1.233-7.128 1.452.511 1.677 1.469 2.721.243h.001z" fill="#fff"/><path fill-rule="evenodd" clip-rule="evenodd" d="M117.871 10.834c.169-.162-2.075 6.72-2.329 6.425-.271-.286-1.347-6.55-1.347-6.55.634.725 2.375 1.37 3.678.125h-.002z" fill="#9E2A5E"/><path fill-rule="evenodd" clip-rule="evenodd" d="M170.167 41.57l-32.158-11.6-14.378 6.388 31.103 13.324 15.433-8.112z" fill="#727171"/><path fill-rule="evenodd" clip-rule="evenodd" d="M162.073 41.714c-.18-1.997-3.505-3.078-7.346-2.412-3.775.654-6.618 2.753-6.414 4.683.204 1.924 3.359 3.013 7.11 2.426 3.818-.598 6.83-2.704 6.651-4.697h-.001zm-11.934-4.37l-11.768-5.105-9.246 4.071 13.247 5.45 7.767-4.416z" fill="#9BD5F8"/><path fill-rule="evenodd" clip-rule="evenodd" d="M108.055 9.69l-2.796-7.828-1.732.541 2.759 7.825c.481.345 1.529-.012 1.771-.537h-.002z" fill="#fff"/><path fill-rule="evenodd" clip-rule="evenodd" d="M105.111 2.148c-.366 1.302.009 3.91 1.116 7.823l-2.653-7.401 1.537-.422z" fill="#E7E7E6"/><path fill-rule="evenodd" clip-rule="evenodd" d="M105.285 1.854c-.032-.229-.465-.286-.982-.131-.51.152-.897.454-.863.682.033.226.474.287.983.135.517-.154.896-.458.862-.686z" fill="#B4B4B3"/><path fill-rule="evenodd" clip-rule="evenodd" d="M105.007 1.897c-.02-.144-.319-.174-.645-.078-.341.103-.6.298-.58.442.02.14.313.17.654.068.325-.096.591-.293.57-.432h.001z" fill="#1C1C1B"/><path fill-rule="evenodd" clip-rule="evenodd" d="M110.861 10.644l-2.791-7.853-1.754.534 2.767 7.837c.476.359 1.53-.002 1.777-.518h.001z" fill="#fff"/><path fill-rule="evenodd" clip-rule="evenodd" d="M107.924 3.07c-.385 1.305-.013 3.926 1.091 7.851l-2.654-7.433 1.563-.419z" fill="#E7E7E6"/><path fill-rule="evenodd" clip-rule="evenodd" d="M108.091 2.78c-.033-.23-.468-.288-.98-.137-.524.156-.906.453-.873.681.033.228.467.297.993.143.51-.15.892-.46.86-.688z" fill="#B4B4B3"/><path fill-rule="evenodd" clip-rule="evenodd" d="M107.8 2.83c-.021-.143-.313-.181-.64-.085-.344.102-.605.303-.585.445.02.137.315.172.659.07.329-.096.586-.294.566-.43z" fill="#1C1C1B"/><path fill-rule="evenodd" clip-rule="evenodd" d="M102.688 8.053L99.892.226l-1.732.54 2.759 7.826c.481.345 1.529-.012 1.771-.539h-.002z" fill="#fff"/><path fill-rule="evenodd" clip-rule="evenodd" d="M99.744.51c-.367 1.301.009 3.91 1.115 7.822l-2.652-7.4L99.744.51z" fill="#E7E7E6"/><path fill-rule="evenodd" clip-rule="evenodd" d="M99.918.218c-.032-.229-.465-.286-.982-.131-.51.152-.897.454-.864.681.034.227.474.287.984.136.517-.154.896-.458.862-.686z" fill="#B4B4B3"/><path fill-rule="evenodd" clip-rule="evenodd" d="M99.638.26c-.02-.146-.32-.174-.645-.078-.34.101-.6.298-.58.442.02.14.313.168.654.068.324-.097.59-.293.57-.432h.001z" fill="#1C1C1B"/><path fill-rule="evenodd" clip-rule="evenodd" d="M105.492 9.007l-2.791-7.853-1.754.534 2.767 7.837c.475.359 1.53-.002 1.777-.518h.001z" fill="#fff"/><path fill-rule="evenodd" clip-rule="evenodd" d="M102.555 1.432c-.385 1.306-.013 3.927 1.091 7.852l-2.654-7.433 1.563-.42z" fill="#E7E7E6"/><path fill-rule="evenodd" clip-rule="evenodd" d="M102.722 1.142c-.033-.23-.468-.286-.98-.136-.525.157-.907.454-.873.682.033.226.467.297.993.142.51-.15.892-.46.86-.688z" fill="#B4B4B3"/><path fill-rule="evenodd" clip-rule="evenodd" d="M102.431 1.191c-.019-.142-.312-.18-.64-.083-.344.101-.606.303-.585.445.02.138.315.171.659.071.328-.096.586-.294.566-.432z" fill="#1C1C1B"/><path fill-rule="evenodd" clip-rule="evenodd" d="M182.656 66.372l.892 3.61-4.041-1.64-.798-3.544 3.947 1.574zM159.1 56.715l.931 3.5-3.758-1.525-.841-3.437 3.668 1.462zm-7.739-3.301l.935 3.472-3.667-1.489-.852-3.404 3.584 1.42zm-11.783-5.353l.238 3.398-3.515-1.423-.354-3.64 3.631 1.665zm-14.183-6.693l.293 3.357-3.36-1.36-.404-3.585 3.471 1.588zm-13.583-6.008l.329 3.3-3.211-1.292-.45-3.53 3.332 1.521zm-13.027-5.881l.376 3.266-3.07-1.24-.497-3.48 3.191 1.454z" fill="#C7E6FB"/></svg>