<svg width="94" height="65" fill="none" xmlns="http://www.w3.org/2000/svg"><path fill-rule="evenodd" clip-rule="evenodd" d="M5.595 16.448H9.91l.15-.126.04.446.35.19c.041-.463-.17-1.155-.632-2.074-.124-.252-.27-.52-.434-.806L3.602 3.111c-.18-.35-.422-.609-.723-.773l-.822-.4-.375.125.32.19.545.317c.338.161.582.445.732.85l5.284 11.131c.058.113.11.223.154.332.184.454.246.866.182 1.237l.372.202-.747-.002-2.61-.005H5.53l-.11.133h.176zm-.497.675l.18-.076a.238.238 0 00.053-.097c.037-.115 0-.274-.109-.478a.802.802 0 00-.201-.183.224.224 0 00-.164-.035.19.19 0 00-.083.042H4.45l-1.297-.746 1.173.898.383.03a.627.627 0 00.02.269c.012.04.027.08.046.123.108.164.217.25.324.254zm4.002 1.83l-.788-.536-2.17 3.96h.65L9.1 18.954zm17.633 2.33l-3.999 2.308.61.328 3.912-2.238-.523-.398z" fill="#834A74"/><path fill-rule="evenodd" clip-rule="evenodd" d="M4.729 16.747a.627.627 0 01-.021-.268l-.382-.03-1.173-.9-2.766.15v1.047h4.342zm5.181-.298H5.594v.007a.013.013 0 01-.002-.007H5.42v.298h.674l1.173.773.583-.036 2.301-.147-.024-.085-.218-.804zm5.382 11.44l4.7-2.715-2.389-1.154-.564.325-4.215 2.423 2.468 1.12z" fill="#A76E98"/><path fill-rule="evenodd" clip-rule="evenodd" d="M6.458 17.157l-1.46 4.55 1.145.672 2.169-3.96-1.854-1.262zm14.017 5.215l2.26 1.22 3.999-2.308-2.418-1.121-3.841 2.209zM6.848 15.014L8.9 16.121c.063-.371.002-.783-.182-1.237a4.044 4.044 0 00-.154-.332L3.28 3.422c-.15-.407-.394-.69-.732-.85l-.545-.319 4.64 11.228c.204.547.28 1.014.226 1.403a1.033 1.033 0 01-.022.13z" fill="#A76E98"/><path fill-rule="evenodd" clip-rule="evenodd" d="M6.553 14.855l.293.158c.01-.042.017-.086.022-.13.054-.388-.022-.856-.225-1.403L2.002 2.253l-.32-.19 4.736 11.44c.188.564.233 1.014.135 1.352zm-.095 2.302l-.393-.268-1.467 4.394.4.422 1.46-4.548zm13.534 8.017l-4.7 2.715-2.468-1.122 2.38 1.503h.536l3.843-2.197.793-.455-.384-.444z" fill="#834A74"/><path fill-rule="evenodd" clip-rule="evenodd" d="M5.915 16.316l-.32-.192-2.218-1.645.298.474 1.406 1.187c.12-.098.269-.04.447.175h.387zm14.077 8.86l.384.444-.794.454 11.116 7.55c.27.184.47.467.6.848l.04.119-.75-3.406-22.739-13.7-.583.036-1.173-.773h-.24l.212.142.393.268 1.854 1.261.79.535 7.938 5.393.564-.325 2.389 1.155-.001-.001z" fill="#834A74"/><path fill-rule="evenodd" clip-rule="evenodd" d="M8.9 16.121l-2.054-1.107-.293-.158-.56-.304-2.332-.246-.284.173 2.368.223 2.78 1.619.747.002-.373-.202zm24.567 13.57l2.308-1.363-3.23.56-9.202-4.968-.609-.328-2.26-1.22-10.025-5.413-.35-.19.045.493 21.066 12.26.11.027.098.024 2.048.118zm-2.147-.142l1.225-.661-1.225.66z" fill="#BEBEBE"/><path d="M46.932 33.837l.663.41-.03-1.218-.039-1.522-.018-1.664c-.201-.174-.42-.172-.655.008l.025 1.31.034 1.737.02.94zm.916-2.099v2.33l.339-.223.003-.448.004-1.498.005-1.496c-.117-.085-.235-.087-.351-.005v1.34zm-1.555-.908v2.613l.332.21v-4.139c-.114-.106-.224-.106-.332 0v1.316z" fill="#834A74"/><path fill-rule="evenodd" clip-rule="evenodd" d="M49.552 29.971c0 .564-1.027 1.022-2.294 1.022-1.266 0-2.294-.458-2.294-1.022 0-.113-.092-.96-.015-1.063.304-.405 1.298.04 2.31.04.945 0 1.926-.404 2.277-.04.119.124.016.92.016 1.063z" fill="#A76E98"/><path fill-rule="evenodd" clip-rule="evenodd" d="M46.901 32.895l-.013-1.737-.264-.126v2.039l.277-.175v-.001zm-.609.252V30.83l-1.213-.704-2.006-.704-3.783-1.263a3.801 3.801 0 00-1.062-.185l-3.199 1.84c.14.036.276.084.408.144l3.392 1.751 5.392 2.475 4.174 1.14c.317.065.574.028.77-.111l1.769-1.033-1.526-1.612-1.214-.668-.004 1.497.348.216-.35.233-.34.223-.277.182-.658-.417-.287-.18-.332-.21-.232-.148.232-.149-.002-.001zm1.24-1.636l.021 1.522.294.173v-1.467l-.315-.228zm-3.081 4.554l-.428.403 8.45 3.126c.444.218.816.591 1.117 1.122l1.648 2.382 1.94-1.145-1.629-2.2a3.136 3.136 0 00-.94-.953l-3.667-2.676.05.192c.096.306.029.517-.202.63l-.73.427a.768.768 0 01-.057.03c-.417.224-.834.264-1.252.122l-4.301-1.46z" fill="#fff"/><path d="M35.776 28.328l-2.31 1.363.774.036a2.75 2.75 0 01.79.088l3.199-1.84a3.604 3.604 0 00-.626.036l-1.828.317z" fill="#834A74"/><path fill-rule="evenodd" clip-rule="evenodd" d="M5.42 16.448l.109-.133c-.18-.215-.328-.273-.448-.175l-.226.114a.223.223 0 01.164.035c.063.037.13.097.202.183.109.204.145.363.109.479a.23.23 0 01-.053.096l.216-.095a.132.132 0 00.036-.014.26.26 0 00.12-.192h-.23v-.298z" fill="#834A74"/><path fill-rule="evenodd" clip-rule="evenodd" d="M43.594 36.87l.47-1.931-4.257-1.975h-.012a.843.843 0 01-.399-.088l-4.515-2.422c.016.06.036.123.062.19l1.989 5.188 6.385 3.78 9.483 3.572c.35.108.672.176.97.207l.106.007.152.007-1.377-2.212a2.02 2.02 0 00-.889-.71l-8.378-2.902.21-.71zM31.21 29.52L10.145 17.261l-.044-.493-.04-.445-.15.125.217.804.017.01.007.075-2.301.147 22.737 13.7.701-1.619-.077-.045zM5.915 16.316l2.61.005-2.78-1.62-2.368-.222 2.219 1.645.32.192zm24.673 14.868l3.932 3.053-1.197-3.778a.8.8 0 01-.04-.41l-1.863-.477-.13-.007-.702 1.62z" fill="#A76E98"/><path fill-rule="evenodd" clip-rule="evenodd" d="M64.653 58.28c-1.846.209-4.027-.185-6.541-1.182-.448.308-.504.583-.17.825l2.988.836c1.443.212 2.684.052 3.723-.478zm-7.597-15.666l-.026.016a23.593 23.593 0 012.982 2.797 4.54 4.54 0 012.107-.052c.508.1 1.035.28 1.58.537l-.253-.54a8.618 8.618 0 00-1.328-2.121 9.762 9.762 0 00-1.588-1.484 5.608 5.608 0 00-1.714.137 6.457 6.457 0 00-1.742.7l-.02.01h.002zm-2.09 11.616a10.451 10.451 0 001.221.204c0-.01 0-.02-.002-.03a21.965 21.965 0 01-.024-1.707c.06-2.337.494-4.128 1.302-5.371a4.48 4.48 0 011.554-1.489l.01-.004a17.006 17.006 0 00-2.904-2.698 7.056 7.056 0 00-1.549 1.142c-.33.318-.663.682-.997 1.093-.12.15-.241.306-.362.467l-.14.19c-.038.43-.054.862-.048 1.299a13.697 13.697 0 00.455 3.18l1.485 3.724zm-2.98-5.727a33.603 33.603 0 01-.08-.49 22.403 22.403 0 01-.104-.83l-2.41-1.227a7.74 7.74 0 00-.049 1.37c.011.216.028.445.048.687l.029.266 2.818 1.417c-.096-.398-.18-.795-.252-1.192zm-4.083-1.033l-.01-.144c-.026-.44-.034-.872-.023-1.297 0-.067-.004-.13-.012-.192-.046-.384-.232-.662-.56-.834l-4.534-2.397c-.262-.05-.386.074-.37.372-.003.14-.002.286.003.441a41.988 41.988 0 013.536 2.419 33.71 33.71 0 011.97 1.633v-.001zm1.612 1.562a23.734 23.734 0 012.778 3.503l.05.078c.04.062.078.123.115.185l.972.446a22.876 22.876 0 01-1.045-2.979l-2.899-1.439.029.206z" fill="#70C4F4"/><path fill-rule="evenodd" clip-rule="evenodd" d="M62.773 49.342c.919-.059 1.854.128 2.804.562L63.7 45.912a6.808 6.808 0 00-1.581-.538 4.54 4.54 0 00-2.107.052 20.448 20.448 0 012.761 3.916zm-3.747-3.51a4.462 4.462 0 00-1.564 1.493c-.807 1.244-1.242 3.034-1.302 5.371a22.006 22.006 0 00.027 1.737 10.825 10.825 0 00.989.055c.723-2.35 1.982-3.916 3.775-4.695.215-.093.43-.173.647-.238a24.305 24.305 0 00-1.403-2.23 20.476 20.476 0 00-1.168-1.494v.001zM47.902 47.47l-.042-.037a33.71 33.71 0 00-1.927-1.595 40.413 40.413 0 00-2.83-1.977c-.236-.15-.471-.297-.706-.441.01.243.028.505.057.787l.007.07c.014.127.03.257.048.39l5.4 2.873-.006-.07zm.046.522l-2.364-1.213.484 2.764 2.401 1.22a17.853 17.853 0 01-.521-2.77zm1.566 1.04c.112.781.276 1.663.493 2.643l2.45 1.124c-.037-.062-.076-.123-.115-.185l-.05-.079a23.75 23.75 0 00-2.778-3.503zm-6.322-.95l2.48 1.259-.508-2.778-2.571-1.323c.031.193.066.392.104.598a39.748 39.748 0 00.495 2.244z" fill="#70C4F4"/><path fill-rule="evenodd" clip-rule="evenodd" d="M62.773 49.342c.406.747.765 1.521 1.076 2.32l2.036-1.107-.308-.651c-.95-.434-1.885-.62-2.803-.562h-.001zm-5.599 5.145c.79.005 1.597-.081 2.42-.258l3.32-1.989a29.47 29.47 0 00-1.318-2.686 5.802 5.802 0 00-.646.238c-1.794.78-3.053 2.344-3.776 4.695z" fill="#70C4F4"/><path fill-rule="evenodd" clip-rule="evenodd" d="M36.933 35.832a2.95 2.95 0 01-.173.383 1.759 1.759 0 00-.201.67l5.121 3.186 8.542 3.034 3.548.285a5.028 5.028 0 01-.969-.207l-9.483-3.572-6.385-3.78zm-2.413-1.596l-3.932-3.052 3.849 4.38a3.265 3.265 0 01-.093-.651c-.01-.307.049-.532.175-.676v-.001z" fill="#834A74"/><path d="M69.004 54.001c.299 1.131.063 2.103-.7 2.908a4.58 4.58 0 01-1.2.75c-.666.29-1.486.499-2.45.625-1.846.208-4.026-.188-6.544-1.187-.445.312-.5.584-.167.825l-1.693-.471a7.55 7.55 0 01-.91-1.242c-.013-.021-.028-.035-.034-.056a1.318 1.318 0 01-.125-.215 2.356 2.356 0 01-.084-.139c-.048-.096-.104-.194-.16-.298-.069-.132-.13-.264-.2-.402.07.028.138.055.2.083.452.187.903.368 1.354.541.104.042.215.077.319.118.07.028.139.049.208.077a35.294 35.294 0 006.253 1.659c1.638.09 2.984-.118 4.032-.632.382-.187.721-.41 1.027-.673.728-.638 1.026-1.387.874-2.269v-.002zm-8.472-12.236a5.53 5.53 0 00-1.124.036 4.46 4.46 0 00-.59.103 6.375 6.375 0 00-1.742.701l-.021.007-.979.548c-.5.264-1 .639-1.499 1.118-.333.319-.666.68-1 1.09-.117.152-.243.304-.36.471-.049.056-.097.125-.146.188-.035.43-.048.86-.041 1.298a11 11 0 00.076 1.18c.07.658.194 1.325.375 1.998l1.486 3.726v.277c-.008-.006-.015-.006-.029-.006a5.828 5.828 0 01-.312-.097c-.084-.028-.166-.063-.243-.09a24.062 24.062 0 01-.486-1.235.203.203 0 01-.027-.07c-.056-.153-.118-.312-.174-.472a42.006 42.006 0 01-.604-1.915 1.15 1.15 0 01-.049-.145c-.049-.153-.09-.313-.139-.472a7.486 7.486 0 01-.124-.52c-.028-.084-.042-.16-.063-.244-.014-.076-.034-.16-.042-.236-.007-.007-.013-.021-.007-.027a11.93 11.93 0 01-.09-.472 10.242 10.242 0 01-.117-1.18c0-.063-.007-.118 0-.18-.007-.008-.007-.014-.007-.021 0-.104-.007-.216 0-.32.014-.242-.042-.43-.152-.548a.404.404 0 00-.118-.096c-.014-.015-.035-.021-.063-.028l-.396-.188-.208-.103-.305-.147-.222-.11-.05-.02v-.008l-1.103-.527-.305-.153-.478-.23c-.14.334-.23.73-.271 1.195a6.699 6.699 0 00-.021.54c0 .292.02.605.056.945.021.222.048.45.084.687.013.048.02.104.028.152l.041.312v.029c.035.263.07.52.11.777 0 0 0 .007.008.014.118.805.264 1.582.43 2.318l.042.16v.013l-.438-.229c-.2-.951-.388-1.971-.555-3.053-.027-.16-.048-.327-.069-.493-.014-.049-.02-.097-.028-.146a12.254 12.254 0 01-.14-2.026c.015-.465.063-.917.14-1.347l-5.608-2.741c-.722-.36-1.118-.313-1.194.16-.02.11-.02.25 0 .402.007.084.02.174.042.264l.93 5.587-2.325-1.222c-.18-.367-.354-.735-.527-1.103-.236-.52-.465-1.04-.694-1.561-.007-.028-.021-.049-.028-.07a66.846 66.846 0 01-2.484-6.76c0-.006-.008-.02-.008-.034a2.297 2.297 0 01-.013-.528l5.121 3.186 8.543 3.033 3.546.284c.035.007.07.007.104.007.056.007.104.007.152.007.41.007.764-.063 1.062-.223l.146-.083 1.943-1.145c.222-.167.291-.396.215-.673a1.676 1.676 0 00-.215-.458l-1.145-1.507 4.497 2.45h.001z" fill="#834A74"/><path d="M56.25 57.45l-4.054-1.36-1.457-.555.125.708-.451-.25-.125-.66-5.836-3.171-2.97-2.005-.201-.202-.382-.277-.438-.396a31.729 31.729 0 01-3.275-3.443 35.476 35.476 0 01-1.194-1.56c-.014-.028-.035-.05-.048-.07a31.77 31.77 0 01-2.055-3.33c-.208-.452-.41-.896-.61-1.347a58.746 58.746 0 01-1.354-3.317c-.167-.43-.319-.868-.471-1.305-.042-.104-.077-.215-.111-.32l-.757-3.406 3.851 4.379c.063.222.132.438.195.652.006.021.014.035.02.048a61.056 61.056 0 003.06 7.946c.015.022.022.043.036.07.243.52.5 1.041.757 1.562.02.041.048.089.069.131.18.478.75 1.02 1.707 1.624l2.478 1.305.027.173c.097.334.215.645.354.938.029.055.05.103.084.152.222.437.5.818.826 1.145.222.223.464.417.729.583l.547.292 3.283 1.748 1.326.702c-.007-.036-.02-.07-.028-.105l-.041-.124a23.246 23.246 0 01-.486-1.77h-.007a1.49 1.49 0 01-.02-.097l-.064-.257.451.236c0 .008.007.014.007.021a23.073 23.073 0 00.576 1.86v.007c.028.07.049.139.077.208 0 .007.007.007.007.007.035.104.07.208.11.312l1.02.445.334.152.117.05.084.041.645.277.083.042.244.104.152.07.265.11.651.291 2.138.937v-.001z" fill="#834A74"/><path d="M56.25 57.45l-2.138-.937-.651-.29-.265-.112-.152-.07-.244-.103-.083-.042-.645-.277-.084-.042-.117-.049-.334-.153-1.02-.444a5.196 5.196 0 01-.11-.312s-.007 0-.007-.008c-.028-.069-.05-.138-.077-.208v-.006a23.162 23.162 0 01-.577-1.86c0-.007-.006-.014-.006-.02l4.997 2.581c.07.138.131.27.201.403.056.103.111.201.16.298.027.049.055.097.084.139.034.076.076.145.124.215.007.02.021.035.035.055.298.5.604.91.909 1.242zm-1.868-3.136l-4.823-2.526v-.014l-.042-.16a31.245 31.245 0 01-.43-2.317c-.008-.008-.008-.014-.008-.014a24.086 24.086 0 01-.11-.778v-.028l-.042-.312c-.007-.048-.014-.104-.028-.152a12.612 12.612 0 01-.083-.687 9.21 9.21 0 01-.056-.945c0-.187.007-.367.02-.54.042-.466.132-.86.271-1.194l.478.23.306.151 1.104.528v.007l.048.021.222.11.306.146.208.104.396.188c.028.007.049.013.062.028a.408.408 0 01.118.096c.11.118.167.305.152.549-.006.103 0 .215 0 .319 0 .007 0 .013.008.02-.008.063 0 .118 0 .181.014.382.056.777.118 1.18.027.152.055.311.089.471-.006.007 0 .021.007.028.007.077.028.16.042.236.02.084.035.16.063.243.035.174.077.347.124.52.05.16.09.32.14.472.013.05.027.097.048.146.194.68.403 1.319.604 1.915.056.16.118.32.174.472a.203.203 0 00.027.07c.16.437.32.846.486 1.235h.001zm-.95-1.069a23.412 23.412 0 01-1.048-2.977l-2.901-1.443c.013.07.02.138.027.208.118.778.277 1.66.492 2.644l2.457 1.125.972.444zm-4.012-4.969l2.817 1.423c-.097-.402-.18-.798-.25-1.193l-.084-.492a22.98 22.98 0 01-.09-.687c-.006-.05-.006-.098-.013-.14l-2.41-1.227a7.57 7.57 0 00-.049 1.368c.008.215.028.444.05.687.006.089.013.173.027.263z" fill="#834A74"/><path d="M53.14 52.536c.09.237.187.472.291.708l-.972-.444-2.457-1.125a41.877 41.877 0 01-.492-2.644 2.059 2.059 0 00-.028-.208l2.901 1.444c.209.75.458 1.506.757 2.269zm-.903-2.838l-2.817-1.423c-.014-.09-.02-.173-.028-.263-.02-.244-.042-.472-.049-.687a7.57 7.57 0 01.05-1.367l2.408 1.228c.007.042.007.09.013.139.028.229.056.457.09.687l.084.492c.07.396.153.792.25 1.193v.001zm-2.331 4.83c.007.035.021.07.028.104l-1.326-.701-3.282-1.748-.548-.292a4.149 4.149 0 01-.73-.583 4.462 4.462 0 01-.825-1.146c-.035-.048-.056-.096-.084-.152a6.233 6.233 0 01-.354-.937l-.027-.174 6.53 3.38c.021.084.042.167.063.257.007.035.014.07.021.097h.007c.146.618.305 1.207.486 1.77l.041.124zm-.784-2.97l-6.482-3.394-.93-5.587a1.837 1.837 0 01-.042-.263 1.297 1.297 0 010-.403c.077-.472.472-.52 1.194-.16l5.607 2.742c-.077.43-.124.881-.139 1.346a12.221 12.221 0 00.14 2.026c.007.05.014.098.028.146.021.167.042.333.07.493.166 1.082.354 2.103.554 3.054zm-3.053-2.02l2.401 1.222c-.208-.764-.36-1.52-.458-2.255-.028-.167-.042-.327-.063-.493v-.02l-2.366-1.215.486 2.762zm1.839-1.998c0-.028-.007-.05-.007-.07 0-.049-.007-.097-.007-.145a16.117 16.117 0 01-.028-1.299c0-.062 0-.131-.007-.187-.049-.389-.236-.666-.563-.84l-4.531-2.394c-.264-.05-.39.077-.375.375a11.662 11.662 0 00.063 1.23c0 .02.006.04.006.068.015.125.028.257.05.389l5.399 2.873zm-2.235 1.797l-.506-2.776-2.576-1.325c.035.194.07.395.105.604.124.651.283 1.38.478 2.172l.02.07 2.478 1.256z" fill="#834A74"/><path d="M47.9 47.47c0 .022.007.043.007.07l-5.4-2.873c-.02-.132-.034-.264-.048-.389 0-.027-.007-.048-.007-.069a11.758 11.758 0 01-.056-.792c-.006-.153-.006-.298-.006-.437-.015-.298.11-.424.374-.375L47.296 45c.326.173.514.45.562.84.008.055.008.124.008.187-.008.423 0 .86.028 1.298 0 .048.006.096.006.145zm21.104 6.531c.299 1.131.063 2.103-.7 2.908a4.58 4.58 0 01-1.2.75c-.666.29-1.486.499-2.45.625-1.846.208-4.026-.188-6.544-1.187-.445.312-.5.584-.167.825l-1.693-.471a7.55 7.55 0 01-.91-1.242c-.013-.021-.028-.035-.034-.056a1.318 1.318 0 01-.125-.215 2.356 2.356 0 01-.084-.139c-.048-.096-.104-.194-.16-.298-.069-.132-.13-.264-.2-.402.07.028.138.055.2.083.452.187.903.368 1.354.541.104.042.215.077.319.118.07.028.139.049.208.077a35.294 35.294 0 006.253 1.659c1.638.09 2.984-.118 4.032-.632.382-.187.721-.41 1.027-.673.728-.638 1.026-1.387.874-2.269v-.002z" fill="#834A74"/><path d="M60.532 41.765a5.53 5.53 0 00-1.124.036 4.46 4.46 0 00-.59.103 6.375 6.375 0 00-1.742.701l-.021.007-.979.548c-.5.264-1 .639-1.499 1.118-.333.319-.666.68-1 1.09-.117.152-.243.304-.36.471-.049.056-.097.125-.146.188-.035.43-.048.86-.041 1.298a11 11 0 00.076 1.18c.07.658.194 1.325.375 1.998l1.486 3.726v.277c-.008-.006-.015-.006-.029-.006a5.828 5.828 0 01-.312-.097c-.084-.028-.166-.063-.243-.09a24.062 24.062 0 01-.486-1.235.203.203 0 01-.027-.07c-.056-.153-.118-.312-.174-.472a42.006 42.006 0 01-.604-1.915 1.15 1.15 0 01-.049-.145c-.049-.153-.09-.313-.139-.472a7.486 7.486 0 01-.124-.52c-.028-.084-.042-.16-.063-.244-.014-.076-.034-.16-.042-.236-.007-.007-.013-.021-.007-.027a11.93 11.93 0 01-.09-.472 10.242 10.242 0 01-.117-1.18c0-.063-.007-.118 0-.18-.007-.008-.007-.014-.007-.021 0-.104-.007-.216 0-.32.014-.242-.042-.43-.152-.548a.404.404 0 00-.118-.096c-.014-.015-.035-.021-.063-.028l-.396-.188-.208-.103-.305-.147-.222-.11-.05-.02v-.008l-1.103-.527-.305-.153-.478-.23c-.14.334-.23.73-.271 1.195a6.699 6.699 0 00-.021.54c0 .292.02.605.056.945.021.222.048.45.084.687.013.048.02.104.028.152l.041.312v.029c.035.263.07.52.11.777 0 0 0 .007.008.014.118.805.264 1.582.43 2.318l.042.16v.013l-.438-.229c-.2-.951-.388-1.971-.555-3.053-.027-.16-.048-.327-.069-.493-.014-.049-.02-.097-.028-.146a12.254 12.254 0 01-.14-2.026c.015-.465.063-.917.14-1.347l-5.608-2.741c-.722-.36-1.118-.313-1.194.16-.02.11-.02.25 0 .402.007.084.02.174.042.264l.93 5.587-2.325-1.222c-.18-.367-.354-.735-.527-1.103-.236-.52-.465-1.04-.694-1.561-.007-.028-.021-.049-.028-.07a66.846 66.846 0 01-2.484-6.76c0-.006-.008-.02-.008-.034a2.297 2.297 0 01-.013-.528l5.121 3.186 8.543 3.033 3.546.284c.035.007.07.007.104.007.056.007.104.007.152.007.41.007.764-.063 1.062-.223l.146-.083 1.943-1.145c.222-.167.291-.396.215-.673a1.676 1.676 0 00-.215-.458l-1.145-1.507 4.497 2.45h.001z" fill="#A76E98"/><path d="M56.25 57.45l-4.054-1.36-1.457-.555.125.708-.451-.25-.125-.66-5.836-3.171-2.97-2.005-.201-.202-.382-.277-.438-.396a31.729 31.729 0 01-3.275-3.443 35.476 35.476 0 01-1.194-1.56c-.014-.028-.035-.05-.048-.07a31.77 31.77 0 01-2.055-3.33c-.208-.452-.41-.896-.61-1.347a58.746 58.746 0 01-1.354-3.317c-.167-.43-.319-.868-.471-1.305-.042-.104-.077-.215-.111-.32l-.757-3.406 3.851 4.379c.063.222.132.438.195.652.006.021.014.035.02.048a61.056 61.056 0 003.06 7.946c.015.022.022.043.036.07.243.52.5 1.041.757 1.562.02.041.048.089.069.131.18.478.75 1.02 1.707 1.624l2.478 1.305.027.173c.097.334.215.645.354.938.029.055.05.103.084.152.222.437.5.818.826 1.145.222.223.464.417.729.583l.547.292 3.283 1.748 1.326.702c-.007-.036-.02-.07-.028-.105l-.041-.124a23.246 23.246 0 01-.486-1.77h-.007a1.49 1.49 0 01-.02-.097l-.064-.257.451.236c0 .008.007.014.007.021a23.073 23.073 0 00.576 1.86v.007c.028.07.049.139.077.208 0 .007.007.007.007.007.035.104.07.208.11.312l1.02.445.334.152.117.05.084.041.645.277.083.042.244.104.152.07.265.11.651.291 2.138.937v-.001z" fill="#834A74"/><path d="M56.25 57.45l-2.138-.937-.651-.29-.265-.112-.152-.07-.244-.103-.083-.042-.645-.277-.084-.042-.117-.049-.334-.153-1.02-.444a5.196 5.196 0 01-.11-.312s-.007 0-.007-.008c-.028-.069-.05-.138-.077-.208v-.006a23.162 23.162 0 01-.577-1.86c0-.007-.006-.014-.006-.02l4.997 2.581c.07.138.131.27.201.403.056.103.111.201.16.298.027.049.055.097.084.139.034.076.076.145.124.215.007.02.021.035.035.055.298.5.604.91.909 1.242z" fill="#834A74"/><path d="M54.382 54.314l-4.823-2.526v-.014l-.042-.16a31.245 31.245 0 01-.43-2.317c-.008-.008-.008-.014-.008-.014a24.086 24.086 0 01-.11-.778v-.028l-.042-.312c-.007-.048-.014-.104-.028-.152a12.612 12.612 0 01-.083-.687 9.21 9.21 0 01-.056-.945c0-.187.007-.367.02-.54.042-.466.132-.86.271-1.194l.478.23.306.151 1.104.528v.007l.048.021.222.11.306.146.208.104.396.188c.028.007.049.013.062.028a.408.408 0 01.118.096c.11.118.167.305.152.549-.006.103 0 .215 0 .319 0 .007 0 .013.008.02-.008.063 0 .118 0 .181.014.382.056.777.118 1.18.027.152.055.311.089.471-.006.007 0 .021.007.028.007.077.028.16.042.236.02.084.035.16.063.243.035.174.077.347.124.52.05.16.09.32.14.472.013.05.027.097.048.146.194.68.403 1.319.604 1.915.056.16.118.32.174.472a.203.203 0 00.027.07c.16.437.32.846.486 1.235h.001zm-.95-1.069a23.412 23.412 0 01-1.048-2.977l-2.901-1.443c.013.07.02.138.027.208.118.778.277 1.66.492 2.644l2.457 1.125.972.444zm-4.012-4.969l2.817 1.423c-.097-.402-.18-.798-.25-1.193l-.084-.492a22.98 22.98 0 01-.09-.687c-.006-.05-.006-.098-.013-.14l-2.41-1.227a7.57 7.57 0 00-.049 1.368c.008.215.028.444.05.687.006.089.013.173.027.263z" fill="#fff"/><path d="M53.14 52.536c.09.237.187.472.291.708l-.972-.444-2.457-1.125a41.877 41.877 0 01-.492-2.644 2.059 2.059 0 00-.028-.208l2.901 1.444c.209.75.458 1.506.757 2.269zm-.903-2.838l-2.817-1.423c-.014-.09-.02-.173-.028-.263-.02-.244-.042-.472-.049-.687a7.57 7.57 0 01.05-1.367l2.408 1.228c.007.042.007.09.013.139.028.229.056.457.09.687l.084.492c.07.396.153.792.25 1.193v.001z" fill="#70C4F4"/><path d="M49.906 54.528c.007.035.021.07.028.104l-1.326-.701-3.282-1.748-.548-.292a4.149 4.149 0 01-.73-.583 4.462 4.462 0 01-.825-1.146c-.035-.048-.056-.096-.084-.152a6.233 6.233 0 01-.354-.937l-.027-.174 6.53 3.38c.021.084.042.167.063.257.007.035.014.07.021.097h.007c.146.618.305 1.207.486 1.77l.041.124z" fill="#834A74"/><path d="M49.122 51.558l-6.482-3.394-.93-5.587a1.837 1.837 0 01-.042-.263 1.297 1.297 0 010-.403c.077-.472.472-.52 1.194-.16l5.607 2.742c-.077.43-.124.881-.139 1.346a12.221 12.221 0 00.14 2.026c.007.05.014.098.028.146.021.167.042.333.07.493.166 1.082.354 2.103.554 3.054zm-3.053-2.02l2.401 1.222c-.208-.764-.36-1.52-.458-2.255-.028-.167-.042-.327-.063-.493v-.02l-2.366-1.215.486 2.762zm1.839-1.998c0-.028-.007-.05-.007-.07 0-.049-.007-.097-.007-.145a16.117 16.117 0 01-.028-1.299c0-.062 0-.131-.007-.187-.049-.389-.236-.666-.563-.84l-4.531-2.394c-.264-.05-.39.077-.375.375a11.662 11.662 0 00.063 1.23c0 .02.006.04.006.068.015.125.028.257.05.389l5.399 2.873zm-2.235 1.797l-.506-2.776-2.576-1.325c.035.194.07.395.105.604.124.651.283 1.38.478 2.172l.02.07 2.478 1.256z" fill="#fff"/><path d="M47.9 47.47c0 .022.007.043.007.07l-5.4-2.873c-.02-.132-.034-.264-.048-.389 0-.027-.007-.048-.007-.069a11.758 11.758 0 01-.056-.792c-.006-.153-.006-.298-.006-.437-.015-.298.11-.424.374-.375L47.296 45c.326.173.514.45.562.84.008.055.008.124.008.187-.008.423 0 .86.028 1.298 0 .048.006.096.006.145z" fill="#70C4F4"/><path d="M36.559 36.886l-2.121-1.323c.065.219.13.436.197.652l.016.05a65.578 65.578 0 001.42 4.081 62.206 62.206 0 001.643 3.86l.033.07a64.941 64.941 0 00.827 1.695c.183.478.754 1.02 1.709 1.626l2.48 1.306-.124-.742-2.325-1.22a64.768 64.768 0 01-1.247-2.735 67.715 67.715 0 01-1.275-3.189 63.364 63.364 0 01-1.206-3.567l-.01-.033a2.41 2.41 0 01-.016-.531h-.001zm-2.039-2.649l2.413 1.596-1.989-5.189a1.948 1.948 0 01-.062-.19l-1.6-.405a.799.799 0 00.041.41l1.197 3.778zm9.93 1.828l.077-1.007-.462-.118-.47 1.931.43-.403.427-.403h-.001zm1.842-2.621v-.296l-.232.149.232.147zm.333.21l.286.18-.01-.938-.276.175v.583zm1.564-.256l-.003.448.351-.233-.348-.216v.001zm-.62.853l.277-.182v-.863l-.293-.173.017 1.218z" fill="#834A74"/><path d="M50.682 35.112l-1.374.903c-.228.136-.5.158-.818.067a1.547 1.547 0 01-.19-.067l-3.773-.958-.076 1.008 4.302 1.46c.417.142.834.101 1.252-.121a.832.832 0 00.056-.03l.73-.428c.231-.114.299-.324.202-.63l-.05-.192-.259-1.01-.002-.002zM49.126 51.56l-6.487-3.398.123.742 6.528 3.375.452.234 4.997 2.582a20.081 20.081 0 01-.356-.782l-4.82-2.524-.437-.228zM50.39 63.9l-16.88-9.344.118.464 16.428 9.123c.825.435 1.495.477 2.01.128v-.434c-.486.308-1.045.328-1.676.062v.001zm1.81-7.81l-1.335.151c-1.53 1.267-2.52 2.948-2.972 5.044l-.034.157a10.83 10.83 0 00-.114.663h.301l.01-.043c.036-.173.074-.343.113-.511.022-.089.045-.177.069-.266.51-1.893 1.393-3.44 2.65-4.641l1.31-.555.002.001zm-14.72.178h.35l.006-.034a12.8 12.8 0 01.585-2.183l.015-.043a9.31 9.31 0 01.706-1.474c.174-.286.36-.554.56-.806.233-.296.486-.568.76-.814a6.456 6.456 0 011.02-.76l-.202-.2a6.35 6.35 0 00-1.579 1.299 7.789 7.789 0 00-.908 1.282c-.554.972-.978 2.146-1.27 3.522l-.043.211z" fill="#834A74"/><path d="M33.51 54.557L50.39 63.9c.63.267 1.19.247 1.676-.061-.73 0-1.537-.289-2.42-.87l-1.59-.906c-.003.014-.005.029-.009.043h-.3l-.505-.277.505.277.03-.204a10.781 10.781 0 01.084-.46l.033-.156c.452-2.097 1.442-3.778 2.972-5.044l-.453-.251a2.704 2.704 0 00-.094.083c-1.081.955-1.9 2.142-2.458 3.562a11.68 11.68 0 00-.507 1.65l-.057.266-.014.07-9.446-5.387c0 .011-.003.023-.004.034h-.351l-.43-.228.43.228.043-.211c.292-1.376.716-2.55 1.27-3.522a7.78 7.78 0 01.908-1.283 6.345 6.345 0 011.579-1.298l-.38-.278a9.099 9.099 0 00-1.2 1 8.722 8.722 0 00-1.422 1.859c-.548.957-.943 2.05-1.184 3.276l-2.91-1.66-.674.406-.002-.001z" fill="#A76E98"/><path fill-rule="evenodd" clip-rule="evenodd" d="M54.967 54.507a7.132 7.132 0 01-.344-.104 6.58 6.58 0 01-.242-.09l.038.09c.105.242.212.473.317.692l.202.086c.45.19.9.37 1.351.543l.32.118.208.076a35.762 35.762 0 006.25 1.66c1.644.088 2.988-.122 4.032-.631a4.599 4.599 0 001.026-.677c.735-.634 1.028-1.389.88-2.266-.255-.417-.537-.82-.846-1.209.52.83.375 1.662-.437 2.491a3.913 3.913 0 01-.624.432c-.92.515-2.213.8-3.88.853-1.99-.245-4.055-.766-6.193-1.564a66.316 66.316 0 01-.417-.159l-.41-.163a5.822 5.822 0 01-1.233-.176l.002-.002z" fill="#fff"/><path fill-rule="evenodd" clip-rule="evenodd" d="M57.18 41.953c.22-.168.29-.392.215-.674a1.653 1.653 0 00-.216-.459l-1.143-1.503v-.002l-.115-.154a6.39 6.39 0 00-.202-.282 6.534 6.534 0 00-.985-1.024 7.782 7.782 0 00-.47-.372l-3.579-2.368.26 1.01L54.61 38.8c.372.24.685.558.94.954l1.63 2.2-.002-.001zm-6.246-7.773l-1.768 1.034c-.197.139-.454.176-.77.11l-4.175-1.14-3.437-1.62s-.853.395-.977.4l4.257 1.975.462.118 3.773.957c.066.028.128.05.19.067.317.091.59.07.818-.067l1.374-.903.386-.253-.011-.548-.124-.13h.002zM35.03 29.815l-.06.034c-.13.126-.158.328-.088.606l4.516 2.422 1.283-.325-5.244-2.593a2.48 2.48 0 00-.408-.144h.001zm8.995 6.654l-.43.403-.21.71 8.379 2.902c.36.15.657.387.888.711l1.377 2.211c.41.01.763-.063 1.061-.22l.148-.088-1.648-2.382c-.3-.53-.673-.904-1.116-1.121l-8.45-3.127zM33.468 29.69l-2.048-.118 1.863.476a.751.751 0 01.185-.358z" fill="#A76E98"/><path d="M33.468 29.691a.75.75 0 00-.185.358l1.6.405c-.071-.278-.042-.48.088-.606l.06-.034a2.787 2.787 0 00-.79-.088l-.773-.036v.001zm.969 5.873l2.122 1.323a1.715 1.715 0 01.202-.671 2.92 2.92 0 00.172-.383l-2.413-1.596c-.126.144-.185.369-.175.676a3.242 3.242 0 00.092.65zm31.448 14.992l-2.036 1.107c-.311-.8-.67-1.573-1.076-2.32a20.579 20.579 0 00-2.761-3.916 23.627 23.627 0 00-2.983-2.797l.027-.016-.981.544a2.35 2.35 0 01.047-.023 17.006 17.006 0 012.908 2.702c.403.467.792.964 1.164 1.488.493.694.961 1.437 1.403 2.23a29.6 29.6 0 011.318 2.686l-3.32 1.989a11.16 11.16 0 01-2.42.259 10.829 10.829 0 01-.989-.055l-.264-.03c-.32-.044-.639-.101-.957-.174l.002.277c.383.1.794.158 1.233.175.137.056.274.11.41.164.139.054.278.107.418.159 2.137.798 4.202 1.32 6.192 1.564 1.668-.054 2.96-.339 3.88-.853.231-.13.439-.273.624-.432.812-.83.958-1.66.437-2.49a12.435 12.435 0 00-1.06-1.174 14.32 14.32 0 00-1.216-1.064z" fill="#834A74"/><path fill-rule="evenodd" clip-rule="evenodd" d="M43.137 27.056l.766-.506L13.712 7.579l-1.76 1.157 22.843 14.342 8.253 4.153c.016-.089.044-.146.085-.171l.004-.003zm7.533 4.602l30.218 16.228 1.913-.805-22.79-12.413-8.36-3.589-.982.579h.001z" fill="#A76E98"/><path fill-rule="evenodd" clip-rule="evenodd" d="M50.67 31.658l.982-.578c.035-.198-.057-.366-.275-.503l-1.486-.905-1.235.605 1.562.803a.625.625 0 01.452.579zm-5.91-3.598l1.265-.628-1.567-.882a.572.572 0 00-.555 0l-.766.507c.052-.032.122-.016.212.049l1.41.955v-.001z" fill="#fff"/><path fill-rule="evenodd" clip-rule="evenodd" d="M46.025 27.432l-1.265.628v1.133l1.287-.76-.022-1zm4.919 4.727l-.299-.162-.023.342.322-.18z" fill="#A76E98"/><path fill-rule="evenodd" clip-rule="evenodd" d="M44.759 29.193V28.06l-1.41-.955c-.09-.064-.16-.08-.212-.049l-.004.003c-.041.026-.07.083-.086.171v.427c-.017.174.067.317.252.43l1.46 1.106zm5.885 2.804l.026-.338a.627.627 0 00-.452-.58l-1.562-.803v1.105l1.965.957.023-.34z" fill="#A76E98"/><path d="M43.048 27.657v-.426l-8.253-4.153 8.253 4.58zm37.841 20.23L50.67 31.658l-.026.339.298.16L80.89 48.34l1.913-1.259-1.913.806z" fill="#834A74"/><path fill-rule="evenodd" clip-rule="evenodd" d="M43.94 32.408l-1.077-.577c-.035-.197.102-1.047.32-1.184l1.487-.905 1.234.604-1.562.804c-.276.096-.377.97-.403 1.259v-.001zm5.86-4.278l-1.265-.628 1.567-.882a.57.57 0 01.555 0l.767.506c-.053-.032-.123-.016-.213.049l-1.41.956v-.001z" fill="#fff"/><path fill-rule="evenodd" clip-rule="evenodd" d="M49.8 29.264l-1.206-.726-.059-1.035 1.266.627 1.41-.955c.09-.065.16-.081.213-.049l.003.004c.041.025.07.082.086.17v.427c.017.174-.067.317-.252.43l-1.46 1.107zm-5.885 2.804l-.026-.34a.628.628 0 01.452-.578l1.562-.804v1.105l-1.965.958-.024-.341z" fill="#A76E98"/><path fill-rule="evenodd" clip-rule="evenodd" d="M51.423 27.126l-.767-.506 30.19-18.971 1.762 1.156-22.844 14.343-8.253 4.153c-.016-.09-.045-.146-.086-.171l-.003-.003v-.001zm-7.534 4.6L13.67 47.957l-1.912-.806 22.79-12.413 8.36-3.588.981.578z" fill="#A76E98"/><path fill-rule="evenodd" clip-rule="evenodd" d="M13.671 47.957l-1.913-.806 1.913 1.259 29.945-16.182.3-.16-.027-.34-30.218 16.23zM51.512 27.3v.427l8.253-4.58-8.253 4.154z" fill="#834A74"/><path fill-rule="evenodd" clip-rule="evenodd" d="M49.536 28.908c0 .565-1.026 1.022-2.293 1.022-1.267 0-2.294-.457-2.294-1.022 0-.564 1.027-1.022 2.294-1.022 1.267 0 2.293.458 2.293 1.022z" fill="#fff"/><path d="M13.766 8.087c-18.355 10.78-18.355 28.26 0 39.042 18.354 10.78 48.113 10.78 66.469 0 18.353-10.782 18.353-28.261 0-39.042-18.355-10.783-48.114-10.783-66.469 0z" fill="#373637" fill-opacity=".302"/><path d="M47 27.607L13.763 47.129c-2.998-1.761-5.503-3.703-7.522-5.763L47 27.606z" fill="url(#paint0_linear)" fill-opacity=".302"/><defs><linearGradient id="paint0_linear" x1="19.871" y1="30.617" x2="33.371" y2="44.117" gradientUnits="userSpaceOnUse"><stop stop-color="#fff"/><stop offset="1"/></linearGradient></defs></svg>