<svg width="342" height="145" fill="none" xmlns="http://www.w3.org/2000/svg"><path d="M4.6 137.5c-.4-.6-.7-1.7-.7-3.2v-1.6c0-1.4.3-2.4.7-3 .5-.6 1.1-.9 2.1-.9.7 0 1.3.2 1.7.7.4.5.6 1.2.7 2.1h2c0-1.4-.5-2.6-1.2-3.4-.8-.8-1.8-1.2-3.1-1.2-1.6 0-2.8.5-3.6 1.5-.8 1-1.3 2.5-1.3 4.4v1.4c0 2 .4 3.5 1.3 4.5.8 1 2.1 1.5 3.7 1.5 1.2 0 2.2-.4 3-1.2.8-.8 1.3-1.8 1.3-3.1h-2c0 .8-.3 1.4-.7 1.8-.4.4-1 .6-1.7.6-1.1 0-1.8-.3-2.2-.9zm17-10.4h-9.1v1.8H16V140h2.1v-11.1h3.5v-1.8zm11.6 5.7c0-2-.4-3.4-1.1-4.4-.7-1-1.8-1.5-3.2-1.5-1.3 0-2.3.6-3 1.7l-.1-1.4h-1.9V145H26v-6.2c.7 1 1.7 1.5 3 1.5s2.4-.5 3.1-1.5c.7-1 1.1-2.5 1.1-4.6v-1.4zm-2.1 1.4c0 1.4-.2 2.5-.7 3.1-.4.7-1.2 1-2.1 1-1 0-1.8-.5-2.3-1.5v-6.7c.5-1 1.3-1.5 2.3-1.5 1 0 1.7.3 2.1 1 .4.7.7 1.8.7 3.2v1.4zm4.4.2c0 1.8.5 3.2 1.4 4.3.9 1.1 2.1 1.6 3.6 1.6s2.7-.5 3.6-1.6c.9-1.1 1.4-2.6 1.4-4.4v-1.4c0-1.8-.5-3.3-1.4-4.3-.9-1.1-2.1-1.6-3.6-1.6s-2.7.5-3.6 1.6c-.9 1.1-1.4 2.6-1.4 4.4v1.4zm2.1-1.5c0-1.3.3-2.3.8-3.1.5-.8 1.2-1.1 2.1-1.1.9 0 1.6.4 2.1 1.1.5.8.8 1.8.8 3.1v1.5c-.1 2.7-1 4-2.9 4-.9 0-1.6-.4-2.1-1.1-.5-.8-.8-1.8-.8-3.1v-1.3zm12.9 3.6v-9.4h-2.1V140h2.1l4.7-9.4v9.4h2.1v-12.9h-2.1l-4.7 9.4zm18.3-9.4h-9.1v1.8h3.5V140h2.1v-11.1h3.5v-1.8zm11 11.2l-1.1-1.3c-.4.5-.9.9-1.3 1.1-.5.2-1 .4-1.6.4-1 0-1.7-.3-2.2-.9-.5-.6-.8-1.6-.8-3v-.3H80v-1.4c0-2-.4-3.5-1.1-4.5-.7-1-1.9-1.4-3.4-1.4s-2.7.5-3.5 1.6c-.8 1.1-1.3 2.6-1.3 4.5v1.6c0 1.8.5 3.2 1.3 4.2.9 1 2.1 1.4 3.7 1.4 1.8-.1 3.2-.7 4.1-2zm-2.7-8.8c.4.5.6 1.4.7 2.6v.3h-5.1c.1-1.3.3-2.2.7-2.8.4-.6 1.1-.9 1.9-.9.8 0 1.4.2 1.8.8zm6.9-2.4l-.2 5.5c-.1 2.1-.2 3.5-.5 4.2-.2.7-.7 1.1-1.2 1.2h-.5v1.9h.7c1.2 0 2.1-.5 2.6-1.5s.9-2.7 1-5.1l.2-4.4h3.4v11h2.1V127H84v.1zm13.2 0h-2.1V140h4.8c1.2 0 2.2-.4 2.9-1.2.7-.8 1.1-1.8 1.1-3.1s-.4-2.3-1.1-3c-.7-.7-1.7-1.1-2.9-1.1h-2.7v-4.5zm2.6 6.2c.6 0 1.1.2 1.4.7.3.5.5 1 .5 1.8 0 .7-.2 1.3-.5 1.7-.3.4-.8.6-1.4.6h-2.6v-4.8h2.6zm9.1 4.2c-.4-.6-.7-1.7-.7-3.2v-1.6c0-1.4.3-2.4.7-3 .5-.6 1.1-.9 2.1-.9.7 0 1.3.2 1.7.7.4.5.6 1.2.7 2.1h2c0-1.4-.5-2.6-1.2-3.4-.8-.8-1.8-1.2-3.1-1.2-1.6 0-2.8.5-3.6 1.5-.8 1-1.3 2.5-1.3 4.4v1.4c0 2 .4 3.5 1.3 4.5.8 1 2.1 1.5 3.7 1.5 1.2 0 2.2-.4 3-1.2.8-.8 1.3-1.8 1.3-3.1h-2c0 .8-.3 1.4-.7 1.8-.4.4-1 .6-1.7.6-1.1 0-1.8-.3-2.2-.9zm17.1-10.4h-9.1v1.8h3.5V140h2.1v-11.1h3.5v-1.8zm7.4 12.9c1.4 0 2.4-.3 3.2-.9.7-.6 1.1-1.5 1.1-2.7 0-.8-.2-1.4-.6-1.9-.4-.5-.9-.9-1.6-1.1.6-.3 1-.6 1.4-1.1.3-.5.5-1 .5-1.6 0-1.1-.4-2-1.2-2.6-.8-.6-1.9-.9-3.4-.9h-4.3V140h4.9zm0-5.7c1.4 0 2.2.6 2.2 1.9 0 1.3-.7 2-2.1 2h-2.9v-3.9h2.8zm-2.9-5.4h2.3c1.6 0 2.3.7 2.3 1.9s-.8 1.8-2.5 1.8h-2.2v-3.7h.1zm9.5 5.5c0 1.8.5 3.2 1.4 4.3.9 1.1 2.1 1.6 3.6 1.6s2.7-.5 3.6-1.6c.9-1.1 1.4-2.6 1.4-4.4v-1.4c0-1.8-.5-3.3-1.4-4.3-.9-1.1-2.1-1.6-3.6-1.6s-2.7.5-3.6 1.6c-.9 1.1-1.4 2.6-1.4 4.4v1.4zm2.2-1.5c0-1.3.3-2.3.8-3.1.5-.8 1.2-1.1 2.1-1.1.9 0 1.6.4 2.1 1.1.5.8.8 1.8.8 3.1v1.5c-.1 2.7-1 4-2.9 4-.9 0-1.6-.4-2.1-1.1-.5-.8-.8-1.8-.8-3.1v-1.3zm18.4 3.6v-9.4h-2.1V140h2.1l4.7-9.4v9.4h2.1v-12.9h-2.1l-4.7 9.4zm24.8-9.4h-8.9V140h2.1v-11h4.7v11h2.1v-12.9zm12.7 5.7c0-2-.4-3.4-1.1-4.4-.7-1-1.8-1.5-3.2-1.5-1.3 0-2.3.6-3 1.7l-.1-1.4h-1.9V145h2.1v-6.2c.7 1 1.7 1.5 3 1.5s2.4-.5 3.1-1.5c.7-1 1.1-2.5 1.1-4.6v-1.4zm-2.1 1.4c0 1.4-.2 2.5-.7 3.1-.4.7-1.2 1-2.1 1-1 0-1.8-.5-2.3-1.5v-6.7c.5-1 1.3-1.5 2.3-1.5 1 0 1.7.3 2.1 1 .4.7.7 1.8.7 3.2v1.4zm4.4.2c0 1.8.5 3.2 1.4 4.3.9 1.1 2.1 1.6 3.6 1.6s2.7-.5 3.6-1.6c.9-1.1 1.4-2.6 1.4-4.4v-1.4c0-1.8-.5-3.3-1.4-4.3-.9-1.1-2.1-1.6-3.6-1.6s-2.7.5-3.6 1.6c-.9 1.1-1.4 2.6-1.4 4.4v1.4zm2.1-1.5c0-1.3.3-2.3.8-3.1.5-.8 1.2-1.1 2.1-1.1.9 0 1.6.4 2.1 1.1.5.8.8 1.8.8 3.1v1.5c-.1 2.7-1 4-2.9 4-.9 0-1.6-.4-2.1-1.1-.5-.8-.8-1.8-.8-3.1v-1.3zm19.4 5.4l-1.1-1.3c-.4.5-.9.9-1.3 1.1-.5.2-1 .4-1.6.4-1 0-1.7-.3-2.2-.9-.5-.6-.8-1.6-.8-3v-.3h7.2v-1.4c0-2-.4-3.5-1.1-4.5-.7-1-1.9-1.4-3.4-1.4s-2.7.5-3.5 1.6c-.8 1.1-1.3 2.6-1.3 4.5v1.6c0 1.8.5 3.2 1.3 4.2.9 1 2.1 1.4 3.7 1.4 1.8-.1 3.2-.7 4.1-2zm-2.7-8.8c.4.5.6 1.4.7 2.6v.3h-5.1c.1-1.3.3-2.2.7-2.8.4-.6 1.1-.9 1.9-.9.9 0 1.5.2 1.8.8zm12.4 10.5h2.6l-4.6-6.7 4.3-6.1h-2.5l-3.5 5.4h-1v-5.4h-2.1V140h2.1v-5.5h1.2l3.5 5.5zm12.8-12.9h-9.1v1.8h3.5V140h2.1v-11.1h3.5v-1.8zm4.5 9.4v-9.4h-2.1V140h2.1l4.7-9.4v9.4h2.1v-12.9h-2.1l-4.7 9.4zm19.5-3.7c0-2-.4-3.4-1.1-4.4-.7-1-1.8-1.5-3.2-1.5-1.3 0-2.3.6-3 1.7l-.1-1.4h-1.9V145h2.1v-6.2c.7 1 1.7 1.5 3 1.5s2.4-.5 3.1-1.5c.7-1 1.1-2.5 1.1-4.6v-1.4zm-2.1 1.4c0 1.4-.2 2.5-.7 3.1-.4.7-1.2 1-2.1 1-1 0-1.8-.5-2.3-1.5v-6.7c.5-1 1.3-1.5 2.3-1.5 1 0 1.7.3 2.1 1 .4.7.7 1.8.7 3.2v1.4zm4.4.2c0 1.8.5 3.2 1.4 4.3.9 1.1 2.1 1.6 3.6 1.6s2.7-.5 3.6-1.6c.9-1.1 1.4-2.6 1.4-4.4v-1.4c0-1.8-.5-3.3-1.4-4.3-.9-1.1-2.1-1.6-3.6-1.6s-2.7.5-3.6 1.6c-.9 1.1-1.4 2.6-1.4 4.4v1.4zm2.1-1.5c0-1.3.3-2.3.8-3.1.5-.8 1.2-1.1 2.1-1.1.9 0 1.6.4 2.1 1.1.5.8.8 1.8.8 3.1v1.5c-.1 2.7-1 4-2.9 4-.9 0-1.6-.4-2.1-1.1-.5-.8-.8-1.8-.8-3.1v-1.3zm15.8 7.1c1.4 0 2.4-.3 3.2-.9.7-.6 1.1-1.5 1.1-2.7 0-.8-.2-1.4-.6-1.9-.4-.5-.9-.9-1.6-1.1.6-.3 1-.6 1.4-1.1.3-.5.5-1 .5-1.6 0-1.1-.4-2-1.2-2.6-.8-.6-1.9-.9-3.4-.9h-4.3V140h4.9zm0-5.7c1.4 0 2.2.6 2.2 1.9 0 1.3-.7 2-2.1 2h-2.9v-3.9h2.8zm-2.9-5.4h2.3c1.6 0 2.3.7 2.3 1.9s-.8 1.8-2.5 1.8h-2.2v-3.7h.1zm18.8 11.1v-.2c-.3-.7-.4-1.6-.4-2.6v-6.5c0-1.3-.4-2.2-1.1-2.9-.7-.7-1.7-1-3-1-.8 0-1.5.2-2.2.5-.7.3-1.2.8-1.6 1.4-.4.6-.6 1.2-.6 1.9h2.1c0-.6.2-1.1.6-1.4.4-.4.9-.6 1.6-.6.7 0 1.2.2 1.6.5.3.3.5.9.5 1.6v1.4h-1.6c-1.6 0-2.8.4-3.7 1.2-.9.8-1.3 1.8-1.3 3.1 0 1.2.3 2.1 1 2.8.7.7 1.6 1 2.7 1 1.2 0 2.1-.5 2.9-1.6.1.7.1 1.1.3 1.4h2.2zm-6.5-2.2c-.3-.3-.4-.9-.4-1.6 0-.8.3-1.4.9-1.8.6-.4 1.4-.7 2.4-.7h1.2v3.1c-.2.4-.6.8-1 1.1-.5.3-1 .4-1.5.4-.8 0-1.3-.2-1.6-.5zm18.4-10.7h-2.1v5.6h-4.7v-5.6h-2.1V140h2.1v-5.5h4.7v5.5h2.1v-12.9zm5.7 9.4v-9.4H320V140h2.1l4.7-9.4v9.4h2.1v-12.9h-2.1l-4.7 9.4zm18.9 1.8l-1-1.3c-.4.5-.9.9-1.3 1.1-.5.2-1 .4-1.6.4-1 0-1.7-.3-2.2-.9-.5-.6-.8-1.6-.8-3v-.3h7.2v-1.4c0-2-.4-3.5-1.1-4.5-.7-1-1.9-1.4-3.4-1.4s-2.7.5-3.5 1.6c-.8 1.1-1.3 2.6-1.3 4.5v1.6c0 1.8.5 3.2 1.3 4.2.9 1 2.1 1.4 3.7 1.4 1.7-.1 3.1-.7 4-2zm-2.6-8.8c.4.5.6 1.4.7 2.6v.3H334c.1-1.3.3-2.2.7-2.8.4-.6 1.1-.9 1.9-.9.8 0 1.4.2 1.8.8zM145.5 97.8c0-1.8-.6-3.2-1.8-4.2-1.2-1-3.4-2-6.6-3.1-6.7-2-11.6-4.2-14.8-6.5-3.2-2.3-4.8-5.7-4.8-10.1 0-4.3 1.9-7.7 5.7-10.4 3.8-2.6 8.7-4 14.6-4 5.8 0 10.6 1.5 14.3 4.4 3.7 2.9 5.5 6.7 5.4 11.2l-.1.2h-11.9c0-2-.7-3.7-2.1-5-1.4-1.3-3.4-1.9-5.9-1.9-2.5 0-4.4.5-5.8 1.6-1.4 1.1-2.1 2.4-2.1 3.9s.7 2.7 2.1 3.6c1.4.9 4.1 2 7.9 3.4 6 1.7 10.5 3.9 13.5 6.4 3 2.5 4.5 6 4.5 10.4 0 4.5-1.8 8-5.4 10.5-3.6 2.5-8.4 3.8-14.3 3.8-6 0-11.1-1.5-15.5-4.4-4.4-2.9-6.5-7.1-6.4-12.6l.1-.2H128c0 2.9.8 5.1 2.5 6.3 1.6 1.3 4.1 1.9 7.4 1.9 2.5 0 4.4-.5 5.7-1.5 1.3-.8 1.9-2.1 1.9-3.7zm54-28.4h-13.9v42h-12.3v-42h-13.8v-9.1h39.9v9.1h.1zm46 21c0 6.3-2.1 11.5-6.2 15.6s-9.5 6.1-16.1 6.1c-6.7 0-12.1-2-16.2-6.1s-6.2-9.3-6.2-15.6v-9.2c0-6.3 2.1-11.5 6.2-15.5 4.1-4.1 9.5-6.1 16.2-6.1 6.6 0 12 2 16.1 6.1 4.1 4.1 6.2 9.3 6.2 15.5v9.2zm-12.2-9.3c0-3.6-.9-6.6-2.7-9-1.8-2.3-4.3-3.5-7.5-3.5-3.3 0-5.8 1.2-7.6 3.5-1.7 2.3-2.6 5.3-2.6 9v9.3c0 3.7.9 6.7 2.7 9.1 1.8 2.3 4.3 3.5 7.6 3.5 3.2 0 5.7-1.2 7.4-3.5 1.8-2.3 2.6-5.4 2.6-9.1v-9.3h.1zm61.7 30.2h-12.2l-19.3-32.6-.2.1v32.5H251V60.2h12.3l19.3 32.6.2-.1V60.2H295v51.1zm41.1-21.8h-20.6v12.7h24.3v9.1h-36.6V60.2h36.7v9.1h-24.4v11h20.6v9.2zM31.8 82.6v-27h52v27h-52zm-31 30v-26h52v26H.8zm56.1 0v-26h52v26h-52zm1.9-61h-27V.6h27v51z" fill="#333"/><path d="M115.6 45.8c-1.8 2.1-4.4 3.9-7.8 5.4-3.4 1.6-7.7 2.4-12.8 2.4-6.5 0-11.8-1.9-15.9-5.8S73 38.9 73 32.7V22c0-6.2 2-11.2 5.9-15.1C82.9 3 88 1 94.2 1c6.8 0 11.8 1.5 15.2 4.6 3.4 3 5.3 7.2 5.7 12.5l-.1.2h-11.5c-.4-2.7-1.3-4.7-2.7-6.1-1.4-1.4-3.5-2-6.3-2s-5.1 1.1-6.9 3.3c-1.7 2.2-2.6 5-2.6 8.5v10.7c0 3.6.9 6.4 2.6 8.6 1.7 2.2 4.1 3.2 7.2 3.2 2.2 0 4-.2 5.3-.5 1.3-.4 2.3-.8 3-1.4v-8.1h-8.3v-7.9h20.5v19.2h.3zm51-13.9c0 6.3-2.1 11.5-6.2 15.6s-9.5 6.1-16.1 6.1c-6.7 0-12.1-2-16.2-6.1s-6.2-9.3-6.2-15.6v-9.2c0-6.3 2.1-11.5 6.2-15.5 4.1-4.1 9.5-6.1 16.2-6.1 6.6 0 12 2 16.1 6.1 4.1 4.1 6.2 9.3 6.2 15.5v9.2zm-12.2-9.3c0-3.6-.9-6.6-2.7-9-1.8-2.3-4.3-3.5-7.5-3.5-3.3 0-5.8 1.2-7.6 3.5-1.7 2.3-2.6 5.3-2.6 9v9.3c0 3.7.9 6.7 2.7 9.1 1.8 2.3 4.3 3.5 7.6 3.5 3.2 0 5.7-1.2 7.4-3.5 1.8-2.3 2.6-5.4 2.6-9.1v-9.3h.1zm62.8 9.3c0 6.3-2.1 11.5-6.2 15.6s-9.5 6.1-16.1 6.1c-6.7 0-12.1-2-16.2-6.1s-6.2-9.3-6.2-15.6v-9.2c0-6.3 2.1-11.5 6.2-15.5 4.1-4.1 9.5-6.1 16.2-6.1 6.6 0 12 2 16.1 6.1 4.1 4.1 6.2 9.3 6.2 15.5v9.2zM205 22.6c0-3.6-.9-6.6-2.7-9-1.8-2.3-4.3-3.5-7.5-3.5-3.3 0-5.8 1.2-7.6 3.5-1.7 2.3-2.6 5.3-2.6 9v9.3c0 3.7.9 6.7 2.7 9.1 1.8 2.3 4.3 3.5 7.6 3.5 3.2 0 5.7-1.2 7.4-3.5 1.8-2.3 2.6-5.4 2.6-9.1v-9.3h.1zm19.3 30.2V1.7h19c6.2 0 11.4 2 15.5 5.9 4.2 3.9 6.3 8.9 6.3 15.1v9.2c0 6.2-2.1 11.2-6.3 15.1-4.2 3.9-9.4 5.9-15.5 5.9h-19v-.1zm12.2-41.9v32.8h5.9c3.3 0 5.8-1.1 7.6-3.2 1.8-2.2 2.7-5 2.7-8.6v-9.3c0-3.5-.9-6.4-2.7-8.5-1.8-2.2-4.4-3.2-7.6-3.2h-5.9zM27.8 82.6H.8v-51h27v51z" fill="#D85328"/></svg>