<svg width="44" height="64" fill="none" xmlns="http://www.w3.org/2000/svg"><path d="M43.863 21.65c0 11.957-13.905 41.36-21.666 41.36C14.759 63.01.53 33.608.53 21.65S10.231 0 22.197 0c11.966 0 21.666 9.693 21.666 21.65z" fill="#D70000"/><path d="M22.028 41.865c-11.033 0-20.008-8.968-20.008-19.994 0-11.024 8.975-19.993 20.008-19.993s20.008 8.969 20.008 19.993c0 11.026-8.975 19.994-20.008 19.994z" fill="#fff"/><path d="M22.027 2.484c10.716 0 19.403 8.68 19.403 19.388 0 10.707-8.687 19.387-19.402 19.387-10.716 0-19.403-8.68-19.403-19.387 0-10.708 8.687-19.388 19.402-19.388zm0-1.213c-11.367 0-20.615 9.241-20.615 20.6 0 11.36 9.248 20.6 20.616 20.6 11.367 0 20.615-9.24 20.615-20.6 0-11.359-9.248-20.6-20.616-20.6z" fill="#A00"/><path d="M41.43 21.872c0 10.707-8.687 19.387-19.403 19.387-10.715 0-19.402-8.68-19.402-19.387 0-10.708 8.687-19.388 19.402-19.388 10.716 0 19.402 8.68 19.402 19.388z" fill="#FBCA00"/><path d="M5.732 16.073v-4.727A19.523 19.523 0 017.49 9.034c.278 1.072.525 2.15.739 3.236.375 1.907.753 3.812.773 5.769.005.435-.014.937.684.923 1.848-.037 3.695-.386 5.549.02.49.108 1.113-.109.864.963 1.428-2.875 1.678-2.917 1.052-3.572-1.823-1.91-3.622-3.843-5.421-5.775-.21-.226-.47-.434-.55-.803.2-.022-.409-.536 7.237 5.395.83.644.992.12 2.955-.464 1.247-.372.965.534.58-8.042-.01-.248-.121-.649.183-.7.332-.057.316.36.375.598 1.884 7.655 1.61 8.07 2.901 8.49.502.163.458.186 4.065 2.468-1.278-1.888-2.591-1.576-1.755-2.431 6.305-6.442 5.81-6.17 6.08-6.027.011.238-.151.384-.259.552-5.594 8.66-4.592 5.927-2.887 8.297.506.704.378.464 6.936-1.462.31-.091.62-.229.959-.15v.49c-1.952.942-3.905 1.879-5.855 2.825-1.003.487-.913.452-.577 1.722.197.743.216.537 6.432.98v.615c-.319.39-.467.456-5.455.754-1.455.087-.58 3.158-1.113 5.148-.039.145.111.839.914 5.066.309 1.628-.723 1.209-.532 2.59.083.604.205 1.116.336 1.555a19.394 19.394 0 01-2.568 1.427c-.478-.807-.885-1.166-.981-1.91a28.79 28.79 0 00.012 2.325c-1.167.461-2.39.813-3.655 1.042a.995.995 0 01.139-.25c.393-.528.266-.89-.227-1.315-1.294-1.115-6.82-5.85-5.114-5.76 1.024.053 2.25.211 3.49-.033.346-.069.72-.135.748-.587.033-.526.316-.668.844-.51-.877-.727-1.985-.37-2.955-.806.492-.378 1.036-.208 1.505-.449-.697-.525-1.346-.457-2.024-.023.314-.48.554-.982 1.212-.943-.098-.269-.263-.472-.547-.533-.22-.048-.41-.124-.414-.373-.005-.336.292-.276.494-.328.854-.221.992-.38.976-1.275-.015-.866.118-1.713.257-2.56.079-.482.35-.737.85-.82.801-.132 1.595-.252 2.494.059-.366-.723-2.023-1.696-3.54-2.745-.267-.186-.421.023-.564.189-1.507 1.757-4.07 2.22-3.8 4.124.836-1.072 1.846-.558 1.297-1.15-.09-.097.072-.149.176-.161 1.116-.132 1.483.264 1.347 1.353-.061.492-.26.59-.683.45-.9-.302-1.596.5-2.456.466-.151-.006-.288.211-.373.382-.454.923.348 1.804-.077 2.473-.197.309-.454.582-.483.977-.03.402.048.642.495.356.307-.196.457-.115.589.22.965 2.45.217 5.798-.035 5.699-.8-.317-.021.567-.434 1.035-.275-.136-.173-.463-.393-.64-.208.79-.133 1.603-.493 2.385-.603-.764.002-1.285.022-2.3.012-.56.451-1.197-.238-1.766.12 1.293-.316 3.043-.92 4.722a18.916 18.916 0 01-.579-.177c.064-.139.126-.283.182-.434a14.18 14.18 0 01-.283.402 19.153 19.153 0 01-.56-.193c.44-.793 1.604-2.108.972-6.196-.061-.395-.267-.71-.66-.806-.388-.094-.543.303-.786.495-.205.161-1.172 4.417-1.556 4.528-.188-.31-.013-.65-.108-.982l-.396 1.834c-.167-.09-.333-.18-.497-.274l.127-.292-.158-.12-.154.304a19.473 19.473 0 01-4.064-3.18 1.689 1.689 0 00-.003-.378l-.157.216a19.562 19.562 0 01-.915-1.028c.107-.142.212-.287.333-.414.572-.602.743-1.449 1.245-2.073 1.385-1.72 1.412-2.584 1.694-3.554l-.22-.123c-.791 1.189-1.52 2.431-2.616 3.364.279-1.077 1.1-1.833 1.606-2.78 1.628-3.046 1.754-1.622 1.99-4.084-1.325.967-1.596 2.531-2.71 3.5-1.107.963-1.505 2.449-2.378 3.602.115-.995.625-1.828 1.167-2.586 1.11-1.553 2.909-5.07 3.304-6.01.155-.368-.238-.446-.33-.3-.297.477-.856.715-1.062 1.295-.302.854-.857 1.51-1.78 1.78-.351.102-.758-.127-.746-.488.037-1.124-.215-2.24-.165-3.349.032-.716-.403-1.432.006-2.144.066-.113.026-.343-.13-.364-.574-.078-.239-.365-.142-.575.374-.811-.227-.662-.105-1.098.178-.636-.013-1.205-.306-1.757zm7.533 23.1c.191-.484.423-.951.775-1.369.11.173.1.034.05.505l.003-.007c-.158.35-.315.699-.468 1.05a19.485 19.485 0 01-.36-.18zm13.093-17.916c.295.223.075 1.073.501.913.153-.058.425-.017.348-.366-.105-.48.3-.834.395-1.29.295.461.221 1.014.419 1.511.137-.247-.058-.521.173-.754.373.25.341.762.657 1.057.07-.286-.424-.619.15-.818.188-.065-.001-.247-.09-.337-2.094-2.096-4.41-2.335-7.676-1.729-.615.115-1.27.137-1.676.773.27-1.044.037-1.98-.324-2.895-.049-.124.061-.468-.276-.323-.457.196-.001.659.369 1.646.276.738.014 1.52-.585 1.8-.13-.642.065-1.384-.523-1.91-.163.14-.112.244-.072.331.196.425.129.878.178 1.319.055.49-.59.59-.479 1.103.037.17-.207.06-.28-.068-.137-.237-.236-.513-.65-.494.186.386.677 1.227.432 1.43-.217.179-.293-.284-.533-.273-.036.002-.072.02-.131.038.03.077.088.152.083.222-.029.332.799.77-.117 1.002-.027.007-.05.16-.024.225.303.74.166 1.413-.115 2.156-.27.711-.28 1.521-.395 2.29-.019.125-.082.29.112.36.438-.29.547-1.764 1.157-2.545.068-.087.039-.212-.039-.283-1.052-.96 2.754-2.484 4.876-4.47.309-.288.241-.81.674-1.062-.051.566.223 1.06.744 1.154.382.069.849.585 1.21-.088.106.159.266.299.295.461.098.552.599.482.918.529.297.044.029-.438.294-.614zm-12.46 3.008v.067c-3.86 0-1.29-.077-1.493 2.697-.025.345-.006.695.01 1.043.103 2.144.95 2.196 2 3.715.19.273.328.269.497.005 1.675-2.624 1.918-2.794 1.472-3.01-.74-.36-.556-.787-.277-2.693.116-.792.126-1.878-.675-1.831-.51.03-1.022.007-1.534.007zm1.136-2.04c.647-.071.677-.491.726-.937.072-.666.05-.557-5.827-1.345-.234-.031-.553-.193-.698.01-.185.257.095.526.194.785.02.056.052.124.099.152.641.382.957 1.05 1.411 1.596.508.61.634.121 4.095-.26zm10.85 9.73c.147-.434-.192-.748-.067-1.09.372-1.016.696-2.056 1.316-2.963.37-.542.313-.693-.312-.878-.543-.16-1.114-.004-1.644-.14-.516-.134-.552.08-.522.488.115 1.547.69 2.983 1.074 4.464.01.04.082.065.155.118zm-8.074-.158l-.164-.002c-.092.764-.391 2.412-.053 3.123.28.589.327.613.83.256.133.204-.118.465.093.68.358-1.589.25-3.074-.269-3.621-.205.334.025.771-.282 1.15-.214-.556-.02-1.094-.155-1.586zm.322-14.66c1.888-1.383 4.04-1.822 6.42-1.72-1.86-1.045-4.866-.502-6.42 1.72zm4.16-.798c-.2.301.08.751-.352.916-.666.255-.577.796-.563 1.323.006.248.05.471.369.42.277-.043.703.1.75-.33.087-.78.008-1.56-.204-2.329zm-9.76 18.97a42.537 42.537 0 01-.133-.103c-.28.254-.586.486-.836.767-.189.213-.9.398-.124.797.125.065.094.697.094 1.29.502-.934.696-1.863.999-2.752zm1.56 2.993c.017.097 0 .248.055.281.153.094.2-.068.252-.168.615-1.216 1.392-3.34.73-4.513-.015 1.558-.29 3.038-1.04 4.406l.004-.006z" fill="#4C2260"/></svg>