<svg width="28" height="28" fill="none" xmlns="http://www.w3.org/2000/svg"><circle cx="14" cy="14" r="14" fill="#00B3FF"/><path fill-rule="evenodd" clip-rule="evenodd" d="M21.333 9.421c-.54.24-1.12.403-1.729.476a3.027 3.027 0 001.322-1.677 6 6 0 01-1.91.736A2.998 2.998 0 0016.817 8c-1.661 0-3.01 1.357-3.01 3.03 0 .238.027.47.08.69a8.52 8.52 0 01-6.203-3.167 3.036 3.036 0 00-.407 1.523 3.03 3.03 0 001.34 2.52 2.987 2.987 0 01-1.364-.379v.038a3.026 3.026 0 002.414 2.97 3.03 3.03 0 01-1.36.05 3.016 3.016 0 002.81 2.105 6.01 6.01 0 01-4.455 1.256 8.476 8.476 0 004.613 1.362c5.535 0 8.562-4.616 8.562-8.62 0-.132-.002-.262-.009-.392a6.112 6.112 0 001.502-1.57l.002.005z" fill="#fff"/></svg>