<svg width="28" height="28" fill="none" xmlns="http://www.w3.org/2000/svg"><circle cx="14" cy="14" r="14" fill="#5181B8"/><path d="M21.632 9.671c.112-.395 0-.671-.526-.671h-1.75c-.45 0-.65.25-.763.526 0 0-.888 2.29-2.151 3.764-.413.434-.588.565-.813.565-.112 0-.275-.131-.275-.526V9.67c0-.474-.125-.671-.5-.671h-2.751a.442.442 0 00-.45.421c0 .447.625.553.7 1.79v2.71c0 .592-.1.697-.325.697-.588 0-2.039-2.29-2.89-4.92C8.965 9.21 8.802 9 8.352 9h-1.75C6.1 9 6 9.25 6 9.526c0 .487.588 2.908 2.764 6.106 1.45 2.184 3.489 3.368 5.34 3.368 1.112 0 1.25-.263 1.25-.71v-1.658c0-.527.1-.632.463-.632.262 0 .7.132 1.738 1.184 1.188 1.25 1.388 1.816 2.05 1.816h1.752c.5 0 .75-.263.6-.776-.163-.514-.726-1.264-1.476-2.158-.413-.513-1.025-1.053-1.2-1.33-.263-.354-.188-.512 0-.815 0-.013 2.138-3.171 2.35-4.25z" fill="#fff"/></svg>