<svg width="14" height="13" fill="none" xmlns="http://www.w3.org/2000/svg"><path d="M1.949 2.956a1.431 1.431 0 100-2.862 1.431 1.431 0 000 2.862zm6.678-1.431a1.431 1.431 0 11-2.862 0 1.431 1.431 0 012.862 0zm3.816 1.431a1.431 1.431 0 100-2.862 1.431 1.431 0 000 2.862zM3.38 6.295a1.431 1.431 0 11-2.862 0 1.431 1.431 0 012.862 0zm3.816 1.431a1.431 1.431 0 100-2.862 1.431 1.431 0 000 2.862zM3.38 11.065a1.431 1.431 0 11-2.862 0 1.431 1.431 0 012.862 0zm3.816 1.431a1.431 1.431 0 100-2.862 1.431 1.431 0 000 2.862zm5.247-7.632c.79 0 1.43.64 1.43 1.43v4.77a1.431 1.431 0 01-2.861 0v-4.77c0-.79.64-1.43 1.43-1.43z" fill="#fff"/></svg>