<svg width="23" height="22" fill="none" xmlns="http://www.w3.org/2000/svg"><path fill-rule="evenodd" clip-rule="evenodd" d="M11.438 15.07v-3.312c0-1.075.822-1.949 1.835-1.949h6.74V7.746c0-.979-.58-1.797-1.373-2.064l-2.369-.018-.029-.083H5.608l-.202.068-3.751-.002-.008-.03C.735 5.788 0 6.614 0 7.677V19.09c0 1.194.93 2.231 1.996 2.231h16.092c1.066 0 1.927-.97 1.927-2.164v-2.085h-6.74c-1.013 0-1.837-.928-1.837-2.003z" fill="#0094F7"/><path fill-rule="evenodd" clip-rule="evenodd" d="M21.494 11.376H14.31c-.759 0-1.374.672-1.374 1.5v1.17c0 .827.615 1.499 1.374 1.499h7.185c.76 0 1.376-.672 1.376-1.498v-1.171c0-.83-.617-1.5-1.376-1.5zm-4.254 2.806h-2.96v-1.458h2.96v1.458zM5.642 5.698l9.515-3.256 1.12 3.256h1.843c.194 0 .378.042.554.1L16.681 0 1.513 5.053l.168.683c.114-.022.23-.036.348-.036l3.613-.002z" fill="#0094F7"/></svg>