<svg width="101" height="65" fill="none" xmlns="http://www.w3.org/2000/svg"><path d="M95.52 20.684c.09.148.138.329.138.552 0 2.905-7.284 4.373-10.202 4.373-1.773 0-3.421-.384-4.452-1.501a7.37 7.37 0 00.984-1.165c1.368.58 2.85.842 4.358.842 3.05 0 6.31-.966 9.174-3.1z" fill="#003D60"/><path d="M82.216 19.065c-.728-.88-2.004-1.43-3.24-1.53a4.626 4.626 0 00-.41-.017c-1.695 0-3.516.681-5.054 1.669v-.002c-1.297-.884-2.91-2.558-3.416-4.109.511-.725 1.17-1.38 1.877-1.38 1.2 0 2.33 1.51 4.106 1.51 2.185 0 3.323-2.175 5.177-2.175 1.286 0 1.772.553 1.982 1.28.403 1.39-.198 3.408 1.84 3.408 1.25 0 2.662-1.087 3.252-1.087.264 0 .719.372.719 1.204 0 .53-.138 1.134-.138 1.682 0 1.34.997 1.664 2.34 1.664 1.236 0 2.782-.306 4.208-.59.023.03.044.06.061.092-2.865 2.135-6.124 3.1-9.174 3.1-1.507 0-2.99-.261-4.358-.842.588-.87.842-1.69.842-2.253 0-.62-.232-1.167-.614-1.625v.001z" fill="#007BC3"/><path d="M95.46 20.593c-1.428.284-2.973.59-4.21.59-1.342 0-2.339-.324-2.339-1.664 0-.548.138-1.152.138-1.682 0-.833-.455-1.204-.719-1.204-.59 0-2.001 1.087-3.251 1.087-2.04 0-1.438-2.018-1.84-3.407l.63-.069c.244.775.62 1.41 1.734 1.41 1.142 0 2.226-.908 3.39-.908.921 0 2.137.813 2.137 1.697 0 .735-.673 1.44-.673 2.146 0 2.227 4.05.786 5.004 2.005h-.002z" fill="#003D60"/><path d="M93.352 44.224c.057.161.025.341-.031.505-.07.203-.176.418-.322.578-.559.615-1.113 1.247-1.752 1.788-.632.538-1.431 1.123-2.335 1.144-1.342 0-3.056-1.62-3.963-2.59a32.743 32.743 0 00-.814-1.301c.114-.14.18-.223.183-.229.125-.161.305-.166.43-.01.027.03 2.527 3.067 4.19 3.065.765-.015 1.474-.57 2.024-1.045.528-.456 1.008-.97 1.455-1.505.121-.144.236-.296.355-.441.033-.04.06-.079.097-.116.175-.172.403-.074.483.158z" fill="#fff"/><path d="M87.392 50.868c-.08.01-.157.016-.233.016-1.26 0-2.379-1.9-3.944-4.259a14.945 14.945 0 001.33-1.426c.103.12.242.274.404.45 1.133 1.903 1.983 3.755 2.443 5.22zm12.958-9.632c-3.22-1.222-13.959-8.175-30.222-11.248l-.336-.063a83.407 83.407 0 00-15.211-1.396c-.592 0-1.181.008-1.77.023a7.984 7.984 0 00-.418-1.014c.773-.004 1.548-.004 2.321-.004 2.145 0 4.23.066 6.254.192a93.77 93.77 0 019.102 1.006c.929.15 1.842.314 2.737.49 12.61 2.457 21.953 7.255 27.542 12.015l.001-.001z" fill="#003D60"/><path d="M84.947 45.649c-.162-.176-.301-.33-.405-.45a14.94 14.94 0 01-1.33 1.427 88.238 88.238 0 00-.51-.764 14.843 14.843 0 001.43-1.514c.287.434.558.87.815 1.3z" fill="#fff"/><path d="M83.869 14.243l-.63.069c-.211-.727-.697-1.281-1.983-1.281-1.853 0-2.991 2.174-5.176 2.174-1.777 0-2.907-1.51-4.107-1.51-.705 0-1.365.656-1.877 1.381a2.922 2.922 0 01-.16-.915c0-1.257 1.215-2.104 2.2-2.104 1.343 0 2.45 1.393 3.922 1.397h.005c1.82 0 3.496-1.965 5.336-1.965 2.03 0 2.09 1.547 2.47 2.755zm.265 30.104c-.266.323-.798.94-1.432 1.514-2.498-3.657-6.132-8.01-12.876-8.231a590.357 590.357 0 01-5.096-.194 29.678 29.678 0 00-1.593-1.364c3.553-.13 7.822-.401 9.523-.401 4.32 0 8.582 4.272 11.474 8.676z" fill="#003D60"/><path d="M83.215 46.625c-.865.813-1.965 1.611-2.936 1.611-1.622.002-3.598-2.22-4.26-3.024-.641.81-2.534 3.024-4.099 3.024-1.13-.002-2.418-1.157-3.287-2.104.058-.403.102-.793.132-1.165.782.901 2.097 2.204 3.16 2.206 1.615 0 3.842-3.018 3.863-3.047.127-.174.316-.176.445-.007.024.03 2.358 3.055 4.045 3.055.767 0 1.668-.626 2.424-1.312.176.258.346.515.512.764l.001-.001z" fill="#fff"/><path d="M82.216 19.066c.382.458.614 1.005.614 1.625 0 .562-.254 1.384-.843 2.253-.26.386-.585.78-.983 1.165-1.272 1.237-3.28 2.382-6.246 2.85a4.394 4.394 0 00.24-1.855H75c3.264-.688 5.75-3.026 7.216-6.038z" fill="#003D60"/><path d="M78.976 17.535c1.235.1 2.511.65 3.24 1.53-1.465 3.013-3.952 5.35-7.215 6.038h-.002a4.432 4.432 0 00-.154-.88 4.459 4.459 0 00-1.177-1.992c.813-2.397 2.895-3.98 5.308-4.695z" fill="#007BC3"/><path d="M73.652 22.217a4.321 4.321 0 00-2.386-1.16 11.149 11.149 0 012.246-1.87c1.539-.987 3.359-1.668 5.054-1.668.136 0 .273.006.41.018-2.413.716-4.495 2.297-5.308 4.695l-.016-.014zm1.347 2.886a4.4 4.4 0 01-.241 1.855c-.333.917-.985 1.71-1.95 2.261v.002a81.224 81.224 0 00-2.738-.489c.022-.184.032-.372.034-.565 2.108-.518 3.697-1.956 4.74-3.945.08.29.134.583.154.88v.001z" fill="#003D60"/><path d="M68.755 24.222a6.435 6.435 0 00-.237-.285c1.598-1.1 3.304-1.721 5.127-1.721h.007l.016.013a4.473 4.473 0 011.176 1.992c-1.042 1.989-2.63 3.426-4.74 3.945v-.056c0-.339-.026-.674-.078-1.002a6.275 6.275 0 00-1.27-2.887v.001z" fill="#007BC3"/><path d="M73.653 22.217h-.007c-1.822 0-3.528.622-5.128 1.722a7.215 7.215 0 00-2.1-1.629c1.231-.864 2.796-1.313 4.056-1.313.275 0 .54.021.792.06a4.327 4.327 0 012.387 1.16zM69.576.27c1.068-.127 2.46.033 3.474-.27-3.842 1.152-7.731 2.138-11.563 3.324-5.452 1.684-10.859 3.599-16 6.083-4.68 2.259-9.509 5.045-12.81 9.152-1.702 2.117-3.214 5.239-2.978 8.039a12.582 12.582 0 00-1.312-.74 13.73 13.73 0 01.471-2.428c1.483-5.263 5.932-9.24 10.32-12.19 5.351-3.595 11.398-6.174 17.535-8.103A78.547 78.547 0 0165.576.89a58.766 58.766 0 014-.622V.27zm.529 27.84v.056c-.003.193-.014.38-.034.565-.36-.057-.723-.115-1.089-.17a18.37 18.37 0 001.044-1.452c.052.328.079.663.079 1.003v-.001zm-.312 1.815l-.031.085c-1.451 3.786-7.136 5.126-9.815 5.356.786-.85 1.372-1.843 1.632-2.972h.002c2.66-.031 4.712-1 6.462-2.772.59.094 1.174.197 1.75.303z" fill="#003D60"/><path d="M70.025 27.109a18.84 18.84 0 01-1.043 1.453 93.741 93.741 0 00-8.013-.837c-.571-1.279-1.435-2.497-2.487-3.553 1.167-.648 2.413-.97 4.574-.97 1.751 0 3.656.287 5.277.865.142.05.283.102.422.157a6.266 6.266 0 011.27 2.886v-.001z" fill="#007BC3"/><path d="M68.81 43.905c0 .335-.016.69-.046 1.062-.407-.47-.67-.83-.678-.84-.123-.17-.332-.173-.457-.004a3.66 3.66 0 01-.1.13c.023-.378.034-.742.034-1.096 0-1.892-.135-2.64-4.907-4.347a24.631 24.631 0 00-1.554-1.532c1.21.054 2.418.107 3.627.158 2.165 1.99 4.08 4.385 4.08 6.47z" fill="#003D60"/><path d="M68.765 44.966c-.03.373-.074.762-.132 1.165a15.555 15.555 0 01-.777-.919c-.114.145-.27.333-.456.543.061-.515.105-1.017.13-1.502.064-.08.1-.127.1-.13.126-.168.336-.167.458.003.007.01.27.371.677.84z" fill="#fff"/><path d="M58.425 24.114a13.263 13.263 0 00-1.968-1.613 11.965 11.965 0 015.292-1.243c1.83 0 3.4.39 4.67 1.052a7.239 7.239 0 012.1 1.628c-.062.04-.124.083-.186.127v.002c-1.62-.579-3.525-.866-5.276-.866-2.16 0-3.408.322-4.574.97l-.058-.057zm9.429 21.098c.176.226.446.557.778.92-.723 5.04-3.534 11.948-6.043 11.948-.2 0-.4-.05-.595-.163.86-1.418 1.538-3.032 2.05-4.733-.25 1.436-.568 2.832-.97 4 2.344-2.6 3.849-7.392 4.326-11.428.186-.211.34-.399.455-.544zm-.29-2.055c0 .354-.012.719-.034 1.097-.3.385-1.24 1.537-2.258 2.275.083-1.007.122-1.996.122-2.949 0-1.333-1.21-3.13-2.736-4.77 4.772 1.707 4.907 2.455 4.907 4.347h-.001z" fill="#003D60"/><path d="M67.53 44.253a21.48 21.48 0 01-.13 1.502c-.552.635-1.384 1.483-2.252 2.006.049-.412.09-.826.123-1.233 1.018-.739 1.957-1.89 2.259-2.275z" fill="#fff"/><path d="M67.4 45.756c-.476 4.036-1.981 8.829-4.326 11.428.403-1.168.72-2.564.97-4 .533-1.755.891-3.6 1.103-5.423.868-.523 1.7-1.372 2.252-2.005h.001z" fill="#003D60"/><path d="M68.043 29.62c-1.749 1.773-3.802 2.74-6.462 2.773h-.002a5.845 5.845 0 00.146-1.641 7.796 7.796 0 00-.346-1.946v-.002c2.307.19 4.53.467 6.664.817z" fill="#007BC3"/><path d="M65.392 43.58c0 .953-.038 1.942-.121 2.949a5.269 5.269 0 01-.49.313c.102-1.446.134-2.45.134-2.587 0-2.558-1.052-3.222-9.263-6.1v-.003c.707-.275 1.407-.61 2.063-1.007v.001c.27.104.54.205.813.292 1.663.527 3.022.975 4.128 1.372 1.525 1.64 2.735 3.438 2.735 4.771z" fill="#003D60"/><path d="M65.271 46.529c-.033.407-.076.82-.123 1.233a4.176 4.176 0 01-.457.24c.037-.409.067-.799.092-1.158.163-.092.327-.199.489-.314v-.001z" fill="#fff"/><path d="M64.69 48.002c.153-.068.306-.149.457-.24a31.43 31.43 0 01-1.102 5.422c.31-1.785.513-3.633.646-5.182z" fill="#003D60"/><path d="M64.781 46.843c-.024.36-.054.75-.09 1.159a2.388 2.388 0 01-.931.234c-1.479.032-3.452-1.973-4.27-2.886-.03.037-.059.074-.09.11-.428.497-.947.937-1.414 1.355-.734.653-1.692 1.42-2.73 1.42-1.622.002-3.6-2.22-4.26-3.023a16.46 16.46 0 01-.927 1.067 16.653 16.653 0 00-.116-1.17c.482-.537.804-.973.812-.985.127-.174.317-.175.447-.006.023.03 2.357 3.054 4.044 3.054 1.045 0 2.017-.907 2.716-1.585.17-.166.652-.786 1.12-1.274.13-.105.238-.149.334-.149.254 0 .434.295.708.588.778.831 2.42 2.423 3.618 2.421.327-.006.68-.133 1.031-.33h-.002z" fill="#fff"/><path d="M63.138 36.072c.53.422 1.068.881 1.593 1.364-1.209-.05-2.417-.103-3.627-.157a23.972 23.972 0 00-1.358-1.14h.336c.878 0 1.932-.028 3.057-.068h-.001zm-1.413-5.32a5.861 5.861 0 01-.146 1.641c-.26 1.129-.845 2.122-1.631 2.972-.249.27-.519.525-.804.766-.436.368-.911.704-1.411 1.004-.005.004-.01.005-.016.01a13.47 13.47 0 01-2.063 1.007c-1.598.625-3.241.943-4.558.943-.226 0-.45-.005-.676-.015a9.342 9.342 0 001.712-2.407h.002c4.29-.597 7.133-2.41 9.591-5.921z" fill="#003D60"/><path d="M61.378 28.806c.198.646.318 1.3.346 1.946-2.459 3.512-5.302 5.325-9.591 5.922h-.002c.773-1.551 1.137-3.314 1.137-5.17a9.362 9.362 0 00-.456-2.953 75.476 75.476 0 011.77-.023c2.34 0 4.607.098 6.797.276v.001l-.001.001z" fill="#007BC3"/><path d="M59.743 36.138c.442.343.901.727 1.358 1.14-1.122-.047-2.246-.096-3.37-.142.5-.3.974-.636 1.41-1.004.201.003.401.005.602.006z" fill="#003D60"/><path d="M58.485 24.172c1.05 1.056 1.915 2.275 2.487 3.553a99.979 99.979 0 00-6.255-.192c-.773 0-1.548 0-2.321.004a7.03 7.03 0 00-2.607-2.88 13.42 13.42 0 015.131-1.023c1.181 0 2.36.158 3.507.48l.058.057z" fill="#007BC3"/><path d="M46.273 23.505a10.064 10.064 0 00-1.37-.047c1.507-1.707 3.513-2.844 5.872-2.844 1.956 0 3.946.724 5.682 1.887.704.47 1.367 1.015 1.968 1.613a12.996 12.996 0 00-3.506-.48c-1.75 0-3.499.348-5.131 1.024-.997-.618-2.18-1.017-3.514-1.153h-.001zm.381 17.998c-1.17.456-2.508.785-4.026.957-.82.094-1.692.144-2.617.144-1.838 0-3.673-.177-5.505-.438-2.986-.423-5.961-1.067-8.934-1.525l.093-.611c.11.018.218.026.33.026.719 0 1.445-.39 1.922-1.369.106-.22.18-.428.221-.631 3.177.513 6.337 1.387 9.504 1.387 6.996 0 11.698-4.69 11.698-9.42 0-.445-.037-.892-.11-1.339 1.106-.057 2.212-.096 3.319-.128l.264-.007c.297.896.455 1.886.455 2.953 0 1.856-.362 3.619-1.137 5.17a9.362 9.362 0 01-1.712 2.406 9.913 9.913 0 01-1.776 1.423 11.4 11.4 0 01-1.825.933l-.163.067-.001.002z" fill="#003D60"/><path d="M48.975 27.598c1.14-.04 2.28-.053 3.42-.06.159.322.3.66.418 1.014l-.264.007c-1.107.032-2.213.07-3.32.128-2.015.108-4.028.282-6.02.617-2.278.381-4.534.975-6.639 1.936a18.375 18.375 0 00-2.986 1.705c-.861.608-1.578 1.32-2.294 2.068l-.475.5c-.273.287-.577.59-.97.64-.4-.739.11-1.353.504-1.936.364-.538.811-1.034 1.272-1.49.35-.345.718-.665 1.102-.964 2.69-2.086 6.144-3.056 9.464-3.579 2.246-.353 4.515-.514 6.788-.586z" fill="#003D60"/><path d="M49.788 24.658a7.03 7.03 0 012.607 2.88 121.9 121.9 0 00-3.42.06c-.453-1.478-1.342-2.897-2.702-4.092 1.336.136 2.518.534 3.514 1.152h.001zm.314 22.777v.281a5.142 5.142 0 00-.511-.451 7.501 7.501 0 00-.093-.421c.202-.187.393-.376.57-.562.023.37.035.753.035 1.154v-.001z" fill="#003D60"/><path d="M49.953 45.11c.051.379.09.767.116 1.17-.178.186-.368.376-.57.562a13.316 13.316 0 00-.282-.975c.269-.253.517-.515.735-.757h.001z" fill="#fff"/><path d="M48.643 40.504c.638 1.595 1.09 3.01 1.309 4.607-.219.243-.466.505-.736.757-.564-1.712-1.49-3.418-2.4-4.432a11.334 11.334 0 001.826-.933l.001.001zm.948 6.761c.18.137.349.29.51.451-.037 2.396-.535 4.828-1.505 6.874a5.938 5.938 0 00-.148-.693c.232-1.468.035-3.95-.528-5.925.467-.22.934-.562 1.363-.938.106.072.209.148.308.23z" fill="#003D60"/><path d="M49.498 46.843c.035.142.067.283.093.421a3.986 3.986 0 00-.308-.23c.074-.06.147-.127.215-.191z" fill="#007BC3"/><path d="M49.5 46.843c-.069.065-.141.13-.215.192a5.777 5.777 0 00-.865-.496c.276-.2.545-.431.799-.67.107.326.202.653.282.974H49.5z" fill="#fff"/><path d="M29.267 30.249c.448-.318.9-.631 1.355-.934.329.495.752.957 1.285 1.375l.818 1.072c-.385.298-.753.62-1.102.963-.46.457-.908.952-1.272 1.49-.395.583-.904 1.197-.505 1.936.395-.049.699-.353.971-.64l.475-.5c.715-.748 1.433-1.46 2.294-2.068a18.368 18.368 0 012.986-1.705c2.105-.96 4.36-1.554 6.638-1.936 1.993-.336 4.005-.509 6.022-.616.074.446.11.894.11 1.338 0 4.73-4.702 9.42-11.698 9.42-3.168 0-6.327-.873-9.504-1.387.032-.149.047-.29.047-.43 0-1.205-1.109-2-2.246-2-1.321 0-2.213 1.069-2.271 2.074h-.003c-1.888.067-3.44.533-4.976 1.286 2.264-2.119 4.9-4.428 7.707-6.606a93.758 93.758 0 012.072-1.56c.265-.193.532-.383.798-.572h-.002z" fill="#007BC3"/><path d="M48.974 27.597c-2.272.072-4.541.234-6.788.587-3.32.522-6.774 1.493-9.463 3.579l-.818-1.072a5.88 5.88 0 01-1.286-1.375c.419-.283.839-.559 1.26-.828 4.479-2.856 9.054-4.92 13.022-5.03a10.06 10.06 0 011.37.047c1.36 1.195 2.249 2.615 2.703 4.092zm-1.81 18.496a8.576 8.576 0 00-1.055-.2 13.82 13.82 0 00.166-2.124c0-.082 0-.162-.002-.243a13.62 13.62 0 00.382-2.024c.054-.023.11-.044.163-.067.91 1.014 1.835 2.72 2.4 4.433a8.02 8.02 0 01-.8.67 6.843 6.843 0 00-1.253-.445h-.001z" fill="#007BC3"/><path d="M48.418 46.538c.306.143.595.308.865.496-.429.375-.895.716-1.363.938a10.484 10.484 0 00-.318-.957c.27-.114.545-.28.816-.476z" fill="#fff"/><path d="M48.449 53.898c.062.22.11.452.148.693v.001c-1.268 2.674-3.339 4.694-6.236 5.133a16.26 16.26 0 01-2.25.194c3.172-2.098 5.527-5.075 5.54-9.282 1.355.632 2.368 1.686 2.798 3.262v-.001z" fill="#003D60"/><path d="M45.65 50.635a6.822 6.822 0 00-.941-.356 15.3 15.3 0 00.955-2.419c.413.23.834.374 1.234.376.33 0 .677-.099 1.024-.264.562 1.975.76 4.457.527 5.925-.429-1.575-1.442-2.63-2.798-3.262z" fill="#007BC3"/><path d="M47.164 46.093c.445.112.863.261 1.254.446a4.13 4.13 0 01-.816.476 6.232 6.232 0 00-.438-.923v.001z" fill="#003D60"/><path d="M47.603 47.016c.116.298.223.62.318.957-.346.165-.693.263-1.023.263-.4-.001-.82-.145-1.234-.375.097-.322.183-.648.258-.981.335.181.669.293.98.293.225 0 .46-.057.7-.157h.001z" fill="#fff"/><path d="M47.165 46.094c.16.27.306.581.438.922-.239.1-.475.158-.7.158-.31 0-.645-.112-.98-.294.075-.323.137-.651.187-.986.366.047.72.113 1.055.2z" fill="#007BC3"/><path d="M46.11 45.895c-.051.334-.112.662-.187.985a5.374 5.374 0 01-.76-.516c.095-.177.183-.353.268-.531h.002c.23.014.457.033.678.06l-.001.002z" fill="#003D60"/><path d="M45.922 46.88c-.076.332-.161.658-.258.98a6.207 6.207 0 01-.982-.69c.175-.265.334-.536.478-.806.25.199.506.378.762.517v-.001z" fill="#fff"/><path d="M44.708 50.28c.33.098.644.218.942.356-.013 4.207-2.368 7.185-5.54 9.282-.059.002-.12.002-.18.002.562-.779.887-1.67.887-2.696 0-.688-.086-1.318-.247-1.896 1.44-.997 3.011-2.778 4.138-5.048z" fill="#007BC3"/><path d="M44.683 47.17c.314.263.646.505.982.69a15.3 15.3 0 01-.955 2.419c-.807-.244-1.7-.369-2.64-.394l-.002-.001a9.51 9.51 0 002.616-2.714z" fill="#003D60"/><path d="M45.163 46.363c-.145.27-.303.542-.479.806-.81-.681-1.503-1.514-1.847-1.952-.643.809-2.526 2.986-4.126 3.02-1.585 0-3.688-2.26-4.367-3.04-.65.793-2.636 3.038-4.267 3.038-1.62.002-3.597-2.22-4.259-3.023-.64.809-2.532 3.023-4.098 3.023-1.56-.003-3.43-2.21-4.065-3.023-.642.804-2.528 2.99-4.095 3.023-1.5.032-3.512-2.036-4.305-2.927-.153-.172-.187-.504-.078-.743.11-.237.325-.29.478-.12.572.643 2.53 2.729 3.897 2.727 1.629-.035 3.855-3.02 3.879-3.05.124-.168.334-.166.456.004.023.032 2.222 3.042 3.837 3.046 1.616 0 3.843-3.019 3.864-3.048.127-.174.316-.175.445-.006.024.03 2.356 3.054 4.045 3.054 1.688 0 4.016-3.024 4.039-3.054.063-.083.142-.125.22-.125a.27.27 0 01.21.114c.026.03 2.526 3.067 4.19 3.065 1.63-.035 3.855-3.02 3.879-3.049a.312.312 0 01.195-.128c.092-.012.183.032.255.132.016.02.98 1.34 2.097 2.236z" fill="#fff"/><path d="M44.71 50.28c-1.128 2.271-2.699 4.05-4.14 5.048-.474-1.703-1.602-2.942-3.09-3.794 1.884-.218 3.388-.824 4.588-1.65l.001.002c.94.024 1.833.15 2.64.393z" fill="#003D60"/><path d="M37.48 51.534c1.488.852 2.615 2.091 3.09 3.794a7.03 7.03 0 01.248 1.895 4.5 4.5 0 01-.888 2.697 5.705 5.705 0 01-.176.228C36.415 64.278 26.184 65 23.081 65c-8.408 0-12.566-3.192-14.392-8.182 4.273 4.782 10.492 6.313 17.175 6.313 5.452 0 10.86-3.486 10.86-7.58 0-1.514-.944-3.617-2.736-5.252 1.272.244 2.468.648 3.492 1.236v-.001z" fill="#003D60"/><path d="M33.989 50.297c1.792 1.636 2.735 3.74 2.735 5.253 0 4.093-5.406 7.58-10.86 7.58-6.682 0-12.901-1.531-17.174-6.314-.015-.04-.032-.081-.045-.123 1.129.618 2.35.953 3.603.953 3.226 0 5.073-1.708 7.286-3.509.763-.62 1.57-1.254 2.492-1.832a14.424 14.424 0 015.207-2.01 18.84 18.84 0 012.893-.286 17.35 17.35 0 013.862.288z" fill="#007BC3"/><path d="M31.882 28.488c-.422.269-.843.544-1.26.828-.557-.831-.842-1.755-.92-2.718.842.543 1.586 1.175 2.18 1.89z" fill="#003D60"/><path d="M29.7 26.598c.08.962.364 1.887.92 2.718a57.25 57.25 0 00-1.354.934c-.818-1.331-1.02-2.847-.878-4.392.457.223.897.471 1.312.74z" fill="#003D60"/><path d="M29.267 30.25c-.267.19-.533.38-.798.572-.513-2.19-1.492-4.385-2.903-6.014.978.258 1.935.61 2.824 1.049-.143 1.544.06 3.06.878 4.391l-.001.001zm-1.082 7.378a2 2 0 01-.046.43c-.042.203-.114.41-.222.631-.476.978-1.202 1.369-1.922 1.369-.11 0-.22-.008-.33-.026-1.053-.17-2-1.131-2-2.225 0-.036 0-.069.003-.104.058-1.005.95-2.075 2.271-2.075 1.138 0 2.246.795 2.246 2z" fill="#003D60"/><path d="M28.468 30.823a93.75 93.75 0 00-1.193.886c-1.398-3.265-3.868-5.355-7.555-6.041-.313-.39-.7-.738-1.16-1.028a12.763 12.763 0 013.072-.359c1.273 0 2.622.183 3.933.529 1.41 1.629 2.389 3.823 2.902 6.013z" fill="#007BC3"/><path d="M27.275 31.707a65.02 65.02 0 00-.88.675c-1.492-1.738-3.512-3.039-5.748-4.007v-.034c0-.986-.32-1.914-.926-2.675 3.686.687 6.156 2.776 7.554 6.041z" fill="#003D60"/><path d="M23.9 49.87c1.151 0 2.277.132 3.334.428a14.418 14.418 0 00-5.208 2.01 15.599 15.599 0 00-2.466-.185 18.56 18.56 0 00-6.232 1.107c2.26-1.585 5.434-2.851 8.614-3.237.657-.08 1.312-.122 1.96-.122H23.9z" fill="#007BC3"/><path d="M25.666 40.03l-.093.611c-2.074-.32-4.144-.548-6.215-.548-.636 0-1.275.021-1.91.069.398-.383.814-.777 1.24-1.175h.003c1.536-.754 3.088-1.22 4.975-1.286h.003a1.449 1.449 0 00-.004.104c0 1.094.948 2.055 2.001 2.225z" fill="#003D60"/><path d="M20.647 28.341v.033c-.01 3.133-1.556 4.613-3.76 5.493-.912.366-1.937.627-3.014.86-1.662.364-3.45.661-5.133 1.164v.001c-3.91 1.168-7.272 3.455-7.272 10.28 0 .108.002.214.005.322a.66.66 0 01-.035-.067c-.132-1.616-.311-3.229-.311-4.837 0-9.246 8.337-14.556 17.285-17.042a4.682 4.682 0 011.307 1.118c.607.76.927 1.689.927 2.675z" fill="#007BC3"/><path d="M22.025 52.306c-.922.578-1.73 1.213-2.492 1.832-1.65-.59-3.577-.69-5.309-.69-.418 0-.829.004-1.216.011.103-.077.21-.155.32-.23a18.557 18.557 0 016.232-1.106c.89 0 1.708.063 2.466.184l-.001-.001zM15.872 23.75c.991.108 1.843.39 2.541.799-8.947 2.486-17.285 7.796-17.285 17.042 0 1.608.179 3.222.31 4.837C1.09 45.72 0 42.154 0 39.413c0-8.949 7.244-15.708 15.019-15.708.283 0 .567.014.852.045zm-1.998 10.979c1.076-.233 2.1-.495 3.013-.86-.208 4.966-5.203 7.103-9.465 8.306 2.577-1.515 4.985-4.615 6.452-7.444v-.002z" fill="#003D60"/><path d="M13.873 34.729v.002c-1.466 2.828-3.875 5.928-6.452 7.443-.001 0-.001.002-.003.002-.27.075-.537.148-.799.218 1.222-1.722 2.122-4.218 2.122-6.489v-.012c1.683-.503 3.47-.8 5.132-1.163v-.001z" fill="#007BC3"/></svg>