<svg width="84" height="64" fill="none" xmlns="http://www.w3.org/2000/svg"><path d="M60.834 53.387c.589-.6 1.127-1.206 1.598-1.817.198.138.344.311.45.482-.67.473-1.345.914-2.048 1.335z" fill="#007BC3"/><path d="M66.269 42.75c-.007.01.002.017-.013.02.06-.45.09-.892.11-1.342-.013.44-.041.883-.097 1.323z" fill="#003D60"/><path d="M80.81 20.364c5.894 6.776 2.304 6.021-.321 5.673-1.033-.132-1.967.057-2.709 1.014.303-3.58-.078-7.148-1.286-10.521 1.515 1.088 3.056 2.362 4.316 3.834z" fill="#007BC3"/><path d="M66.374 41.292c.01-.413.01-.836-.003-1.238.022.41.029.822.004 1.238zm-.002-1.238z" fill="#003D60"/><path d="M62.432 51.57a20.048 20.048 0 01-1.598 1.817 32.043 32.043 0 002.047-1.335c.12.21.185.438.212.681 1.146 3.078-1.658 8-1.813 10.868l-.056-.04c-2.787-1.962-2.838-4.696-3.125-7.256-2.534-.157-5.315-.262-7.286-2.666l-.044-.058c.096-.017.202-.027.299-.045 3.15-.521 8.331-3.878 11.27-2.033l.094.066z" fill="#007BC3"/><path d="M66.087 37.37a24.973 24.973 0 00-.273-1.315c.102.437.204.873.273 1.315zm-.274-1.314z" fill="#003D60"/><path d="M76.495 16.53c1.208 3.374 1.59 6.941 1.287 10.522-.306.375-.573.877-.805 1.529l-2.665-13.549c.703.463 1.443.952 2.184 1.499z" fill="#007BC3"/><path d="M65.46 34.755zm-.603-1.77a4.656 4.656 0 00-.178-.448c-.06-.196-.142-.38-.226-.58-.14-.322-.28-.644-.429-.973a41.02 41.02 0 00-1.73-3.33l-.009-.006c.842-2.726 2.639-7.074 3.407-8.349.159-.268.29-.555.38-.844 3.712 5.897 2.724 14.729.948 22.054-.2.787-.456 1.535-.754 2.24.055-.44.085-.882.098-1.323a.238.238 0 00.009-.134c.025-.417.019-.83-.004-1.238a18.614 18.614 0 00-.283-2.684c-.07-.442-.171-.878-.273-1.315-.102-.436-.22-.87-.354-1.3a25.756 25.756 0 00-.406-1.267c-.07-.161-.124-.325-.197-.503h.001z" fill="#003D60"/><path d="M64.68 32.538c.067.144.128.3.178.447-.06-.154-.12-.309-.178-.447zm-.226-.58a14.513 14.513 0 00-.429-.973c.15.328.29.65.43.973z" fill="#003D60"/><path d="M60.145 30.18c-.982-1.388-1.181-4.252-1.018-7.354.106.13.206.27.292.386.232.331.464.662.69 1.002.241.338.476.685.705 1.041.373.57.743 1.167 1.097 1.765.111.162.216.334.304.509a.38.38 0 01.071.12l.01.006c-.242.786-.407 1.443-.436 1.845-.139 1.321-.96 1.772-1.716.682l.001-.001zm2.071-2.653z" fill="#007BC3"/><path d="M65.693 19.3c-.768 1.275-2.565 5.623-3.407 8.349a.417.417 0 00-.071-.12 5.507 5.507 0 00-.304-.51 45.922 45.922 0 00-1.098-1.764c-.234-.347-.463-.703-.705-1.04-.225-.34-.458-.672-.69-1.003-.086-.116-.185-.256-.29-.386-.01-.007-.01-.007-.013-.022.168-3.31.733-6.903 1.181-9.287 2.614 1.168 4.486 2.87 5.777 4.939a4.02 4.02 0 01-.38.843v.001z" fill="#007BC3"/><path d="M60.814 25.256a25.156 25.156 0 00-.705-1.04c.242.337.47.693.705 1.04zM43.86 44.48c2.564 1.218 3.794 5.982 5.415 7.86l-.064.012c-2.9.444-4.606-1.213-6.312-2.631-1.695 1.413-3.489 3.01-6.159 2.687l-.064.011c1.748-2.092 2.93-7.628 5.977-8.263l.097-.017c.077.672.1 1.362.102 2.08.178-.675.341-1.348.468-2.032.197.039.374.149.54.293zm14.787-22.23c.112.12.217.251.314.374-.097-.123-.209-.244-.314-.374z" fill="#007BC3"/><path d="M42.852 46.219a18.846 18.846 0 00-.102-2.08c.209-.037.403-.013.57.048-.127.683-.29 1.356-.468 2.032zm23.221-27.763c-1.291-2.07-3.163-3.771-5.776-4.94.095-.494.172-.946.254-1.325.25-1.299 1.84.065 2.747 1.037l2.327 2.498c.683.73.759 1.767.448 2.73z" fill="#007BC3"/><path d="M60.297 13.517c-.447 2.383-1.012 5.977-1.181 9.287-.053-.066-.103-.115-.156-.18a5.51 5.51 0 00-.314-.374c-.62-.7-1.436-1.523-2.358-2.435-.284-.297-.593-.597-.902-.898a135.903 135.903 0 01-2.847-2.86c-1.242-1.277-2.454-2.617-3.494-3.961.813.245 1.406.421 1.622.474l-.415-.711c4.176-.1 7.47.518 10.045 1.66v-.002z" fill="#003D60"/><path d="M56.29 19.815c-.291-.288-.591-.582-.903-.899.309.3.62.602.902.9zm-3.75-3.759c.262.268.524.535.777.796a20.54 20.54 0 01-.778-.796z" fill="#007BC3"/><path d="M28.46 29.357c4.23 1.23 8.542 3.263 11.321 6.92.013.022.034.051.04.084-2.779-3.7-7.104-5.754-11.36-7.004zm21.793-17.499l.414.711a49.88 49.88 0 01-1.621-.474 7.645 7.645 0 01-.15-.189c.468-.024.919-.046 1.357-.05v.002zm2.704-2.715a.66.66 0 01-.922.17.654.654 0 01-.144-.915.643.643 0 01.898-.158.645.645 0 01.168.903z" fill="#003D60"/><path d="M48.896 11.907c-1.533-1.985-2.68-3.98-2.914-5.773.27-.065.54-.128.808-.208l3.462 5.932a26.78 26.78 0 00-1.356.05z" fill="#007BC3"/><path d="M37.935 6.038c.639-.41 2.233.325 2.928.376 1.71.129 3.447.079 5.12-.28.234 1.792 1.38 3.787 2.914 5.772.044.059.096.124.149.19-2.8-.862-8.258-2.685-10.494-4.25-.981-.686-1.35-1.324-.617-1.808zm.036 15.012l-9.83-6.86c.712-.134 1.483-.27 2.274-.377 2.785 1.386 5.18 3.384 7.14 5.823.048.412.181.885.415 1.413h.001z" fill="#007BC3"/><path d="M48.172 1.708c6.922-4.457 16.878.68 22.072 5.465 2.995 2.77 5.031 5.962 6.25 9.358a49.772 49.772 0 00-2.183-1.5l2.664 13.55c.232-.653.5-1.154.805-1.53-.81 9.56-6.56 19.163-14.9 25.001a1.609 1.609 0 00-.45-.482c2.317-2.902 3.465-5.863 3.824-8.801.016-.003.007-.01.013-.019.297-.705.554-1.452.754-2.24 1.775-7.325 2.764-16.156-.948-22.053.31-.963.234-2-.449-2.73l-2.327-2.498c-.907-.972-2.497-2.335-2.747-1.036-.082.378-.16.829-.254 1.325-2.575-1.141-5.869-1.759-10.045-1.66L46.79 5.926c-.267.08-.537.144-.808.208-.235-1.71.347-3.241 2.19-4.425v-.001zm3.866 7.605c.301.211.709.13.92-.171a.645.645 0 00-.167-.904.645.645 0 00-.898.158.654.654 0 00.145.916z" fill="#007BC3"/><path d="M28.462 29.357c-.08-.027-.166-.045-.245-.073.086.018.165.046.245.073z" fill="#003D60"/><path d="M28.46 29.356c-.08-.027-.158-.054-.244-.072l-.01-.007c-1.105-1.994-2.803-5.388-4-7.11 6.782.235 12.392 4.89 14.738 12.316.205.65.605 1.182.837 1.793-2.78-3.657-7.092-5.69-11.32-6.92z" fill="#003D60"/><path d="M28.216 29.283c-.175-.051-.356-.094-.54-.152.181.042.356.094.53.146l.01.007z" fill="#007BC3"/><path d="M18.524 22.97c1.944-.607 3.852-.86 5.681-.802 1.198 1.722 2.896 5.116 4.001 7.11a9.289 9.289 0 00-.53-.147 24.6 24.6 0 00-1.024-.266 60.884 60.884 0 00-2.87-.619 6.865 6.865 0 00-.72-.095c-.087-.018-.18-.026-.281-.041a46.913 46.913 0 01-4.258-5.14h.001zm6.786 5.587zM35.4 13.604c.865.072 1.6.165 2.215.271 4.98.8 2.658 2.267 1.01 3.474-.727.516-1.182 1.224-1.069 2.286-1.96-2.439-4.356-4.437-7.14-5.822 1.597-.232 3.312-.352 4.984-.209z" fill="#007BC3"/><path d="M23.063 28.152c.267.018.506.06.72.095a60.54 60.54 0 012.87.62c.338.08.685.168 1.024.265.184.058.366.101.54.152.375.67.673 1.188.872 1.424.72.898.467 1.66-.66 1.463-1.6-.305-3.69-2.019-5.628-4.048.092.008.175.01.262.029z" fill="#007BC3"/><path d="M23.062 28.152c-.087-.018-.17-.02-.262-.03-.016.003-.019-.012-.019-.012.102.015.194.024.28.042z" fill="#007BC3"/><path d="M22.782 28.11s.003.017.019.013c-.143-.016-.31-.02-.479-.039.166.004.31.02.46.026z" fill="#007BC3"/><path d="M16.767 27.963c-.207-.005-.43-.006-.648-.017.217.011.442.013.648.017z" fill="#003D60"/><path d="M17.83 21.936c-.624-.957 1.194-1.062 2.34-.99l2.955.156c.25.006.63.426 1.082 1.065-1.83-.057-3.737.196-5.681.803-.266-.383-.501-.73-.696-1.034z" fill="#007BC3"/><path d="M16.767 27.963c-.207-.005-.431-.007-.648-.018-1.836-.048-3.765-.146-5.53-.398.66-.338 1.13-.586 1.304-.675l-.496-.136c2.387-1.8 4.784-3.03 7.127-3.766a46.923 46.923 0 004.257 5.14c-.15-.006-.293-.023-.46-.026-1.462-.081-3.437-.073-5.555-.121h.001z" fill="#003D60"/><path d="M11.894 26.872c-.174.088-.644.336-1.303.676-.067-.005-.128-.019-.204-.03.332-.273.673-.54 1.011-.782l.496.136z" fill="#003D60"/><path d="M5.466 25.046l5.931 1.69c-.338.242-.68.509-1.012.782-2.166-.32-4.083-.876-5.307-1.857.14-.198.269-.403.388-.614z" fill="#007BC3"/><path d="M10.387 27.517c.076.01.136.025.204.03-3.259 1.64-11.107 5.35-10.564 2.892.126-.642 1.57-1.136 2.048-1.517 1.14-.944 2.19-2.021 3.005-3.263 1.224.983 3.142 1.537 5.308 1.858h-.001z" fill="#007BC3"/><path d="M10.132 23.547c-.04-.323.18-.618.479-.662.314-.047.6.166.653.471a.555.555 0 01-.471.653.588.588 0 01-.661-.462z" fill="#003D60"/><path d="M10.61 22.885c-.297.045-.518.34-.478.662.06.295.347.51.661.462a.555.555 0 00.471-.653.577.577 0 00-.653-.471zm.788 3.851l-5.93-1.69c-.121.212-.25.416-.389.614-1.171-.918-1.725-2.233-1.287-4.06 1.642-6.956 10.951-9.743 17.059-9.868 3.552-.072 6.756.694 9.565 2.082-.793.107-1.562.242-2.275.376l9.83 6.86c-.234-.528-.366-1.001-.414-1.413 5.26 6.459 7.449 15.912 5.764 24.551a1.095 1.095 0 00-.57-.048c-.307-3.234-1.388-5.802-2.968-7.862-.233-.612-.633-1.144-.838-1.793-2.344-7.426-7.955-12.08-14.738-12.316-.452-.64-.832-1.06-1.081-1.066l-2.956-.156c-1.146-.071-2.963.034-2.34.99.195.305.43.652.696 1.034-2.344.735-4.74 1.966-7.126 3.766h-.002z" fill="#007BC3"/><path d="M34.242 48.359c2.294-.01 5.472-4.067 5.501-4.105.17-.225.413-.225.592-.018.038.038 3.441 4.123 5.67 4.123h.037c2.22-.057 5.257-4.057 5.285-4.105.178-.234.441-.225.61.01.03.038 3.028 4.085 5.229 4.095 2.2 0 5.237-4.057 5.265-4.095.17-.235.433-.244.611-.019.028.047 3.207 4.114 5.51 4.114 1.421-.01 2.746-1.23 3.696-2.132.432-.414 2.295-2.883 2.821-2.536.263.169.207.563.094.854-.225.555-.564 1.043-.968 1.503-.583.676-1.288 1.259-1.928 1.822-.997.883-2.304 1.907-3.714 1.916-2.21 0-4.909-2.986-5.811-4.066-.866 1.09-3.45 4.066-5.585 4.066-2.116-.009-4.655-2.958-5.53-4.056-.874 1.08-3.442 4.01-5.576 4.056h-.047c-2.153 0-5.02-3.032-5.952-4.084-.884 1.06-3.592 4.075-5.81 4.084-2.21 0-4.9-2.986-5.802-4.066-.875 1.09-3.45 4.066-5.585 4.066-2.125-.009-4.674-2.977-5.539-4.066-.874 1.08-3.44 4.02-5.575 4.066-2.05.038-4.786-2.742-5.868-3.935-.206-.234-.254-.675-.103-.995.15-.319.442-.394.65-.16.78.864 3.44 3.663 5.265 3.663h.037c2.218-.057 5.256-4.057 5.284-4.105.17-.225.46-.225.63.01.028.038 3.027 4.085 5.228 4.095 2.2 0 5.227-4.057 5.266-4.095.17-.235.423-.244.602-.019.028.047 3.216 4.114 5.51 4.114z" fill="#fff"/></svg>