<svg width="180" height="45" fill="none" xmlns="http://www.w3.org/2000/svg"><path d="M163.936 37H36.064C27.19 37 20 31.053 20 23.713v-3.426C20 12.947 27.19 7 36.064 7h127.872C172.81 7 180 12.947 180 20.287v3.426C180 31.053 172.804 37 163.936 37z" fill="#940005"/><path d="M44.175 22.752C44.175 35.04 34.287 45 22.088 45 9.888 45 0 35.04 0 22.752S9.888.503 22.088.503c12.199 0 22.087 9.96 22.087 22.249z" fill="#940005"/><path d="M39.712 21.63c0 10.484-8.439 18.988-18.851 18.988-10.413 0-18.851-8.5-18.851-18.988S10.448 2.642 20.86 2.642c10.409 0 18.852 8.5 18.852 18.988z" fill="#EC1B23"/><path d="M33.87 18.878c0 7.588-6.36 13.74-14.203 13.74-7.845 0-14.204-6.152-14.204-13.74 0-7.587 6.36-13.738 14.204-13.738S33.87 11.29 33.87 18.878z" fill="#FFC600"/><path d="M22.613 8.41c0 4.64-3.89 8.41-8.69 8.41-4.8 0-8.69-3.764-8.69-8.41 0-4.641 3.89-8.41 8.69-8.41 4.8 0 8.69 3.764 8.69 8.41zM84.136 27l-.014-5.866-2.884 4.83H80.23l-2.884-4.718V27h-2.128v-9.8h1.876l3.668 6.09 3.612-6.09h1.876l.014 9.8h-2.128zm7.32-7.644c1.167 0 2.063.28 2.688.84.626.55.938 1.386.938 2.506V27H93.04v-.938c-.411.7-1.177 1.05-2.296 1.05-.58 0-1.083-.098-1.512-.294a2.251 2.251 0 01-.966-.812 2.113 2.113 0 01-.337-1.176c0-.7.262-1.25.785-1.652.532-.401 1.348-.602 2.45-.602H92.9c0-.476-.145-.84-.434-1.092-.29-.261-.724-.392-1.303-.392a3.74 3.74 0 00-1.19.196c-.382.121-.709.29-.98.504l-.784-1.526c.411-.29.901-.513 1.47-.672a6.691 6.691 0 011.779-.238zm-.168 6.286c.374 0 .705-.084.995-.252a1.45 1.45 0 00.615-.77v-.77H91.4c-.896 0-1.344.294-1.344.882 0 .28.108.504.323.672.224.159.527.238.91.238zm5.692-6.174h2.17v4.48l3.668-4.48h2.002V27h-2.17v-4.48L98.996 27H96.98v-7.532zm3.78-.812c-1.643 0-2.469-.723-2.478-2.17h1.428c.009.327.098.583.266.77.177.177.434.266.77.266s.592-.089.77-.266c.186-.187.28-.443.28-.77h1.456c-.01 1.447-.84 2.17-2.492 2.17zm9.085.7c1.167 0 2.063.28 2.688.84.625.55.938 1.386.938 2.506V27h-2.044v-.938c-.411.7-1.176 1.05-2.296 1.05-.579 0-1.083-.098-1.512-.294a2.251 2.251 0 01-.966-.812 2.113 2.113 0 01-.336-1.176c0-.7.261-1.25.784-1.652.532-.401 1.349-.602 2.45-.602h1.736c0-.476-.145-.84-.434-1.092-.289-.261-.723-.392-1.302-.392-.401 0-.798.065-1.19.196-.383.121-.709.29-.98.504l-.784-1.526c.411-.29.901-.513 1.47-.672a6.692 6.692 0 011.778-.238zm-.168 6.286c.373 0 .705-.084.994-.252a1.45 1.45 0 00.616-.77v-.77h-1.498c-.896 0-1.344.294-1.344.882 0 .28.107.504.322.672.224.159.527.238.91.238zM122.718 27v-4.508l-2.254 3.78h-.924l-2.198-3.794V27h-1.974v-7.532h2.282l2.408 4.354 2.562-4.354h2.044l.028 7.532h-1.974zm4.066-7.532h2.17v4.48l3.668-4.48h2.002V27h-2.17v-4.48L128.8 27h-2.016v-7.532z" fill="#fff"/></svg>