<svg width="44" height="64" fill="none" xmlns="http://www.w3.org/2000/svg"><path d="M43.464 21.65c0 11.957-13.905 41.36-21.665 41.36C14.36 63.01.133 33.608.133 21.65S9.833 0 21.799 0c11.965 0 21.665 9.693 21.665 21.65z" fill="#D70000"/><path d="M21.8 41.644c-11.034 0-20.009-8.97-20.009-19.994 0-11.025 8.976-19.994 20.008-19.994 11.034 0 20.009 8.969 20.009 19.994s-8.975 19.994-20.009 19.994z" fill="#fff"/><path d="M21.799 2.262c10.715 0 19.402 8.68 19.402 19.388 0 10.707-8.686 19.388-19.402 19.388-10.715 0-19.402-8.68-19.402-19.388 0-10.708 8.686-19.388 19.402-19.388zm0-1.213c-11.367 0-20.615 9.242-20.615 20.6 0 11.36 9.248 20.601 20.615 20.601 11.367 0 20.616-9.241 20.616-20.6 0-11.36-9.249-20.6-20.616-20.6z" fill="#A00"/><path d="M41.2 21.65c0 10.707-8.686 19.388-19.401 19.388-10.716 0-19.403-8.68-19.403-19.388 0-10.708 8.687-19.388 19.403-19.388 10.715 0 19.402 8.68 19.402 19.388z" fill="#FBCA00"/><path d="M29.73 26.961c0-.157.006-.258-.004-.354-.025-.29-.126-.358-.409-.294-.064.015-.129.029-.186.061-.376.186-.752.38-1.125.573-.043.021-.1.04-.1.1.003.072.068.086.122.104.186.068.38.118.576.132.143.015.262.069.337.187.133.207.244.232.344-.022a.133.133 0 01.118-.079c.312-.017.387-.193.326-.408zm11.42-3.899c-.725 10.048-9.111 17.976-19.351 17.976-10.339 0-18.787-8.08-19.37-18.266.66-.573 1.197-1.047 1.197-1.076-.036-.953.06-1.898.186-2.843.05-.39.835-1.13.86-1.342.122-1.056.494-2.037.917-3 .226-.522.62-.887 1.121-1.145.133-.068 1.415-.433 1.448-.44 1.142-.1 2.145.297 3.112.844 1.086.613 1.91 1.44 2.232 2.685.065.247 1.196 1.893 1.315 1.8.29-.232.594-.447.902-.658.857-.587 4.013-.659 4.396-.587 1.246.24 2.085 1.056 2.837 1.997.107.14.172.297.225.466.201.623.423 1.235.7 1.829.153.336.364.436.723.333.164-.05 1.837-.698 2.59-.54.501.103 1.01.182 1.518.232.552.05.939.329 1.233.77.165.246.322.5.501.74.169.222 2.067-.369 2.035-.551a9.545 9.545 0 01-.154-2.073c.014-.257.021-.533.18-.737.5-.633 1.066-1.185 1.905-1.335.543-.096 3.952-.176 6.433-.22.148.757.252 1.53.309 2.317v2.824zm-22.364.316c.458.129.92.14 1.382.018-.462-.093-.92-.136-1.382-.018zm1.898-.44c-.018-.015-.043-.022-.064-.036-.699-.415-1.422-.408-2.164-.132a.778.778 0 00-.476.461.55.55 0 00.386-.057c.735-.34 1.466-.337 2.193.025.1.05.258.125.308.025.053-.104-.086-.208-.183-.286zm.939-2.316c-.183-.741-.928-1.278-1.688-1.228-.15.01-.243.057-.207.226-.011.203.086.372.161.544.068.16-.036.408.158.486.168.068.376.04.565.05.115.004.233.008.348-.003a.887.887 0 01.48.09c.054.028.115.096.176.028.042-.054.025-.125.007-.193zm16.467 1.972c-.355-.537-1.164-1.12-1.977-.848-.316.104-.62.229-.918.376-.307.153-.365.325-.172.608.158.226.294.458.423.698.068.125.158.186.366.158.1-.033.311.032.422-.122.13-.18.312-.23.491-.243.305-.03.595-.133.888-.169.266-.032.283-.311.502-.358.043-.007-.004-.071-.025-.1zm-28.21-6.34c-.09-.214-.254-.35-.451-.472-.699-.43-1.44-.48-2.217-.279-.115.032-.13.09-.09.18.068.15.183.253.348.286.254.053.311.246.34.458.007.082.003.164-.007.247-.033.232.096.318.3.318.09.004.18-.021.27-.032.465-.06.92-.182 1.393-.172.154.004.297.097.473.036-.133-.19-.27-.365-.359-.57zm19.85 10.707c0-.157.006-.258-.004-.354-.025-.29-.126-.358-.409-.294-.064.015-.129.029-.186.061-.376.186-.752.38-1.125.573-.043.021-.1.04-.1.1.003.072.068.086.122.104.186.068.38.118.576.132.143.015.262.069.337.187.133.207.244.232.344-.022a.133.133 0 01.118-.079c.312-.017.387-.193.326-.408zm-8.107-6.34c-.183-.74-.928-1.277-1.688-1.227-.15.01-.243.058-.207.226-.011.204.086.372.161.544.068.16-.036.408.158.486.168.068.376.04.565.05.115.004.233.008.348-.003a.887.887 0 01.48.09c.054.028.115.096.176.028.042-.053.025-.125.007-.193zm-.939 2.317c-.018-.014-.043-.022-.064-.036-.699-.415-1.422-.408-2.164-.132a.778.778 0 00-.476.461.55.55 0 00.386-.057c.735-.34 1.466-.337 2.193.025.1.05.258.125.308.025.053-.104-.086-.207-.183-.286zm-1.898.44c.458.129.92.14 1.382.018-.462-.093-.92-.136-1.382-.018zM9.88 16.255c-.09-.215-.254-.35-.451-.472-.699-.43-1.44-.48-2.217-.28-.115.033-.13.09-.09.18.068.15.183.253.348.286.254.053.311.247.34.458a1.2 1.2 0 01-.007.247c-.033.232.096.318.3.318.09.004.18-.021.27-.032.465-.06.92-.182 1.393-.172.154.004.297.097.473.036-.133-.19-.27-.365-.359-.569zm28.21 6.34c-.355-.538-1.164-1.121-1.977-.85-.316.105-.62.23-.918.377-.307.154-.365.325-.172.608.158.226.294.458.423.698.068.125.158.186.366.158.1-.033.311.032.422-.122.13-.18.312-.23.491-.243.305-.03.595-.133.888-.169.266-.032.283-.311.502-.358.043-.007-.004-.071-.025-.1zm-26.157-.845c-.046.017-.097.032-.14.05-.447.193-.62.146-.913-.247-.033-.04-.058-.083-.093-.115-.37-.372-.473-.393-.925-.136a1.92 1.92 0 01-1.508.2c-.168-.046-.34-.071-.505-.125a1.977 1.977 0 00-1.382.029c-.136.05-.305.157-.405-.065-.097-.214-.025-.515.154-.619.172-.1.355-.175.527-.28.086-.05.222-.107.193-.221-.021-.093-.161-.093-.258-.104-.147-.014-.297-.021-.444-.032-.161-.01-.161-.079-.068-.183.218-.236.512-.308.81-.326.368-.024.741-.006 1.117-.039-.372-.222-.78-.225-1.186-.247-.09-.003-.218.079-.265-.09-.046-.16.097-.168.169-.232.043-.04.107-.06.136-.107.161-.272.355-.477.713-.419.057.01.097-.058.097-.122.007-.09-.05-.136-.122-.168a2.294 2.294 0 00-.781-.222c-.2-.021-.398-.04-.591-.079-.298-.053-.301-.071-.215-.354l.444-1.496a1.99 1.99 0 00.043-.194c.029-.136-.021-.2-.168-.204a3.177 3.177 0 00-.663.075c-.09.018-.169.036-.133-.11.287-1.182.907-1.8 2.11-2.112.022-.004.05.003.075.003a.287.287 0 01.197-.028c.119-.004.233-.011.352-.015h.046c.118-.018.233-.036.351 0a.583.583 0 01.326.09c.52.075 1.031.164 1.494.43.175.1.225.26.211.415-.075.826.276 1.488.77 2.108.118.146.115.34.154.515.093.437.183.874.18 1.325-.004.179-.062.311-.22.415-.178.118-.35.25-.504.397-.2.194-.208.358-.022.562.255.283.527.548.792.82.233.236.362.508.348.845-.011.204-.1.347-.298.411zm10.589.877c-.05.114-.147.15-.255.175-.193.046-.286.165-.3.369-.015.222-.05.443-.076.665-.086.677-.53 1.053-1.214 1.014-.777-.044-1.555-.097-2.332-.14a1.26 1.26 0 00-.42.021c-.375.1-.716.008-1.06-.132-.487-.194-.78-.537-.86-1.06-.053-.358-.11-.72-.096-1.084.018-.398-.075-.795-.004-1.189.019-.096.033-.196.072-.29.075-.193.176-.304.43-.221.691.225 1.386.2 2.074-.04.079.3.061.594-.007.884-.086.37.161.473.408.512.42.072.831.072 1.243-.05.187-.054.33-.315.222-.494a7.616 7.616 0 00-.54-.77c-.108-.136-.276-.103-.416-.05-.193.072-.29.004-.362-.175a1.813 1.813 0 01-.136-.598 1.606 1.606 0 00-.054-.369c-.043-.186-.161-.3-.368-.296-.216.007-.43.01-.645.014-.133 0-.276.035-.394-.004-.416-.129-.781-.057-1.147.23-.043-.201.004-.312.115-.423.426-.412.91-.773 1.218-1.3a.42.42 0 01.344-.21c.472-.04.942-.087 1.4.075.215.071.42.171.573.34.416.443.91.79 1.408 1.13.28.194.437.438.498.767.068.383.165.759.348 1.106.06.114.121.236.286.24.133.003.154.114.172.21.072.395.036.774-.125 1.143zm2.41.662c.165-.226.28-.487.466-.698.108-.118.215-.19.387-.176.677.058 1.319-.04 1.888-.444.172-.121.304-.096.44.061.097.115.22.204.326.305.308.3.656.526 1.097.587.3.04.487.21.64.472.36.598.689 1.2.768 1.926-.391-.437-.921-.623-1.423-.863-.007-.003-.014-.01-.021-.01-.487-.008-.914-.384-1.433-.2-.287.1-.591-.005-.885.014-.648.039-1.286.121-1.873.54.01-.122.014-.179.025-.236.057-.308-.029-.544-.305-.72-.286-.182-.297-.286-.096-.558zm5.718 4.81c-.15.122-.305.069-.444.004-.942-.422-1.928-.29-2.906-.236a1 1 0 00-.465.154.625.625 0 00-.269.716c.097.304.39.376.573.11.208-.31.53-.39.828-.407.343-.018.705-.068 1.05.104.16.082.372.057.558.093.104.021.222.046.186.203-.032.137-.104.197-.247.176-.394-.064-.784-.136-1.186-.111a1.58 1.58 0 00-.562.129c.527.146 1.02.104 1.501.168.394.054.777.476.756.874-.018.254-.169.379-.44.332-.502-.086-.993-.26-1.52-.207-.197.021-.394.025-.594.035a1.133 1.133 0 01-1.172-.826c-.057-.194-.207-.29-.361-.408-.61-.484-1.222-.97-1.591-1.683a.673.673 0 00-.046-.09c-.144-.282-.42-.547-.373-.87.06-.432.3-.819.545-1.184.114-.175.264-.236.45-.06.112.107.248.171.33.321.086.162.27.194.441.14.487-.147.967-.168 1.462.004.39.136.712.017.942-.337.028-.05.071-.093.11-.136.38-.397.739-.23.986.172a.61.61 0 01.064.157c.076.269.255.401.53.39.165-.007.28.065.373.197.161.24.394.416.591.623.427.437.38 1.081-.1 1.453zm8.733-2.197c-.272.369-.458.784-.673 1.184-.05.094-.093.19-.144.29-.093-.085-.086-.204-.14-.293-.11-.19-.247-.207-.386-.036-.036.043-.079.097-.086.147-.029.362-.23.702-.154 1.078.064.304-.158.48-.333.651-.144.136-.219-.114-.362-.136-.086.172-.194.326-.433.2-.086-.046-.147.026-.208.09-.147.157-.641.225-.813.1-.111-.078-.018-.193-.015-.293 0-.04.022-.09-.025-.108-.021-.01-.06.004-.09.015-.06.028-.121.157-.175.086-.079-.118-.258-.2-.225-.366.05-.24.096-.494.318-.658.047-.032.104-.061.14-.104.315-.365.62-.74 1.046-1.006-.44.058-.874.079-1.268.294-.13.068-.315.204-.401.071-.097-.154.118-.261.232-.347.283-.211.599-.35.968-.326l.347-.01c.133 0 .265-.004.394-.004h.05c.018-.068-.028-.079-.082-.093-.53-.122-1.06-.147-1.59.036-.09.032-.223.15-.287.04-.079-.133-.079-.33.057-.437.258-.197.44-.473.71-.655.128-.09.21-.24.404-.255.194-.014.358.047.53.108.23.082.455.182.695.279-.14-.33-.616-.655-.988-.705-.262-.04-.516-.104-.735.136-.054.06-.204.046-.311.05-.312.01-.627.01-.943.021-.283.007-.325-.032-.279-.311.097-.616.3-1.2.627-1.736.079-.129.046-.183-.033-.308-.19-.315-.418-.219-.673-.147-.272.079-.505.24-.741.373-.061-.08-.033-.133-.015-.187.054-.157.126-.308.161-.468.208-.967.86-1.583 1.63-2.127a1.935 1.935 0 011.182-.365c.405.004.81-.004 1.211.082.548.122.878.577.817 1.128-.025.24-.01.48.01.72.051.522.43.808.8 1.084.11.082.15.165.172.272.107.555.222 1.106.361 1.654.118.45.029.902-.254 1.292zm-3.27-4.156c-.316.104-.62.23-.918.376-.307.154-.365.326-.172.608.158.226.294.458.423.698.068.126.158.186.366.158.1-.032.311.032.422-.122.13-.179.312-.23.491-.243.305-.029.595-.133.888-.169.266-.032.283-.311.502-.358.043-.007-.004-.071-.025-.1-.355-.537-1.164-1.12-1.977-.848zm-6.387 4.861c-.025-.29-.126-.358-.409-.293-.064.014-.129.028-.186.06-.376.187-.752.38-1.125.573-.043.022-.1.04-.1.1.003.072.068.086.122.104.186.068.38.118.576.133.143.014.262.068.337.186.133.207.244.232.344-.022a.134.134 0 01.118-.079c.312-.017.387-.193.326-.407 0-.158.007-.258-.003-.355zm-9.79-7.213c-.151.011-.244.058-.208.226-.011.204.086.372.161.544.068.16-.036.408.158.487.168.067.376.04.565.05.115.003.233.007.348-.004a.886.886 0 01.48.09c.054.028.115.096.176.028.042-.053.025-.125.007-.193-.183-.741-.928-1.278-1.688-1.228zm.748 3.544c-.018-.014-.043-.021-.064-.036-.699-.415-1.422-.408-2.164-.132a.778.778 0 00-.476.462.55.55 0 00.386-.058c.735-.34 1.466-.336 2.193.025.1.05.258.125.308.025.053-.104-.086-.207-.183-.286zm-1.898.44c.458.13.92.14 1.382.018-.462-.093-.92-.136-1.382-.018zm-9.357-7.595c-.699-.43-1.44-.48-2.217-.28-.115.033-.13.09-.09.18.068.15.183.253.348.286.254.053.311.247.34.458a1.2 1.2 0 01-.007.247c-.033.232.096.318.3.318.09.004.18-.021.27-.032.465-.06.92-.182 1.393-.172.154.004.297.097.473.036-.133-.19-.27-.365-.359-.569-.09-.215-.254-.35-.451-.472z" fill="#4C2260"/></svg>