<svg width="44" height="64" fill="none" xmlns="http://www.w3.org/2000/svg"><path d="M43.535 21.65c0 11.957-13.905 41.36-21.666 41.36C14.43 63.01.203 33.608.203 21.65S9.903 0 21.87 0c11.966 0 21.666 9.693 21.666 21.65z" fill="#D70000"/><path d="M21.87 41.644c-11.033 0-20.009-8.97-20.009-19.994 0-11.025 8.976-19.994 20.009-19.994s20.008 8.969 20.008 19.994-8.975 19.994-20.008 19.994z" fill="#fff"/><path d="M21.87 2.262c10.715 0 19.402 8.68 19.402 19.388 0 10.707-8.687 19.388-19.402 19.388-10.716 0-19.403-8.68-19.403-19.388 0-10.708 8.687-19.388 19.402-19.388zm0-1.213c-11.368 0-20.616 9.242-20.616 20.6 0 11.36 9.248 20.601 20.615 20.601 11.368 0 20.616-9.241 20.616-20.6 0-11.36-9.248-20.6-20.616-20.6z" fill="#A00"/><path d="M41.293 21.786c0 10.708-8.687 19.388-19.402 19.388-10.716 0-19.403-8.68-19.403-19.388 0-10.707 8.687-19.388 19.403-19.388 10.715 0 19.402 8.68 19.402 19.388z" fill="#FBCA00"/><path d="M8.286 10.084c-.084-.431-.513-.896-.85-1.229.142-.158.286-.315.433-.468l.096.081c.256.217.53.465.574.797-.075-.57-.002-1.13.143-1.678a19.49 19.49 0 013.03-2.308 4.76 4.76 0 01-.104.268c-.124.29-.277.59-.232.902.056.392.426.642.69.9a2.409 2.409 0 001.288-1.86c.04-.363-.006-.726-.054-1.09.091-.045.182-.09.273-.133.021.464.136.924.348 1.338l1.918-1.573-1.94 2.299c-.405.481-.811.963-1.213 1.447.412.399.639.688.529 1.304-.093.52-.61.762-.714 1.236-.045.202.105.419-.001.6-.072.123-.424.027-.362.257.044.162.18.075.265.05.097-.027.18-.104.27-.156.365-.212.732-.422 1.187-.684-.13.398-.323.564-.567.692-.1.052-.161.148-.123.269.045.145.163.194.297.16.242-.06.48-.141.72-.21.087-.023.196-.05.243.045.07.143-.07.175-.158.219-.08.04-.17.057-.253.087-.507.185-1.04.23-1.57.29-.151.016-.29.04-.331.21-.02.08.034.162.11.14.327-.096.645.27.974.008.08-.065.195-.122.29-.024.097.1.081.231.043.354-.039.128-.146.142-.258.142-.195 0-.391-.006-.586-.001-.189.005-.367.05-.428.256-.055.187.136.222.228.32.109.116.25.228.301.369.188.52.545.47.957.337.526-.17 1.05-.289 1.623-.27.444.013 1.009.058 1.152-.612.05-.236.263-.116.409-.11.36.011.063.301.182.463.42-.382.952-.183 1.395-.353.134.198-.253.263-.053.44.088.078.252.143.096.284-.117.107-.265.058-.406.01-.597-.2-.772-.105-.986.56a9.019 9.019 0 011.708-.206c.123-.005.284-.003.3.156.018.167-.139.172-.263.197-.125.025-.293-.054-.361.127.183.275.612.164.783.48-.319.208-.6-.106-.856-.003-.423.169.032.482-.07.801A10.548 10.548 0 0016.818 15c-.602-.313-1.196-.15-1.711-.1-1.432.137-1.423.229-1.564.502.33.342.836-.093 1.097.188.306.33.633.36 1.017.47.566.16 1.043.058 1.548-.117.183-.063.39-.226.556-.08.436.381.965.278 1.433.242.847-.067 1.733.069 2.536-.256.932-.377 1.908-.605 2.86-.905 1.39-.44 2.859-.63 4.254-1.058.839-.257 1.623-.37 2.46-.123.097.029.214.004.318-.016 1.418-.258 2.885-.05 4.288-.458a.984.984 0 01.48-.006c.737.174 1.429-.164 2.15-.204.22-.012.44-.03.664-.05.06.118.119.236.176.354-.07.035-.13.056-.133.008-.029-.447-.308-.173-.43-.145-.247.057-.49.06-.738.08-.656.051-1.29.385-1.972.138-.063-.023-.162.073-.248.084-.563.072-1.1.344-1.686.24-.448-.079-.883-.034-1.33.043-.662.112-1.316.237-2.008.051-.638-.172-1.298-.194-1.852.354-.234.232-.597.239-.949.259-.485.028-.967.023-1.466.155-.986.262-1.958.567-2.938.847-.628.18-1.301.235-1.865.633-.18.127-.487.264-.648.194-.703-.306-1.198.387-1.862.21.75 1.163 1.573.468 2.383.191.016.238-.277.23-.236.424.284.265.412-.189.645-.142.502.102.96-.128 1.437-.173.5-.047 1.04-.415 1.44-.222.597.29 1.175-.022 1.762.178.373.127.868-.067 1.307-.108.374-.035.807 0 1.157-.411.28-.33.834-.425 1.266-.624l.046.098-.834.566c.61.384 1.214.059 1.791.081.299.012.639.054.973.01.588-.078 1.082-.528 1.698-.397.295.062.629.422.79-.159.001-.006.066-.008.09.007.608.368 1.197.27 1.779-.065.01-.006 1.718-.497 1.725-.497.528.034 1.043-.42 1.625.085-.043-.254-.083-.403-.093-.542a19.325 19.325 0 011.287 6.953c0 1.487-.168 2.935-.486 4.326a.81.81 0 00-.156.117c-.09.082-.128.222-.273.242l-.41-1.167c-.065.688-.058.672-.581.465-.608-.24-1.197-.616-1.807-.736-1.495-.295-3.032-.118-4.553-.125-.114 0-.311.015-.215.196.126.237.08.44.012.668-.044.144.04.24.186.271.128.028.248-.043.242-.148-.032-.552.346-.317.621-.307-.012.057-.09.063-.101.093-.14.39.073.752.129 1.124.037.253.375.031.51.13.51.378.698.07.882-.35.1-.227.256-.205.308.032.077.35.336.386.609.401.267.015.537.007.805.007h3.051c-.19.181-.342.131-.478.132-.913.001-1.826-.007-2.739-.006-.158 0-.356-.002-.355.226 0 .2.169.256.34.271.142.013.286.009.428.021.573.05 1.154-.066 1.725.105l-.656.061.004.1h1.908c-.667-.027-1.315.267-1.975.132a3.748 3.748 0 00-1.388-.038c-.433.075-.963.032-1.15.654-.087.29-.27.041-.388-.08-.664-.687-1.29-.623-1.765.181-.046.077-.077.168-.185.164-.09-.003-.103-.084-.127-.151-.066-.189.036-.518-.238-.528-.236-.008-.184.348-.325.504-.035.038-.051.094-.072.143-.038.085-.089.173-.192.135-.053-.019-.094-.099-.12-.16-.09-.216.087-.62-.218-.637-.324-.018-.15.41-.275.61-.065.105-.101.252-.254.238-.16-.014-.166-.17-.186-.288-.029-.16-.036-.324-.058-.548-.197.293.053.713-.254.78-.33.07-.253-.406-.452-.568-.198.27-.018.676-.331.949-.19-.288-.086-.66-.34-.892-.188.185-.012.603-.27.6-.335-.006-.139-.416-.263-.615-.037-.059-.043-.136-.072-.202-.053-.12-.123-.157-.248-.07-.276.193-.32.614-.05.802.358.249.555.6.713.984.286.7.68.942 1.43.895 1.769-.112 3.537-.044 5.305.02.677.023 1.351-.022 2.015-.199-.268-.07-.532-.06-.796-.073-.31-.016-.656.099-.905-.203.71-.211 1.44-.232 2.173-.228a.48.48 0 00.26-.054 2.15 2.15 0 01.192-.116 19.458 19.458 0 01-4.912 6.426c-.645-.02-1.306-.07-1.498.873.112.068.252-.109.374-.043.016.009.04.014.067.015a19.363 19.363 0 01-5.126 2.73c-.14-.004-.316.023-.303.102v.001a19.7 19.7 0 01-.478.153c-.387-.207-.811-.182-1.219-.194-.27-.008-.512-.023-.747-.16-.333-.195-.65-.13-.998.015-.313.13-.817.364-.982.156-.284-.36-.49-.207-.781-.059.025-.167.061-.273.052-.374-.017-.191-.152-.281-.332-.28-.173 0-.373-.053-.502.113-.139.178.057.259.109.39.08.203.234.471.095.675-.132.194-.386.201-.637.139-.308-.077-.633-.073-.944-.108-.342-.038-.784.116-1.052-.351-.11-.193-.547-.293-.73-.096-.34.366-.549.079-.709-.105-.095-.108-.172-.181-.28-.156-.515.124-1.125-.181-1.559.357a.2.2 0 01-.07.053 18.593 18.593 0 01-.56-.178.714.714 0 01.072-.16c.037-.064.092-.1.174-.05.055.033-.013.303.154.099.085-.104-.025-.188-.153-.202a1.076 1.076 0 00-.526.072 2.02 2.02 0 01-.212.07 19.368 19.368 0 01-5.23-2.9.288.288 0 00-.183-.144 19.176 19.176 0 01-.437-.358.934.934 0 00.05-.128c.033-.124.214-.277.002-.352-.194-.068-.181.162-.239.28a.333.333 0 00-.012.03 19.352 19.352 0 01-6.483-11.852.625.625 0 00-.019-.315c-.067-.253.023-.366.21-.476.147-.086.287-.183.51-.326-.309-.034-.581-.065-.831-.026a19.412 19.412 0 01.179-4.754c.476-.017.949-.252.894-.498-.091-.409-.4-.44-.716-.453.17-.795.387-1.572.651-2.327.152.004.327-.064.482-.084.228-.027.463-.005.695-.005.178 0 .36.023.535-.005.278-.045.665-.039.796-.213.14-.185-.16-.459-.311-.67a.76.76 0 01-.151-.394c-.017-.208-.14-.342-.335-.36-.326-.033-.653-.067-.978-.07.15-.32.307-.636.473-.946a.344.344 0 00.246-.106c.097-.108.05-.218-.009-.324.209-.367.43-.726.66-1.077l.044-.013c.24-.075.285-.284.306-.501.068-.096.136-.19.205-.284a.231.231 0 01.068.06c.081.117.032.245-.012.36-.095.249-.076.48.171.605.426.215.837-.053 1.232-.142.123-.028-.121-.382-.083-.509.017-.056.676.004.698-.461a.737.737 0 00-.014-.177zM24.909 40.94a19.48 19.48 0 01-1.978.206 7.604 7.604 0 01-.433-.054c.21-.319.554-.308.737-.523.174.37.642-.108.818.285.047.105.174.058.23-.001.4-.421.93-.419 1.451-.492-.126.66-.582.477-1.013.416.07.048.132.104.188.163zm14.929-26.53c.034.082.068.164.1.247-.068-.077-.157-.148-.1-.247zM20.693 34.878c-.223-.002-.404-.058-.355-.337.055-.315-.21-.22-.346-.267-.221-.076-.284.1-.307.264-.023.174.01.358-.021.53-.034.185-.141.352-.365.3-.163-.037-.33-.064-.195-.356.106-.228-.315-.56-.407-.403-.296.502-.845.248-1.225.471-.132.078-.38-.014-.298.304.071.274.228.348.46.28.47-.138.923.082 1.231.29.298.202.51.268.8.163.205-.074.312-.05.33.174.02.256.226.427.273.686.075.41.363.473.648.159.175-.192.333-.378.61-.38.62-.004.896-.29.775-.917.264-.154.565-.267.573-.66 0-.044.33.048.361-.12.054-.29-.202-.065-.286-.134-.07-.057-.027-.134.02-.188.19-.215.367-.125.479.065.132.226.287.403.658.441-.318.187-.29.683-.596.556-.317-.133-.312-.009-.419.187-.098.18-.215.377-.434.457-.087.032-.181.074-.118.187.047.085.145.113.234.077.13-.052.293-.078.356-.22.265-.588.813-.433 1.273-.472.112-.01.525-.06.238.32-.055.074-.028.179.06.236.09.058.164.01.243-.042.582-.393.822-.37 1.275.113.126.135.29.264.462.212.207-.064-.001-.198-.004-.303 0-.037.043-.089.08-.113a1.918 1.918 0 012.207.045c.305.22.587.202.9.046.461-.229.959-.256 1.46-.22.173.013.35.097.47-.158-.438-.166-.886-.084-1.319-.132-.106-.012-.24.002-.275-.12-.042-.145.16-.137.181-.187.124-.306.468-.18.634-.35.203-.208.345-.52.707-.289.239.153.557.236.538.69.435-.545 1.104-.737 1.213-1.425.014-.087.178-.175.042-.26-.161-.101-.225.046-.249.171-.107.561-.577.44-.884.373-.185-.04-.408-.232-.62-.316.028-.266.308-.056.353-.2-.288-.57-.538-.524-.754.015a.268.268 0 01-.095.127c-.224.136-.478.199-.714.082-.226-.112-.033-.267.012-.407.034-.106.02-.256-.083-.284a.303.303 0 00-.364.212c-.098.457-.457.53-.843.616.388.122.338.842.966.563-.131.517-.472.562-.845.527-.123-.012-.25-.044-.171-.241.18-.45-.41-.675-.343-1.1.002-.013-.055-.035-.085-.053-.025.333-.82-.025-.549.623.054.13.117.488-.191.598-.196.07-.474.242-.598.055-.264-.4-.528-.235-.802-.087-.142.076-.265.08-.304-.063-.072-.271-.298-.275-.491-.338-.26-.084-.434-.324-.348-.515.078-.177.395-.166.61-.082.086.034.128.2.255.133.075-.04.414.023.133-.232.256.044-.069-.579.305-.306.757.553 1.304.126 1.905-.274-.185-.227-.382-.177-.565-.106-.571.22-1.12.284-1.665-.094-.147-.103-.429-.225-.329.215.032.14-.21.35-.32.195-.176-.243-.315-.104-.483-.074-.206.037-.402-.051-.419-.24-.043-.494-.287-.278-.493-.161-.15.084-.278.205-.414.308.083.177.477.11.314.411-.092.17-.193.406-.486.315a1.223 1.223 0 00-.365-.059c-.152.001-.345.13-.435-.056-.085-.177.289-.141.229-.358-.198-.05-.372-.002-.561.074-.281.114-.355-.135-.455-.32-.004-.008-.151.025-.173.069-.208.42-.538.388-.91.278-.286-.085-.514.2-.407.322.237.271-.063.33-.09.484zm1.186-7.303c-.256.1-.525.104-.793.105-1.378.005-2.756.007-4.134.014-.249 0-.54-.039-.668.233s-.33.452-.546.643c-.173.154-.341.401-.146.6.186.19.488-.083.758.065.146.08.14-.192.207-.305.064-.11.079-.426.288-.202.183.195.5.303.513.65.007.21.17.314.365.325.588.036 1.183.123 1.765.073.948-.081 1.895-.027 2.842-.06.218-.007.42.015.485.324-.496-.113-.953.348-1.37.155-.802-.372-1.32-.057-1.851.56.495.016.936.108 1.387-.08.207-.087.502-.177.676-.094.914.433 1.865.122 2.794.192.19.015.41-.035.296-.35-.055-.155-.126-.384.169-.402.214-.014.433-.023.425.323-.003.096-.155.312.123.382.319.08.522.13.594-.319.119-.738-.045-1.706 1.208-1.688.281.004.134-.263.013-.394-.256-.279-.627-.183-1.025-.259.143-.042.231-.095.264-.071.05.035.085-.082.086-.082-.49.004-.918-.065-1.33.09-.4.148-.814.097-1.222.111-.41.015-.82.004-1.229.004.224-.177.51-.043.723-.31-.551-.259-1.164.061-1.676-.238.8.023 1.593-.153 2.403 0 .465.088.963.009 1.446-.003.163-.003.355-.022.352-.239-.002-.194-.171-.261-.342-.271a15.38 15.38 0 00-.804-.021c-1.967-.02-3.934-.036-5.901-.056-.768-.008-1.537-.026-2.305-.03-.132 0-.32-.013-.311.199a.286.286 0 00.275.281c.196.017.393.016.59.02 1.536.03 3.076-.13 4.606.125zm11.237-4.676c-.157.046-.17.511-.406.104-.084-.145-.14-.066-.227.033-.288.324-.6.204-.823-.06-.209-.247-.348-.362-.549-.02-.059.1-.22.185-.248.07-.173-.715-.647-.526-1.111-.411a.188.188 0 01-.151-.042c-.328-.327-.566-.36-1.101-.2-.94.279-1.991.1-2.995-.097h1.322c-.27-.254-.492-.245-.696-.192-.646.17-1.257-.203-1.898-.101-.19.03-.278-.14-.35-.286-.302-.619-.846.614-1.142-.146-.012-.032-.14.076-.182.157-.016.032-.028.066-.043.098-.11.226-.208.464-.48.133-.083-.1-.205-.056-.283.026-.042.045-.077.135-.061.189.035.122.158.132.265.134.3.005.6.002.9.002l-.017.15c-.683-.227-1.54.429-2.088-.5-.038-.066-.152-.088-.23-.13-.241-.131-.343.074-.42.214-.116.207.056.221.211.24.413.046.44.24.194.532-.056.066-.148.151-.14.215.074.509-.212.628-.634.62-.093-.002-.182.036-.204.137-.022.103.044.177.13.212.406.167.345.568.277.824-.06.224-.413.179-.672.15-.175-.02-.428-.043-.476.22-.142.769-.665 1.09-1.382.811-.218-.085-.4-.089-.606.033-.349.207.294.567-.128.75.155.017.31.05.465.05 2.63.018 5.261-.063 7.89.084.098.005.224.027.25-.127-.51-.218-.703-.618-.4-.707.338-.1.502-.42.831-.481.373-.069.573-.35.895-.704h-1.837c.252-.101.501-.107.75-.1.81.023 1.61.042 2.218-.657.19-.218.475-.256.714-.016.17.17.388.201.597.18.782-.08.78-.088 1.18.339.087-.111.027-.242.05-.358.03-.164.006-.426.247-.405.232.02.33.234.337.474.004.137-.237.312.025.405.183.066.39.05.566-.073.108-.074.2-.296.345-.163.481.446 1.057.24 1.59.255.965.025 1.932.003 2.897-.027.388-.012.709-.417 1.179-.14.191.114.177-.238.226-.386.056-.167.114-.37-.125-.453-.178-.062-.245.076-.308.217-.156.349-.363.354-.608.08-.065-.073-.112-.199-.273-.122.069.231.053.386-.272.319-.493-.102-.914-.403-1.448-.425-.313-.013-.707.253-.973-.142a.126.126 0 00-.046.024c-.494.471-.422-.01-.466-.28-.025-.158-.032-.32-.052-.53zm-5.44 6.096c-.01.03-.02.059-.028.088.145.063.29.126.437.188.07.03.13.072.105.156-.022.076-.103.13-.164.086-.3-.211-.213.043-.273.191-.093.231-.006.3.196.313.361.023.355.153.127.377-.681.668-.702.772-.165 1.451.074.094.19.439.479.155.11-.107.345.037.314.164-.073.303.751.483.103.83.226.06.423.175.615.306.155.106.258-.008.368-.108.537-.49.634-1.433.105-2.105-.23-.29-.091-.833-.622-.905-.017-.002-.042-.103-.028-.148.174-.567-.259-.732-.63-.876-.29-.113-.625-.113-.94-.163zm9.106 2.139c-2.085 0-4.133 0-6.182.002-.102 0-.243-.015-.257.125-.01.111.082.205.193.23.138.032.281.042.424.052 1.515.11 3.032.109 4.55.103.485-.001.912-.08 1.272-.512zm-18.3.715c.008.36.146.677-.098.77-.38.146-.569.515-.934.668-.15.063-.405.186-.288.434.084.178.256.297.49.218.102-.035.235-.06.305.031.341.442.696.112 1.055.043.656-.126.325-.608.32-.928-.009-.525-.339-.885-.85-1.236zm-3.348 5.322c.27.206.408.174.554-.157.297-.675.451-.678.85-.125.08.111.21.372.339.12.222-.439.614-.401.978-.454.152-.022.3-.017.316-.203.018-.214-.21-.09-.266-.164-.166-.217-.335-.131-.552-.106-.281.032-.61.077-.867-.117-.515-.39-1.03-.31-1.56-.044-.09.046-.158.08-.13.189.036.137.118.063.204.056.225-.019.386.115.525.278-.232.19.127.686-.39.727zM5.77 17.71c-.208 0-.265-.013-.314.002-.215.062-.594-.153-.617.199-.02.318.337.417.62.486.085.02.184-.007.265.021.586.2 1.179-.078 1.767.031.106.02.394-.073.314-.129-.245-.17.236-.74-.349-.628-.617.119-1.226.134-1.686.018zm15.72 13.386c.23.056.186.423.499.422 1.258-.006 2.517-.002 3.775-.002-.251-.124-.545.012-.836-.15.32-.258.652-.018.934-.15-1.44-.226-2.891-.084-4.371-.12zm3.54.921c-.365.022-.646-.27-1.01-.238-1.05.094-2.09-.161-3.138-.07-.137.012-.3-.062-.386.098-.057.106.002.213.085.285.155.135.296.072.424-.05.199-.19.408-.226.608-.016.174.183.393.157.601.146.605-.032 1.208-.056 1.814.01.333.037.675.005 1.001-.165zM6.676 15.962c-.03.214-.031.441-.28.185-.108-.113-.126-.38-.283-.358-.505.069-.992-.133-1.568-.115.409.421.94.47 1.29.78.413.366.78.354 1.226.072l-.385-.564zm13.038 14.305c.004-.143-.081-.199-.197-.211-.455-.049-.909-.107-1.365-.133-.199-.01-.455-.04-.487.273-.032.303.172.455.409.547.254.1.476-.004.685-.17.185-.148.362-.35.651-.137.151.112.258-.021.304-.169zm18.05 1.856l-.02-.141c-.062-.02-.124-.04-.188-.056-.394-.092-.792.125-1.145.062-.32-.058-.486.078-.721.169-.263.1-.025.21-.041.31-.031.187.038.206.203.19.674-.066 1.284-.325 1.911-.534zm-.956-1.649c-.155-.242-.382-.397-.661-.4-1.615-.01-3.23-.005-4.796-.005 1.762.53 3.617.372 5.46.4l-.003.005zm-15.146 4.481c-.115-.424-.322-.274-.532-.24-.153.023-.296.103-.443.158.037.154.14.33.097.457-.141.419.091.464.398.652.48.294.805.406 1.122-.14-.078-.406-.559-.578-.642-.887z" fill="#4C2260"/></svg>