<svg width="609" height="637" viewBox="0 0 609 637" fill="none" xmlns="http://www.w3.org/2000/svg">
<g opacity="0.2">
<rect x="239.799" y="309.037" width="290.671" height="28.8335" rx="14.4168" transform="rotate(-43.6404 239.799 309.037)" fill="#6672FB" fill-opacity="0.5"/>
<rect y="535.55" width="290.671" height="28.8335" rx="14.4168" transform="rotate(-43.6404 0 535.55)" fill="#6672FB" fill-opacity="0.5"/>
<rect x="366.746" y="269.45" width="290.671" height="28.8335" rx="14.4168" transform="rotate(-43.6404 366.746 269.45)" fill="#6672FB" fill-opacity="0.5"/>
<rect x="67.2773" y="615.804" width="290.671" height="28.8335" rx="14.4168" transform="rotate(-43.6404 67.2773 615.804)" fill="#6672FB" fill-opacity="0.5"/>
<rect x="277.836" y="200.601" width="290.671" height="16.1315" rx="8.06574" transform="rotate(-43.6404 277.836 200.601)" fill="#6672FB" fill-opacity="0.5"/>
<rect x="42.2891" y="424.061" width="290.671" height="16.1315" rx="8.06574" transform="rotate(-43.6404 42.2891 424.061)" fill="#6672FB" fill-opacity="0.5"/>
<circle cx="367" cy="341.816" r="41" fill="#6672FB" fill-opacity="0.5"/>
<ellipse cx="324" cy="366.316" rx="31" ry="31.5" fill="#A5ABEF" fill-opacity="0.5"/>
<ellipse cx="246.5" cy="431.816" rx="31.5" ry="31" fill="#A5ABEF" fill-opacity="0.5"/>
<ellipse cx="31" cy="507.316" rx="31" ry="31.5" fill="#A5ABEF" fill-opacity="0.5"/>
</g>
</svg>
