<svg width="68" height="82" viewBox="0 0 68 82" fill="none" xmlns="http://www.w3.org/2000/svg">
<path d="M34.2321 80.9982C34.083 81.0481 33.917 81.0481 33.7679 80.9982C21.4955 76.8705 13.8043 67.6233 7.24923 58.2366C0.652611 48.7913 0.18166 39.9908 0.0560232 33.565C-0.070029 27.1255 0.0560232 7.80077 0.0560232 7.80077L12.5824 5.08723V9.52795L26.2316 6.49704V2.09138L33.8458 0.258957L41.6705 1.98531V6.39097L55.3199 9.57222V5.07804L67.9442 7.80077C67.9442 7.80077 68.0698 27.1255 67.9442 33.565C67.8178 39.9908 67.3472 48.7913 60.7511 58.2366C54.1957 67.6233 46.5045 76.8705 34.2321 80.9982Z" fill="#6672FB"/>
<path d="M7.75586 40.3882C7.75586 40.3882 11.7713 63.6508 33.8699 74.0452C33.8699 58.2183 33.8699 40.3882 33.8699 40.3882H7.75586Z" fill="white"/>
<path d="M33.8711 10.8736V40.3882H59.6188C59.6188 40.3882 61.0194 34.481 61.0194 27.5104C61.0194 20.5386 61.0194 17.1317 61.0194 17.1317L33.8711 10.8736Z" fill="white"/>
</svg>
