<svg width="264" height="48" viewBox="0 0 264 48" fill="none" xmlns="http://www.w3.org/2000/svg">
<path fill-rule="evenodd" clip-rule="evenodd" d="M31.5167 20.5076L26.673 0H18.1964L27.4436 31.6834C27.7738 32.6147 27.4803 33.0803 26.5629 33.0803H21.1687L22.5448 40.624H28.8196C29.8104 40.624 30.6361 40.5122 31.2966 40.2887C31.9938 40.0652 32.5626 39.7485 33.0029 39.3388C33.4432 38.8917 33.7919 38.3702 34.0487 37.7742C34.3056 37.1781 34.5258 36.4889 34.7092 35.7066L43.2409 0H35.2597L31.5167 20.5076ZM36.4805 1.4901L32.96 20.779L30.0894 20.855L25.5155 1.4901H20.1622L28.8401 31.2228C29.0379 31.7987 29.2258 32.712 28.7074 33.5343C28.1457 34.4253 27.1746 34.5704 26.5629 34.5704H22.9333L23.7657 39.1339H28.8196C29.7137 39.1339 30.3702 39.0315 30.8324 38.8751L30.8435 38.8713L30.8546 38.8678C31.3765 38.7005 31.7381 38.487 31.9886 38.2609C32.2848 37.9545 32.5231 37.5967 32.704 37.1769C32.9187 36.6786 33.1136 36.0767 33.2813 35.3615L33.2828 35.3554L41.3745 1.4901H36.4805ZM2.36951 38.184C2.87085 38.6837 3.96798 39.1339 6.10975 39.1339H13.9247L14.7904 34.5704H8.91694C8.42312 34.5704 7.79091 34.4303 7.30467 33.8987C6.83748 33.3879 6.73357 32.7622 6.73357 32.298V8.32596C6.73357 7.8618 6.83748 7.23606 7.30467 6.72529C7.79091 6.19369 8.42312 6.05355 8.91694 6.05355H14.8033L13.9709 1.4901H4.84377C3.82433 1.4901 3.02462 1.79876 2.35973 2.39134C1.82617 2.89525 1.46781 3.67821 1.46781 4.97323V34.4773C1.46781 36.5726 1.89106 37.6688 2.36951 38.184ZM1.32103 39.227C0.440343 38.2957 0 36.7125 0 34.4773V4.97323C0 3.37136 0.45869 2.14203 1.37607 1.28522C2.33015 0.428405 3.48605 0 4.84377 0H15.1918L16.5679 7.54366H8.91694C8.4399 7.54366 8.20138 7.80443 8.20138 8.32596V32.298C8.20138 32.8196 8.4399 33.0803 8.91694 33.0803H16.5679L15.1368 40.624H6.10975C3.83465 40.624 2.23841 40.1583 1.32103 39.227ZM63.3467 34.5704H54.0684L54.4432 32.7719C54.8374 30.8799 55.161 28.8921 55.4131 26.8079C55.6667 24.7117 55.866 22.5966 56.011 20.4627C56.1567 18.2815 56.2659 16.1003 56.3388 13.9193C56.4122 11.7205 56.4856 9.57757 56.559 7.49047L56.6096 6.05355H63.3467V34.5704ZM57.4755 20.5634C57.3287 22.7241 57.1269 24.8661 56.87 26.9895C56.6782 28.575 56.4455 30.1086 56.1718 31.5902C56.079 32.0929 55.9815 32.5896 55.8792 33.0803H61.8789V7.54366H58.0259C57.9525 9.6298 57.8791 11.7718 57.8057 13.9697C57.7323 16.1676 57.6222 18.3655 57.4755 20.5634ZM52.3014 40.624H64.7962V48L72.2269 46.603V33.0803H70.0252V0H50.2648C50.2648 4.20955 50.1364 8.25146 49.8795 12.1257C49.6227 16 49.3108 19.4645 48.9438 22.5192C48.6136 25.5367 48.265 27.9953 47.898 29.8952C47.5311 31.7951 47.2375 32.8568 47.0173 33.0803H44.8707V48L52.3014 46.603V40.624ZM50.8336 45.3635V39.1339H66.264V46.2086L70.7591 45.3635V34.5704H68.5574V1.4901H51.7273C51.7004 5.19708 51.5728 8.77573 51.344 12.2258C51.086 16.1171 50.7722 19.6066 50.4018 22.6919C50.0695 25.7265 49.7159 28.2274 49.3384 30.1819C49.1521 31.1465 48.9782 31.9319 48.8158 32.5191C48.7352 32.8108 48.6494 33.0829 48.5563 33.3158C48.4856 33.4928 48.3358 33.8491 48.0552 34.134L47.6253 34.5704H46.3385V46.2086L50.8336 45.3635Z" fill="#6672FB"/>
<mask id="path-2-inside-1" fill="white">
<path d="M83.7391 17.4901H84.84L89.9589 1.17346C90.2158 0.391153 90.8029 0 91.7203 0H97.6099L98.986 7.54366H96.1788C95.8852 7.54366 95.7017 7.67404 95.6284 7.93481L92.4359 18.7194L98.7108 40.624H89.8489L85.3904 23.7486H83.7391V40.624H75.5928V0H83.7391V17.4901Z"/>
<path d="M109.931 7.09663C109.454 7.09663 109.215 7.3574 109.215 7.87893V32.6892C109.215 32.9872 109.252 33.2107 109.325 33.3597C109.435 33.4715 109.656 33.5274 109.986 33.5274H113.013C113.344 33.5274 113.545 33.4715 113.619 33.3597C113.729 33.2107 113.784 32.9872 113.784 32.6892V7.87893C113.784 7.3574 113.545 7.09663 113.068 7.09663H109.931ZM121.875 34.8685C121.875 35.6508 121.783 36.3958 121.6 37.1036C121.453 37.7742 121.16 38.3702 120.719 38.8917C120.279 39.4133 119.692 39.8417 118.958 40.177C118.224 40.475 117.307 40.624 116.206 40.624H106.848C105.748 40.624 104.83 40.475 104.096 40.177C103.362 39.8417 102.775 39.4133 102.335 38.8917C101.895 38.3702 101.583 37.7742 101.399 37.1036C101.252 36.3958 101.179 35.6508 101.179 34.8685V5.25262C101.179 3.65076 101.601 2.38417 102.445 1.45285C103.289 0.484285 104.647 0 106.518 0H116.536C118.407 0 119.765 0.484285 120.609 1.45285C121.453 2.38417 121.875 3.65076 121.875 5.25262V34.8685Z"/>
<path d="M145.794 40.624H137.648V24.4191H133.299V40.624H125.153V0H133.299V17.4342H137.648V0H145.794V40.624Z"/>
<path d="M164.815 0L166.797 7.54366H161.457V40.624H153.311V7.54366H147.972L150.064 0H164.815Z"/>
<path d="M176.941 7.09663V23.1339H180.904C181.235 23.1339 181.436 23.078 181.51 22.9662C181.62 22.8172 181.675 22.5937 181.675 22.2957V7.87893C181.675 7.3574 181.436 7.09663 180.959 7.09663H176.941ZM189.436 24.5867C189.436 26.1886 188.996 27.4738 188.115 28.4424C187.271 29.3737 185.913 29.8394 184.042 29.8394H176.941V40.624H169.015V0H184.042C185.913 0 187.271 0.465658 188.115 1.39698C188.996 2.32829 189.436 3.59488 189.436 5.19674V24.5867Z"/>
<path d="M201.311 7.09663C200.834 7.09663 200.595 7.3574 200.595 7.87893V32.6892C200.595 32.9872 200.632 33.2107 200.705 33.3597C200.815 33.4715 201.035 33.5274 201.366 33.5274H204.393C204.723 33.5274 204.925 33.4715 204.998 33.3597C205.108 33.2107 205.164 32.9872 205.164 32.6892V7.87893C205.164 7.3574 204.925 7.09663 204.448 7.09663H201.311ZM213.255 34.8685C213.255 35.6508 213.163 36.3958 212.98 37.1036C212.833 37.7742 212.539 38.3702 212.099 38.8917C211.659 39.4133 211.071 39.8417 210.338 40.177C209.604 40.475 208.686 40.624 207.585 40.624H198.228C197.127 40.624 196.21 40.475 195.476 40.177C194.742 39.8417 194.155 39.4133 193.715 38.8917C193.274 38.3702 192.962 37.7742 192.779 37.1036C192.632 36.3958 192.559 35.6508 192.559 34.8685V5.25262C192.559 3.65076 192.981 2.38417 193.825 1.45285C194.669 0.484285 196.026 0 197.898 0H207.916C209.787 0 211.145 0.484285 211.989 1.45285C212.833 2.38417 213.255 3.65076 213.255 5.25262V34.8685Z"/>
<path d="M239.871 40.624H231.724V7.54366H227.376V40.624H216.808L215.432 33.0803H219.23V0H239.871V40.624Z"/>
<path d="M251.34 15.8137H258.606C260.477 15.8137 261.835 16.298 262.679 17.2666C263.56 18.1979 264 19.4645 264 21.0664V35.4272C264 37.0291 263.56 38.2957 262.679 39.227C261.835 40.1583 260.477 40.624 258.606 40.624H243.194V0H251.34V15.8137ZM255.468 33.5274C255.945 33.5274 256.184 33.2666 256.184 32.7451V23.3574C256.184 23.0594 256.129 22.8545 256.019 22.7427C255.945 22.5937 255.744 22.5192 255.413 22.5192H251.34V33.5274H255.468Z"/>
</mask>
<path d="M83.7391 17.4901H84.84L89.9589 1.17346C90.2158 0.391153 90.8029 0 91.7203 0H97.6099L98.986 7.54366H96.1788C95.8852 7.54366 95.7017 7.67404 95.6284 7.93481L92.4359 18.7194L98.7108 40.624H89.8489L85.3904 23.7486H83.7391V40.624H75.5928V0H83.7391V17.4901Z" fill="#6672FB"/>
<path d="M109.931 7.09663C109.454 7.09663 109.215 7.3574 109.215 7.87893V32.6892C109.215 32.9872 109.252 33.2107 109.325 33.3597C109.435 33.4715 109.656 33.5274 109.986 33.5274H113.013C113.344 33.5274 113.545 33.4715 113.619 33.3597C113.729 33.2107 113.784 32.9872 113.784 32.6892V7.87893C113.784 7.3574 113.545 7.09663 113.068 7.09663H109.931ZM121.875 34.8685C121.875 35.6508 121.783 36.3958 121.6 37.1036C121.453 37.7742 121.16 38.3702 120.719 38.8917C120.279 39.4133 119.692 39.8417 118.958 40.177C118.224 40.475 117.307 40.624 116.206 40.624H106.848C105.748 40.624 104.83 40.475 104.096 40.177C103.362 39.8417 102.775 39.4133 102.335 38.8917C101.895 38.3702 101.583 37.7742 101.399 37.1036C101.252 36.3958 101.179 35.6508 101.179 34.8685V5.25262C101.179 3.65076 101.601 2.38417 102.445 1.45285C103.289 0.484285 104.647 0 106.518 0H116.536C118.407 0 119.765 0.484285 120.609 1.45285C121.453 2.38417 121.875 3.65076 121.875 5.25262V34.8685Z" fill="#6672FB"/>
<path d="M145.794 40.624H137.648V24.4191H133.299V40.624H125.153V0H133.299V17.4342H137.648V0H145.794V40.624Z" fill="#6672FB"/>
<path d="M164.815 0L166.797 7.54366H161.457V40.624H153.311V7.54366H147.972L150.064 0H164.815Z" fill="#6672FB"/>
<path d="M176.941 7.09663V23.1339H180.904C181.235 23.1339 181.436 23.078 181.51 22.9662C181.62 22.8172 181.675 22.5937 181.675 22.2957V7.87893C181.675 7.3574 181.436 7.09663 180.959 7.09663H176.941ZM189.436 24.5867C189.436 26.1886 188.996 27.4738 188.115 28.4424C187.271 29.3737 185.913 29.8394 184.042 29.8394H176.941V40.624H169.015V0H184.042C185.913 0 187.271 0.465658 188.115 1.39698C188.996 2.32829 189.436 3.59488 189.436 5.19674V24.5867Z" fill="#6672FB"/>
<path d="M201.311 7.09663C200.834 7.09663 200.595 7.3574 200.595 7.87893V32.6892C200.595 32.9872 200.632 33.2107 200.705 33.3597C200.815 33.4715 201.035 33.5274 201.366 33.5274H204.393C204.723 33.5274 204.925 33.4715 204.998 33.3597C205.108 33.2107 205.164 32.9872 205.164 32.6892V7.87893C205.164 7.3574 204.925 7.09663 204.448 7.09663H201.311ZM213.255 34.8685C213.255 35.6508 213.163 36.3958 212.98 37.1036C212.833 37.7742 212.539 38.3702 212.099 38.8917C211.659 39.4133 211.071 39.8417 210.338 40.177C209.604 40.475 208.686 40.624 207.585 40.624H198.228C197.127 40.624 196.21 40.475 195.476 40.177C194.742 39.8417 194.155 39.4133 193.715 38.8917C193.274 38.3702 192.962 37.7742 192.779 37.1036C192.632 36.3958 192.559 35.6508 192.559 34.8685V5.25262C192.559 3.65076 192.981 2.38417 193.825 1.45285C194.669 0.484285 196.026 0 197.898 0H207.916C209.787 0 211.145 0.484285 211.989 1.45285C212.833 2.38417 213.255 3.65076 213.255 5.25262V34.8685Z" fill="#6672FB"/>
<path d="M239.871 40.624H231.724V7.54366H227.376V40.624H216.808L215.432 33.0803H219.23V0H239.871V40.624Z" fill="#6672FB"/>
<path d="M251.34 15.8137H258.606C260.477 15.8137 261.835 16.298 262.679 17.2666C263.56 18.1979 264 19.4645 264 21.0664V35.4272C264 37.0291 263.56 38.2957 262.679 39.227C261.835 40.1583 260.477 40.624 258.606 40.624H243.194V0H251.34V15.8137ZM255.468 33.5274C255.945 33.5274 256.184 33.2666 256.184 32.7451V23.3574C256.184 23.0594 256.129 22.8545 256.019 22.7427C255.945 22.5937 255.744 22.5192 255.413 22.5192H251.34V33.5274H255.468Z" fill="#6672FB"/>
<path d="M83.7391 17.4901H84.84L89.9589 1.17346C90.2158 0.391153 90.8029 0 91.7203 0H97.6099L98.986 7.54366H96.1788C95.8852 7.54366 95.7017 7.67404 95.6284 7.93481L92.4359 18.7194L98.7108 40.624H89.8489L85.3904 23.7486H83.7391V40.624H75.5928V0H83.7391V17.4901Z" stroke="#6672FB" stroke-width="4" mask="url(#path-2-inside-1)"/>
<path d="M109.931 7.09663C109.454 7.09663 109.215 7.3574 109.215 7.87893V32.6892C109.215 32.9872 109.252 33.2107 109.325 33.3597C109.435 33.4715 109.656 33.5274 109.986 33.5274H113.013C113.344 33.5274 113.545 33.4715 113.619 33.3597C113.729 33.2107 113.784 32.9872 113.784 32.6892V7.87893C113.784 7.3574 113.545 7.09663 113.068 7.09663H109.931ZM121.875 34.8685C121.875 35.6508 121.783 36.3958 121.6 37.1036C121.453 37.7742 121.16 38.3702 120.719 38.8917C120.279 39.4133 119.692 39.8417 118.958 40.177C118.224 40.475 117.307 40.624 116.206 40.624H106.848C105.748 40.624 104.83 40.475 104.096 40.177C103.362 39.8417 102.775 39.4133 102.335 38.8917C101.895 38.3702 101.583 37.7742 101.399 37.1036C101.252 36.3958 101.179 35.6508 101.179 34.8685V5.25262C101.179 3.65076 101.601 2.38417 102.445 1.45285C103.289 0.484285 104.647 0 106.518 0H116.536C118.407 0 119.765 0.484285 120.609 1.45285C121.453 2.38417 121.875 3.65076 121.875 5.25262V34.8685Z" stroke="#6672FB" stroke-width="4" mask="url(#path-2-inside-1)"/>
<path d="M145.794 40.624H137.648V24.4191H133.299V40.624H125.153V0H133.299V17.4342H137.648V0H145.794V40.624Z" stroke="#6672FB" stroke-width="4" mask="url(#path-2-inside-1)"/>
<path d="M164.815 0L166.797 7.54366H161.457V40.624H153.311V7.54366H147.972L150.064 0H164.815Z" stroke="#6672FB" stroke-width="4" mask="url(#path-2-inside-1)"/>
<path d="M176.941 7.09663V23.1339H180.904C181.235 23.1339 181.436 23.078 181.51 22.9662C181.62 22.8172 181.675 22.5937 181.675 22.2957V7.87893C181.675 7.3574 181.436 7.09663 180.959 7.09663H176.941ZM189.436 24.5867C189.436 26.1886 188.996 27.4738 188.115 28.4424C187.271 29.3737 185.913 29.8394 184.042 29.8394H176.941V40.624H169.015V0H184.042C185.913 0 187.271 0.465658 188.115 1.39698C188.996 2.32829 189.436 3.59488 189.436 5.19674V24.5867Z" stroke="#6672FB" stroke-width="4" mask="url(#path-2-inside-1)"/>
<path d="M201.311 7.09663C200.834 7.09663 200.595 7.3574 200.595 7.87893V32.6892C200.595 32.9872 200.632 33.2107 200.705 33.3597C200.815 33.4715 201.035 33.5274 201.366 33.5274H204.393C204.723 33.5274 204.925 33.4715 204.998 33.3597C205.108 33.2107 205.164 32.9872 205.164 32.6892V7.87893C205.164 7.3574 204.925 7.09663 204.448 7.09663H201.311ZM213.255 34.8685C213.255 35.6508 213.163 36.3958 212.98 37.1036C212.833 37.7742 212.539 38.3702 212.099 38.8917C211.659 39.4133 211.071 39.8417 210.338 40.177C209.604 40.475 208.686 40.624 207.585 40.624H198.228C197.127 40.624 196.21 40.475 195.476 40.177C194.742 39.8417 194.155 39.4133 193.715 38.8917C193.274 38.3702 192.962 37.7742 192.779 37.1036C192.632 36.3958 192.559 35.6508 192.559 34.8685V5.25262C192.559 3.65076 192.981 2.38417 193.825 1.45285C194.669 0.484285 196.026 0 197.898 0H207.916C209.787 0 211.145 0.484285 211.989 1.45285C212.833 2.38417 213.255 3.65076 213.255 5.25262V34.8685Z" stroke="#6672FB" stroke-width="4" mask="url(#path-2-inside-1)"/>
<path d="M239.871 40.624H231.724V7.54366H227.376V40.624H216.808L215.432 33.0803H219.23V0H239.871V40.624Z" stroke="#6672FB" stroke-width="4" mask="url(#path-2-inside-1)"/>
<path d="M251.34 15.8137H258.606C260.477 15.8137 261.835 16.298 262.679 17.2666C263.56 18.1979 264 19.4645 264 21.0664V35.4272C264 37.0291 263.56 38.2957 262.679 39.227C261.835 40.1583 260.477 40.624 258.606 40.624H243.194V0H251.34V15.8137ZM255.468 33.5274C255.945 33.5274 256.184 33.2666 256.184 32.7451V23.3574C256.184 23.0594 256.129 22.8545 256.019 22.7427C255.945 22.5937 255.744 22.5192 255.413 22.5192H251.34V33.5274H255.468Z" stroke="#6672FB" stroke-width="4" mask="url(#path-2-inside-1)"/>
</svg>
