<svg width="20" height="10" viewBox="0 0 20 10" fill="none" xmlns="http://www.w3.org/2000/svg">
<path d="M10.0114 9.31092C9.70242 9.31153 9.40302 9.20393 9.16514 9.00681L1.23181 2.3957C0.961786 2.17127 0.791981 1.84876 0.759745 1.49913C0.72751 1.1495 0.835485 0.801386 1.05992 0.531366C1.28435 0.261346 1.60685 0.0915414 1.95648 0.0593059C2.30612 0.0270705 2.65423 0.135045 2.92425 0.359477L10.0114 6.28303L17.0985 0.571034C17.2337 0.461202 17.3893 0.379182 17.5564 0.329689C17.7234 0.280196 17.8986 0.264206 18.0719 0.282636C18.2451 0.301067 18.413 0.353555 18.5659 0.437085C18.7188 0.520615 18.8537 0.633539 18.9628 0.769367C19.0839 0.905319 19.1756 1.06481 19.2322 1.23786C19.2888 1.4109 19.309 1.59377 19.2916 1.77499C19.2742 1.95622 19.2196 2.13191 19.1312 2.29105C19.0428 2.45019 18.9224 2.58935 18.7777 2.69981L10.8444 9.08614C10.5996 9.2521 10.3064 9.33125 10.0114 9.31092Z" fill="white" fill-opacity="0.3"/>
</svg>
