<svg width="24" height="24" viewBox="0 0 24 24" fill="none" xmlns="http://www.w3.org/2000/svg">
<path d="M24 12C24 9.62676 23.2963 7.3068 21.9778 5.33347C20.6594 3.36015 18.7854 1.82208 16.5929 0.913738C14.4004 0.00539814 11.9877 -0.232417 9.66002 0.230363C7.33233 0.693142 5.19413 1.83573 3.51578 3.51366C1.83743 5.19159 0.694309 7.32951 0.230948 9.65708C-0.232413 11.9847 0.00479859 14.3974 0.91259 16.5901C1.82038 18.7829 3.35798 20.6572 5.33098 21.9762C7.30397 23.2951 9.62376 23.9994 11.997 24H12L12.003 23.9999C15.184 23.9955 18.2333 22.7298 20.4824 20.4802C22.7314 18.2307 23.9964 15.181 24 12ZM12.9231 22.1114V14.7693H15.6923C15.9371 14.7693 16.1719 14.6721 16.345 14.499C16.5181 14.3259 16.6154 14.0911 16.6154 13.8463C16.6154 13.6015 16.5181 13.3667 16.345 13.1936C16.1719 13.0204 15.9371 12.9232 15.6923 12.9232H12.9231V10.154C12.9236 9.6645 13.1183 9.19525 13.4644 8.84914C13.8105 8.50304 14.2798 8.30836 14.7692 8.30781H16.6154C16.8602 8.30781 17.095 8.21056 17.2681 8.03745C17.4412 7.86434 17.5385 7.62955 17.5385 7.38473C17.5385 7.13992 17.4412 6.90513 17.2681 6.73202C17.095 6.55891 16.8602 6.46166 16.6154 6.46166H14.7692C13.7903 6.46276 12.8518 6.85212 12.1596 7.54432C11.4674 8.23653 11.078 9.17504 11.0769 10.154V12.9232H8.3077C8.06288 12.9232 7.82809 13.0204 7.65498 13.1936C7.48187 13.3667 7.38462 13.6015 7.38462 13.8463C7.38462 14.0911 7.48187 14.3259 7.65498 14.499C7.82809 14.6721 8.06288 14.7693 8.3077 14.7693H11.0769V22.1114C8.47477 21.8738 6.06435 20.6423 4.34705 18.6729C2.62975 16.7035 1.73778 14.1478 1.85668 11.5376C1.97557 8.9273 3.09618 6.46333 4.9854 4.6582C6.87462 2.85307 9.38702 1.84574 12 1.84574C14.613 1.84574 17.1254 2.85307 19.0146 4.6582C20.9038 6.46333 22.0244 8.9273 22.1433 11.5376C22.2622 14.1478 21.3703 16.7035 19.653 18.6729C17.9357 20.6423 15.5252 21.8738 12.9231 22.1114Z" fill="white"/>
</svg>
