<svg width="104" height="34" viewBox="0 0 104 34" fill="none" xmlns="http://www.w3.org/2000/svg">
<g clip-path="url(#clip0)">
<path d="M2.30843 0.310007C2.32352 0.13692 2.38387 0 2.47188 0C2.56492 0 2.62527 0.0568346 2.70323 0.232505L7.34523 10.0494L11.8112 0.250589C11.8741 0.108502 11.9344 0 12.0375 0C12.1507 0 12.1959 0.126586 12.2211 0.421093L13.237 9.99772C13.3049 10.5635 13.4055 11.4393 14.0568 11.6537C14.4968 11.7958 14.8514 11.7958 14.9998 11.7958C15.0777 11.7958 15.1632 11.8113 15.1632 11.8913C15.1632 11.9818 15.123 12.0128 14.9369 12.0128C14.6075 12.0128 12.8699 11.9663 12.3116 11.9198C11.9621 11.8913 11.8867 11.8397 11.8867 11.7648C11.8867 11.7002 11.9168 11.6847 11.9948 11.6537C12.0979 11.6123 12.0878 11.3747 12.0551 11.0905L11.3259 2.95023L7.55897 11.1551C7.24213 11.8423 7.19435 11.9818 7.06108 11.9818C6.94792 11.9818 6.875 11.8268 6.5833 11.2662C6.19353 10.5015 4.88592 7.80184 4.80797 7.64425C4.6747 7.36525 2.922 3.51083 2.75603 3.09232L2.13995 10.4369C2.12486 10.6875 2.10977 10.8993 2.10977 11.1706C2.10977 11.5633 2.29586 11.6873 2.51966 11.7338C2.77615 11.7983 2.97481 11.7983 3.06785 11.7983C3.16089 11.7983 3.21621 11.8268 3.21621 11.8733C3.21621 11.9843 3.14329 12.0153 2.98989 12.0153C2.42662 12.0153 1.65211 11.9688 1.53392 11.9688C1.39562 11.9688 0.666377 12.0153 0.256492 12.0153C0.1031 12.0128 0 11.9998 0 11.8913C0 11.8268 0.0729242 11.7958 0.148363 11.7958C0.27158 11.7958 0.37468 11.7958 0.606026 11.7493C1.10895 11.6537 1.1341 11.0905 1.21205 10.4524L2.30843 0.310007Z" fill="white"/>
<path d="M18.7389 7.41433C18.661 7.41433 18.6157 7.45825 18.5855 7.53575L17.6778 10.2948C17.5395 10.6875 17.4615 11.0647 17.4615 11.3437C17.4615 11.6537 17.7482 11.7958 18.0097 11.7958H18.143C18.2964 11.7958 18.3416 11.8242 18.3416 11.8913C18.3416 11.9818 18.2033 12.0128 18.07 12.0128C17.7004 12.0128 17.0944 11.9663 16.9309 11.9663C16.7624 11.9663 15.9251 12.0128 15.2134 12.0128C15.0148 12.0128 14.9268 11.9818 14.9268 11.8913C14.9268 11.8268 14.9997 11.7958 15.138 11.7958C15.2461 11.7958 15.3844 11.7803 15.5026 11.7648C16.1992 11.6692 16.5085 11.075 16.78 10.2948L20.2276 0.607097C20.4112 0.093002 20.469 0 20.5646 0C20.6526 0 20.7129 0.0800851 20.894 0.560596C21.1203 1.14961 23.5042 7.60292 24.4321 9.97189C24.9802 11.3592 25.4228 11.6123 25.7397 11.7028C25.966 11.7828 26.2124 11.7983 26.3306 11.7983C26.4236 11.7983 26.4991 11.8138 26.4991 11.8939C26.4991 11.9843 26.3658 12.0153 26.1973 12.0153C25.966 12.0153 24.8595 12.0153 23.8135 11.9843C23.5268 11.9688 23.3608 11.9688 23.3608 11.8733C23.3608 11.8164 23.4011 11.7828 23.469 11.7673C23.557 11.7363 23.6475 11.5943 23.557 11.3462L22.1412 7.50475C22.1161 7.44791 22.0809 7.41433 22.013 7.41433H18.7389ZM21.8068 6.84857C21.8847 6.84857 21.8847 6.80207 21.8671 6.73748L20.4263 2.52656C20.3483 2.29405 20.2729 2.29405 20.1949 2.52656L18.8622 6.74007C18.832 6.82015 18.8622 6.85115 18.9024 6.85115H21.8068V6.84857Z" fill="white"/>
<path d="M40.7623 7.48664C40.7623 8.98759 40.7623 10.2225 40.8403 10.8735C40.8805 11.3256 40.9786 11.6692 41.4312 11.7312C41.6525 11.7622 41.9794 11.7957 42.1177 11.7957C42.2108 11.7957 42.2409 11.8397 42.2409 11.8913C42.2409 11.9662 42.163 12.0127 41.9945 12.0127C41.1647 12.0127 40.2041 11.9662 40.1287 11.9662C40.0507 11.9662 39.0977 12.0127 38.635 12.0127C38.4715 12.0127 38.3936 11.9817 38.3936 11.8913C38.3936 11.8422 38.4237 11.7957 38.5168 11.7957C38.6551 11.7957 38.8336 11.7647 38.9719 11.7312C39.2737 11.6692 39.3516 11.3256 39.412 10.8735C39.4899 10.2199 39.4899 8.98759 39.4899 7.48664V0.888666C38.7406 0.904167 37.9812 0.904167 37.2393 0.92225C36.3014 0.932584 35.9317 1.04367 35.6954 1.42084C35.5269 1.68435 35.4791 1.79285 35.4338 1.90394C35.3886 2.02794 35.3408 2.06153 35.2804 2.06153C35.2352 2.06153 35.2075 2.01244 35.2075 1.91944C35.2075 1.76444 35.5042 0.423656 35.542 0.294487C35.5671 0.204068 35.635 0.00256348 35.6954 0.00256348C35.7985 0.00256348 35.9468 0.154983 36.3617 0.188568C36.8018 0.232485 37.3776 0.268653 37.5612 0.268653H43.2543C43.7422 0.268653 44.0842 0.235069 44.3306 0.188568C44.5619 0.154983 44.7002 0.108482 44.7556 0.108482C44.8335 0.108482 44.8335 0.204068 44.8335 0.291903C44.8335 0.764664 44.7883 1.83935 44.7883 2.00986C44.7883 2.15453 44.743 2.21653 44.6801 2.21653C44.6072 2.21653 44.572 2.16744 44.5619 1.95302C44.5619 1.88844 44.5469 1.83935 44.5469 1.77994C44.4966 1.31234 44.137 0.953251 42.681 0.924834C42.0398 0.90675 41.4036 0.90675 40.7623 0.89125V7.48664Z" fill="white"/>
<path d="M48.0243 4.7457C48.0243 2.30957 48.0243 1.87556 47.9891 1.3718C47.9639 0.844784 47.8407 0.591612 47.3428 0.48311C47.2347 0.452109 47.036 0.452109 46.9028 0.436609C46.7946 0.423692 46.7041 0.408191 46.7041 0.343606C46.7041 0.248021 46.7821 0.21702 46.9505 0.21702C47.3001 0.21702 47.71 0.21702 48.663 0.263521C48.7711 0.263521 51.7962 0.263521 52.1407 0.248021C52.4802 0.232521 52.7518 0.204103 52.8423 0.152436C52.9303 0.108518 52.9605 0.0930176 53.0058 0.0930176C53.051 0.0930176 53.0661 0.152436 53.0661 0.232521C53.0661 0.343606 52.9781 0.529611 52.9429 0.966204C52.9278 1.20129 52.9127 1.49322 52.8825 1.90139C52.8675 2.05898 52.8272 2.1649 52.7593 2.1649C52.6663 2.1649 52.6411 2.08998 52.6411 1.96339C52.6411 1.76189 52.611 1.5733 52.5632 1.44671C52.4601 1.08762 52.1382 0.930036 51.4718 0.870618C51.2153 0.842201 49.5632 0.826701 49.3897 0.826701C49.3344 0.826701 49.3017 0.870618 49.3017 0.981704V5.28563C49.3017 5.3993 49.3118 5.44322 49.3897 5.44322C49.5909 5.44322 51.4568 5.44322 51.8063 5.4148C52.2212 5.37863 52.4173 5.33472 52.5657 5.14613C52.6437 5.05571 52.6889 4.99371 52.7493 4.99371C52.7945 4.99371 52.8272 5.02213 52.8272 5.11513C52.8272 5.21071 52.7493 5.47422 52.704 5.9909C52.6587 6.47658 52.6587 6.83308 52.6437 7.05525C52.6286 7.20767 52.5984 7.28518 52.5355 7.28518C52.4425 7.28518 52.4274 7.16117 52.4274 7.03717C52.4274 6.89767 52.4173 6.74008 52.3721 6.60058C52.3092 6.36549 52.1307 6.14848 51.5825 6.0839C51.1726 6.03998 49.6689 6.0064 49.4124 6.0064C49.3344 6.0064 49.3042 6.0529 49.3042 6.11748V7.48668C49.3042 8.01886 49.2891 9.82982 49.3042 10.1579C49.3344 10.7934 49.4224 11.137 49.8021 11.2946C50.0636 11.4031 50.4735 11.4367 51.0645 11.4367C51.5272 11.4367 52.0225 11.4212 52.4299 11.2946C52.9178 11.137 53.0862 10.8089 53.2094 10.1398C53.2396 9.96932 53.2723 9.90473 53.3427 9.90473C53.4358 9.90473 53.4358 10.0287 53.4358 10.1398C53.4358 10.2638 53.3176 11.3256 53.2396 11.6511C53.1315 12.0567 53.0083 12.0567 52.4199 12.0567C51.2958 12.0567 50.7954 12.0257 50.1994 12.0102C49.5934 11.9973 48.8969 11.9637 48.3009 11.9637C47.9363 11.9637 47.5666 12.0257 47.1769 12.0102C47.0134 12.0102 46.9354 11.9792 46.9354 11.8888C46.9354 11.8397 47.0134 11.8087 47.1039 11.7932C47.2523 11.7777 47.3453 11.7777 47.4535 11.7441C47.7653 11.6666 47.9664 11.4522 47.9916 10.2767C48.0067 9.66965 48.0268 8.87396 48.0268 7.4841V4.7457H48.0243Z" fill="white"/>
<path d="M56.9536 4.74566C56.9536 2.30953 56.9536 1.87552 56.9234 1.37176C56.8982 0.84216 56.775 0.591572 56.2721 0.483069C56.1489 0.452069 55.8924 0.436568 55.7591 0.436568C55.6962 0.436568 55.6309 0.408151 55.6309 0.343566C55.6309 0.250564 55.7088 0.21698 55.8773 0.21698C56.5588 0.21698 57.5193 0.266064 57.5898 0.266064C57.7582 0.266064 58.9175 0.21698 59.3852 0.21698C60.3433 0.21698 61.3592 0.312565 62.1639 0.904162C62.5436 1.18575 63.2099 1.95302 63.2099 3.02513C63.2099 4.18507 62.7372 5.33726 61.3743 6.62895C62.6165 8.26682 63.65 9.65669 64.5326 10.628C65.3524 11.5193 66.0037 11.6872 66.3834 11.7492C66.6751 11.7957 66.8863 11.7957 66.9743 11.7957C67.0523 11.7957 67.1127 11.8397 67.1127 11.8913C67.1127 11.9817 67.0246 12.0127 66.7531 12.0127H65.6718C64.8193 12.0127 64.4396 11.9327 64.0448 11.7182C63.3935 11.3591 62.8604 10.597 61.9979 9.42677C61.3567 8.56908 60.645 7.52022 60.3408 7.11722C60.2779 7.0578 60.2326 7.02163 60.1396 7.02163L58.2737 6.99321C58.1958 6.99321 58.1656 7.03713 58.1656 7.11722V7.48922C58.1656 8.99017 58.1656 10.225 58.241 10.876C58.2863 11.3281 58.3794 11.6717 58.832 11.7337C59.0482 11.7647 59.3802 11.7983 59.5185 11.7983C59.6115 11.7983 59.6367 11.8422 59.6367 11.8939C59.6367 11.9688 59.5587 12.0153 59.3953 12.0153C58.5654 12.0153 57.5998 11.9688 57.5244 11.9688C57.5143 11.9688 56.5562 12.0153 56.1036 12.0153C55.9351 12.0153 55.8572 11.9843 55.8572 11.8939C55.8572 11.8448 55.8874 11.7983 55.9754 11.7983C56.1187 11.7983 56.2972 11.7673 56.4305 11.7337C56.7323 11.6717 56.8153 11.3281 56.8706 10.876C56.9485 10.2225 56.9485 8.99017 56.9485 7.48922V4.74566H56.9536ZM58.1681 6.10194C58.1681 6.17686 58.1983 6.24145 58.2762 6.29053C58.5076 6.42745 59.1991 6.53337 59.8705 6.53337C60.2351 6.53337 60.6551 6.49204 61.0096 6.24145C61.5427 5.86944 61.9375 5.02467 61.9375 3.84148C61.9375 1.88585 60.9317 0.715574 59.3072 0.715574C58.8571 0.715574 58.4397 0.764659 58.2913 0.816327C58.2134 0.842161 58.1681 0.906745 58.1681 0.999747V6.10194Z" fill="white"/>
<path d="M67.7689 11.8138C67.5527 11.7027 67.5376 11.6407 67.5376 11.2222C67.5376 10.4395 67.6055 9.81428 67.6156 9.56627C67.6306 9.39577 67.6658 9.31827 67.7388 9.31827C67.8318 9.31827 67.8469 9.36477 67.8469 9.48619C67.8469 9.62828 67.8469 9.84528 67.8871 10.0675C68.1185 11.2222 69.1243 11.6562 70.1377 11.6562C71.5937 11.6562 72.3079 10.5815 72.3079 9.57919C72.3079 8.5045 71.8678 7.87674 70.5652 6.77105L69.8838 6.19237C68.2744 4.83867 67.9047 3.87248 67.9047 2.80813C67.9047 1.13926 69.1243 0.00256348 71.048 0.00256348C71.644 0.00256348 72.0841 0.0593981 72.4638 0.154984C72.7504 0.216985 72.8736 0.235069 72.9918 0.235069C73.1201 0.235069 73.1452 0.268653 73.1452 0.346154C73.1452 0.426239 73.0824 0.935167 73.0824 1.99952C73.0824 2.24753 73.0572 2.35862 72.9793 2.35862C72.8862 2.35862 72.8711 2.27853 72.8561 2.15969C72.841 1.96852 72.7479 1.54743 72.6549 1.37434C72.5618 1.20642 72.157 0.550242 70.7563 0.550242C69.7102 0.550242 68.8905 1.22192 68.8905 2.3612C68.8905 3.24989 69.2853 3.81048 70.7463 4.98076L71.1712 5.32951C72.9617 6.7788 73.3866 7.74498 73.3866 8.99793C73.3866 9.63603 73.1402 10.8218 72.0941 11.5839C71.4428 12.0541 70.6231 12.2375 69.8008 12.2375C69.0891 12.2297 68.3901 12.1238 67.7689 11.8138Z" fill="white"/>
<path d="M77.838 6.92865C77.838 9.17878 78.3259 10.1424 78.9822 10.7831C79.7215 11.4961 80.408 11.6382 81.2755 11.6382C82.2034 11.6382 83.1112 11.1861 83.6594 10.5144C84.356 9.62571 84.537 8.30301 84.537 6.69098V4.7431C84.537 2.30696 84.537 1.87295 84.5119 1.36919C84.4817 0.84218 84.3585 0.589008 83.8556 0.480506C83.7374 0.449505 83.4758 0.434005 83.3426 0.434005C83.2747 0.434005 83.2193 0.405587 83.2193 0.341003C83.2193 0.245417 83.2973 0.214417 83.4608 0.214417C84.1422 0.214417 84.9796 0.263501 85.0701 0.263501C85.1782 0.263501 85.8899 0.214417 86.3475 0.214417C86.511 0.214417 86.589 0.245417 86.589 0.341003C86.589 0.403004 86.5286 0.434005 86.4708 0.434005C86.3626 0.434005 86.2696 0.449505 86.086 0.480506C85.6812 0.573508 85.558 0.82668 85.5328 1.36919C85.4976 1.87295 85.4976 2.30696 85.4976 4.7431V6.41197C85.4976 8.09892 85.314 9.97188 84.102 11.075C83.0056 12.0773 81.8665 12.2298 80.9688 12.2298C80.4558 12.2298 78.9218 12.1729 77.8406 11.1267C77.1013 10.3904 76.5229 9.29762 76.5229 7.02165V4.74568C76.5229 2.30955 76.5229 1.87554 76.4927 1.37178C76.4625 0.844764 76.3444 0.591591 75.8364 0.483089C75.7182 0.452088 75.4567 0.436588 75.3234 0.436588C75.2631 0.436588 75.2002 0.408171 75.2002 0.343586C75.2002 0.248001 75.2782 0.217 75.4416 0.217C76.1281 0.217 77.0585 0.266084 77.1893 0.266084C77.3225 0.266084 78.2404 0.217 78.693 0.217C78.8615 0.217 78.9395 0.248001 78.9395 0.343586C78.9395 0.405587 78.8766 0.436588 78.8162 0.436588C78.7081 0.436588 78.6226 0.452088 78.4365 0.483089C78.0266 0.547674 77.9034 0.829263 77.8783 1.37178C77.8431 1.87554 77.8431 2.30955 77.8431 4.74568V6.92865H77.838Z" fill="white"/>
<path d="M90.0037 4.7457C90.0037 2.30957 90.0037 1.87556 89.9786 1.3718C89.9484 0.844785 89.795 0.576112 89.4606 0.503777C89.2971 0.454693 89.0959 0.439193 88.9878 0.439193C88.925 0.439193 88.8696 0.410775 88.8696 0.346191C88.8696 0.250605 88.9476 0.219604 89.111 0.219604C89.614 0.219604 90.567 0.266106 90.645 0.266106C90.7229 0.266106 91.6759 0.219604 92.1311 0.219604C92.2945 0.219604 92.3725 0.250605 92.3725 0.346191C92.3725 0.408192 92.3172 0.439193 92.2543 0.439193C92.1462 0.439193 92.0531 0.454693 91.8746 0.485694C91.4647 0.565779 91.3415 0.831868 91.3113 1.37438C91.2811 1.87297 91.2812 2.30698 91.2812 4.7457V7.48926C91.2812 8.99022 91.2812 10.2251 91.3591 10.8761C91.4044 11.3282 91.4974 11.6718 91.95 11.7338C92.1663 11.7648 92.4831 11.7984 92.5762 11.7984C92.7145 11.7984 92.7598 11.8423 92.7598 11.8939C92.7598 11.9689 92.6994 12.0154 92.5284 12.0154C91.6935 12.0154 90.7229 11.9689 90.645 11.9689C90.567 11.9689 89.614 12.0154 89.1588 12.0154C88.9903 12.0154 88.9124 11.9844 88.9124 11.8939C88.9124 11.8449 88.9476 11.7984 89.0758 11.7984C89.1739 11.7984 89.3424 11.7829 89.4757 11.7493C89.7774 11.6899 89.8705 11.3308 89.9333 10.8787C90.0062 10.2251 90.0062 8.9928 90.0062 7.49185V4.7457H90.0037Z" fill="white"/>
<path d="M99.9262 7.48664C99.9262 8.98759 99.9262 10.2225 99.9991 10.8735C100.044 11.3256 100.137 11.6692 100.595 11.7312C100.806 11.7622 101.138 11.7957 101.277 11.7957C101.37 11.7957 101.395 11.8397 101.395 11.8913C101.395 11.9662 101.322 12.0127 101.158 12.0127C100.318 12.0127 99.3629 11.9662 99.2925 11.9662C99.2146 11.9662 98.2565 12.0127 97.7988 12.0127C97.6303 12.0127 97.5524 11.9817 97.5524 11.8913C97.5524 11.8422 97.5876 11.7957 97.6756 11.7957C97.8139 11.7957 97.9975 11.7647 98.1308 11.7312C98.4325 11.6692 98.5105 11.3256 98.5708 10.8735C98.6488 10.2199 98.6488 8.98759 98.6488 7.48664V0.888666C97.8994 0.904167 97.145 0.904167 96.3982 0.92225C95.4602 0.932584 95.0906 1.04367 94.8492 1.42084C94.6857 1.68435 94.6379 1.79285 94.5927 1.90394C94.5474 2.02794 94.4996 2.06153 94.4393 2.06153C94.399 2.06153 94.3613 2.01244 94.3613 1.91944C94.3613 1.76444 94.6631 0.423656 94.7008 0.294487C94.731 0.204068 94.7938 0.00256348 94.8492 0.00256348C94.9573 0.00256348 95.1057 0.154983 95.5155 0.188568C95.9556 0.232485 96.5365 0.268653 96.7201 0.268653H102.413C102.901 0.268653 103.248 0.235069 103.494 0.188568C103.721 0.154983 103.854 0.108482 103.919 0.108482C103.997 0.108482 103.997 0.204068 103.997 0.291903C103.997 0.764664 103.947 1.83935 103.947 2.00986C103.947 2.15453 103.902 2.21653 103.839 2.21653C103.766 2.21653 103.736 2.16744 103.721 1.95302C103.721 1.88844 103.706 1.83935 103.706 1.77994C103.66 1.31234 103.296 0.953251 101.835 0.924834C101.199 0.90675 100.562 0.90675 99.9262 0.89125V7.48664Z" fill="white"/>
<path d="M74.9991 6.39903C74.9036 6.60312 74.8155 6.79946 74.6094 6.92863C74.2975 7.12497 73.9606 7.06297 73.7167 6.84596C73.6638 6.79946 73.6362 6.79429 73.5582 6.81238C73.0377 6.93896 72.6329 7.26447 72.2355 7.59773C71.8131 7.95165 71.4409 8.35983 71.0687 8.768C70.7142 9.1581 70.3848 9.57402 70.0528 9.98736C69.6606 10.473 69.2834 10.9716 68.9062 11.4702C68.5315 11.9688 68.1669 12.4752 67.7922 12.9763C67.5784 13.2657 67.3572 13.5473 67.1409 13.834C67.0629 13.9374 67.0076 13.927 66.9221 13.8366C66.6707 13.5679 66.6304 13.1701 66.8291 12.8575C67.4251 11.912 68.0939 11.0207 68.7276 10.1036C69.2029 9.41644 69.7033 8.74734 70.2163 8.08857C70.5256 7.69073 70.8449 7.30064 71.1769 6.92346C71.4057 6.66254 71.6471 6.41454 71.891 6.16911C72.321 5.73769 72.7963 5.36826 73.3721 5.15384C73.4174 5.13576 73.4828 5.16159 73.513 5.10217C73.7141 5.10217 73.9128 5.10217 74.114 5.10217C74.5616 5.28043 74.8382 5.62402 74.9991 6.07611C74.9991 6.18203 74.9991 6.29053 74.9991 6.39903Z" fill="#A69479"/>
<path d="M45.0271 29.8769C44.6927 30.4013 44.3507 30.9154 43.9332 31.3727C43.7622 31.5613 43.5636 31.7369 43.3146 31.8274C43.116 31.8997 42.9626 31.8325 42.8167 31.6956C42.515 31.414 42.3541 31.0523 42.2937 30.6467C42.2258 30.1921 42.256 29.74 42.3138 29.2853C42.4043 28.5619 42.6005 27.867 42.8268 27.1798C43.1688 26.1336 43.6239 25.139 44.1244 24.165C44.328 23.7698 44.5544 23.3848 44.7882 23.0051C44.8712 22.8707 44.9818 22.7545 45.0422 22.5943C44.9617 22.6021 44.9366 22.6589 44.8963 22.6977C44.3406 23.2402 43.8377 23.8318 43.3423 24.4285C42.7438 25.1467 42.1655 25.883 41.5997 26.6296C41.0867 27.309 40.5687 27.9833 40.0607 28.6679C39.4949 29.4326 38.9266 30.1947 38.3457 30.949C37.79 31.6698 37.2016 32.3621 36.5478 32.995C36.2787 33.256 35.9795 33.4859 35.6551 33.659C35.303 33.8476 34.9183 33.8321 34.5386 33.6822C33.9703 33.4549 33.6534 32.995 33.402 32.4577C33.1731 31.9694 33.0474 31.4502 33.0097 30.918C32.972 30.4142 32.982 29.9027 33.0248 29.3938C33.0751 28.8125 33.1832 28.2442 33.314 27.6784C33.5252 26.7742 33.8194 25.9011 34.1639 25.0434C34.4204 24.4001 34.7071 23.7723 35.0189 23.1575C35.4841 22.243 36.0499 21.393 36.6383 20.5586C36.9979 20.0471 37.3952 19.5692 37.8378 19.1352C38.1773 18.8045 38.5544 18.5281 39.0021 18.3834C39.7313 18.1483 40.4253 18.4635 40.6366 19.3625C40.8503 20.2693 40.7195 21.158 40.3449 22.0001C40.194 22.3386 39.9601 22.6305 39.6181 22.7907C39.2233 22.9741 38.8436 22.894 38.4891 22.6692C38.2401 22.5116 38.0063 22.3386 37.9484 22.0027C37.883 21.6255 38.1697 21.238 38.5117 21.207C38.7154 21.1864 38.909 21.2251 39.0599 21.3827C39.1253 21.4499 39.1404 21.406 39.1655 21.3491C39.3742 20.8505 39.4346 20.3313 39.3466 19.7965C39.3264 19.6725 39.251 19.7242 39.1982 19.7603C39.0875 19.8404 38.9819 19.9283 38.8788 20.0187C38.3985 20.4372 38.0063 20.9358 37.6316 21.4525C37.4254 21.7366 37.2066 22.0131 37.0306 22.3205C36.7691 22.7726 36.5629 23.2557 36.3516 23.7336C36.0951 24.3149 35.8663 24.9116 35.6677 25.5161C35.4791 26.0974 35.2905 26.6761 35.1396 27.2703C35.0063 27.7947 34.8881 28.3243 34.8076 28.8616C34.7574 29.1975 34.6945 29.5359 34.6995 29.8821C34.702 30.0422 34.6593 30.1998 34.6693 30.3626C34.6869 30.6984 34.7146 31.0343 34.8076 31.3598C34.8529 31.5199 34.9384 31.6517 35.0641 31.755C35.1949 31.8635 35.3332 31.8894 35.4992 31.8093C35.8236 31.6543 36.0775 31.4088 36.334 31.1686C36.6333 30.887 36.9225 30.5925 37.194 30.2851C37.6316 29.7942 38.0767 29.3111 38.4916 28.7996C38.7481 28.4819 39.0272 28.1848 39.2937 27.8722C39.6056 27.5053 39.9023 27.123 40.2216 26.7639C40.4656 26.4901 40.6944 26.2059 40.9333 25.9269C41.2778 25.5239 41.6148 25.1157 41.9593 24.7153C42.1705 24.4699 42.3867 24.2296 42.603 23.9868C43.1638 23.3538 43.727 22.7235 44.3004 22.1035C44.7128 21.6565 45.1302 21.2148 45.5627 20.7885C46.209 20.1504 46.8904 19.5511 47.6398 19.0422C47.9064 18.8613 48.183 18.6934 48.4747 18.5565C49.0103 18.3059 49.5559 18.3989 49.9809 18.8226C50.162 19.0034 50.2475 19.2411 50.2827 19.4917C50.3858 20.2512 50.1544 20.9616 49.9507 21.672C49.8778 21.9304 49.8829 22.1913 49.8426 22.4522C49.7898 22.7829 49.7471 23.1162 49.7219 23.452C49.7093 23.607 49.6867 23.7594 49.6817 23.917C49.6691 24.4001 49.6339 24.8832 49.6088 25.3663C49.5886 25.7796 49.6088 26.1904 49.5836 26.6399C49.7722 26.3583 49.9331 26.1077 50.1041 25.8597C50.4914 25.3017 50.8434 24.723 51.12 24.0978C51.4419 23.3745 51.7889 22.6615 52.1284 21.9485C52.5936 20.9771 53.0764 20.0135 53.597 19.0706C53.9339 18.4635 54.2759 17.859 54.6531 17.2777C55.0353 16.6887 55.4251 16.0997 55.8677 15.552C56.2097 15.1257 56.5592 14.7046 56.9263 14.3016C57.5022 13.6687 58.1258 13.0952 58.7846 12.5553C59.2121 12.2065 59.6497 11.8707 60.1124 11.5736C60.8869 11.075 61.6815 10.6151 62.5038 10.2018C62.7754 10.0649 63.0494 9.99254 63.3437 9.94087C63.6379 9.8892 63.8969 9.72903 64.1307 9.53528C64.2162 9.46294 64.3093 9.44486 64.4099 9.46294C64.7041 9.51978 64.9555 9.79362 64.9782 10.1036C64.9933 10.3129 64.865 10.6565 64.5255 10.8011C63.9447 11.0491 63.3713 11.3152 62.803 11.5942C61.948 12.0153 61.1333 12.501 60.3689 13.0745C59.8534 13.462 59.3479 13.865 58.8752 14.3094C58.4829 14.6788 58.1007 15.056 57.7411 15.459C57.0822 16.1953 56.4561 16.9625 55.933 17.8099C55.4075 18.6572 54.887 19.5097 54.4368 20.4062C54.3463 20.587 54.2482 20.7627 54.1477 20.9513C54.5123 20.8867 54.8694 20.8247 55.2214 20.7601C55.7067 20.6697 56.1921 20.5689 56.6799 20.4837C56.7905 20.4656 56.8257 20.4088 56.8509 20.3132C57.0848 19.4529 57.3463 18.6004 57.6757 17.7711C57.9045 17.1924 58.1384 16.6164 58.4175 16.0635C58.7419 15.4177 59.1291 14.8131 59.5742 14.2448C60.1023 13.5705 60.736 13.0358 61.4904 12.656C61.7192 12.5423 61.9531 12.4183 62.2171 12.4183C62.5113 12.4183 62.8055 12.6767 62.8583 12.9815C62.9061 13.2554 62.715 13.6196 62.451 13.7049C61.518 14.0045 60.8617 14.6607 60.3236 15.4564C59.8383 16.1746 59.4535 16.9548 59.1166 17.7608C58.8802 18.3291 58.6815 18.913 58.4703 19.4917C58.41 19.6544 58.3823 19.8301 58.3446 20.0006C58.3295 20.0703 58.3496 20.0781 58.42 20.0574C58.9707 19.8947 59.5214 19.7242 60.0797 19.5795C60.8818 19.3702 61.6664 19.099 62.4585 18.8484C62.5717 18.8122 62.6521 18.7502 62.715 18.6521C62.881 18.3989 63.0847 18.1741 63.2758 17.9442C63.4593 17.722 63.653 17.5102 63.8642 17.3139C64.171 17.0297 64.4778 16.7481 64.7845 16.4665C65.0109 16.2573 65.2548 16.0842 65.5163 15.9343C65.8583 15.738 66.2204 15.6037 66.6077 15.5313C66.927 15.4719 67.2237 15.5339 67.5255 15.6243C67.9404 15.7483 68.4031 16.4355 68.222 16.9832C68.0712 17.443 67.782 17.7892 67.4375 18.0992C67.0754 18.4247 66.6605 18.6701 66.2455 18.9104C66.072 19.0112 65.8734 19.0654 65.6848 19.1377C64.9706 19.4116 64.2565 19.6803 63.5297 19.9179C63.3386 19.9799 63.2682 20.1608 63.1676 20.3028C62.7779 20.8557 62.4183 21.4318 62.1819 22.0751C62.0511 22.4316 61.9757 22.801 61.9355 23.1782C61.9003 23.5063 61.9405 23.8188 62.0687 24.1108C62.3051 24.6559 62.7226 24.9762 63.2959 25.077C63.8667 25.1777 64.3872 25.002 64.8902 24.7592C65.5565 24.4363 66.16 24.0126 66.7258 23.5243C67.1206 23.1859 67.4853 22.8139 67.8624 22.4574C68.3779 21.9691 68.8432 21.4318 69.2933 20.8841C69.6805 20.4139 70.0527 19.9308 70.4274 19.4529C70.5908 19.2462 70.8071 19.1687 71.0485 19.2101C71.3226 19.254 71.5237 19.409 71.6092 19.6983C71.6771 19.9334 71.6067 20.1168 71.4684 20.3054C71.1642 20.7188 70.8398 21.114 70.5254 21.5196C70.3922 21.6927 70.2513 21.8555 70.108 22.0208C69.5623 22.6486 68.9966 23.2582 68.4006 23.8369C67.8021 24.4182 67.176 24.9659 66.4819 25.4257C65.803 25.8726 65.0989 26.2653 64.2992 26.4462C63.3512 26.658 62.4887 26.5159 61.7268 25.8546C61.2163 25.4128 60.8567 24.8832 60.6983 24.2141C60.5826 23.7336 60.5927 23.2505 60.6631 22.7622C60.7712 22.0389 61.0428 21.3775 61.3697 20.7343C61.3848 20.7059 61.4074 20.68 61.3898 20.6284C61.1585 20.6542 60.9346 20.7291 60.7134 20.8014C60.0269 21.0236 59.3328 21.2174 58.6363 21.4085C58.4301 21.4654 58.2239 21.5222 58.0152 21.5635C57.907 21.5842 57.8567 21.6359 57.8341 21.7444C57.6656 22.4858 57.4871 23.2272 57.3262 23.9713C57.1451 24.8083 56.9917 25.6505 56.8433 26.4927C56.7126 27.2367 56.5894 27.9833 56.4787 28.7299C56.3807 29.3938 56.2776 30.0577 56.2122 30.7294C56.1669 31.1789 56.0714 31.6258 56.0336 32.0754C55.9984 32.4861 55.9205 32.8917 55.9004 33.3025C55.8677 34.0103 55.2642 34.1369 54.8995 33.9147C54.633 33.7546 54.5148 33.4446 54.5751 33.0906C54.6179 32.8452 54.6355 32.5946 54.6682 32.344C54.7185 31.9359 54.7813 31.5303 54.8191 31.1221C54.8442 30.8353 54.8794 30.5486 54.9222 30.2644C54.9901 29.8278 55.0228 29.386 55.1032 28.952C55.1711 28.5697 55.2113 28.1822 55.2692 27.7973C55.3522 27.2548 55.4352 26.7148 55.5282 26.1749C55.6238 25.6143 55.7294 25.0563 55.84 24.4983C55.9532 23.9248 56.0764 23.3538 56.1996 22.7829C56.26 22.5039 56.3304 22.2249 56.4033 21.9201C56.1418 21.9743 55.8903 22.0234 55.6439 22.0776C55.2868 22.1551 54.9322 22.2404 54.5777 22.3179C54.2382 22.3902 53.9113 22.1939 53.7177 21.7883C53.6347 21.9536 53.5517 22.1061 53.4838 22.2611C53.2675 22.7648 53.0085 23.2453 52.7772 23.7413C52.4402 24.4647 52.1108 25.1932 51.7613 25.9088C51.3187 26.8156 50.939 27.7559 50.3808 28.6007C50.1947 28.8823 49.9809 29.1303 49.7043 29.324C49.141 29.7219 48.5551 29.3421 48.359 28.8745C48.1251 28.3165 48.105 27.7172 48.1327 27.1204C48.1628 26.5056 48.281 25.9011 48.2961 25.2836C48.3062 24.8677 48.3439 24.4492 48.3816 24.0333C48.3841 23.9997 48.3967 23.9609 48.3615 23.9222C48.1905 24.134 48.0673 24.3717 47.9365 24.6042C47.5468 25.294 47.1922 26.0018 46.8175 26.6993C46.2492 27.7663 45.6809 28.8461 45.0271 29.8769ZM65.4886 17.6988C65.9865 17.5851 66.3562 17.2493 66.7309 16.9264C66.233 17.04 65.8256 17.3139 65.471 17.6781C65.4585 17.691 65.4258 17.6962 65.4434 17.7169C65.4559 17.7375 65.4786 17.722 65.4886 17.6988ZM44.6675 26.038C44.6675 26.0922 44.6575 26.1491 44.67 26.2007C44.6977 26.3118 44.7027 26.4513 44.8435 26.4823C44.9592 26.5082 45.0397 26.4177 45.1101 26.3402C45.2383 26.1904 45.3691 26.0406 45.4822 25.8778C46.4378 24.5241 47.2324 23.0697 47.9944 21.5971C48.183 21.2303 48.364 20.8583 48.4872 20.4604C48.4998 20.4217 48.5375 20.3752 48.4948 20.3416C48.4495 20.3028 48.4042 20.3416 48.3665 20.3674C48.2232 20.4708 48.0874 20.5819 47.9717 20.7162C47.5543 21.1941 47.1344 21.672 46.7597 22.1887C46.1738 22.9947 45.5677 23.7827 45.1025 24.6714C44.8787 25.095 44.6927 25.542 44.6675 26.038ZM45.0975 22.5323C45.09 22.5271 45.0849 22.5246 45.0774 22.5194C45.0724 22.5271 45.0699 22.5375 45.0648 22.5452C45.0724 22.5478 45.0774 22.553 45.0849 22.5556C45.09 22.5478 45.095 22.5401 45.0975 22.5323Z" fill="#A69479"/>
<path d="M65.4888 17.6988C65.4788 17.722 65.4561 17.735 65.4436 17.7169C65.426 17.6936 65.4586 17.6885 65.4712 17.6755C65.4788 17.6859 65.4838 17.691 65.4888 17.6988Z" fill="white"/>
<path d="M45.0976 22.5323C45.0926 22.5401 45.0901 22.5478 45.0851 22.5556C45.0775 22.553 45.0725 22.5478 45.0649 22.5452C45.07 22.5375 45.0725 22.5272 45.0775 22.5194C45.0851 22.5246 45.0926 22.5272 45.0976 22.5323Z" fill="white"/>
<path d="M28.1586 11.9198C27.9423 11.8087 27.9272 11.7467 27.9272 11.3282C27.9272 10.5454 27.9951 9.92024 28.0052 9.67223C28.0203 9.50173 28.0555 9.42423 28.1284 9.42423C28.2215 9.42423 28.2365 9.47073 28.2365 9.59215C28.2365 9.73423 28.2365 9.95124 28.2768 10.1734C28.5081 11.3282 29.514 11.7622 30.5274 11.7622C31.9833 11.7622 32.6975 10.6875 32.6975 9.68515C32.6975 8.61046 32.2574 7.98269 30.9549 6.877L30.2734 6.29832C28.664 4.94463 28.2944 3.97844 28.2944 2.91408C28.2944 1.24521 29.514 0.108521 31.4377 0.108521C32.0336 0.108521 32.4737 0.165355 32.8534 0.260941C33.1401 0.322942 33.2633 0.341026 33.3815 0.341026C33.5097 0.341026 33.5349 0.37461 33.5349 0.452111C33.5349 0.532197 33.472 1.04112 33.472 2.10548C33.472 2.35349 33.4469 2.46457 33.3689 2.46457C33.2759 2.46457 33.2608 2.38449 33.2457 2.26565C33.2306 2.07448 33.1376 1.65339 33.0445 1.4803C32.9515 1.31238 32.5466 0.656199 31.146 0.656199C30.0999 0.656199 29.2801 1.32788 29.2801 2.46716C29.2801 3.35584 29.6749 3.91644 31.1359 5.08671L31.5609 5.43547C33.3513 6.88475 33.7763 7.85094 33.7763 9.10389C33.7763 9.74198 33.5298 10.9278 32.4837 11.6899C31.8325 12.16 31.0127 12.3435 30.1904 12.3435C29.4763 12.3383 28.7797 12.2324 28.1586 11.9198Z" fill="white"/>
</g>
<defs>
<clipPath id="clip0">
<rect width="104" height="34" fill="white"/>
</clipPath>
</defs>
</svg>
