<svg width="11" height="13" fill="none" xmlns="http://www.w3.org/2000/svg"><path d="M4.312 7.712c0-.501.112-.917.336-1.248.224-.341.544-.71.96-1.104.267-.256.459-.464.576-.624a.806.806 0 00.192-.512.608.608 0 00-.304-.544c-.203-.139-.459-.208-.768-.208-.341 0-.661.101-.96.304a2.005 2.005 0 00-.704.784L.792 3.136A4.574 4.574 0 012.68 1.232C3.523.773 4.557.544 5.784.544c1.301 0 2.357.267 3.168.8.81.533 1.216 1.285 1.216 2.256 0 .448-.08.843-.24 1.184-.15.33-.33.613-.544.848a9.952 9.952 0 01-.816.752 6.844 6.844 0 00-.736.72.933.933 0 00-.224.608H4.312zM5.96 12.16c-.619 0-1.125-.187-1.52-.56a1.802 1.802 0 01-.592-1.36c0-.544.197-.992.592-1.344.395-.363.901-.544 1.52-.544s1.125.181 1.52.544c.395.352.592.8.592 1.344 0 .533-.197.987-.592 1.36-.395.373-.901.56-1.52.56z" fill="#6672FB"/></svg>