<svg width="112" height="150" viewBox="0 0 112 150" fill="none" xmlns="http://www.w3.org/2000/svg">
<path d="M2.42219 130.647C1.08218 130.647 0 129.565 0 128.228C0 116.219 9.77866 106.452 21.7998 106.452C23.1398 106.452 24.2219 107.533 24.2219 108.872C24.2219 110.209 23.1398 111.291 21.7998 111.291C12.4528 111.291 4.84439 118.89 4.84439 128.228C4.84439 129.565 3.76221 130.647 2.42219 130.647Z" fill="#6672FB"/>
<path d="M109.006 130.65C107.668 130.65 106.584 129.568 106.584 128.23C106.584 118.692 96.167 111.294 87.2044 111.294C85.8656 111.294 84.7822 110.212 84.7822 108.874C84.7822 107.536 85.8656 106.455 87.2044 106.455C98.64 106.455 111.429 115.767 111.429 128.23C111.429 129.568 110.347 130.65 109.006 130.65Z" fill="#6672FB"/>
<path d="M38.7588 111.294L21.8011 111.291C20.4611 111.291 19.3789 110.207 19.3789 108.872C19.3789 107.533 20.4646 106.452 21.8011 106.452L38.7588 106.455C40.0988 106.455 41.181 107.538 41.181 108.874C41.181 110.212 40.0965 111.294 38.7588 111.294Z" fill="#6672FB"/>
<path d="M87.2034 111.294L72.6702 111.288C71.3314 111.288 70.248 110.205 70.248 108.868C70.248 107.531 71.3338 106.449 72.6702 106.449L87.2034 106.455C88.5434 106.455 89.6256 107.538 89.6256 108.874C89.6256 110.212 88.541 111.294 87.2034 111.294Z" fill="#6672FB"/>
<path d="M2.42456 147.58C1.0881 147.58 0.00236542 146.499 0.00236542 145.161L0 128.228C0 126.892 1.08218 125.809 2.42219 125.809C3.75866 125.809 4.84439 126.89 4.84439 128.228L4.84675 145.161C4.84675 146.497 3.76457 147.58 2.42456 147.58Z" fill="#6672FB"/>
<path d="M4.84439 150C2.17264 150 0 147.83 0 145.161C0 143.824 1.08336 142.742 2.42219 142.742C3.76221 142.742 4.84439 143.824 4.84439 145.161V145.167C6.1844 145.167 7.26658 146.246 7.26658 147.584C7.26658 148.919 6.1844 150 4.84439 150Z" fill="#6672FB"/>
<path d="M106.583 150C105.244 150 104.161 148.919 104.161 147.58C104.161 146.243 105.244 145.161 106.583 145.161H106.588C106.588 143.824 107.669 142.742 109.008 142.742C110.346 142.742 111.428 143.824 111.428 145.161C111.428 147.83 109.255 150 106.583 150Z" fill="#6672FB"/>
<path d="M109.005 147.58C107.666 147.58 106.583 146.499 106.583 145.161V128.23C106.583 126.892 107.666 125.811 109.005 125.811C110.345 125.811 111.427 126.892 111.427 128.23V145.161C111.427 146.499 110.345 147.58 109.005 147.58Z" fill="#6672FB"/>
<path d="M106.583 150H4.84895C3.51012 150 2.42676 148.919 2.42676 147.58C2.42676 146.243 3.51012 145.161 4.84895 145.161H106.583C107.924 145.161 109.006 146.243 109.006 147.58C109.006 148.919 107.924 150 106.583 150Z" fill="#6672FB"/>
<path d="M38.7572 111.294C37.4183 111.294 36.335 110.212 36.335 108.874V97.4303C36.335 96.0918 37.4183 95.0108 38.7572 95.0108C40.0972 95.0108 41.1794 96.0918 41.1794 97.4303V108.874C41.1794 110.212 40.0972 111.294 38.7572 111.294Z" fill="#6672FB"/>
<path d="M72.6703 111.288C71.3314 111.288 70.248 110.207 70.248 108.869V97.4269C70.248 96.0895 71.3314 95.0074 72.6703 95.0074C74.0103 95.0074 75.0925 96.0895 75.0925 97.4269V108.869C75.0925 110.207 74.0103 111.288 72.6703 111.288Z" fill="#6672FB"/>
<path d="M55.716 104.036C34.348 104.036 16.9609 86.668 16.9609 65.3239C16.9609 63.9854 18.0443 62.9044 19.3831 62.9044C20.7231 62.9044 21.8053 63.9854 21.8053 65.3239C21.8053 84.0016 37.0162 99.1966 55.716 99.1966C74.4159 99.1966 89.6267 84.0016 89.6267 65.3239C89.6267 63.9854 90.7101 62.9044 92.0489 62.9044C93.3889 62.9044 94.4711 63.9854 94.4711 65.3239C94.4711 86.668 77.0853 104.036 55.716 104.036Z" fill="#6672FB"/>
<path d="M19.3831 67.7434C18.0443 67.7434 16.9609 66.6612 16.9609 65.3239V51.4331C16.9609 50.0946 18.0443 49.0136 19.3831 49.0136C20.7231 49.0136 21.8053 50.0946 21.8053 51.4331V65.3239C21.8053 66.6612 20.7231 67.7434 19.3831 67.7434Z" fill="#6672FB"/>
<path d="M92.0443 67.7433C90.7054 67.7433 89.6221 66.6612 89.6221 65.3239V51.4473C89.6221 50.1099 90.7054 49.0278 92.0443 49.0278C93.3843 49.0278 94.4665 50.1099 94.4665 51.4473V65.3239C94.4665 66.6612 93.3843 67.7433 92.0443 67.7433Z" fill="#6672FB"/>
<path d="M46.0224 116.127C45.5624 116.127 45.0952 115.995 44.6801 115.721L37.4135 110.886C36.3017 110.147 35.999 108.644 36.7429 107.531C37.4844 106.418 38.9841 106.118 40.103 106.862L47.3695 111.696C48.4813 112.435 48.7841 113.938 48.0401 115.051C47.5753 115.75 46.8054 116.127 46.0224 116.127Z" fill="#6672FB"/>
<path d="M46.0238 116.127C44.9381 116.127 43.9529 115.394 43.6761 114.293C43.3497 112.996 44.1398 111.685 45.4396 111.361L55.1283 108.944C56.4198 108.612 57.7397 109.406 58.065 110.706C58.3914 112.003 57.6014 113.314 56.3016 113.638L46.6128 116.055C46.4165 116.103 46.2178 116.127 46.0238 116.127Z" fill="#6672FB"/>
<path d="M65.4071 116.127C64.6253 116.127 63.8542 115.75 63.3894 115.051C62.6454 113.938 62.9482 112.435 64.06 111.696L71.3266 106.862C72.4407 106.118 73.9427 106.418 74.6866 107.531C75.4306 108.644 75.1278 110.147 74.016 110.886L66.7495 115.721C66.3343 115.995 65.8672 116.127 65.4071 116.127Z" fill="#6672FB"/>
<path d="M65.4059 116.127C65.2119 116.127 65.0132 116.103 64.8169 116.055L55.1281 113.638C53.8307 113.314 53.0406 112.003 53.3647 110.705C53.6876 109.408 55.0051 108.612 56.3013 108.944L65.9901 111.361C67.2876 111.685 68.0776 112.996 67.7536 114.293C67.4768 115.392 66.4916 116.127 65.4059 116.127Z" fill="#6672FB"/>
<path d="M96.8999 104.027H82.3597C81.0209 104.027 79.9375 102.946 79.9375 101.608C79.9375 100.27 81.0209 99.1882 82.3597 99.1882H96.8999C98.2399 99.1882 99.3221 100.27 99.3221 101.608C99.3221 102.946 98.2399 104.027 96.8999 104.027Z" fill="#FF5A4C"/>
<path d="M29.0738 104.027H14.5335C13.1935 104.027 12.1113 102.946 12.1113 101.608C12.1113 100.27 13.1935 99.1882 14.5335 99.1882H29.0738C30.4138 99.1882 31.496 100.27 31.496 101.608C31.496 102.946 30.4138 104.027 29.0738 104.027Z" fill="#FF5A4C"/>
<path d="M55.7165 65.3476C20.7769 65.3476 17.3222 52.7174 17.0466 51.2784C16.7923 49.9671 17.6498 48.6995 18.965 48.4455C20.2458 48.1891 21.5007 49.0161 21.7869 50.2908C21.8886 50.6251 25.2239 60.511 55.7165 60.511C86.5877 60.511 89.697 50.3759 89.7266 50.2719C90.0708 49.0137 91.354 48.2057 92.629 48.5081C93.898 48.8058 94.7141 50.0155 94.4598 51.2926C94.1736 52.7304 90.6444 65.3476 55.7165 65.3476Z" fill="#6672FB"/>
<path d="M92.0852 53.2383H19.4241C18.0841 53.2383 17.002 52.1561 17.002 50.8188C17.002 49.4803 18.0841 48.3993 19.4241 48.3993H92.0852C93.424 48.3993 94.5074 49.4803 94.5074 50.8188C94.5074 52.1561 93.4217 53.2383 92.0852 53.2383Z" fill="#6672FB"/>
<path d="M92.0852 41.1385H19.4241C18.0841 41.1385 17.002 40.0563 17.002 38.719C17.002 37.3805 18.0841 36.2995 19.4241 36.2995H92.0852C93.424 36.2995 94.5074 37.3805 94.5074 38.719C94.5074 40.0563 93.4217 41.1385 92.0852 41.1385Z" fill="#6672FB"/>
<path d="M19.4241 53.2383C18.0841 53.2383 17.002 52.1561 17.002 50.8188V38.719C17.002 37.3805 18.0841 36.2995 19.4241 36.2995C20.763 36.2995 21.8463 37.3805 21.8463 38.719V50.8188C21.8463 52.1561 20.7606 53.2383 19.4241 53.2383Z" fill="#6672FB"/>
<path d="M92.0833 53.2383C90.7433 53.2383 89.6611 52.1561 89.6611 50.8188V38.719C89.6611 37.3805 90.7433 36.2995 92.0833 36.2995C93.4222 36.2995 94.5056 37.3805 94.5056 38.719V50.8188C94.5056 52.1561 93.4198 53.2383 92.0833 53.2383Z" fill="#6672FB"/>
<path d="M92.0793 41.1384C91.657 41.1384 91.2289 41.0297 90.841 40.797C89.6902 40.1118 89.3153 38.6292 89.9977 37.4797L97.2217 25.3705C97.9065 24.2186 99.392 23.8441 100.542 24.5281C101.692 25.2133 102.068 26.696 101.385 27.8455L94.162 39.9547C93.709 40.7167 92.9048 41.1384 92.0793 41.1384Z" fill="#6672FB"/>
<path d="M99.3069 29.0293C98.5216 29.0293 97.7516 28.6489 97.2868 27.9472L87.6465 13.435C86.9049 12.3221 87.2101 10.8194 88.3242 10.0822C89.4383 9.33676 90.9404 9.64628 91.6819 10.7591L101.322 25.2713C102.064 26.3842 101.759 27.8869 100.643 28.6241C100.232 28.8982 99.767 29.0293 99.3069 29.0293Z" fill="#6672FB"/>
<path d="M89.6644 14.517C89.4409 14.517 89.2186 14.4851 88.9986 14.4249L55.0465 4.74459C53.7597 4.376 53.0146 3.03867 53.38 1.75332C53.7478 0.466792 55.102 -0.262124 56.3735 0.088748L90.3256 9.76903C91.6124 10.1376 92.3575 11.475 91.992 12.7603C91.6869 13.8247 90.7159 14.517 89.6644 14.517Z" fill="#6672FB"/>
<path d="M19.381 41.1384C18.5555 41.1384 17.7512 40.7166 17.2982 39.957L10.0754 27.8478C9.3918 26.6983 9.7679 25.2157 10.9175 24.5304C12.0683 23.8464 13.5538 24.2209 14.2386 25.3728L21.4614 37.482C22.145 38.6315 21.7689 40.1141 20.6193 40.7993C20.2314 41.0297 19.802 41.1384 19.381 41.1384Z" fill="#6672FB"/>
<path d="M12.1599 29.0293C11.7022 29.0293 11.235 28.8982 10.8222 28.6241C9.70813 27.8869 9.40299 26.3842 10.1446 25.2713L19.7849 10.7591C20.5217 9.64628 22.0249 9.33676 23.1426 10.0822C24.2567 10.8194 24.5618 12.3221 23.8203 13.435L14.18 27.9472C13.7128 28.6489 12.944 29.0293 12.1599 29.0293Z" fill="#6672FB"/>
<path d="M21.7996 14.5172C20.7458 14.5172 19.7771 13.8249 19.472 12.7605C19.1065 11.4751 19.8493 10.1378 21.1384 9.76918L55.0882 0.0888929C56.362 -0.264342 57.7138 0.464574 58.0816 1.75347C58.4471 3.03882 57.7032 4.37615 56.4152 4.74474L22.4654 14.425C22.2454 14.4853 22.0219 14.5172 21.7996 14.5172Z" fill="#6672FB"/>
<path d="M55.7522 31.4488C50.4088 31.4488 46.0635 27.1073 46.0635 21.7709C46.0635 16.4334 50.4088 12.093 55.7522 12.093C61.0957 12.093 65.441 16.4334 65.441 21.7709C65.441 27.1073 61.0957 31.4488 55.7522 31.4488ZM55.7522 16.932C53.0805 16.932 50.9079 19.1022 50.9079 21.7709C50.9079 24.4385 53.0805 26.6099 55.7522 26.6099C58.424 26.6099 60.5966 24.4385 60.5966 21.7709C60.5966 19.1022 58.4216 16.932 55.7522 16.932Z" fill="#FF5A4C"/>
<path d="M53.3313 123.386C52.7139 123.386 52.0953 123.152 51.6234 122.681L44.3178 115.423C43.3681 114.48 43.3633 112.95 44.3083 112.003C45.2533 111.057 46.7838 111.05 47.7335 111.992L55.0391 119.251C55.9876 120.195 55.9935 121.723 55.0486 122.672C54.5731 123.147 53.951 123.386 53.3313 123.386Z" fill="#6672FB"/>
<path d="M58.176 123.386C57.5586 123.386 56.9401 123.152 56.4682 122.681C55.5185 121.739 55.5137 120.209 56.4587 119.261L63.6863 112.003C64.6312 111.057 66.1617 111.05 67.1114 111.992C68.0611 112.936 68.0658 114.465 67.1208 115.414L59.8933 122.672C59.4179 123.147 58.7958 123.386 58.176 123.386Z" fill="#6672FB"/>
<path d="M58.1758 123.386H53.3314C51.9914 123.386 50.9092 122.305 50.9092 120.966C50.9092 119.629 51.9914 118.547 53.3314 118.547H58.1758C59.5146 118.547 60.5979 119.629 60.5979 120.966C60.5979 122.305 59.5122 123.386 58.1758 123.386Z" fill="#6672FB"/>
<path d="M48.4904 150C48.345 150 48.2018 149.988 48.054 149.962C46.7365 149.72 45.8648 148.462 46.1025 147.148L50.9469 120.534C51.1835 119.217 52.4478 118.359 53.7606 118.583C55.0781 118.825 55.9509 120.083 55.7109 121.397L50.8712 148.011C50.6583 149.182 49.6388 150 48.4904 150Z" fill="#6672FB"/>
<path d="M62.9717 150C61.8209 150 60.8015 149.18 60.5909 148.012L55.7879 121.397C55.5502 120.081 56.4266 118.825 57.7418 118.586C59.0818 118.343 60.3165 119.225 60.5566 120.538L65.3596 147.153C65.5974 148.469 64.721 149.725 63.4058 149.964C63.2579 149.988 63.1148 150 62.9717 150Z" fill="#6672FB"/>
<path d="M82.374 137.886C78.3681 137.886 75.1074 134.63 75.1074 130.627C75.1074 126.626 78.3681 123.369 82.374 123.369C86.381 123.369 89.6405 126.626 89.6405 130.627C89.6405 134.63 86.381 137.886 82.374 137.886ZM82.374 128.208C81.0375 128.208 79.9518 129.292 79.9518 130.627C79.9518 131.964 81.0375 133.047 82.374 133.047C83.7116 133.047 84.7962 131.964 84.7962 130.627C84.7962 129.292 83.7116 128.208 82.374 128.208Z" fill="#FF5A4C"/>
<path d="M26.683 24.1904C25.796 24.1904 24.9432 23.7037 24.5174 22.859L19.634 13.1858C19.0308 11.9938 19.5134 10.5371 20.7067 9.93699C21.9013 9.3274 23.3572 9.81295 23.9604 11.0061L28.8438 20.6793C29.447 21.8725 28.9668 23.328 27.7723 23.9282C27.4186 24.1077 27.0484 24.1904 26.683 24.1904Z" fill="#6672FB"/>
<path d="M84.793 24.1903C84.4275 24.1903 84.055 24.1076 83.7061 23.9304C82.5115 23.3302 82.0325 21.8747 82.6357 20.6815L87.5179 11.0083C88.1187 9.81514 89.5699 9.32959 90.7716 9.93919C91.9661 10.5393 92.4451 11.996 91.8419 13.188L86.9585 22.8612C86.5327 23.7035 85.68 24.1903 84.793 24.1903Z" fill="#6672FB"/>
</svg>
