<svg width="150" height="150" viewBox="0 0 150 150" fill="none" xmlns="http://www.w3.org/2000/svg">
<g clip-path="url(#clip0)">
<path d="M148.954 53.8855L132.195 10.3141C129.02 2.07734 119.768 -2.02543 111.531 1.15014C111.412 1.19634 111.292 1.2438 111.174 1.29281L27.4276 36.0081C19.4534 39.2792 15.5342 48.3055 18.5889 56.3652L20.8916 62.5116H15.6094C6.9927 62.5213 0.00967782 69.5043 0 78.121V134.315C0.00967782 142.931 6.9927 149.915 15.6094 149.924H121.753C130.37 149.915 137.353 142.931 137.363 134.315V78.121C137.358 77.2737 137.282 76.4283 137.138 75.5935L140.037 74.4197C148.083 71.122 152.037 62.0155 148.954 53.8855ZM15.6094 67.5069H121.753C127.359 67.5228 131.983 71.9006 132.305 77.4969H5.05744C5.37962 71.9003 10.0037 67.5225 15.6094 67.5069ZM40.7118 52.462L57.4051 44.1128L60.8367 52.6967L44.1434 61.0434L40.7118 52.462ZM132.368 134.315C132.361 140.175 127.613 144.923 121.753 144.929H15.6094C9.74994 144.923 5.00187 140.175 4.99501 134.315V102.472H132.368V134.315ZM132.368 97.4769H4.99501V82.4919H132.368V97.4769ZM138.164 69.8046L135.554 70.8611C132.859 65.7337 127.546 62.52 121.753 62.5119H52.3776L65.1274 56.1358C66.29 55.5554 66.8135 54.1805 66.3312 52.9739L61.034 39.7372C60.5217 38.4566 59.0684 37.8335 57.7878 38.3454C57.7232 38.3714 57.6598 38.3998 57.5977 38.431L36.4214 49.0254C35.2597 49.6067 34.7375 50.9812 35.2201 52.1872L39.351 62.5119H26.2238L23.2667 54.6248C21.1704 49.0872 23.863 42.8872 29.3407 40.6388L113.084 5.92349C118.683 3.60206 125.103 6.25847 127.425 11.8569C127.461 11.944 127.496 12.0318 127.53 12.1198L144.288 55.6912C146.408 61.2778 143.693 67.5366 138.164 69.8046Z" fill="#6672FB"/>
<path d="M89.8398 137.906C94.4939 140.61 100.241 140.61 104.895 137.906C112.051 142.064 121.223 139.633 125.38 132.477C129.537 125.321 127.106 116.149 119.95 111.992C117.654 110.658 115.044 109.958 112.388 109.964C109.755 109.965 107.169 110.665 104.895 111.992C97.7391 107.835 88.5677 110.265 84.4103 117.421C80.2529 124.578 82.6839 133.749 89.8398 137.906ZM109.071 115.569C110.133 115.177 111.255 114.971 112.388 114.959C117.905 114.959 122.378 119.432 122.378 124.949C122.378 130.467 117.905 134.939 112.388 134.939C111.255 134.928 110.133 134.722 109.071 134.33C113.493 128.858 113.493 121.041 109.071 115.569ZM104.895 118.411C108.225 122.134 108.225 127.765 104.895 131.488C101.565 127.765 101.565 122.134 104.895 118.411ZM97.4026 114.959C98.5349 114.971 99.6569 115.177 100.719 115.569C96.2974 121.041 96.2974 128.858 100.719 134.33C99.6569 134.722 98.5349 134.928 97.4026 134.939C91.8853 134.939 87.4126 130.467 87.4126 124.949C87.4126 119.432 91.8853 114.959 97.4026 114.959Z" fill="#FF5A4C"/>
<path d="M105.35 51.6184L107.379 56.1828L131.205 45.5916L129.176 41.0271L105.35 51.6184Z" fill="#FF5A4C"/>
<path d="M123.859 30.4534L89.4443 46.3381L91.5367 50.8713L125.952 34.9866L123.859 30.4534Z" fill="#FF5A4C"/>
</g>
<defs>
<clipPath id="clip0">
<rect width="150" height="150" fill="white"/>
</clipPath>
</defs>
</svg>
