<svg width="150" height="150" viewBox="0 0 150 150" fill="none" xmlns="http://www.w3.org/2000/svg">
<g clip-path="url(#clip0)">
<path d="M123.32 44.2276C122.776 43.6827 122.02 43.3695 121.25 43.3695C120.48 43.3695 119.724 43.6827 119.179 44.2276C118.635 44.7725 118.321 45.5281 118.321 46.2983C118.321 47.0685 118.634 47.8241 119.179 48.3687C119.724 48.9133 120.48 49.2271 121.25 49.2271C122.02 49.2271 122.776 48.9136 123.32 48.3687C123.865 47.8244 124.179 47.0685 124.179 46.2983C124.179 45.5281 123.865 44.7722 123.32 44.2276Z" fill="#FF5A4C"/>
<path d="M121.25 37.6585C122.868 37.6585 124.179 36.3468 124.179 34.7296V8.81016C124.179 3.96535 120.238 0.0240479 115.393 0.0240479H8.78641C3.94159 0.0237549 0 3.96535 0 8.81016V141.19C0 146.035 3.94159 149.976 8.78641 149.976H115.393C120.238 149.976 124.18 146.035 124.18 141.19V128.036C124.18 126.418 122.868 125.107 121.251 125.107C119.634 125.107 118.322 126.418 118.322 128.036V141.19C118.322 142.805 117.008 144.119 115.393 144.119H8.78641C7.17157 144.119 5.85761 142.805 5.85761 141.19V8.81016C5.85761 7.19532 7.17157 5.88136 8.78641 5.88136H115.393C117.008 5.88136 118.322 7.19532 118.322 8.81016V34.7296C118.322 36.3468 119.633 37.6585 121.25 37.6585Z" fill="#6672FB"/>
<path d="M147.427 117.819L132.319 102.711C134.92 98.0667 136.407 92.7174 136.407 87.0265C136.407 69.2727 121.963 54.8287 104.209 54.8287C104.032 54.8287 103.855 54.8325 103.679 54.8355V38.7205C103.679 37.1033 102.367 35.7917 100.75 35.7917H83.6331V19.9767C83.6331 18.3595 82.3215 17.0479 80.7043 17.0479H60.6588C59.0416 17.0479 57.73 18.3595 57.73 19.9767V37.5492H40.6131C38.9959 37.5492 37.6843 38.8608 37.6843 40.478V56.2933H23.4308C21.8136 56.2933 20.502 57.6049 20.502 59.2221V75.0374C20.502 76.6546 21.8136 77.9662 23.4308 77.9662H73.3107C72.466 80.8417 72.0108 83.8818 72.0108 87.0268C72.0108 104.781 86.4544 119.225 104.209 119.225C109.899 119.225 115.249 117.739 119.893 115.137L134.902 130.146C136.67 131.914 138.968 132.805 141.257 132.805C143.393 132.805 145.52 132.029 147.198 130.465C148.962 128.823 149.956 126.594 149.999 124.189C150.042 121.782 149.128 119.521 147.427 117.819ZM37.684 72.1086H26.3596V62.1509H37.6843V72.1086H37.684ZM57.7297 72.1086H43.5416V59.2221V43.4068H57.7297V72.1086ZM63.587 72.1086V40.478V22.9055H77.7752V38.7208V49.3247V53.3276C77.7752 54.9447 79.0868 56.2564 80.704 56.2564C82.3212 56.2564 83.6328 54.9447 83.6328 53.3276V49.3247V41.6496H97.8213V55.4662C88.1987 57.4107 80.1192 63.6594 75.6828 72.1086H63.587ZM104.209 113.367C89.6847 113.367 77.8681 101.55 77.8681 87.0265C77.8681 72.5026 89.6844 60.686 104.209 60.686C118.733 60.686 130.549 72.5023 130.549 87.0265C130.549 101.551 118.733 113.367 104.209 113.367ZM143.206 126.179C142.067 127.239 140.201 127.161 139.044 126.003L124.8 111.759C126.302 110.506 127.689 109.12 128.942 107.617L143.285 121.96C143.852 122.528 144.157 123.282 144.143 124.084C144.128 124.886 143.796 125.63 143.206 126.179Z" fill="#6672FB"/>
<path d="M111.834 72.0511C110.425 71.2562 108.638 71.7525 107.843 73.1617L92.0957 101.056C91.3006 102.465 91.7974 104.252 93.2063 105.047C93.6613 105.304 94.1555 105.426 94.6433 105.426C95.6652 105.426 96.6581 104.89 97.1963 103.936L112.944 76.0416C113.739 74.6324 113.242 72.8462 111.834 72.0511Z" fill="#FF5A4C"/>
<path d="M114.442 89.527C109.597 89.527 105.655 93.4686 105.655 98.3134C105.655 103.158 109.597 107.1 114.442 107.1C119.287 107.1 123.228 103.158 123.228 98.3134C123.228 93.4683 119.287 89.527 114.442 89.527ZM114.442 101.242C112.827 101.242 111.513 99.928 111.513 98.3131C111.513 96.6983 112.827 95.3843 114.442 95.3843C116.057 95.3843 117.37 96.6983 117.37 98.3131C117.37 99.928 116.057 101.242 114.442 101.242Z" fill="#FF5A4C"/>
<path d="M93.9749 66.9534C89.1301 66.9534 85.1885 70.895 85.1885 75.7398C85.1885 80.5847 89.1301 84.5263 93.9749 84.5263C98.8197 84.5263 102.761 80.5847 102.761 75.7398C102.761 70.895 98.8194 66.9534 93.9749 66.9534ZM93.9749 78.6684C92.36 78.6684 91.0461 77.3544 91.0461 75.7396C91.0461 74.1247 92.36 72.8107 93.9749 72.8107C95.5897 72.8107 96.9037 74.1247 96.9037 75.7396C96.9037 77.3544 95.5897 78.6684 93.9749 78.6684Z" fill="#FF5A4C"/>
<path d="M99.831 128.303H18.7433C17.1261 128.303 15.8145 129.615 15.8145 131.232C15.8145 132.849 17.1261 134.161 18.7433 134.161H99.831C101.448 134.161 102.76 132.849 102.76 131.232C102.76 129.615 101.448 128.303 99.831 128.303Z" fill="#FF5A4C"/>
<path d="M62.0894 111.902H43.9298C42.3126 111.902 41.001 113.214 41.001 114.831C41.001 116.448 42.3126 117.76 43.9298 117.76H62.0894C63.7066 117.76 65.0182 116.448 65.0182 114.831C65.0182 113.214 63.7066 111.902 62.0894 111.902Z" fill="#FF5A4C"/>
<path d="M74.8999 112.761C74.3553 112.216 73.5994 111.902 72.8292 111.902C72.059 111.902 71.3034 112.216 70.7585 112.761C70.2109 113.305 69.9004 114.061 69.9004 114.831C69.9004 115.601 70.2109 116.357 70.7585 116.902C71.3031 117.446 72.0563 117.76 72.8292 117.76C73.5994 117.76 74.355 117.447 74.8999 116.902C75.4442 116.357 75.758 115.601 75.758 114.831C75.758 114.061 75.4448 113.305 74.8999 112.761Z" fill="#FF5A4C"/>
<path d="M62.0894 95.5012H43.9298C42.3126 95.5012 41.001 96.8128 41.001 98.43C41.001 100.047 42.3126 101.359 43.9298 101.359H62.0894C63.7066 101.359 65.0182 100.047 65.0182 98.43C65.0182 96.8128 63.7066 95.5012 62.0894 95.5012Z" fill="#FF5A4C"/>
<path d="M25.1865 102.967C23.2485 102.967 21.6721 101.657 21.6721 100.047C21.6721 98.4378 23.2485 97.1286 25.1865 97.1286C27.1245 97.1286 28.701 98.4381 28.701 100.047C28.701 101.665 30.0126 102.976 31.6298 102.976C33.2469 102.976 34.5586 101.665 34.5586 100.047C34.5586 96.1647 31.8512 92.8653 28.1124 91.7116C28.0822 90.1205 26.7849 88.8387 25.1865 88.8387C23.5881 88.8387 22.2905 90.1205 22.2606 91.7116C18.5218 92.8653 15.8145 96.1647 15.8145 100.047C15.8145 104.887 20.0185 108.824 25.1865 108.824C27.1245 108.824 28.701 110.134 28.701 111.743C28.701 113.352 27.1245 114.662 25.1865 114.662C23.2485 114.662 21.6721 113.352 21.6721 111.743C21.6721 110.126 20.3604 108.814 18.7433 108.814C17.1261 108.814 15.8145 110.126 15.8145 111.743C15.8145 115.625 18.5203 118.923 22.2577 120.078V120.247C22.2577 121.864 23.5693 123.176 25.1865 123.176C26.8037 123.176 28.1153 121.864 28.1153 120.247V120.078C31.8527 118.923 34.5586 115.625 34.5586 111.743C34.5586 106.904 30.3542 102.967 25.1865 102.967Z" fill="#FF5A4C"/>
</g>
<defs>
<clipPath id="clip0">
<rect width="150" height="150" fill="white"/>
</clipPath>
</defs>
</svg>
