<svg width="150" height="150" viewBox="0 0 150 150" fill="none" xmlns="http://www.w3.org/2000/svg">
<g clip-path="url(#clip0)">
<path d="M128.114 21.8634C128.686 22.4353 129.436 22.7215 130.186 22.7215C130.936 22.7215 131.686 22.4353 132.258 21.8634C133.402 20.719 133.402 18.8637 132.258 17.7193C128.756 14.2175 124.1 12.2886 119.148 12.2886C114.196 12.2886 109.54 14.2175 106.038 17.7193C104.894 18.8637 104.894 20.719 106.038 21.8634C107.183 23.0074 109.038 23.0074 110.182 21.8634C112.577 19.4681 115.761 18.1488 119.148 18.1488C122.535 18.1488 125.719 19.4681 128.114 21.8634Z" fill="#FF5A4C"/>
<path d="M116.278 62.0097C117.627 61.9151 119.155 61.8076 120.867 61.6262C129.107 60.7611 135.869 57.7391 140.963 52.645C146.791 46.821 150.001 39.0747 150.001 30.8326C150.001 22.5911 146.791 14.8423 140.963 9.01372C128.935 -3.00532 109.364 -3.00591 97.3329 9.01606C92.2396 14.1175 89.2182 20.8787 88.3531 29.1105C88.1729 30.8235 88.0666 32.3507 87.9728 33.6987C87.5419 39.9014 87.3608 42.4291 81.033 47.46C78.8679 43.7976 76.9783 39.81 75.3473 35.4723C74.3334 32.7711 72.3224 30.6254 69.6854 29.4313C67.0466 28.2357 64.1055 28.1396 61.4064 29.1585C55.8295 31.2571 52.9976 37.5067 55.0944 43.0904C56.5282 46.9037 58.1337 50.5233 59.9073 53.9598L59.7075 54.1596C43.3894 50.3238 26.0958 55.1964 14.2039 67.0889C-4.73333 86.0264 -4.73333 116.84 14.2039 135.778C21.7382 143.312 31.284 148.071 41.8094 149.539C44.0211 149.847 46.2503 150 48.478 150C56.5062 150 64.5116 148.019 71.5595 144.226C72.9845 143.459 73.518 141.682 72.751 140.257C71.984 138.832 70.2069 138.298 68.7822 139.066C52.3217 147.925 31.5828 144.869 18.3479 131.634C1.69587 114.981 1.69587 87.8856 18.3479 71.233C27.9708 61.6098 41.6173 57.2191 54.9163 59.2069C53.5924 61.0309 52.7258 63.1324 52.3774 65.3674C41.522 64.2105 30.7097 67.9842 22.9089 75.793C16.0566 82.6412 12.2826 91.7472 12.2826 101.434C12.2826 111.12 16.0563 120.226 22.908 127.073C29.7599 133.925 38.8672 137.699 48.5512 137.699C58.2353 137.699 67.3425 133.925 74.1945 127.073C81.9966 119.271 85.7665 108.462 84.6125 97.6104C86.8546 97.2615 88.9616 96.3911 90.7885 95.0613C92.1696 104.18 90.5917 113.459 86.1939 121.646C85.4281 123.072 85.9631 124.849 87.3886 125.614C87.8298 125.851 88.3045 125.964 88.7726 125.964C89.8171 125.964 90.8278 125.404 91.3566 124.42C96.9907 113.931 98.5548 101.871 95.8258 90.2753L96.0239 90.0773C99.4613 91.8521 103.082 93.459 106.896 94.8946C108.13 95.3586 109.413 95.5898 110.695 95.5898C112.217 95.5898 113.736 95.264 115.167 94.6151C117.804 93.4192 119.815 91.2735 120.829 88.5723C122.926 82.9877 120.09 76.7393 114.508 74.6419C110.171 73.0095 106.184 71.1187 102.523 68.9534C107.556 62.6273 110.082 62.4448 116.278 62.0097ZM70.0508 122.929C64.3056 128.674 56.6703 131.839 48.5512 131.839C40.4322 131.839 32.7968 128.674 27.0511 122.928C21.3066 117.187 18.1428 109.553 18.1428 101.433C18.1428 93.3131 21.3066 85.6792 27.0529 79.9362C33.814 73.1683 43.2719 70.0174 52.6809 71.308C53.3176 73.7279 54.5788 75.9436 56.3879 77.753L72.2246 93.59C74.034 95.4029 76.2506 96.6665 78.6722 97.3045C79.9613 106.711 76.8125 116.167 70.0508 122.929ZM88.3625 89.4501C86.7711 91.0447 84.6421 91.923 82.3677 91.923C80.0931 91.923 77.9638 91.0447 76.3707 89.448L60.5319 73.6089C57.2272 70.3045 57.2272 64.9274 60.5319 61.6227L62.8771 59.2775C62.9758 59.4407 63.0772 59.6003 63.1768 59.7621C70.097 71.0507 79.1501 80.0698 90.4768 86.9613L88.3625 89.4501ZM112.444 80.126C112.444 80.1263 112.445 80.1263 112.446 80.1266C115.004 81.0875 116.304 83.9519 115.343 86.5116C114.879 87.7461 113.957 88.7285 112.747 89.2772C111.537 89.8256 110.192 89.8728 108.96 89.4087C85.2974 80.5034 69.4718 64.6775 60.5799 41.0288C59.6187 38.4691 60.9151 35.6044 63.473 34.642C64.0384 34.4285 64.6273 34.3221 65.2159 34.3221C65.9134 34.3221 66.6104 34.4718 67.2673 34.7692C68.4766 35.317 69.3977 36.2985 69.8615 37.5336C77.7989 58.6447 91.3297 72.1787 112.444 80.126ZM97.6088 65.7345C92.4239 61.9877 87.9957 57.5589 84.2501 52.3743C92.6237 45.7675 93.2993 41.5801 93.819 34.105C93.9095 32.806 94.0115 31.3338 94.1814 29.724C94.903 22.8591 97.3587 17.2851 101.478 13.1592C111.222 3.4227 127.076 3.42212 136.819 13.1586C141.54 17.8795 144.14 24.1564 144.14 30.8329C144.14 37.5087 141.541 43.783 136.819 48.5006C132.699 52.6218 127.125 55.0769 120.252 55.7985C118.641 55.9693 117.168 56.073 115.868 56.1641C108.401 56.6882 104.217 57.3659 97.6088 65.7345Z" fill="#6672FB"/>
<path d="M78.7617 131.626L78.7535 131.634C77.6092 132.778 77.6136 134.629 78.7579 135.773C79.3292 136.345 80.0783 136.63 80.8277 136.63C81.5801 136.63 82.333 136.342 82.9061 135.769C84.0504 134.625 84.0504 132.77 82.9061 131.625C81.7611 130.482 79.9064 130.482 78.7617 131.626Z" fill="#FF5A4C"/>
</g>
<defs>
<clipPath id="clip0">
<rect width="150" height="150" fill="white"/>
</clipPath>
</defs>
</svg>
