<svg width="165" height="30" fill="none" xmlns="http://www.w3.org/2000/svg"><path fill-rule="evenodd" clip-rule="evenodd" d="M19.636 12.817L16.618 0h-5.281l5.761 19.802c.206.582.023.873-.548.873h-3.361l.857 4.715h3.91c.617 0 1.131-.07 1.543-.21.434-.14.789-.337 1.063-.593.274-.28.491-.606.652-.978.16-.373.297-.803.411-1.292L26.941 0h-4.973l-2.332 12.817zM22.73.931l-2.194 12.056-1.788.047L15.897.931h-3.335l5.406 18.583c.124.36.24.931-.082 1.445-.35.557-.955.648-1.336.648h-2.262l.519 2.852h3.149c.557 0 .966-.064 1.254-.162l.007-.002.007-.003c.325-.104.55-.238.706-.379.185-.192.333-.415.446-.677.134-.312.255-.688.36-1.135v-.004L25.778.931h-3.05zM1.476 23.865c.313.312.996.594 2.33.594h4.87l.539-2.852h-3.66c-.307 0-.701-.088-1.004-.42-.291-.32-.356-.71-.356-1V5.203c0-.29.065-.681.356-1 .303-.333.697-.42 1.005-.42h3.667L8.704.93H3.018c-.635 0-1.134.193-1.548.564-.332.315-.556.804-.556 1.613v18.44c0 1.31.264 1.995.562 2.317zm-.653.652C.274 23.935 0 22.945 0 21.548V3.108c0-1 .286-1.77.857-2.305C1.452.268 2.172 0 3.017 0h6.448l.857 4.715H5.556c-.298 0-.446.163-.446.489v14.982c0 .326.148.49.446.49h4.766l-.891 4.714H3.807c-1.418 0-2.412-.291-2.984-.873zm38.644-2.91h-5.78l.233-1.124a44.6 44.6 0 00.604-3.728c.158-1.31.283-2.632.373-3.966.09-1.363.159-2.726.204-4.09l.137-4.017.032-.899h4.197v17.823zm-3.658-8.755a77.096 77.096 0 01-.377 4.017 46.88 46.88 0 01-.617 3.806h3.738V4.715h-2.4c-.047 1.304-.092 2.642-.138 4.016a124.62 124.62 0 01-.206 4.121zM32.586 25.39h7.784V30l4.63-.873v-8.452h-1.372V0H31.317c0 2.631-.08 5.157-.24 7.579-.16 2.421-.355 4.586-.583 6.496-.206 1.885-.423 3.422-.652 4.61-.228 1.187-.411 1.85-.548 1.99h-1.338V30l4.63-.873V25.39zm-.915 2.962V24.46h9.614v4.421l2.8-.528v-6.745h-1.371V.93H32.228a114.404 114.404 0 01-.239 6.71 123.81 123.81 0 01-.587 6.541c-.207 1.897-.427 3.46-.662 4.682a20.043 20.043 0 01-.326 1.46 4.84 4.84 0 01-.162.498 1.533 1.533 0 01-.312.512l-.268.273h-.802v7.273l2.801-.528z" fill="#fff"/><mask id="a" fill="#fff"><path d="M52.102 10.763h.69L55.998.723C56.158.24 56.526 0 57.1 0h3.688l.862 4.642h-1.758c-.184 0-.299.08-.345.241l-2 6.637L61.479 25h-5.55l-2.792-10.385h-1.034V25H47V0h5.102v10.763zm16.404-6.396c-.299 0-.448.16-.448.482v15.268c0 .183.023.32.069.413.069.068.207.103.413.103h1.897c.206 0 .333-.035.379-.103.069-.092.103-.23.103-.413V4.849c0-.321-.15-.482-.448-.482h-1.965zm7.48 17.091c0 .482-.057.94-.172 1.376a2.486 2.486 0 01-.551 1.1c-.276.32-.644.585-1.103.79-.46.184-1.034.276-1.724.276h-5.86c-.69 0-1.264-.092-1.724-.275-.46-.206-.828-.47-1.103-.791a2.834 2.834 0 01-.586-1.1 6.644 6.644 0 01-.138-1.376V3.232c0-.985.264-1.765.793-2.338C64.346.298 65.197 0 66.368 0h6.275c1.172 0 2.022.298 2.55.894.53.573.794 1.353.794 2.338v18.226zM90.967 25h-5.102v-9.973h-2.723V25H78.04V0h5.102v10.729h2.723V0h5.102v25zM102.88 0l1.241 4.642h-3.344V25h-5.102V4.642h-3.344L93.641 0h9.239zm7.595 4.367v9.87h2.482c.207 0 .333-.035.379-.104.069-.091.104-.229.104-.412V4.849c0-.321-.15-.482-.449-.482h-2.516zm7.825 10.764c0 .985-.275 1.776-.827 2.372-.529.574-1.379.86-2.551.86h-4.447V25h-4.964V0h9.411c1.172 0 2.022.287 2.551.86.552.573.827 1.352.827 2.338v11.933zm7.437-10.764c-.298 0-.448.16-.448.482v15.268c0 .183.023.32.069.413.069.068.207.103.414.103h1.896c.207 0 .333-.035.379-.103.069-.092.104-.23.104-.413V4.849c0-.321-.15-.482-.449-.482h-1.965zm7.481 17.091c0 .482-.057.94-.172 1.376a2.498 2.498 0 01-.552 1.1c-.276.32-.643.585-1.103.79-.46.184-1.034.276-1.724.276h-5.86c-.69 0-1.264-.092-1.724-.275-.459-.206-.827-.47-1.103-.791a2.833 2.833 0 01-.586-1.1 6.644 6.644 0 01-.138-1.376V3.232c0-.985.264-1.765.793-2.338C121.578.298 122.428 0 123.6 0h6.274c1.172 0 2.023.298 2.551.894.529.573.793 1.353.793 2.338v18.226zM149.888 25h-5.102V4.642h-2.724V25h-6.619l-.862-4.642h2.379V0h12.928v25zm7.183-15.268h4.551c1.172 0 2.022.298 2.551.894.551.573.827 1.353.827 2.338v8.838c0 .986-.276 1.765-.827 2.338-.529.573-1.379.86-2.551.86h-9.653V0h5.102v9.732zm2.586 10.9c.298 0 .448-.16.448-.48v-5.778c0-.183-.035-.31-.104-.378-.046-.092-.172-.138-.379-.138h-2.551v6.775h2.586z"/></mask><path d="M52.102 10.763h.69L55.998.723C56.158.24 56.526 0 57.1 0h3.688l.862 4.642h-1.758c-.184 0-.299.08-.345.241l-2 6.637L61.479 25h-5.55l-2.792-10.385h-1.034V25H47V0h5.102v10.763zm16.404-6.396c-.299 0-.448.16-.448.482v15.268c0 .183.023.32.069.413.069.068.207.103.413.103h1.897c.206 0 .333-.035.379-.103.069-.092.103-.23.103-.413V4.849c0-.321-.15-.482-.448-.482h-1.965zm7.48 17.091c0 .482-.057.94-.172 1.376a2.486 2.486 0 01-.551 1.1c-.276.32-.644.585-1.103.79-.46.184-1.034.276-1.724.276h-5.86c-.69 0-1.264-.092-1.724-.275-.46-.206-.828-.47-1.103-.791a2.834 2.834 0 01-.586-1.1 6.644 6.644 0 01-.138-1.376V3.232c0-.985.264-1.765.793-2.338C64.346.298 65.197 0 66.368 0h6.275c1.172 0 2.022.298 2.55.894.53.573.794 1.353.794 2.338v18.226zM90.967 25h-5.102v-9.973h-2.723V25H78.04V0h5.102v10.729h2.723V0h5.102v25zM102.88 0l1.241 4.642h-3.344V25h-5.102V4.642h-3.344L93.641 0h9.239zm7.595 4.367v9.87h2.482c.207 0 .333-.035.379-.104.069-.091.104-.229.104-.412V4.849c0-.321-.15-.482-.449-.482h-2.516zm7.825 10.764c0 .985-.275 1.776-.827 2.372-.529.574-1.379.86-2.551.86h-4.447V25h-4.964V0h9.411c1.172 0 2.022.287 2.551.86.552.573.827 1.352.827 2.338v11.933zm7.437-10.764c-.298 0-.448.16-.448.482v15.268c0 .183.023.32.069.413.069.068.207.103.414.103h1.896c.207 0 .333-.035.379-.103.069-.092.104-.23.104-.413V4.849c0-.321-.15-.482-.449-.482h-1.965zm7.481 17.091c0 .482-.057.94-.172 1.376a2.498 2.498 0 01-.552 1.1c-.276.32-.643.585-1.103.79-.46.184-1.034.276-1.724.276h-5.86c-.69 0-1.264-.092-1.724-.275-.459-.206-.827-.47-1.103-.791a2.833 2.833 0 01-.586-1.1 6.644 6.644 0 01-.138-1.376V3.232c0-.985.264-1.765.793-2.338C121.578.298 122.428 0 123.6 0h6.274c1.172 0 2.023.298 2.551.894.529.573.793 1.353.793 2.338v18.226zM149.888 25h-5.102V4.642h-2.724V25h-6.619l-.862-4.642h2.379V0h12.928v25zm7.183-15.268h4.551c1.172 0 2.022.298 2.551.894.551.573.827 1.353.827 2.338v8.838c0 .986-.276 1.765-.827 2.338-.529.573-1.379.86-2.551.86h-9.653V0h5.102v9.732zm2.586 10.9c.298 0 .448-.16.448-.48v-5.778c0-.183-.035-.31-.104-.378-.046-.092-.172-.138-.379-.138h-2.551v6.775h2.586z" fill="#fff"/><path d="M52.102 10.763h.69L55.998.723C56.158.24 56.526 0 57.1 0h3.688l.862 4.642h-1.758c-.184 0-.299.08-.345.241l-2 6.637L61.479 25h-5.55l-2.792-10.385h-1.034V25H47V0h5.102v10.763zm16.404-6.396c-.299 0-.448.16-.448.482v15.268c0 .183.023.32.069.413.069.068.207.103.413.103h1.897c.206 0 .333-.035.379-.103.069-.092.103-.23.103-.413V4.849c0-.321-.15-.482-.448-.482h-1.965zm7.48 17.091c0 .482-.057.94-.172 1.376a2.486 2.486 0 01-.551 1.1c-.276.32-.644.585-1.103.79-.46.184-1.034.276-1.724.276h-5.86c-.69 0-1.264-.092-1.724-.275-.46-.206-.828-.47-1.103-.791a2.834 2.834 0 01-.586-1.1 6.644 6.644 0 01-.138-1.376V3.232c0-.985.264-1.765.793-2.338C64.346.298 65.197 0 66.368 0h6.275c1.172 0 2.022.298 2.55.894.53.573.794 1.353.794 2.338v18.226zM90.967 25h-5.102v-9.973h-2.723V25H78.04V0h5.102v10.729h2.723V0h5.102v25zM102.88 0l1.241 4.642h-3.344V25h-5.102V4.642h-3.344L93.641 0h9.239zm7.595 4.367v9.87h2.482c.207 0 .333-.035.379-.104.069-.091.104-.229.104-.412V4.849c0-.321-.15-.482-.449-.482h-2.516zm7.825 10.764c0 .985-.275 1.776-.827 2.372-.529.574-1.379.86-2.551.86h-4.447V25h-4.964V0h9.411c1.172 0 2.022.287 2.551.86.552.573.827 1.352.827 2.338v11.933zm7.437-10.764c-.298 0-.448.16-.448.482v15.268c0 .183.023.32.069.413.069.068.207.103.414.103h1.896c.207 0 .333-.035.379-.103.069-.092.104-.23.104-.413V4.849c0-.321-.15-.482-.449-.482h-1.965zm7.481 17.091c0 .482-.057.94-.172 1.376a2.498 2.498 0 01-.552 1.1c-.276.32-.643.585-1.103.79-.46.184-1.034.276-1.724.276h-5.86c-.69 0-1.264-.092-1.724-.275-.459-.206-.827-.47-1.103-.791a2.833 2.833 0 01-.586-1.1 6.644 6.644 0 01-.138-1.376V3.232c0-.985.264-1.765.793-2.338C121.578.298 122.428 0 123.6 0h6.274c1.172 0 2.023.298 2.551.894.529.573.793 1.353.793 2.338v18.226zM149.888 25h-5.102V4.642h-2.724V25h-6.619l-.862-4.642h2.379V0h12.928v25zm7.183-15.268h4.551c1.172 0 2.022.298 2.551.894.551.573.827 1.353.827 2.338v8.838c0 .986-.276 1.765-.827 2.338-.529.573-1.379.86-2.551.86h-9.653V0h5.102v9.732zm2.586 10.9c.298 0 .448-.16.448-.48v-5.778c0-.183-.035-.31-.104-.378-.046-.092-.172-.138-.379-.138h-2.551v6.775h2.586z" stroke="#fff" stroke-width="4" mask="url(#a)"/></svg>