<svg width="191" height="144" fill="none" xmlns="http://www.w3.org/2000/svg"><g clip-path="url(#clip0)" filter="url(#filter0_d)"><path d="M186.736 67.624H27.279v75.921h159.457v-75.92z" fill="#E6E6E6"/><path d="M182.176 74.135H31.838v63.343h150.338V74.134z" fill="#fff"/><path d="M157.035 85.925h-3.893v3.906h3.893v-3.906z" fill="#E6E6E6"/><path d="M53.196 85.925h-3.892v3.906h3.892v-3.906z" fill="#000"/><path d="M62.168 97.114H49.19v13.02h12.977v-13.02z" fill="#E6E6E6"/><path d="M186.668 63.238H27.211v6.797h159.457v-6.797z" fill="#000"/><path d="M32.245 69.404c.693 0 1.255-.564 1.255-1.26 0-.695-.562-1.26-1.255-1.26-.694 0-1.256.565-1.256 1.26 0 .696.562 1.26 1.256 1.26zm4.765 0c.694 0 1.257-.564 1.257-1.26 0-.695-.563-1.26-1.256-1.26-.694 0-1.256.565-1.256 1.26 0 .696.562 1.26 1.256 1.26zm4.767 0c.693 0 1.255-.564 1.255-1.26 0-.695-.562-1.26-1.255-1.26-.694 0-1.256.565-1.256 1.26 0 .696.562 1.26 1.256 1.26z" fill="#fff"/><path d="M107.42 98.416H75.627v1.831h31.793v-1.831z" fill="#E6E6E6"/><path d="M124.722 105.095H75.627v1.832h49.095v-1.832z" fill="#000"/><path d="M115.638 111.388H75.627v1.832h40.011v-1.832zm-16.653 6.27H75.627v1.832h23.358v-1.832zm11.895 6.269H75.627v1.832h35.253v-1.832zm52.86-38.002h-3.893v3.906h3.893v-3.906zm6.705 0h-3.893v3.906h3.893v-3.906z" fill="#E6E6E6"/><path opacity=".997" d="M162.538 119.489c4.366 0 7.906-3.551 7.906-7.932 0-4.382-3.54-7.933-7.906-7.933s-7.906 3.551-7.906 7.933c0 4.381 3.54 7.932 7.906 7.932z" fill="#000"/><path d="M42.719 21.48c4.916 0 8.9-3.999 8.9-8.931 0-4.932-3.984-8.93-8.9-8.93s-8.901 3.998-8.901 8.93c0 4.932 3.985 8.93 8.9 8.93z" fill="#2F2E41"/><path d="M20.568 88.962H16.67L14.816 73.88h5.752v15.082z" fill="#FEB8B8"/><path d="M13.887 87.845h7.517v4.748H9.155c0-1.259.499-2.467 1.386-3.357a4.724 4.724 0 013.346-1.391z" fill="#2F2E41"/><path d="M14.484 86.78l-3.718-1.171 2.732-14.948 5.487 1.728-4.5 14.39z" fill="#FEB8B8"/><path d="M8.442 83.707l7.171 2.258-1.417 4.531-11.687-3.68a4.753 4.753 0 012.325-2.787 4.72 4.72 0 013.608-.322zm7.311-2.946c-.17 0-.34-.03-.499-.09l-2.868-1.08a1.437 1.437 0 01-.894-1.653 5718.65 5718.65 0 014.529-20.29c1.597-7.054 24.904-8.365 25.895-8.417l.082-.005 2.622 3.305c.947 3.055.647 5.438-.893 7.083-4.493 4.8-17.906 1.822-19.505 1.445l-7.13 18.778a1.439 1.439 0 01-1.338.924h-.001z" fill="#2F2E41"/><path d="M19.885 82.994c-.17 0-.34-.03-.498-.09l-2.868-1.08a1.437 1.437 0 01-.894-1.653 5897.97 5897.97 0 014.529-20.29c1.598-7.055 24.904-8.365 25.895-8.418l.082-.004 2.62 3.305c.948 3.056.648 5.439-.892 7.084-4.492 4.798-17.906 1.821-19.505 1.444l-7.13 18.778a1.438 1.438 0 01-1.34.924h.001z" fill="#2F2E41"/><path d="M11.59 37.057c.105.141.2.29.281.447L27.55 39.16l2.258-3.105 5.115 2.805-4.433 7.534-19.228-4.919a3.332 3.332 0 01-5.208-.705 3.357 3.357 0 01.283-3.795 3.335 3.335 0 013.637-1.078 3.337 3.337 0 011.617 1.158z" fill="#FEB8B8"/><path d="M48.024 56.03c-.227 0-.45-.056-.651-.16-3.136-1.6-9.24-4.37-14.901-4.949a1.394 1.394 0 01-.984-.558 1.444 1.444 0 01-.265-1.12c.51-2.837 1.682-10.062 1.531-15.852a7.863 7.863 0 011.59-4.942 7.818 7.818 0 014.317-2.863 25.29 25.29 0 013.15-.623 7.856 7.856 0 016.682 2.374 7.916 7.916 0 012.08 6.8c-1.01 6-2.028 14.382-1.144 20.233a1.442 1.442 0 01-1.405 1.66z" fill="#CCC"/><path d="M33.045 40.767c-.196 0-.39-.041-.568-.12l-4.085-1.773a1.441 1.441 0 01-.744-1.887l3.157-7.318a3.668 3.668 0 011.995-1.968 3.644 3.644 0 013.977.83 3.67 3.67 0 01.758 4.004l-.02.048-3.157 7.318a1.437 1.437 0 01-1.313.866z" fill="#CCC"/><path d="M42.394 22.474c4.312 0 7.808-3.508 7.808-7.835 0-4.326-3.496-7.834-7.808-7.834-4.312 0-7.808 3.508-7.808 7.835 0 4.326 3.496 7.834 7.808 7.834z" fill="#FEB8B8"/><path d="M34.445 10.79a28.097 28.097 0 0012.184 4.028l-1.285-1.544a9.407 9.407 0 002.916.58 3.185 3.185 0 002.602-1.221 2.985 2.985 0 00.199-2.752 5.64 5.64 0 00-1.77-2.22 10.5 10.5 0 00-9.805-1.758 6.293 6.293 0 00-2.928 1.884c-.74.917-2.165 1.733-1.786 2.85l-.327.153z" fill="#2F2E41"/><path d="M43.092 4.19A15.162 15.162 0 0148.609.61a7.74 7.74 0 014.18-.521c1.395.281 2.713 1.25 3.102 2.622.318 1.123-.01 2.331-.504 3.388-.493 1.058-1.152 2.037-1.552 3.133a7.173 7.173 0 00.993 6.746 7.13 7.13 0 002.73 2.207 7.105 7.105 0 003.448.635c-1.37.185-2.633.83-3.972 1.174-1.34.344-2.92.32-3.915-.642-1.053-1.018-1.074-2.674-1.023-4.141l.226-6.54c.039-1.112.072-2.26-.328-3.298-.4-1.038-1.35-1.946-2.458-1.937-.84.007-1.584.518-2.258 1.022-.674.504-1.387 1.04-2.224 1.116-.837.075-1.793-.546-1.73-1.387" fill="#2F2E41"/><path d="M29.267 54.017a3.488 3.488 0 01-2.703-1.287 3.514 3.514 0 01-.723-2.913 3.514 3.514 0 011.786-2.408 3.49 3.49 0 012.989-.142c.143.06.282.131.416.212l14.223-6.407.4-3.87 6.13-.165-.04 6.444a3.477 3.477 0 01-.705 2.065 3.458 3.458 0 01-1.794 1.234l-16.632 4.75c-.032.11-.07.218-.113.325a3.52 3.52 0 01-1.291 1.57c-.575.385-1.25.59-1.941.592h-.002z" fill="#FEB8B8"/><path d="M51.266 40.195a1.42 1.42 0 01-.56.151l-4.442.275a1.429 1.429 0 01-1.035-.358 1.439 1.439 0 01-.48-.987l-.488-7.959c-.059-.97.27-1.924.911-2.652a3.651 3.651 0 015.158-.319 3.673 3.673 0 011.229 2.52l.487 7.96a1.443 1.443 0 01-.78 1.369z" fill="#CCC"/><path d="M42.321 52.589H15.79a.404.404 0 00-.403.404v1.424c0 .224.18.404.403.404h26.532a.404.404 0 00.403-.404v-1.424a.404.404 0 00-.403-.404z" fill="#3F3D56"/><path d="M5.191 52.749v-15.63c0-.55.219-1.076.606-1.465a2.065 2.065 0 011.46-.608H35.55a2.075 2.075 0 012.066 2.073v15.63a2.08 2.08 0 01-.605 1.465 2.066 2.066 0 01-1.46.608H7.256c-.548 0-1.073-.22-1.46-.608a2.08 2.08 0 01-.606-1.465z" fill="#3F3D56"/><path d="M21.744 46.849a1.91 1.91 0 001.907-1.914 1.91 1.91 0 00-1.907-1.914 1.91 1.91 0 00-1.908 1.914 1.91 1.91 0 001.908 1.914z" fill="#fff"/></g><defs><clipPath id="clip0"><path fill="#fff" transform="translate(3)" d="M0 0h184v138H0z"/></clipPath><filter id="filter0_d" x="-1" y="0" width="192" height="146" filterUnits="userSpaceOnUse" color-interpolation-filters="sRGB"><feFlood flood-opacity="0" result="BackgroundImageFix"/><feColorMatrix in="SourceAlpha" values="0 0 0 0 0 0 0 0 0 0 0 0 0 0 0 0 0 0 127 0"/><feOffset dy="4"/><feGaussianBlur stdDeviation="2"/><feColorMatrix values="0 0 0 0 0 0 0 0 0 0 0 0 0 0 0 0 0 0 0.25 0"/><feBlend in2="BackgroundImageFix" result="effect1_dropShadow"/><feBlend in="SourceGraphic" in2="effect1_dropShadow" result="shape"/></filter></defs></svg>