<svg width="192" height="137" fill="none" xmlns="http://www.w3.org/2000/svg"><g clip-path="url(#clip0)"><path d="M186.324 40.147H81.259a5.592 5.592 0 00-3.943 1.63 5.554 5.554 0 00-1.635 3.928v16.97a5.554 5.554 0 001.635 3.93 5.592 5.592 0 003.943 1.629h105.065a5.593 5.593 0 003.942-1.63 5.552 5.552 0 001.635-3.93V45.706a5.552 5.552 0 00-1.635-3.929 5.593 5.593 0 00-3.942-1.63z" fill="#F2F2F2"/><path d="M42.134 137H.334a.333.333 0 110-.667h41.8a.333.333 0 110 .667z" fill="#3F3D56"/><path d="M35.997 32.653a3.131 3.131 0 00-1.434 2.225 3.115 3.115 0 00.791 2.523l-3.039 6.468 3.493 2.799 4.163-9.193a3.137 3.137 0 00-1.782-5.28 3.162 3.162 0 00-2.192.458z" fill="#FFB8B8"/><path d="M18.534 35.277a4.38 4.38 0 015.88 1.314l6.217 9.279 2.16-4.743a1.335 1.335 0 011.616-.722l3.258 1.014a1.339 1.339 0 01.935 1.177 1.33 1.33 0 01-.067.523l-2.23 6.564a5.67 5.67 0 01-3.594 3.562 5.71 5.71 0 01-5.02-.707 5.68 5.68 0 01-.932-.799l-9.163-9.758a4.35 4.35 0 01-1.136-3.575 4.344 4.344 0 012.076-3.129z" fill="#CCC"/><path d="M38.649 25.69a.63.63 0 01.613.642l-.053 2.154.108.01-.039 1.463-.106-.013-.192 7.716a1.086 1.086 0 01-.977 1.055l-4.923.516a.83.83 0 01-.858-.522.822.822 0 01-.053-.353l.747-10.986a1.017 1.017 0 01.863-.939l4.752-.735a.64.64 0 01.118-.008z" fill="#3F3D56"/><path d="M34.839 26.833l2.498-.387a.206.206 0 00.174-.181.234.234 0 01.197-.206l.526-.081a.498.498 0 01.573.501l-.27 11.187a.564.564 0 01-.517.549l-4.92.436a.439.439 0 01-.475-.461l.663-10.885a.703.703 0 01.597-.654l.555-.085a.352.352 0 00.399.267z" fill="#fff"/><path d="M23.248 132.955l3.823-.001 1.818-14.695h-5.642v14.696z" fill="#FFB8B8"/><path d="M34.444 136.492l-12.015.001v-4.627H29.8a4.647 4.647 0 014.29 2.855c.233.562.353 1.163.353 1.771z" fill="#2F2E41"/><path d="M11.499 132.955l3.822-.001 1.819-14.695h-5.643l.002 14.696z" fill="#FFB8B8"/><path d="M22.694 136.492l-12.014.001v-4.627h7.372a4.65 4.65 0 013.282 1.354 4.621 4.621 0 011.36 3.272z" fill="#2F2E41"/><path d="M22.695 30.283c4.536 0 8.213-3.665 8.213-8.186 0-4.52-3.677-8.185-8.213-8.185s-8.213 3.665-8.213 8.185c0 4.521 3.677 8.186 8.213 8.186z" fill="#FFB8B8"/><path d="M26.921 43.997a12.584 12.584 0 00-1.729-5.975 12.636 12.636 0 00-4.383-4.427c-2.122-1.246-4.445-1.732-6.292.11a12.78 12.78 0 00-2.62 3.92 16.778 16.778 0 00-.313 12.493l4.398 12.11 10.178 1.098a1.34 1.34 0 001.382-.819 1.33 1.33 0 00.1-.56l-.72-17.95z" fill="#2F2E41"/><path d="M16.627 60.736s-7.604 2.83-5.616 14.81c1.784 10.75.366 46.433.056 53.646a1.334 1.334 0 001.226 1.385l4.439.368a1.341 1.341 0 001.44-1.184l2.293-20.987a.333.333 0 01.337-.297.336.336 0 01.33.305l1.707 20.195a1.34 1.34 0 001.375 1.22l3.729-.118a1.334 1.334 0 001.294-1.376l-2.196-66.568-10.414-1.4zm7.716-39.178c2.747 1.123 6.254-.189 7.582-2.835 1.329-2.646.277-6.23-2.271-7.747-2.55-1.517-6.214-.74-7.922 1.68-1.389-2.494-5.028-3.13-7.527-1.738-2.499 1.392-3.86 4.307-4.021 7.156-.162 2.848.707 5.654 1.767 8.304 1.715 4.287 7.234 6.595 11.504 4.81-1.954-2.901-1.569-7.147.888-9.63z" fill="#2F2E41"/><path d="M35.412 33.645a.338.338 0 01-.203-.067l-.004-.003-.763-.582a.337.337 0 01.162-.604.34.34 0 01.25.067l.495.378 1.169-1.52a.339.339 0 01.475-.062l-.007.01.008-.01a.338.338 0 01.063.474l-1.375 1.787a.34.34 0 01-.27.132z" fill="#7AC895"/><path d="M186.422 0H81.357a5.593 5.593 0 00-3.942 1.63 5.554 5.554 0 00-1.635 3.929v16.97a5.554 5.554 0 001.635 3.929 5.592 5.592 0 003.942 1.63h105.065a5.593 5.593 0 003.943-1.63 5.552 5.552 0 001.635-3.93V5.56a5.552 5.552 0 00-1.635-3.93A5.594 5.594 0 00186.422 0zm4.991 22.528a4.97 4.97 0 01-1.464 3.515 5.006 5.006 0 01-3.527 1.46H81.357a5.007 5.007 0 01-3.526-1.46 4.972 4.972 0 01-1.464-3.515V5.56a4.973 4.973 0 011.463-3.515 5.007 5.007 0 013.528-1.46h105.065a5.006 5.006 0 013.527 1.459 4.971 4.971 0 011.464 3.515v16.97z" fill="#3F3D56"/><path d="M102.738 23.719a9.73 9.73 0 01-5.393-1.63 9.683 9.683 0 01-3.576-4.343 9.645 9.645 0 012.105-10.544 9.738 9.738 0 0110.58-2.097 9.697 9.697 0 014.356 3.563 9.651 9.651 0 011.637 5.376 9.67 9.67 0 01-2.847 6.838 9.737 9.737 0 01-6.862 2.837z" fill="#000"/><path d="M172.087 21.943h-50.461c-.623 0-1.22-.246-1.661-.685a2.339 2.339 0 010-3.31 2.354 2.354 0 011.661-.686h50.461c.623 0 1.22.247 1.661.686a2.338 2.338 0 010 3.31 2.354 2.354 0 01-1.661.685zm-33.76-9.947h-16.701c-.623 0-1.22-.247-1.661-.686a2.338 2.338 0 010-3.31 2.354 2.354 0 011.661-.686h16.701c.622 0 1.22.247 1.66.686a2.334 2.334 0 010 3.31 2.352 2.352 0 01-1.66.686z" fill="#CCC"/><path d="M102.242 17.447c-.241 0-.475-.077-.668-.221l-.012-.01-2.516-1.918a1.114 1.114 0 01.969-1.961c.142.038.275.103.392.193l1.629 1.245 3.852-5.007a1.115 1.115 0 011.176-.399c.142.038.274.103.391.192l-.024.034.025-.033a1.11 1.11 0 01.207 1.562l-4.53 5.887a1.121 1.121 0 01-.89.435l-.001.001z" fill="#7AC895"/><path d="M141.279 45.657H36.214a5.593 5.593 0 00-3.943 1.63 5.555 5.555 0 00-1.635 3.93v16.969a5.555 5.555 0 001.635 3.929 5.593 5.593 0 003.943 1.63h105.065a5.594 5.594 0 003.943-1.63 5.56 5.56 0 001.635-3.93V51.217a5.56 5.56 0 00-1.635-3.93 5.594 5.594 0 00-3.943-1.629z" fill="#fff"/><path d="M141.279 45.657H36.214a5.593 5.593 0 00-3.943 1.63 5.555 5.555 0 00-1.635 3.93v16.969a5.555 5.555 0 001.635 3.929 5.593 5.593 0 003.943 1.63h105.065a5.594 5.594 0 003.943-1.63 5.56 5.56 0 001.635-3.93V51.217a5.56 5.56 0 00-1.635-3.93 5.594 5.594 0 00-3.943-1.629zm4.991 22.529a4.975 4.975 0 01-1.464 3.515 5.007 5.007 0 01-3.527 1.458H36.214a5.006 5.006 0 01-3.527-1.458 4.972 4.972 0 01-1.464-3.515v-16.97a4.972 4.972 0 011.464-3.515 5.006 5.006 0 013.527-1.459h105.065a5.007 5.007 0 013.527 1.46 4.975 4.975 0 011.464 3.514v16.97z" fill="#3F3D56"/><path d="M57.595 69.376a9.731 9.731 0 01-5.394-1.63 9.683 9.683 0 01-3.575-4.342 9.645 9.645 0 012.104-10.545 9.74 9.74 0 0110.58-2.097 9.702 9.702 0 014.357 3.563 9.652 9.652 0 011.636 5.376 9.67 9.67 0 01-2.846 6.838 9.736 9.736 0 01-6.862 2.837z" fill="#000"/><path d="M126.944 67.6H76.483c-.623 0-1.22-.246-1.661-.685a2.336 2.336 0 010-3.31 2.352 2.352 0 011.66-.686h50.462c.623 0 1.22.247 1.66.686a2.334 2.334 0 010 3.31 2.35 2.35 0 01-1.66.686zm-33.761-9.947h-16.7a2.354 2.354 0 01-2.17-1.445 2.332 2.332 0 01.509-2.55 2.349 2.349 0 011.66-.686h16.701c.623 0 1.22.246 1.66.685a2.337 2.337 0 010 3.31 2.353 2.353 0 01-1.66.686z" fill="#CCC"/><path d="M57.1 63.104c-.242 0-.476-.077-.669-.221l-.012-.009-2.516-1.918a1.114 1.114 0 01.97-1.962c.141.038.274.104.39.193l1.63 1.245 3.852-5.007a1.116 1.116 0 011.176-.398c.141.037.274.103.39.192h.001l-.024.033.025-.033a1.114 1.114 0 01.207 1.562l-4.53 5.887a1.119 1.119 0 01-.89.435v.001z" fill="#7AC895"/><path d="M32.807 49.485a3.145 3.145 0 00-3.698.961c-.281.361-.48.779-.581 1.224l-7.063 1.206-.311 4.456 9.95-1.842a3.162 3.162 0 002.192-.456 3.132 3.132 0 001.14-4.016 3.148 3.148 0 00-1.63-1.533z" fill="#FFB8B8"/><path d="M20.675 36.695a4.358 4.358 0 012.254 2.327 4.338 4.338 0 01.02 3.234l-4.093 10.385 5.14-.941a1.341 1.341 0 011.517.91l1.025 3.246a1.33 1.33 0 01-.905 1.68l-6.68 1.923a5.71 5.71 0 01-4.987-.907 5.675 5.675 0 01-2.283-4.51c-.002-.41.04-.819.126-1.22l2.807-13.068a4.345 4.345 0 012.297-2.971 4.378 4.378 0 013.762-.088z" fill="#CCC"/></g><defs><clipPath id="clip0"><path fill="#fff" d="M0 0h192v137H0z"/></clipPath></defs></svg>