<svg width="74" height="88" fill="none" xmlns="http://www.w3.org/2000/svg"><path fill="#fff" d="M0 12h61v76H0z"/><path d="M60.787 14.07a3.016 3.016 0 00-2.758-1.845H2.984A2.985 2.985 0 000 15.21v69.638a2.985 2.985 0 002.984 2.984H58.03a2.988 2.988 0 002.984-2.984V15.209a2.93 2.93 0 00-.226-1.139h-.002zm-.436 70.777a2.324 2.324 0 01-2.322 2.32H2.984a2.322 2.322 0 01-2.321-2.32V15.209a2.325 2.325 0 012.32-2.32h55.048a2.333 2.333 0 012.242 1.721 2.3 2.3 0 01.08.6l-.002 69.637z" fill="#71707C"/><path d="M49.3 28.666H32.72a1.327 1.327 0 010-2.653H49.3a1.326 1.326 0 110 2.653zm0 6.964H32.72a1.326 1.326 0 110-2.653H49.3a1.326 1.326 0 110 2.653z" fill="#71707C"/><path d="M24.212 39.595H12.095a1.494 1.494 0 01-1.492-1.492v-14.3a1.494 1.494 0 011.492-1.492h12.117a1.494 1.494 0 011.493 1.493v14.299a1.494 1.494 0 01-1.493 1.492z" fill="#000"/><path d="M49.184 49.89h-37.47a1.326 1.326 0 110-2.654h37.471a1.327 1.327 0 010 2.653zm0 6.963h-37.47a1.327 1.327 0 010-2.653h37.471a1.327 1.327 0 010 2.653zm.001 6.964H11.713a1.327 1.327 0 010-2.653h37.472a1.326 1.326 0 110 2.653zm-.001 6.963h-37.47a1.326 1.326 0 110-2.653h37.471a1.326 1.326 0 010 2.653zm0 6.964h-37.47a1.327 1.327 0 010-2.653h37.471a1.327 1.327 0 010 2.653z" fill="#CCC"/><path d="M61.199 25.603C68.269 25.603 74 19.87 74 12.8 74 5.731 68.27 0 61.2 0S48.397 5.731 48.397 12.801 54.13 25.603 61.2 25.603z" fill="#000"/><path d="M57.596 8c.412-.004.81.155 1.106.441l2.817 2.818 2.818-2.818a1.571 1.571 0 012.222 2.222l-2.818 2.818 2.818 2.817a1.571 1.571 0 01-2.222 2.222l-2.818-2.817-2.817 2.817a1.571 1.571 0 11-2.222-2.222l2.817-2.817-2.817-2.818A1.571 1.571 0 0157.596 8z" fill="#EEA4A4"/></svg>