<svg width="38" height="36" fill="none" xmlns="http://www.w3.org/2000/svg"><path d="M28.104.583C23.89.583 20.408 4.498 19 6.346 17.592 4.498 14.11.583 9.896.583 4.439.583 0 5.6 0 11.766c0 3.363 1.335 6.498 3.672 8.644a.784.784 0 00.125.161L18.44 35.185a.79.79 0 001.119 0L34.69 20.059l.156-.152a6.38 6.38 0 00.383-.386.77.77 0 00.14-.189c1.698-2.078 2.63-4.759 2.63-7.566C38 5.6 33.56.583 28.104.583zm5.95 17.858a.733.733 0 00-.06.08c-.075.086-.156.16-.236.237L18.999 33.506 5.096 19.631a.794.794 0 00-.184-.236c-2.116-1.847-3.329-4.628-3.329-7.63 0-5.292 3.73-9.598 8.313-9.598 4.532 0 8.4 5.91 8.438 5.97.293.452 1.04.452 1.332 0 .038-.06 3.906-5.97 8.438-5.97 4.584 0 8.313 4.306 8.313 9.599 0 2.494-.84 4.865-2.364 6.675z" fill="#000"/></svg>