<svg width="19" height="10" fill="none" xmlns="http://www.w3.org/2000/svg"><path fill-rule="evenodd" clip-rule="evenodd" d="M12.853 9.192a.638.638 0 01-.17-.203.52.52 0 010-.479.638.638 0 01.17-.203L16.989 5l-4.136-3.308a.638.638 0 01-.17-.203.52.52 0 010-.479.637.637 0 01.17-.203.817.817 0 01.254-.135.954.954 0 01.598 0 .819.819 0 01.254.135l4.688 3.75c.072.058.13.127.17.203a.518.518 0 010 .48.637.637 0 01-.17.202l-4.688 3.75a.817.817 0 01-.254.136.954.954 0 01-.599 0 .817.817 0 01-.253-.136z" fill="#C9C7C7"/><path fill-rule="evenodd" clip-rule="evenodd" d="M18.094 5a.57.57 0 01-.23.442.89.89 0 01-.552.183H.907a.89.89 0 01-.552-.183A.57.57 0 01.125 5a.57.57 0 01.229-.442.89.89 0 01.552-.183h16.407a.89.89 0 01.552.183.57.57 0 01.229.442z" fill="#C9C7C7"/></svg>