<svg width="16" height="16" fill="none" xmlns="http://www.w3.org/2000/svg"><g clip-path="url(#clip0)"><path d="M15.902 15.431l-4.868-4.868a6.3 6.3 0 001.633-4.23A6.34 6.34 0 006.333 0 6.34 6.34 0 000 6.333a6.34 6.34 0 006.333 6.334 6.3 6.3 0 004.23-1.633l4.868 4.868a.332.332 0 00.471 0 .333.333 0 000-.471zM6.333 12A5.673 5.673 0 01.667 6.333 5.673 5.673 0 016.333.667 5.673 5.673 0 0112 6.333 5.673 5.673 0 016.333 12z" fill="#000"/></g><defs><clipPath id="clip0"><path fill="#fff" d="M0 0h16v16H0z"/></clipPath></defs></svg>