<svg width="30" height="30" fill="none" xmlns="http://www.w3.org/2000/svg"><g clip-path="url(#clip0)"><path d="M27.896 7.092h-6.41V.986a.492.492 0 00-.492-.492H9.004a.492.492 0 00-.491.492v6.106h-6.41c-.255 0-.47.2-.49.455L.001 28.978a.49.49 0 00.49.528H29.51a.488.488 0 00.49-.529l-1.612-21.43a.494.494 0 00-.49-.455zm-6.902 3.117a.45.45 0 11.001.9.45.45 0 010-.9zM9.496 1.479h11.007v5.614H9.496V1.478zm-.491 8.73a.45.45 0 110 .9.45.45 0 010-.9zM1.02 28.523L2.559 8.077h5.954v1.241a1.43 1.43 0 00-.943 1.34 1.435 1.435 0 002.869 0 1.43 1.43 0 00-.943-1.34V8.077h11.007v1.241a1.43 1.43 0 00-.943 1.34 1.435 1.435 0 002.868 0 1.43 1.43 0 00-.942-1.34V8.077h5.955l1.538 20.446H1.02z" fill="#000"/></g><defs><clipPath id="clip0"><path fill="#fff" d="M0 0h30v30H0z"/></clipPath></defs></svg>