<svg width="22" height="22" fill="none" xmlns="http://www.w3.org/2000/svg"><path fill-rule="evenodd" clip-rule="evenodd" d="M6.362 1a.454.454 0 00-.405.462V2.79H3.543A2.554 2.554 0 001 5.33v2.726a.45.45 0 000 .036v10.365A2.554 2.554 0 003.543 21h14.92A2.548 2.548 0 0021 18.458V5.331a2.548 2.548 0 00-2.535-2.541H15.97V1.462a.454.454 0 10-.909 0V2.79H6.867V1.462A.454.454 0 006.405 1h-.043zm-2.82 2.7h2.416v1.327a.454.454 0 10.909 0V3.699h8.195v1.328a.454.454 0 10.91 0V3.699h2.492a1.63 1.63 0 011.626 1.633V7.64H1.91V5.332c0-.9.736-1.633 1.633-1.633zM1.91 8.546h18.18v9.911c0 .901-.73 1.633-1.626 1.633H3.543a1.638 1.638 0 01-1.634-1.633v-9.91z" fill="#6672FB"/><path d="M5.957 1.462h.25v-.005l-.25.005zm0 1.328v.25h.25v-.25h-.25zM1 8.057l.25.01v-.01H1zm0 .036h.25v-.01l-.25.01zm20 .028l-.25-.007v.007H21zm0-.028l-.25-.014V8.1l.25-.007zm0-.05h-.251v.014l.25-.014zM15.97 2.79h-.25v.25h.25v-.25zm0-1.328l-.25-.004v.004h.25zM15.51 1l.004.25L15.51 1zm-.447.462h.25v-.004l-.25.004zm0 1.328v.25h.25v-.25h-.25zm-8.195 0h-.25v.25h.25v-.25zm0-1.328l-.25-.004v.004h.25zM6.405 1l-.012.25h.016L6.405 1zm-.447 2.7h.25v-.25h-.25v.25zm0 1.327h.25-.25zm.909 0h-.25.25zm0-1.328v-.25h-.25v.25h.25zm8.195 0h.25v-.25h-.25v.25zm0 1.328h.25-.25zm.91 0h-.25.25zm0-1.328v-.25h-.25v.25h.25zm4.118 3.94v.25h.25v-.25h-.25zm-18.18 0h-.25v.25h.25v-.25zm0 .908v-.25h-.25v.25h.25zm18.18 0h.25v-.25h-.25v.25zM6.335.752a.704.704 0 00-.627.715l.5-.01a.204.204 0 01.182-.208L6.335.752zm-.628.71V2.79h.5V1.462h-.5zm.25 1.078H3.543v.5h2.414v-.5zm-2.414 0A2.804 2.804 0 00.75 5.33h.5a2.304 2.304 0 012.293-2.29v-.5zM.75 5.33V8h.5V5.33h-.5zM.75 8v.056h.5V8h-.5zm0 .047v.055l.5-.02v-.016l-.5-.02zm0 .045v10.365h.5V8.093h-.5zm0 10.365a2.804 2.804 0 002.793 2.792v-.5a2.304 2.304 0 01-2.293-2.292h-.5zm2.793 2.792h14.92v-.5H3.544v.5zm14.92 0a2.798 2.798 0 002.786-2.792h-.5a2.298 2.298 0 01-2.285 2.292v.5zm2.786-2.792V8.121h-.5v10.337h.5zm0-10.329v-.044l-.5.016v.013l.5.015zm0-.022a.66.66 0 000-.077l-.5.027v.022l.5.028zm0-.064V5.331h-.5v2.712h.5zm0-2.712a2.798 2.798 0 00-2.785-2.791v.5a2.298 2.298 0 012.285 2.291h.5zm-2.785-2.79H15.97v.5h2.493v-.5zm-2.243.25V1.462h-.5V2.79h.5zm0-1.324a.704.704 0 00-.206-.51l-.354.354c.04.04.061.093.06.148l.5.008zm-.206-.51a.704.704 0 00-.51-.205l.008.5c.056-.001.11.02.148.06l.354-.354zm-.51-.205a.705.705 0 00-.494.214l.359.348a.205.205 0 01.143-.063l-.007-.5zm-.494.214a.704.704 0 00-.199.5l.5-.007c0-.054.02-.106.058-.145l-.36-.348zm-.199.497V2.79h.5V1.462h-.5zm.25 1.078H6.867v.5h8.195v-.5zm-7.945.25V1.462h-.5V2.79h.5zm0-1.324a.704.704 0 00-.207-.51l-.353.354c.039.04.06.093.06.148l.5.008zM6.91.956a.705.705 0 00-.509-.205l.008.5a.201.201 0 01.148.06L6.91.956zM6.417.752a.705.705 0 00-.066 0l.023.5h.02l.023-.5zM3.543 3.949h2.415v-.5H3.543v.5zm2.165-.25v1.328h.5V3.699h-.5zm0 1.327a.705.705 0 00.351.612l.25-.433a.204.204 0 01-.101-.178h-.5zm.351.612a.705.705 0 00.706 0l-.25-.433a.205.205 0 01-.205 0l-.25.433zm.706 0a.704.704 0 00.352-.612l-.5.001c0 .073-.04.141-.103.178l.25.433zm.352-.611V3.699h-.5v1.328h.5zm-.25-1.078h8.195v-.5H6.867v.5zm7.945-.25v1.328h.5V3.699h-.5zm0 1.327c0 .252.134.485.352.612l.25-.433a.204.204 0 01-.102-.178h-.5zm.352.612a.705.705 0 00.705 0l-.25-.433a.205.205 0 01-.205 0l-.25.433zm.705 0a.704.704 0 00.352-.612l-.5.001a.207.207 0 01-.102.178l.25.433zm.352-.611V3.699h-.5v1.328h.5zm-.25-1.078h2.493v-.5h-2.493v.5zm2.493 0c.758 0 1.376.62 1.376 1.383h.5a1.88 1.88 0 00-1.876-1.883v.5zm1.376 1.383V7.64h.5V5.332h-.5zm.25 2.057H1.91v.5h18.18v-.5zm-17.93.25V5.332h-.5V7.64h.5zm0-2.307c0-.762.624-1.383 1.383-1.383v-.5a1.887 1.887 0 00-1.884 1.883h.5zm-.25 3.465h18.18v-.5H1.91v.5zm17.93-.25v9.911h.5v-9.91h-.5zm0 9.911c0 .764-.619 1.383-1.376 1.383v.5a1.881 1.881 0 001.876-1.883h-.5zm-1.376 1.383H3.543v.5h14.921v-.5zm-14.921 0c-.759 0-1.384-.62-1.384-1.383h-.5c0 1.04.85 1.883 1.884 1.883v-.5zm-1.384-1.383v-9.91h-.5v9.91h.5z" fill="#6672FB"/><ellipse cx="7.181" cy="13.918" rx="1.686" ry="1.685" fill="#6672FB"/><ellipse cx="15.046" cy="13.918" rx="1.686" ry="1.685" fill="#6672FB"/></svg>