<svg width="609" height="637" fill="none" xmlns="http://www.w3.org/2000/svg"><g opacity=".2" fill-opacity=".5"><rect x="239.799" y="309.037" width="290.671" height="28.834" rx="14.417" transform="rotate(-43.64 239.799 309.037)" fill="#6672FB"/><rect y="535.55" width="290.671" height="28.834" rx="14.417" transform="rotate(-43.64 0 535.55)" fill="#6672FB"/><rect x="366.746" y="269.45" width="290.671" height="28.834" rx="14.417" transform="rotate(-43.64 366.746 269.45)" fill="#6672FB"/><rect x="67.277" y="615.804" width="290.671" height="28.834" rx="14.417" transform="rotate(-43.64 67.277 615.804)" fill="#6672FB"/><rect x="277.836" y="200.601" width="290.671" height="16.131" rx="8.066" transform="rotate(-43.64 277.836 200.601)" fill="#6672FB"/><rect x="42.289" y="424.061" width="290.671" height="16.131" rx="8.066" transform="rotate(-43.64 42.29 424.061)" fill="#6672FB"/><circle cx="367" cy="341.816" r="41" fill="#6672FB"/><ellipse cx="324" cy="366.316" rx="31" ry="31.5" fill="#A5ABEF"/><ellipse cx="246.5" cy="431.816" rx="31.5" ry="31" fill="#A5ABEF"/><ellipse cx="31" cy="507.316" rx="31" ry="31.5" fill="#A5ABEF"/></g></svg>