<svg width="22" height="27" fill="none" xmlns="http://www.w3.org/2000/svg"><path d="M8.452 16.352c0-1.128.252-2.064.756-2.808.504-.768 1.224-1.596 2.16-2.484.6-.576 1.032-1.044 1.296-1.404.288-.36.432-.744.432-1.152 0-.528-.228-.936-.684-1.224-.456-.312-1.032-.468-1.728-.468-.768 0-1.488.228-2.16.684A4.51 4.51 0 006.94 9.26L.532 6.056c.96-1.824 2.376-3.252 4.248-4.284C6.676.74 9.004.224 11.764.224c2.928 0 5.304.6 7.128 1.8 1.824 1.2 2.736 2.892 2.736 5.076 0 1.008-.18 1.896-.54 2.664a7.238 7.238 0 01-1.224 1.908 22.779 22.779 0 01-1.836 1.692c-.768.672-1.32 1.212-1.656 1.62a2.098 2.098 0 00-.504 1.368H8.452zM12.16 26.36c-1.392 0-2.532-.42-3.42-1.26-.888-.84-1.332-1.86-1.332-3.06 0-1.224.444-2.232 1.332-3.024.888-.816 2.028-1.224 3.42-1.224s2.532.408 3.42 1.224c.888.792 1.332 1.8 1.332 3.024 0 1.2-.444 2.22-1.332 3.06-.888.84-2.028 1.26-3.42 1.26z" fill="#6672FB"/></svg>