<svg width="180" height="45" fill="none" xmlns="http://www.w3.org/2000/svg"><path d="M16.064 37h127.872C152.81 37 160 31.053 160 23.713v-3.426C160 12.947 152.81 7 143.936 7H16.064C7.19 7 0 12.947 0 20.287v3.426C0 31.053 7.196 37 16.064 37z" fill="#940005"/><path d="M135.825 22.752c0 12.288 9.888 22.248 22.087 22.248C170.112 45 180 35.04 180 22.752S170.112.503 157.912.503c-12.199 0-22.087 9.96-22.087 22.249z" fill="#940005"/><path d="M140.288 21.63c0 10.484 8.439 18.988 18.851 18.988 10.413 0 18.851-8.5 18.851-18.988s-8.438-18.988-18.851-18.988c-10.408 0-18.851 8.5-18.851 18.988z" fill="#EC1B23"/><path d="M146.13 18.878c0 7.588 6.359 13.74 14.203 13.74 7.845 0 14.204-6.152 14.204-13.74 0-7.587-6.359-13.738-14.204-13.738-7.844 0-14.203 6.151-14.203 13.738z" fill="#FFC600"/><path d="M157.387 8.41c0 4.64 3.889 8.41 8.69 8.41s8.691-3.764 8.691-8.41c0-4.641-3.89-8.41-8.691-8.41s-8.69 3.764-8.69 8.41zM45.954 18.2V28h-2.24v-7.952h-3.36l-.07 2.044c-.047 1.39-.159 2.52-.336 3.388-.177.859-.476 1.521-.896 1.988-.41.457-.99.686-1.736.686a5.03 5.03 0 01-1.12-.154l.14-1.918c.121.037.257.056.406.056.541 0 .92-.317 1.134-.952.215-.644.35-1.647.406-3.01l.14-3.976h7.532zm5.206 2.156c1.166 0 2.062.28 2.688.84.625.55.938 1.386.938 2.506V28h-2.044v-.938c-.411.7-1.176 1.05-2.296 1.05-.58 0-1.083-.098-1.512-.294a2.251 2.251 0 01-.966-.812 2.113 2.113 0 01-.336-1.176c0-.7.26-1.25.784-1.652.532-.401 1.348-.602 2.45-.602h1.736c0-.476-.145-.84-.434-1.092-.29-.261-.724-.392-1.302-.392a3.74 3.74 0 00-1.19.196c-.383.121-.71.29-.98.504l-.784-1.526c.41-.29.9-.513 1.47-.672a6.692 6.692 0 011.778-.238zm-.168 6.286c.373 0 .704-.084.994-.252a1.45 1.45 0 00.616-.77v-.77h-1.498c-.896 0-1.344.294-1.344.882 0 .28.107.504.322.672.224.159.527.238.91.238zm9.275 1.47c-.803 0-1.526-.163-2.17-.49a3.833 3.833 0 01-1.498-1.386c-.355-.588-.532-1.255-.532-2.002 0-.747.177-1.414.532-2.002a3.733 3.733 0 011.498-1.372c.644-.336 1.367-.504 2.17-.504.793 0 1.484.168 2.072.504a2.905 2.905 0 011.302 1.414l-1.694.91c-.392-.69-.957-1.036-1.694-1.036-.57 0-1.04.187-1.414.56-.373.373-.56.882-.56 1.526s.186 1.153.56 1.526c.373.373.845.56 1.414.56.746 0 1.311-.345 1.694-1.036l1.694.924a2.999 2.999 0 01-1.302 1.4c-.588.336-1.279.504-2.072.504zm4.105-4.928h3.963v1.75h-3.962v-1.75zm12.68-.294c.598.177 1.056.467 1.373.868.317.401.476.896.476 1.484 0 .868-.331 1.545-.994 2.03-.653.485-1.591.728-2.814.728h-4.83v-9.8h4.564c1.139 0 2.025.22 2.66.658.635.439.952 1.064.952 1.876 0 .485-.121.915-.364 1.288a2.532 2.532 0 01-1.022.868zm-4.535-.63h2.114c.495 0 .868-.098 1.12-.294.252-.205.378-.504.378-.896 0-.383-.13-.677-.392-.882-.252-.205-.62-.308-1.106-.308h-2.114v2.38zm2.492 4.06c1.064 0 1.596-.42 1.596-1.26 0-.812-.532-1.218-1.596-1.218h-2.492v2.478h2.492zm12.84-2.058c0 .028-.014.224-.042.588h-5.698c.102.467.345.835.728 1.106.382.27.858.406 1.428.406.392 0 .737-.056 1.036-.168.308-.121.592-.308.854-.56l1.162 1.26c-.71.812-1.746 1.218-3.108 1.218-.85 0-1.601-.163-2.254-.49-.654-.336-1.158-.798-1.512-1.386-.355-.588-.532-1.255-.532-2.002 0-.737.172-1.4.518-1.988a3.675 3.675 0 011.442-1.386 4.227 4.227 0 012.058-.504c.737 0 1.404.159 2.002.476a3.417 3.417 0 011.4 1.372c.345.588.518 1.274.518 2.058zm-3.906-2.254c-.495 0-.91.14-1.246.42-.336.28-.542.663-.616 1.148h3.71c-.075-.476-.28-.854-.616-1.134-.336-.29-.747-.434-1.232-.434zm11.614.252h-3.864V28h-2.17v-7.532h6.034v1.792zm4.083-1.904c1.167 0 2.063.28 2.688.84.625.55.938 1.386.938 2.506V28h-2.044v-.938c-.411.7-1.176 1.05-2.296 1.05-.579 0-1.083-.098-1.512-.294a2.251 2.251 0 01-.966-.812 2.113 2.113 0 01-.336-1.176c0-.7.261-1.25.784-1.652.532-.401 1.349-.602 2.45-.602h1.736c0-.476-.145-.84-.434-1.092-.289-.261-.723-.392-1.302-.392a3.74 3.74 0 00-1.19.196c-.383.121-.71.29-.98.504l-.784-1.526c.41-.29.9-.513 1.47-.672a6.691 6.691 0 011.778-.238zm-.168 6.286c.373 0 .705-.084.994-.252a1.45 1.45 0 00.616-.77v-.77h-1.498c-.896 0-1.344.294-1.344.882 0 .28.107.504.322.672.224.159.527.238.91.238zm9.275 1.47c-.802 0-1.526-.163-2.17-.49a3.838 3.838 0 01-1.498-1.386c-.354-.588-.532-1.255-.532-2.002 0-.747.178-1.414.532-2.002a3.737 3.737 0 011.498-1.372c.644-.336 1.368-.504 2.17-.504.794 0 1.484.168 2.072.504a2.898 2.898 0 011.302 1.414l-1.694.91c-.392-.69-.956-1.036-1.694-1.036-.569 0-1.04.187-1.414.56-.373.373-.56.882-.56 1.526s.187 1.153.56 1.526c.374.373.845.56 1.414.56.747 0 1.312-.345 1.694-1.036l1.694.924a2.992 2.992 0 01-1.302 1.4c-.588.336-1.278.504-2.072.504z" fill="#fff"/></svg>