<svg width="180" height="45" fill="none" xmlns="http://www.w3.org/2000/svg"><path d="M16.064 37h127.872C152.81 37 160 31.053 160 23.713v-3.426C160 12.947 152.81 7 143.936 7H16.064C7.19 7 0 12.947 0 20.287v3.426C0 31.053 7.196 37 16.064 37z" fill="#940005"/><path d="M135.825 22.752c0 12.288 9.888 22.248 22.087 22.248C170.112 45 180 35.04 180 22.752S170.112.503 157.912.503c-12.199 0-22.087 9.96-22.087 22.249z" fill="#940005"/><path d="M140.288 21.63c0 10.484 8.439 18.988 18.851 18.988 10.413 0 18.851-8.5 18.851-18.988s-8.438-18.988-18.851-18.988c-10.408 0-18.851 8.5-18.851 18.988z" fill="#EC1B23"/><path d="M146.13 18.878c0 7.588 6.359 13.74 14.203 13.74 7.845 0 14.204-6.152 14.204-13.74 0-7.587-6.359-13.738-14.204-13.738-7.844 0-14.203 6.151-14.203 13.738z" fill="#FFC600"/><path d="M157.387 8.41c0 4.64 3.889 8.41 8.69 8.41s8.691-3.764 8.691-8.41c0-4.641-3.89-8.41-8.691-8.41s-8.69 3.764-8.69 8.41zM47.12 18.048h-4.662L42.472 26h-2.254v-9.8h6.916l-.014 1.848zm2.802 8.064c-.794 0-1.508-.163-2.142-.49a3.755 3.755 0 01-1.47-1.386c-.355-.588-.532-1.255-.532-2.002 0-.747.177-1.414.532-2.002a3.657 3.657 0 011.47-1.372c.634-.336 1.348-.504 2.142-.504.793 0 1.502.168 2.128.504a3.658 3.658 0 011.47 1.372c.354.588.532 1.255.532 2.002 0 .747-.178 1.414-.532 2.002a3.756 3.756 0 01-1.47 1.386c-.626.327-1.335.49-2.128.49zm0-1.792c.56 0 1.017-.187 1.372-.56.364-.383.546-.891.546-1.526s-.182-1.139-.546-1.512c-.355-.383-.812-.574-1.372-.574s-1.022.191-1.386.574c-.364.373-.546.877-.546 1.512s.182 1.143.546 1.526c.364.373.826.56 1.386.56zm5.632-5.852h2.17v2.94H61v-2.94h2.184V26H61v-2.814h-3.276V26h-2.17v-7.532zm13.249 7.644c-.794 0-1.508-.163-2.142-.49a3.756 3.756 0 01-1.47-1.386c-.355-.588-.532-1.255-.532-2.002 0-.747.177-1.414.532-2.002a3.658 3.658 0 011.47-1.372c.634-.336 1.348-.504 2.142-.504.793 0 1.502.168 2.128.504a3.658 3.658 0 011.47 1.372c.354.588.532 1.255.532 2.002 0 .747-.178 1.414-.532 2.002a3.756 3.756 0 01-1.47 1.386c-.626.327-1.335.49-2.128.49zm0-1.792c.56 0 1.017-.187 1.372-.56.364-.383.546-.891.546-1.526s-.182-1.139-.546-1.512c-.355-.383-.812-.574-1.372-.574s-1.022.191-1.386.574c-.364.373-.546.877-.546 1.512s.182 1.143.546 1.526c.364.373.826.56 1.386.56zm12.746-5.852V26h-2.184v-5.74h-2.38l-.07 1.33c-.037.99-.13 1.81-.28 2.464-.149.653-.392 1.167-.728 1.54-.336.373-.802.56-1.4.56a4.69 4.69 0 01-1.134-.168l.112-1.792c.15.019.257.028.322.028.327 0 .57-.117.728-.35.168-.243.28-.546.336-.91.056-.373.098-.863.126-1.47l.112-3.024h6.44zm9.647 0l-3.402 7.994c-.346.868-.775 1.48-1.288 1.834-.504.355-1.116.532-1.834.532a3.8 3.8 0 01-1.162-.182 2.565 2.565 0 01-.938-.504l.798-1.554a1.897 1.897 0 001.232.476c.298 0 .54-.075.728-.224.186-.14.354-.378.504-.714l.028-.07-3.262-7.588h2.254l2.114 5.11 2.128-5.11h2.1zm7.744 0V26h-2.184v-5.74h-2.38l-.07 1.33c-.037.99-.13 1.81-.28 2.464-.15.653-.392 1.167-.728 1.54-.336.373-.803.56-1.4.56a4.69 4.69 0 01-1.134-.168l.112-1.792c.15.019.257.028.322.028.327 0 .57-.117.728-.35.168-.243.28-.546.336-.91.056-.373.098-.863.126-1.47l.112-3.024h6.44zm9.646 0l-3.402 7.994c-.345.868-.774 1.48-1.288 1.834-.504.355-1.115.532-1.834.532-.392 0-.779-.06-1.162-.182a2.57 2.57 0 01-.938-.504l.798-1.554a1.87 1.87 0 001.232.476c.299 0 .542-.075.728-.224.187-.14.355-.378.504-.714l.028-.07-3.262-7.588h2.254l2.114 5.11 2.128-5.11h2.1z" fill="#fff"/></svg>