<svg width="180" height="45" fill="none" xmlns="http://www.w3.org/2000/svg"><path d="M163.936 37H36.064C27.19 37 20 31.053 20 23.713v-3.426C20 12.947 27.19 7 36.064 7h127.872C172.81 7 180 12.947 180 20.287v3.426C180 31.053 172.804 37 163.936 37z" fill="#940005"/><path d="M44.175 22.752C44.175 35.04 34.287 45 22.088 45 9.888 45 0 35.04 0 22.752S9.888.503 22.088.503c12.199 0 22.087 9.96 22.087 22.249z" fill="#940005"/><path d="M39.712 21.63c0 10.484-8.439 18.988-18.851 18.988-10.413 0-18.851-8.5-18.851-18.988S10.448 2.642 20.86 2.642c10.409 0 18.852 8.5 18.852 18.988z" fill="#EC1B23"/><path d="M33.87 18.878c0 7.588-6.36 13.74-14.203 13.74-7.845 0-14.204-6.152-14.204-13.74 0-7.587 6.36-13.738 14.204-13.738S33.87 11.29 33.87 18.878z" fill="#FFC600"/><path d="M22.613 8.41c0 4.64-3.89 8.41-8.69 8.41-4.8 0-8.69-3.764-8.69-8.41 0-4.641 3.89-8.41 8.69-8.41 4.8 0 8.69 3.764 8.69 8.41zm54.281 18.758c-1.017 0-1.937-.22-2.758-.658a4.964 4.964 0 01-1.918-1.806c-.457-.775-.686-1.643-.686-2.604 0-.961.229-1.825.686-2.59a4.93 4.93 0 011.918-1.82c.821-.439 1.74-.658 2.758-.658 1.017 0 1.932.22 2.744.658a4.93 4.93 0 011.918 1.82c.467.765.7 1.629.7 2.59 0 .961-.233 1.83-.7 2.604a4.964 4.964 0 01-1.918 1.806c-.812.439-1.727.658-2.744.658zm0-1.932c.579 0 1.101-.13 1.568-.392.467-.27.83-.644 1.092-1.12.27-.476.406-1.017.406-1.624 0-.607-.135-1.148-.406-1.624a2.767 2.767 0 00-1.092-1.106 3.067 3.067 0 00-1.568-.406c-.579 0-1.101.135-1.568.406a2.86 2.86 0 00-1.106 1.106c-.261.476-.392 1.017-.392 1.624 0 .607.13 1.148.392 1.624.27.476.64.85 1.106 1.12.467.261.99.392 1.568.392zm11.38-5.88c.7 0 1.334.163 1.903.49.579.317 1.031.77 1.358 1.358.327.579.49 1.255.49 2.03 0 .775-.163 1.456-.49 2.044a3.517 3.517 0 01-1.358 1.358 3.844 3.844 0 01-1.904.476c-.961 0-1.717-.303-2.268-.91v3.514h-2.184V19.468h2.086v.868c.541-.653 1.33-.98 2.366-.98zm-.379 5.964c.56 0 1.017-.187 1.372-.56.364-.383.546-.891.546-1.526s-.182-1.139-.546-1.512c-.355-.383-.812-.574-1.372-.574s-1.022.191-1.386.574c-.355.373-.532.877-.532 1.512s.177 1.143.532 1.526c.364.373.826.56 1.386.56zm12.775-5.852V27h-2.183v-5.74h-2.38l-.07 1.33c-.038.99-.131 1.81-.28 2.464-.15.653-.392 1.167-.729 1.54-.336.373-.802.56-1.4.56a4.69 4.69 0 01-1.133-.168l.111-1.792c.15.019.257.028.323.028.326 0 .569-.117.727-.35.168-.243.28-.546.337-.91.056-.373.098-.863.126-1.47l.112-3.024h6.439zm5.027-.112c1.166 0 2.062.28 2.688.84.625.55.938 1.386.938 2.506V27h-2.044v-.938c-.411.7-1.176 1.05-2.296 1.05-.579 0-1.083-.098-1.512-.294a2.251 2.251 0 01-.966-.812 2.113 2.113 0 01-.336-1.176c0-.7.261-1.25.784-1.652.532-.401 1.348-.602 2.45-.602h1.736c0-.476-.145-.84-.434-1.092-.29-.261-.724-.392-1.302-.392-.402 0-.798.065-1.19.196-.383.121-.71.29-.98.504l-.784-1.526c.41-.29.9-.513 1.47-.672a6.687 6.687 0 011.778-.238zm-.168 6.286c.373 0 .704-.084.994-.252.289-.177.494-.434.616-.77v-.77h-1.498c-.896 0-1.344.294-1.344.882 0 .28.107.504.322.672.224.159.527.238.91.238zm5.691-6.174h2.17v2.94h3.276v-2.94h2.184V27h-2.184v-2.814h-3.276V27h-2.17v-7.532zm18.163 5.74v3.416h-2.03V27h-5.292v1.624h-2.03v-3.416h.308c.466-.01.788-.285.966-.826.177-.541.289-1.311.336-2.31l.098-2.604h6.566v5.74h1.078zm-5.768-2.982c-.028.765-.089 1.39-.182 1.876-.084.485-.248.854-.49 1.106h3.178V21.26h-2.464l-.042.966zm10.67 4.886c-.793 0-1.507-.163-2.142-.49a3.76 3.76 0 01-1.47-1.386c-.355-.588-.532-1.255-.532-2.002 0-.747.177-1.414.532-2.002a3.662 3.662 0 011.47-1.372c.635-.336 1.349-.504 2.142-.504.793 0 1.503.168 2.128.504a3.662 3.662 0 011.47 1.372c.355.588.532 1.255.532 2.002 0 .747-.177 1.414-.532 2.002a3.76 3.76 0 01-1.47 1.386c-.625.327-1.335.49-2.128.49zm0-1.792c.56 0 1.017-.187 1.372-.56.364-.383.546-.891.546-1.526s-.182-1.139-.546-1.512c-.355-.383-.812-.574-1.372-.574s-1.022.191-1.386.574c-.364.373-.546.877-.546 1.512s.182 1.143.546 1.526c.364.373.826.56 1.386.56z" fill="#fff"/></svg>