<svg width="44" height="64" fill="none" xmlns="http://www.w3.org/2000/svg"><path d="M44 21.65c0 11.957-13.905 41.36-21.666 41.36C14.896 63.01.668 33.608.668 21.65S10.368 0 22.334 0C34.3 0 43.999 9.693 43.999 21.65z" fill="#D70000"/><path d="M22.335 41.644c-11.034 0-20.009-8.97-20.009-19.994 0-11.025 8.976-19.994 20.009-19.994s20.008 8.969 20.008 19.994-8.975 19.994-20.008 19.994z" fill="#fff"/><path d="M22.334 2.262c10.716 0 19.402 8.68 19.402 19.388 0 10.707-8.686 19.388-19.402 19.388-10.715 0-19.402-8.68-19.402-19.388 0-10.708 8.687-19.388 19.402-19.388zm0-1.213c-11.367 0-20.615 9.242-20.615 20.6 0 11.36 9.248 20.601 20.615 20.601 11.368 0 20.616-9.241 20.616-20.6 0-11.36-9.248-20.6-20.616-20.6z" fill="#A00"/><path d="M41.736 21.65c0 10.707-8.686 19.388-19.402 19.388-10.716 0-19.402-8.68-19.402-19.388 0-10.708 8.686-19.388 19.402-19.388 10.715 0 19.402 8.68 19.402 19.388z" fill="#FBCA00"/><path d="M8.564 35.308c.102-.002.203 0 .305.003.206.007.408-.045.604-.08.279-.05.538-.169.772.088.006.006.016.008.025.012.006.112.11.173.162.263-.2.091-.384.147-.591.118.215.044.426.05.636.042.15-.004.329-.02.366-.187.039-.17-.185-.129-.269-.217.11-.106.27.03.379-.121-.247-.006-.471-.021-.68.097-.049-.092-.192-.223-.107-.273.122-.071.31-.185.456.032.048-.099-.061-.225.103-.262.394-.087.742-.252.966-.614.04-.064.112-.151.202-.122.11.035.002.147.036.201.135.055-.005-.35.234-.118.02.019.05-.006.05-.04-.007-.41.3-.458.615-.519-.327.014-.042-.147-.06-.213-.198-.017-.203-.02-.3.133-.174.28-.502.252-.747.387-.18.1-.31.074-.424-.093-.043.12.118.202.003.338-.15.178-.414.181-.534.394-.02.038-.158.023-.172-.03-.043-.161-.278-.16-.272-.386.003-.115-.164-.294-.293-.342-.38-.143-.13-.228.006-.34.053-.044.126-.075.15-.176-.286.011-.577-.195-.835.09-.041.047-.137.03-.089-.079.018-.04.072-.09.009-.108-.11-.032-.053-.28-.246-.185-.156.078-.378.016-.442.289-.042.176-.092.321-.014.498.042.095-.314.246.036.322-.182.204.08.342.084.546-.233-.138-.222-.414-.399-.583-.015.075-.02.14-.055.206-.078.142-.38.313.006.474.074.03.095.187.14.285-.061-.1-.165-.145-.262-.196a19.437 19.437 0 01-.803-.919c.236-.1.472-.204.74-.207.062-.001.127-.027.186-.05.046-.02.073-.06.045-.113-.036-.065-.496-.079-.518-.01-.04.13-.119.183-.25.153-.092-.021-.15-.017-.192.092a.128.128 0 01-.067.066c-.146-.18-.289-.362-.429-.547.182-.23.403-.229.611.016.11.13.226.044.333.02.16-.038.314-.129.523.09-.055-.163-.084-.24.018-.31.237-.165.565-.221.675-.544.222.06.364-.14.555-.172.365-.059.614-.316.931-.488-.355-.154-.736.004-1.043-.156-.29-.15-.502-.044-.758.052-.392.145-.785.282-1.139.51a.661.661 0 01-.207.082c-.117.027-.268.066-.327-.063-.058-.127.12-.133.18-.206.029-.036.129-.035.08-.111-.03-.048-.073-.104-.158-.085-.266.06-.55.06-.748.302-.058.07-.133.114-.216.086-.191-.29-.375-.585-.552-.885.016-.27.182-.447.397-.384.104.03.198-.136.256.003a.197.197 0 01-.096.262c.114.026-.115.25.128.214.103-.015.115.03.137.186.005.035.056.07.094.093.037.022.09-.007.083-.039-.026-.118.145-.303-.126-.346-.147-.023-.245-.37-.146-.483.119-.136.118.108.219.067-.054-.258.128-.302.32-.32.615-.06 1.172-.32 1.748-.51.076-.026.145-.034.05-.138-.074-.083.036-.127.084-.111.32.106.505-.145.733-.272.189-.105.404-.047.526.242-.029-.268.25-.307.215-.533-.095.005-.058.082-.08.117-.04.063-.103.097-.163.059-.054-.033-.024-.097-.004-.151.06-.163.089-.364.347-.253.154-.263.485-.312.661-.542.09-.116.285-.119.3-.301l.005-.005c.3-.189.546-.453.884-.59.122-.05.214-.174.316-.268.034-.03.062-.076.027-.122-.013-.018-.046-.019-.07-.028-.063.209-.317-.097-.362.133-.015.075-.012.176-.09.183-.105.008-.079-.096-.083-.168-.006-.11-.103-.043-.151-.072a.56.56 0 01-.213-.253c.5-.05.983.05 1.507.128-.177-.23-.007-.574.171-.615.277-.065.528-.272.83.048-.032-.182-.134-.188-.193-.242-.059-.054-.079-.144-.013-.16.255-.06.306-.423.61-.397-.011-.095.206-.046.121-.193-.019-.034.025-.088.055-.079.31.105.248-.191.35-.314.106-.13.117-.393.395-.3-.01-.163.153-.191.225-.29.114-.156.178-.36.434-.338.081.007.1-.08.097-.144a.415.415 0 01.164-.34c.47-.398.84-.888 1.265-1.326.018-.017.048-.023.103-.048-.06.3.071.353.312.269.075-.027.166-.004.19.076.07.248.233.2.388.122.124-.064.257-.03.39-.074.241-.079.174-.216.155-.354-.027-.192-.16-.083-.256-.073-.036.003-.073.015-.11.017-.097.004-.207-.006-.21-.125-.002-.116.11-.098.193-.1.138-.007.274-.014.411-.053.104-.03.155-.088.212-.2-.197.007-.376-.016-.542-.174.215-.138.44-.183.68-.17.06.003.154.044.148-.057-.008-.11-.108 0-.116-.014-.142-.253-.347-.218-.569-.141-.006.002-.047-.056-.049-.087-.005-.071.037-.117.101-.15.125-.066.255-.024.383-.03.12-.006.239-.023.363-.045-.23 0-.379-.174-.573-.251-.078-.031-.127-.117-.014-.156.235-.082.346-.276.452-.468.1-.185.216-.32.445-.328.066-.001.063-.078.071-.13a.645.645 0 01.188-.362c.047-.048.117-.12.162-.083.227.185.381-.02.567-.08.124-.04.23.035.25.159.02.129.192.228.022.407-.153.16-.433.268-.377.58.011.06-.053.06-.108.08-.348.128-.677.293-.853.649-.032.065-.085.163-.06.206.162.278-.062.385-.22.507-.178.136-.22.341-.29.526-.14.376-.227.765-.474 1.105-.202.277-.168.301.046.592-.03-.415.335-.606.368-.984.018-.213.209-.435.273-.678.036-.135.164-.107.258-.06.268.13.416-.084.57-.218.077-.066.07-.228-.013-.337-.044-.059-.194-.04-.148-.16.036-.095.149-.042.227-.06.044-.01.092-.01.107-.069-.026-.082-.09-.04-.139-.038-.067.003-.135.011-.165-.066-.023-.064.021-.107.064-.142a.432.432 0 00.174-.27c.018-.1.12-.139.217-.14.092-.002.124.075.133.152.017.152.101.21.246.185.105-.017.19-.047.09-.175-.085-.109-.112-.206.043-.294.13-.074.025-.155-.02-.23-.111-.182 0-.32.128-.4.155-.098.283.02.31.166.124.645.663.637 1.131.726.091.018.129.02.138.112.014.129.029.26.06.385.034.138.004.312.288.198.134-.053.466.023.563.275.078.2.203.273.402.256-.233.206.06.335.12.425.12.186.131.505.464.52.163.007.15.233.13.254-.181.187.167.178.103.307.09.037.098-.134.198-.076.05.09-.031.133-.076.185-.057.067-.078.14.006.188.188.107-.139.24.024.342-.066.099-.16.066-.25.056-.036-.004-.073.012-.083.057.023.069.104.027.139.069.39.465.895.812 1.306 1.256.106.115.247.274.147.443-.054.092-.089.055.029.085.168.043.217.23.223.368.004.116-.158.088-.256.097-.097.009-.194.014-.29.02.093.085.174.055.253.034.227-.059.396-.05.477.234.046.162.014.203-.127.22l-.453.053c.16.028.316.009.47-.009.084-.009.175-.032.209.08.103.351.14.71.035 1.063-.032.107.053.262-.052.304-.331.134-.09.268.005.354.13.119.094.397.245.392.16-.005.16.068.2.148.027.056.06.108.123.065.056-.039.14-.12.077-.172-.13-.107-.01-.177.005-.264.029-.165.228-.263.206-.43-.036-.281.018-.575-.156-.839-.162-.244-.124-.593-.298-.812-.475-.597-.344-1.363-.627-2.006-.065-.147.047-.436-.303-.403-.145.013-.197-.252-.099-.385.09-.122.139-.292.08-.415a3.051 3.051 0 00-.937-1.172 2.373 2.373 0 01-.44-.414c-.197-.25-.432-.45-.655-.669-.1-.252-.315-.415-.5-.59-.247-.235-.271-.584-.496-.83-.129-.14-.241-.274-.427-.334-.282-.09-.188-.298-.138-.483.06-.227.216-.147.357-.1.143.049.288.109.37.237.282.443.723.735 1.051 1.137.284.346.626.651.95.967.397.39.828.742 1.222 1.134.88.877 1.828 1.677 2.768 2.487.562.484 1.08 1.026 1.675 1.463.633.464 1.276.921 1.975 1.296.686.368 1.349.781 2.025 1.17.338.193.692.362 1.022.569.17.106.423-.003.536.233.018.037.087.003.096-.055.012-.075.02-.176-.071-.184-.27-.026-.186-.202-.167-.36.059.227.4.203.39.518.066-.187-.023-.34.073-.543.063.331.246.49.491.593.08-.103-.043-.28.12-.318.09-.02.062.117.117.165.048-.129.093-.054.224-.067.208-.022.32.063.443.18.02.019.033.053.055.058.077.019.154.072.253.007a.81.81 0 01-.332-.28c.26.07.45.183.607.356-.459.227-.935.354-1.457.246l-.008.07c.35.143.7.29 1.053.425l.532.201a19.473 19.473 0 01-3.936 4.91.748.748 0 00-.286-.07c-.198-.002-.394-.272-.592-.424-.096.134-.105.256.028.394-.189.011-.342-.023-.47.076-.039.031-.089.016-.128-.015-.392-.311-.809-.584-1.098-1.02-.15-.223-.458-.336-.64-.545-.538-.617-1.277-1.023-1.755-1.702-.164-.232-.41-.39-.6-.608-.235-.273-.276-.605-.426-.9-.025-.047-.012-.125-.047-.155-.296-.267-.34-.707-.667-.954a.691.691 0 01-.238-.335c-.06-.173-.301-.23-.42-.1-.108.12-.22.195-.384.172-.147-.021-.197.116-.29.183.253.213.575.162.882.192-.132.125-.312.035-.433.144.138.044.297-.09.46.037-.147.12-.33.012-.502.155.215-.027.378-.05.543-.067.099-.01.205-.034.269.085.027.05.153.018.121.117-.022.071-.116.034-.17.07.306.008.506.13.462.3-.06.232-.246.092-.39.116.033-.117.14-.035.187-.105-.073 0-.141-.011-.203.003-.113.025-.32-.079-.322.087-.001.163.127.335.369.263a59.535 59.535 0 00-.183-.061c.247-.114.456-.122.685-.114-.036.155-.155.069-.206.13.107.03.226-.035.33.059-.075.121-.197.072-.299.085-.108.014-.223-.018-.322.064.17-.027.34-.036.51-.043.138-.005.246.075.246.172 0 .145-.153.07-.24.084-.062.01-.18.01-.185-.012-.052-.184-.16-.072-.25-.048.222.183.506.025.765.127-.133.18-.34.03-.495.144.182.05.374-.066.536.06-.075.11-.179.043-.286.081.047.015.093.017.098.033.142.436.537.612.86.871.418.337.785.74 1.21 1.068.282.216.508.471.737.732.025.029.053.057.032.096-.02.038-.061.042-.096.023-.112-.065-.234-.044-.372-.048.064.069.171.009.209.108-.095.123-.298.001-.38.154l.002-.002c-.06.07-.123.163-.226.114-.108-.05.004-.13.014-.188.028-.174-.146-.178-.195-.271-.15-.288-.34-.156-.516-.063-.205.11-.32.017-.417-.147h.453c-.103-.038-.14-.04-.15-.057-.226-.35-.443-.707-.902-.794-.016-.004-.034-.064-.03-.095.03-.199-.078-.132-.14-.063-.05.054-.096.114-.165.166.144.045.326-.004.345.203.03.342.13.452.468.53.046.011.08.07.119.108-.08.016-.17.015-.216.104-.026.051-.09.068-.113.028-.137-.249-.353-.115-.55-.113.238.05.483.087.504.4 0 .008.103.008.158.013.082.008.18-.035.141.14-.033.146.122.019.176.06.099.077.265-.15.299.035.023.126-.107.243-.277.247-.065.002-.137.036-.133.115.003.049.039.103.074.142.03.036.111.043.108-.009-.015-.286.2-.15.31-.164.155-.019.315.006.473.018.047.003.095.03.09.086-.007.059-.053.073-.103.044-.197-.112-.4.003-.635-.047.157.331.395.548.603.788.049.057.099.112.147.169.03.035.066.08.024.12-.063.061-.094-.012-.13-.047-.2-.198-.2-.198-.475-.139-.01.08.197.142.049.213-.112.054-.263.203-.375.091-.167-.167-.49-.248-.405-.593.004-.015-.006-.049-.01-.049-.287 0-.342-.345-.596-.398a.256.256 0 01-.194-.186c-.102-.416-.506-.642-.642-1.035-.233.005-.203-.176-.228-.32a.091.091 0 00-.023-.049c-.055-.051-.23.064-.185-.11.03-.112.188-.031.271-.097-.418-.002-.457-.04-.386-.373-.11.01-.05.155-.165.184a.645.645 0 01-.192-.365c-.014-.11-.115-.17-.2-.136-.095.04-.016.124.016.187.046.09.097.18.135.274.024.061.132.161-.05.17-.066.004-.04.047-.024.075.116.213.144.457.27.67a8.4 8.4 0 01.492.999c.127.298.36.554.557.819.099.132.17.221-.082.17-.007.122.187.077.134.19-.05.107-.129.015-.188-.009-.176-.07-.206.044-.23.188-.074-.156-.263-.25-.166-.472a1.473 1.473 0 01-.432.007c-.203-.027-.424-.071-.558.185-.065.124-.238.07-.36.102-.016.004-.05-.026-.06-.047-.02-.042.01-.067.046-.086.08-.041.185.017.257-.06-.024-.06-.076-.049-.118-.056-.087-.015-.236.03-.242-.074-.007-.152.138-.056.215-.067.12-.018.06-.176.17-.2.114.006.003.271.193.181.113-.053-.14-.228.177-.253-.242-.044-.381-.054-.517-.015-.07.02-.142.084-.186-.022-.033-.078.034-.114.09-.15.03-.018.056-.042.106-.081-.168-.063-.218.048-.282.127-.11.137-.199.111-.273-.033-.025-.05-.045-.102-.068-.153-.094-.2-.088-.213.101-.218.059-.002.098-.042.074-.088-.082-.159-.037-.412-.333-.414.066-.192.277-.07.357-.217-.328.036-.486-.213-.603-.422-.131-.235-.262-.27-.489-.198-.2.064-.395-.103-.39-.31.004-.151.145-.005.18-.084-.04-.1-.135-.123-.218-.164-.048-.023-.115-.048-.073-.118.03-.053.087-.05.148-.03.219.07.22.067.37-.015-.117.016-.201.073-.273-.021-.098-.13.125-.152.08-.26.202.087.143-.219.3-.2-.063-.003-.031-.186-.135-.086-.09.086-.14.059-.15-.034-.04-.332-.265-.31-.494-.264-.162.033-.293.011-.422-.115.158-.09.313.01.45-.059-.053-.071-.129-.102-.201-.141-.095-.051-.248-.09-.243-.195.006-.136.195-.042.297-.15-.299.025-.577-.084-.839.052.095.006.181-.077.288-.011-.053.036-.12.061-.152.11-.032.046-.158.063-.09.138.068.075.132.021.154-.07.009-.04.032-.076.074-.054a.123.123 0 01.054.087c.005.063-.004.128-.01.192-.038.432.284.69.67.538.127-.05.395.106.447.26-.431-.026-.866-.098-1.335.055.114.103.184-.042.258.03.051.052.137.082.118.169-.02.093-.104.04-.161.051-.296.061-.461-.088-.6-.326-.049-.081-.029-.167-.07-.254-.168-.356-.446-.402-.774-.394-.001-.096-.248-.103-.093-.254.106-.103.211-.172.274.044.004.016.07.03.1.02.18-.057.446-.04.33-.371-.018-.053.029-.13.051-.215-.245.012-.477.01-.704.04-.104.015-.188.185-.301.007-.067.145.208.398-.16.39-.026-.34-.026-.34-.575-.362.056.021.079.024.094.036.095.075.33.026.29.182-.036.139-.216.026-.336.013-.102-.012-.222.064-.294-.071a.463.463 0 01-.032-.04c.018-.157.109-.335-.126-.418-.039-.014-.047-.064-.018-.094.063-.063.134-.118.201-.177-.13-.127-.047-.228.053-.306.117-.092.08-.284.069-.32-.1-.32.152-.214.292-.261-.157-.02-.303-.04-.299-.238 0-.028-.014-.075-.005-.08.31-.154.068-.372.069-.562 0-.043.014-.087.022-.138.119.02.143.215.282.134.12-.07.055-.173.03-.27-.028-.115.078-.146.147-.17.162-.055.138-.159.075-.26-.09-.143-.175-.029-.25.027-.05.037-.09.093-.13.143-.084.105-.154.214-.237-.01-.036-.096-.172-.053-.248-.05-.278.01-.146-.174-.145-.283.002-.15.101-.191.23-.139.122.05.267.081.283.28.153-.197.317-.35.167-.608-.115-.197-.307-.077-.45-.143l.108-.203c.262-.076.556-.066.762-.295.099-.11.198.096.329.002-.21-.131-.143-.332-.148-.524.137-.036.208.141.341.082.029-.144-.109-.146-.18-.205-.053-.044-.159-.047-.142-.146.019-.111.129-.031.188-.07.023-.016.066-.003.1-.02-.18-.092-.373-.039-.558-.034-.24.007-.425-.02-.413-.32.165.025.135-.136.19-.222.23.497.7.565.986.046-.146.096-.282.003-.458.053.099.062.248.008.215.134-.027.104-.14.06-.219.063-.102.004-.084-.084-.118-.145-.105-.192-.164-.455-.474-.424-.048-.19-.304-.377-.008-.572-.124-.243.1-.433.098-.657 0-.028-.012-.06-.002-.083.169-.366.161-.787.36-1.139.059-.102.036-.142-.013-.235a1.658 1.658 0 01-.204-.626c-.027-.307.153-.475.447-.395.18.05.344.016.524-.024-.187-.062-.39-.078-.556-.182-.228-.143-.375.081-.444.168-.424.538-.892 1.055-1.107 1.73a.474.474 0 00-.015.317c.092.292.018.607.1.904.013.05-.025.116-.083.132-.086.024-.115-.05-.13-.111a.788.788 0 01-.031-.245c.037-.47-.303-.806-.429-1.22-.05-.164-.329-.183-.408-.384.034.196.05.394.262.474.07.027.042.11.06.126.14.13-.104.405.201.492.052.016-.07.242-.26.216.187.17.149.412.174.612.027.224.158.45.055.687-.031.072.015.093.071.12.13.06.168.253.229.29.258.156.153.325.093.512-.065.203-.097.42-.185.61a1.533 1.533 0 00-.125.509c-.02.201-.03.397-.292.437-.026.004-.066.049-.066.075-.012.527-.429.833-.672 1.233-.173.285-.374.563-.49.87-.095.254-.39.27-.473.502-.011.033-.027.066-.062.149.145-.083.28-.11.34.007.053.105-.041.22-.12.286a1.123 1.123 0 00-.345.528c-.062.185-.235.253-.36.381.373-.162.756-.313 1.108-.502.229-.123.33-.446.42-.712.037-.11.025-.236.11-.334.02-.024.028-.095.022-.098-.217-.091-.105-.273-.11-.415-.012-.355.168-.477.494-.313.142.07.28 0 .37.024.447.122.436-.332.664-.47.037-.022.05-.091.086-.102.134-.044.174-.29.352-.18.022.015-.067.296-.163.396-.27.277-.271.622-.283.96-.007.179-.027.312-.181.429-.176.133-.332.284-.386.53-.022.096-.195.162-.195.313l-.022.019c-.13.06-.167.15-.18.303-.035.425-.187.818-.384 1.199-.06.117-.268.006-.258.231.003.066-.008.249-.094.352-.013.017.002.073-.008.076-.267.095-.088.337-.164.497-.082.171-.14.337-.385.301-.163-.024-.195-.077-.102-.214.038-.056.124-.116.061-.193-.07-.087-.152.022-.235.009-.069-.107.094-.176.045-.288-.398-.055-.802-.045-1.205-.029-.056.003-.143.076-.158-.03-.014-.1.09-.105.16-.11.284-.023.568-.055.887-.02-.074-.088.052-.206-.082-.269-.152-.07-.19.047-.24.15-.023.048-.074.055-.12.031-.064-.032-.103-.086-.094-.157.01-.078.03-.167-.086-.148-.12.02-.258-.044-.36.065-.04.043-.004.065.035.076.09.027.103.083.037.139-.064.053-.186.108-.222.033-.081-.172-.207-.352-.123-.559.057-.14.17-.216.332-.161.063.021.087.019.066-.056a.25.25 0 01-.004-.108c.063-.372.171-.42.46-.208a.195.195 0 01-.1-.164c-.006-.073-.053-.126-.134-.1-.396.122-.787.252-1.007.651-.044.078-.066.128-.017.222.052.1-.066.18-.138.2-.078.02.003-.113-.08-.155-.13.26.081.387.196.558.043-.053.074-.112.124-.147.072-.053.1-.19.199-.167.144.034.034.178.075.265.066.14-.016.198-.117.127-.132-.093-.127.034-.142.07-.09.227-.264.295-.488.351-.377.095-.76.201-1.056.484.029.07.074.072.13.033l.112-.077c.115.208.294.027.436.072.024.007.06.02.064.039.016.051-.02.086-.059.114-.183.136-.356.294-.556.398-.09.047-.262.195-.356-.057-.037-.1-.55-.099-.63-.017-.087.09-.053.187.004.28.05.082.017.148-.056.186-.1.052-.1-.023-.107-.095-.004-.044-.035-.07-.069-.017-.027.043-.04.126-.108.06-.047-.046-.037-.126.006-.18.034-.042.092-.064.126-.106a.16.16 0 00.014-.184c-.038-.06-.105-.01-.15.008-.588.224-1.165.475-1.687.831-.093.064-.173.124-.288.143-.587.098-1.166.241-1.766.234l-.145-.116a.152.152 0 01.087-.038c.238-.021.403-.212.66-.231.267-.02.464-.325.81-.24l-.037-.1c-.461 0-.928-.045-1.381.016-.28.038-.55.02-.822.012a19.347 19.347 0 01-.863-.817h-.002zm25.702 1.63l-.071.055c-.024-.016-.036-.047-.054-.07-.055-.07-.047-.226-.221-.13-.068.037-.13-.085-.197-.133-.29-.213-.523-.47-.944-.522a1.622 1.622 0 01-.845-.4c-.158-.151-.446-.23-.456-.52l-.002.001c.2.04.419-.086.614.058-.066.103-.19.022-.252.106.17.055.36-.021.472.244.078.186.305.361.558.434-.015-.23-.288-.271-.297-.484-.002-.064-.03-.127-.03-.19.002-.06-.002-.153.091-.138.087.014.07.09.045.156-.012.032-.014.068-.032.16.213-.182.3-.07.401.078.248.365.657.557.964.861a.98.98 0 01.256.434zM6.576 32.96a19.577 19.577 0 01-.27-.385c.154.03.292.112.386.321-.037.005-.076.04-.116.064zm.83-23.696l.072-.084c.177.1.254-.036.312-.198.034-.096.05-.186.144-.041.009.014.006.069.043.016.015-.023.028-.05.05-.066.143-.105.27-.05.318.12a.64.64 0 00.27.387c-.152.021-.191.234-.342.195-.108-.028.004-.149-.06-.268-.146.285-.39.326-.658.332-.122.002-.196.004-.122-.138.046-.088-.007-.17-.027-.255zm30.35.622c.23.3.452.606.664.919a.705.705 0 01-.417.03c-.27-.079-.31.12-.415.256-.05.064.062.193-.07.206-.125.013-.04-.174-.164-.2-.17.185-.354.365-.616.116-.143.218-.312.006-.47.019-.296.023-.422-.173-.277-.444.099-.185-.037-.227-.106-.317-.033-.043-.105-.084-.138-.016-.04.082.068.022.09.065.038.08.017.125-.067.138-.287.048-.187.336-.301.493-.04.056.048.036.088.041.26.037.405.2.363.45-.03.178.167.216.157.407-.009.17-.181.371 0 .545l-.567.274c-.148-.27-.2.005-.281.056-.053.034-.067.186-.141.134-.286-.2-.494.07-.74.096-.207.02-.331-.069-.443-.243-.06-.092-.2-.131-.173-.294l-.175.218c-.11-.137.057-.256-.017-.389-.138.082-.117.224-.133.337-.024.168-.133.23-.244.142-.116-.093-.342.024-.371-.206-.001-.007-.03-.011-.047-.016.021.175-.21.213-.216.317-.02.326-.127.562-.453.669-.103.034-.216.108-.161.219.15.308-.212.226-.264.373-.13-.204-.355.101-.463-.097-.117.096.304.18-.021.287-.044.014.112.084.078.213-.356-.218-.558.052-.815.231-.267.185-.542.34-.733.62-.137.2-.37.184-.605-.022-.143-.124-.258-.281-.377-.431-.063-.08.009-.16.04-.232.053-.118.12-.228.185-.352-.23-.085-.425-.078-.627.038-.225.13-.498.042-.64-.183-.185-.29-.392-.548-.797-.427-.178.053-.152-.02-.177-.17-.057-.338.232-.483.329-.73.014-.036.102-.077.141-.066.37.11.85.112 1.017.491.113.26.263.207.426.268.266.1.529-.088.79.019.092.038.211.009.287.088.066.067.123.07.196.022.1-.067.02-.117-.005-.184-.029-.077-.034-.162-.106-.235-.055.05.044.254-.192.147-.202-.092-.464-.09-.716-.061-.255.03-.48-.154-.709-.272-.148-.077.11-.11 0-.227-.122-.13.081-.1.147-.12.178-.055.209-.226.284-.357.039-.067-.037-.1-.1-.134-.141-.075-.3-.096-.177-.369.245-.544.762-.435 1.172-.566.192-.062.34-.137.465-.296-.2-.05-.165-.045-.136-.255.015-.11-.105-.238-.022-.374.023-.037.042-.126.068-.103.243.205.145-.084.206-.137.138-.121.264-.27.494-.224-.045.143-.166.038-.212.108.22.237.498.114.763.087.004-.038-.067-.11-.006-.179.038-.042.087-.077.146-.058.053.017.056.063.047.114-.004.027-.071.097.03.08.03-.006.105.027.069-.097-.044-.153.235-.124.282-.29.012-.041.13.018.19.116.058.095.178.012.202-.106.022-.107.022-.21.09-.313.061-.089.057-.19.173-.043.094.119.099-.046.15-.068.09-.037-.068-.221.107-.195.108.016.21.08.22.215l.06.05.274-.006a.27.27 0 00.169.122c.02.183-.172.529-.322.587-.106.04-.17-.01-.237-.087-.084-.098-.197-.06-.273 0-.077.064-.022.132.055.171h.06c.123.127.181.326.413.332.071.002.092.12.026.15-.228.104-.058.13.026.181a.49.49 0 01.228.372c.13-.207-.185-.293-.082-.467.016-.002.038-.013.048-.006.29.203.382.178.481-.172.021-.074.04-.094.097-.089.204.02.182-.11.201-.25.012-.083-.05-.185.115-.276.25-.138.364-.132.457.134.03.086.398.056.061.258.317.012.346-.017.383-.31.006-.049.06-.09.083-.139.019-.04.04-.092.029-.13-.056-.192-.052-.202.05-.364.099-.159.208-.21.41-.263.288-.077.465.14.71.107.095-.013.227.065.13.222-.034.055-.031.111.019.15.052.041.107.006.156-.018.48-.24.479-.24.72.223.036.068.046.17.161.168.123-.003.169-.06.126-.179.037-.011.075-.025.113-.038zM11.607 32.04l.004.094c.042.163.023.234-.172.328-.165.08-.43.122-.497.393-.032.128-.136-.008-.203-.03-.059-.019-.13-.074-.043-.142.18-.143-.026-.108-.074-.16-.01.17-.057.392-.216.367-.254-.039-.31.185-.478.22.4.232.752.047 1.108-.108a.404.404 0 01.132-.038c.307-.018.61-.09.91-.123.442-.048.503-.324.582-.645.077-.313.036-.63.054-.943.01-.18.035-.35.23-.441.746-.346 1.05-.998 1.202-1.752.016-.08.01-.177-.082-.174-.201.006-.343-.109-.5-.199-.154-.089-.297.012-.321.116-.05.218-.19.226-.363.238.38.069.754.103 1.164.065-.125.228-.378.356-.495.584.097.059.157-.098.248-.002-.015.031-.028.065-.046.096-.108.178-.399.23-.338.535.015.07-.142.21-.248.184-.354-.088-.632.025-.881.264-.012.011-.049-.004-.048-.004-.131-.115.22-.218-.026-.32.048-.113-.065-.279.09-.351.275-.13.07-.4.2-.575-.288.31-.579.588-.96.75.1-.149.233-.261.353-.385.056-.058.168-.142.048-.219-.056-.035-.125-.171-.256-.035-.146.15-.35.242-.517.374-.16.126-.314.252-.498.35-.265.14-.256.156-.276.295.257-.26.59-.29.921-.266.117.008.12.174.135.378-.204-.31-.427-.269-.543-.077-.112.183-.176.393-.357.53.014.208.149.39.11.615-.02.117.1.132.2.119a1.39 1.39 0 01.748.094zm3.966-3.457c-.302.101-.528.31-.692.566-.075.117-.142.146-.239.104-.275-.12-.27.057-.246.23.048.34-.09.568-.382.733a3.61 3.61 0 00-.452.32c-.27.215-.332.458-.208.794.052.142.116.29.059.432-.11.273-.005.565-.136.874.27-.29.31-.6.263-.916-.038-.252-.002-.497.005-.745.007-.209.097-.343.281-.442.166-.09.36-.146.451-.343.08-.17.243-.244.4-.323.105-.054.234-.06.201-.256-.019-.116.052-.322.142-.366.294-.145.351-.459.551-.664.213-.063.422-.078.601.082.11.098.178-.038.192-.064.08-.143.07-.147.218-.122.011.002.027-.02.044-.034-.007-.086-.184-.033-.14-.154.152-.106.31.032.518-.044-.25-.02-.381-.15-.186-.277.218-.14.235-.446.568-.493a.775.775 0 00-.39-.07c-.189.013-.506-.141-.368.289.005.014-.023.044-.041.06l-.676.57c-.108.09-.3.075-.338.26zm7.586-2.757c-.062.222 0 .411.121.591.135.2.286.392.343.632.012.052.028.118-.034.15-.024.012-.07-.005-.1-.02-.035-.018-.061-.049-.091-.074a.456.456 0 01-.043.153c-.02.045.062.02.096.023.105.007.151.048.13.16-.016.09.008.184-.141.185-.121 0-.242.045-.399.078.15.047.257.015.364-.009.114-.025.267.042.266.098-.001.338.208.603.283.913.148.608.304 1.215.468 1.82.027.1-.002.17-.044.25.201.035.48.338.475.522-.001.036-.071.081.02.082.352.005.113.196.102.32.07-.018.15.005.171-.105.018-.088.105-.06.113-.009.023.156.121.104.216.115.154.016.322.023.428.164.195.26.385.523.576.785.106.144.21.29.394.36-.349-.49-.42-1.164-1.023-1.484-.096-.052-.174-.119-.293-.133-.107-.014-.23-.068-.254-.19-.058-.305-.244-.535-.4-.79-.11-.18-.324-.29-.383-.457-.172-.491-.3-1-.403-1.511-.06-.292-.064-.6-.234-.85-.07-.102.071-.191-.022-.246-.151-.09-.178-.268-.12-.358.17-.269-.075-.44-.168-.569-.14-.193-.347-.34-.414-.597zm-5.047.561c-.24-.422-.117-.926.224-1.112a.504.504 0 00.224-.233c.103-.213.193-.432.3-.676-.132.043-.244.05-.237.192.006.113-.083.126-.15.111-.224-.049-.318.098-.417.248a3.54 3.54 0 00-.427.93c-.107.358-.427.56-.566.887-.042.097-.138.068-.215.093-.146.046-.222.103-.13.3.11.24.29.075.425.132.194.082.231-.096.308-.192.127-.16-.132-.125-.131-.25.173.022.252-.03.29-.224.037-.188.125-.45.502-.206zm-2.397 6.41c.446-.359.755-.796 1.07-1.236.15-.21.12-.48.31-.663.381-.365.716-.761.782-1.316.007-.062.13-.136.013-.177-.09-.032-.15.069-.154.155-.014.281-.162.484-.36.666-.046.042-.073.106-.105.162-.335.592-.65 1.193-1.125 1.695-.185.194-.387.399-.43.714zm1.12-6.621c-.09.035-.168.1-.244.022-.107-.111.067-.09.08-.152.016-.078.065-.15.018-.238-.252.285-.661.415-.77.827-.004.01-.051.01-.078.01-.197.004-.26.207-.412.276.119.14.23-.063.348-.008a.101.101 0 00.055.004c.2-.028.2.056.126.205-.05.1-.137.196-.098.378.121-.173.369-.131.39-.372.005-.045.058-.078.107-.03.079.076.086.01.1-.047.016-.066 0-.115-.077-.11-.085.007-.198.078-.216-.074-.014-.123.091-.172.184-.217.081-.04.165-.074.247-.11.024-.097-.127-.112-.094-.227.116-.004.285.11.334-.137zm-2.645 1.262c.005.236-.106.356-.291.411-.241.072-.205.336-.128.397.178.14.047.224-.006.34.333-.3.816-.25 1.15-.552-.163-.07-.412-.08-.276-.366.018-.037-.047-.079-.095-.079-.124 0-.225-.061-.354-.152zm-1.744 2.896c.298-.198.424-.544.77-.61.02-.005.056-.05.052-.058-.112-.19.032-.173.147-.194.062-.01.085-.076.06-.133-.032-.075-.091-.036-.14-.015-.064.028-.118.083-.201.026-.163-.113-.222.029-.197.13.044.18-.063.234-.166.333-.137.132-.344.232-.325.52zm2.356 2.639c-.08-.012-.086-.179-.203-.094a12.01 12.01 0 00-.66.528c-.044.036-.1.084-.058.165.05.096.1.033.158.015.064-.021.116-.027.137.074.022.106.118.041.182.036.046-.004.095-.018.09-.082-.006-.078-.07-.07-.123-.083-.073-.019-.103-.056-.072-.142.027-.076.05-.132.144-.137.06-.004.185.004.174-.027-.078-.233.159-.146.23-.253zm-1.075-21.668c.125-.07.38-.006.261-.32.148.124.146.122.239 0 .052-.07.091-.028.121.028.027.052.102.114.12.062.057-.168.134-.06.218-.046.207.033.421-.008.627.064.147.052.338-.206.463.06 0 0 .042-.008.045-.018.077-.265.136.032.201.006.092-.037.128-.165.258-.148.08.01.101.067.137.12.042.063.013.179.139.186.056-.136.226-.234.082-.461.185.135.166.248.123.384-.039.124.077.219.125.326.014.032.068.027.093-.008.07-.095.011-.198.009-.296 0-.032-.026-.063-.04-.094.045 0 .11-.017.114.045.023.34.16-.083.253.037.05.063.073-.055.071-.118-.005-.199.131-.213.231-.119.184.172.335.259.526.022.07-.087.165-.069.25-.008.08.058.128.121.065.227-.023.037-.013.092.03.104.216-.024.183-.34.425-.32.003.097-.112.19-.012.309.063-.1.13-.181.154-.297.02-.096.022-.236.123-.269.344-.112.144-.294.099-.46-.146-.012-.141.25-.302.14-.152-.106-.356-.116-.476-.273-.118-.038-.245-.068-.174-.241-.103-.053-.191-.065-.249.067-.06.135-.122.245-.266.056-.063-.082-.175-.056-.252.003-.067.05-.07.117-.014.193.126.17-.063.179-.117.155-.165-.07-.249-.016-.298.133-.022.067-.048.062-.1.034-.102-.057.006-.051.02-.072.057-.075.006-.122-.046-.162-.05-.037-.113-.103-.17-.039-.078.086-.2.063-.272.125-.213.185-.371-.003-.476-.108-.096-.095-.024-.253.121-.352.08-.054.085-.2-.002-.265-.09-.067-.167-.004-.21.102-.024.058-.029.14-.106.172-.05-.103.093-.174.02-.274-.125-.042-.245.15-.384.012-.084-.083-.2-.223-.257.039-.019.084-.141.088-.182.018-.176-.297-.14.054-.207.064-.105-.08.062-.197-.052-.286-.104.027-.196.246-.28.137-.181-.236-.252-.091-.368.118 0-.175.006-.283-.002-.39-.01-.123-.08-.232-.206-.22-.202.019-.385.055-.518-.163-.04-.066-.16-.027-.22.043-.122.14-.209.335-.458.246-.041-.015-.057.041-.046.08.027.093.032.132-.078.059-.08-.054-.078.009-.08.073-.005.097-.051.182-.042.29.014.15-.032.296-.283.136a.51.51 0 00.205.23c.116.066.117.21.06.262-.136.121-.265.345-.508.173-.056-.04-.109-.038-.151.002-.136.128-.428.006-.453.362-.01.143-.296.34-.483.477-.095.07-.054.123-.042.2-.116-.153-.234-.269-.445-.236.027-.08.152-.058.127-.144-.021-.075-.096-.02-.143-.037-.035-.013-.068-.05-.098-.048-.173.018-.339-.185-.486-.066-.1.082-.22.14-.314.267.005-.086.025-.146.008-.193-.054-.147-.179-.131-.304-.119-.097.01-.14.055-.11.145.045.132.11.298.234.316.074.01.309.186.324-.109.002-.025.102-.065.116-.018.091.326.562.309.576.68.258-.172.52-.223.8-.24.22-.014.402.174.624.103.098-.031.19-.195.283.007.005.01.05.011.072.004.178-.065.322-.347.285-.601.033.062.055.091.065.125.018.069.053.13.128.123.12-.01.036-.096.044-.149.011-.081.072-.103.142-.102.078.001.194-.045.213.07.039.238.209.195.36.186.27-.016.539-.01.808.005.125.007.262.05.37-.056.013-.013.013-.062 0-.074-.123-.115-.26-.045-.394-.025-.19.028-.388.087-.523-.123l.092-.045zm11.277 3.22c.068.092.159.228.006.273-.317.094-.125.198-.015.307-.075.038-.185-.032-.184.119 0 .128-.024.32-.209.09-.06-.074-.126-.052-.19.01-.064.064-.09.059-.153-.03-.034-.047-.243-.307-.332.059-.029.117-.25.332-.493.263-.116-.034-.181.035-.24.097-.068.074.005.155.028.232.028.098.166.076.2.223-.162-.089-.305-.147-.424-.237-.248-.188-.442-.145-.445.154-.003.223-.127.312-.251.42a1.266 1.266 0 01-.323.203c-.132.058-.23.206-.162.361.041.095.143.168.276.068.042-.032.093-.192.187-.05.064.097.007.187-.076.238-.189.116-.319.248-.136.548-.313-.18-.46-.025-.565.151-.08.134-.15.221-.335.18.184.126.267.298.247.48-.008.075-.125.152-.171.256-.083.19.156.006.15.155-.01.221.183.255.362.224.128-.022.27-.018.277.115.009.186.138.252.24.35.042.04.147.11.155.05.013-.106.134-.088.144-.2.032-.368-.169-.684-.154-1.07-.179.14-.072.383-.35.497.113-.194.082-.333.055-.479-.03-.158.254-.522.421-.563a.419.419 0 00.326-.34c.042-.342.097-.65.447-.817.072-.034.451.066.428.124-.06.15.17.18.103.303-.019.035-.18-.032-.087.108.056.085.122.051.194.015a.291.291 0 01.158-.03c.293.038.465-.09.488-.38.005-.065-.002-.174.077-.13.274.153.256-.06.286-.251.062.153.116.258.268.256.166-.003.235-.133.266-.247.108-.388.235-.723.732-.727.124-.002.249-.157.252-.27.011-.417.345-.782.175-1.228-.098-.258-.044-.575-.299-.772-.036-.028-.055-.062-.025-.089.154-.138.221-.44.327-.474.237-.073.104-.227.113-.305.017-.143-.159-.06-.242-.11.11-.007.218-.015.322.023.097.035.166-.003.2-.093.037-.095-.048-.136-.103-.175-.08-.06-.21-.08-.257-.155-.188-.301-.4-.248-.638-.081-.037.025-.114.056-.082.084.225.193-.058.12-.086.146-.171.156-.093.596.133.701.089.042.226.028.087.219-.084.114-.098.311-.206.446a.108.108 0 00-.005.132c.139.203-.045.295-.158.367-.225.143-.379.098-.408-.08-.278-.051-.251.192-.326.337zm.55-.498c.086-.261-.047-.54.12-.792.053-.08.018-.327-.045-.357-.212-.102-.263-.311-.395-.462-.118-.135-.068-.2.03-.323.075-.095.28-.128.214-.322-.003-.008.04-.048.057-.045.304.046.58-.329.916-.03.13.115.551-.088.616-.239.064-.147-.07-.657-.197-.744-.022-.015-.092-.013-.027-.058.148-.104.108-.28.142-.416.041-.164.108-.208.255-.188.073.01.17.039.188-.059.03-.175.056-.357.042-.533a.394.394 0 00-.18-.303c-.14-.085-.317-.04-.381.052-.096.136.136.098.199.206-.23-.03-.443.155-.673-.139.019.156.112.236-.04.3-.112.048-.21.236-.228.374-.036.264-.01.536-.01.834a.753.753 0 00-.62-.46c-.066.117.17.17.055.264-.095.078-.084-.13-.2-.105-.083.246-.218.483-.143.775.022.085-.023.245-.119.243-.189-.004-.256.075-.235.236.019.146-.135.305-.066.387.176.209.086.364-.023.538-.028.045-.014.087.012.13.14.23.036.363-.16.501-.085.059-.261.002-.244.123.02.141.198.092.305.13.008.002.014.01.03.021-.181.182-.485.055-.654.258-.007.008-.063-.04-.096-.039-.108.004-.34-.114-.188.175.026.05.011.078-.055.091-.088.018-.173.057-.26.087l.003-.003c.115.178.26.23.471.162.31-.098.433-.018.46.296.014.16.085.165.213.163.177-.003.221-.187.362-.23.074-.146.047-.389.325-.338.106-.01.173-.004.225-.162zm-3.224-2.404c.017-.171.03-.343.053-.514.006-.045.042-.094-.01-.123-.227-.129-.048-.294.009-.374.16-.228.369-.422.562-.626.092-.096.13-.29.084-.316-.237-.132-.365-.41-.638-.477-.179-.044-.317.102-.478.148.04.128.01.273.131.381.041.037.213.053.1.166-.067.067-.168.145-.285.024-.128-.133-.226-.076-.28.085l-.084.265c-.12-.06-.222-.185-.396-.157.037.18.262.167.288.316-.228.23-.614-.01-.82.29-.018.026-.03-.05-.054-.07-.182-.153-.368.02-.553-.005-.029-.003-.041.085-.017.124a.423.423 0 00.43.193c.217-.03.326.039.4.23.06.159.242.149.365.198.103.04-.013-.15.088-.187.192.123-.038.28.027.407.317.079.26-.254.403-.393.03.287.065.316.35.29.042-.005.07-.023.077.036.022.168.15.086.238.098l.01-.009zM20.302 32.05c-.114.194.105.412.024.548-.199.334-.234.734-.474 1.05-.213.278-.166.668-.363.961-.006.009.006.036.017.05.197.255-.02.465-.089.682-.115.364-.118.753-.271 1.107-.024.055.016.148.047.213.046.093.087.254.206.21.092-.034.24-.09.23-.271-.008-.133.035-.273.075-.404.107-.354.402-.677.163-1.084-.01-.018 0-.06.015-.08.14-.192.13-.437.229-.644.151-.318.225-.65.28-1 .033-.216.056-.464.191-.717.014.075.022.099.022.123 0 .068-.053.176.046.187.104.012.11-.11.118-.186.03-.281.024-.56-.11-.86-.095.167-.207.175-.334.096l-.021.019zm2.017-20.417c-.122.343.247.195.35.366-.166-.058-.286-.072-.406.086-.04.05-.31.197-.499.01-.064-.063-.322-.178-.226.193-.112-.235-.235-.202-.352-.082-.057.059-.075.127-.122-.008-.028-.083-.114-.082-.188-.036-.054.034-.153.096-.114.133.155.148.014.322.048.473.164-.002.09-.175.185-.217.067.078-.113.202.058.256.445.14.897.212 1.363.148.023-.004.067.003.07.014.085.299.274.051.41.076.087.016.135-.053.15-.13.02-.093-.043-.146-.119-.16-.216-.043-.195-.143-.131-.32.06-.166.153-.358.14-.513-.018-.218-.313-.12-.456-.228-.044-.032-.1-.047-.15-.07l-.01.009zm-13.298-.578c.2-.02.406-.053.57-.171.112-.081.018-.24.054-.366.047-.162-.047-.322-.155-.368-.017-.007-.015-.05-.028-.075-.034-.061-.086-.119-.155-.077-.129.077-.272.043-.401.047-.202.007-.394.16-.462.235-.199.22-.222.172-.265-.064-.006-.033-.047-.055-.109-.026.037.187-.065.278-.248.309-.157.026-.133.13-.082.23.078.152.162.302.247.452.016.027.05.061.077.063.057.003.077-.044.073-.095-.003-.054-.029-.112.059-.143.14.22.29.279.424-.026.028.05.045.073.055.098.043.105.12.2.229.13.14-.09-.085-.1-.065-.182.012-.05.002-.106.002-.16.066.077.04.203.18.189zm.975-1.17c.143-.14.26.017.386.04.09.016.165.04.201-.072.198.12.057-.5.355-.164.024-.024.052-.047.073-.074a.538.538 0 00.108-.3c.022-.237-.069-.518.228-.677.085-.046.123-.168.026-.264-.092-.091-.201-.207-.33-.118-.11.074-.175.215-.336.109.014.155-.214.162-.193.347a.743.743 0 01-.11.422c-.088.153-.106-.055-.175-.063-.068-.008-.1.034-.144.066-.04.03-.067.073-.142.05-.151-.044-.272.066-.271.226-.004.235.22.313.324.472zm14.507 1.744c-.08.065-.24.01-.266.143-.042.22-.031.222-.255.12-.3-.138-.598.018-.706.332-.072.21-.023.372.077.551.1.179.067.214-.136.216-.03 0-.066.027-.089.05-.145.15-.089.16.08.284.3.216.593.187.904.213-.16-.18-.127-.419-.234-.6-.031-.054-.013-.114.032-.153.247-.214.403-.494.59-.755.126-.178.106-.267 0-.402l.003.001zM8.204 28.47c.004-.182.099-.428-.257-.353-.025.005-.082-.053-.094-.091-.04-.133-.086-.102-.17-.03-.09.077-.222.195-.326.106-.259-.224-.246.029-.318.175-.097-.155-.273-.13-.407-.204-.112-.063-.314-.025-.448.035-.075.033-.062.185.021.29.042.053-.012.14-.051.203-.116.185-.025.245.151.27.391.055.66-.114.831-.467.094.155-.08.351.104.446.14.071.13-.147.233-.172.041.062-.02.173.07.172.167-.003.308-.095.444-.207.012.084-.089.142-.004.195.062.039.096-.021.137-.058a.261.261 0 00.085-.25v-.06zM33.325 8.476c.054-.243.01-.5.179-.728.089-.12.007-.276-.096-.402-.066-.081-.098.117-.162-.008-.067-.131-.183-.253-.353-.217-.16.034-.223.181-.262.352-.06-.094-.065-.286-.185-.08l-.053.096c-.008-.013-.013-.031-.024-.037-.126-.062-.145-.067-.179.035a.343.343 0 01-.193.228l.365.205c-.043.046-.166-.034-.164.08.001.088.11.083.163.127.083.07.254-.087.284.122l-.524.033c.258.075.53.142.774.09.148-.032.13.063.184.081.13.043-.046.363.227.234a.315.315 0 00.02-.212zM24.903 34.9c-.043-.217-.24-.396-.439-.388-.026 0-.05-.05-.082-.064-.128-.052-.064-.204-.178-.315-.02.146-.184.136-.22.272.104.059.241.062.266.208-.058-.008-.112-.097-.15-.026-.045.082-.12.177-.04.282.162.208.132.549.45.652.02.006.042.078.03.095-.166.232.037.42.07.627.01.054.021.12.092.119.075-.001.123-.05.111-.128-.03-.192.179-.204.244-.326.014-.027.118.152.145-.006.014-.076-.063-.142-.161-.162-.065-.012-.154-.005-.18-.099.11-.057.11-.057.601.064.064-.093-.152-.115-.06-.189.136-.108.01-.201.007-.299-.001-.064-.02-.175-.122-.138-.081.03-.063.121-.03.194l.069.14c-.326-.069-.379-.292-.423-.513zm.236-25.572c.073.152-.037.26-.076.353-.073.17-.148-.054-.21-.051-.162.007-.354-.097-.487.084-.077.106-.075.195-.005.356.006.014-.022.043-.032.065-.094.197.054.285.187.332.13.047.238-.014.21-.189-.008-.059.052-.037.077-.056.156-.118.324-.216.524-.222.085-.003.12-.209.216-.068.164.24.185-.012.225-.069.04-.057.022-.145.078-.217.097-.124.055-.622-.066-.753-.132-.143-.188.08-.295.082-.027 0-.054-.01-.065-.013-.294-.026-.405.112-.282.366zm-5.811-.667c.018.249.16.455.069.684-.01.023.04.081.074.106.086.063.114.1.038.215-.074.11.027.241.127.304.146.091.093-.073.136-.122.052-.059.146-.13.21-.12.168.025.236-.069.292-.188.031-.066.066-.101.142-.11.16-.016.15-.087.034-.16-.161-.101-.223-.205-.14-.41.066-.164.058-.361.066-.545.005-.111-.034-.213-.167-.224-.066.094.069.175-.035.261-.117-.044-.183-.312-.368-.132-.125.123-.156.273.015.396-.158.126-.314.124-.493.045zM5.218 29.735c.207-.035.428.024.643.026.371.002.746.031 1.101-.122.083-.035.203-.031.2-.154a.292.292 0 00-.21-.272c-.261-.078-.534-.06-.806-.058-.299.001-.582.263-.897.04-.073-.05-.198-.028-.294.031-.052.033-.101.088-.176.05-.066-.033-.15-.085-.193.004-.037.077.023.172.074.226.122.128.27.187.433.014.004.116-.113.254.125.215zm15.894 5.707c-.15-.05.019-.305-.207-.319-.067-.004-.076-.097-.067-.165.013-.092.064-.042.118-.04.165.006.17-.138.165-.242-.003-.049.005-.27-.193-.099-.08.07-.08-.051-.058-.127.086-.31.183-.618.135-.948-.014-.089-.035-.17-.142-.174-.098-.005-.12.08-.136.15-.04.166-.093.334-.1.504-.029.617-.31 1.18-.371 1.79-.01.09-.132.205.014.262.131.051.346.014.373-.09.06-.227.232-.202.379-.23-.019-.145-.16-.083-.213-.162.09-.081.236.01.303-.11zm.919-21.329c-.296-.19-.476-.195-.62.178-.062.159-.084.262.04.357.14.108.191.21.096.375-.048.085-.087.194.062.248.134.048.203-.031.233-.13a.74.74 0 01.219-.34.5.5 0 01.327-.153c.295-.024.39-.244.346-.722-.012-.128.033-.318-.186-.295-.194.02-.357.111-.327.374.01.135-.05.197-.19.108zm10.833-5.237c-.056.016-.149-.026-.133.082.01.069.08.104.148.1a.688.688 0 01.319.038c-.055.09-.175-.016-.194.088-.015.079.059.107.121.124.178.049-.024.13.019.189a.27.27 0 00.169.122c.068-.207.068-.207.592-.571.024.068-.1.141-.002.196.101.055.124-.082.226-.11-.061.161-.15.325.08.405.092-.247-.065-.53.16-.745.044-.043.023-.154-.036-.231a.667.667 0 00-1.007-.087.315.315 0 01-.02.21c-.128.107-.286.148-.442.19zm-6.209-.388c-.173-.025-.201.098-.238.207-.07.21.082.321.232.375.13.048.048-.145.143-.195.05.145.088.324.305.18.2-.13.298-.363.502-.492.035-.022.02-.1-.019-.125-.182-.122.009-.243.045-.262.135-.071.078-.135.058-.24-.052-.26-.236-.322-.45-.35-.116-.015-.466.363-.44.47.039.159.263.043.32.22.026.083.091-.098.195-.053-.137.313-.178.333-.653.265zm-2.094-.473c-.12-.19-.382-.16-.53-.316-.003-.003-.061.034-.059.042.04.129-.167.217-.032.38.136.166-.008.398-.226.457-.18.05-.382.064-.518.22-.048.054-.12.117-.073.19.049.073.088-.007.128-.039.038-.03.087-.011.07.033-.079.212.13.208.198.205a.458.458 0 01.368.13c.08.073.203.03.287-.02.081-.047.027-.142 0-.201-.101-.214-.054-.429-.042-.649.008-.129.038-.144.14-.11.188.003.37-.195.29-.322zm11.325 18.47c-.177.291.15.763.51.725.317-.034.621-.052.937.005.194.036.315-.18.22-.35-.124-.222-.362-.275-.584-.13-.025-.057.09-.132.001-.164-.09-.033-.178.013-.225.16-.015-.216-.122-.308-.272-.204-.123.086-.201.237-.372.343.135-.284-.267-.158-.215-.386zM27.553 11.31c-.119-.037-.157.073-.232.119-.1.062-.092.166-.078.247.025.145.135.022.204.042.052.015.11.009.16.028.015.007.012.066.01.101 0 .018.02.053-.033.044-.212-.037-.41.022-.606.092-.07.026-.171.05-.151.131.016.065.055.15.147.184.213.078.418.176.631.253.137.05.3.03.396-.054.075-.067.087-.219-.001-.332a.145.145 0 01-.007-.18c.01-.143-.314-.635-.44-.675zM25.88 7.816c.085.145.495.26.645.18.225-.119.283-.328.15-.557-.04-.07-.087-.116-.06-.22.044-.181-.144-.357-.282-.258-.145.105-.6-.164-.44.33.002.007-.027.024-.041.036-.103.09-.132.18 0 .269.04.028.085.046.042.08-.062.06-.04.098-.014.14zm-2.967 7.217c.004.065.043.131-.071.128-.094-.002-.058-.062-.067-.114-.03-.173-.21-.103-.222-.062-.063.207-.369.258-.32.538.013.075-.073.171.04.234.113.062.184.005.256-.088.122-.159.31-.297.491-.254.308.073.363-.06.413-.31.035-.175.032-.293-.126-.4-.168-.115-.297.036-.444.05-.06.006-.05.119.042.127.055.005.11-.017.157.066-.045.051-.156-.023-.15.085zm8.692-6.4c.196-.023.174-.187.254-.274.065-.07-.08-.07-.14-.091-.13-.043.01-.018.007-.03.045-.008.103-.013.081-.078-.009-.026-.055-.04-.085-.057-.22-.127-.494-.002-.717-.166-.088-.064-.23.043-.216.141.029.195-.13.194-.218.266.313.254.647.335 1.034.289zm-8.69 2.247c-.065.039-.13.05-.07.123.078.092.089.196.108.305.024.139.148.23.26.193.128-.044.324-.034.358-.238.018-.112-.064-.252.134-.309.076-.022-.038-.364-.143-.377-.207-.025-.415-.081-.662-.025.181.16.186.229.016.328zm-2.691 18.951c.134-.166.408-.123.485-.359.011-.034.068-.071.052-.114-.07-.186-.402-.073-.408-.358 0-.054-.11-.014-.162.03a.097.097 0 00-.018.02c-.154.244-.359.45-.494.707-.104.198.08.2.15.288.142-.072.31-.109.395-.214zm1.491-2.071c.098-.015.222.041.294-.09-.41-.102-.68.085-.892.316-.164.178-.222.419-.407.577-.15.126-.567.194-.127.48.004.002.007.016.006.017-.073.044-.144.097-.005.137.077.022.169.02.21-.084.011-.031.029-.08.052-.085.246-.06.258-.08.158-.31-.099.03-.09.197-.225.177-.035-.005-.083-.003-.1-.024-.016-.019-.003-.093.01-.096.235-.063.278-.331.476-.441.063.045.017.232.21.125.202-.11-.019-.15-.002-.22l.108-.203c-.068-.217.075-.25.234-.276zm-.697-9.683c.048-.09.076-.162.198-.128.11.031.2-.004.255-.112.056-.111.007-.192-.068-.272-.054-.059-.138-.125-.059-.213.21-.236.04-.47.004-.704-.007-.049-.039-.09-.095-.076-.032.008-.085.042-.083.06.016.208-.204.391-.05.618.06.09.12.243-.111.217-.045-.005-.055.034-.066.072a2.113 2.113 0 00-.12.768c.143-.05.155-.156.195-.23zm3.482-6.45c.082-.121.286-.152.26-.354-.01-.077-.22-.199.051-.22.045-.004.031-.073-.02-.103-.03-.018-.124-.02-.073-.07.066-.063.133-.099.003-.139-.083-.025-.195-.044-.223.087-.01.047-.023.12-.062.072-.152-.189-.253.013-.377.027-.27.031-.183.146-.055.24.134.097.152.19.066.323-.03.049-.09.104-.002.18.133-.078.276-.168.434-.042l-.002-.001zm-14.243-1.46c-.123-.166-.265-.12-.333.084-.01.03-.01.09-.06.054-.045-.033-.07-.133-.135-.03-.052.082-.018.161.046.225.104.105.203.215.317.308.121.1.272.133.414.056.094-.051.241-.092.184-.25.028-.323-.308-.278-.433-.447zm11.104 22.015c-.098-.019-.269-.124-.266.044.005.256-.311.455-.112.733.02.028-.005.088-.009.133-.094-.043-.138-.027-.094.083.022.056.062.097.125.092.1-.008.224.008.295-.045a.64.64 0 00.21-.299c.038-.112-.082-.083-.148-.096-.018-.004-.043-.04-.041-.058a.068.068 0 01.075-.065c.32.025.145-.17.113-.277-.02-.07-.133-.103-.117-.205a.438.438 0 01-.031-.04zM14.08 13.745a.665.665 0 01.342-.097c.343-.018.685-.046 1.028-.047.14 0 .336-.117.413.127.01.033.075.023.098-.005.19-.232.449-.107.678-.137.144-.019.303.043.473-.082a.629.629 0 00-.411-.05c-.312.062-.603-.085-.935-.017-.557.115-1.142.102-1.716.13a.682.682 0 00-.456.198c.182.094.34.074.486-.02zm6.76 1.764c-.062-.005-.06.031-.072.084-.054.248.007.452.203.614.056.046.114.112.193.088.093-.029.073-.115.065-.189a.437.437 0 01.05-.24c.15-.322.127-.391-.216-.632-.017.142-.033.288-.223.274zM6.321 27.127c-.21.107-.422.244-.627-.028-.033-.044-.193-.163-.244.036-.021.082-.078.085-.121.042-.16-.16-.155.028-.192.093-.083.143.04.138.127.163.175.05.35.05.519-.01.21-.076.39-.023.567.11.04-.415.32-.059.46-.153-.056-.172-.357-.321-.49-.253zm4.956 1.174a.198.198 0 01.118-.145c.046-.019.09-.05.059-.101-.022-.036-.07-.077-.106-.077-.218-.003-.449-.028-.642.081-.128.073-.224.105-.349.02-.05-.033-.11-.032-.142.031-.028.056-.075.121-.04.183.04.067.095.01.145-.006.095-.031.16.013.205.095.127.226.194.067.26-.046.115.162-.206.183-.104.352.235-.077.311-.39.59-.383l.005-.004zM24.729 7.764c-.063.076.04.145.08.214.033.056.066.112.096.17.035.065-.067.19.067.204.138.014.307-.004.372-.129.048-.091.26-.146.136-.282a.879.879 0 00-.512-.28c-.078.031-.188.042-.239.103zm4.306 2.943c.043-.127-.254-.379-.425-.361-.189.019-.31.142-.294.333.017.213.198.262.332.288.235.016.338-.113.387-.26zm-8.4-1.612c-.027.05-.082.106.026.15.231.094.489.12.698.275.106.079.17.036.162-.1-.01-.213-.185-.52-.456-.482-.186.016-.343.002-.43.157zM9.628 28.838c.18-.022.043-.227.095-.393.16.297.35.31.565.118.054-.048.209-.021.155-.141-.059-.132-.152-.033-.223.018-.067.048-.17.146-.156-.027.023-.296-.022-.31-.197-.08-.013.017-.07.013-.102.003-.127-.042-.237.049-.368.037-.099-.01-.185.115-.176.242.006.088.059.184.141.183.143 0 .037-.155.1-.216.01-.01.02-.024.026-.032.15.053-.031.309.14.288zm-1.147-.22c-.07.019-.157-.059-.193.055-.02.065.002.106.054.141.147.1.31.045.459.026.057-.007.13-.153.094-.234-.064-.138-.103-.313-.247-.386-.253-.128-.385.006-.443.25l.001.06c.091.023.202-.011.275.088zM30.982 9.723c.012.055.011.156.105.128.084-.025.163-.084.172-.19.003-.037-.077-.122.049-.084.131.04.264-.086.429.074-.08-.212-.289-.26-.259-.452.005-.03-.05-.06-.087-.037-.21.13-.55.028-.64.38.047.072.202.048.23.18zm-7.486 4.415c.119-.306.119-.305-.22-.26-.064.008-.13.007-.193.018-.264.047-.27.062-.11.287.03.043.004.065-.002.098-.023.138.077.244.17.247.103.003.24-.085.233-.224-.006-.112.025-.154.124-.168l-.002.002zm-13.364-6.07c-.12.023-.26.163-.268.336-.006.13-.013.348.083.36.182.022.315-.122.333-.328l.004-.055c.01-.19.123-.228.286-.189.059.014.112.075.19.007-.154-.294-.423-.172-.628-.132zm8.537 12.919c.065-.044.108-.08.043-.147-.064-.066-.126-.026-.157.036-.101.197-.274.324-.436.46-.088.073-.107.169-.103.275.004.08-.019.18.111.18.106-.001.174-.029.155-.166-.02-.144.05-.208.202-.153.112.04.211.018.235-.114.031-.168-.13-.112-.237-.175.073-.079.12-.152.187-.196zm3.649 12.281c-.16-.115-.125-.286-.193-.431-.056.066-.206.125-.312.134-.058.005-.143.062-.117.08.13.085.106.188.089.309-.002.014.19.03.21.08.135.318.36.124.601.17-.129-.196-.295-.08-.4-.179.023-.09.239-.078.122-.163zm.02 2.49c-.011.243.113.158.22.092.061-.037.112-.134.165-.132.194.006.136-.137.147-.228.018-.141-.108-.151-.2-.183-.202-.07-.327.124-.516.133.044.154.191.192.185.319zm-4.014-25.83c-.07.173.056.204.174.241-.068-.073-.042-.213-.174-.24zM8.803 25.685c-.003.037.007.08.052.073.025-.004.054-.043.063-.071.01-.036-.01-.07-.054-.076-.043.006-.06.037-.061.074zm.212-.302l.035.015c.002-.007.008-.017.004-.022-.003-.005-.014-.007-.021-.01l-.018.016zm1.646 6.444c-.02.117.1.132.199.119.258-.036.508-.008.748.094a.366.366 0 01.236-.174c-.135-.165-.152-.35-.001-.495.09-.087.121-.058.114-.181-.005-.081.018-.145.085-.191.046-.031.105-.069.073-.13-.043-.082-.113-.018-.172-.01-.224.211-.42.46-.717.58-.117.047-.27.179-.272-.1-.001-.071-.06-.093-.12-.068-.11.048-.195-.01-.284-.059.014.208.15.39.11.615zm.95.307c.118.169.229-.035.344-.01 0 .127-.192.116-.18.26.224.066.347-.217.563-.162.006.001.038-.058.04-.09.01-.1.053-.169.143-.222.075-.044.06-.364-.012-.38-.126-.026-.201-.072-.2-.214 0-.044-.056-.077-.106-.069-.062.01-.05.066-.057.11-.011.072-.034.173-.017.212.14.335-.114.273-.285.297a.366.366 0 00-.236.174l.003.094zm-2.561 2.77c-.149.06-.323.154-.394.355.576-.169 1.157-.311 1.684-.627-.422.145-.883.103-1.29.271z" fill="#4C2260"/><path d="M8.285 35.021L33.153 5.554a19.54 19.54 0 012.299 1.811L10.459 36.981a19.524 19.524 0 01-2.174-1.96z" fill="url(#paint0_linear)" fill-opacity=".702"/><defs><linearGradient id="paint0_linear" x1="8.436" y1="36.314" x2="30.525" y2="11.463" gradientUnits="userSpaceOnUse"><stop/><stop offset=".302" stop-color="#fff"/><stop offset=".71" stop-color="#fff"/><stop offset=".831" stop-color="#fff"/><stop offset="1" stop-color="#fff"/></linearGradient></defs></svg>