<svg width="44" height="64" fill="none" xmlns="http://www.w3.org/2000/svg"><path d="M43.331 21.65c0 11.957-13.904 41.36-21.665 41.36C14.228 63.01 0 33.607 0 21.65S9.7 0 21.666 0C33.63 0 43.33 9.693 43.33 21.65z" fill="#D70000"/><path d="M21.667 41.643c-11.033 0-20.009-8.968-20.009-19.994 0-11.024 8.976-19.993 20.009-19.993s20.008 8.969 20.008 19.994S32.7 41.642 21.667 41.642z" fill="#fff"/><path d="M21.666 2.262c10.716 0 19.402 8.68 19.402 19.388 0 10.707-8.686 19.388-19.402 19.388-10.715 0-19.402-8.68-19.402-19.388 0-10.708 8.687-19.388 19.402-19.388zm0-1.213c-11.367 0-20.615 9.242-20.615 20.6 0 11.36 9.248 20.601 20.615 20.601 11.368 0 20.616-9.241 20.616-20.6 0-11.36-9.248-20.6-20.616-20.6z" fill="#A00"/><path d="M41.09 21.786c0 10.708-8.687 19.388-19.403 19.388-10.715 0-19.402-8.68-19.402-19.388 0-10.707 8.687-19.388 19.402-19.388 10.716 0 19.402 8.68 19.402 19.388z" fill="#D4D4D4"/><path d="M8.082 10.084c-.084-.431-.513-.896-.85-1.228.142-.159.286-.316.433-.47l.097.083c.256.216.53.464.574.797-.076-.57-.002-1.13.142-1.679a19.478 19.478 0 013.031-2.308c-.032.09-.067.18-.105.268-.123.29-.277.59-.232.903.057.391.426.641.69.9a2.409 2.409 0 001.289-1.861c.039-.363-.007-.726-.054-1.09.09-.045.182-.09.273-.133.021.464.135.924.348 1.338l1.917-1.573-1.938 2.299c-.406.481-.812.963-1.215 1.447.413.399.64.688.53 1.304-.094.521-.61.762-.715 1.236-.044.202.105.419 0 .6-.072.123-.424.027-.362.257.043.163.18.075.265.05.097-.027.179-.104.27-.156.365-.212.731-.422 1.187-.684-.13.398-.323.564-.567.692-.1.052-.161.148-.123.269.045.145.162.194.296.16.243-.06.48-.141.722-.21.085-.023.195-.05.242.045.07.143-.07.175-.158.219-.08.04-.17.057-.253.087-.508.185-1.04.23-1.57.29-.152.016-.29.04-.332.21-.019.08.034.162.112.14.326-.096.644.27.972.008.081-.065.196-.122.29-.024.098.1.082.231.044.354-.039.128-.147.142-.258.142-.196 0-.391-.006-.587-.001-.188.005-.367.05-.427.256-.055.187.136.222.227.32.11.116.25.228.302.37.188.52.545.468.957.336.526-.17 1.05-.289 1.623-.27.444.013 1.009.058 1.152-.612.05-.236.263-.116.408-.11.361.011.064.301.183.463.42-.382.952-.183 1.395-.353.134.198-.253.262-.053.44.088.078.252.143.096.284-.118.107-.265.058-.406.01-.597-.2-.772-.105-.986.56a9.013 9.013 0 011.709-.206c.122-.005.283-.004.3.156.017.167-.14.172-.264.197-.125.025-.294-.054-.361.127.183.275.611.164.783.48-.319.208-.6-.106-.857-.003-.422.168.033.482-.069.801A10.538 10.538 0 0016.615 15c-.602-.313-1.196-.15-1.711-.1-1.432.136-1.424.228-1.564.502.329.342.836-.094 1.097.188.305.33.633.36 1.017.47.566.16 1.043.058 1.548-.117.182-.063.39-.226.556-.08.436.38.964.278 1.432.242.847-.067 1.733.069 2.537-.256.932-.377 1.908-.605 2.859-.905 1.39-.44 2.86-.63 4.255-1.058.839-.258 1.623-.37 2.46-.123.096.029.213.003.318-.016 1.417-.258 2.885-.05 4.288-.458a.984.984 0 01.48-.006c.736.174 1.428-.164 2.15-.204.219-.012.44-.03.664-.05.06.118.119.235.176.354-.071.035-.13.056-.133.007-.029-.447-.308-.172-.43-.144-.248.057-.49.06-.738.08-.656.051-1.29.385-1.972.137-.064-.023-.162.074-.248.085-.564.072-1.1.344-1.686.24-.448-.079-.883-.034-1.33.042-.662.113-1.316.238-2.008.052-.638-.172-1.298-.194-1.852.354-.235.232-.597.239-.949.259-.485.027-.968.023-1.466.155-.986.262-1.959.567-2.938.847-.628.18-1.302.235-1.866.633-.18.127-.486.263-.648.193-.702-.305-1.197.388-1.861.21.75 1.164 1.573.469 2.382.192.017.238-.276.23-.236.424.284.265.413-.19.645-.142.503.101.961-.128 1.438-.173.5-.047 1.04-.415 1.44-.222.597.29 1.175-.022 1.762.178.372.127.867-.068 1.307-.108.374-.035.806 0 1.156-.411.28-.33.834-.425 1.267-.624l.046.098-.835.566c.61.384 1.214.058 1.792.08.298.013.639.055.972.01.588-.077 1.083-.527 1.699-.396.295.062.629.422.79-.16 0-.005.066-.007.09.007.608.369 1.197.272 1.778-.064.012-.006 1.718-.497 1.726-.497.528.034 1.043-.42 1.625.085-.043-.254-.083-.403-.093-.542a19.324 19.324 0 011.286 6.953c0 1.487-.168 2.935-.485 4.326a.828.828 0 00-.157.117c-.089.082-.127.222-.273.242l-.41-1.168c-.064.69-.058.673-.58.466-.608-.241-1.198-.616-1.807-.736-1.496-.295-3.033-.118-4.553-.125-.115 0-.312.014-.215.196.125.236.08.44.011.668-.043.144.04.24.187.271.128.028.247-.044.241-.148-.03-.552.346-.317.622-.307-.013.056-.09.063-.101.092-.14.391.073.753.128 1.124.038.254.376.032.51.132.511.377.698.068.883-.352.1-.226.256-.204.308.033.076.35.335.386.609.401.267.015.536.007.805.007h3.05c-.19.181-.341.131-.477.131-.913.002-1.826-.006-2.74-.005-.158 0-.355-.002-.354.226 0 .2.168.256.34.271.142.013.286.009.428.021.573.05 1.154-.066 1.724.105l-.656.061.005.099h1.908c-.667-.026-1.315.268-1.975.132a3.75 3.75 0 00-1.389-.037c-.433.075-.962.031-1.15.654-.086.289-.27.04-.387-.08-.664-.687-1.29-.623-1.766.18-.045.078-.077.169-.184.165-.09-.003-.103-.084-.127-.152-.066-.188.036-.518-.238-.527-.236-.008-.184.348-.325.503-.035.039-.051.094-.073.143-.037.086-.088.174-.192.136-.052-.019-.093-.1-.119-.16-.09-.216.087-.62-.218-.637-.324-.018-.15.41-.275.61-.066.105-.102.252-.254.238-.16-.014-.166-.17-.187-.288-.028-.16-.035-.324-.057-.548-.197.293.053.713-.254.779-.33.071-.253-.405-.452-.567-.198.269-.018.675-.331.949-.191-.288-.086-.66-.34-.892-.188.185-.012.603-.271.599-.334-.005-.138-.415-.262-.614-.037-.06-.043-.136-.072-.202-.053-.121-.123-.157-.248-.07-.276.193-.32.613-.05.802.358.249.555.599.713.983.286.7.68.943 1.43.896 1.769-.112 3.536-.044 5.305.019.676.024 1.35-.021 2.014-.198-.267-.07-.532-.06-.795-.073-.31-.016-.656.099-.905-.203.71-.211 1.44-.232 2.173-.228a.48.48 0 00.26-.054c.063-.043.127-.082.191-.116a19.459 19.459 0 01-4.911 6.426c-.646-.021-1.306-.07-1.498.872.112.069.252-.108.374-.042a.17.17 0 00.067.015 19.355 19.355 0 01-5.126 2.73c-.14-.004-.317.023-.303.102v.001a19 19 0 01-.478.153c-.387-.207-.812-.182-1.22-.194-.27-.008-.512-.023-.747-.16-.333-.195-.649-.13-.997.015-.314.13-.817.364-.982.156-.285-.36-.491-.208-.781-.059.025-.167.06-.273.052-.374-.017-.191-.152-.282-.332-.28-.174 0-.373-.053-.502.113-.14.178.057.259.109.389.08.203.234.472.095.675-.132.195-.387.202-.638.14-.307-.077-.633-.073-.943-.108-.342-.038-.785.115-1.052-.351-.11-.194-.548-.293-.73-.096-.341.366-.549.079-.71-.105-.094-.109-.17-.182-.279-.156-.516.124-1.125-.181-1.56.357a.202.202 0 01-.069.052 18.954 18.954 0 01-.56-.177.716.716 0 01.072-.16c.037-.065.092-.1.174-.05.055.033-.013.302.153.099.086-.105-.025-.188-.152-.203a1.076 1.076 0 00-.527.073 1.67 1.67 0 01-.212.069 19.354 19.354 0 01-5.23-2.9.286.286 0 00-.183-.143 19.682 19.682 0 01-.436-.358.952.952 0 00.05-.128c.033-.124.214-.277.002-.352-.195-.068-.181.162-.239.28a.333.333 0 00-.013.03 19.352 19.352 0 01-6.482-11.853.625.625 0 00-.019-.314c-.067-.253.023-.366.21-.476.146-.086.287-.183.509-.326-.308-.034-.58-.065-.83-.026a19.503 19.503 0 01.179-4.754c.475-.017.948-.252.893-.498-.09-.409-.4-.44-.716-.453.17-.795.388-1.572.652-2.327.152.004.326-.065.482-.084.228-.028.463-.005.694-.005.179 0 .361.023.535-.005.28-.045.666-.04.797-.213.14-.185-.16-.46-.312-.67a.763.763 0 01-.15-.394c-.017-.208-.141-.342-.336-.361-.325-.032-.652-.066-.977-.07.15-.32.307-.635.473-.945a.344.344 0 00.246-.106c.097-.108.049-.219-.01-.324.21-.367.43-.726.661-1.077l.044-.013c.24-.075.284-.284.306-.501.067-.096.136-.19.205-.285a.233.233 0 01.068.062c.081.116.032.244-.012.36-.095.247-.077.48.17.604.427.215.838-.053 1.233-.142.123-.028-.122-.383-.083-.509.017-.056.676.004.698-.461a.748.748 0 00-.014-.177zm16.624 30.857a19.46 19.46 0 01-1.977.205 7.645 7.645 0 01-.434-.054c.21-.319.553-.308.737-.523.174.37.642-.108.818.285.047.105.174.059.23-.001.4-.421.93-.419 1.45-.492-.125.66-.582.477-1.012.416.07.049.131.104.188.163zM39.634 14.41l.101.247c-.068-.076-.158-.147-.1-.247zM20.49 34.878c-.223-.002-.403-.058-.355-.336.056-.316-.21-.221-.345-.268-.222-.076-.285.1-.307.264-.024.174.01.358-.022.53-.034.185-.14.352-.364.3-.163-.037-.33-.064-.196-.356.106-.227-.314-.56-.407-.403-.296.502-.844.249-1.225.472-.132.077-.38-.015-.297.303.07.274.227.348.46.28.47-.138.922.082 1.23.29.298.202.511.268.8.163.205-.074.313-.05.33.174.02.256.226.427.274.686.075.41.362.473.648.159.175-.192.333-.378.609-.38.62-.004.897-.29.776-.917.264-.154.564-.267.572-.66 0-.044.331.049.362-.12.053-.29-.202-.065-.287-.134-.069-.057-.026-.134.021-.188.19-.215.367-.125.478.066.133.226.287.402.658.44-.317.187-.29.683-.596.556-.317-.133-.312-.008-.419.187-.097.18-.214.377-.434.458-.087.031-.18.073-.118.186a.184.184 0 00.235.078c.13-.053.292-.079.356-.22.265-.589.812-.434 1.273-.473.112-.01.524-.06.238.32-.055.075-.028.179.06.236.09.058.164.01.242-.042.583-.393.823-.37 1.276.113.126.135.29.264.461.212.208-.063 0-.198-.003-.302-.001-.038.043-.09.08-.114a1.918 1.918 0 012.206.045c.305.22.587.202.9.046.462-.229.96-.255 1.46-.22.174.013.351.097.47-.158-.437-.166-.886-.084-1.319-.132-.105-.012-.24.002-.274-.12-.042-.145.16-.137.18-.187.124-.306.469-.18.635-.35.202-.208.344-.52.707-.288.238.152.556.235.538.69.435-.546 1.103-.738 1.212-1.426.014-.087.178-.175.043-.26-.161-.101-.226.046-.25.172-.107.56-.576.438-.883.372-.185-.04-.408-.232-.621-.315.029-.267.309-.057.354-.201-.289-.57-.539-.524-.754.015a.27.27 0 01-.096.127c-.224.137-.478.199-.714.082-.225-.112-.033-.267.013-.407.034-.106.02-.256-.083-.284-.162-.044-.334.071-.364.212-.099.457-.457.53-.843.616.387.122.338.842.965.563-.13.517-.47.562-.845.527-.123-.012-.25-.044-.17-.241.18-.45-.41-.675-.344-1.1.003-.013-.055-.035-.085-.053-.025.333-.819-.025-.548.623.054.13.116.488-.192.598-.195.07-.474.242-.597.056-.264-.4-.528-.236-.803-.088-.141.076-.265.08-.303-.063-.072-.271-.299-.275-.492-.337-.26-.085-.433-.325-.348-.516.079-.177.395-.166.61-.082.086.034.128.2.256.133.075-.04.413.023.132-.232.256.044-.068-.579.305-.306.758.553 1.304.126 1.906-.274-.185-.227-.382-.177-.566-.106-.571.22-1.119.284-1.665-.094-.147-.103-.428-.225-.328.215.031.14-.21.35-.321.195-.175-.242-.315-.104-.482-.074-.206.037-.403-.051-.42-.24-.043-.494-.286-.278-.493-.161-.149.084-.277.205-.413.308.083.177.476.11.313.411-.091.17-.193.406-.485.315a1.23 1.23 0 00-.365-.059c-.152.001-.346.131-.435-.056-.085-.177.288-.141.228-.358-.198-.05-.371-.002-.56.075-.282.113-.355-.136-.455-.322-.004-.007-.151.026-.173.07-.208.42-.538.388-.91.278-.286-.085-.514.2-.407.322.237.272-.063.33-.091.484zm1.187-7.303c-.256.1-.525.105-.794.105-1.378.005-2.756.007-4.134.014-.248 0-.54-.038-.667.233-.128.272-.331.452-.546.643-.173.154-.342.401-.146.6.186.19.487-.083.758.065.146.08.14-.192.207-.305.064-.109.078-.426.288-.202.183.195.5.303.513.65.007.211.169.314.364.326.589.035 1.183.122 1.765.072.95-.08 1.896-.026 2.843-.06.218-.007.42.015.485.324-.496-.113-.953.348-1.37.155-.803-.372-1.32-.057-1.852.56.495.017.937.108 1.388-.08.207-.086.502-.177.676-.094.914.433 1.865.122 2.793.192.19.015.41-.035.297-.35-.055-.155-.126-.384.168-.402.215-.014.433-.023.425.323-.002.096-.154.312.124.382.319.08.522.131.594-.319.119-.738-.045-1.706 1.207-1.688.282.004.134-.263.013-.394-.256-.279-.626-.183-1.024-.259.143-.042.23-.095.264-.071.05.035.085-.082.086-.082-.49.004-.918-.065-1.33.09-.4.149-.814.098-1.223.112-.409.014-.819.003-1.228.003.224-.177.51-.043.723-.31-.552-.259-1.164.061-1.677-.238.8.023 1.594-.153 2.404 0 .465.088.963.009 1.446-.003.163-.003.355-.022.352-.239-.002-.194-.171-.261-.342-.271a15.419 15.419 0 00-.805-.021c-1.966-.02-3.933-.036-5.9-.056-.769-.008-1.537-.026-2.305-.03-.132 0-.32-.013-.312.199a.286.286 0 00.276.281c.196.017.393.016.59.02 1.535.03 3.076-.13 4.606.125zm11.237-4.676c-.157.046-.17.511-.406.104-.085-.145-.14-.066-.228.033-.288.324-.599.204-.822-.06-.21-.247-.348-.361-.549-.02-.059.1-.22.185-.248.07-.173-.715-.648-.526-1.112-.411a.188.188 0 01-.15-.042c-.328-.327-.567-.36-1.102-.2-.938.28-1.99.1-2.994-.097h1.321c-.269-.254-.491-.245-.696-.191-.645.169-1.256-.204-1.898-.102-.189.03-.277-.14-.348-.286-.303-.619-.847.614-1.143-.146-.012-.032-.14.076-.182.157-.016.032-.028.066-.043.098-.11.226-.208.464-.48.133-.083-.1-.205-.056-.283.026-.043.045-.077.135-.061.19.035.12.158.131.264.133.3.005.6.002.901.002l-.017.15c-.683-.227-1.54.429-2.088-.5-.039-.066-.152-.087-.23-.13-.241-.13-.343.075-.421.214-.116.207.057.222.212.24.413.046.44.24.194.532-.057.066-.149.151-.14.216.073.508-.212.627-.634.62-.094-.002-.182.035-.204.137-.023.102.044.176.129.21.407.169.346.57.277.825-.06.224-.412.179-.671.15-.176-.02-.428-.042-.477.22-.141.769-.665 1.091-1.381.811-.219-.085-.401-.088-.606.033-.35.207.294.567-.128.75.155.018.31.05.465.051 2.63.018 5.26-.063 7.89.083.097.006.223.027.25-.127-.51-.218-.704-.618-.401-.706.339-.1.502-.42.832-.481.373-.07.572-.35.895-.704h-1.837c.252-.102.5-.108.75-.1.81.023 1.61.042 2.218-.658.19-.218.474-.255.714-.016.17.17.387.201.597.18.781-.079.78-.087 1.18.34.087-.112.027-.242.05-.359.03-.163.006-.425.246-.405.233.02.33.234.338.474.004.138-.237.313.024.406a.62.62 0 00.567-.073c.108-.075.2-.297.345-.163.48.445 1.057.24 1.59.254a50.33 50.33 0 002.896-.026c.39-.012.71-.418 1.18-.14.19.113.176-.238.226-.387.055-.166.113-.37-.125-.452-.178-.062-.246.075-.309.217-.155.348-.363.353-.607.079-.065-.073-.113-.199-.274-.121.07.23.054.386-.271.318-.493-.102-.914-.403-1.449-.425-.313-.012-.707.254-.973-.142a.125.125 0 00-.045.024c-.494.471-.422-.01-.466-.28-.026-.158-.032-.319-.052-.53zm-5.44 6.096l-.029.088.437.188c.07.03.13.072.106.156-.022.076-.103.13-.165.086-.3-.211-.213.043-.272.191-.094.231-.006.3.196.313.36.023.355.153.126.378-.681.667-.701.77-.165 1.45.074.094.19.439.48.155.109-.107.345.037.314.164-.074.303.75.483.103.83.225.06.422.175.614.306.156.106.259-.008.369-.108.536-.49.633-1.433.104-2.104-.23-.291-.09-.834-.621-.905-.017-.003-.042-.104-.029-.148.175-.568-.259-.733-.63-.877-.29-.113-.624-.113-.939-.163zm9.106 2.14h-6.182c-.102 0-.244-.014-.257.127-.01.11.081.204.192.23.138.031.282.041.424.051 1.516.11 3.033.109 4.551.104.484-.002.911-.08 1.272-.513zm-18.3.714c.008.36.145.677-.098.77-.38.146-.57.515-.934.668-.15.063-.405.186-.288.434.083.178.255.297.49.218.101-.035.234-.06.305.031.341.442.696.112 1.055.043.655-.125.324-.608.32-.928-.009-.525-.34-.885-.85-1.236zm-3.348 5.323c.27.205.408.173.554-.158.297-.675.451-.678.849-.125.08.111.21.372.34.12.222-.438.613-.401.977-.454.152-.022.301-.017.317-.203.017-.214-.21-.09-.267-.164-.165-.217-.334-.131-.552-.106-.28.032-.609.077-.866-.117-.516-.39-1.03-.31-1.56-.044-.09.046-.158.08-.13.189.036.137.117.063.203.056.225-.019.387.115.525.278-.232.19.128.686-.39.727zM5.565 17.709c-.207 0-.264-.013-.314.002-.214.062-.593-.153-.616.199-.02.318.336.417.62.486.085.02.184-.007.265.021.585.2 1.178-.078 1.767.032.106.02.394-.075.314-.13-.245-.17.236-.74-.349-.628-.617.119-1.226.134-1.687.018zm15.721 13.386c.23.056.185.423.498.422 1.259-.006 2.517-.002 3.776-.002-.252-.123-.546.013-.836-.15.32-.258.652-.018.933-.15-1.44-.226-2.89-.084-4.37-.12zm3.539.921c-.365.022-.645-.27-1.01-.238-1.049.094-2.09-.161-3.138-.07-.137.012-.299-.062-.385.098-.058.106.001.213.084.286.155.134.297.07.425-.052.199-.19.408-.225.608-.015.174.183.393.157.601.146.605-.032 1.207-.056 1.813.01.334.037.675.005 1.002-.165zM6.474 15.962c-.03.214-.032.441-.28.185-.109-.113-.126-.379-.283-.357-.506.068-.992-.134-1.568-.116.408.421.94.47 1.29.78.413.366.78.354 1.225.072l-.385-.564zm13.038 14.305c.004-.143-.081-.199-.197-.21-.455-.05-.91-.107-1.366-.133-.198-.012-.454-.041-.487.272-.03.303.173.455.41.548.254.1.476-.005.684-.171.186-.148.363-.35.652-.137.15.112.258-.021.304-.169zm18.049 1.856l-.018-.141c-.063-.019-.126-.04-.19-.056-.393-.091-.791.125-1.144.062-.32-.058-.486.078-.722.169-.262.1-.024.21-.04.31-.032.188.038.206.202.19.674-.066 1.285-.325 1.912-.534zm-.956-1.649c-.154-.242-.381-.397-.66-.399-1.616-.01-3.231-.005-4.796-.005 1.762.53 3.617.37 5.46.4l-.004.005zM21.46 34.956c-.115-.425-.321-.275-.532-.241-.152.023-.295.103-.442.158.036.154.14.33.097.457-.141.419.09.464.398.652.48.294.805.406 1.122-.14-.079-.406-.559-.577-.643-.887z" fill="#4A4A4A"/></svg>