<svg width="44" height="64" fill="none" xmlns="http://www.w3.org/2000/svg"><path d="M43.398 21.65c0 11.957-13.905 41.36-21.666 41.36C14.295 63.01.066 33.608.066 21.65S9.766 0 21.732 0c11.966 0 21.666 9.693 21.666 21.65z" fill="#D70000"/><path d="M21.733 41.644c-11.033 0-20.008-8.97-20.008-19.994 0-11.025 8.975-19.994 20.008-19.994s20.009 8.969 20.009 19.994-8.976 19.994-20.009 19.994z" fill="#fff"/><path d="M21.733 2.262c10.715 0 19.402 8.68 19.402 19.388 0 10.707-8.687 19.388-19.402 19.388-10.716 0-19.403-8.68-19.403-19.388 0-10.708 8.687-19.388 19.403-19.388zm0-1.213c-11.368 0-20.616 9.242-20.616 20.6 0 11.36 9.248 20.601 20.616 20.601 11.367 0 20.615-9.241 20.615-20.6 0-11.36-9.248-20.6-20.615-20.6z" fill="#A00"/><path d="M41.134 21.65c0 10.707-8.686 19.388-19.402 19.388-10.715 0-19.402-8.68-19.402-19.388 0-10.708 8.687-19.388 19.402-19.388 10.716 0 19.402 8.68 19.402 19.388z" fill="#FBCA00"/><path d="M26.194 40.396c.157.01.314.011.47.009.83-.218 1.639-.49 2.42-.81-.244-.105-.465-.268-.706-.364-.986-.392-2.006-1.041-3.038-.077-.291.273-.235.042-2.988.105-.205.005-.47.121-.455.377.019.318.333.252.976.252-2.36.304-4.705-.585-7.092-.076.07.227.157.258.25.258 1.61-.003 3.218.003 4.808.354 1.319.29 2.684.145 4.011.363a19.371 19.371 0 001.753-.366 32.882 32.882 0 01-.409-.025z" fill="#4C2260"/><path d="M29.2 37.995c-1.903.004-3.806.046-5.707-.003-.963-.026-1.926-.134-2.88.033-.35.062-.892-.206-1.011.523-.011.067-.341.112-.517.095-1.616-.156-3.222.137-4.833.11a87.528 87.528 0 01-1.756-.049c.403.218.814.423 1.233.612.037-.018.074-.037.11-.057 1.065-.594 2.522.605 5.663-.153.528-.127.994.3 1.7-.068.124-.065.319-.109.294-.272-.035-.232-.269-.118-.477-.205 1.236-.33 2.412 0 3.585-.016 1.77-.024 3.546.19 5.311-.128.125-.023.288.003.33-.225a.364.364 0 00-.212-.179 4.11 4.11 0 01-.833-.017zm-8.685-1.287a19.59 19.59 0 013.083-.117c1.146.056 2.382.511 3.358-.544-.662-.384-7.186.081-7.745.668.488 0 .9.037 1.304-.007zm8.871-1.859c.598.02 1.192.013 1.787.133.306.062.648.108.929-.14.1-.088.252-.17.19-.363-.045-.14-.17-.174-.283-.175-1.326-.022-2.65-.38-3.977-.018-.128.035-.304.006-.32.209-.038.439.388.354 1.674.354z" fill="#4C2260"/><path d="M24.128 37.464c1.616-.1 3.232-.2 4.847-.307.17-.011.457.054.454-.205-.003-.33-.314-.22-.49-.214-5.469.186-5.307.152-5.578.44.218.31.492.303.767.286zm15.037-7.297c-.813.088-1.54.277-1.81.527.433.28.873.385 1.32.408.171-.307.335-.619.49-.935z" fill="#4C2260"/><path d="M33.682 36.917c-.224 0-.522-.18-.666-.207-.822-.156-1.691-.268-2.586.118.305.297.579.137.786.211-1.077.413-2.304-.005-3.58.623.657.187 1.153.287 1.564.333l.368-.002c.15 0 .32-.032.465.02.833-.075 1.368-.418 2.878-.516.265-.187.525-.38.78-.58h-.009zm7.379-15.801c-.054-.27-.045-.661-.39-.589-.35.073-.791-.246-1.037.437-.407 1.131-1.139 2.023-2.037 2.74-.605.485-1.14.335-1.717-.068-1.074-.75-1.883-1.793-2.652-2.884-2.866-4.06-6.116-9.818-7.53-14.5h-.277c-.634.41-1.245.91-2.05.588-.167-.066-.306.022-.446.132-6.36 5.023-15.905 8.01-18.464 8.885-.298.102-.528.228-.786-.25a.483.483 0 00-.3-.249A19.345 19.345 0 002.33 21.65c0 3.664 1.017 7.09 2.785 10.013 4.262-.125 5.575-.808 8.274-.653 1.679.097 3.323-.327 4.981-.399 1.761-.076 3.527-.108 5.351-.248-.421.442-1.201-.146-1.33.743-.07.471.245.538.57.52-.044.275-.36.13-.332.376.016.143.152.18.273.175a459.99 459.99 0 003.518-.17c.03 0 .058-.067.175-.213-.747-.27-1.47.002-2.152-.18 1.655 0 2.008.095 2.36-.502.198-.333.72-.244 1.113-.267 6.725-.386 8.573.095 8.833-.251-.053-.233-.249-.133-.403-.185.363-.114.765.12 1.203-.282-1.272-.047-2.4-.42-3.55.11-.367.17-.863.264-1.198-.248-.05-.076-.215-.097-.32-.082-1.17.16-2.348.019-3.523.14-1.037.105-2.108.278-3.184-.305 1.301.122 2.496-.14 3.712-.336 1.442-.232 2.939-.022 4.412-.037 3.664-.038 2.27-.167 5.66-.055a19.31 19.31 0 001.576-7.664l-.002-.186-.07-.348zm-30.146 16.63c1.027-.157 2.126.118 3.144-.101.662-.143 1.363-.266 2.06-.13-2.711.227-2.836.179-2.842.456-.007.308.275.262.475.294.901.144 1.787.461 2.716.269.367-.076.771-.078.651-.72-.035-.193.073-.263.41-.224 1.788.212 3.53-.256 5.293-.423.035-.003.065-.061.104-.1-.114-.237-.32-.158-.482-.155-1.497.032-2.999-.105-4.49.118-.437.065-.629-.158-.747-.589-.811-2.952-2.502.727-4.507-.567-.155-.1-.407-.02-.614-.019-2.062.007-2.32.09-2.183-.314.166-.49.394-.366-2.06-.356a19.47 19.47 0 003.071 2.56zm-3.541-3.057c.185-.005.371-.01.557-.01.193 0 .562.027.276-.418.438-.169-.109-.066 1.618-.232.14-.014.304-.056.31-.24.007-.196-.166-.243-.3-.233-1.132.083-2.287-.168-3.414 0 .303.39.62.768.953 1.133zM21.937 8.284c.232-.153.612-.555.745-.279.193.398-.315.543-.57.699-6.864 4.198-8.107 4.421-12.726 6.075l-.047-.103c4.283-1.758 6.9-2.622 12.598-6.392zm.73 12.306c-.188-2.566-.014-5.12.056-7.863.17 2.75.149 5.31-.057 7.863zm-.362-.465c.021.204.124.541-.178.553-.352.014-.255-.016-.255-6.002.114-1.233.03-2.77.008-4.308-.006-.474-.05-1.162.417-1.138.355.018.25.418.242.68-.032 1.079-.344 9.139-.234 10.215zm-1.354-9.878c.06-.238.232-.409.46-.39.27.021.21.296.212.484.007 1.363.003 2.726.003 4.089h.008c0 1.821.004 3.643-.004 5.464-.002.258.101.636-.283.663-.396.027-.579-.247-.578-.683.002-.823-.06-1.652.012-2.467.258-2.867.024-6.58.17-7.16zm-.425 9.523c.018.412-.15.56-.51.481-1.354-.3-2.708-.6-4.064-.894-.299-.065-.434-.263-.435-.59-.023-5.804-.102-5.814.207-5.815.33-.001.231.377.239.607.046 1.437-.205 2.875.002 4.313.043.298.021.615.246.916.181-.27.117-.544.076-.798-.275-1.697.05-3.383.066-5.074.003-.338.224-.56.484-.547.346.017.219.389.223.614.092 4.826-.037 4.868.27 5.375.182-.754.08-1.436.032-2.094-.084-1.158-.032-2.314-.048-3.47-.006-.484.232-1.08.626-1.038.318.034.232.396.228.631-.027 1.824.098 3.651-.081 5.473-.045.448-.06.91.179 1.341.215-.18.128-.399.129-.586.037-7.035-.122-6.829.411-7.467.167 2.909.002 5.663.029 8.416.304-.209.224-.502.234-.762.07-1.823-.01-6.336.137-7.168.046-.26-.044-.696.287-.678.382.02.257.47.256.748-.006 2.223-.13 6.362.073 8.287.303-.328.222.238.258-8.871.002-.344.008-.68.453-.859.364 3.206-.137 6.358-.006 9.509zm-5.396-3.486l-.028.001c.034.768.077 1.535.097 2.303.006.239.062.578-.266.604-.324.026-.516-.209-.519-.574a788.445 788.445 0 01-.02-4.69c-.001-.393.197-.685.53-.66.327.023.195.404.2.632.016.794.006 1.59.006 2.384zm-1.083-.006c0 .716.005 1.432-.004 2.148-.002.197.01.452-.243.47-.237.016-.312-.222-.324-.418a36.64 36.64 0 01-.021-4.29c.014-.25.155-.473.397-.424.21.043.17-.046.17 2.514h.025zm-.941.284c0 .59.002 1.18 0 1.77-.002.173.04.398-.173.44-.196.04-.292-.136-.313-.327a25.59 25.59 0 01-.138-3.915c.01-.242.157-.38.367-.373.273.008.213.055.213 2.405h.044zm-1.77-2.057c.176 1.331.226 2.442.186 3.56-.006.187-.04.39-.25.38-.222-.01-.313-.219-.31-.434.005-.639.023-1.278.055-1.916.024-.465-.096-.964.319-1.59zm-.8.482c.195.038.16.144.16 1.37.006.438.034 1.887-.39 1.776-.128-.034-.157-.171-.152-.306.044-1.079-.163-2.945.381-2.84zm.813 13.49c-.027-.459-.112-.915-.122-1.374-.02-.884-.52-1.367-1.313-1.305-1.357.106-2.717.12-4.056-.216-.738-.186-1.366.479-1.428-.533-.132-2.147 1.441-.585 2.092-.864 1.71-.733 2.625 1.398 4.035.89 1.64-.59 1.493.798 3.984.009.313-.099.542-.187.78.264.171.323.625.46.937.67-.716.222-.746.339-.23.982.258.321.34.609.038.998-1.22 1.57-1.87.522-4.123 1.005-.364.078-.568-.088-.594-.526zm10.397 1.632c-1.66.024-3.323.117-4.978.02-.885-.053-1.6.54-2.484.478-1.006-.07-1.834-.54-2.694-1.02 1.196-.345 2.396-.184 3.585-.255 1.494-.088 2.995-.031 4.492-.037.298-.001.606-.049.752.369.17.488 1.163.026 1.899.26-.177.268-.397.183-.572.185zm.835-1.894c-.412.52-.883.525-1.409.574-1.649.153-3.293.037-4.966-.036.724-.905.73-1.117.103-2.158.23-.208.739.112.753-.305.013-.392-.325-.695-.745-.77-.14-.025-.26-.196-.36-.398.222.08.508.089.654.253.677.762 1.66 1.01 2.332 1.768.08.09.171.189.274.23.268.108.551.444.823.188.303-.287-.209-.506-.153-.82.119-.202.308-.105.425-.041 2.039 1.111 2.84.793 2.27 1.515zm-3.189-1.501c-.032.212-.21.182-.315.048-.431-.552-1.083-.743-1.623-1.185 1.908.128 3.733.38 5.328 1.551-1.837-.125-3.162-1.9-3.39-.414zm2.76-1.806c-2.337.771-3.624.399-5.894-.407-1.256-.445-2.337.989-4.19.152-.264-.118-.62-.17-.881-.074-1.858.681-2.685-1.36-4.526-.875-.716.188-1.418-.297-2.153-.32-.19-.005-.207-.309-.21-.518-.029-2.585-.106-2.554 1.323-2.391 2.117.241 4.22.64 6.338.846 1.37.133 2.727.375 4.074.618 1.974.357 3.965.546 5.935.913.352.065.75.378.83.706.135.564.07 1.114-.647 1.35zm14.632.839c-2.147.06-2.686.036-4.679-1.024 1.62.175 3.155.554 4.679 1.024zm-7.382-6.642c.356.209.51.47.52.785.026.716.018 1.433.015 2.15-.001.174-.006.395-.236.384-.167-.008-.218-.187-.215-.34.02-.964-.238-1.92-.084-2.979zm-.748-1.17c.362.313.444.597.447.915.01.97.02 1.939.018 2.909 0 .215.045.513-.27.504-.26-.008-.35-.243-.32-.49.156-1.236.114-2.482.125-3.838zm-.672-1.059c.334.303.335.62.333.925a302.258 302.258 0 01-.044 3.844c-.004.183.054.486-.215.473-.225-.012-.226-.288-.23-.491-.031-1.56-.02-3.117.156-4.75zm-.334-.566c-.06 5.938-.055 5.204-.148 5.436l-.202.009c-.035-2.03.17-4.063-.026-6.153.357.44.378.443.376.708zm-1.312-1.995c-.05 2.086.094 4.16.236 6.233l.256-.007-.277-6.122c.447.346.48.76.48 1.195-.002 1.85.004 3.7-.005 5.55-.001.23.112.595-.229.62-.364.026-.346-.343-.346-.62 0-2.283-.265-4.56-.115-6.85zm.21 10.569c-.1-.927.002-1.09.81-.983 1.404.188 2.837.283 4.118 1.073.372.229.878.115 1.174.579-.47.384-.93.499-1.467.163-.63-.393-1.368-.415-2.048-.65-.973-.335-1.699 1.405-2.43 1.104-.322-.133-.11-.839-.158-1.286zm4.604 1.328c-.927.55-1.77 1.055-2.466 1.812-.329.358-.664.215-.983-.07-.329-.295-.978-.317-.974-.847.005-.553.611-.66 1.005-.894.387-.23.83-.987 1.645-.614.545.248 1.18.17 1.773.613zm-.935 2.683c-3.087-.012-3.168.027-3.36-.103-.228-.153-.27-.436-.133-.67.147-.253.333-.073.466.058.929.915 1.022.867 2.188-.224.685-.64 1.472-1.134 2.338-1.413.53-.172.989-.671 1.614-.469-.03.068-.044.169-.092.198-1.141.69-1.889 2.628-3.021 2.623zm3.096.004c-.266-.103-.741.17-.8-.17-.092-.541.042-1.178.391-1.585.554-.646 1.196-1.143 2.088-.616.433.256.7 1.038.351 1.432-.548.62-1.119 1.248-2.03.94zm5.903-1.313c-1.049.784-2.147 1.394-3.46 1.293-.167-.013-.419.092-.453-.194-.026-.215.213-.282.348-.302.646-.095.396-.89.772-1.21.095-.08-.055-.39-.263-.456-.2-.064-.405-.105-.581-.503 1.202.155 2.307-.388 3.424.034.252.095.552.112.606.522.052.397-.121.613-.393.816zm-13.088 6.452c.323-.017.407-.306.383-.612-.029-.366-.292-.369-.52-.32-.684.15-1.374.086-2.062.107-.2.005-.474-.123-.575.312.44.095.879-.18 1.392.017-.603.26-1.178-.016-1.681.374 1.03-.078 2.041.176 3.063.122zM26.12 35.7a.594.594 0 00.36-.6c-.025-.342-.311-.209-.499-.21-.623-.002-1.246-.02-1.867.024-.308.022-.85-.238-.866.218-.011.334.54-.112.8.07-.393.236-.908.069-1.41.541 3.743 0 3.34.015 3.482-.042z" fill="#4C2260"/></svg>