<svg width="44" height="64" fill="none" xmlns="http://www.w3.org/2000/svg"><path d="M43.331 21.65c0 11.957-13.904 41.36-21.665 41.36C14.228 63.01 0 33.607 0 21.65S9.7 0 21.666 0C33.63 0 43.33 9.693 43.33 21.65z" fill="#D70000"/><path d="M21.667 41.643c-11.033 0-20.009-8.968-20.009-19.994 0-11.024 8.976-19.993 20.009-19.993s20.008 8.969 20.008 19.994S32.7 41.642 21.667 41.642z" fill="#fff"/><path d="M21.666 2.262c10.716 0 19.403 8.68 19.403 19.388 0 10.707-8.687 19.388-19.403 19.388-10.715 0-19.402-8.68-19.402-19.388 0-10.708 8.687-19.388 19.402-19.388zm0-1.213c-11.367 0-20.615 9.242-20.615 20.6 0 11.36 9.248 20.601 20.615 20.601 11.368 0 20.616-9.241 20.616-20.6 0-11.36-9.248-20.6-20.616-20.6z" fill="#A00"/><path d="M41.068 21.65c0 10.707-8.687 19.388-19.402 19.388-10.716 0-19.402-8.68-19.402-19.388 0-10.708 8.686-19.388 19.402-19.388 10.715 0 19.402 8.68 19.402 19.388z" fill="#D4D4D4"/><path d="M7.896 35.308c.102-.002.204 0 .305.003.206.007.409-.045.604-.08.279-.05.538-.169.772.088.006.006.016.008.025.012.006.112.11.174.162.264-.2.09-.384.146-.591.117.216.045.426.05.637.043.15-.005.328-.021.366-.188.038-.169-.186-.129-.27-.216.11-.107.27.03.379-.122-.246-.005-.471-.02-.68.097-.049-.092-.192-.223-.107-.273.122-.071.31-.185.456.032.048-.099-.061-.225.103-.261.394-.087.742-.252.966-.615.04-.064.112-.15.202-.122.11.035.002.147.036.201.135.055-.005-.35.234-.118.02.019.05-.006.05-.04-.006-.41.3-.458.615-.518-.327.013-.042-.148-.06-.214-.198-.017-.203-.02-.3.133-.174.28-.502.252-.747.387-.18.1-.31.074-.424-.093-.043.12.118.202.003.339-.15.177-.414.18-.533.393-.022.038-.158.023-.173-.03-.043-.161-.278-.16-.272-.386.003-.115-.164-.294-.293-.342-.38-.143-.13-.228.006-.34.053-.044.126-.074.15-.176-.286.012-.577-.195-.834.09-.042.047-.138.03-.09-.079.019-.04.072-.09.009-.108-.11-.032-.053-.28-.245-.184-.157.077-.379.015-.443.288-.042.176-.092.322-.014.498.042.096-.314.246.036.323-.182.203.081.341.084.545-.233-.138-.222-.413-.398-.582-.016.074-.02.14-.056.205-.078.143-.38.313.006.474.074.03.095.187.14.285-.06-.1-.165-.145-.262-.196a19.62 19.62 0 01-.803-.919c.237-.1.473-.204.74-.207.062 0 .127-.027.187-.05.045-.02.073-.06.044-.112-.036-.066-.496-.08-.517-.011-.041.131-.12.184-.251.153-.092-.021-.15-.017-.192.092a.128.128 0 01-.066.066 19 19 0 01-.43-.547c.183-.23.403-.229.612.016.11.13.226.044.332.02.16-.038.315-.129.523.09-.054-.163-.084-.24.018-.31.237-.165.566-.22.675-.544.222.06.364-.14.556-.171.364-.06.613-.317.93-.489-.355-.154-.736.004-1.043-.156-.29-.15-.502-.043-.758.052-.392.146-.784.283-1.139.51a.662.662 0 01-.206.082c-.118.027-.27.066-.327-.062-.058-.127.12-.134.178-.207.03-.036.13-.035.082-.111-.03-.048-.074-.104-.159-.085-.266.06-.55.06-.748.302-.058.07-.133.114-.215.086-.192-.29-.376-.584-.552-.884.015-.27.18-.448.396-.385.104.03.198-.135.257.003a.197.197 0 01-.096.262c.113.026-.116.25.128.214.102-.015.114.03.136.186.005.035.057.07.094.093.037.023.09-.007.084-.038-.027-.119.145-.304-.126-.347-.148-.023-.245-.369-.146-.483.118-.136.118.108.218.067-.054-.258.128-.302.32-.32.616-.06 1.172-.319 1.749-.51.075-.025.144-.034.05-.138-.075-.083.035-.127.084-.11.32.106.504-.146.732-.273.19-.105.404-.046.526.242-.028-.268.25-.307.215-.533-.095.005-.057.082-.08.117-.04.063-.102.097-.163.06-.054-.034-.023-.098-.003-.152.06-.163.088-.363.347-.253.154-.262.485-.312.66-.542.09-.116.286-.118.3-.3l.005-.005c.3-.19.546-.453.884-.591.122-.05.214-.174.316-.268.034-.03.062-.076.027-.122-.013-.017-.046-.019-.07-.027-.062.208-.317-.098-.362.132-.015.075-.011.177-.089.183-.106.009-.08-.096-.084-.168-.006-.109-.102-.043-.15-.072a.561.561 0 01-.213-.252c.499-.05.983.05 1.506.128-.177-.23-.006-.575.172-.616.276-.065.528-.272.83.049-.032-.183-.135-.189-.194-.243-.058-.053-.078-.144-.013-.16.255-.06.307-.422.61-.396-.01-.096.206-.047.122-.194-.02-.034.024-.088.054-.078.31.104.249-.192.35-.315.106-.13.117-.393.395-.3-.01-.163.153-.19.225-.29.114-.155.178-.359.435-.337.08.006.1-.08.096-.145a.414.414 0 01.165-.34c.469-.398.839-.888 1.265-1.325.017-.018.047-.023.103-.048-.06.3.07.353.312.268.075-.026.166-.004.188.077.071.247.235.2.39.12.123-.062.257-.03.389-.073.241-.078.174-.215.155-.353-.027-.192-.16-.084-.255-.074-.037.004-.073.015-.11.017-.098.004-.208-.005-.21-.125-.003-.116.11-.097.192-.1.138-.006.274-.014.411-.053.104-.03.155-.088.212-.2-.197.007-.376-.015-.542-.174.215-.137.44-.182.68-.17.061.003.155.044.148-.057-.008-.11-.108 0-.116-.014-.142-.252-.347-.217-.568-.14-.007.001-.048-.056-.05-.088-.004-.07.037-.117.102-.15.125-.066.254-.024.382-.03.12-.006.239-.023.363-.045-.23 0-.379-.174-.573-.25-.078-.032-.126-.118-.014-.157.235-.082.346-.275.452-.468.101-.184.217-.32.445-.327.066-.002.063-.079.072-.131a.643.643 0 01.187-.362c.047-.047.117-.12.162-.083.227.185.382-.02.567-.08.124-.039.23.035.25.159.02.129.192.229.022.407-.153.16-.433.268-.377.58.011.06-.053.06-.108.08-.348.129-.677.293-.853.65-.032.064-.084.162-.06.206.162.278-.061.384-.22.506-.178.136-.22.341-.289.526-.14.376-.228.766-.475 1.105-.201.277-.168.301.047.592-.031-.414.335-.606.367-.984.018-.213.209-.435.273-.678.036-.135.164-.107.258-.06.269.131.417-.083.57-.217.077-.067.07-.229-.012-.337-.045-.06-.194-.04-.149-.16.037-.095.15-.043.227-.06.044-.01.093-.011.108-.07-.027-.082-.09-.04-.14-.037-.066.003-.135.01-.164-.067-.024-.063.02-.107.064-.141a.432.432 0 00.173-.271c.018-.1.121-.138.217-.14.093-.002.124.076.133.152.017.152.102.21.247.185.104-.017.189-.046.089-.175-.085-.109-.112-.206.043-.294.13-.073.026-.155-.02-.23-.11-.181 0-.32.128-.4.155-.098.283.021.31.166.124.645.663.637 1.132.727.09.017.128.019.138.111.014.13.028.26.06.385.034.138.003.312.288.198.133-.053.465.024.562.275.078.2.203.273.403.256-.233.206.06.336.119.426.12.185.132.504.464.518.164.008.15.234.13.255-.181.187.167.178.103.307.09.037.098-.134.198-.076.05.09-.031.133-.076.185-.057.067-.078.14.006.188.188.107-.138.24.024.342-.066.1-.16.067-.25.056-.036-.004-.073.012-.083.057.023.069.104.027.139.069.39.465.895.813 1.306 1.256.106.115.247.275.148.443-.055.092-.09.055.028.086.168.042.217.23.223.367.005.116-.158.088-.255.097-.097.009-.195.014-.292.02.095.085.175.055.254.034.227-.059.396-.05.477.234.047.162.014.203-.127.22l-.452.053c.16.028.315.009.47-.009.083-.009.175-.032.208.08.104.352.141.71.035 1.063-.032.107.053.262-.052.304-.33.134-.09.269.005.355.13.118.094.396.245.391.16-.005.16.069.2.148.028.056.06.108.123.065.056-.039.14-.12.077-.172-.13-.107-.01-.177.006-.263.028-.166.227-.263.206-.431-.037-.28.017-.575-.157-.838-.162-.245-.124-.593-.298-.813-.475-.597-.344-1.363-.627-2.005-.064-.148.047-.436-.303-.404-.145.013-.196-.252-.099-.385.09-.121.139-.292.08-.414a3.053 3.053 0 00-.937-1.172 2.36 2.36 0 01-.44-.414c-.197-.25-.432-.451-.654-.67-.1-.252-.316-.414-.5-.59-.248-.235-.272-.584-.497-.83-.129-.14-.24-.274-.427-.334-.281-.09-.188-.298-.138-.483.06-.226.216-.147.357-.1.143.049.289.11.37.238.282.442.723.734 1.052 1.136.283.347.625.652.948.968.399.39.83.742 1.223 1.133.88.877 1.828 1.678 2.768 2.487.562.485 1.08 1.026 1.675 1.463.633.464 1.277.922 1.975 1.296.687.368 1.35.781 2.026 1.17.338.194.692.362 1.021.569.17.106.423-.002.536.233.018.037.087.003.096-.055.013-.075.02-.175-.071-.184-.27-.026-.186-.202-.167-.36.06.228.4.204.39.518.066-.186-.023-.34.073-.543.063.331.246.49.491.594.08-.104-.042-.28.12-.318.09-.021.063.117.118.164.047-.129.092-.053.223-.067.208-.022.32.063.443.18.02.02.033.053.055.058.077.019.154.072.253.008a.81.81 0 01-.331-.281c.26.07.449.183.607.356-.46.228-.936.354-1.458.246l-.008.07c.351.143.7.29 1.054.425.177.068.354.135.532.201a19.478 19.478 0 01-3.937 4.91.748.748 0 00-.286-.07c-.197-.001-.394-.272-.592-.424-.095.135-.104.256.028.395-.189.01-.341-.024-.469.075-.04.031-.09.017-.129-.015-.391-.31-.808-.583-1.098-1.02-.149-.223-.457-.335-.64-.545-.538-.616-1.277-1.023-1.754-1.701-.164-.233-.41-.39-.6-.609-.236-.273-.276-.605-.427-.899-.024-.048-.012-.125-.046-.156-.297-.267-.34-.707-.668-.954a.692.692 0 01-.238-.335c-.06-.173-.3-.23-.42-.1-.108.121-.22.196-.384.172-.147-.021-.197.116-.29.183.253.213.575.162.883.193-.133.124-.313.035-.434.143.138.044.297-.09.46.037-.147.12-.33.013-.501.156.214-.027.378-.051.542-.068.1-.01.206-.034.27.085.026.05.152.018.12.117-.022.072-.116.034-.17.07.306.009.506.13.462.3-.06.232-.246.092-.39.116.034-.117.14-.035.188-.105-.074 0-.142-.011-.204.003-.113.025-.32-.079-.321.088-.002.163.126.335.368.262l-.183-.061c.247-.113.456-.122.685-.114-.035.155-.155.069-.206.13.107.03.227-.035.331.059-.076.121-.198.072-.299.085-.108.014-.224-.018-.323.064.17-.027.34-.036.51-.043.139-.005.247.075.246.173 0 .144-.153.07-.24.084-.061.01-.179.008-.185-.012-.052-.185-.16-.073-.249-.049.222.183.506.026.765.127-.133.18-.34.03-.496.144.183.05.375-.066.536.06-.075.11-.179.044-.285.081.046.015.092.018.098.034.142.435.536.612.858.87.42.338.786.741 1.212 1.068.281.217.508.471.736.732.026.03.054.057.032.096-.02.04-.06.043-.095.023-.113-.064-.234-.044-.373-.048.064.07.172.01.209.108-.095.124-.298.002-.38.154l.002-.001c-.06.07-.122.162-.226.114-.108-.051.005-.13.014-.189.028-.174-.146-.178-.194-.271-.15-.288-.34-.156-.516-.062-.206.11-.32.017-.417-.148h.453c-.103-.038-.14-.039-.151-.056-.226-.35-.443-.708-.901-.795-.016-.003-.035-.064-.03-.095.03-.199-.079-.132-.142-.063-.048.054-.095.114-.164.166.145.045.327-.003.345.203.031.342.13.452.468.531.046.01.08.07.12.107-.081.017-.17.015-.216.105-.027.05-.091.067-.113.028-.138-.25-.353-.116-.55-.114.237.05.483.087.503.401 0 .008.104.007.159.012.082.009.18-.035.14.14-.032.147.123.02.176.061.099.077.265-.151.3.034.022.126-.107.244-.277.248-.066.001-.138.035-.133.114.003.05.038.103.073.143.031.035.112.043.109-.01-.016-.286.2-.15.31-.163.154-.02.315.005.472.017.047.003.096.031.09.087-.006.058-.052.072-.102.044-.197-.113-.4.002-.635-.048.157.332.395.549.603.789.048.056.098.111.146.168.03.036.066.081.025.121-.064.06-.095-.012-.131-.048-.2-.197-.2-.198-.475-.139-.009.08.197.142.05.214-.113.054-.264.202-.376.09-.167-.166-.49-.248-.404-.592.004-.016-.007-.05-.01-.05-.288.001-.343-.345-.596-.398a.256.256 0 01-.195-.186c-.101-.416-.506-.642-.641-1.034-.234.005-.204-.177-.229-.321a.09.09 0 00-.023-.048c-.055-.052-.23.064-.184-.11.029-.113.187-.032.27-.098-.418-.002-.456-.04-.386-.373-.11.01-.05.155-.164.184a.648.648 0 01-.193-.364c-.014-.111-.115-.172-.2-.136-.095.039-.015.124.016.186.046.091.098.18.135.275.024.06.133.16-.049.17-.067.003-.04.047-.025.075.116.212.145.457.27.669.19.319.346.656.493 1 .127.298.359.553.557.818.098.132.17.222-.082.17-.008.122.186.078.134.19-.05.107-.13.015-.189-.009-.175-.07-.205.044-.23.188-.074-.156-.262-.25-.165-.472a1.463 1.463 0 01-.432.008c-.204-.028-.425-.072-.559.185-.065.123-.238.069-.36.102-.015.004-.049-.026-.059-.048-.02-.042.01-.067.046-.085.08-.042.184.016.256-.06-.023-.061-.075-.05-.118-.057-.087-.015-.236.031-.241-.074-.008-.152.138-.056.215-.067.12-.017.059-.176.17-.2.113.006.003.271.192.182.114-.054-.14-.228.177-.254-.242-.044-.38-.054-.517-.015-.069.02-.142.084-.186-.022-.032-.078.034-.114.09-.15.03-.018.056-.041.107-.08-.169-.064-.219.048-.282.127-.11.137-.2.11-.273-.034-.026-.05-.045-.102-.069-.153-.093-.199-.087-.212.102-.218.058-.001.097-.042.073-.088-.082-.158-.037-.412-.333-.413.067-.193.278-.07.358-.217-.328.036-.487-.214-.604-.422-.131-.235-.261-.27-.488-.199-.201.064-.396-.102-.39-.309.003-.152.144-.006.179-.085-.04-.1-.135-.123-.218-.163-.047-.024-.115-.048-.073-.119.03-.052.087-.05.148-.03.22.07.22.068.37-.014-.116.015-.201.073-.273-.022-.098-.13.125-.152.08-.26.202.087.144-.218.3-.2-.063-.003-.031-.186-.135-.086-.09.087-.14.06-.15-.034-.04-.332-.264-.31-.494-.264-.161.033-.293.012-.422-.114.158-.091.313.01.451-.06-.053-.07-.13-.101-.202-.141-.094-.051-.247-.09-.243-.195.006-.136.195-.042.298-.15-.3.025-.577-.083-.84.052.096.006.181-.077.288-.01-.053.035-.12.06-.152.11-.031.046-.158.062-.09.137.068.075.132.022.154-.07.009-.04.033-.076.074-.054a.125.125 0 01.055.087c.005.064-.005.129-.01.193-.039.431.284.69.67.537.126-.05.395.107.446.261-.43-.027-.865-.099-1.335.054.114.103.184-.042.258.031.052.051.137.081.118.169-.02.093-.104.039-.161.05-.296.062-.46-.087-.6-.325-.048-.082-.028-.168-.07-.254-.168-.357-.446-.402-.774-.394-.001-.096-.247-.104-.093-.254.106-.104.212-.172.274.044.005.015.07.03.1.02.18-.057.446-.04.33-.372-.018-.053.03-.129.052-.215-.246.012-.477.01-.704.041-.105.014-.19.185-.302.007-.067.145.208.398-.16.39-.026-.34-.026-.34-.575-.363.056.022.079.025.094.037.095.074.33.026.29.181-.035.14-.216.027-.336.013-.102-.011-.221.064-.294-.07a.432.432 0 01-.032-.04c.018-.158.11-.335-.126-.419-.039-.014-.047-.064-.018-.093.063-.063.134-.119.201-.177-.13-.127-.047-.228.053-.307.118-.092.08-.284.069-.32-.1-.32.152-.214.292-.26-.157-.02-.303-.04-.299-.239 0-.027-.014-.074-.005-.079.31-.154.068-.373.07-.562 0-.044.013-.088.021-.139.119.02.143.216.282.135.121-.07.055-.173.03-.27-.028-.115.078-.146.147-.17.162-.056.138-.16.075-.26-.09-.144-.175-.03-.25.026-.05.038-.09.093-.13.144-.084.104-.154.213-.237-.01-.036-.097-.172-.054-.248-.05-.278.01-.146-.175-.144-.283.001-.15.1-.192.23-.14.122.05.266.081.282.28.153-.197.317-.349.167-.607-.115-.197-.306-.077-.45-.143l.108-.204c.263-.075.556-.066.762-.295.099-.11.198.096.329.003-.21-.132-.143-.333-.148-.525.138-.035.208.142.342.083.028-.144-.11-.147-.18-.205-.053-.044-.16-.048-.143-.147.02-.11.129-.03.188-.07.024-.016.066-.003.101-.019-.18-.092-.374-.04-.558-.034-.241.006-.426-.02-.414-.321.166.025.135-.135.19-.222.23.497.701.566.986.047-.146.096-.282.003-.457.052.098.063.247.008.214.135-.027.104-.14.06-.218.063-.102.004-.085-.084-.118-.145-.105-.193-.164-.456-.475-.424-.048-.19-.304-.378-.007-.573-.125-.242.099-.433.097-.657 0-.028-.012-.06-.002-.083.17-.365.162-.787.361-1.138.058-.103.036-.143-.014-.236a1.656 1.656 0 01-.204-.626c-.026-.307.154-.474.448-.394.18.049.344.015.523-.024-.186-.063-.39-.079-.556-.183-.227-.143-.375.082-.443.168-.424.539-.892 1.055-1.108 1.73a.475.475 0 00-.015.318c.092.291.019.606.1.904.014.05-.024.116-.083.132-.086.023-.114-.05-.13-.112a.785.785 0 01-.03-.245c.036-.469-.304-.806-.43-1.219-.05-.164-.329-.184-.408-.384.034.195.05.393.263.474.069.026.041.11.06.126.14.129-.105.404.2.492.053.015-.07.241-.259.215.187.17.148.412.173.613.028.224.159.45.056.686-.032.072.014.094.07.12.13.06.169.253.229.29.258.157.153.325.093.513-.065.202-.096.419-.185.61a1.535 1.535 0 00-.125.508c-.02.202-.03.398-.291.437-.027.004-.066.05-.067.076-.012.527-.428.832-.671 1.232-.173.286-.375.563-.49.871-.096.254-.39.269-.473.5-.012.035-.027.067-.063.15.145-.082.28-.11.34.007.053.105-.04.22-.12.286a1.122 1.122 0 00-.344.529c-.063.185-.236.252-.36.38.372-.162.755-.313 1.107-.502.23-.123.33-.446.42-.712.037-.11.025-.236.11-.334.02-.023.028-.095.022-.097-.217-.092-.105-.273-.11-.416-.012-.355.168-.477.495-.313.141.071.28 0 .37.025.446.122.436-.332.664-.471.036-.022.05-.09.086-.102.134-.044.173-.29.352-.179.022.014-.067.295-.164.395-.269.277-.271.622-.283.96-.006.179-.027.312-.18.43-.177.133-.332.283-.387.529-.021.097-.195.163-.194.313a.562.562 0 01-.022.019c-.13.06-.167.15-.18.303-.036.425-.187.818-.384 1.2-.06.117-.268.006-.258.23.003.066-.009.25-.094.352-.014.017.002.073-.008.076-.268.095-.088.337-.165.497-.081.172-.14.338-.385.302-.162-.024-.195-.078-.101-.215.037-.055.123-.115.06-.193-.07-.087-.152.022-.235.009-.069-.107.094-.175.045-.288-.398-.054-.801-.044-1.205-.028-.056.002-.143.075-.158-.03-.014-.101.09-.105.16-.11.284-.024.569-.056.887-.02-.074-.088.052-.207-.082-.27-.152-.07-.19.048-.24.15-.023.048-.073.055-.12.032-.064-.032-.103-.087-.094-.157.01-.078.03-.168-.086-.148-.12.02-.257-.045-.359.064-.04.044-.004.065.034.077.09.026.104.082.037.138-.064.054-.186.109-.221.034-.082-.172-.208-.353-.124-.56.057-.14.171-.215.333-.16.063.02.086.018.065-.057a.254.254 0 01-.004-.107c.063-.373.171-.42.461-.208a.195.195 0 01-.1-.165c-.007-.073-.054-.125-.134-.1-.397.123-.788.253-1.008.652-.043.078-.066.127-.017.221.053.1-.066.181-.138.2-.078.021.003-.112-.08-.154-.13.26.081.386.196.557.043-.052.075-.111.124-.147.072-.052.1-.19.2-.166.143.034.034.178.074.264.066.14-.016.198-.117.127-.132-.092-.127.035-.141.071-.09.226-.265.294-.489.35-.376.095-.759.202-1.055.485.028.07.073.072.13.032a9.73 9.73 0 01.111-.076c.116.208.295.026.436.071.024.008.06.021.065.04.015.05-.021.085-.06.113-.183.137-.355.294-.556.399-.09.046-.262.195-.356-.058-.037-.099-.55-.099-.629-.017-.087.091-.054.187.003.28.05.082.018.148-.056.186-.1.052-.1-.023-.107-.094-.004-.044-.035-.07-.068-.018-.028.043-.04.127-.109.06-.046-.045-.037-.125.006-.18.034-.041.092-.064.127-.106a.16.16 0 00.014-.183c-.039-.06-.106-.01-.15.007-.589.225-1.165.476-1.687.831-.094.064-.174.125-.29.144-.585.097-1.165.24-1.765.234l-.145-.117a.153.153 0 01.087-.038c.238-.02.403-.21.661-.23.267-.02.463-.325.809-.24l-.037-.1c-.461 0-.928-.045-1.38.016-.28.037-.55.019-.823.011a19.347 19.347 0 01-.863-.816l-.002-.001zm25.702 1.63l-.071.055c-.024-.016-.036-.047-.054-.07-.055-.07-.047-.226-.221-.13-.068.037-.13-.085-.197-.133-.29-.213-.523-.47-.945-.522a1.624 1.624 0 01-.844-.4c-.159-.151-.446-.23-.456-.52l-.002.001c.2.04.419-.086.614.059-.066.102-.19.021-.252.105.17.055.36-.021.472.244.078.186.305.362.558.434-.015-.23-.288-.271-.297-.484-.002-.064-.03-.127-.03-.19.002-.059-.002-.153.091-.138.087.014.071.09.045.156-.012.032-.014.068-.031.16.212-.182.3-.07.4.078.248.365.657.557.965.861.131.13.206.272.255.434zm-27.69-3.977a19.394 19.394 0 01-.27-.384c.155.029.292.111.386.32-.037.005-.076.04-.116.064zm.83-23.696l.072-.084c.177.1.254-.036.312-.198.034-.096.05-.185.144-.041.009.014.006.069.043.016.016-.023.028-.05.05-.066.143-.105.27-.05.318.121a.64.64 0 00.271.386c-.153.021-.192.234-.343.195-.108-.028.004-.148-.06-.268-.146.285-.39.326-.658.332-.122.003-.196.004-.122-.138.046-.088-.007-.17-.026-.255zm30.35.622c.23.3.452.606.664.92a.705.705 0 01-.417.029c-.27-.079-.31.12-.415.256-.05.064.063.193-.07.207-.125.012-.04-.175-.164-.2-.17.184-.354.364-.616.116-.143.217-.312.005-.47.018-.296.024-.422-.173-.276-.444.098-.184-.038-.227-.107-.317-.033-.043-.105-.084-.138-.015-.04.08.068.021.09.064.038.08.017.125-.067.139-.287.047-.186.336-.301.492-.04.056.049.036.088.042.26.036.405.2.363.449-.03.179.167.216.157.407-.009.17-.181.371 0 .545l-.567.274c-.148-.27-.2.005-.281.057-.053.034-.067.185-.141.133-.286-.199-.494.07-.74.096-.207.02-.331-.069-.443-.243-.059-.092-.2-.131-.173-.294l-.175.218c-.11-.137.057-.256-.016-.388-.138.082-.118.223-.134.336-.024.168-.133.23-.244.143-.116-.094-.342.023-.371-.207 0-.007-.03-.01-.047-.016.021.175-.21.213-.216.317-.02.326-.127.562-.453.67-.103.033-.216.107-.161.218.15.308-.212.226-.265.373-.129-.204-.354.101-.462-.097-.117.096.304.18-.021.287-.044.014.112.084.079.213-.357-.218-.559.052-.816.231-.267.185-.541.34-.733.62-.137.2-.37.184-.606-.022-.142-.124-.257-.281-.375-.431-.064-.08.007-.16.04-.232.052-.118.118-.228.184-.352-.229-.085-.425-.078-.627.038-.225.13-.498.042-.64-.183-.186-.29-.392-.548-.797-.427-.178.053-.152-.02-.177-.17-.057-.338.232-.483.329-.73.014-.036.102-.077.14-.066.371.11.851.112 1.018.491.113.26.263.207.426.268.266.1.529-.088.79.019.092.038.211.009.287.088.066.067.123.07.196.022.1-.067.02-.117-.005-.183-.029-.078-.034-.163-.106-.236-.055.05.045.254-.192.147-.202-.092-.464-.09-.716-.061-.255.03-.48-.154-.709-.272-.148-.077.11-.11 0-.227-.122-.13.081-.099.147-.12.178-.055.209-.226.284-.357.039-.067-.037-.1-.1-.134-.141-.075-.3-.096-.177-.369.245-.544.762-.435 1.172-.566.192-.062.34-.137.465-.295-.2-.05-.165-.046-.136-.256.015-.11-.105-.238-.022-.374.023-.037.042-.125.068-.103.243.205.145-.083.206-.137.138-.121.264-.27.494-.223-.045.142-.166.037-.212.107.22.237.497.114.762.087.005-.038-.066-.11-.005-.178.038-.043.087-.077.146-.058.053.016.056.062.047.113-.004.027-.071.097.03.08.029-.006.104.027.069-.097-.044-.153.235-.124.282-.29.012-.041.129.018.19.116.058.095.178.012.202-.106.022-.106.022-.21.09-.313.06-.089.057-.19.173-.043.094.12.099-.046.15-.067.09-.038-.068-.222.107-.196.108.016.21.08.22.216l.06.049.274-.006a.27.27 0 00.169.122c.019.183-.172.529-.322.587-.106.04-.17-.01-.237-.087-.084-.098-.197-.06-.273 0-.077.064-.022.132.055.171h.06c.123.127.181.326.413.333.071.002.091.12.026.15-.228.103-.058.129.026.18a.49.49 0 01.228.372c.13-.207-.185-.293-.082-.467.016-.002.038-.013.048-.006.29.203.382.178.48-.172.022-.074.042-.094.098-.088.204.02.182-.111.201-.25.011-.084-.05-.186.114-.277.251-.138.365-.131.458.134.03.086.398.056.061.258.317.013.346-.017.383-.31.006-.049.06-.09.083-.139.018-.04.04-.092.029-.13-.056-.192-.052-.202.05-.364.099-.158.208-.21.41-.263.288-.077.464.14.71.107.095-.013.227.065.13.223-.034.054-.031.11.018.15.053.04.108.006.157-.019.48-.24.479-.24.72.223.036.069.046.17.16.168.124-.003.17-.06.127-.179.037-.011.075-.024.113-.037zM10.94 32.04l.003.094c.042.164.023.234-.172.328-.165.08-.43.122-.497.393-.031.128-.136-.008-.202-.03-.06-.018-.13-.074-.044-.142.18-.143-.026-.108-.074-.16-.01.17-.057.392-.216.368-.254-.04-.31.185-.478.22.4.231.752.046 1.108-.108a.402.402 0 01.132-.04c.307-.017.61-.089.91-.122.442-.048.503-.324.582-.645.077-.312.036-.629.054-.943.01-.18.035-.35.23-.44.746-.347 1.05-.999 1.202-1.753.016-.08.01-.176-.082-.173-.201.006-.343-.11-.5-.2-.154-.089-.297.012-.32.116-.052.219-.19.226-.364.239.381.068.754.103 1.164.064-.125.228-.378.356-.495.584.097.06.157-.097.248-.002-.015.032-.028.066-.046.096-.108.178-.398.231-.337.536.014.07-.143.21-.248.183-.355-.088-.633.026-.882.264-.011.012-.049-.004-.048-.004-.13-.114.22-.218-.025-.32.048-.113-.066-.278.089-.35.275-.13.07-.4.2-.576-.287.31-.578.588-.96.75.101-.148.233-.26.353-.385.057-.058.169-.141.048-.218-.056-.036-.125-.172-.256-.035-.145.15-.35.242-.517.373-.16.126-.314.253-.498.35-.264.14-.256.157-.275.295.257-.26.59-.29.92-.266.117.008.12.175.135.379-.204-.31-.427-.27-.543-.077-.112.183-.176.393-.357.53.014.208.15.39.11.614-.02.118.1.133.2.119.258-.036.508-.007.748.094zm3.965-3.457a1.32 1.32 0 00-.692.567c-.075.117-.142.146-.238.103-.276-.12-.272.057-.247.23.048.341-.09.569-.382.733a3.61 3.61 0 00-.452.321c-.27.215-.332.458-.208.794.052.14.116.29.06.432-.111.272-.006.564-.137.874.27-.291.31-.6.262-.917-.037-.252-.001-.497.006-.745.007-.208.097-.342.281-.441.166-.09.361-.147.451-.343.08-.171.243-.245.4-.324.105-.054.234-.06.202-.256-.02-.116.051-.322.141-.366.294-.144.351-.459.551-.664.213-.063.423-.077.601.082.11.099.178-.037.192-.064.08-.142.07-.147.218-.122.012.003.027-.02.044-.034-.006-.086-.184-.032-.14-.153.152-.107.31.031.518-.045-.25-.02-.381-.15-.186-.276.218-.14.236-.447.568-.494a.776.776 0 00-.39-.07c-.189.013-.506-.14-.368.289.005.014-.022.044-.04.06l-.677.57c-.108.091-.3.075-.338.26zm7.586-2.757c-.062.223 0 .411.122.592.134.199.285.39.342.632.012.052.027.118-.034.149-.025.012-.07-.004-.1-.02-.035-.017-.061-.049-.091-.074a.463.463 0 01-.043.153c-.02.046.062.021.096.024.105.006.15.047.13.16-.017.089.008.183-.141.184-.121.001-.242.046-.399.078.15.047.257.016.364-.008.113-.026.266.041.266.098-.002.338.208.603.283.912.148.608.303 1.216.467 1.82.027.1 0 .171-.043.25.201.035.48.338.475.522-.001.037-.071.082.02.083.351.004.113.195.102.32.069-.018.149.004.171-.105.018-.089.105-.06.113-.01.022.157.121.105.216.115.154.016.322.023.428.165.194.26.385.522.576.784.106.145.21.29.394.36-.349-.49-.421-1.163-1.023-1.484-.096-.052-.174-.118-.293-.133-.107-.013-.231-.067-.254-.19-.058-.305-.244-.535-.4-.79-.11-.18-.324-.289-.384-.457-.172-.49-.3-1-.403-1.511-.058-.291-.063-.6-.233-.849-.07-.103.071-.192-.022-.247-.151-.09-.178-.267-.121-.357.17-.27-.074-.44-.167-.57-.14-.193-.347-.34-.415-.596zm-5.047.562c-.24-.423-.117-.927.224-1.113a.505.505 0 00.224-.233c.103-.213.193-.432.3-.676-.132.043-.244.05-.236.192.006.114-.084.126-.151.111-.223-.048-.317.098-.417.248a3.54 3.54 0 00-.427.93c-.107.358-.427.561-.566.887-.041.097-.138.069-.214.093-.147.046-.222.103-.131.3.111.24.29.075.425.132.194.082.232-.096.308-.192.127-.16-.132-.125-.13-.25.172.022.252-.03.29-.224.036-.188.124-.45.5-.206zm-2.397 6.409c.446-.358.756-.796 1.07-1.236.15-.21.12-.48.31-.663.381-.365.716-.761.782-1.316.007-.061.13-.135.013-.177-.09-.032-.15.069-.154.155-.014.282-.163.484-.36.666-.045.043-.073.106-.105.163-.335.59-.65 1.192-1.125 1.694-.185.195-.387.4-.43.714zm1.12-6.621c-.09.036-.168.1-.244.022-.107-.111.067-.089.08-.151.016-.079.065-.15.018-.238-.252.284-.661.414-.771.827-.003.01-.05.01-.077.01-.197.003-.26.206-.412.275.119.141.23-.063.348-.008a.102.102 0 00.055.005c.2-.029.2.056.126.204-.05.1-.137.196-.098.378.121-.172.369-.13.39-.372.005-.045.059-.077.107-.03.079.076.086.011.1-.046.016-.067 0-.116-.077-.11-.085.006-.198.078-.216-.075-.014-.123.091-.172.184-.217.082-.04.165-.074.247-.11.024-.097-.127-.112-.094-.227.116-.003.285.11.334-.137zm-2.645 1.262c.004.236-.106.356-.291.412-.241.072-.205.335-.128.396.178.141.047.224-.006.34.333-.3.816-.25 1.15-.552-.163-.07-.412-.08-.276-.365.018-.038-.046-.08-.095-.08-.124 0-.226-.06-.354-.151zm-1.744 2.896c.298-.198.424-.544.77-.61.02-.004.056-.05.052-.058-.112-.19.032-.173.148-.194.061-.01.084-.076.06-.133-.033-.075-.092-.036-.14-.015-.065.028-.12.083-.202.026-.163-.113-.222.03-.197.13.044.18-.063.235-.166.333-.136.132-.343.233-.325.52zm2.356 2.639c-.08-.012-.086-.178-.203-.094a12.01 12.01 0 00-.66.528c-.044.036-.1.084-.058.165.05.096.1.033.158.015.064-.02.116-.027.137.074.022.107.118.041.182.036.046-.004.095-.018.09-.082-.006-.078-.07-.069-.123-.083-.073-.019-.103-.056-.072-.141.027-.076.05-.133.144-.138.06-.004.185.004.174-.027-.078-.233.159-.146.23-.253zm-1.075-21.668c.125-.07.38-.005.261-.32.148.124.146.122.239 0 .053-.07.091-.028.121.028.027.052.102.114.12.062.057-.168.134-.06.218-.046.207.033.422-.008.627.064.148.052.338-.206.463.06 0 0 .042-.008.045-.017.077-.266.136.031.2.005.093-.036.129-.165.258-.148.08.01.102.067.138.12.042.063.013.179.139.186.056-.136.226-.233.082-.461.185.135.166.248.123.384-.039.124.077.219.125.326.014.033.068.027.093-.008.069-.095.012-.197.009-.296 0-.032-.026-.063-.04-.094.045 0 .11-.016.114.045.023.34.16-.083.253.037.05.063.073-.055.071-.118-.005-.199.131-.213.231-.119.184.172.335.259.526.022.07-.086.165-.068.25-.008.08.058.128.122.065.227-.023.037-.013.092.03.104.216-.024.182-.34.425-.32.003.098-.112.19-.012.309.063-.1.13-.181.154-.297.02-.096.022-.236.123-.269.344-.111.144-.294.098-.46-.145-.012-.14.25-.301.14-.152-.105-.356-.116-.477-.273-.117-.037-.244-.068-.173-.24-.103-.054-.191-.066-.25.066-.058.135-.121.245-.265.056-.063-.082-.175-.055-.253.003-.066.05-.07.117-.013.194.126.17-.063.178-.117.154-.165-.07-.25-.016-.298.133-.022.067-.048.062-.1.034-.102-.057.005-.051.02-.072.056-.074.006-.122-.047-.162-.049-.037-.112-.102-.17-.039-.077.086-.2.063-.271.125-.214.185-.372-.003-.477-.108-.095-.095-.023-.253.122-.351.08-.055.085-.2-.002-.266-.09-.067-.168-.004-.21.102-.024.058-.029.14-.106.172-.05-.102.093-.174.02-.274-.126-.041-.245.15-.384.012-.084-.083-.2-.223-.258.039-.018.084-.14.088-.181.019-.177-.298-.14.053-.207.063-.105-.08.062-.197-.052-.286-.104.027-.196.246-.28.137-.181-.236-.252-.091-.369.118 0-.175.007-.283-.001-.389-.01-.124-.08-.232-.207-.22-.202.018-.384.055-.517-.164-.04-.066-.16-.027-.22.043-.122.14-.21.336-.458.246-.042-.015-.058.041-.046.08.027.093.032.132-.078.059-.08-.053-.078.01-.08.074-.005.096-.052.181-.042.29.014.148-.033.295-.284.135a.512.512 0 00.206.23c.115.066.117.211.06.262-.136.122-.265.345-.508.173-.056-.04-.109-.038-.152.002-.135.129-.427.006-.453.362-.01.143-.296.34-.482.477-.095.07-.054.123-.042.2-.116-.152-.235-.268-.445-.236.027-.08.151-.058.127-.143-.022-.076-.096-.02-.144-.038-.034-.012-.067-.05-.098-.048-.172.019-.338-.184-.485-.065-.1.081-.22.14-.315.267.005-.087.026-.147.009-.194-.054-.147-.179-.131-.304-.119-.097.01-.14.055-.11.146.045.132.11.297.234.315.074.01.309.186.324-.109.001-.025.102-.065.115-.018.092.326.563.309.576.68.258-.172.52-.223.8-.24.22-.013.402.174.625.103.097-.03.19-.195.283.007.004.01.05.012.071.004.179-.064.323-.347.286-.601.033.062.055.092.064.125.02.069.054.13.129.123.12-.01.036-.096.044-.149.011-.08.072-.103.142-.102.078.001.194-.045.213.07.039.238.209.195.36.186.27-.016.538-.01.807.005.125.008.263.05.37-.056.014-.013.014-.062 0-.074-.122-.114-.26-.045-.393-.025-.19.028-.389.087-.523-.123l.092-.045zm11.277 3.22c.068.093.16.228.006.273-.317.094-.125.199-.015.308-.075.037-.185-.033-.184.118 0 .128-.024.32-.209.091-.06-.075-.126-.053-.19.01s-.09.058-.153-.03c-.033-.048-.243-.308-.332.058-.028.118-.25.333-.493.263-.116-.033-.181.035-.239.098-.069.074.004.154.027.232.028.097.166.076.2.223-.162-.09-.305-.148-.424-.238-.248-.188-.442-.144-.446.154-.002.223-.126.313-.25.421a1.265 1.265 0 01-.323.202c-.132.058-.23.206-.162.362.041.095.143.168.276.068.042-.032.093-.193.186-.051.065.098.008.187-.075.238-.189.117-.32.248-.135.549-.313-.18-.462-.025-.566.15-.08.134-.15.221-.335.18.184.126.267.298.248.48-.009.075-.126.152-.172.257-.083.19.156.006.15.155-.01.22.183.254.362.223.128-.021.27-.018.277.116.009.185.138.251.24.35.042.04.147.109.155.05.013-.106.134-.089.143-.201.033-.368-.168-.684-.153-1.069-.179.14-.072.383-.351.496.114-.194.083-.333.056-.479-.03-.158.254-.522.42-.563a.418.418 0 00.327-.34c.042-.341.097-.65.447-.816.071-.035.45.065.428.123-.06.15.17.181.103.304-.019.034-.18-.033-.087.108.056.084.122.05.194.014a.29.29 0 01.158-.03c.293.038.465-.09.488-.38.005-.064-.002-.174.077-.13.273.153.256-.06.286-.25.062.152.116.258.268.255.166-.002.235-.133.266-.247.107-.387.235-.723.732-.727.124-.001.248-.156.252-.27.011-.417.345-.782.175-1.228-.098-.258-.044-.574-.299-.772-.036-.028-.055-.062-.026-.088.154-.138.222-.441.328-.474.237-.074.104-.228.113-.306.016-.142-.159-.06-.242-.11.11-.007.217-.014.322.023.097.035.166-.002.2-.093.037-.094-.049-.135-.103-.175-.081-.06-.21-.08-.257-.154-.188-.302-.4-.248-.638-.082-.037.025-.115.057-.082.085.225.192-.058.12-.086.146-.171.155-.093.596.133.7.089.042.226.028.087.219-.084.114-.098.311-.206.447a.108.108 0 00-.005.131c.139.204-.045.295-.158.367-.225.144-.379.098-.408-.08-.278-.05-.251.192-.326.337zm.55-.498c.086-.261-.047-.54.12-.792.053-.08.018-.326-.045-.356-.212-.103-.263-.312-.395-.463-.118-.134-.068-.2.03-.322.075-.095.28-.128.214-.322-.003-.009.04-.049.057-.046.304.047.58-.328.916-.03.13.115.551-.088.616-.239.064-.147-.07-.657-.197-.743-.022-.016-.092-.014-.027-.06.148-.103.108-.278.142-.415.041-.164.108-.207.255-.187.073.01.17.038.188-.06.03-.175.056-.357.042-.533a.395.395 0 00-.18-.303c-.139-.085-.317-.04-.381.052-.096.136.136.098.2.207-.23-.031-.444.154-.674-.14.02.157.112.236-.04.3-.112.048-.21.237-.228.374-.036.264-.01.536-.01.834a.754.754 0 00-.62-.46c-.066.118.17.17.055.264-.095.078-.084-.129-.2-.105-.083.246-.218.484-.143.775.022.086-.023.246-.119.244-.188-.004-.256.074-.235.236.019.145-.135.304-.066.386.176.209.087.364-.023.538-.028.045-.014.087.012.13.14.23.036.363-.16.501-.085.06-.261.002-.244.123.02.141.197.093.305.13.008.003.014.01.03.022-.181.182-.485.055-.654.257-.006.008-.063-.04-.096-.038-.109.003-.34-.114-.188.175.027.05.01.077-.055.09-.088.018-.173.057-.26.088l.003-.003c.115.177.26.23.471.162.31-.099.433-.018.46.296.014.16.085.164.213.163.176-.003.22-.188.361-.231.075-.145.048-.388.326-.337.106-.01.173-.005.225-.162zm-3.224-2.403c.017-.172.03-.344.053-.515.006-.044.042-.094-.01-.123-.227-.128-.048-.293.009-.374.16-.228.369-.422.562-.626.092-.096.131-.29.084-.316-.237-.132-.365-.41-.638-.476-.179-.044-.317.102-.478.148.04.127.01.272.131.38.041.037.214.053.1.166-.067.067-.167.146-.285.024-.128-.133-.226-.076-.279.085l-.085.266c-.12-.062-.222-.185-.396-.158.037.18.262.167.288.316-.228.23-.614-.01-.82.29-.018.027-.03-.05-.054-.07-.181-.153-.368.02-.553-.004-.029-.004-.041.084-.017.124a.423.423 0 00.43.192c.217-.03.327.039.4.23.06.16.242.15.365.198.102.04-.013-.15.088-.187.193.123-.038.28.027.407.317.08.26-.254.403-.392.03.286.066.315.35.288.042-.003.07-.022.077.037.022.169.15.086.238.098l.01-.008zm-2.026 20.425c-.115.194.104.412.023.548-.199.335-.233.735-.474 1.05-.213.278-.166.668-.363.961-.006.01.006.036.017.05.197.255-.02.465-.089.682-.114.364-.118.753-.271 1.107-.024.055.016.148.047.213.046.093.087.254.206.21.092-.034.24-.09.23-.271-.008-.133.035-.273.075-.404.107-.354.403-.677.163-1.084-.01-.018 0-.06.015-.08.14-.192.13-.437.229-.644.151-.318.225-.65.28-1 .033-.216.056-.464.191-.717.014.075.022.099.022.123 0 .069-.053.176.046.187.104.012.11-.11.119-.186.03-.281.023-.56-.11-.86-.095.167-.208.175-.334.096a.76.76 0 01-.022.02zm2.016-20.417c-.122.343.247.195.35.367-.166-.058-.286-.073-.406.085-.039.05-.31.198-.499.01-.064-.063-.322-.178-.225.193-.113-.235-.236-.202-.353-.082-.057.06-.076.127-.122-.008-.028-.082-.114-.082-.188-.036-.054.034-.153.096-.114.133.155.148.014.322.048.474.164-.003.09-.175.185-.218.067.078-.114.203.058.256.445.14.896.212 1.363.148.023-.004.067.003.07.014.085.299.274.052.41.076.086.016.135-.053.15-.13.02-.092-.043-.146-.119-.16-.216-.042-.195-.143-.131-.319.06-.166.152-.359.14-.513-.018-.219-.313-.121-.457-.228-.043-.033-.1-.048-.15-.07l-.01.008zm-13.298-.578c.2-.02.406-.053.57-.17.112-.082.018-.241.054-.367.047-.162-.047-.321-.154-.367-.018-.008-.016-.052-.03-.075-.033-.062-.085-.12-.154-.078-.129.078-.272.044-.401.048-.202.007-.394.159-.462.235-.199.22-.222.172-.265-.065-.006-.033-.047-.055-.109-.026.037.187-.065.279-.248.309-.157.026-.133.13-.082.23.078.152.162.303.247.452.016.028.05.061.077.063.057.004.077-.044.073-.095-.003-.053-.029-.112.059-.143.14.221.29.279.424-.026.028.05.045.073.055.098.043.105.12.2.229.13.139-.09-.085-.1-.065-.182.012-.05.002-.106.002-.16.066.077.04.203.18.19zm.975-1.17c.143-.14.26.018.386.04.09.017.165.04.201-.072.199.12.057-.5.355-.163.024-.025.052-.047.073-.075a.538.538 0 00.108-.3c.022-.237-.068-.518.229-.677.084-.045.122-.168.025-.264-.092-.09-.2-.207-.33-.118-.109.074-.174.215-.335.11.013.154-.214.161-.194.346a.747.747 0 01-.11.422c-.087.153-.106-.055-.175-.063-.068-.007-.1.034-.143.067-.04.03-.068.072-.143.05-.15-.045-.272.065-.271.226-.004.234.22.312.324.472zm14.507 1.745c-.08.065-.24.008-.266.143-.042.22-.031.221-.255.119-.3-.138-.598.018-.706.332-.072.211-.023.373.077.551.1.179.067.214-.136.216-.03 0-.066.027-.089.05-.145.151-.089.161.08.284.3.217.593.188.904.214-.16-.181-.127-.42-.234-.601-.031-.054-.013-.113.032-.152.247-.215.403-.494.59-.755.126-.178.106-.268 0-.403l.003.002zM7.536 28.47c.004-.183.1-.428-.257-.354-.025.005-.082-.053-.094-.09-.04-.134-.086-.103-.17-.031-.09.078-.222.196-.325.106-.26-.224-.246.03-.32.175-.095-.155-.271-.13-.406-.204-.112-.063-.314-.024-.448.035-.075.033-.062.185.021.29.043.053-.012.14-.051.203-.116.185-.025.245.152.27.39.056.659-.114.83-.467.095.155-.079.351.104.446.14.072.13-.147.233-.172.041.063-.02.173.071.172.166-.002.307-.094.443-.206.012.084-.088.141-.004.194.062.04.097-.02.137-.058a.261.261 0 00.085-.25v-.06zM32.658 8.476c.053-.243.01-.5.178-.728.09-.12.007-.275-.096-.402-.066-.081-.098.117-.161-.007-.067-.132-.183-.254-.353-.218-.16.034-.224.181-.263.352-.06-.094-.065-.286-.185-.08l-.052.096c-.008-.012-.013-.03-.025-.037-.125-.062-.145-.067-.178.035a.344.344 0 01-.193.228l.365.205c-.043.046-.166-.034-.165.08.002.088.11.083.163.127.083.07.254-.087.284.123l-.524.033c.259.074.53.142.774.089.149-.032.13.063.184.082.13.043-.046.363.227.233a.317.317 0 00.02-.211zM24.235 34.9c-.043-.217-.24-.396-.439-.388-.026.001-.05-.05-.082-.063-.128-.053-.064-.205-.177-.316-.02.146-.185.136-.221.272.104.059.242.063.266.208-.058-.007-.112-.096-.15-.026-.045.082-.12.178-.04.282.162.209.132.55.45.652.02.006.042.078.03.095-.166.232.037.42.07.627.01.054.021.12.092.12.075-.002.124-.05.111-.129-.03-.192.179-.204.244-.326.014-.027.118.152.145-.005.014-.077-.062-.143-.161-.162-.065-.013-.154-.006-.18-.1.11-.057.11-.057.601.064.064-.092-.152-.115-.06-.189.136-.107.01-.201.007-.298-.001-.064-.02-.175-.122-.139-.081.03-.063.122-.029.194l.068.14c-.326-.069-.379-.292-.423-.513zm.236-25.572c.073.153-.037.26-.076.353-.072.17-.148-.054-.21-.05-.162.006-.354-.098-.487.084-.077.106-.075.194-.005.356.006.014-.022.042-.033.064-.093.198.055.285.188.333.13.046.238-.015.211-.19-.01-.058.05-.036.076-.056.156-.118.324-.216.525-.222.084-.003.119-.209.215-.067.164.24.185-.012.225-.07.04-.056.022-.144.079-.217.097-.123.054-.621-.067-.753-.132-.143-.188.08-.295.083-.027 0-.054-.011-.065-.014-.293-.025-.404.113-.282.366zm-5.811-.667c.018.249.16.456.069.684-.01.023.04.081.073.106.087.063.115.101.039.215-.074.11.027.242.127.304.147.092.094-.073.137-.121.051-.06.145-.131.209-.121.168.026.236-.068.292-.188.031-.066.066-.101.142-.109.16-.017.15-.088.034-.16-.161-.102-.223-.205-.14-.41.066-.164.058-.362.066-.546.005-.11-.034-.213-.167-.224-.066.094.069.176-.034.261-.118-.044-.184-.312-.369-.131-.124.122-.156.272.015.395-.158.126-.314.124-.493.045zM4.55 29.735c.207-.034.428.024.644.026.37.003.745.032 1.1-.122.083-.035.203-.031.2-.154a.292.292 0 00-.21-.271c-.261-.079-.534-.06-.806-.059-.299.002-.582.263-.897.041-.073-.051-.198-.028-.294.03-.052.033-.101.088-.176.05-.066-.033-.15-.085-.193.004-.037.077.023.172.074.226.122.128.27.188.433.014.004.117-.113.254.125.215zm15.894 5.707c-.15-.05.02-.305-.207-.319-.067-.004-.076-.097-.067-.165.013-.091.064-.042.118-.04.165.006.17-.138.165-.242-.003-.049.005-.27-.193-.099-.08.07-.08-.051-.058-.126.086-.31.183-.619.134-.949-.013-.089-.034-.17-.14-.174-.099-.004-.12.08-.137.15-.04.166-.093.334-.1.504-.029.617-.309 1.18-.372 1.79-.009.09-.131.205.015.262.131.051.346.014.373-.09.06-.227.232-.202.379-.23-.02-.145-.16-.083-.213-.162.09-.08.236.01.303-.11zm.919-21.329c-.296-.189-.475-.195-.62.179-.062.158-.084.262.04.357.14.107.191.209.096.375-.048.084-.087.193.062.247.134.049.203-.031.234-.13a.736.736 0 01.218-.34.498.498 0 01.327-.152c.295-.025.39-.244.346-.722-.012-.129.033-.318-.186-.296-.193.02-.356.111-.327.374.01.136-.05.198-.19.109zm10.833-5.236c-.056.015-.149-.027-.133.081.01.07.08.104.148.1a.694.694 0 01.32.038c-.056.09-.176-.016-.195.089-.015.078.059.107.121.124.178.048-.024.13.019.188a.27.27 0 00.168.122c.07-.206.07-.206.593-.571.024.068-.1.141-.002.196.101.056.124-.081.226-.11-.06.161-.15.325.08.406.092-.247-.065-.531.16-.746.044-.043.023-.153-.036-.23a.667.667 0 00-1.008-.088.316.316 0 01-.019.21c-.129.107-.286.148-.442.19zm-6.209-.389c-.173-.025-.201.098-.238.208-.07.21.083.32.232.375.13.047.048-.146.143-.195.05.144.088.323.306.18.2-.131.297-.364.5-.493.036-.022.021-.099-.018-.125-.182-.122.01-.243.045-.261.135-.072.078-.135.057-.24-.05-.26-.235-.322-.45-.35-.114-.016-.465.363-.439.469.039.159.263.043.32.22.026.083.091-.098.195-.053-.137.313-.178.333-.653.265zm-2.094-.473c-.12-.19-.382-.16-.53-.316-.003-.003-.061.034-.059.042.04.129-.167.217-.032.38.136.167-.008.398-.226.457-.18.05-.382.064-.518.22-.048.054-.12.117-.072.19s.087-.007.127-.038c.038-.03.087-.012.07.033-.079.211.13.207.198.205a.46.46 0 01.368.129c.08.073.203.03.287-.02.081-.047.027-.142 0-.2-.1-.215-.054-.43-.042-.65.008-.128.038-.143.14-.11.188.003.37-.195.29-.322zm11.325 18.47c-.177.291.15.763.51.725.317-.033.621-.052.938.006.193.035.314-.182.219-.352-.124-.22-.362-.273-.584-.128-.025-.058.09-.133.001-.165-.09-.032-.178.013-.225.16-.015-.216-.122-.308-.272-.203-.123.085-.201.237-.372.342.135-.284-.267-.158-.215-.385zM26.885 11.31c-.119-.037-.157.073-.231.12-.101.061-.093.165-.079.247.026.144.135.022.204.041.052.015.11.01.16.029.015.006.012.065.01.1 0 .018.02.053-.033.044-.212-.037-.41.023-.606.093-.07.025-.171.05-.15.13.015.066.054.15.147.184.212.079.418.176.63.253.137.05.3.03.396-.054.075-.066.087-.218 0-.332a.145.145 0 01-.008-.18c.01-.143-.313-.635-.44-.675zm-1.672-3.494c.085.144.495.26.645.18.225-.12.283-.329.15-.557-.04-.07-.087-.117-.061-.222.045-.18-.143-.356-.28-.257-.147.105-.6-.164-.442.331.003.007-.026.023-.04.035-.103.09-.132.181 0 .27.04.027.086.045.042.08-.061.058-.039.098-.014.14zm-2.967 7.216c.004.065.043.132-.071.128-.094-.002-.057-.062-.067-.114-.03-.173-.21-.102-.222-.061-.063.206-.369.257-.32.537.013.075-.073.172.04.234.113.062.184.005.256-.087.123-.16.31-.298.491-.254.308.072.363-.06.413-.31.035-.175.032-.293-.126-.401-.168-.115-.297.036-.444.05-.06.006-.05.12.043.128.055.005.11-.018.156.066-.044.05-.155-.024-.149.085zm8.692-6.4c.196-.023.174-.187.255-.274.064-.07-.081-.07-.142-.09-.128-.044.01-.019.008-.03.045-.009.103-.013.081-.08-.009-.025-.055-.039-.085-.056-.22-.126-.494-.002-.717-.165-.088-.065-.23.042-.216.14.029.195-.13.194-.218.266.313.254.647.335 1.034.29zm-8.69 2.248c-.065.038-.13.049-.07.122.078.093.089.196.108.305.025.14.148.231.26.193.128-.043.324-.034.358-.238.018-.111-.064-.251.134-.309.077-.022-.038-.364-.143-.376-.207-.025-.414-.082-.662-.025.181.159.186.228.016.328zm-2.691 18.95c.135-.166.408-.123.485-.358.011-.034.068-.072.052-.114-.07-.187-.402-.073-.408-.358 0-.055-.11-.015-.161.03a.098.098 0 00-.02.02c-.153.243-.358.449-.493.707-.104.198.08.2.15.288.142-.073.31-.11.395-.214zm1.491-2.07c.099-.016.222.04.294-.09-.41-.103-.679.085-.892.316-.164.177-.222.418-.407.576-.15.127-.567.194-.127.48.005.002.007.016.006.017-.073.045-.144.098-.005.138.077.022.169.02.21-.084.012-.032.029-.08.053-.086.245-.06.257-.08.157-.31-.099.03-.09.197-.225.178-.035-.005-.083-.003-.1-.024-.016-.02-.003-.094.01-.097.236-.062.278-.33.476-.441.063.046.017.232.211.125.201-.11-.02-.15-.003-.22l.108-.203c-.068-.216.075-.25.235-.276zm-.697-9.684c.048-.089.076-.161.198-.127.11.03.2-.004.255-.113.056-.11.007-.191-.068-.272-.054-.058-.138-.124-.059-.213.21-.236.04-.47.004-.704-.007-.049-.039-.09-.095-.076-.032.009-.084.042-.083.06.016.208-.204.391-.05.618.06.09.12.243-.111.217-.045-.005-.054.035-.066.072a2.116 2.116 0 00-.12.768c.143-.05.155-.156.195-.23zm3.482-6.45c.082-.121.286-.152.26-.354-.01-.076-.22-.198.051-.22.045-.003.031-.072-.02-.102-.03-.019-.124-.021-.072-.07.065-.063.132-.1.002-.14-.083-.025-.194-.043-.222.088-.01.046-.024.12-.063.07-.152-.187-.253.014-.377.029-.27.03-.183.145-.055.24.134.097.152.19.066.323-.03.048-.09.104-.002.18.133-.079.277-.168.434-.042l-.002-.002zM9.59 10.168c-.123-.165-.265-.12-.333.084-.01.03-.01.09-.059.055-.046-.034-.071-.133-.136-.03-.052.081-.017.16.046.225.104.104.204.214.317.308.121.1.272.132.414.055.094-.051.241-.092.184-.25.028-.322-.307-.278-.433-.447zm11.104 22.016c-.098-.02-.269-.125-.266.044.005.256-.31.454-.112.732.02.028-.005.088-.009.133-.094-.042-.137-.026-.093.084.022.055.061.097.125.091.1-.008.223.008.294-.044a.644.644 0 00.21-.3c.038-.111-.082-.082-.148-.096-.018-.004-.042-.039-.041-.058a.068.068 0 01.075-.065c.32.026.145-.169.113-.276-.02-.071-.133-.104-.116-.206a.444.444 0 01-.032-.04zm-7.281-18.438a.665.665 0 01.342-.097c.343-.017.685-.046 1.028-.046.14 0 .336-.118.413.127.01.033.075.023.098-.006.19-.232.449-.107.678-.137.144-.018.303.043.473-.081a.63.63 0 00-.411-.05c-.312.061-.603-.086-.934-.018-.558.115-1.143.102-1.717.13a.684.684 0 00-.456.198c.182.094.34.074.486-.02zm6.76 1.764c-.062-.004-.06.031-.072.084-.054.249.008.452.203.614.057.047.114.113.193.088.093-.029.074-.115.065-.188a.437.437 0 01.05-.24c.15-.323.127-.392-.216-.632-.017.14-.033.287-.223.274zM5.653 27.127c-.21.108-.421.244-.627-.028-.033-.043-.193-.163-.244.037-.021.081-.078.085-.121.041-.16-.16-.155.028-.192.093-.083.144.04.138.127.163.175.05.35.05.519-.01.21-.075.39-.023.567.11.04-.414.32-.058.46-.152-.056-.172-.357-.322-.49-.254zm4.956 1.174a.198.198 0 01.118-.144c.046-.02.09-.05.059-.102-.022-.035-.07-.077-.106-.077-.217-.002-.449-.027-.642.082-.128.072-.224.104-.349.02-.05-.034-.11-.033-.142.03-.028.057-.075.122-.04.183.04.067.095.01.145-.006.095-.031.16.014.205.095.127.226.194.068.26-.046.115.163-.206.184-.104.352.235-.077.311-.39.59-.382l.005-.005zM24.06 7.764c-.063.076.041.145.08.214.033.056.066.113.096.17.036.065-.067.19.068.204.137.015.306-.004.371-.128.048-.092.26-.147.136-.282a.88.88 0 00-.512-.28c-.078.03-.188.042-.239.102zm4.306 2.943c.043-.127-.254-.378-.425-.36-.188.018-.31.142-.294.332.017.213.198.262.332.288.235.016.338-.113.387-.26zm-8.4-1.611c-.027.049-.082.105.026.149.231.094.489.12.698.276.107.078.17.035.162-.101-.01-.212-.185-.52-.456-.482-.186.017-.343.002-.43.158zM8.96 28.839c.18-.022.043-.228.095-.393.16.297.35.309.565.117.054-.047.209-.02.155-.14-.059-.133-.152-.033-.223.018-.067.048-.17.146-.156-.028.024-.296-.022-.31-.196-.08-.014.017-.071.014-.103.003-.127-.041-.237.05-.368.037-.099-.009-.185.115-.176.242.006.088.059.184.141.184.143-.001.037-.155.1-.216l.026-.032c.15.052-.031.308.14.288zm-1.147-.22c-.069.018-.157-.06-.193.055-.02.064.002.105.054.14.147.1.31.045.459.027.057-.007.13-.154.094-.235-.063-.138-.102-.312-.247-.385-.252-.128-.385.006-.442.25v.058c.092.025.202-.01.275.09zM30.314 9.723c.012.056.011.156.105.129.084-.025.163-.084.172-.191.003-.036-.077-.122.049-.084.131.04.264-.086.429.074-.08-.212-.289-.26-.259-.451.005-.03-.05-.06-.086-.038-.211.13-.55.028-.641.381.047.071.202.047.23.18zm-7.486 4.416c.119-.306.119-.306-.22-.261-.064.008-.13.008-.193.019-.264.047-.27.062-.11.286.03.043.004.066-.002.098-.023.138.077.245.17.247.103.003.24-.085.233-.223-.006-.112.026-.155.125-.17l-.003.004zM9.464 8.067c-.12.024-.26.164-.268.337-.005.13-.012.348.083.36.182.022.315-.122.333-.328l.004-.055c.011-.19.124-.227.286-.188.058.014.112.074.19.006-.154-.294-.423-.172-.628-.131zM18 20.987c.066-.044.11-.079.044-.146-.064-.067-.126-.026-.157.035-.101.197-.274.324-.436.46-.088.074-.107.17-.103.275.004.081-.019.18.111.18.106 0 .174-.028.155-.166-.02-.143.05-.207.202-.152.112.04.211.017.235-.114.031-.169-.13-.113-.237-.176.073-.078.12-.151.187-.196zm3.65 12.282c-.16-.116-.125-.286-.193-.432-.056.066-.206.125-.312.134-.058.005-.143.062-.116.08.128.086.105.188.088.309-.002.015.19.03.21.08.135.318.36.125.602.171-.13-.197-.295-.08-.4-.18.022-.089.238-.078.12-.162zm.02 2.49c-.011.242.113.157.22.091.061-.037.112-.133.165-.132.194.007.136-.136.147-.227.018-.142-.108-.152-.2-.184-.202-.069-.327.124-.515.134.043.154.19.19.184.318zM17.657 9.93c-.07.172.057.203.174.24-.068-.073-.042-.213-.173-.24zM8.135 25.685c-.003.037.007.081.052.074.025-.005.054-.043.063-.072.01-.036-.01-.07-.054-.075-.043.005-.059.036-.061.073zm.212-.302l.035.016c.002-.008.008-.018.004-.022-.003-.006-.014-.007-.021-.01l-.017.016zm1.646 6.445c-.02.117.1.132.199.118.258-.036.508-.007.749.094a.365.365 0 01.236-.173c-.136-.166-.153-.35-.002-.496.09-.087.121-.058.114-.181-.005-.08.018-.144.085-.19.046-.032.105-.07.074-.13-.044-.083-.114-.018-.173-.01-.224.21-.42.46-.717.58-.117.046-.27.178-.272-.102 0-.07-.06-.092-.12-.066-.11.048-.195-.011-.284-.06.014.209.15.39.11.616zm.95.307c.118.168.229-.036.344-.01 0 .127-.191.116-.18.26.224.066.347-.218.564-.163.006.002.037-.058.04-.09.01-.1.052-.168.143-.222.074-.044.06-.363-.013-.379-.125-.027-.201-.073-.2-.214 0-.044-.056-.077-.106-.07-.062.01-.05.066-.057.11-.011.072-.033.173-.017.212.14.336-.114.273-.285.298a.365.365 0 00-.235.173l.002.095zm-2.56 2.768c-.15.062-.324.156-.395.357.576-.17 1.157-.312 1.684-.627-.422.145-.883.102-1.29.27z" fill="#4A4A4A"/></svg>