<svg width="44" height="64" fill="none" xmlns="http://www.w3.org/2000/svg"><path d="M43.331 21.65c0 11.957-13.904 41.36-21.665 41.36C14.228 63.01 0 33.607 0 21.65S9.7 0 21.666 0C33.63 0 43.33 9.693 43.33 21.65z" fill="#D70000"/><path d="M21.667 41.643c-11.033 0-20.009-8.968-20.009-19.994 0-11.024 8.976-19.993 20.009-19.993s20.008 8.969 20.008 19.994S32.7 41.642 21.667 41.642z" fill="#fff"/><path d="M21.666 2.262c10.716 0 19.402 8.68 19.402 19.388 0 10.707-8.686 19.388-19.402 19.388-10.715 0-19.402-8.68-19.402-19.388 0-10.708 8.687-19.388 19.402-19.388zm0-1.213c-11.367 0-20.615 9.242-20.615 20.6 0 11.36 9.248 20.601 20.615 20.601 11.368 0 20.616-9.241 20.616-20.6 0-11.36-9.248-20.6-20.616-20.6z" fill="#A00"/><path d="M25.906 40.572h-8.48C8.75 38.639 2.263 30.902 2.263 21.65c0-10.708 8.686-19.388 19.402-19.388 10.715 0 19.402 8.68 19.402 19.388 0 9.252-6.486 16.989-15.162 18.922z" fill="#D4D4D4"/><path d="M39.492 29.314c-3.39-.112-1.997.017-5.661.055-1.473.015-2.97-.195-4.412.038-1.216.195-2.41.458-3.712.335 1.076.583 2.147.41 3.185.305 1.175-.12 2.352.021 3.522-.14.105-.015.27.007.32.083.335.51.832.418 1.199.248 1.15-.53 2.277-.157 3.55-.11-.438.402-.84.168-1.203.282.154.051.35-.049.403.184-.26.347-2.108-.134-8.834.252-.392.022-.915-.067-1.112.266-.352.597-.705.503-2.36.503.681.181 1.404-.09 2.152.18-.117.145-.145.212-.176.213-1.172.06-2.345.116-3.518.17-.12.005-.257-.033-.273-.176-.028-.245.289-.1.332-.376-.324.019-.639-.048-.57-.52.13-.888.91-.3 1.33-.743-1.824.14-3.59.173-5.35.249-1.659.071-3.302.495-4.981.399-2.7-.155-4.012.527-8.274.652A19.287 19.287 0 012.264 21.65c0-2.202.368-4.318 1.045-6.291.12.035.224.11.3.248.258.479.488.352.786.25 2.558-.875 12.104-3.861 18.464-8.885.14-.11.279-.198.446-.131.805.322 1.416-.18 2.05-.588h.277c1.414 4.681 4.664 10.44 7.53 14.5.769 1.09 1.578 2.133 2.652 2.883.577.403 1.111.553 1.716.07.899-.719 1.631-1.61 2.038-2.741.246-.684.687-.364 1.036-.437.345-.073.337.319.39.589l.072.347.002.186c0 2.723-.563 5.313-1.576 7.665zM6.354 33.557c1.128-.169 2.282.082 3.414 0 .135-.01.307.036.3.233-.006.183-.17.226-.31.24-1.727.165-1.18.063-1.618.231.287.446-.083.42-.275.42-.186 0-.372.003-.558.009a19.56 19.56 0 01-.953-1.133zm1.423 1.629c2.453-.01 2.225-.134 2.06.355-.137.405.121.322 2.183.315.207 0 .458-.082.614.019 2.005 1.294 3.695-2.386 4.507.567.118.43.31.653.746.588 1.492-.223 2.994-.086 4.49-.117.162-.004.369-.083.482.155-.038.038-.069.097-.103.1-1.763.166-3.505.634-5.293.423-.337-.04-.446.03-.41.223.12.643-.284.645-.652.72-.928.193-1.814-.125-2.715-.268-.2-.032-.483.014-.476-.294.007-.277.132-.23 2.842-.457-.696-.135-1.397-.012-2.06.13-1.017.22-2.116-.055-3.144.101a19.498 19.498 0 01-3.07-2.56h-.001zm4.653 3.518c.491.019 1.07.036 1.756.048 1.611.029 3.217-.265 4.832-.11.177.018.506-.027.517-.094.12-.729.662-.461 1.012-.523.954-.167 1.917-.058 2.88-.033 2.024.052 4.05 0 6.075.002.232 0 .512-.1.676.198-.041.228-.204.202-.33.225-1.764.319-3.54.104-5.31.128-1.173.016-2.349-.313-3.585.016.208.087.441-.027.477.206.024.162-.17.206-.295.271-.706.368-1.171-.059-1.699.068-3.14.758-4.598-.441-5.664.153a2.84 2.84 0 01-.11.058 19.08 19.08 0 01-1.232-.613zm26.669-8.537c-.155.317-.319.628-.49.935a2.582 2.582 0 01-1.32-.408c.27-.25.996-.438 1.81-.527zm-5.475 6.751c-.255.2-.515.393-.78.58-2.503.163-2.324 1.003-5.274.164 1.276-.627 2.503-.21 3.58-.622-.208-.075-.481.086-.786-.212.894-.386 1.764-.274 2.585-.117.144.027.442.206.667.207h.008zm-3.456 2.163c-.258.126-.52.246-.783.36a.875.875 0 01-.05-.02c.2-.264.442-.288.648-.316l.185-.024zm-1.148.514a19.52 19.52 0 01-2.42.81c-.157.002-.314 0-.472-.01.141.01.277.019.41.026-.575.149-1.16.27-1.753.366-1.327-.218-2.693-.073-4.012-.364-1.59-.35-3.198-.356-4.807-.353-.093 0-.18-.032-.25-.258 2.386-.509 4.731.38 7.091.075-.643 0-.957.067-.976-.251-.015-.256.25-.372.456-.377 2.752-.063 2.696.169 2.988-.104 1.031-.965 2.051-.316 3.037.076.24.096.463.259.707.364zM4.23 22.866c.003.21.02.513.21.519.735.022 1.438.507 2.153.32 1.841-.486 2.668 1.556 4.526.874.26-.096.617-.044.88.075 1.854.836 2.935-.598 4.191-.152 2.27.805 3.557 1.177 5.893.407.717-.237.782-.786.646-1.35-.079-.328-.477-.641-.83-.707-1.969-.366-3.96-.556-5.934-.912-1.347-.243-2.704-.485-4.074-.618-2.118-.206-4.221-.605-6.338-.847-1.429-.163-1.351-.193-1.322 2.392zm16.235-12.604c-.445.18-.451.515-.453.858-.036 9.11.045 8.544-.258 8.871-.204-1.924-.079-6.063-.073-8.287 0-.277.126-.727-.256-.748-.33-.017-.24.419-.287.679-.147.832-.067 5.345-.136 7.168-.01.26.069.553-.235.762-.027-2.754.138-5.507-.029-8.417-.533.639-.373.432-.41 7.468-.002.187.085.405-.13.586-.238-.43-.223-.893-.18-1.341.18-1.822.055-3.649.083-5.473.003-.235.09-.597-.229-.631-.395-.043-.632.554-.626 1.038.017 1.156-.036 2.311.049 3.47.048.657.15 1.34-.033 2.094-.307-.507-.178-.55-.27-5.375-.004-.226.123-.598-.223-.614-.26-.013-.481.209-.484.546-.017 1.692-.34 3.378-.066 5.075.041.254.106.527-.075.798-.225-.301-.204-.618-.246-.916-.208-1.439.043-2.876-.003-4.314-.008-.23.091-.607-.239-.607-.309.001-.23.012-.207 5.815.001.328.136.526.435.59 1.356.295 2.71.594 4.065.895.358.08.527-.07.51-.481-.13-3.151.37-6.304.006-9.509zM16.19 26.018c-.312-.21-.765-.346-.936-.67-.239-.45-.468-.362-.78-.263-2.492.789-2.344-.6-3.985-.01-1.41.508-2.325-1.622-4.035-.89-.65.28-2.224-1.282-2.092.865.063 1.011.69.347 1.428.532 1.34.337 2.699.323 4.057.217.792-.062 1.291.42 1.312 1.305.01.459.095.915.122 1.374.026.437.23.603.594.525 2.253-.482 2.904.565 4.123-1.004.303-.39.22-.677-.037-.998-.517-.643-.487-.76.23-.983zm.051.577c.628 1.041.62 1.254-.103 2.159 1.674.073 3.317.189 4.966.035.526-.048.998-.054 1.41-.574.57-.722-.231-.403-2.27-1.515-.117-.064-.306-.16-.425.041-.055.314.456.534.153.82-.271.257-.554-.08-.823-.188-.103-.04-.193-.14-.273-.23-.673-.758-1.656-1.005-2.333-1.768-.145-.164-.432-.173-.653-.253.1.202.219.373.36.398.42.076.757.379.744.77-.014.417-.523.097-.753.305zm5.325-12.164h-.007c0-1.363.003-2.726-.004-4.089-.001-.188.059-.463-.212-.485-.228-.018-.4.153-.46.39-.145.58.088 4.293-.17 7.16-.072.815-.01 1.645-.011 2.468-.001.435.182.71.577.682.385-.026.282-.404.283-.662.008-1.821.005-3.643.005-5.465zM11.523 29.587c.86.48 1.688.95 2.694 1.02.885.06 1.6-.531 2.485-.48 1.654.099 3.318.006 4.977-.018.175-.002.396.083.572-.185-.736-.234-1.728.228-1.899-.26-.146-.418-.453-.37-.752-.37-1.498.006-2.998-.05-4.491.038-1.19.07-2.39-.09-3.586.255zm23.987-3.373c.177.397.381.44.581.503.208.066.358.375.263.456-.376.32-.126 1.114-.772 1.21-.135.02-.374.087-.349.302.035.285.287.181.455.194 1.312.1 2.41-.509 3.459-1.293.272-.203.446-.419.393-.816-.054-.41-.354-.428-.606-.523-1.117-.421-2.222.121-3.424-.033zm-2.929-.662c-.297-.463-.803-.35-1.174-.579-1.28-.79-2.714-.884-4.119-1.072-.807-.108-.91.056-.81.982.049.448-.164 1.153.158 1.286.73.302 1.457-1.438 2.43-1.103.68.234 1.418.256 2.047.65.539.335.998.221 1.468-.164zm-1.498.66c-.593-.443-1.229-.365-1.773-.614-.816-.372-1.258.384-1.645.614-.394.235-1 .341-1.005.895-.005.53.645.552.974.846.319.286.654.429.983.07.695-.757 1.538-1.26 2.465-1.811zm2.178-.138c-.625-.203-1.084.297-1.615.468-.865.28-1.652.773-2.337 1.414-1.166 1.09-1.26 1.138-2.188.224-.133-.13-.32-.311-.466-.059-.137.235-.095.518.133.67.192.13.273.092 3.36.104 1.132.005 1.88-1.933 3.021-2.623.049-.03.062-.13.092-.198zM21.806 14.676c0 5.986-.098 6.016.255 6.003.301-.012.198-.349.177-.554-.11-1.075.202-9.136.234-10.214.008-.262.114-.662-.242-.68-.466-.024-.423.664-.416 1.138.02 1.537.106 3.075-.008 4.307zM33.244 28.9c.91.309 1.482-.32 2.03-.939.349-.394.082-1.176-.351-1.432-.892-.527-1.534-.03-2.088.616-.349.407-.483 1.044-.39 1.586.058.338.533.066.8.169zM9.272 14.677l.047.103c4.62-1.654 5.862-1.877 12.727-6.076.255-.156.762-.3.57-.698-.133-.276-.513.125-.746.279-5.698 3.77-8.314 4.634-12.598 6.392zm5.763 1.609l.028-.002c0-.794.01-1.59-.007-2.384-.004-.227.128-.608-.199-.632-.333-.025-.531.268-.53.66.003 1.563.008 3.127.02 4.69.003.366.195.6.519.575.328-.026.273-.366.267-.604-.02-.768-.064-1.536-.098-2.303zm11.726 4.256l-.257.006c-.141-2.073-.286-4.146-.235-6.232-.15 2.288.114 4.565.115 6.85 0 .276-.018.645.346.618.34-.025.228-.39.229-.62.008-1.85.003-3.7.005-5.55 0-.435-.033-.848-.48-1.194l.276 6.122zM13.98 16.278h-.024c0-2.56.039-2.47-.17-2.513-.242-.05-.384.175-.398.423a36.596 36.596 0 00.021 4.29c.012.197.088.435.324.418.254-.017.242-.272.244-.47.008-.716.003-1.432.003-2.148zm-.94.285h-.045c0-2.35.06-2.397-.213-2.405-.21-.006-.356.13-.367.372a25.62 25.62 0 00.138 3.915c.02.192.117.367.313.328.213-.043.171-.267.172-.44.003-.59.001-1.18.001-1.77zm9.675 10.566c-1.595-1.172-3.42-1.424-5.328-1.552.54.443 1.192.633 1.623 1.186.105.134.283.164.315-.049.228-1.485 1.553.29 3.39.415zm5.2-10.252c-.176 1.633-.187 3.19-.156 4.75.004.203.005.48.23.491.269.014.211-.289.215-.472a302.2 302.2 0 00.044-3.845c.002-.304 0-.621-.333-.924zm.672 1.058c-.011 1.357.031 2.603-.124 3.838-.031.247.059.482.32.49.314.01.27-.29.27-.504 0-.97-.009-1.94-.019-2.909-.003-.318-.085-.602-.447-.915zm3.451 6.789c1.993 1.059 2.532 1.083 4.679 1.023-1.524-.47-3.059-.85-4.679-1.023zm-20.77-10.218c-.414.626-.294 1.125-.318 1.59-.032.637-.05 1.277-.056 1.916-.002.215.089.424.31.434.211.01.245-.194.252-.381a20.8 20.8 0 00-.187-3.559zM22.6 20.591c.205-2.553.227-5.114.056-7.864-.07 2.743-.244 5.298-.056 7.864zm4.631 1.165l.202-.01c.093-.232.088.502.148-5.436.002-.264-.019-.267-.376-.707.195 2.09-.01 4.124.026 6.153zm2.104-2.65c-.154 1.058.105 2.015.084 2.979-.003.153.048.331.215.34.23.01.235-.21.236-.385.003-.716.011-1.434-.014-2.15-.012-.314-.165-.576-.521-.784zm-18.706-2.75c0-1.225.035-1.33-.16-1.368-.545-.105-.338 1.76-.382 2.84-.005.134.024.271.153.305.423.112.396-1.338.389-1.776zm8.516 20.36c.488 0 .9.036 1.304-.008a19.555 19.555 0 013.083-.116c1.146.055 2.383.51 3.358-.545-.662-.384-7.185.082-7.745.668zm11.961-1.734c.307.062.649.108.929-.14.1-.088.252-.17.19-.363-.044-.14-.169-.173-.282-.175-1.326-.022-2.65-.38-3.977-.018-.129.035-.304.006-.321.209-.037.44.388.354 1.675.354.597.021 1.192.013 1.786.133zm-7.045 2.483c1.616-.1 3.232-.2 4.848-.308.17-.011.457.055.454-.204-.004-.331-.314-.22-.491-.215-5.468.186-5.306.153-5.577.44.218.31.492.303.766.286zm1.993-1.764a.594.594 0 00.36-.601c-.025-.341-.311-.209-.499-.21-.622-.002-1.246-.02-1.867.025-.308.021-.85-.239-.866.218-.011.333.54-.113.8.069-.393.237-.908.07-1.41.542 3.743 0 3.34.015 3.482-.042zm.005-1.663c.323-.016.407-.305.383-.612-.029-.366-.292-.369-.52-.32-.684.15-1.374.086-2.062.107-.2.006-.474-.123-.576.312.442.095.88-.18 1.393.017-.603.26-1.178-.016-1.682.374 1.03-.078 2.042.176 3.064.122z" fill="#4A4A4A"/></svg>