<svg width="44" height="64" fill="none" xmlns="http://www.w3.org/2000/svg"><path d="M43.331 21.65c0 11.957-13.904 41.36-21.665 41.36C14.228 63.01 0 33.607 0 21.65S9.7 0 21.666 0C33.63 0 43.33 9.693 43.33 21.65z" fill="#D70000"/><path d="M21.667 41.644c-11.034 0-20.009-8.97-20.009-19.994 0-11.025 8.976-19.994 20.009-19.994s20.008 8.969 20.008 19.994S32.7 41.644 21.667 41.644z" fill="#fff"/><path d="M21.666 2.262c10.716 0 19.402 8.68 19.402 19.388 0 10.707-8.686 19.388-19.402 19.388-10.715 0-19.402-8.68-19.402-19.388 0-10.708 8.687-19.388 19.402-19.388zm0-1.213c-11.367 0-20.615 9.242-20.615 20.6 0 11.36 9.248 20.601 20.615 20.601 11.368 0 20.616-9.241 20.616-20.6 0-11.36-9.248-20.6-20.616-20.6z" fill="#A00"/><path d="M41.068 21.65c0 10.707-8.686 19.388-19.402 19.388-10.715 0-19.402-8.68-19.402-19.388 0-10.708 8.687-19.388 19.402-19.388 10.716 0 19.402 8.68 19.402 19.388z" fill="#D4D4D4"/><path d="M29.596 26.961c0-.157.008-.258-.003-.354-.025-.29-.126-.358-.409-.294-.064.015-.129.029-.186.061-.376.186-.752.38-1.125.573-.043.021-.1.04-.1.1.003.072.068.086.122.104.186.068.38.118.576.132.144.015.262.068.337.186.133.208.244.233.344-.021a.133.133 0 01.118-.079c.312-.018.387-.193.326-.408zm11.42-3.896c-.725 10.047-9.111 17.973-19.35 17.973-10.338 0-18.787-8.08-19.37-18.265.66-.574 1.197-1.048 1.197-1.077-.036-.952.061-1.898.186-2.843.05-.39.835-1.13.86-1.342.122-1.056.494-2.037.917-3 .226-.522.62-.887 1.121-1.145.133-.068 1.415-.433 1.448-.44 1.142-.1 2.145.297 3.112.844 1.086.613 1.91 1.44 2.232 2.685.065.247 1.197 1.894 1.315 1.8.29-.232.594-.447.902-.658.857-.587 4.013-.659 4.396-.587 1.246.24 2.085 1.056 2.837 1.997.108.14.172.297.226.466.2.623.422 1.235.698 1.829.154.336.365.437.724.333.164-.05 1.838-.698 2.59-.54.501.103 1.01.182 1.519.232.551.05.938.329 1.232.77.165.246.322.5.501.74.169.222 2.067-.368 2.035-.55a9.566 9.566 0 01-.154-2.073c.014-.258.022-.534.179-.738.502-.633 1.068-1.185 1.906-1.335.543-.096 3.953-.176 6.433-.22.148.756.252 1.528.308 2.314v2.83zm-22.363.313c.458.129.92.14 1.382.018-.462-.093-.92-.136-1.382-.018zm1.898-.44c-.018-.015-.042-.022-.064-.036-.699-.415-1.422-.408-2.164-.133a.778.778 0 00-.476.462.55.55 0 00.386-.057c.735-.34 1.466-.337 2.193.025.1.05.258.125.308.025.053-.104-.086-.208-.183-.286zm.939-2.316c-.183-.741-.928-1.278-1.687-1.228-.15.01-.244.057-.208.226-.011.203.086.372.161.544.068.16-.036.408.157.486.17.069.377.04.567.05.114.004.232.008.347-.003a.89.89 0 01.48.09c.054.028.115.096.176.028.043-.054.025-.125.007-.193zm16.467 1.972c-.355-.537-1.164-1.12-1.977-.848-.316.103-.62.229-.917.376-.308.153-.366.325-.172.608.157.225.294.458.422.698.069.125.158.186.366.157.1-.032.311.033.422-.121.13-.18.312-.23.491-.244.305-.028.595-.132.889-.168.265-.032.283-.311.501-.358.043-.007-.003-.071-.025-.1zm-28.21-6.34c-.089-.214-.254-.35-.45-.472-.7-.43-1.44-.48-2.218-.279-.115.032-.13.09-.09.179a.47.47 0 00.348.286c.254.054.312.247.34.459a1.14 1.14 0 01-.007.247c-.032.232.097.318.3.318.09.004.18-.021.27-.032.465-.06.92-.183 1.393-.172.154.004.297.097.473.036-.133-.19-.269-.365-.359-.57zm19.85 10.707c0-.157.007-.258-.004-.354-.025-.29-.126-.358-.409-.294-.064.015-.129.029-.186.061-.376.186-.752.38-1.125.573-.043.021-.1.04-.1.1.003.072.068.086.122.104.186.068.38.118.576.132.144.015.262.068.337.186.133.208.244.233.344-.021a.133.133 0 01.118-.079c.312-.018.387-.193.326-.408zm-8.107-6.34c-.183-.74-.928-1.277-1.687-1.227-.15.01-.244.057-.208.226-.011.204.086.372.161.544.068.16-.036.408.157.486.17.069.377.04.567.05.114.004.232.008.347-.003a.89.89 0 01.48.09c.054.028.115.096.176.028.043-.053.025-.125.007-.193zm-.939 2.317c-.018-.015-.042-.022-.064-.036-.699-.415-1.422-.408-2.164-.132a.778.778 0 00-.476.461.55.55 0 00.386-.057c.735-.34 1.466-.337 2.193.025.1.05.258.125.308.025.053-.104-.086-.208-.183-.286zm-1.898.44c.458.129.92.14 1.382.018-.462-.093-.92-.136-1.382-.018zm-8.906-7.123c-.089-.215-.254-.35-.45-.472-.7-.43-1.44-.48-2.218-.28-.115.032-.13.09-.09.18a.47.47 0 00.348.286c.254.053.312.246.34.458a1.14 1.14 0 01-.007.247c-.032.232.097.318.3.318.09.004.18-.021.27-.032.465-.06.92-.182 1.393-.172.154.004.297.097.473.036-.133-.19-.269-.365-.359-.57zm28.21 6.34c-.355-.538-1.164-1.121-1.977-.85-.316.104-.62.23-.917.377-.308.153-.366.325-.172.608.157.226.294.458.422.698.069.125.158.186.366.158.1-.033.311.032.422-.122.13-.18.312-.23.491-.243.305-.03.595-.133.889-.169.265-.032.283-.311.501-.358.043-.007-.003-.071-.025-.1zM11.8 21.75c-.046.017-.097.032-.14.05-.447.193-.62.146-.913-.247-.032-.04-.057-.083-.093-.115-.37-.372-.473-.394-.924-.136a1.92 1.92 0 01-1.508.2c-.169-.046-.34-.071-.505-.125a1.977 1.977 0 00-1.383.029c-.136.05-.305.157-.405-.065-.097-.214-.025-.515.154-.619.172-.1.355-.175.527-.28.086-.05.222-.107.193-.221-.021-.093-.16-.093-.258-.104-.146-.014-.297-.021-.444-.032-.161-.01-.161-.079-.068-.183.219-.236.512-.308.81-.325.369-.025.741-.008 1.117-.04-.372-.222-.78-.225-1.185-.247-.09-.003-.219.08-.265-.09-.047-.16.096-.168.168-.232.043-.04.107-.06.136-.107.161-.272.355-.476.713-.419.057.01.097-.057.097-.122.007-.09-.05-.136-.122-.168a2.295 2.295 0 00-.781-.222c-.2-.021-.398-.04-.591-.079-.297-.053-.301-.071-.215-.354l.444-1.496a1.99 1.99 0 00.043-.194c.029-.136-.021-.2-.168-.204a3.17 3.17 0 00-.663.075c-.09.018-.168.036-.132-.11.286-1.181.906-1.8 2.11-2.112.02-.004.05.003.075.003a.29.29 0 01.197-.028c.118-.004.233-.011.35-.015h.047c.118-.018.233-.036.351 0a.582.582 0 01.326.09c.52.075 1.032.165 1.494.43.176.1.226.26.211.415-.075.826.276 1.489.77 2.108.119.147.115.34.154.515.094.437.183.874.18 1.325-.004.179-.061.311-.22.415a3.62 3.62 0 00-.504.397c-.2.194-.208.358-.021.563.254.282.526.547.791.819.233.236.362.508.348.845-.011.204-.1.347-.298.412zm10.589.877c-.05.114-.147.15-.254.175-.194.046-.287.165-.301.369-.014.221-.05.443-.075.665-.086.677-.53 1.053-1.215 1.013-.777-.043-1.555-.096-2.332-.14a1.26 1.26 0 00-.419.022c-.376.1-.716.007-1.06-.132-.488-.194-.781-.537-.86-1.06-.054-.358-.111-.72-.097-1.084.018-.398-.075-.795-.003-1.189.018-.096.032-.196.071-.29.076-.193.176-.304.43-.221.691.225 1.386.2 2.074-.04.079.3.061.594-.007.884-.086.369.161.473.408.512.42.072.831.072 1.243-.05.187-.054.33-.315.223-.494a7.662 7.662 0 00-.541-.77c-.108-.136-.276-.103-.416-.05-.193.072-.29.004-.362-.175a1.82 1.82 0 01-.136-.598 1.61 1.61 0 00-.053-.369c-.044-.186-.162-.3-.37-.297-.214.007-.43.011-.644.015-.133 0-.276.035-.394-.004-.416-.129-.781-.057-1.147.23-.043-.201.004-.312.115-.423.426-.412.91-.774 1.218-1.3a.42.42 0 01.344-.211c.473-.04.942-.086 1.4.075.215.072.42.172.573.34.416.444.91.791 1.408 1.131.28.194.437.437.498.766.068.383.165.76.348 1.107.06.114.121.236.286.24.133.003.154.114.172.21a1.92 1.92 0 01-.125 1.142zm2.41.662c.166-.226.28-.487.466-.699.108-.117.215-.19.387-.175.677.058 1.319-.04 1.888-.444.172-.121.305-.096.44.061.098.115.22.204.327.304.308.301.655.527 1.096.588.3.039.487.21.641.472.358.598.688 1.2.767 1.926-.39-.437-.92-.623-1.422-.863-.008-.003-.015-.01-.022-.01-.487-.008-.913-.384-1.433-.201-.287.1-.59-.004-.885.014-.648.04-1.286.122-1.873.54.01-.12.014-.178.025-.235.057-.308-.029-.544-.305-.72-.286-.182-.297-.286-.096-.558zm5.718 4.81c-.15.122-.305.069-.444.004-.942-.422-1.928-.29-2.905-.236a1.002 1.002 0 00-.466.154.626.626 0 00-.269.716c.097.304.39.376.573.11.208-.31.53-.39.828-.408.344-.017.705-.067 1.05.104.16.083.372.058.558.093.104.022.222.047.187.204-.033.136-.104.197-.248.176-.394-.065-.784-.136-1.186-.111-.178.01-.354.04-.562.129.527.146 1.021.104 1.501.168.394.054.777.476.756.874-.018.254-.168.379-.44.332-.502-.086-.993-.26-1.52-.207-.197.021-.393.025-.594.035a1.133 1.133 0 01-1.171-.826c-.058-.194-.208-.29-.362-.408-.61-.484-1.222-.97-1.59-1.683a.724.724 0 00-.047-.09c-.143-.282-.42-.547-.373-.87.061-.432.301-.819.545-1.184.114-.175.265-.236.45-.06.112.107.248.171.33.321.087.162.27.194.441.14.487-.147.967-.168 1.462.004.39.136.713.017.942-.337.028-.05.072-.093.11-.136.38-.397.739-.23.986.172.029.046.05.104.064.157.076.269.255.401.53.39.165-.007.28.065.373.197.162.24.394.416.591.623.427.437.38 1.081-.1 1.453zm8.733-2.197c-.272.368-.458.784-.673 1.185-.05.093-.093.19-.143.29-.094-.086-.086-.204-.14-.294-.111-.19-.247-.207-.387-.036-.036.043-.079.097-.086.147-.029.361-.23.701-.154 1.078.064.304-.157.48-.333.65-.143.137-.219-.114-.362-.135-.086.172-.193.326-.433.2-.086-.046-.147.026-.208.09-.147.157-.641.225-.813.1-.111-.079-.018-.193-.014-.293 0-.04.021-.09-.026-.108-.021-.01-.06.004-.09.015-.06.028-.12.157-.175.085-.078-.118-.258-.2-.226-.365.05-.24.097-.494.32-.658.046-.033.103-.06.139-.104.315-.365.62-.741 1.046-1.006-.44.057-.874.079-1.268.294-.13.068-.316.204-.401.071-.097-.154.118-.261.232-.347.283-.211.599-.35.968-.326l.347-.01c.133 0 .265-.004.394-.004h.05c.018-.068-.028-.079-.082-.093-.53-.122-1.06-.147-1.59.036-.09.032-.223.15-.287.04-.08-.133-.08-.33.057-.438.258-.196.44-.472.71-.655.128-.09.21-.24.404-.254.194-.014.358.047.53.108.23.082.455.182.695.279-.14-.33-.616-.655-.988-.705-.262-.04-.516-.104-.735.136-.053.06-.204.046-.311.05-.312.01-.627.01-.942.021-.283.007-.327-.032-.28-.311.097-.616.3-1.2.627-1.736.079-.129.046-.183-.032-.308-.19-.315-.42-.219-.674-.147-.272.079-.505.24-.741.373-.061-.08-.032-.133-.015-.187.054-.157.126-.307.162-.468.207-.967.86-1.583 1.63-2.127a1.935 1.935 0 011.182-.365c.404.004.81-.004 1.21.082.548.122.878.577.817 1.128-.025.24-.01.48.01.72.051.522.43.808.8 1.084.11.082.15.165.172.272.107.555.222 1.106.361 1.654a1.5 1.5 0 01-.254 1.292zm-3.27-4.156c-.316.104-.62.229-.917.376-.308.154-.366.325-.172.608.157.226.294.458.422.698.069.125.158.186.366.158.1-.033.311.032.422-.122.13-.18.312-.229.491-.243.305-.03.595-.133.889-.169.265-.032.283-.311.501-.358.043-.007-.003-.071-.025-.1-.355-.537-1.164-1.12-1.977-.848zm-6.387 4.86c-.025-.289-.126-.357-.409-.293-.064.015-.129.03-.186.061-.376.187-.752.38-1.125.573-.043.021-.1.04-.1.1.003.072.068.086.122.104.186.068.38.118.576.132.144.015.262.069.337.187.133.207.244.232.344-.022a.133.133 0 01.118-.079c.312-.017.387-.193.326-.408 0-.157.008-.257-.003-.354zm-9.79-7.212c-.15.01-.244.058-.208.226-.011.204.086.372.16.544.07.16-.035.408.158.487.169.068.377.04.567.05.114.003.232.007.347-.004a.89.89 0 01.48.09c.053.028.115.096.175.028.044-.053.026-.125.008-.193-.183-.741-.928-1.278-1.688-1.228zm.748 3.544c-.018-.014-.043-.022-.064-.036-.699-.415-1.422-.408-2.164-.132a.778.778 0 00-.476.461.55.55 0 00.386-.057c.735-.34 1.466-.337 2.193.025.1.05.258.125.308.025.053-.104-.086-.207-.183-.286zm-1.898.44c.458.129.92.14 1.382.018-.462-.093-.92-.136-1.382-.018zm-9.357-7.595c-.698-.43-1.44-.48-2.217-.28-.115.032-.13.09-.09.18a.47.47 0 00.348.286c.254.053.311.246.34.458a1.14 1.14 0 01-.007.247c-.032.232.096.318.3.318.09.004.18-.021.27-.032.465-.06.92-.182 1.393-.172.154.004.297.097.473.036-.133-.19-.27-.365-.359-.57-.09-.214-.254-.35-.451-.472z" fill="#4A4A4A"/></svg>