<svg width="44" height="64" fill="none" xmlns="http://www.w3.org/2000/svg"><path d="M43.331 21.65c0 11.957-13.904 41.36-21.665 41.36C14.228 63.01 0 33.607 0 21.65S9.7 0 21.666 0C33.63 0 43.33 9.693 43.33 21.65z" fill="#D70000"/><path d="M21.667 41.643c-11.034 0-20.009-8.968-20.009-19.994 0-11.024 8.976-19.993 20.009-19.993s20.008 8.969 20.008 19.994S32.7 41.642 21.667 41.642z" fill="#fff"/><path d="M21.666 2.262c10.715 0 19.402 8.68 19.402 19.388 0 10.707-8.686 19.388-19.402 19.388-10.715 0-19.402-8.68-19.402-19.388 0-10.708 8.687-19.388 19.402-19.388zm0-1.213c-11.367 0-20.615 9.242-20.615 20.6 0 11.36 9.248 20.601 20.615 20.601 11.367 0 20.616-9.241 20.616-20.6 0-11.36-9.248-20.6-20.616-20.6z" fill="#A00"/><path d="M41.068 21.65c0 10.707-8.686 19.388-19.402 19.388-10.715 0-19.402-8.68-19.402-19.388 0-10.708 8.687-19.388 19.402-19.388 10.716 0 19.402 8.68 19.402 19.388z" fill="#D4D4D4"/><path d="M25.377 30.777c-1.058.191-2.075.303-3.095.84-.886.466-1.822.9-2.746 1.449-.12-.753.177-1.313.855-1.662.413-.213.57-.46.58-.874.009-.391.08-.792.201-1.17.584-1.833-.097-3.462-.973-5.062-.084-.153-.192-.33-.412-.292-.224.037-.236.24-.258.407-.08.612.078 1.187.376 1.729.657 1.191.67 2.46.587 3.741-.015.223.001.5-.294.572-.29.07-.46-.156-.583-.352-.327-.517-.624-1.05-.952-1.565-.127-.197-.317-.381-.605-.332-.223.038-.232.24-.265.407-.058.298.015.738-.378.797-.52.078-.358-.51-.624-.719-.046-.037-.08-.087-.119-.131-.435-1.285-1.39-2.143-2.782-2.559-.838-.25-1.446-.668-1.815-1.375-.28-.538-.54-1.084-.814-1.625-.143-.283-.286-.547-.611-.729-1.875-1.048-5.538-.81-7.295.505.505.253 1.056.118 1.576.18.813.098 1.361.415 1.41 1.222.01.196.06.393.122.583.325 1.013 1.504 1.517 3.105 1.369 1.26-.117.726-.968.831-1.563.013-.075.065-.145.199-.428.276.316.464.568.693.784.498.47.93 1.026 1.638 1.26.905.298 1.542.848 2.043 1.565.135.193.2.52.604.419.477-.119.757.198 1.091.396.141.678.392 1.308.914 1.836.324.327.526.68.398 1.16-.115.435.324.71.517 1.057.072.127.183.258.092.393-.123.18-.325.123-.508.077-.624-.154-1.135-.487-1.62-.85-.461-.345-.895-.717-1.36-1.056-.736-.535-1.421-.957-2.41-.247-.703.505-1.03.265-1.003-.557.015-.454.013-.906-.168-1.342-.157-.38-.4-.636-.916-.564.832.63.91 1.337.196 2.025-.339.327-.912.581-.043.95.149.063.18.313.067.463-.114.154-.282.043-.422-.011-1.303-.502-2.62-.978-3.903-1.517-.81-.34-1.485-.857-1.923-1.583-.263-.435-.261-.756.413-.821.5-.05 1-.11 1.495-.196.212-.037.437-.136.413-.39-.019-.199-.204-.264-.387-.324-.484-.16-.989-.171-1.494-.162-.784.015-1.528-.056-2.153-.46a19.41 19.41 0 01-.413-7.478c.27.028.513-.007.744.01.384.028.935.028.919.41-.034.811.547.589 1.014.628 1.034.086 2.07.165 3.101.274 2.093.222 4.18.565 6.241-.208.49-.184 1.068-.123 1.582.044 1.074.35 2.175.309 3.272.188 1.26-.138 2.507-.1 3.77-.014.833.056 1.648.437 2.514.145.321-.108.63-.15.387-.556-.346-.578-.194-1.223-.289-1.835-.032-.205-.033-.408.213-.512.223-.095.487-.056.61.1.558.707 1.339 1.05 2.245 1.238.133.027.276.162.342.28.277.494.752.529 1.281.516.472-.01.944.027 1.416.043.314.357.586.738.75 1.17.089.234.236.516-.016.715-.26.205-.547.032-.773-.11-.958-.607-2.242-.54-3.155-1.247-.158-.123-.41-.151-.632-.08-.212.07-.429.174-.467.381-.039.212.212.242.368.323 1.587.826 3.277 1.258 5.128 1.196 2.204-.075 4.4.001 6.562.461.25.053.627.183.748-.133.118-.306-.177-.525-.45-.669a2.229 2.229 0 00-.704-.23c-2.523-.36-4.95-1.04-7.36-1.775-1.404-.58-2.679-1.352-3.97-2.103-.557-.323-1.21-.477-1.866-.582-2.675-.426-5.346-.135-8.005.105-2.668.241-5.23.072-7.593-1.165-.814-.427-1.561-.958-2.376-1.384-.511-.268-1.074-.591-1.924-.087 1.54.204 2.486 1.002 3.484 1.723a9.059 9.059 0 003.64 1.55c.405.077.819.143 1.12.413.402.359.424.77.007 1.118-.437.365-.888.256-1.218-.142-.177-.213-.25-.497-.423-.86-.419.365-.805.685-1.17 1.023-.393.367-.763.508-1.14-.01-.123-.17-.23-.331-.518-.152-1.475.918-2.977.489-4.422-.033-.935-.338-1.85-.596-2.935-.52a19.25 19.25 0 011.521-5.038c1.886-.061 3.733.095 5.504.855.467.2.931.435 1.133.86.267.564.758.699 1.34.766.562.065 1.13.11 1.682.22 1.59.317 3.089.308 4.77.069 3.603-.514 7.228-.433 10.608 1.404 4.143 2.252 4.219 2.133 9.061 2.27.817.022 1.629.147 2.445.204.173.012.324.036.456.076a19.446 19.446 0 01-.398 5.496c-.154-.114-.396-.116-.602-.107-.804.034-1.338-.347-1.867-.83-.67-.612-1.17-1.385-2.16-1.792.25.8.614 1.525.218 2.376-.371.798.065 1.287 1.037 1.369.981.082 1.938-.107 2.895-.25a1.86 1.86 0 00.315-.072c-1.838 7.145-7.649 12.697-14.94 14.165.035-.073.097-.159.19-.259.32-.34.46-.753.505-1.173.083-.761.49-1.3 1.15-1.77.977-.693 1.01-1.461.093-2.228-.894-.747-2.093-1.154-2.87-2.053-.202-.234-.585-.145-.895-.056-.27.077-.535.185-.811.223-.488.067-1.012.049-1.195-.446-.184-.497.3-.695.694-.867.99-.43 1.993-.84 2.99-1.257 1.884-.63 3.708-1.368 5.349-2.427-1.912.58-3.98.888-5.341 2.434zM3.332 28.006a8.71 8.71 0 011.751 2.02c.105.167.27.334.454.425 1.535.763 2.557 1.981 3.633 3.172.468.518 1.07 1.31 1.895.225.164-.217.533-.069.79.05.428.2.755.514 1.056.84.778.84 1.726 1.484 2.777 2.022.932.477 1.83.996 2.482 1.803.485-.663.442-.645-.504-2.533-.416-.83-1.213-1.438-1.557-2.319 1.284.022 2.952 1.57 3.07 2.817.062.654.01 1.301-.23 1.93-.103.266-.258.609.177.71.454.105.62-.266.643-.572.056-.733.034-1.471.06-2.207.008-.213-.083-.492.208-.602.267-.1.475.093.67.228 1.192.825 1.28 1.651.266 2.717a6.935 6.935 0 01-3.18 1.919c-6.757-1.368-12.24-6.245-14.461-12.645zm21.008 1.11c-1.092-.912-1.439-1.988-1.62-3.121-.056-.351-.156-.645-.513-.854-.5-.293-.788-.734-.855-1.263-.068-.531-.657-.736-.85-1.193-.309-.729-.92.039-1.463-.382.262.624.622.9.994 1.151.678.457 1.183.99 1.307 1.784.04.264.235.523.41.754.441.58.655 1.2.641 1.909-.014.702.922 1.334 1.949 1.215zm.96-6.02c.204 1.749.406 3.476.322 5.221-.011.224.174.36.44.346.264-.015.38-.173.406-.393.073-.602-.076-1.186-.209-1.766-.262-1.145-.383-2.321-.958-3.407zm-7.314 2.058a5.3 5.3 0 00-1.452-2.053c-.298-.263-.644-.449-1.074-.462-.444-.013-.744.137-.403.535.763.89 1.667 1.64 2.93 1.98zm6.015-6.298c.099-.586-.685-1.149-1.587-1.155a5.255 5.255 0 00-1.12.14 6.942 6.942 0 01-3.267-.071c-.3-.08-.613-.146-.923-.165-.374-.021-.732.091-.742.486-.009.351.323.47.657.478.49.013.946.06 1.254.459.313.405.702.526 1.226.31.389-.16.802-.07 1.209-.009.59.09 1.182.16 1.783.24.54-.189 1.371.109 1.51-.713z" fill="#4A4A4A"/></svg>