<svg width="44" height="64" fill="none" xmlns="http://www.w3.org/2000/svg"><path d="M43.331 21.65c0 11.957-13.904 41.36-21.665 41.36C14.228 63.01 0 33.607 0 21.65S9.7 0 21.666 0C33.63 0 43.33 9.693 43.33 21.65z" fill="#D70000"/><path d="M21.666 41.644c-11.033 0-20.008-8.97-20.008-19.994 0-11.025 8.976-19.994 20.008-19.994 11.034 0 20.009 8.969 20.009 19.994S32.7 41.644 21.666 41.644z" fill="#fff"/><path d="M21.666 2.262c10.716 0 19.402 8.68 19.402 19.388 0 10.707-8.686 19.388-19.402 19.388-10.715 0-19.402-8.68-19.402-19.388 0-10.708 8.687-19.388 19.402-19.388zm0-1.213c-11.367 0-20.615 9.242-20.615 20.6 0 11.36 9.248 20.601 20.615 20.601 11.368 0 20.616-9.241 20.616-20.6 0-11.36-9.248-20.6-20.616-20.6z" fill="#A00"/><path d="M41.068 21.65c0 10.707-8.687 19.388-19.402 19.388-10.716 0-19.402-8.68-19.402-19.388 0-10.708 8.686-19.388 19.402-19.388 10.715 0 19.402 8.68 19.402 19.388z" fill="#D4D4D4"/><path d="M5.371 15.851v-4.727A19.478 19.478 0 017.13 8.812a55.63 55.63 0 01.739 3.237c.375 1.906.753 3.812.773 5.768.005.436-.014.938.684.924 1.848-.038 3.694-.386 5.549.02.49.108 1.113-.11.864.962 1.428-2.874 1.677-2.916 1.052-3.571-1.824-1.91-3.622-3.843-5.421-5.775-.211-.226-.47-.435-.55-.803.2-.022-.409-.536 7.237 5.395.83.643.992.12 2.955-.465 1.247-.371.965.534.58-8.041-.01-.248-.122-.649.183-.7.332-.058.316.36.375.598 1.884 7.654 1.61 8.07 2.901 8.49.502.163.458.186 4.065 2.467-1.278-1.888-2.591-1.576-1.755-2.43 6.305-6.442 5.81-6.17 6.08-6.027.01.237-.151.384-.259.551-5.594 8.66-4.592 5.928-2.887 8.297.506.704.378.465 6.936-1.462.31-.09.62-.228.959-.15v.491c-1.952.941-3.905 1.878-5.855 2.825-1.003.486-.913.451-.577 1.721.197.744.216.538 6.432.981v.614c-.32.392-.468.456-5.455.755-1.455.086-.58 3.158-1.113 5.148-.039.144.11.838.914 5.065.309 1.629-.723 1.21-.533 2.591.084.604.206 1.116.337 1.554a19.42 19.42 0 01-2.568 1.428c-.478-.807-.885-1.166-.981-1.91-.027.982-.02 1.74.012 2.324-1.167.462-2.39.813-3.655 1.042a.999.999 0 01.139-.25c.393-.527.266-.89-.227-1.315-1.294-1.115-6.82-5.85-5.114-5.76 1.024.054 2.25.212 3.49-.033.346-.068.72-.134.748-.587.033-.525.316-.667.844-.51-.876-.726-1.985-.37-2.955-.805.492-.378 1.036-.209 1.505-.449-.697-.526-1.346-.457-2.024-.023.314-.48.554-.982 1.212-.943-.098-.27-.263-.473-.547-.533-.22-.048-.41-.125-.414-.373-.005-.336.292-.276.494-.328.854-.222.993-.381.976-1.276-.015-.865.118-1.712.257-2.56.079-.481.349-.736.85-.819.8-.132 1.595-.252 2.494.059-.366-.723-2.023-1.696-3.54-2.746-.267-.185-.422.023-.564.19-1.507 1.757-4.071 2.22-3.8 4.124.836-1.072 1.846-.558 1.296-1.15-.09-.097.073-.15.177-.162 1.115-.132 1.483.265 1.347 1.353-.062.492-.261.59-.683.45-.901-.301-1.596.5-2.456.466-.152-.006-.289.212-.373.383-.454.923.348 1.804-.077 2.473-.197.309-.454.582-.484.976-.03.403.049.642.496.356.307-.196.457-.114.589.22.965 2.45.216 5.8-.035 5.7-.8-.317-.021.567-.434 1.035-.275-.137-.173-.463-.393-.64-.208.79-.134 1.603-.494 2.384-.603-.763.002-1.284.023-2.3.011-.558.451-1.197-.239-1.765.121 1.293-.315 3.043-.92 4.721a19.196 19.196 0 01-.578-.176c.063-.14.125-.283.182-.434-.102.148-.194.281-.283.401a18.757 18.757 0 01-.56-.192c.44-.793 1.604-2.108.971-6.196-.06-.395-.266-.71-.66-.806-.388-.094-.542.303-.786.495-.204.161-1.171 4.417-1.555 4.527-.188-.31-.013-.649-.109-.981l-.395 1.834a24.1 24.1 0 01-.498-.274l.128-.293-.158-.12-.154.305a19.484 19.484 0 01-4.065-3.18 1.69 1.69 0 00-.002-.378l-.157.216a19.532 19.532 0 01-.915-1.029c.107-.141.211-.287.332-.414.573-.602.744-1.448 1.246-2.072 1.385-1.72 1.412-2.585 1.693-3.554l-.22-.124c-.79 1.19-1.52 2.432-2.616 3.364.28-1.076 1.101-1.832 1.607-2.78 1.627-3.046 1.753-1.621 1.99-4.084-1.325.967-1.597 2.532-2.711 3.502-1.106.962-1.505 2.448-2.378 3.601.116-.995.626-1.828 1.168-2.586 1.109-1.553 2.909-5.071 3.303-6.01.155-.368-.238-.446-.329-.3-.298.476-.856.715-1.062 1.295-.303.854-.857 1.51-1.78 1.78-.352.102-.758-.128-.746-.488.036-1.125-.216-2.24-.166-3.349.032-.716-.403-1.433.007-2.144.065-.113.026-.343-.13-.364-.575-.078-.24-.365-.142-.575.374-.812-.228-.662-.106-1.099.178-.635-.013-1.204-.306-1.756zm7.532 23.1c.192-.483.424-.95.776-1.368.11.172.1.034.049.504l.003-.006c-.157.349-.314.698-.467 1.049a19.48 19.48 0 01-.36-.179zm13.094-17.915c.295.222.075 1.072.5.912.154-.057.426-.016.35-.365-.106-.48.299-.835.394-1.29.295.46.221 1.013.419 1.51.137-.247-.058-.521.173-.754.373.25.341.762.656 1.058.07-.286-.423-.62.15-.818.189-.066 0-.248-.09-.337-2.093-2.097-4.41-2.336-7.675-1.73-.615.115-1.27.138-1.676.773.27-1.043.037-1.98-.324-2.895-.048-.123.061-.468-.276-.323-.457.196-.001.659.369 1.647.276.737.014 1.519-.585 1.799-.13-.64.065-1.383-.523-1.91-.163.14-.112.244-.072.332.196.424.129.877.178 1.319.055.489-.59.589-.479 1.102.037.171-.207.06-.28-.067-.137-.237-.236-.514-.65-.495.186.386.677 1.228.432 1.43-.217.18-.293-.283-.532-.273-.037.002-.073.02-.132.038.03.077.088.153.082.223-.028.332.8.769-.115 1.001-.028.007-.051.161-.025.226.303.74.166 1.412-.115 2.155-.27.712-.28 1.522-.395 2.29-.019.126-.082.29.112.36.438-.29.546-1.763 1.157-2.544.068-.088.039-.212-.039-.283-1.052-.961 2.754-2.484 4.877-4.47.307-.289.24-.81.673-1.062-.051.565.223 1.059.744 1.153.382.07.848.585 1.21-.088.106.16.266.299.294.462.099.552.6.482.918.528.298.044.03-.438.295-.614zm-12.46 3.008v.066c-3.86 0-1.29-.077-1.493 2.697-.025.346-.007.696.01 1.043.103 2.145.95 2.196 2 3.715.19.273.328.269.496.005 1.676-2.623 1.919-2.794 1.472-3.01-.738-.36-.555-.787-.276-2.692.116-.793.126-1.879-.675-1.832-.51.03-1.022.008-1.534.008zm1.136-2.04c.647-.072.677-.492.726-.938.072-.665.05-.556-5.827-1.344-.234-.031-.553-.193-.698.009-.186.257.095.527.193.785.022.056.052.125.1.152.641.382.957 1.05 1.411 1.596.507.61.634.122 4.095-.26zm10.85 9.729c.147-.433-.192-.748-.067-1.088.371-1.018.696-2.058 1.316-2.965.37-.541.313-.692-.312-.877-.543-.161-1.114-.005-1.644-.141-.516-.133-.552.081-.522.489.115 1.547.69 2.982 1.073 4.464.011.04.083.065.155.118zm-8.074-.157l-.164-.003c-.092.765-.392 2.412-.054 3.124.28.588.327.612.832.255.132.205-.12.466.092.68.358-1.588.25-3.073-.269-3.62-.205.333.025.77-.282 1.15-.215-.557-.02-1.094-.155-1.586zm.321-14.66c1.889-1.383 4.04-1.823 6.42-1.72-1.859-1.046-4.865-.503-6.42 1.72zm4.16-.798c-.2.301.08.75-.351.916-.666.254-.577.796-.563 1.323.006.248.05.471.368.42.278-.043.704.1.752-.33a6.18 6.18 0 00-.205-2.33zm-9.76 18.97a28.864 28.864 0 00-.132-.103c-.281.253-.587.485-.836.767-.188.213-.9.398-.124.797.126.065.094.696.094 1.289.502-.934.696-1.862.999-2.75zm1.562 2.993c.016.097-.001.247.054.28.153.095.201-.067.252-.167.615-1.217 1.392-3.34.73-4.513-.015 1.558-.29 3.038-1.04 4.406l.004-.006z" fill="#4A4A4A"/></svg>