   <svg
    
          viewBox="0 0 1503 400"
          fill="none"
          xmlns="http://www.w3.org/2000/svg"
        >
          <path
            d="M167.621 399.674C166.891 399.921 166.078 399.921 165.348 399.674C105.255 379.241 67.594 333.466 35.4966 286.999C3.19557 240.244 0.889514 196.68 0.274323 164.871C-0.342904 132.994 0.274323 37.3333 0.274323 37.3333L61.611 23.9008V45.8832L128.446 30.8796V9.0708L165.729 -3.05176e-05L204.044 8.54575V30.3545L270.879 46.1023V23.8553L332.695 37.3333C332.695 37.3333 333.31 132.994 332.695 164.871C332.076 196.68 329.772 240.244 297.474 286.999C265.374 333.466 227.714 379.241 167.621 399.674Z"
            stroke-width="10px"
            stroke="white"
            fill="#6672FB"
          />
          <path
            d="M37.52 198.532C37.52 198.532 57.1695 313.248 165.31 364.506C165.31 286.458 165.31 198.532 165.31 198.532H37.52Z"
            fill="white"
          />
          <path
            d="M165.31 53.8714V198.532H291.807C291.807 198.532 298.687 169.579 298.687 135.414C298.687 101.243 298.687 84.5442 298.687 84.5442L165.31 53.8714Z"
            fill="white"
          />
          <path
            stroke="#6672FB"
            stroke-width="4"
            fill-rule="evenodd"
            clip-rule="evenodd"
            d="M534.966 200.078L514.812 114.729H479.544L518.019 246.589C519.393 250.465 518.171 252.403 514.354 252.403H491.911L497.636 283.799H523.744C527.866 283.799 531.302 283.333 534.05 282.403C536.951 281.473 539.317 280.155 541.149 278.45C542.982 276.589 544.432 274.419 545.501 271.938C546.57 269.457 547.486 266.589 548.249 263.333L583.747 114.729H550.539L534.966 200.078ZM555.619 120.93L540.971 201.207L529.027 201.524L509.997 120.93H487.723L523.829 244.673C524.652 247.069 525.434 250.87 523.277 254.293C520.94 258.001 516.9 258.605 514.354 258.605H499.253L502.716 277.597H523.744C527.464 277.597 530.195 277.171 532.119 276.52L532.165 276.504L532.211 276.49C534.382 275.793 535.887 274.905 536.929 273.964C538.161 272.688 539.153 271.199 539.906 269.452C540.799 267.378 541.61 264.874 542.308 261.897L542.314 261.872L575.981 120.93H555.619ZM413.693 273.644C415.779 275.723 420.344 277.597 429.255 277.597H461.771L465.373 258.605H440.935C438.88 258.605 436.25 258.021 434.227 255.809C432.283 253.683 431.85 251.079 431.85 249.147V149.38C431.85 147.448 432.283 144.844 434.227 142.718C436.25 140.506 438.88 139.923 440.935 139.923H465.426L461.963 120.93H423.987C419.746 120.93 416.419 122.215 413.652 124.681C411.432 126.778 409.941 130.037 409.941 135.426V258.217C409.941 266.938 411.702 271.5 413.693 273.644ZM409.33 277.985C405.666 274.109 403.834 267.519 403.834 258.217V135.426C403.834 128.76 405.742 123.643 409.559 120.078C413.529 116.512 418.338 114.729 423.987 114.729H467.043L472.768 146.124H440.935C438.95 146.124 437.958 147.209 437.958 149.38V249.147C437.958 251.318 438.95 252.403 440.935 252.403H472.768L466.814 283.799H429.255C419.789 283.799 413.147 281.861 409.33 277.985ZM667.401 258.605H628.797L630.356 251.12C631.997 243.245 633.343 234.973 634.392 226.298C635.447 217.574 636.276 208.772 636.88 199.891C637.486 190.813 637.94 181.736 638.243 172.658C638.549 163.507 638.854 154.589 639.16 145.903L639.37 139.923H667.401V258.605ZM642.973 200.31C642.362 209.302 641.522 218.217 640.453 227.054C639.655 233.653 638.687 240.035 637.549 246.202C637.162 248.294 636.757 250.361 636.331 252.403H661.294V146.124H645.263C644.957 154.806 644.652 163.721 644.347 172.868C644.041 182.016 643.583 191.163 642.973 200.31ZM621.445 283.799H673.432V314.496L704.349 308.682V252.403H695.189V114.729H612.971C612.971 132.248 612.437 149.07 611.368 165.194C610.3 181.318 609.002 195.737 607.475 208.45C606.101 221.008 604.65 231.24 603.124 239.147C601.597 247.054 600.375 251.473 599.459 252.403H590.528V314.496L621.445 308.682V283.799ZM615.338 303.524V277.597H679.539V307.041L698.242 303.524V258.605H689.081V120.93H619.056C618.944 136.358 618.413 151.252 617.462 165.61C616.388 181.805 615.082 196.328 613.541 209.169C612.159 221.798 610.687 232.206 609.117 240.341C608.341 244.355 607.618 247.623 606.942 250.068C606.607 251.282 606.25 252.414 605.863 253.383C605.568 254.12 604.945 255.603 603.778 256.788L601.989 258.605H596.635V307.041L615.338 303.524Z"
            fill="white"
          />
          <mask id="path-5-inside-1" fill="white">
            <path
              d="M752.245 187.519H756.825L778.124 119.612C779.193 116.357 781.636 114.729 785.453 114.729H809.957L815.683 146.124H804.003C802.782 146.124 802.018 146.667 801.713 147.752L788.43 192.636L814.538 283.799H777.666L759.116 213.566H752.245V283.799H718.351V114.729H752.245V187.519Z"
            />
            <path
              d="M861.222 144.264C859.237 144.264 858.244 145.349 858.244 147.519V250.775C858.244 252.016 858.397 252.946 858.702 253.566C859.16 254.031 860.076 254.264 861.451 254.264H874.046C875.421 254.264 876.26 254.031 876.566 253.566C877.024 252.946 877.253 252.016 877.253 250.775V147.519C877.253 145.349 876.26 144.264 874.276 144.264H861.222ZM910.918 259.845C910.918 263.101 910.537 266.202 909.773 269.147C909.162 271.938 907.941 274.419 906.109 276.589C904.277 278.76 901.834 280.543 898.78 281.938C895.727 283.178 891.91 283.799 887.329 283.799H848.397C843.816 283.799 839.999 283.178 836.946 281.938C833.892 280.543 831.449 278.76 829.617 276.589C827.785 274.419 826.487 271.938 825.724 269.147C825.113 266.202 824.808 263.101 824.808 259.845V136.589C824.808 129.923 826.564 124.651 830.075 120.775C833.587 116.744 839.236 114.729 847.022 114.729H888.704C896.49 114.729 902.139 116.744 905.651 120.775C909.162 124.651 910.918 129.923 910.918 136.589V259.845Z"
            />
            <path
              d="M1010.44 283.799H976.542V216.357H958.45V283.799H924.556V114.729H958.45V187.287H976.542V114.729H1010.44V283.799Z"
            />
            <path
              d="M1089.58 114.729L1097.82 146.124H1075.61V283.799H1041.71V146.124H1019.5L1028.2 114.729H1089.58Z"
            />
            <path
              d="M1140.03 144.264V211.008H1156.52C1157.9 211.008 1158.74 210.775 1159.04 210.31C1159.5 209.69 1159.73 208.76 1159.73 207.519V147.519C1159.73 145.349 1158.74 144.264 1156.75 144.264H1140.03ZM1192.02 217.054C1192.02 223.721 1190.19 229.07 1186.52 233.101C1183.01 236.977 1177.36 238.915 1169.58 238.915H1140.03V283.799H1107.05V114.729H1169.58C1177.36 114.729 1183.01 116.667 1186.52 120.543C1190.19 124.419 1192.02 129.69 1192.02 136.357V217.054Z"
            />
            <path
              d="M1241.43 144.264C1239.44 144.264 1238.45 145.349 1238.45 147.519V250.775C1238.45 252.016 1238.6 252.946 1238.91 253.566C1239.36 254.031 1240.28 254.264 1241.65 254.264H1254.25C1255.62 254.264 1256.46 254.031 1256.77 253.566C1257.23 252.946 1257.46 252.016 1257.46 250.775V147.519C1257.46 145.349 1256.46 144.264 1254.48 144.264H1241.43ZM1291.12 259.845C1291.12 263.101 1290.74 266.202 1289.98 269.147C1289.37 271.938 1288.15 274.419 1286.31 276.589C1284.48 278.76 1282.04 280.543 1278.98 281.938C1275.93 283.178 1272.11 283.799 1267.53 283.799H1228.6C1224.02 283.799 1220.2 283.178 1217.15 281.938C1214.1 280.543 1211.65 278.76 1209.82 276.589C1207.99 274.419 1206.69 271.938 1205.93 269.147C1205.32 266.202 1205.01 263.101 1205.01 259.845V136.589C1205.01 129.923 1206.77 124.651 1210.28 120.775C1213.79 116.744 1219.44 114.729 1227.23 114.729H1268.91C1276.69 114.729 1282.34 116.744 1285.86 120.775C1289.37 124.651 1291.12 129.923 1291.12 136.589V259.845Z"
            />
            <path
              d="M1401.86 283.799H1367.97V146.124H1349.88V283.799H1305.9L1300.18 252.403H1315.98V114.729H1401.86V283.799Z"
            />
            <path
              d="M1449.58 180.543H1479.81C1487.6 180.543 1493.25 182.558 1496.76 186.589C1500.43 190.465 1502.26 195.737 1502.26 202.403V262.171C1502.26 268.837 1500.43 274.109 1496.76 277.985C1493.25 281.861 1487.6 283.799 1479.81 283.799H1415.69V114.729H1449.58V180.543ZM1466.76 254.264C1468.75 254.264 1469.74 253.178 1469.74 251.008V211.938C1469.74 210.698 1469.51 209.845 1469.05 209.38C1468.75 208.76 1467.91 208.45 1466.53 208.45H1449.58V254.264H1466.76Z"
            />
          </mask>
          <path
            d="M752.245 187.519H756.825L778.124 119.612C779.193 116.357 781.636 114.729 785.453 114.729H809.957L815.683 146.124H804.003C802.782 146.124 802.018 146.667 801.713 147.752L788.43 192.636L814.538 283.799H777.666L759.116 213.566H752.245V283.799H718.351V114.729H752.245V187.519Z"
            fill="#6672FB"
          />
          <path
            d="M861.222 144.264C859.237 144.264 858.244 145.349 858.244 147.519V250.775C858.244 252.016 858.397 252.946 858.702 253.566C859.16 254.031 860.076 254.264 861.451 254.264H874.046C875.421 254.264 876.26 254.031 876.566 253.566C877.024 252.946 877.253 252.016 877.253 250.775V147.519C877.253 145.349 876.26 144.264 874.276 144.264H861.222ZM910.918 259.845C910.918 263.101 910.537 266.202 909.773 269.147C909.162 271.938 907.941 274.419 906.109 276.589C904.277 278.76 901.834 280.543 898.78 281.938C895.727 283.178 891.91 283.799 887.329 283.799H848.397C843.816 283.799 839.999 283.178 836.946 281.938C833.892 280.543 831.449 278.76 829.617 276.589C827.785 274.419 826.487 271.938 825.724 269.147C825.113 266.202 824.808 263.101 824.808 259.845V136.589C824.808 129.923 826.564 124.651 830.075 120.775C833.587 116.744 839.236 114.729 847.022 114.729H888.704C896.49 114.729 902.139 116.744 905.651 120.775C909.162 124.651 910.918 129.923 910.918 136.589V259.845Z"
            fill="#6672FB"
          />
          <path
            d="M1010.44 283.799H976.542V216.357H958.45V283.799H924.556V114.729H958.45V187.287H976.542V114.729H1010.44V283.799Z"
            fill="#6672FB"
          />
          <path
            d="M1089.58 114.729L1097.82 146.124H1075.61V283.799H1041.71V146.124H1019.5L1028.2 114.729H1089.58Z"
            fill="#6672FB"
          />
          <path
            d="M1140.03 144.264V211.008H1156.52C1157.9 211.008 1158.74 210.775 1159.04 210.31C1159.5 209.69 1159.73 208.76 1159.73 207.519V147.519C1159.73 145.349 1158.74 144.264 1156.75 144.264H1140.03ZM1192.02 217.054C1192.02 223.721 1190.19 229.07 1186.52 233.101C1183.01 236.977 1177.36 238.915 1169.58 238.915H1140.03V283.799H1107.05V114.729H1169.58C1177.36 114.729 1183.01 116.667 1186.52 120.543C1190.19 124.419 1192.02 129.69 1192.02 136.357V217.054Z"
            fill="#6672FB"
          />
          <path
            d="M1241.43 144.264C1239.44 144.264 1238.45 145.349 1238.45 147.519V250.775C1238.45 252.016 1238.6 252.946 1238.91 253.566C1239.36 254.031 1240.28 254.264 1241.65 254.264H1254.25C1255.62 254.264 1256.46 254.031 1256.77 253.566C1257.23 252.946 1257.46 252.016 1257.46 250.775V147.519C1257.46 145.349 1256.46 144.264 1254.48 144.264H1241.43ZM1291.12 259.845C1291.12 263.101 1290.74 266.202 1289.98 269.147C1289.37 271.938 1288.15 274.419 1286.31 276.589C1284.48 278.76 1282.04 280.543 1278.98 281.938C1275.93 283.178 1272.11 283.799 1267.53 283.799H1228.6C1224.02 283.799 1220.2 283.178 1217.15 281.938C1214.1 280.543 1211.65 278.76 1209.82 276.589C1207.99 274.419 1206.69 271.938 1205.93 269.147C1205.32 266.202 1205.01 263.101 1205.01 259.845V136.589C1205.01 129.923 1206.77 124.651 1210.28 120.775C1213.79 116.744 1219.44 114.729 1227.23 114.729H1268.91C1276.69 114.729 1282.34 116.744 1285.86 120.775C1289.37 124.651 1291.12 129.923 1291.12 136.589V259.845Z"
            fill="#6672FB"
          />
          <path
            d="M1401.86 283.799H1367.97V146.124H1349.88V283.799H1305.9L1300.18 252.403H1315.98V114.729H1401.86V283.799Z"
            fill="#6672FB"
          />
          <path
            d="M1449.58 180.543H1479.81C1487.6 180.543 1493.25 182.558 1496.76 186.589C1500.43 190.465 1502.26 195.737 1502.26 202.403V262.171C1502.26 268.837 1500.43 274.109 1496.76 277.985C1493.25 281.861 1487.6 283.799 1479.81 283.799H1415.69V114.729H1449.58V180.543ZM1466.76 254.264C1468.75 254.264 1469.74 253.178 1469.74 251.008V211.938C1469.74 210.698 1469.51 209.845 1469.05 209.38C1468.75 208.76 1467.91 208.45 1466.53 208.45H1449.58V254.264H1466.76Z"
            fill="#6672FB"
          />
          <path
            d="M752.245 187.519H756.825L778.124 119.612C779.193 116.357 781.636 114.729 785.453 114.729H809.957L815.683 146.124H804.003C802.782 146.124 802.018 146.667 801.713 147.752L788.43 192.636L814.538 283.799H777.666L759.116 213.566H752.245V283.799H718.351V114.729H752.245V187.519Z"
            stroke="#6672FB"
            stroke-width="4"
            mask="url(#path-5-inside-1)"
          />
          <path
            d="M861.222 144.264C859.237 144.264 858.244 145.349 858.244 147.519V250.775C858.244 252.016 858.397 252.946 858.702 253.566C859.16 254.031 860.076 254.264 861.451 254.264H874.046C875.421 254.264 876.26 254.031 876.566 253.566C877.024 252.946 877.253 252.016 877.253 250.775V147.519C877.253 145.349 876.26 144.264 874.276 144.264H861.222ZM910.918 259.845C910.918 263.101 910.537 266.202 909.773 269.147C909.162 271.938 907.941 274.419 906.109 276.589C904.277 278.76 901.834 280.543 898.78 281.938C895.727 283.178 891.91 283.799 887.329 283.799H848.397C843.816 283.799 839.999 283.178 836.946 281.938C833.892 280.543 831.449 278.76 829.617 276.589C827.785 274.419 826.487 271.938 825.724 269.147C825.113 266.202 824.808 263.101 824.808 259.845V136.589C824.808 129.923 826.564 124.651 830.075 120.775C833.587 116.744 839.236 114.729 847.022 114.729H888.704C896.49 114.729 902.139 116.744 905.651 120.775C909.162 124.651 910.918 129.923 910.918 136.589V259.845Z"
            stroke="#6672FB"
            stroke-width="4"
            mask="url(#path-5-inside-1)"
          />
          <path
            d="M1010.44 283.799H976.542V216.357H958.45V283.799H924.556V114.729H958.45V187.287H976.542V114.729H1010.44V283.799Z"
            stroke="#6672FB"
            stroke-width="4"
            mask="url(#path-5-inside-1)"
          />
          <path
            d="M1089.58 114.729L1097.82 146.124H1075.61V283.799H1041.71V146.124H1019.5L1028.2 114.729H1089.58Z"
            stroke="#6672FB"
            stroke-width="4"
            mask="url(#path-5-inside-1)"
          />
          <path
            d="M1140.03 144.264V211.008H1156.52C1157.9 211.008 1158.74 210.775 1159.04 210.31C1159.5 209.69 1159.73 208.76 1159.73 207.519V147.519C1159.73 145.349 1158.74 144.264 1156.75 144.264H1140.03ZM1192.02 217.054C1192.02 223.721 1190.19 229.07 1186.52 233.101C1183.01 236.977 1177.36 238.915 1169.58 238.915H1140.03V283.799H1107.05V114.729H1169.58C1177.36 114.729 1183.01 116.667 1186.52 120.543C1190.19 124.419 1192.02 129.69 1192.02 136.357V217.054Z"
            stroke="#6672FB"
            stroke-width="4"
            mask="url(#path-5-inside-1)"
          />
          <path
            d="M1241.43 144.264C1239.44 144.264 1238.45 145.349 1238.45 147.519V250.775C1238.45 252.016 1238.6 252.946 1238.91 253.566C1239.36 254.031 1240.28 254.264 1241.65 254.264H1254.25C1255.62 254.264 1256.46 254.031 1256.77 253.566C1257.23 252.946 1257.46 252.016 1257.46 250.775V147.519C1257.46 145.349 1256.46 144.264 1254.48 144.264H1241.43ZM1291.12 259.845C1291.12 263.101 1290.74 266.202 1289.98 269.147C1289.37 271.938 1288.15 274.419 1286.31 276.589C1284.48 278.76 1282.04 280.543 1278.98 281.938C1275.93 283.178 1272.11 283.799 1267.53 283.799H1228.6C1224.02 283.799 1220.2 283.178 1217.15 281.938C1214.1 280.543 1211.65 278.76 1209.82 276.589C1207.99 274.419 1206.69 271.938 1205.93 269.147C1205.32 266.202 1205.01 263.101 1205.01 259.845V136.589C1205.01 129.923 1206.77 124.651 1210.28 120.775C1213.79 116.744 1219.44 114.729 1227.23 114.729H1268.91C1276.69 114.729 1282.34 116.744 1285.86 120.775C1289.37 124.651 1291.12 129.923 1291.12 136.589V259.845Z"
            stroke="#6672FB"
            stroke-width="4"
            mask="url(#path-5-inside-1)"
          />
          <path
            d="M1401.86 283.799H1367.97V146.124H1349.88V283.799H1305.9L1300.18 252.403H1315.98V114.729H1401.86V283.799Z"
            stroke="#6672FB"
            stroke-width="4"
            mask="url(#path-5-inside-1)"
          />
          <path
            d="M1449.58 180.543H1479.81C1487.6 180.543 1493.25 182.558 1496.76 186.589C1500.43 190.465 1502.26 195.737 1502.26 202.403V262.171C1502.26 268.837 1500.43 274.109 1496.76 277.985C1493.25 281.861 1487.6 283.799 1479.81 283.799H1415.69V114.729H1449.58V180.543ZM1466.76 254.264C1468.75 254.264 1469.74 253.178 1469.74 251.008V211.938C1469.74 210.698 1469.51 209.845 1469.05 209.38C1468.75 208.76 1467.91 208.45 1466.53 208.45H1449.58V254.264H1466.76Z"
            stroke="#6672FB"
            stroke-width="4"
            mask="url(#path-5-inside-1)"
          />
        </svg>