<svg width="1099" height="200" viewBox="0 0 1099 200" fill="none" xmlns="http://www.w3.org/2000/svg">
<path fill-rule="evenodd" clip-rule="evenodd" d="M131.132 85.3488L110.978 0H75.7099L114.185 131.86C115.559 135.736 114.337 137.674 110.52 137.674H88.0768L93.8022 169.07H119.91C124.032 169.07 127.468 168.605 130.216 167.674C133.117 166.744 135.483 165.426 137.315 163.721C139.148 161.86 140.598 159.69 141.667 157.209C142.736 154.729 143.652 151.86 144.415 148.605L179.913 0H146.705L131.132 85.3488ZM151.785 6.20155L137.137 86.4787L125.193 86.7949L106.163 6.20155H83.8889L119.995 129.944C120.818 132.341 121.6 136.142 119.443 139.564C117.106 143.272 113.066 143.876 110.52 143.876H95.4187L98.8822 162.868H119.91C123.63 162.868 126.362 162.442 128.285 161.791L128.331 161.776L128.377 161.761C130.548 161.064 132.053 160.176 133.095 159.235C134.328 157.96 135.319 156.471 136.072 154.724C136.965 152.65 137.776 150.145 138.474 147.168L138.48 147.143L172.147 6.20155H151.785ZM9.85884 158.915C11.9448 160.995 16.5096 162.868 25.4209 162.868H57.9366L61.5386 143.876H37.1008C35.0461 143.876 32.4157 143.293 30.3926 141.08C28.4488 138.955 28.0164 136.35 28.0164 134.419V34.6512C28.0164 32.7194 28.4488 30.1152 30.3926 27.9895C32.4157 25.7771 35.0461 25.1938 37.1008 25.1938H61.5923L58.1287 6.20155H20.1535C15.9119 6.20155 12.5846 7.4861 9.81816 9.95234C7.59816 12.0495 6.10712 15.308 6.10712 20.6977V143.488C6.10712 152.209 7.86814 156.771 9.85884 158.915ZM5.49641 163.256C1.83214 159.38 0 152.791 0 143.488V20.6977C0 14.031 1.90848 8.91473 5.72543 5.34884C9.69506 1.78295 14.5044 0 20.1535 0H63.2087L68.9342 31.3954H37.1008C35.116 31.3954 34.1236 32.4806 34.1236 34.6512V134.419C34.1236 136.589 35.116 137.674 37.1008 137.674H68.9342L62.9797 169.07H25.4209C15.9549 169.07 9.31336 167.132 5.49641 163.256ZM263.567 143.876H224.963L226.522 136.391C228.163 128.517 229.509 120.244 230.558 111.57C231.613 102.846 232.442 94.0431 233.046 85.1619C233.652 76.0842 234.106 67.0068 234.409 57.9295C234.715 48.7786 235.02 39.8601 235.326 31.174L235.536 25.1938H263.567V143.876ZM239.139 85.5814C238.528 94.5737 237.688 103.488 236.619 112.326C235.821 118.924 234.853 125.307 233.715 131.473C233.328 133.565 232.923 135.632 232.497 137.674H257.46V31.3954H241.429C241.123 40.0775 240.818 48.9923 240.513 58.1395C240.207 67.2868 239.749 76.4341 239.139 85.5814ZM217.611 169.07H269.598V199.767L300.515 193.954V137.674H291.355V0H209.137C209.137 17.5194 208.603 34.3411 207.534 50.4651C206.466 66.5892 205.168 81.0078 203.641 93.7209C202.267 106.279 200.816 116.512 199.29 124.419C197.763 132.326 196.541 136.744 195.625 137.674H186.694V199.767L217.611 193.954V169.07ZM211.504 188.795V162.868H275.705V192.312L294.408 188.795V143.876H285.247V6.20155H215.222C215.11 21.6293 214.579 36.523 213.628 50.8816C212.554 67.0766 211.248 81.5991 209.707 94.4398C208.325 107.069 206.853 117.478 205.283 125.612C204.508 129.626 203.784 132.895 203.108 135.339C202.773 136.553 202.416 137.685 202.029 138.655C201.734 139.391 201.111 140.874 199.944 142.06L198.155 143.876H192.801V192.312L211.504 188.795Z" fill="white"/>
<mask id="path-2-inside-1" fill="white">
<path d="M348.411 72.7907H352.991L374.29 4.88373C375.359 1.62791 377.802 0 381.619 0H406.123L411.849 31.3954H400.169C398.948 31.3954 398.184 31.938 397.879 33.0233L384.596 77.907L410.704 169.07H373.832L355.282 98.8372H348.411V169.07H314.517V0H348.411V72.7907Z"/>
<path d="M457.388 29.5349C455.403 29.5349 454.41 30.6202 454.41 32.7907V136.047C454.41 137.287 454.563 138.217 454.868 138.837C455.326 139.302 456.242 139.535 457.617 139.535H470.213C471.587 139.535 472.426 139.302 472.732 138.837C473.19 138.217 473.419 137.287 473.419 136.047V32.7907C473.419 30.6202 472.426 29.5349 470.442 29.5349H457.388ZM507.084 145.116C507.084 148.372 506.703 151.473 505.939 154.419C505.328 157.209 504.107 159.69 502.275 161.86C500.443 164.031 498 165.814 494.946 167.209C491.893 168.45 488.076 169.07 483.495 169.07H444.563C439.982 169.07 436.165 168.45 433.112 167.209C430.058 165.814 427.615 164.031 425.783 161.86C423.951 159.69 422.653 157.209 421.89 154.419C421.279 151.473 420.974 148.372 420.974 145.116V21.8605C420.974 15.1938 422.73 9.92248 426.241 6.04652C429.753 2.01551 435.402 0 443.188 0H484.87C492.656 0 498.305 2.01551 501.817 6.04652C505.328 9.92248 507.084 15.1938 507.084 21.8605V145.116Z"/>
<path d="M606.603 169.07H572.708V101.628H554.616V169.07H520.722V0H554.616V72.5581H572.708V0H606.603V169.07Z"/>
<path d="M685.745 0L693.989 31.3954H671.774V169.07H637.88V31.3954H615.665L624.368 0H685.745Z"/>
<path d="M736.198 29.5349V96.2791H752.687C754.061 96.2791 754.901 96.0465 755.207 95.5814C755.665 94.9612 755.894 94.031 755.894 92.7907V32.7907C755.894 30.6202 754.901 29.5349 752.916 29.5349H736.198ZM788.185 102.326C788.185 108.992 786.353 114.341 782.689 118.372C779.177 122.248 773.528 124.186 765.741 124.186H736.198V169.07H703.22V0H765.741C773.528 0 779.177 1.93799 782.689 5.81396C786.353 9.68993 788.185 14.9612 788.185 21.6279V102.326Z"/>
<path d="M837.592 29.5349C835.607 29.5349 834.615 30.6202 834.615 32.7907V136.047C834.615 137.287 834.767 138.217 835.073 138.837C835.531 139.302 836.447 139.535 837.821 139.535H850.417C851.791 139.535 852.631 139.302 852.936 138.837C853.394 138.217 853.623 137.287 853.623 136.047V32.7907C853.623 30.6202 852.631 29.5349 850.646 29.5349H837.592ZM887.289 145.116C887.289 148.372 886.907 151.473 886.143 154.419C885.533 157.209 884.311 159.69 882.479 161.86C880.647 164.031 878.204 165.814 875.151 167.209C872.097 168.45 868.28 169.07 863.7 169.07H824.767C820.187 169.07 816.37 168.45 813.316 167.209C810.263 165.814 807.82 164.031 805.987 161.86C804.155 159.69 802.858 157.209 802.094 154.419C801.484 151.473 801.178 148.372 801.178 145.116V21.8605C801.178 15.1938 802.934 9.92248 806.446 6.04652C809.957 2.01551 815.606 0 823.393 0H865.074C872.861 0 878.51 2.01551 882.021 6.04652C885.533 9.92248 887.289 15.1938 887.289 21.8605V145.116Z"/>
<path d="M998.029 169.07H964.135V31.3954H946.042V169.07H902.071L896.346 137.674H912.148V0H998.029V169.07Z"/>
<path d="M1045.75 65.8139H1075.98C1083.77 65.8139 1089.42 67.8295 1092.93 71.8605C1096.59 75.7364 1098.42 81.0078 1098.42 87.6744V147.442C1098.42 154.109 1096.59 159.38 1092.93 163.256C1089.42 167.132 1083.77 169.07 1075.98 169.07H1011.86V0H1045.75V65.8139ZM1062.93 139.535C1064.91 139.535 1065.9 138.45 1065.9 136.279V97.2093C1065.9 95.969 1065.68 95.1163 1065.22 94.6512C1064.91 94.031 1064.07 93.7209 1062.7 93.7209H1045.75V139.535H1062.93Z"/>
</mask>
<path d="M348.411 72.7907H352.991L374.29 4.88373C375.359 1.62791 377.802 0 381.619 0H406.123L411.849 31.3954H400.169C398.948 31.3954 398.184 31.938 397.879 33.0233L384.596 77.907L410.704 169.07H373.832L355.282 98.8372H348.411V169.07H314.517V0H348.411V72.7907Z" fill="#6672FB"/>
<path d="M457.388 29.5349C455.403 29.5349 454.41 30.6202 454.41 32.7907V136.047C454.41 137.287 454.563 138.217 454.868 138.837C455.326 139.302 456.242 139.535 457.617 139.535H470.213C471.587 139.535 472.426 139.302 472.732 138.837C473.19 138.217 473.419 137.287 473.419 136.047V32.7907C473.419 30.6202 472.426 29.5349 470.442 29.5349H457.388ZM507.084 145.116C507.084 148.372 506.703 151.473 505.939 154.419C505.328 157.209 504.107 159.69 502.275 161.86C500.443 164.031 498 165.814 494.946 167.209C491.893 168.45 488.076 169.07 483.495 169.07H444.563C439.982 169.07 436.165 168.45 433.112 167.209C430.058 165.814 427.615 164.031 425.783 161.86C423.951 159.69 422.653 157.209 421.89 154.419C421.279 151.473 420.974 148.372 420.974 145.116V21.8605C420.974 15.1938 422.73 9.92248 426.241 6.04652C429.753 2.01551 435.402 0 443.188 0H484.87C492.656 0 498.305 2.01551 501.817 6.04652C505.328 9.92248 507.084 15.1938 507.084 21.8605V145.116Z" fill="#6672FB"/>
<path d="M606.603 169.07H572.708V101.628H554.616V169.07H520.722V0H554.616V72.5581H572.708V0H606.603V169.07Z" fill="#6672FB"/>
<path d="M685.745 0L693.989 31.3954H671.774V169.07H637.88V31.3954H615.665L624.368 0H685.745Z" fill="#6672FB"/>
<path d="M736.198 29.5349V96.2791H752.687C754.061 96.2791 754.901 96.0465 755.207 95.5814C755.665 94.9612 755.894 94.031 755.894 92.7907V32.7907C755.894 30.6202 754.901 29.5349 752.916 29.5349H736.198ZM788.185 102.326C788.185 108.992 786.353 114.341 782.689 118.372C779.177 122.248 773.528 124.186 765.741 124.186H736.198V169.07H703.22V0H765.741C773.528 0 779.177 1.93799 782.689 5.81396C786.353 9.68993 788.185 14.9612 788.185 21.6279V102.326Z" fill="#6672FB"/>
<path d="M837.592 29.5349C835.607 29.5349 834.615 30.6202 834.615 32.7907V136.047C834.615 137.287 834.767 138.217 835.073 138.837C835.531 139.302 836.447 139.535 837.821 139.535H850.417C851.791 139.535 852.631 139.302 852.936 138.837C853.394 138.217 853.623 137.287 853.623 136.047V32.7907C853.623 30.6202 852.631 29.5349 850.646 29.5349H837.592ZM887.289 145.116C887.289 148.372 886.907 151.473 886.143 154.419C885.533 157.209 884.311 159.69 882.479 161.86C880.647 164.031 878.204 165.814 875.151 167.209C872.097 168.45 868.28 169.07 863.7 169.07H824.767C820.187 169.07 816.37 168.45 813.316 167.209C810.263 165.814 807.82 164.031 805.987 161.86C804.155 159.69 802.858 157.209 802.094 154.419C801.484 151.473 801.178 148.372 801.178 145.116V21.8605C801.178 15.1938 802.934 9.92248 806.446 6.04652C809.957 2.01551 815.606 0 823.393 0H865.074C872.861 0 878.51 2.01551 882.021 6.04652C885.533 9.92248 887.289 15.1938 887.289 21.8605V145.116Z" fill="#6672FB"/>
<path d="M998.029 169.07H964.135V31.3954H946.042V169.07H902.071L896.346 137.674H912.148V0H998.029V169.07Z" fill="#6672FB"/>
<path d="M1045.75 65.8139H1075.98C1083.77 65.8139 1089.42 67.8295 1092.93 71.8605C1096.59 75.7364 1098.42 81.0078 1098.42 87.6744V147.442C1098.42 154.109 1096.59 159.38 1092.93 163.256C1089.42 167.132 1083.77 169.07 1075.98 169.07H1011.86V0H1045.75V65.8139ZM1062.93 139.535C1064.91 139.535 1065.9 138.45 1065.9 136.279V97.2093C1065.9 95.969 1065.68 95.1163 1065.22 94.6512C1064.91 94.031 1064.07 93.7209 1062.7 93.7209H1045.75V139.535H1062.93Z" fill="#6672FB"/>
<path d="M348.411 72.7907H352.991L374.29 4.88373C375.359 1.62791 377.802 0 381.619 0H406.123L411.849 31.3954H400.169C398.948 31.3954 398.184 31.938 397.879 33.0233L384.596 77.907L410.704 169.07H373.832L355.282 98.8372H348.411V169.07H314.517V0H348.411V72.7907Z" stroke="#6672FB" stroke-width="4" mask="url(#path-2-inside-1)"/>
<path d="M457.388 29.5349C455.403 29.5349 454.41 30.6202 454.41 32.7907V136.047C454.41 137.287 454.563 138.217 454.868 138.837C455.326 139.302 456.242 139.535 457.617 139.535H470.213C471.587 139.535 472.426 139.302 472.732 138.837C473.19 138.217 473.419 137.287 473.419 136.047V32.7907C473.419 30.6202 472.426 29.5349 470.442 29.5349H457.388ZM507.084 145.116C507.084 148.372 506.703 151.473 505.939 154.419C505.328 157.209 504.107 159.69 502.275 161.86C500.443 164.031 498 165.814 494.946 167.209C491.893 168.45 488.076 169.07 483.495 169.07H444.563C439.982 169.07 436.165 168.45 433.112 167.209C430.058 165.814 427.615 164.031 425.783 161.86C423.951 159.69 422.653 157.209 421.89 154.419C421.279 151.473 420.974 148.372 420.974 145.116V21.8605C420.974 15.1938 422.73 9.92248 426.241 6.04652C429.753 2.01551 435.402 0 443.188 0H484.87C492.656 0 498.305 2.01551 501.817 6.04652C505.328 9.92248 507.084 15.1938 507.084 21.8605V145.116Z" stroke="#6672FB" stroke-width="4" mask="url(#path-2-inside-1)"/>
<path d="M606.603 169.07H572.708V101.628H554.616V169.07H520.722V0H554.616V72.5581H572.708V0H606.603V169.07Z" stroke="#6672FB" stroke-width="4" mask="url(#path-2-inside-1)"/>
<path d="M685.745 0L693.989 31.3954H671.774V169.07H637.88V31.3954H615.665L624.368 0H685.745Z" stroke="#6672FB" stroke-width="4" mask="url(#path-2-inside-1)"/>
<path d="M736.198 29.5349V96.2791H752.687C754.061 96.2791 754.901 96.0465 755.207 95.5814C755.665 94.9612 755.894 94.031 755.894 92.7907V32.7907C755.894 30.6202 754.901 29.5349 752.916 29.5349H736.198ZM788.185 102.326C788.185 108.992 786.353 114.341 782.689 118.372C779.177 122.248 773.528 124.186 765.741 124.186H736.198V169.07H703.22V0H765.741C773.528 0 779.177 1.93799 782.689 5.81396C786.353 9.68993 788.185 14.9612 788.185 21.6279V102.326Z" stroke="#6672FB" stroke-width="4" mask="url(#path-2-inside-1)"/>
<path d="M837.592 29.5349C835.607 29.5349 834.615 30.6202 834.615 32.7907V136.047C834.615 137.287 834.767 138.217 835.073 138.837C835.531 139.302 836.447 139.535 837.821 139.535H850.417C851.791 139.535 852.631 139.302 852.936 138.837C853.394 138.217 853.623 137.287 853.623 136.047V32.7907C853.623 30.6202 852.631 29.5349 850.646 29.5349H837.592ZM887.289 145.116C887.289 148.372 886.907 151.473 886.143 154.419C885.533 157.209 884.311 159.69 882.479 161.86C880.647 164.031 878.204 165.814 875.151 167.209C872.097 168.45 868.28 169.07 863.7 169.07H824.767C820.187 169.07 816.37 168.45 813.316 167.209C810.263 165.814 807.82 164.031 805.987 161.86C804.155 159.69 802.858 157.209 802.094 154.419C801.484 151.473 801.178 148.372 801.178 145.116V21.8605C801.178 15.1938 802.934 9.92248 806.446 6.04652C809.957 2.01551 815.606 0 823.393 0H865.074C872.861 0 878.51 2.01551 882.021 6.04652C885.533 9.92248 887.289 15.1938 887.289 21.8605V145.116Z" stroke="#6672FB" stroke-width="4" mask="url(#path-2-inside-1)"/>
<path d="M998.029 169.07H964.135V31.3954H946.042V169.07H902.071L896.346 137.674H912.148V0H998.029V169.07Z" stroke="#6672FB" stroke-width="4" mask="url(#path-2-inside-1)"/>
<path d="M1045.75 65.8139H1075.98C1083.77 65.8139 1089.42 67.8295 1092.93 71.8605C1096.59 75.7364 1098.42 81.0078 1098.42 87.6744V147.442C1098.42 154.109 1096.59 159.38 1092.93 163.256C1089.42 167.132 1083.77 169.07 1075.98 169.07H1011.86V0H1045.75V65.8139ZM1062.93 139.535C1064.91 139.535 1065.9 138.45 1065.9 136.279V97.2093C1065.9 95.969 1065.68 95.1163 1065.22 94.6512C1064.91 94.031 1064.07 93.7209 1062.7 93.7209H1045.75V139.535H1062.93Z" stroke="#6672FB" stroke-width="4" mask="url(#path-2-inside-1)"/>
</svg>
