<svg width="29" height="29" fill="none" xmlns="http://www.w3.org/2000/svg"><path d="M14.36.28C6.584.28.28 6.585.28 14.36c0 7.776 6.304 14.08 14.08 14.08 7.775 0 14.08-6.305 14.08-14.08S22.135.28 14.36.28zm5.198 19.43l-2.074-.01-3.124-3.724-3.121 3.72-2.078.01a.25.25 0 01-.25-.251.26.26 0 01.059-.164l4.089-4.871-4.09-4.869a.252.252 0 01.192-.415l2.078.01 3.12 3.724 3.122-3.72 2.074-.01a.25.25 0 01.251.251c0 .06-.022.116-.06.164l-4.082 4.868 4.086 4.871a.252.252 0 01-.192.415z" fill="#A4508B"/></svg>