<svg width="14" height="18" fill="none" xmlns="http://www.w3.org/2000/svg"><path d="M11.437 10.057c-.59 1.195-1.388 2.386-2.205 3.454a35.435 35.435 0 01-2.482 2.892 35.427 35.427 0 01-2.482-2.892c-.817-1.068-1.615-2.259-2.205-3.454-.596-1.207-.938-2.337-.938-3.307a5.625 5.625 0 0111.25 0c0 .97-.343 2.1-.938 3.307zM6.75 18s6.75-6.397 6.75-11.25a6.75 6.75 0 00-13.5 0C0 11.603 6.75 18 6.75 18z" fill="#A4508B"/><path d="M6.75 9a2.25 2.25 0 110-4.5 2.25 2.25 0 010 4.5zm0 1.125a3.375 3.375 0 100-6.75 3.375 3.375 0 000 6.75z" fill="#A4508B"/></svg>