<svg width="22" height="22" fill="none" xmlns="http://www.w3.org/2000/svg"><path fill-rule="evenodd" clip-rule="evenodd" d="M6.7.477C7.812.427 8.167.415 11 .415c2.833 0 3.188.012 4.299.062 1.111.05 1.87.228 2.533.485a5.131 5.131 0 011.847 1.204c.531.52.94 1.15 1.203 1.846.257.664.434 1.422.485 2.532.051 1.114.063 1.468.063 4.3 0 2.834-.013 3.188-.063 4.3-.05 1.11-.228 1.868-.486 2.532a5.116 5.116 0 01-1.202 1.848 5.112 5.112 0 01-1.847 1.202c-.663.258-1.422.434-2.531.486-1.113.05-1.468.062-4.301.062s-3.188-.012-4.3-.062c-1.11-.05-1.868-.228-2.531-.486a5.116 5.116 0 01-1.848-1.202 5.113 5.113 0 01-1.204-1.847c-.257-.664-.433-1.422-.484-2.532-.051-1.114-.063-1.468-.063-4.3 0-2.834.013-3.188.063-4.3.05-1.11.227-1.87.484-2.533a5.116 5.116 0 011.205-1.847A5.12 5.12 0 014.168.962C4.83.705 5.59.529 6.699.477H6.7zm8.514 1.878c-1.1-.05-1.43-.06-4.214-.06-2.785 0-3.115.01-4.215.06-1.017.046-1.569.216-1.937.36a3.232 3.232 0 00-1.199.779 3.235 3.235 0 00-.78 1.199c-.143.368-.312.92-.359 1.937-.05 1.1-.06 1.43-.06 4.215 0 2.784.01 3.114.06 4.214.047 1.017.216 1.57.36 1.937.166.452.433.863.779 1.2.337.346.747.612 1.2.779.367.143.92.313 1.936.36 1.1.05 1.43.06 4.215.06 2.786 0 3.115-.01 4.214-.06 1.018-.047 1.57-.217 1.937-.36a3.23 3.23 0 001.2-.78 3.25 3.25 0 00.78-1.199c.142-.368.312-.92.359-1.937.05-1.1.06-1.43.06-4.214 0-2.785-.01-3.115-.06-4.215-.047-1.017-.216-1.57-.36-1.937a3.238 3.238 0 00-.78-1.2 3.235 3.235 0 00-1.199-.779c-.367-.143-.92-.313-1.937-.36zM9.668 14.06a3.479 3.479 0 102.504-6.491 3.48 3.48 0 00-2.504 6.49zM7.209 7.054a5.36 5.36 0 117.582 7.581 5.36 5.36 0 01-7.582-7.581zm10.34-.772a1.267 1.267 0 10-1.738-1.844 1.267 1.267 0 001.739 1.844z" fill="#A4508B"/></svg>