<svg width="20" height="24" fill="none" xmlns="http://www.w3.org/2000/svg"><path d="M10.592.486c1.241-.02 2.475-.008 3.707-.02.075 1.452.597 2.93 1.66 3.957 1.06 1.051 2.56 1.533 4.019 1.696v3.818c-1.368-.045-2.742-.33-3.983-.918-.54-.245-1.043-.56-1.536-.882-.007 2.77.011 5.537-.018 8.296a7.217 7.217 0 01-1.282 3.737c-1.24 1.818-3.393 3.004-5.604 3.04-1.356.078-2.71-.291-3.866-.973C1.774 21.108.426 19.041.23 16.822c-.025-.47-.028-.94-.011-1.41a7.107 7.107 0 012.448-4.705c1.57-1.367 3.77-2.018 5.829-1.633.02 1.404-.037 2.807-.037 4.212-.94-.304-2.04-.22-2.862.352a3.284 3.284 0 00-1.294 1.659c-.196.48-.14 1.015-.128 1.525.225 1.556 1.721 2.864 3.318 2.722 1.06-.011 2.074-.625 2.626-1.525.178-.315.378-.637.389-1.008.093-1.696.056-3.384.067-5.08.008-3.823-.011-7.634.018-11.444V.486z" fill="#A4508B"/></svg>