<svg width="14" height="14" fill="none" xmlns="http://www.w3.org/2000/svg"><path d="M4.503 9.6l1.027-.297 6.186-6.26a.266.266 0 00-.002-.372l-.37-.375a.258.258 0 00-.37-.002L4.807 8.537 4.503 9.6zm7.574-8.046l.37.375a1.33 1.33 0 01.01 1.865l-6.374 6.45-2.196.632a.526.526 0 01-.647-.363.534.534 0 01-.002-.295l.64-2.24 6.356-6.434a1.293 1.293 0 011.843.01zm-6.72.673c.29 0 .524.237.524.53a.527.527 0 01-.524.53H3.262c-.579 0-1.048.475-1.048 1.06v6.362c0 .586.47 1.06 1.048 1.06h6.286c.579 0 1.048-.474 1.048-1.06v-2.12c0-.293.235-.53.524-.53.29 0 .524.237.524.53v2.12c0 1.171-.939 2.12-2.096 2.12H3.262c-1.158 0-2.095-.949-2.095-2.12V4.347c0-1.17.937-2.12 2.095-2.12h2.095z" fill="#FAFAFA"/></svg>