<svg width="24" height="18" fill="none" xmlns="http://www.w3.org/2000/svg"><path d="M23.289 8.771c0-.058 0-.123-.003-.2-.002-.212-.007-.451-.012-.706a40.944 40.944 0 00-.112-2.151c-.076-.948-.188-1.739-.34-2.332a3.696 3.696 0 00-.914-1.639 3.518 3.518 0 00-1.583-.948c-.718-.2-2.125-.324-4.107-.4a118.502 118.502 0 00-3.933-.083h-.747a115.507 115.507 0 00-3.934.084c-1.981.078-3.39.202-4.107.399a3.514 3.514 0 00-1.583.948 3.691 3.691 0 00-.913 1.639C.846 3.975.737 4.766.66 5.714a40.886 40.886 0 00-.112 2.151c-.008.255-.01.494-.013.706 0 .077-.003.142-.003.2v.147c0 .058 0 .124.003.2l.013.706c.02.733.056 1.463.111 2.151.077.949.188 1.739.34 2.333.326 1.258 1.28 2.25 2.497 2.587.716.2 2.126.323 4.107.399.942.037 1.95.06 2.959.073.353.006.68.008.975.01h.747c.294-.002.622-.004.975-.01 1.008-.013 2.016-.036 2.958-.073 1.982-.079 3.391-.202 4.107-.4 1.217-.335 2.172-1.326 2.497-2.586.155-.594.264-1.384.34-2.333a41.484 41.484 0 00.124-2.857c0-.076.003-.142.003-.2v-.147zm-1.829.137c0 .055 0 .115-.002.186l-.013.675a36.666 36.666 0 01-.107 2.046c-.068.846-.165 1.54-.284 2.004a1.74 1.74 0 01-1.204 1.248c-.533.147-1.877.265-3.703.336a111.74 111.74 0 01-3.873.081h-.726l-.96-.008a112.03 112.03 0 01-2.913-.073c-1.826-.074-3.172-.19-3.703-.336a1.744 1.744 0 01-1.204-1.248c-.119-.465-.215-1.158-.284-2.004a39.321 39.321 0 01-.107-2.046c-.007-.244-.01-.473-.012-.675 0-.07-.003-.134-.003-.186v-.126c0-.056 0-.116.003-.187.002-.205.007-.43.012-.675a36.71 36.71 0 01.107-2.046c.069-.846.165-1.539.284-2.004a1.74 1.74 0 011.204-1.247c.534-.148 1.877-.266 3.703-.337a111.563 111.563 0 013.873-.081h.726l.96.008c.993.013 1.986.037 2.913.073 1.826.074 3.173.19 3.703.337a1.74 1.74 0 011.204 1.247c.12.465.216 1.158.285 2.004.053.649.086 1.347.106 2.046.008.244.01.473.013.675l.002.187v.126zM9.65 12.364l5.893-3.546-5.892-3.493v7.04z" fill="#A4508B"/></svg>