<svg width="28" height="28" fill="none" xmlns="http://www.w3.org/2000/svg"><circle cx="14" cy="14" r="14" fill="#F9251C"/><path d="M12.83 10.941c-.24-.16-.41-.41-.51-.76-.1-.34-.15-.8-.15-1.36v-.77c0-.57.06-1.03.17-1.38.12-.35.3-.6.54-.76.25-.16.57-.24.97-.24.39 0 .71.08.95.24.24.16.41.42.52.76.11.34.17.8.17 1.38v.77c0 .57-.05 1.02-.16 1.37-.11.34-.28.6-.52.76-.24.16-.57.24-.98.24-.42-.01-.76-.09-1-.25zm1.35-.84c.07-.17.1-.46.1-.85v-1.66c0-.38-.03-.66-.1-.84-.07-.18-.18-.26-.35-.26-.16 0-.28.09-.34.26-.07.18-.1.46-.1.84v1.66c0 .39.03.68.1.85.06.17.18.26.35.26.16 0 .27-.08.34-.26zM9.91 8.732l-1.36-4.93h1.19l.48 2.23c.12.55.21 1.02.27 1.41h.03c.04-.28.13-.74.27-1.4l.5-2.24h1.19l-1.38 4.93v2.36H9.92v-2.36h-.01zm9.45-2.961v5.33h-.94l-.1-.65h-.03c-.25.49-.64.74-1.15.74-.35 0-.61-.12-.78-.35-.17-.23-.25-.59-.25-1.09v-3.98h1.2v3.91c0 .24.03.41.08.51.05.1.14.15.26.15.1 0 .2-.03.3-.1.1-.06.17-.14.21-.24v-4.23h1.2z" fill="#fff"/><path fill-rule="evenodd" clip-rule="evenodd" d="M21.67 14.168a1.996 1.996 0 00-1.41-1.397c-1.252-.34-6.26-.34-6.26-.34s-5.008 0-6.26.327a2.036 2.036 0 00-1.41 1.41C6 15.41 6 17.983 6 17.983s0 2.586.33 3.813c.184.68.725 1.215 1.41 1.398 1.265.34 6.26.34 6.26.34s5.008 0 6.26-.327a1.996 1.996 0 001.41-1.398c.33-1.24.33-3.813.33-3.813s.013-2.586-.33-3.827zm-2.572 4.718v.245c0 .308.01.544.028.698.02.155.057.273.123.336.057.073.152.109.284.109.17 0 .284-.064.35-.19.067-.128.095-.336.104-.636l.975.055c.01.045.01.1.01.172 0 .445-.123.78-.379.998-.255.218-.615.327-1.079.327-.558 0-.946-.172-1.173-.508-.227-.336-.341-.853-.341-1.561v-.844c0-.726.114-1.252.35-1.588.237-.336.634-.499 1.193-.499.388 0 .69.073.899.209.208.136.35.354.435.635.085.29.123.69.123 1.198v.825h-1.902v.019zm.142-2.033a.674.674 0 00-.114.336 6.38 6.38 0 00-.028.708v.344h.833v-.344c0-.309-.01-.545-.029-.708-.019-.164-.066-.273-.123-.336-.057-.064-.151-.1-.265-.1-.132-.009-.217.027-.274.1zm-5.9 4.649v-5.33h-1.2v4.23c-.04.1-.11.18-.21.24-.1.07-.2.1-.3.1-.12 0-.21-.05-.26-.15-.05-.1-.08-.27-.08-.51v-3.91h-1.2v3.98c0 .5.08.86.25 1.09.17.23.43.35.78.35.51 0 .9-.25 1.15-.74h.03l.1.65h.94zm-2.89-6.33H9.26v6.32H8.09v-6.32H6.9v-.97h3.55v.97zm6.45 1.188c.16.15.28.39.35.73.07.33.1.8.11 1.41v.84c0 .79-.1 1.38-.29 1.75-.19.37-.48.56-.89.56a1.3 1.3 0 01-.62-.16c-.19-.11-.33-.25-.42-.43h-.03l-.12.5H14V14h1.16v2.81h.01c.1-.2.25-.37.44-.49.19-.13.4-.19.62-.19.28 0 .51.08.67.23zm-.8 3.81c.03-.22.05-.52.05-.91h.01v-.7c0-.41-.01-.73-.04-.96-.03-.22-.07-.38-.14-.48a.324.324 0 00-.28-.14c-.11 0-.22.05-.32.14-.1.1-.17.22-.21.36v3.02c.05.09.12.16.2.21.08.05.17.07.27.07.12 0 .22-.05.3-.14.07-.09.13-.25.16-.47z" fill="#fff"/></svg>