<svg width="360" height="317" fill="none" xmlns="http://www.w3.org/2000/svg"><g clip-path="url(#clip0)"><path d="M134.621 78.252a3.43 3.43 0 00-2.717 1.13 4.157 4.157 0 00-.767 1.95 12.019 12.019 0 00.631 6.246 12.07 12.07 0 003.695 5.085c1.103.865 2.483 1.556 3.868 1.317a.722.722 0 00.426-.186.81.81 0 00.155-.563c.112-3.717.202-7.519-1.231-10.928-1.001-2.373-1.076-4.014-4.06-4.051z" fill="url(#paint0_linear)"/><path d="M220.924 78.252a3.442 3.442 0 012.723 1.13 4.24 4.24 0 01.762 1.95c.348 2.1.131 4.255-.628 6.246a12.06 12.06 0 01-3.693 5.085c-1.103.865-2.488 1.556-3.873 1.317a.745.745 0 01-.427-.186.843.843 0 01-.154-.563c-.112-3.717-.197-7.519 1.236-10.928.996-2.373 1.071-4.014 4.054-4.051z" fill="url(#paint1_linear)"/><path d="M341.764 257.991H25.688c-9.634 0-17.444 7.784-17.444 17.385v20.215c0 9.601 7.81 17.384 17.444 17.384h316.076c9.634 0 17.444-7.783 17.444-17.384v-20.215c0-9.601-7.81-17.385-17.444-17.385z" fill="#FF5A4C"/><path d="M341.764 257.991H25.688c-9.634 0-17.444 7.784-17.444 17.385v20.215c0 9.601 7.81 17.384 17.444 17.384h316.076c9.634 0 17.444-7.783 17.444-17.384v-20.215c0-9.601-7.81-17.385-17.444-17.385z" fill="url(#paint2_linear)"/><path d="M140.665 114.04s-41.026-2.394-58.96 19.429c-17.933 21.824-8.583 124.692-8.583 124.692l189.527 4.301 7.714-116.382c.762-24.547-28.797-32.151-59.971-32.05h-1.631c-54.872.557-68.096.01-68.096.01z" fill="#FF5A4C"/><path d="M107.736 118.904s-33.758 0-66.013 83.774L83.1 221.39l20.864-25.901 3.772-76.585zm138.047 0s33.758 0 66.014 83.774L270.42 221.39l-20.865-25.901-3.772-76.585z" fill="#FF5A4C"/><path opacity=".24" d="M61.715 204.505a7.455 7.455 0 01-3.922-4.294 7.415 7.415 0 01.373-5.795c8.482-16.838 34.456-56.285 52.086-58.61 22.085-2.926 47.259-5.99 47.259-5.99s76.499-1.391 89.206 7.434c9.948 6.903 32.501 36.362 44.787 52.711 2.84 3.786 1.78 10.731-2.525 12.744l-30.37 24.537a7.533 7.533 0 00-2.584 1.975l-20.379 24.277a7.482 7.482 0 01-6.101 2.655l-107.022-5.262a7.475 7.475 0 01-4.081-1.449 7.436 7.436 0 01-2.585-3.463l-12.68-35.077a7.44 7.44 0 00-2.484-3.404 7.478 7.478 0 00-8.073-.654 7.444 7.444 0 00-3.003 2.959 7.45 7.45 0 01-4.222 3.464 7.48 7.48 0 01-5.459-.337l-18.222-8.421z" fill="#fff"/><path d="M342.555 251.391H26.479c-9.634 0-17.444 7.783-17.444 17.385v20.214c0 9.602 7.81 17.385 17.444 17.385h316.076c9.634 0 17.444-7.783 17.444-17.385v-20.214c0-9.602-7.81-17.385-17.444-17.385z" fill="#FF5A4C"/><path opacity=".18" d="M35.415 271.245c1.326.828 2.893.865 4.39.892l27.642.393a26.878 26.878 0 00-5.174 3.648c-6.127 5.49-2.446 15.611 5.791 15.892 62.577 2.124 125.208 1.386 187.801.648 9.771-.117 19.58-.234 29.303-1.227a8.01 8.01 0 003.882-1.462 7.973 7.973 0 002.622-3.205 7.943 7.943 0 00-.829-7.944 3.51 3.51 0 011.387-4.245 3.538 3.538 0 011.511-.534c10.219-1.184 20.779-.807 30.902-2.532 1.998-.34 4.332-.967 5.142-3.186.533-1.376.229-2.974-.208-4.381-2.051-6.547-7.385-11.034-13.027-13.041-5.642-2.007-11.641-1.901-17.529-1.784l-231.372 4.635c-7.992.16-20.86-2.655-28.355.749-4.694 2.14-10.55 12.526-3.88 16.684z" fill="#1D2741"/><path d="M84.692 279.895l-8.284-22.897s-3.389-3.897 5.647-5.628c9.036-1.731 183.879 0 183.879 0l4.071 28.503-185.313.022z" fill="url(#paint3_linear)"/><path d="M270.006 279.895v2.357a7.093 7.093 0 01-2.088 5.024 7.143 7.143 0 01-5.041 2.081H91.85a7.143 7.143 0 01-5.041-2.081 7.093 7.093 0 01-2.088-5.024v-2.357a7.063 7.063 0 012.081-5.032 7.11 7.11 0 015.047-2.078h171.028a7.107 7.107 0 012.732.537 7.11 7.11 0 013.86 3.85c.358.863.54 1.788.537 2.723z" fill="url(#paint4_linear)"/><path d="M269.706 277.84a7.116 7.116 0 01-2.578 3.649 7.156 7.156 0 01-4.252 1.4H91.848a7.155 7.155 0 01-4.252-1.4 7.12 7.12 0 01-2.578-3.649 7.118 7.118 0 012.577-3.653 7.152 7.152 0 014.253-1.402h171.028c1.532 0 3.023.492 4.253 1.402a7.114 7.114 0 012.577 3.653z" fill="#FF5A4C"/><path d="M84.692 279.895l-8.284-22.897s-3.389-3.897 5.647-5.628c9.036-1.731 183.879 0 183.879 0l4.071 28.503-185.313.022z" fill="url(#paint5_linear)"/><path d="M269.706 277.84a7.116 7.116 0 01-2.578 3.649 7.156 7.156 0 01-4.252 1.4H91.848a7.155 7.155 0 01-4.252-1.4 7.12 7.12 0 01-2.578-3.649 7.118 7.118 0 012.577-3.653 7.152 7.152 0 014.253-1.402l174.113-2.878c3.196 0 2.855 5.007 3.745 7.933z" fill="url(#paint6_linear)"/><path d="M265.934 164.192v98.27c0 2.738-1.091 5.363-3.033 7.299a10.377 10.377 0 01-7.324 3.024H99.121a10.36 10.36 0 01-7.327-3.021 10.3 10.3 0 01-3.03-7.302v-98.27c0-2.737 1.09-5.363 3.033-7.299a10.375 10.375 0 017.324-3.023h156.456a10.348 10.348 0 013.965.783 10.334 10.334 0 015.607 5.587 10.27 10.27 0 01.785 3.952z" fill="#FF5A4C"/><path d="M265.934 164.192v98.27c0 2.738-1.091 5.363-3.033 7.299a10.377 10.377 0 01-7.324 3.024H99.121a10.36 10.36 0 01-7.327-3.021 10.3 10.3 0 01-3.03-7.302v-98.27c0-2.737 1.09-5.363 3.033-7.299a10.375 10.375 0 017.324-3.023h156.456a10.348 10.348 0 013.965.783 10.334 10.334 0 015.607 5.587 10.27 10.27 0 01.785 3.952z" fill="url(#paint7_linear)"/><path d="M265.934 164.192v98.276a10.256 10.256 0 01-1.188 4.801 10.309 10.309 0 01-3.298 3.694 10.238 10.238 0 01-5.312 1.806H99.116c-1.52 0-3.021-.336-4.396-.983a10.181 10.181 0 01-.986-4.386v-98.254c0-2.737 1.092-5.363 3.034-7.299a10.375 10.375 0 017.324-3.023h156.456a10.315 10.315 0 014.401.977 10.2 10.2 0 01.985 4.391z" fill="#FF5A4C"/><path d="M49.759 206.31s-18.003 30.33-15.686 41.879c2.318 11.549 54.692 7.392 54.692 7.392v-27.723H77.656l5.445-6.468-33.342-15.08z" fill="url(#paint8_linear)"/><path d="M303.762 206.31s15.451 34.026 15.904 40.955c.453 6.93-3.079 9.771-17.3 11.587-14.22 1.815-36.432 0-36.432 0v-34.244l7.73-.462-3.244-2.772 33.342-15.064z" fill="url(#paint9_linear)"/><path d="M157.489 124.166s-.501 11.73 9.441 19.116c9.942 7.386 21.312.239 24.077-4.614 2.765-4.854 6.873-16.652 6.873-16.652l-40.391 2.15z" fill="url(#paint10_linear)"/><path d="M136.304 75.931s3.538 45.039 30.631 53.136c27.093 8.098 49.822-20.363 52.123-53.136C221.36 43.16 199.878 13.44 171 19.51c-28.878 6.069-38.633 36.632-34.696 56.422z" fill="url(#paint11_linear)"/><path d="M231.245 53.333c.634 2.346 0 4.831-.767 7.136a66.314 66.314 0 01-12.691 22.402 52.13 52.13 0 00.378-2.724 59.04 59.04 0 00-1.486-21.563c-4.082-1.768-8.397 3.186-12.787 2.416-3.911-.664-5.707-5.31-9.165-7.27-3.457-1.959-7.991-.684-11.407 1.387-3.415 2.07-6.463 4.9-10.213 6.329-8.589 3.255-17.913-1.667-25.766-6.425l-1.519 5.347h-.458l-.933.037a8.15 8.15 0 00-4.599 1.655 8.108 8.108 0 00-2.817 3.984c-1.721 5.31-.725 9.845.133 16.312.064.478.41 2.655.57 3.123-5.328-8.698-10.8-20.71-8.525-30.617a46.752 46.752 0 001.066-4.78c.272-2.256-.107-4.534-.24-6.801-.325-5.48.991-11.358 4.939-15.192 9.372-9.08 17.05-21.478 29.437-25.641a48.717 48.717 0 0137.999 3.186c5.861 3.133 10.971 7.434 16.048 11.681 3.868 3.266 7.774 6.58 10.464 10.827 2.691 4.248 4.044 9.617 2.329 14.337-.693 1.912-1.881 3.76-1.743 5.782.123 1.769 1.279 3.33 1.753 5.072z" fill="#3F3D56"/><path opacity=".24" d="M223.563 69.735c-1.551 3.573-3.171 7.242-5.398 10.412a59.04 59.04 0 00-1.486-21.563c-4.081-1.768-8.397 3.186-12.787 2.416-3.911-.664-5.707-5.31-9.164-7.27-3.458-1.959-7.992-.684-11.408 1.387-3.415 2.07-6.462 4.9-10.213 6.329-8.525 3.234-17.79-1.593-25.606-6.33-.389-3.446 7.251-6.61 19.969-1.683 10.432 4.047 19.713-14.782 33.14-9.648 1.529.59 2.344 2.369 3.873 2.969 2.131.828 4.47.17 6.719-.15 2.248-.318 4.944-.058 6.143 1.87.916 1.476.591 3.382 1.007 5.07.415 1.69 2.536 3.256 3.777 2.04.442 2.659.587 5.359.432 8.05a7.406 7.406 0 012.957-2.262c.378 2.878-.799 5.702-1.955 8.363zM139.2 60.628c-3.165 6.606-3.368 17.804-1.471 24.866-1.412-3.44-4.23-10.088-5.061-13.736-.714-3.096-1.125-6.638.756-9.208a9.187 9.187 0 001.295-1.847 7.572 7.572 0 00.335-1.7c.293-1.874 1.652-3.886 3.554-3.79a4.6 4.6 0 012.131.838c1.146.728 4.433 2.618 4.641 4.333l-6.18.244z" fill="#fff"/><path d="M265.743 262.468s-.533 5.532-4.486 8.495a.504.504 0 01-.086.059 9.258 9.258 0 01-5.226 1.747H98.924a10.377 10.377 0 01-4.4-.983 10.253 10.253 0 01-.981-4.386v-51.596l172.2 46.664z" fill="url(#paint12_linear)"/><path opacity=".24" d="M109.666 271.335H94.747l-.985-14.204v-87.985c0-2.737 1.091-5.363 3.033-7.299a10.374 10.374 0 017.324-3.023h38.005s-39.917.138-41.756 8.968c-1.838 8.831 0 97.49 0 97.49s-1.848 4.672 9.298 6.053z" fill="#fff"/></g><defs><linearGradient id="paint0_linear" x1="138.026" y1="85.909" x2="131.367" y2="87.015" gradientUnits="userSpaceOnUse"><stop stop-color="#ECC4D7"/><stop offset=".16" stop-color="#EDCBD5"/><stop offset=".42" stop-color="#EFD4D1"/><stop offset=".7" stop-color="#F2EAC9"/></linearGradient><linearGradient id="paint1_linear" x1="-46467" y1="2631.27" x2="-46352.5" y2="2642.07" gradientUnits="userSpaceOnUse"><stop stop-color="#ECC4D7"/><stop offset=".16" stop-color="#EDCBD5"/><stop offset=".42" stop-color="#EFD4D1"/><stop offset=".7" stop-color="#F2EAC9"/></linearGradient><linearGradient id="paint2_linear" x1="183.673" y1="279.926" x2="184.731" y2="390.967" gradientUnits="userSpaceOnUse"><stop offset=".01" stop-opacity="0"/><stop offset=".26" stop-color="#0D0D12" stop-opacity=".21"/><stop offset=".77" stop-color="#2F2E40" stop-opacity=".75"/><stop offset=".99" stop-color="#3F3D56"/></linearGradient><linearGradient id="paint3_linear" x1="38805.1" y1="14884.4" x2="109604" y2="14884.4" gradientUnits="userSpaceOnUse"><stop offset=".01" stop-opacity="0"/><stop offset=".26" stop-color="#0D0D12" stop-opacity=".21"/><stop offset=".77" stop-color="#2F2E40" stop-opacity=".75"/><stop offset=".99" stop-color="#3F3D56"/></linearGradient><linearGradient id="paint4_linear" x1="175.824" y1="308.791" x2="177.803" y2="272.593" gradientUnits="userSpaceOnUse"><stop stop-color="#FF5A4C"/><stop offset="1" stop-color="#FF5A4C"/></linearGradient><linearGradient id="paint5_linear" x1="74184.1" y1="15737.8" x2="74186.6" y2="11837.5" gradientUnits="userSpaceOnUse"><stop offset=".01" stop-opacity="0"/><stop offset=".26" stop-color="#0D0D12" stop-opacity=".21"/><stop offset=".77" stop-color="#2F2E40" stop-opacity=".75"/><stop offset=".99" stop-color="#3F3D56"/></linearGradient><linearGradient id="paint6_linear" x1="92205.9" y1="6552.36" x2="88987.1" y2="23113.4" gradientUnits="userSpaceOnUse"><stop offset=".01" stop-opacity="0"/><stop offset=".26" stop-color="#0D0D12" stop-opacity=".21"/><stop offset=".77" stop-color="#2F2E40" stop-opacity=".75"/><stop offset=".99" stop-color="#3F3D56"/></linearGradient><linearGradient id="paint7_linear" x1="68147.2" y1="28744.6" x2="69044.9" y2="65355.5" gradientUnits="userSpaceOnUse"><stop offset=".01" stop-opacity="0"/><stop offset=".26" stop-color="#0D0D12" stop-opacity=".21"/><stop offset=".77" stop-color="#2F2E40" stop-opacity=".75"/><stop offset=".99" stop-color="#3F3D56"/></linearGradient><linearGradient id="paint8_linear" x1="9018.41" y1="30969.2" x2="10128.8" y2="10595.2" gradientUnits="userSpaceOnUse"><stop stop-color="#ECC4D7"/><stop offset=".16" stop-color="#EDCBD5"/><stop offset=".42" stop-color="#EFD4D1"/><stop offset=".7" stop-color="#F2EAC9"/></linearGradient><linearGradient id="paint9_linear" x1="32029.5" y1="38281.1" x2="33466.1" y2="14085.1" gradientUnits="userSpaceOnUse"><stop stop-color="#ECC4D7"/><stop offset=".16" stop-color="#EDCBD5"/><stop offset=".42" stop-color="#EFD4D1"/><stop offset=".7" stop-color="#F2EAC9"/></linearGradient><linearGradient id="paint10_linear" x1="15728.3" y1="7915.32" x2="15917.4" y2="2692.99" gradientUnits="userSpaceOnUse"><stop stop-color="#ECC4D7"/><stop offset=".16" stop-color="#EDCBD5"/><stop offset=".42" stop-color="#EFD4D1"/><stop offset=".7" stop-color="#F2EAC9"/></linearGradient><linearGradient id="paint11_linear" x1="32909.4" y1="625.488" x2="32390.7" y2="38934" gradientUnits="userSpaceOnUse"><stop stop-color="#ECC4D7"/><stop offset=".16" stop-color="#EDCBD5"/><stop offset=".42" stop-color="#EFD4D1"/><stop offset=".7" stop-color="#F2EAC9"/></linearGradient><linearGradient id="paint12_linear" x1="70547.4" y1="19743.8" x2="68675.2" y2="60884.4" gradientUnits="userSpaceOnUse"><stop offset=".01" stop-opacity="0"/><stop offset=".26" stop-color="#0D0D12" stop-opacity=".21"/><stop offset=".77" stop-color="#2F2E40" stop-opacity=".75"/><stop offset=".99" stop-color="#3F3D56"/></linearGradient><clipPath id="clip0"><path fill="#fff" d="M0 0h360v317H0z"/></clipPath></defs></svg>