<svg width="33" height="90" fill="none" xmlns="http://www.w3.org/2000/svg"><path fill-rule="evenodd" clip-rule="evenodd" d="M2.016 80.365l25.364-.125.015 8.986-25.365.124-.014-8.985z" fill="#1C1C1B"/><path fill-rule="evenodd" clip-rule="evenodd" d="M13.76 3.875c-.236.594.498 1.166.095 1.21-.404.051-6.213.3-6.213.3s.491-1.635-.074-1.591c-.205.015-1.613.051-3.3.117v2.01c1.159-.161 1.958-.235 1.885-.058-.191.476-.191 1.136 1.423 1.107 1.709-.03 6.447-.227 6.447-.227s9.844.447 10.152.374c.308-.074 1.02-.858 1.02-1.144 0-.287.036-2.73.036-2.73s-11.237.03-11.472.624v.008z" fill="#F5B900"/><path fill-rule="evenodd" clip-rule="evenodd" d="M15.403 5.554l-2.721 2.26.894 70.079 6.763-.734-3.154-69.588-1.782-2.017z" fill="#1C1C1B"/><path fill-rule="evenodd" clip-rule="evenodd" d="M15.285 5.554l1.13 68.656 9.367-.623-.536-67.82-9.96-.213z" fill="#BA3909"/><path d="M15.638 6.383c.03.029.022.036-.008.022-.014 1.342 10.453 55.79 9.191 62.912a55.586 55.586 0 01-.953 4.394l-7.453.491-1.122-67.98c.169.095.286.16.337.183 0-.022 0-.03.008-.022z" fill="#722300"/><path fill-rule="evenodd" clip-rule="evenodd" d="M6.864 32.43l5.134-.418.587 1.614L12.3 47.54l-5.142-.28-.675-12.579.382-2.252z" fill="#fff"/><path fill-rule="evenodd" clip-rule="evenodd" d="M10.862 14.738l-3.294-.029-.543 6.814.096 11.135 4.687-.066-.22-11.083-.726-6.77zM6.506 43.917l.557 14.487 6.17.044-.492-14.78-6.235.249z" fill="#fff"/><path d="M9.374 32.628l-.052-17.905 1.54.015.727 6.77.22 11.083-2.435.037z" fill="#DADAD9"/><path d="M9.41 47.386l-.045-15.161 2.633-.213.587 1.614L12.3 47.54l-2.89-.154z" fill="#DADAD9"/><path d="M9.439 58.418l-.037-14.611 3.338-.14.491 14.78-3.792-.029z" fill="#DADAD9"/><path fill-rule="evenodd" clip-rule="evenodd" d="M6.526 64.858l2.692-.132 1.563 9.022-4.9.015.645-8.905z" fill="#E98700"/><path fill-rule="evenodd" clip-rule="evenodd" d="M10.767 64.844l2.692-.132 1.562 9.03-4.892.007.638-8.905z" fill="#E98700"/><path fill-rule="evenodd" clip-rule="evenodd" d="M8.45 3.801h1.114l.007 3.176-1.114.008L8.449 3.8zM8.588.398c.257-.565.484-.528.667.11l.11 3-.77.073L8.588.405V.398zm.917 7.108l1.475 5.486.014 1.093-3.528.008-.007-1.086 1.049-5.545.997.044z" fill="#fff"/><path fill-rule="evenodd" clip-rule="evenodd" d="M7.385 12.706l3.601-.014.008 1.386-3.602.015-.007-1.387z" fill="#1C1C1B"/><path d="M6.945 43.228l5.443-.015-.022 1.151-5.362.015-.059-1.151z" fill="#DADAD9"/><path fill-rule="evenodd" clip-rule="evenodd" d="M7.018 57.273h2.105l.007 3.778-2.098.007-.014-3.785z" fill="#DADAD9"/><path fill-rule="evenodd" clip-rule="evenodd" d="M6.203 62.54l3.682-.008-.755-1.482-2.098.008-.829 1.481zm4.982-5.333h2.106l.007 3.778-2.105.007-.008-3.785z" fill="#DADAD9"/><path fill-rule="evenodd" clip-rule="evenodd" d="M10.371 62.473l3.675-.007-.748-1.482-2.105.008-.822 1.481z" fill="#DADAD9"/><path fill-rule="evenodd" clip-rule="evenodd" d="M14.47 54.662s3.551 6.455 1.3 6.286l-3.727-.278.11-6.118 2.31.11h.008z" fill="#fff"/><path fill-rule="evenodd" clip-rule="evenodd" d="M8.875 52.689l1.914-.007.015 5.582-1.914.007-.015-5.582z" fill="#1C1C1B"/><path d="M6.174 62.79l3.682-.007.037 2.618-3.683.008-.036-2.619zm4.166-.066l3.682-.007.037 2.618-3.682.008-.037-2.619z" fill="#828282"/><path fill-rule="evenodd" clip-rule="evenodd" d="M6.174 62.79l3.682-.007.03 2.619-3.675.014-.037-2.625zm4.166-.059l3.675-.014.036 2.618-3.682.015-.03-2.618z" fill="#B1B1B1"/><path fill-rule="evenodd" clip-rule="evenodd" d="M7.283 19.975h2.179l.007 1.305-2.186.008v-1.313zM8.8 26.943l1.923-.008.014 5.582-1.922.008-.014-5.582z" fill="#1C1C1B"/><path fill-rule="evenodd" clip-rule="evenodd" d="M14.77 73.99c.558-.814-1.481-2.355-2.442-.25-.161-2.376-3.902-1.57-2.472 1.24-1.694-3.389-3.044-2.237-3.455.176.22-1.041.455-2.78-1.107-2.78-.704 0-1.108.543-1.43 1.1.19-.396.168-.836.139-1.261-.264-3.125-3.345-1.05-3.345.843l.088.455c0 .756.403 1.695 1.21 1.87-.47-.036-.8.309-1.093.624-1.716 1.79-.748 4.614 1.797 4.606.595 0 1.123-.27 1.673-.454l-.03.234c-.066 1.203 1.49 1.65 2.436 1.644 1.782-.008 3.242-.94 4.364-2.04-.088.059-.08.492-.08.602.007 2.002 3.821 2.068 5.031.843l.03-.11c-.176.404.22.639.506.815.8.491 1.122.447 2.017.447 1.496-.007 2.032-.462 2.897-1.614h-.11l-.03.169c.866 1.313 4.886-.858 4.042-2.993 1.423 0 1.174-1.885.668-2.501.213.117.337.25.814.279.235.014.924-.426.418-.932.631 0 1.145-.08 1.629-.455 1.21-.931 1.041-2.97-.404-3.066.228-.198.367-.506.338-1.122-.177-3.726-4.9-3.74-4.9-1.782 0 .117.19.587.286.645-.902-.11-1.76 1.533-.895 1.944-.25-.044-.367.066-.535.227-.455-2.772-4.717-.476-3.316 1.218-.719.477-.557 1.995-.557 1.995 0-.917-1.856-1.115-2.304.037l.11-.059c-.19-.843-.506-1.232-1.041-1.232-.345 0-.587.198-.954.623l.008.015z" fill="#fff"/><path fill-rule="evenodd" clip-rule="evenodd" d="M1.047 78.861a3.386 3.386 0 013.381-3.396 3.397 3.397 0 013.404 3.382A3.396 3.396 0 014.45 82.25a3.396 3.396 0 01-3.403-3.381v-.008z" fill="#E7E7E6"/><path fill-rule="evenodd" clip-rule="evenodd" d="M7.795 78.105a.894.894 0 111.79 0 .894.894 0 11-1.79 0zm2.648 3.104c0-.66.529-1.189 1.189-1.196.66 0 1.188.528 1.195 1.188a1.188 1.188 0 11-2.377.007h-.007zm.639-4.314a2.766 2.766 0 012.765-2.78 2.766 2.766 0 012.78 2.765 2.766 2.766 0 01-2.765 2.78 2.766 2.766 0 01-2.78-2.765zm5.971 3.682a.92.92 0 01.924-.924.92.92 0 01.924.924.92.92 0 01-.924.924.92.92 0 01-.924-.924zm3.197-.345c0-.565.455-1.027 1.027-1.027.565 0 1.027.455 1.027 1.027 0 .565-.455 1.027-1.027 1.027a1.025 1.025 0 01-1.027-1.027zm-.191-3.49c0-.83.667-1.497 1.496-1.504.829 0 1.496.667 1.504 1.496 0 .829-.668 1.497-1.497 1.504a1.504 1.504 0 01-1.503-1.496z" fill="#E7E7E6"/><path fill-rule="evenodd" clip-rule="evenodd" d="M22.816 76.47a2.492 2.492 0 012.487-2.502 2.497 2.497 0 012.501 2.487 2.492 2.492 0 01-2.486 2.501 2.497 2.497 0 01-2.502-2.487z" fill="#E7E7E6"/><path fill-rule="evenodd" clip-rule="evenodd" d="M17.162 78.773a3.16 3.16 0 013.162-3.176 3.16 3.16 0 013.176 3.161 3.16 3.16 0 01-3.162 3.176 3.16 3.16 0 01-3.176-3.161z" fill="#E7E7E6"/><path fill-rule="evenodd" clip-rule="evenodd" d="M22.979 80.122a1.982 1.982 0 013.96-.015c0 1.093-.88 1.98-1.973 1.988-1.093 0-1.98-.88-1.988-1.973z" fill="#E7E7E6"/><path fill-rule="evenodd" clip-rule="evenodd" d="M25.883 79.617c0-.822.66-1.482 1.482-1.49.821 0 1.481.66 1.489 1.482a1.49 1.49 0 01-1.482 1.49 1.49 1.49 0 01-1.49-1.483zm1.892-4.482a1.17 1.17 0 112.34 0c0 .645-.521 1.174-1.174 1.174a1.17 1.17 0 01-1.173-1.167l.007-.007zm-12.22 5.567c0-.77.623-1.394 1.393-1.401.77 0 1.394.623 1.401 1.394 0 .77-.623 1.393-1.393 1.4-.77 0-1.394-.623-1.401-1.393zm-3.227 1.313c0-.712.572-1.291 1.291-1.291.712 0 1.291.572 1.291 1.29 0 .712-.572 1.292-1.284 1.292a1.3 1.3 0 01-1.298-1.291zm-5.816-.258c.058-1.034.953-1.921 1.995-1.98 1.041-.059 1.84.726 1.782 1.753-.059 1.034-.953 1.922-1.995 1.98-1.042.067-1.841-.718-1.79-1.753h.008zm-5.369.83c0-.704.564-1.276 1.276-1.284.704 0 1.276.565 1.284 1.276 0 .705-.565 1.277-1.277 1.284a1.271 1.271 0 01-1.276-1.269l-.007-.007z" fill="#E7E7E6"/><path fill-rule="evenodd" clip-rule="evenodd" d="M7.156 82.308c0-.433.345-.778.778-.778.433 0 .777.345.777.778a.773.773 0 01-.777.777.773.773 0 01-.778-.777zm3.617.506c0-.322.264-.586.587-.586.323 0 .587.264.587.586a.588.588 0 01-.587.587.589.589 0 01-.587-.587zm-3.205-2.846c0-.792.639-1.438 1.438-1.445.792 0 1.438.638 1.445 1.438 0 .792-.638 1.438-1.438 1.445a1.446 1.446 0 01-1.445-1.438z" fill="#E7E7E6"/><path fill-rule="evenodd" clip-rule="evenodd" d="M10.443 80.607a1.62 1.62 0 011.614-1.621 1.618 1.618 0 01.015 3.235 1.615 1.615 0 01-1.621-1.614h-.008zm4.467 1.503a.836.836 0 111.672 0 .836.836 0 01-1.672 0zm-9.455.36c0-.375.3-.675.675-.675.374 0 .675.3.675.674a.673.673 0 01-.675.675.673.673 0 01-.675-.675z" fill="#E7E7E6"/><path fill-rule="evenodd" clip-rule="evenodd" d="M13.092 82.184a.91.91 0 111.82 0 .91.91 0 01-1.82 0zm3.9-.111a1.633 1.633 0 013.264-.015c0 .903-.726 1.63-1.628 1.636a1.636 1.636 0 01-1.636-1.628v.007zm3.375-.006c0-.61.492-1.1 1.1-1.1.61 0 1.1.49 1.1 1.1a1.1 1.1 0 11-2.2 0z" fill="#E7E7E6"/><path fill-rule="evenodd" clip-rule="evenodd" d="M14.434 79.044c0-.873.704-1.584 1.577-1.592a1.59 1.59 0 011.591 1.577c0 .873-.704 1.585-1.577 1.592a1.592 1.592 0 01-1.591-1.577zm9.396 2.126a1.1 1.1 0 011.1-1.1c.61 0 1.1.492 1.108 1.1 0 .61-.491 1.101-1.1 1.108a1.11 1.11 0 01-1.108-1.1v-.007z" fill="#fff"/><path fill-rule="evenodd" clip-rule="evenodd" d="M21.219 81.722c0-.858.69-1.555 1.547-1.563.859 0 1.556.69 1.563 1.548 0 .858-.69 1.555-1.555 1.563-.858 0-1.555-.69-1.555-1.555v.007zm7.304-1.614c0-.755.61-1.364 1.365-1.371.755 0 1.364.608 1.371 1.364 0 .755-.608 1.364-1.364 1.364a1.373 1.373 0 01-1.372-1.364v.007z" fill="#fff"/><path fill-rule="evenodd" clip-rule="evenodd" d="M29.287 78.692c0-.755.609-1.364 1.364-1.371.756 0 1.365.608 1.372 1.364 0 .755-.609 1.364-1.364 1.371a1.373 1.373 0 01-1.372-1.364zM14.91 82.448c0-.807.653-1.467 1.46-1.467.807 0 1.467.653 1.474 1.46 0 .814-.653 1.467-1.467 1.467a1.465 1.465 0 01-1.467-1.46zm-4.635-.617c0-.902.726-1.628 1.621-1.636.902 0 1.628.727 1.636 1.629 0 .902-.726 1.628-1.629 1.635a1.634 1.634 0 01-1.635-1.62l.007-.008z" fill="#fff"/><path fill-rule="evenodd" clip-rule="evenodd" d="M10.62 80.416c0-.851.681-1.54 1.532-1.548.851 0 1.54.682 1.548 1.533 0 .851-.682 1.54-1.533 1.548-.851 0-1.54-.682-1.548-1.533zm-4.453 2.523a1.146 1.146 0 012.289 0c0 .63-.506 1.144-1.144 1.144a1.152 1.152 0 01-1.152-1.144h.007zm-5.554.322a.92.92 0 01.925-.924.92.92 0 01.924.924.92.92 0 01-.925.925.92.92 0 01-.924-.925z" fill="#fff"/></svg>