<svg width="120" height="118" fill="none" xmlns="http://www.w3.org/2000/svg"><path fill-rule="evenodd" clip-rule="evenodd" d="M9.424 117.999c19.555-11.812 98.992-45.671 104.093-60.749l-.683-.768C94.526 58.564 23.984 92.05 8.293 100.697c2.158-.532 11.403-.781 13.874-1.252.495.068-14.294 10.813-22.167 16.217 7.21-3.12 21.488-9.048 21.488-9.048L9.424 118v-.001z" fill="#fff"/><path d="M13.705 114.825c19.555-11.812 100.59-48.665 105.692-63.742l-.683-.768c-18.308 2.081-86.201 38.816-101.89 47.463 2.157-.532 9.84-2.622 12.31-3.093-6.332 7.205-14.996 12.039-22.868 17.443 7.21-3.119 21.3-9.921 21.3-9.921l-13.86 12.619-.001-.001z" fill="#1895A7"/><path fill-rule="evenodd" clip-rule="evenodd" d="M117.324 35.13l-5.117.267-79.434 36.942s3.718 17.202 4.309 17.941c.582.737 6.724 6.144 7.366 6.358 44.006-21.406 65.251-35.2 68.034-40.715l4.842-20.792v-.001z" fill="#1C1C1B"/><path d="M117.324 35.13l-5.117.267-79.434 36.942s.51 2.353 1.178 5.354c3.756 3.92 9.37 9.68 9.883 9.6.77-.12 60.709-33.558 62.96-35.144 2.011-1.41 7.616-8.143 8.795-9.577l1.735-7.443z" fill="#fff"/><path fill-rule="evenodd" clip-rule="evenodd" d="M103.57 51.479c7.189-5.776 13.452-13.08 13.629-16.727-2.735-.835-15.746 4.14-22.211 6.885l-62.09 30.317s7.75 9.93 10.459 12.441c.846.79 60.213-32.916 60.213-32.916z" fill="#5E5E5D"/><path d="M103.569 51.478c5.988-4.806 11.325-10.67 13.049-14.603-4.059.14-15.358 4.499-21.238 6.991L34.307 73.743c2.36 2.98 7.063 8.813 9.05 10.652.846.79 60.212-32.916 60.212-32.916z" fill="#1C1C1B"/><path fill-rule="evenodd" clip-rule="evenodd" d="M98.472 42.407s-2.4-.935-3.222-.716c-.83.222-50.591 20.851-50.768 22.66-.055.562 1.099 5.589 1.099 5.589l5.908 7.164c34.595-19.142 51.938-28.865 52.664-29.525 0 0-.199-3.792-.242-4.007-1.872-1.342-5.361-.928-5.44-1.165z" fill="#D8D8D7"/><path fill-rule="evenodd" clip-rule="evenodd" d="M98.215 39.292s-2.392-.934-3.22-.713C94.17 38.8 47.012 62 45.608 62.812c-1.406.818-1.063 1.78-1.063 1.78l6.282 7.375c.567.503 1.198.564 1.895.185l50.26-26.741s1.472-1.509.8-2.005c-1.7-1.263-5.476-3.847-5.567-4.114z" fill="#fff"/><path fill-rule="evenodd" clip-rule="evenodd" d="M98.033 38.676s-2.322-.87-3.132-.66c-.807.215-49.193 19.886-49.362 21.58-.056.527 1.059 5.243 1.059 5.243l5.663 6.624 50.26-27.064c.386-.255.648-.554.775-.89 0 0 .202-3.461-.078-3.652-1.807-1.257-5.108-.96-5.185-1.18z" fill="#D8D8D7"/><path fill-rule="evenodd" clip-rule="evenodd" d="M97.795 35.744s-1.57-1.23-3.127-.654c-.791.283-46.663 22.284-48.039 23.057-1.37.775-1.037 1.68-1.037 1.68l6.048 6.82c.546.465 1.16.518 1.844.16l48.918-25.33s1.439-1.423.793-1.883c-1.66-1.185-5.193-3.65-5.401-3.849h.001z" fill="#fff"/><path d="M58.421 60.477l-11.06-2.955 6.783-2.997 10.423 2.946-6.146 3.006zm12.147-5.995l-11.06-2.955 6.783-2.997 8.913 2.208-4.636 3.744zm9.825-5.295l-10.711-3.023 6.783-2.997 8.992 2.288-5.064 3.732zm9.949-5.624l-8.09-2.577 5.157-2.578 7.828 1.524-4.895 3.631z" fill="#1C1C1B"/><path fill-rule="evenodd" clip-rule="evenodd" d="M107.57 42.921L105.674 9.78l-.516-9.556s-.574-.504-.592 0c-.013.502 1.621 43.25 1.678 43.686.046.43 1.479.394 1.479.394l-.153-1.384v.001z" fill="#fff"/><path fill-rule="evenodd" clip-rule="evenodd" d="M105.147 1.396l-.237 1.117s11.337 32.71 11.399 33.14c.047.431.694-.45.694-.45S105.262 1.715 105.147 1.397v-.001zm.472 9.824l-.299.634s8.587 25.815 8.496 26.36c-.084.537.697.156.733-.2.032-.354-8.93-26.794-8.93-26.794zm-.684 2.458s-4.819 24.283-4.676 24.875c.143.59.588-.178.588-.178l4.088-24.697zm-64.37 66.469l-1.061-39.97-.33-9.547s-.443-.518-.457-.018c-.02.5.572 49.05.607 49.48.035.432 1.354 1.44 1.354 1.44l-.114-1.386v.001z" fill="#fff"/><path fill-rule="evenodd" clip-rule="evenodd" d="M39.16 31.798l-.201 1.107s8.453 39.82 8.49 40.25c.029.423.542-.433.542-.433s-8.75-40.604-8.833-40.924h.001zm.29 9.811l-.231.626s6.333 32.86 6.268 33.396c-.075.535.539.176.57-.172.03-.357-6.607-33.85-6.607-33.85zm-.543 2.435S34.791 74.998 34.9 75.589c.108.596.46-.155.46-.155l3.548-31.39zm65.736-43.04c-7.87 29.89-39.578 38.326-65.321 29.477-.264-.16.373.879-.242.783 30.11 6.822 55.684 2.486 65.62-29.915.243-.788-.199.212-.057-.347v.002zM39.146 31.342c-1.706 9.884-3.965 18.808-5.7 41.62l5.7-41.62z" fill="#fff"/><path fill-rule="evenodd" clip-rule="evenodd" d="M98.946 43.644l-1.112.61.3 2.167 1.164-.72s-.271-1.854-.352-2.058v.001zm-3.011 3.846s-.267-1.899-.355-2.098l-1.115.611.284 2.214 1.186-.727zm-3.379 1.79s-.27-1.938-.35-2.144l-1.118.614.276 2.26 1.192-.73zm-3.376 1.795s-.276-1.983-.358-2.187l-1.12.617.253 2.306 1.224-.737v.001zm-3.388 1.799s-.274-2.022-.36-2.224l-1.123.614.245 2.349 1.238-.739zm-3.398 1.804s-.284-2.064-.363-2.267l-1.127.615.237 2.399 1.252-.749.001.002zm-3.401 1.807s-.284-2.104-.37-2.308l-1.129.62.22 2.442 1.278-.754h.001zm-3.416 1.814s-.283-2.146-.361-2.353l-1.14.62.205 2.494 1.295-.761h.001zm-3.419 1.818s-.29-2.186-.375-2.398l-1.127.626.188 2.538 1.314-.766zm-3.43 1.823s-.285-2.236-.37-2.442l-1.137.624.17 2.584 1.337-.767zm-3.438 1.825s-.291-2.273-.373-2.481l-1.144.622.166 2.632 1.35-.774v.001zm-3.45 1.828s-.286-2.315-.371-2.524l-1.143.627.145 2.679 1.368-.782zm-3.454 1.834s-.292-2.358-.375-2.566l-1.15.629.14 2.726 1.387-.788h-.002zm41.726-20.344l-1.126.645.248 2.422 1.174-.767s-.221-2.075-.296-2.3zm-3.082 4.2s-.221-2.12-.3-2.353l-1.12.652.225 2.477 1.195-.775v-.001zm-3.389 1.899s-.224-2.169-.303-2.398l-1.127.65.217 2.53 1.212-.782h.001zm-3.397 1.906s-.225-2.216-.302-2.441l-1.127.646.198 2.58 1.23-.785zM86.84 57s-.227-2.26-.308-2.49l-1.13.653.182 2.63 1.256-.794zm-3.422 1.915s-.223-2.308-.3-2.545l-1.132.665.173 2.68 1.26-.8h-.001zm-3.423 1.921s-.218-2.354-.298-2.584l-1.136.656.156 2.736 1.277-.806.001-.002zm-3.424 1.924s-.224-2.398-.305-2.636l-1.145.665.143 2.783 1.307-.81v-.001zm-3.448 1.932s-.224-2.452-.303-2.685l-1.138.663.12 2.834 1.32-.812zm-3.448 1.934s-.221-2.499-.302-2.733l-1.14.668.102 2.888 1.34-.823zm-3.453 1.944s-.235-2.547-.307-2.782l-1.147.668.089 2.942 1.365-.826v-.002zm-3.474 1.947s-.222-2.595-.304-2.834l-1.143.672.07 2.992 1.376-.831.002.001zm-3.468 1.951s-.232-2.65-.303-2.882l-1.16.671.053 3.045 1.41-.834z" fill="#727171"/><path fill-rule="evenodd" clip-rule="evenodd" d="M96.54 40.915l-1.161-10.736-6.131 1.18 1.095 12.207c1.09 1.533 6.211-.44 6.197-2.65v-.001z" fill="#E67900"/><path d="M95.433 30.717l-.054-.538-6.131 1.18 1.095 12.207c.4.566 1.354.652 2.4.427a6.332 6.332 0 01-.732-.173c-1.299-.41 3.422-13.103 3.422-13.103z" fill="#AB3700"/><path d="M95.779 33.962l-.411-3.784-6.12 1.18.368 4.09c1.347 1.237 6.173.62 6.163-1.486z" fill="#1C1C1B"/><path fill-rule="evenodd" clip-rule="evenodd" d="M95.545 30.328c-.114-1-1.589-1.613-3.305-1.363-1.718.254-3.023 1.273-2.915 2.275.107 1.008 1.59 1.619 3.308 1.367 1.72-.257 3.026-1.276 2.912-2.279z" fill="#fff"/><path d="M94.887 30.36c-.086-.758-1.192-1.218-2.487-1.028-1.295.187-2.28.955-2.191 1.71.077.758 1.19 1.217 2.486 1.03 1.295-.191 2.275-.954 2.192-1.712z" fill="#1C1C1B"/><path fill-rule="evenodd" clip-rule="evenodd" d="M86.151 46.244l-1.116-10.798-6.158 1.191 1.038 12.28c1.084 1.542 6.24-.445 6.236-2.673z" fill="#E67900"/><path d="M85.094 35.981l-.06-.537-6.157 1.192 1.038 12.279c.399.566 1.357.659 2.405.429a5.16 5.16 0 01-.735-.175c-1.298-.408 3.509-13.188 3.509-13.188z" fill="#AB3700"/><path d="M85.414 39.252l-.387-3.806-6.15 1.191.345 4.114c1.347 1.245 6.204.623 6.192-1.5z" fill="#1C1C1B"/><path fill-rule="evenodd" clip-rule="evenodd" d="M85.206 35.6c-.106-1.012-1.588-1.627-3.31-1.37-1.732.252-3.051 1.274-2.942 2.287.095 1.01 1.587 1.626 3.32 1.372 1.726-.255 3.037-1.283 2.931-2.288h.001z" fill="#fff"/><path d="M84.548 35.624c-.08-.763-1.204-1.223-2.498-1.028-1.302.19-2.292.96-2.218 1.719.08.763 1.204 1.222 2.496 1.033 1.307-.19 2.295-.966 2.219-1.724z" fill="#1C1C1B"/><path fill-rule="evenodd" clip-rule="evenodd" d="M76.133 51.547L75.071 40.68l-6.196 1.203.987 12.358c1.074 1.552 6.271-.45 6.271-2.693z" fill="#E67900"/><path d="M75.125 41.225l-.052-.545-6.196 1.203.987 12.358c.399.57 1.357.66 2.41.433a7.905 7.905 0 01-.737-.174c-1.303-.411 3.588-13.274 3.588-13.274z" fill="#AB3700"/><path d="M75.441 44.513l-.377-3.827-6.189 1.197.331 4.146c1.347 1.248 6.227.62 6.235-1.516z" fill="#1C1C1B"/><path fill-rule="evenodd" clip-rule="evenodd" d="M75.245 40.838c-.105-1.017-1.59-1.633-3.323-1.378-1.737.255-3.073 1.287-2.974 2.307.103 1.018 1.594 1.632 3.33 1.375 1.74-.258 3.065-1.289 2.967-2.304z" fill="#fff"/><path d="M74.573 40.864c-.077-.764-1.192-1.226-2.497-1.037-1.31.198-2.307.971-2.236 1.733.077.768 1.199 1.231 2.506 1.04 1.306-.195 2.307-.97 2.227-1.736z" fill="#1C1C1B"/><path fill-rule="evenodd" clip-rule="evenodd" d="M64.566 57.47l-1.013-10.94-6.229 1.217.92 12.436c1.075 1.566 6.303-.459 6.323-2.714z" fill="#E67900"/><path d="M63.61 47.078l-.057-.549-6.229 1.218.92 12.436c.4.577 1.36.668 2.424.437a5.924 5.924 0 01-.74-.179c-1.314-.413 3.684-13.364 3.684-13.364l-.001.001z" fill="#AB3700"/><path d="M63.905 50.386l-.35-3.857-6.229 1.218.31 4.166c1.347 1.258 6.252.62 6.27-1.527h-.001z" fill="#1C1C1B"/><path fill-rule="evenodd" clip-rule="evenodd" d="M63.732 46.684c-.096-1.022-1.586-1.639-3.336-1.383-1.744.258-3.089 1.293-2.995 2.324.094 1.026 1.586 1.643 3.337 1.386 1.75-.261 3.091-1.3 2.994-2.325v-.002z" fill="#fff"/><path d="M63.058 46.712c-.075-.767-1.195-1.234-2.504-1.037-1.318.192-2.332.977-2.26 1.745.075.776 1.197 1.24 2.515 1.044 1.318-.197 2.325-.98 2.248-1.752h.001z" fill="#1C1C1B"/><path fill-rule="evenodd" clip-rule="evenodd" d="M104.298 56.853c.006-.235-.144-.385-.33-.34-.185.038-.347.261-.353.498-.006.226.141.38.334.336.182-.04.343-.268.349-.494zm-1.922 1.034c.002-.23-.144-.383-.335-.34-.181.047-.343.266-.35.497-.002.233.144.38.33.34.193-.043.348-.266.355-.498v.001zm-1.925 1.043c.007-.233-.145-.387-.327-.342-.197.042-.352.264-.358.496-.007.231.14.387.334.342.19-.042.344-.268.351-.495zm-1.929 1.04c.003-.23-.143-.385-.334-.34-.19.044-.345.262-.352.495-.006.231.144.389.33.348.187-.046.349-.273.355-.502h.001zm-1.932 1.044c.01-.231-.14-.387-.33-.344-.184.042-.343.268-.354.496-.006.233.144.39.327.345.19-.045.353-.264.356-.497zm-1.93 1.043c.006-.232-.144-.386-.332-.344-.193.044-.353.269-.353.5-.01.234.14.388.327.34.195-.037.35-.265.357-.496zM92.717 63.1c.014-.232-.136-.385-.323-.342-.193.045-.35.271-.357.503-.003.236.143.386.327.343.194-.046.354-.267.354-.504h-.001zm-1.931 1.05c.007-.236-.135-.386-.334-.342-.183.044-.347.267-.354.502-.008.23.14.387.333.34.183-.043.348-.268.355-.5zm-1.942 1.047c.008-.235-.143-.385-.333-.34-.188.043-.348.267-.356.501-.008.233.139.387.334.342.183-.043.347-.27.355-.503zm-1.947 1.053c.011-.234-.135-.39-.33-.346-.19.044-.347.268-.356.503-.007.233.143.389.334.342.187-.042.348-.267.352-.5zm-1.952 1.05c.016-.233-.135-.388-.319-.341-.2.039-.356.261-.368.499-.004.235.142.39.333.344.188-.045.349-.268.354-.502zm-1.941 1.05c.008-.23-.142-.385-.33-.343-.196.047-.35.268-.365.503-.001.238.146.395.334.348.195-.046.353-.272.362-.508h-.001zm-1.956 1.06c.012-.236-.138-.39-.33-.347-.184.042-.35.269-.358.502-.009.237.137.389.333.349.184-.044.35-.27.355-.505zm-1.951 1.054c.008-.235-.145-.389-.327-.348-.2.05-.358.273-.367.505-.009.235.134.389.33.348.191-.044.354-.272.362-.506h.002zm-1.959 1.058c.008-.239-.142-.394-.334-.348-.185.046-.35.277-.36.509-.01.23.141.39.333.344.184-.044.344-.27.36-.505zm-1.959 1.058c.005-.233-.145-.392-.334-.341-.189.04-.351.268-.364.502-.006.234.145.39.33.346.196-.044.36-.269.368-.507zm-1.963 1.06c.01-.234-.137-.39-.334-.341-.19.041-.353.269-.362.5-.006.237.14.39.333.35.193-.05.352-.274.362-.51zm-1.97 1.064c.013-.237-.137-.394-.33-.348-.193.043-.357.273-.363.508-.01.238.136.39.334.346.185-.044.353-.27.359-.506zm-1.966 1.063c.01-.237-.14-.393-.33-.345-.198.04-.358.268-.372.503-.002.234.145.394.33.348.194-.042.36-.273.372-.507v.001zm-1.972 1.065c.01-.237-.14-.393-.338-.346-.18.046-.35.271-.356.511-.014.234.133.387.326.342.197-.041.358-.267.368-.507zm-1.975 1.069c.006-.24-.14-.396-.334-.353-.194.048-.355.274-.361.511-.014.239.136.392.326.351.194-.046.355-.273.37-.509h-.001zm-1.978 1.067c.01-.238-.14-.393-.334-.35-.186.046-.358.276-.366.51-.011.242.14.396.326.35.194-.045.355-.275.373-.51h.001zm-1.98 1.066c.008-.235-.14-.391-.334-.346-.189.046-.363.27-.367.51-.01.24.136.392.33.35.198-.046.36-.276.37-.514zm-1.983 1.076c.01-.239-.14-.398-.335-.352-.194.048-.352.275-.367.513-.01.238.132.394.333.348.191-.043.357-.273.369-.509zm-1.989 1.07c.015-.24-.135-.395-.33-.35-.187.046-.357.278-.37.515-.01.236.136.393.334.345.187-.04.357-.27.365-.51h.001zm-1.985 1.074c.012-.237-.138-.394-.33-.348-.19.045-.357.276-.373.513-.012.235.139.396.33.35.191-.044.361-.273.373-.515zm-1.996 1.076c.008-.24-.135-.394-.33-.35-.188.047-.359.273-.37.513-.013.238.133.393.325.353.203-.048.366-.276.375-.515zm51.166-25.368c-.001-.228-.148-.382-.327-.342-.196.05-.355.265-.353.502-.006.227.141.382.327.337.19-.044.343-.267.353-.497zm-1.925 1.042c.007-.234-.144-.383-.334-.345-.193.048-.348.27-.354.5 0 .233.148.385.334.342.19-.045.348-.267.354-.497zm-1.921 1.04c-.001-.226-.144-.384-.337-.34-.187.045-.346.266-.348.502-.011.23.136.38.326.338.189-.042.344-.269.359-.5zm-1.936 1.044c.006-.23-.14-.387-.327-.341-.19.047-.35.266-.352.5-.006.233.136.386.327.34.19-.044.35-.265.352-.5zm-1.933 1.048c.014-.236-.141-.385-.327-.34-.194.038-.353.264-.357.495-.003.238.148.388.33.343.19-.042.35-.268.353-.498zm-1.936 1.047c.007-.232-.136-.386-.326-.342-.194.046-.35.268-.355.498-.01.235.137.386.327.345.186-.04.354-.268.354-.501zm-1.936 1.047c.011-.231-.14-.39-.326-.34-.19.041-.347.264-.358.499-.01.23.14.388.33.34.19-.044.346-.27.354-.498zm-1.94 1.054c.007-.239-.144-.392-.327-.347-.195.042-.355.266-.355.501-.007.233.136.388.327.344.187-.045.347-.27.355-.5v.002zm-1.943 1.05c.011-.237-.142-.392-.326-.347-.191.045-.356.27-.364.507 0 .23.147.385.334.34.19-.045.349-.267.356-.5zm-1.947 1.052c.008-.239-.135-.388-.33-.349-.191.047-.352.271-.354.503-.015.236.137.396.327.344.195-.039.352-.27.358-.498zm-1.947 1.052c.007-.235-.14-.388-.327-.343-.19.047-.353.268-.362.505-.004.23.139.383.335.341.184-.043.348-.268.354-.503zm-1.951 1.056c.015-.233-.143-.392-.327-.343-.196.042-.357.268-.366.502-.001.23.15.391.335.345.191-.042.353-.267.358-.504zm-1.952 1.058c.005-.237-.138-.39-.33-.347-.196.041-.354.27-.366.509-.005.234.142.385.334.34.188-.045.35-.27.362-.502zm-1.959 1.056c.013-.23-.142-.391-.327-.346-.192.041-.35.269-.367.505-.001.239.146.39.327.344.2-.041.358-.269.367-.504v.001zm-1.96 1.059c.009-.233-.134-.386-.33-.344-.189.045-.352.269-.365.504-.001.239.142.397.33.351.193-.043.355-.271.365-.51zm-1.962 1.065c.009-.236-.137-.394-.33-.345-.189.041-.355.273-.362.506-.005.233.137.393.33.348.193-.046.356-.273.362-.509zm-1.962 1.063c.006-.233-.137-.394-.337-.345-.189.041-.349.272-.355.505-.01.238.134.393.326.352.193-.047.352-.277.366-.512zm-1.971 1.063c.01-.238-.137-.392-.327-.346-.192.046-.36.275-.367.512-.014.232.138.388.33.344.193-.042.358-.269.363-.51h.001zm-1.971 1.069c.01-.237-.137-.392-.333-.348-.187.043-.355.27-.361.51-.007.233.136.386.33.346.194-.046.354-.27.364-.509v.001zm-1.974 1.063c.01-.234-.133-.388-.33-.346-.19.043-.354.27-.368.507-.007.238.136.397.334.35.19-.04.354-.271.365-.512l-.001.001zm-1.977 1.068c.015-.233-.133-.389-.326-.343-.193.045-.355.272-.374.508-.01.241.148.396.335.35.194-.047.358-.272.365-.515zm-1.974 1.074c.007-.233-.136-.393-.334-.346-.194.044-.357.271-.37.509-.004.238.132.397.333.35.194-.043.356-.27.37-.513h.001zm-1.988 1.072c.011-.239-.14-.39-.33-.35-.186.046-.36.275-.364.513-.018.24.136.394.327.352.194-.048.356-.275.367-.515zm-1.985 1.072c.011-.233-.132-.389-.333-.348-.186.048-.353.276-.36.514-.015.24.131.392.326.349.195-.04.36-.276.368-.515zm-1.988 1.077c.013-.233-.135-.394-.325-.35-.195.042-.365.278-.373.517-.015.234.135.396.337.347.187-.046.35-.276.361-.514zm-1.99 1.077c.012-.238-.136-.397-.327-.349-.198.05-.365.273-.374.514-.004.238.135.396.33.349.195-.046.362-.274.37-.513zm-1.989 1.08c.016-.238-.135-.4-.33-.35-.195.043-.363.274-.378.517-.008.239.143.394.334.35.195-.047.358-.278.374-.517zm50.944-25.073c.005-.233-.145-.384-.335-.345-.181.05-.347.27-.346.5-.01.236.137.385.324.342.189-.041.344-.266.357-.497zm-1.926 1.042c0-.23-.145-.387-.334-.34-.186.045-.344.268-.351.497-.006.23.142.39.327.342.191-.04.353-.264.358-.5zm-1.933 1.045c.01-.232-.14-.388-.334-.342-.182.042-.341.27-.348.501-.006.232.141.383.328.343.193-.047.352-.268.355-.502h-.001zm-1.926 1.049c.006-.232-.146-.39-.335-.345-.191.049-.35.272-.352.504-.007.234.14.382.33.343.187-.045.342-.27.357-.502zm-1.939 1.047c.004-.234-.14-.386-.33-.345-.192.043-.347.27-.354.505-.006.228.144.384.327.34.19-.04.353-.27.357-.5zm-1.937 1.05c.003-.234-.14-.39-.331-.346-.19.048-.35.27-.353.505-.01.233.143.383.335.344.182-.045.342-.269.35-.503zm-1.944 1.054c.011-.237-.136-.39-.323-.343-.195.041-.351.268-.359.499-.007.23.144.388.327.346.19-.044.355-.273.355-.502zm-1.934 1.05c.008-.236-.143-.387-.334-.346-.183.045-.347.269-.355.505-.008.231.14.388.327.345.19-.045.348-.268.362-.504zm-1.953 1.051c.01-.236-.135-.386-.327-.344-.192.049-.349.27-.356.505-.008.235.144.392.33.347.196-.046.35-.27.354-.507l-.001-.001zm-1.948 1.059c.008-.234-.135-.388-.326-.34-.192.04-.35.263-.358.496-.015.24.143.393.327.348.195-.044.356-.268.357-.505v.001zm-1.95 1.056c.016-.234-.135-.389-.332-.344-.184.047-.348.272-.354.504-.007.237.135.386.335.344.184-.043.345-.269.35-.504zM83.277 73c.001-.237-.141-.389-.334-.347-.192.046-.35.272-.363.507-.005.234.146.388.331.347.192-.047.35-.273.366-.508zm-1.961 1.06c.008-.232-.134-.39-.327-.346-.193.046-.351.271-.36.506-.008.237.142.39.327.347.192-.047.354-.27.36-.508zm-1.952 1.065c.005-.238-.145-.397-.33-.352-.197.047-.364.274-.366.51-.008.234.135.392.331.348.189-.046.356-.276.364-.506h.001zm-1.967 1.059c.013-.231-.139-.389-.332-.346-.192.042-.351.27-.368.506-.002.238.146.397.335.35.191-.046.352-.273.365-.51zm-1.962 1.066c.005-.239-.145-.39-.335-.349-.192.048-.352.27-.365.51-.006.237.141.39.334.347.188-.045.352-.275.365-.507h.001zm-1.971 1.065c.006-.235-.137-.39-.33-.346-.193.044-.354.27-.37.51-.006.236.148.393.334.34.193-.037.36-.265.367-.505v.001zm-1.97 1.069c.013-.237-.137-.394-.33-.347-.194.042-.358.272-.365.51-.01.232.137.39.331.349.19-.048.358-.277.364-.512zm-1.974 1.07c.006-.237-.137-.393-.33-.348-.194.043-.354.273-.37.509-.006.239.138.395.332.349.194-.046.354-.272.368-.51zm-1.979 1.07c.01-.239-.133-.393-.327-.35-.194.046-.355.273-.361.509-.015.239.134.4.326.353.19-.046.359-.271.362-.512zM65.564 82.6c.014-.238-.133-.396-.327-.352-.194.044-.355.274-.366.513-.019.238.133.395.334.348.186-.05.348-.272.359-.51v.001zm-1.982 1.072c.018-.24-.133-.394-.326-.352-.194.047-.36.277-.375.514-.003.238.148.397.334.35.194-.044.356-.278.367-.512zm-1.978 1.072c.003-.24-.14-.392-.335-.347-.194.043-.364.274-.368.511-.01.242.136.398.331.353.19-.048.36-.277.372-.517zm-1.992 1.079c.014-.24-.136-.397-.331-.35-.194.045-.357.274-.368.517-.012.238.132.393.327.35.201-.047.364-.28.372-.517zm-1.99 1.081c.007-.24-.136-.396-.334-.352-.183.047-.358.274-.366.512-.02.239.135.4.33.355.199-.048.358-.275.37-.516zm-1.993 1.076c.012-.239-.135-.394-.33-.352-.195.045-.359.277-.37.52-.013.24.131.397.326.346.195-.042.366-.278.374-.515zm-1.995 1.083c.008-.239-.135-.396-.335-.348-.191.043-.355.27-.367.513-.012.241.135.399.327.352.195-.049.367-.277.375-.517z" fill="#FFF7AE"/></svg>