<svg width="28" height="28" fill="none" xmlns="http://www.w3.org/2000/svg"><circle cx="14" cy="14" r="14" fill="#F7931E"/><path d="M13.5 14.112c2.556 0 4.626-2.037 4.626-4.552 0-2.524-2.07-4.56-4.626-4.56-2.556 0-4.626 2.037-4.626 4.552 0 2.515 2.07 4.56 4.626 4.56zm0-6.797c1.256 0 2.273 1 2.273 2.237 0 1.236-1.017 2.236-2.273 2.236-1.256 0-2.282-.992-2.282-2.236 0-1.236 1.026-2.237 2.282-2.237zm5.334 7.354c-.266-.513-.982-.949-1.946-.2-1.3 1.01-3.388 1.01-3.388 1.01s-2.088 0-3.388-1.01c-.964-.749-1.69-.313-1.946.2-.46.896.062 1.332 1.221 2.071.99.627 2.353.862 3.237.949l-.734.722-2.724 2.68a1.033 1.033 0 000 1.48l.124.122c.415.41 1.088.41 1.503 0l2.725-2.68 2.724 2.68c.416.41 1.088.41 1.504 0l.123-.122a1.034 1.034 0 000-1.48l-2.733-2.688-.734-.723c.885-.087 2.23-.322 3.211-.948 1.159-.731 1.68-1.166 1.22-2.063z" fill="#fff"/></svg>