<svg width="28" height="28" fill="none" xmlns="http://www.w3.org/2000/svg"><circle cx="14" cy="14" r="14" fill="#CB1F27"/><path d="M13.994 6C9.578 6 6 9.581 6 14.003c0 3.278 1.97 6.09 4.784 7.332-.024-.56-.006-1.23.14-1.837.151-.648 1.03-4.364 1.03-4.364s-.256-.513-.256-1.265c0-1.184.688-2.071 1.544-2.071.729 0 1.078.548 1.078 1.202 0 .729-.466 1.825-.705 2.84-.198.852.426 1.54 1.265 1.54 1.515 0 2.534-1.948 2.534-4.252 0-1.756-1.182-3.068-3.327-3.068-2.423 0-3.933 1.808-3.933 3.832 0 .7.204 1.19.525 1.57.146.174.169.244.116.443-.04.145-.128.501-.163.641-.052.204-.215.274-.402.198-1.119-.454-1.637-1.68-1.637-3.056 0-2.275 1.917-4.999 5.716-4.999 3.053 0 5.063 2.21 5.063 4.585 0 3.138-1.742 5.483-4.312 5.483-.862 0-1.672-.467-1.952-.998 0 0-.466 1.844-.565 2.2-.169.618-.5 1.23-.804 1.714.717.21 1.48.327 2.267.327C18.422 22 22 18.419 22 13.997 21.988 9.581 18.41 6 13.994 6z" fill="#fff"/></svg>