<svg width="180" height="45" fill="none" xmlns="http://www.w3.org/2000/svg"><path d="M163.936 37H36.064C27.19 37 20 31.053 20 23.713v-3.426C20 12.947 27.19 7 36.064 7h127.872C172.81 7 180 12.947 180 20.287v3.426C180 31.053 172.804 37 163.936 37z" fill="#940005"/><path d="M44.175 22.752C44.175 35.04 34.287 45 22.088 45 9.888 45 0 35.04 0 22.752S9.888.503 22.088.503c12.199 0 22.087 9.96 22.087 22.249z" fill="#940005"/><path d="M39.712 21.63c0 10.484-8.439 18.988-18.851 18.988-10.413 0-18.851-8.5-18.851-18.988S10.448 2.642 20.86 2.642c10.409 0 18.852 8.5 18.852 18.988z" fill="#EC1B23"/><path d="M33.87 18.878c0 7.588-6.36 13.74-14.203 13.74-7.845 0-14.204-6.152-14.204-13.74 0-7.587 6.36-13.738 14.204-13.738S33.87 11.29 33.87 18.878z" fill="#FFC600"/><path d="M22.613 8.41c0 4.64-3.89 8.41-8.69 8.41-4.8 0-8.69-3.764-8.69-8.41 0-4.641 3.89-8.41 8.69-8.41 4.8 0 8.69 3.764 8.69 8.41zm56.605 8.79h7.91v1.806h-5.656v2.016h2.716c1.185 0 2.086.247 2.702.742.625.495.938 1.209.938 2.142 0 .98-.345 1.74-1.036 2.282-.69.541-1.666.812-2.926.812h-4.648v-9.8zm4.522 8.12c.579 0 1.022-.112 1.33-.336.308-.233.462-.57.462-1.008 0-.859-.597-1.288-1.792-1.288h-2.268v2.632h2.268zm9.174 1.792c-.793 0-1.507-.163-2.142-.49a3.756 3.756 0 01-1.47-1.386c-.355-.588-.532-1.255-.532-2.002 0-.747.177-1.414.532-2.002a3.658 3.658 0 011.47-1.372c.635-.336 1.349-.504 2.142-.504.793 0 1.503.168 2.128.504a3.657 3.657 0 011.47 1.372c.355.588.532 1.255.532 2.002 0 .747-.177 1.414-.532 2.002a3.755 3.755 0 01-1.47 1.386c-.625.327-1.335.49-2.128.49zm0-1.792c.56 0 1.017-.187 1.372-.56.364-.383.546-.891.546-1.526s-.182-1.139-.546-1.512c-.355-.383-.812-.574-1.372-.574s-1.022.191-1.386.574c-.364.373-.546.877-.546 1.512s.182 1.143.546 1.526c.364.373.826.56 1.386.56zm9.216 1.792c-.803 0-1.526-.163-2.17-.49a3.833 3.833 0 01-1.498-1.386c-.355-.588-.532-1.255-.532-2.002 0-.747.177-1.414.532-2.002a3.733 3.733 0 011.498-1.372c.644-.336 1.367-.504 2.17-.504.793 0 1.484.168 2.072.504a2.908 2.908 0 011.302 1.414l-1.694.91c-.392-.69-.957-1.036-1.694-1.036-.569 0-1.041.187-1.414.56-.373.373-.56.882-.56 1.526s.187 1.153.56 1.526c.373.373.845.56 1.414.56.747 0 1.311-.345 1.694-1.036l1.694.924a3.002 3.002 0 01-1.302 1.4c-.588.336-1.279.504-2.072.504zm11.002-5.852h-2.548V27h-2.17v-5.74h-2.548v-1.792h7.266v1.792zm4.378 5.852c-.794 0-1.508-.163-2.142-.49a3.747 3.747 0 01-1.47-1.386c-.355-.588-.532-1.255-.532-2.002 0-.747.177-1.414.532-2.002a3.649 3.649 0 011.47-1.372c.634-.336 1.348-.504 2.142-.504.793 0 1.502.168 2.128.504a3.662 3.662 0 011.47 1.372c.354.588.532 1.255.532 2.002 0 .747-.178 1.414-.532 2.002a3.76 3.76 0 01-1.47 1.386c-.626.327-1.335.49-2.128.49zm0-1.792c.56 0 1.017-.187 1.372-.56.364-.383.546-.891.546-1.526s-.182-1.139-.546-1.512c-.355-.383-.812-.574-1.372-.574s-1.022.191-1.386.574c-.364.373-.546.877-.546 1.512s.182 1.143.546 1.526c.364.373.826.56 1.386.56zm5.632-5.852h2.17v2.94h3.276v-2.94h2.184V27h-2.184v-2.814h-3.276V27h-2.17v-7.532z" fill="#fff"/></svg>