<svg width="180" height="45" fill="none" xmlns="http://www.w3.org/2000/svg"><path d="M16.064 37h127.872C152.81 37 160 31.053 160 23.713v-3.426C160 12.947 152.81 7 143.936 7H16.064C7.19 7 0 12.947 0 20.287v3.426C0 31.053 7.196 37 16.064 37z" fill="#940005"/><path d="M135.825 22.752c0 12.288 9.888 22.248 22.087 22.248C170.112 45 180 35.04 180 22.752S170.112.503 157.912.503c-12.199 0-22.087 9.96-22.087 22.249z" fill="#940005"/><path d="M140.288 21.63c0 10.484 8.439 18.988 18.851 18.988 10.413 0 18.851-8.5 18.851-18.988s-8.438-18.988-18.851-18.988c-10.408 0-18.851 8.5-18.851 18.988z" fill="#EC1B23"/><path d="M146.13 18.878c0 7.588 6.359 13.74 14.203 13.74 7.845 0 14.204-6.152 14.204-13.74 0-7.587-6.359-13.738-14.204-13.738-7.844 0-14.203 6.151-14.203 13.738z" fill="#FFC600"/><path d="M157.387 8.41c0 4.64 3.889 8.41 8.69 8.41s8.691-3.764 8.691-8.41c0-4.641-3.89-8.41-8.691-8.41s-8.69 3.764-8.69 8.41zM27.206 17.2V27h-2.268v-4.018h-4.452V27h-2.268v-9.8h2.268v3.864h4.452V17.2h2.268zm5.815 9.912c-.793 0-1.507-.163-2.142-.49a3.755 3.755 0 01-1.47-1.386c-.354-.588-.532-1.255-.532-2.002 0-.747.178-1.414.532-2.002a3.657 3.657 0 011.47-1.372c.635-.336 1.349-.504 2.142-.504.794 0 1.503.168 2.128.504a3.658 3.658 0 011.47 1.372c.355.588.532 1.255.532 2.002 0 .747-.177 1.414-.532 2.002a3.756 3.756 0 01-1.47 1.386c-.625.327-1.334.49-2.128.49zm0-1.792c.56 0 1.018-.187 1.372-.56.364-.383.546-.891.546-1.526s-.182-1.139-.546-1.512c-.354-.383-.812-.574-1.372-.574s-1.022.191-1.386.574c-.364.373-.546.877-.546 1.512s.182 1.143.546 1.526c.364.373.826.56 1.386.56zm11.386-2.254c.887.299 1.33.896 1.33 1.792 0 .681-.256 1.209-.77 1.582-.513.373-1.278.56-2.295.56h-4.018v-7.532h3.85c.942 0 1.68.173 2.212.518.532.336.797.812.797 1.428 0 .373-.097.705-.294.994-.186.28-.457.5-.812.658zm-3.751-.504h1.651c.766 0 1.148-.27 1.148-.812 0-.532-.382-.798-1.148-.798h-1.651v1.61zm1.834 2.954c.802 0 1.203-.275 1.203-.826 0-.29-.093-.5-.28-.63-.186-.14-.48-.21-.881-.21h-1.876v1.666h1.834zm8.834-3.64c.98.01 1.723.229 2.227.658.503.43.755 1.045.755 1.848 0 .84-.284 1.489-.853 1.946-.57.457-1.377.686-2.422.686L47.362 27v-7.532h2.17v2.408h1.793zm3.794-2.408h2.17V27h-2.17v-7.532zm-4.284 5.992c.42.01.742-.08.966-.266.225-.187.337-.467.337-.84 0-.364-.112-.63-.337-.798-.214-.168-.536-.257-.965-.266l-1.303-.014v2.184h1.303zm8.56-5.992h2.17v4.48l3.668-4.48h2.002V27h-2.17v-4.48L61.41 27h-2.016v-7.532zm3.78-.812c-1.643 0-2.469-.723-2.478-2.17h1.428c.01.327.098.583.266.77.177.177.434.266.77.266s.592-.089.77-.266c.186-.187.28-.443.28-.77h1.456c-.01 1.447-.84 2.17-2.492 2.17zm14.968 8.512c-1.017 0-1.937-.22-2.758-.658a4.964 4.964 0 01-1.918-1.806c-.457-.775-.686-1.643-.686-2.604 0-.961.229-1.825.686-2.59a4.93 4.93 0 011.918-1.82c.821-.439 1.74-.658 2.758-.658 1.017 0 1.932.22 2.744.658a4.93 4.93 0 011.918 1.82c.467.765.7 1.629.7 2.59 0 .961-.233 1.83-.7 2.604a4.964 4.964 0 01-1.918 1.806c-.812.439-1.727.658-2.744.658zm0-1.932c.579 0 1.101-.13 1.568-.392.467-.27.83-.644 1.092-1.12.27-.476.406-1.017.406-1.624 0-.607-.135-1.148-.406-1.624a2.767 2.767 0 00-1.092-1.106 3.067 3.067 0 00-1.568-.406c-.579 0-1.101.135-1.568.406a2.86 2.86 0 00-1.106 1.106c-.261.476-.392 1.017-.392 1.624 0 .607.13 1.148.392 1.624.27.476.64.85 1.106 1.12.467.261.99.392 1.568.392zm11.38-5.88c.7 0 1.334.163 1.903.49.579.317 1.032.77 1.358 1.358.327.579.49 1.255.49 2.03 0 .775-.163 1.456-.49 2.044a3.517 3.517 0 01-1.358 1.358 3.844 3.844 0 01-1.904.476c-.961 0-1.717-.303-2.268-.91v3.514H85.07V19.468h2.086v.868c.541-.653 1.33-.98 2.366-.98zm-.379 5.964c.56 0 1.017-.187 1.372-.56.364-.383.546-.891.546-1.526s-.182-1.139-.546-1.512c-.355-.383-.812-.574-1.372-.574s-1.022.191-1.386.574c-.355.373-.532.877-.532 1.512s.178 1.143.532 1.526c.364.373.826.56 1.386.56zm12.776-5.852V27h-2.184v-5.74h-2.38l-.07 1.33c-.038.99-.131 1.81-.28 2.464-.15.653-.392 1.167-.728 1.54-.337.373-.803.56-1.4.56a4.69 4.69 0 01-1.134-.168l.112-1.792c.149.019.256.028.322.028.326 0 .569-.117.727-.35.169-.243.28-.546.337-.91.055-.373.097-.863.126-1.47l.111-3.024h6.441zm9.422 3.794c0 .028-.014.224-.042.588h-5.698c.102.467.345.835.728 1.106.382.27.858.406 1.428.406.392 0 .737-.056 1.036-.168.308-.121.592-.308.854-.56l1.162 1.26c-.71.812-1.746 1.218-3.108 1.218-.85 0-1.601-.163-2.254-.49-.654-.336-1.158-.798-1.512-1.386-.355-.588-.532-1.255-.532-2.002 0-.737.172-1.4.518-1.988a3.67 3.67 0 011.442-1.386 4.227 4.227 0 012.058-.504c.737 0 1.404.159 2.002.476a3.419 3.419 0 011.4 1.372c.345.588.518 1.274.518 2.058zm-3.906-2.254c-.495 0-.91.14-1.246.42-.336.28-.542.663-.616 1.148h3.71c-.075-.476-.28-.854-.616-1.134-.336-.29-.747-.434-1.232-.434zm8.301-1.652c1.166 0 2.062.28 2.688.84.625.55.938 1.386.938 2.506V27h-2.044v-.938c-.411.7-1.176 1.05-2.296 1.05-.579 0-1.083-.098-1.512-.294a2.251 2.251 0 01-.966-.812 2.113 2.113 0 01-.336-1.176c0-.7.261-1.25.784-1.652.532-.401 1.348-.602 2.45-.602h1.736c0-.476-.145-.84-.434-1.092-.29-.261-.724-.392-1.302-.392-.402 0-.798.065-1.19.196-.383.121-.71.29-.98.504l-.784-1.526c.41-.29.9-.513 1.47-.672a6.687 6.687 0 011.778-.238zm-.168 6.286c.373 0 .704-.084.994-.252.289-.177.494-.434.616-.77v-.77h-1.498c-.896 0-1.344.294-1.344.882 0 .28.107.504.322.672.224.159.527.238.91.238zm5.691-6.174h2.17v2.94h3.276v-2.94h2.184V27h-2.184v-2.814h-3.276V27h-2.17v-7.532z" fill="#fff"/></svg>