<svg width="218" height="295" fill="none" xmlns="http://www.w3.org/2000/svg"><path d="M73 55s16.353-20.61 44.622-25.79c28.27-5.179 109.776-4.121 109.776-4.121L231 45.506 73 55z" fill="#FF5A4C"/><path d="M49.767 198H17.233C7.716 198 0 205.723 0 215.25v62.5C0 287.277 7.716 295 17.233 295h32.534C59.284 295 67 287.277 67 277.75v-62.5c0-9.527-7.716-17.25-17.233-17.25z" fill="#3F3D56"/><path d="M294 265l-263.737-3.768s-9.226-3.864-11.533-11.578c-2.307-7.715-2.307-70.991 0-83.089 2.307-12.099 21.483-30.652 21.483-30.652S58.653 89.162 63.24 68.91C67.825 48.658 96.924 45 96.924 45h133.391a341.886 341.886 0 004.012 16.758c1.87 7.056 4.095 14.428 6.593 22.17 4.463 13.62 10.032 28.363 16.924 44.435.082.178.164.37.232.548 5.069 11.811 9.618 23.303 13.649 34.475a514.627 514.627 0 014.204 12.167c3.467 10.386 6.438 20.466 8.913 30.24a317.831 317.831 0 017.561 39.339c.837 6.833 1.37 13.455 1.597 19.868z" fill="#FF5A4C"/><path d="M258 129H72.63a9.688 9.688 0 01-4.281-1.006 9.645 9.645 0 01-3.388-2.795 9.591 9.591 0 01-1.609-8.38l10.932-38.98a31.205 31.205 0 0111.231-16.482A31.414 31.414 0 01104.468 55h127.966a322.065 322.065 0 001.858 7.268c1.872 7.01 4.1 14.332 6.6 22.022 4.469 13.528 10.044 28.173 16.944 44.138.014.204.096.395.164.572zm35 115.79a14.725 14.725 0 01-7.778 2.21H56.655a14.72 14.72 0 01-10.32-4.214 14.48 14.48 0 01-4.335-10.2V190.55a14.435 14.435 0 011.112-5.567 14.541 14.541 0 013.175-4.721 14.66 14.66 0 014.756-3.154A14.746 14.746 0 0156.655 176h219.872c3.473 10.278 6.448 20.254 8.927 29.927A311.14 311.14 0 01293 244.79z" fill="#3F3D56"/><path d="M272 163H155.27C137.22 141.095 73 129 73 129h185.363c5.074 11.649 9.62 22.982 13.637 34z" fill="url(#paint0_linear)"/><path d="M85.37 190H66.63C58.55 190 52 196.55 52 204.63v18.74c0 8.08 6.55 14.63 14.63 14.63h18.74c8.08 0 14.63-6.55 14.63-14.63v-18.74c0-8.08-6.55-14.63-14.63-14.63zm189.191 13H135.439a4.41 4.41 0 01-3.139-1.318 4.534 4.534 0 01-1.3-3.182c0-1.193.468-2.338 1.3-3.182a4.41 4.41 0 013.139-1.318h139.122a4.41 4.41 0 013.139 1.318 4.534 4.534 0 011.3 3.182 4.534 4.534 0 01-1.3 3.182 4.41 4.41 0 01-3.139 1.318zm0 4H135.439c-2.451 0-4.439 2.012-4.439 4.493v.014c0 2.481 1.988 4.493 4.439 4.493h139.122c2.451 0 4.439-2.012 4.439-4.493v-.014c0-2.481-1.988-4.493-4.439-4.493zm0 21H135.439a4.41 4.41 0 01-3.139-1.318 4.534 4.534 0 01-1.3-3.182c0-1.193.468-2.338 1.3-3.182a4.41 4.41 0 013.139-1.318h139.122a4.41 4.41 0 013.139 1.318 4.534 4.534 0 011.3 3.182 4.534 4.534 0 01-1.3 3.182 4.41 4.41 0 01-3.139 1.318z" fill="#FF5A4C"/><path d="M172 25l5.787-15.804a13.856 13.856 0 015.142-6.666A14.236 14.236 0 01191.041 0h33.383L227 24.689 172 25z" fill="#fff"/><path opacity=".16" d="M211 0l11.808 25 4.192-.311L224.387 0H211z" fill="#222A72"/><defs><linearGradient id="paint0_linear" x1="115847" y1="10724.1" x2="130341" y2="38270.2" gradientUnits="userSpaceOnUse"><stop stop-color="#68E1FD" stop-opacity="0"/><stop offset=".27" stop-color="#58A0BB" stop-opacity=".39"/><stop offset=".56" stop-color="#4A6A84" stop-opacity=".73"/><stop offset=".8" stop-color="#424962" stop-opacity=".93"/><stop offset=".99" stop-color="#3F3D56"/></linearGradient></defs></svg>