<svg width="35" height="35" fill="none" xmlns="http://www.w3.org/2000/svg"><path fill-rule="evenodd" clip-rule="evenodd" d="M26.838 8.215a13.007 13.007 0 00-9.26-3.84c-7.216 0-13.09 5.873-13.094 13.091 0 2.308.603 4.56 1.747 6.546l-1.856 6.782 6.94-1.821a13.096 13.096 0 006.257 1.594h.005c7.215 0 13.089-5.873 13.092-13.092a13.016 13.016 0 00-3.831-9.26zm-9.26 20.142h-.005a10.86 10.86 0 01-5.539-1.518l-.397-.236-4.118 1.08 1.098-4.014-.258-.412a10.862 10.862 0 01-1.664-5.79c.003-6 4.884-10.881 10.887-10.881a10.81 10.81 0 017.692 3.19 10.82 10.82 0 013.184 7.7c-.003 5.999-4.884 10.881-10.88 10.881zm5.968-8.15c-.328-.165-1.935-.956-2.235-1.065-.3-.11-.517-.163-.735.163-.22.327-.846 1.064-1.037 1.282-.191.22-.382.245-.709.082-.327-.163-1.381-.509-2.63-1.623-.973-.868-1.63-1.938-1.82-2.266-.192-.329-.021-.505.143-.668.148-.146.327-.382.49-.573.164-.191.218-.327.327-.546.11-.219.056-.41-.027-.573-.082-.165-.737-1.775-1.01-2.43-.264-.634-.533-.55-.735-.558a14.184 14.184 0 00-.625-.012 1.205 1.205 0 00-.874.409c-.3.328-1.145 1.118-1.145 2.728s1.173 3.166 1.336 3.385c.164.219 2.307 3.522 5.589 4.94a19.8 19.8 0 001.865.69c.783.248 1.496.212 2.06.129.629-.093 1.936-.79 2.208-1.555.273-.764.273-1.419.191-1.556-.081-.137-.301-.22-.627-.383z" fill="#000"/></svg>