<svg xmlns="http://www.w3.org/2000/svg" viewBox="0 0 512 512"><path d="M120.15 270c-8.354 0-15.15 6.796-15.15 15.15s6.796 15.15 15.15 15.15S135 293.503 135 285.15c0-8.353-6.497-15.15-14.85-15.15zM257 0c-41.355 0-75 33.645-75 75s33.645 75 75 75 75-33.645 75-75-33.645-75-75-75zm0 120c-24.813 0-45-20.187-45-45s20.187-45 45-45 45 20.187 45 45-20.187 45-45 45zm60 90H197c-8.284 0-15 6.716-15 15s6.716 15 15 15h120c8.284 0 15-6.716 15-15s-6.716-15-15-15z"/><path d="M494.426 227.575c-5.857-5.86-15.355-5.86-21.213-.001-5.858 5.858-5.858 15.355 0 21.213 5.666 5.667 8.787 13.2 8.787 21.213 0 16.542-13.458 30-30 30h-.689C443.707 216.023 372.925 150 287 150h-75c-9.544 0-20.481 1.082-31.06 3.03C161.073 131.929 133.882 120 105 120c-8.284 0-15 6.716-15 15v67.519C72.038 221.676 58.897 244.837 51.74 270H45c-24.813 0-45 20.187-45 45v31c0 24.813 20.187 44.9 45 44.9 5.141 0 12.307.013 18.005.045 10.444 20.546 24.993 39.099 41.929 53.257.065 19.889.066 52.428.066 52.798 0 8.284 6.716 15 15 15h60c8.284 0 15-6.716 15-15v-15.778c5.669.505 11.483.778 17 .778h75v15c0 8.284 6.716 15 15 15h60c8.284 0 15-6.716 15-15 0-.219 0-19.73.05-41.733 21.25-13.947 39.213-33.073 52.28-55.752a169.798 169.798 0 0021.978-69.514H452c33.084 0 60-26.916 60-60 0-16.026-6.241-31.094-17.574-42.426zM354.553 433.912a15.001 15.001 0 00-7.482 12.938c-.036 12.924-.054 25.719-.063 35.15H317v-45c0-8.284-6.716-15-15-15s-15 6.716-15 15v15h-75c-5.56 0-11.438-.323-17-.909V437c0-8.284-6.716-15-15-15s-15 6.716-15 15v45h-30.006c-.009-13.917-.031-34.093-.089-45.14a15 15 0 00-5.982-11.907c-17.902-13.469-33.042-32.935-42.631-54.81a15 15 0 00-13.096-8.965C69.224 361.009 49.011 361 45 361c-8.271 0-15-6.729-15-15v-31c0-8.271 6.729-15 15-15h17.962c.017 0 .033.003.05.003.024 0 .047-.003.071-.003 7.941 0 13.545-5.041 15.106-11.45.593-2.436 1.816-7.452 2.1-9.246 6.235-22.657 18.407-43.387 35.249-60.014A15 15 0 00120 208.615v-57.072c16.983 3.542 32.373 13.054 43.603 27.275a14.999 14.999 0 0015.241 5.297C189.85 181.5 201.935 180 212 180h75c74.439 0 135 60.561 135 135 0 48.504-26.475 95.18-67.447 118.912z"/></svg>