<svg width="22" height="22" fill="none" xmlns="http://www.w3.org/2000/svg"><path d="M21.406 9.569l-.001-.002L12.43.594A2.012 2.012 0 0010.999 0c-.541 0-1.05.21-1.433.593l-8.97 8.97-.008.009a2.028 2.028 0 00.004 2.86 2.014 2.014 0 001.406.594h.358v6.604A2.373 2.373 0 004.726 22h3.511a.645.645 0 00.645-.645v-5.177c0-.597.485-1.082 1.081-1.082h2.071c.596 0 1.081.485 1.081 1.082v5.177c0 .357.289.645.645.645h3.511a2.373 2.373 0 002.37-2.37v-6.604h.332a2.029 2.029 0 001.433-3.457z" fill="#000"/></svg>