<svg width="263" height="263" fill="none" xmlns="http://www.w3.org/2000/svg"><path d="M92.364 206.192l-39.237 21.402c-2.302 1.256-4.372 2.799-6.297 4.481C69.706 251.363 99.237 263 131.501 263c32.027 0 61.369-11.463 84.18-30.488-2.104-1.777-4.387-3.375-6.917-4.635l-42.016-21.005a16.022 16.022 0 01-8.857-14.331v-16.485c1.181-1.345 2.53-3.072 3.974-5.111 5.727-8.089 10.059-16.986 13.061-26.32 5.389-1.662 9.359-6.639 9.359-12.554v-17.597c0-3.87-1.722-7.329-4.397-9.75V79.287s5.225-39.584-48.382-39.584-48.382 39.584-48.382 39.584v25.437c-2.68 2.421-4.396 5.88-4.396 9.75v17.597c0 4.634 2.436 8.713 6.083 11.07 4.397 19.14 15.909 32.915 15.909 32.915v16.078a16.04 16.04 0 01-8.356 14.058z" fill="#fff"/><path d="M133.748.02C61.135-1.221 1.26 56.639.02 129.252c-.705 41.172 17.645 78.175 46.863 102.783 1.91-1.667 3.96-3.195 6.238-4.436l39.236-21.402a16.03 16.03 0 008.352-14.068v-16.078s-11.517-13.775-15.91-32.915c-3.641-2.357-6.083-6.431-6.083-11.071v-17.596c0-3.87 1.722-7.329 4.397-9.751V79.282s-5.226-39.584 48.382-39.584c53.607 0 48.382 39.584 48.382 39.584v25.436c2.679 2.422 4.396 5.881 4.396 9.751v17.596c0 5.915-3.969 10.893-9.358 12.555-3.003 9.334-7.335 18.231-13.061 26.32-1.444 2.039-2.794 3.766-3.975 5.111v16.485a16.018 16.018 0 008.858 14.331l42.015 21.005c2.521 1.26 4.799 2.853 6.898 4.625 28.334-23.631 46.64-58.962 47.32-98.749C264.22 61.135 206.365 1.26 133.748.02z" fill="#6672FB"/></svg>