<svg width="25" height="25" fill="none" xmlns="http://www.w3.org/2000/svg"><path d="M12.486.002a12.516 12.516 0 00-2.552.265 12.5 12.5 0 00-6.856 3.998c-4.54 5.212-3.995 13.117 1.217 17.657 4.99 4.346 12.5 4.057 17.14-.66A12.493 12.493 0 0025 12.516C25.001 5.605 19.398.002 12.487.002zM4.092 4.397c.066-.069.134-.134.202-.2a8.388 8.388 0 01.446-.418c.08-.072.16-.143.243-.212.073-.061.148-.12.222-.18a9.745 9.745 0 01.483-.364c.087-.062.174-.125.262-.183a11.19 11.19 0 01.754-.467 12.973 12.973 0 01.816-.424 9.044 9.044 0 01.552-.242 11.566 11.566 0 01.565-.213c.087-.03.175-.061.263-.09.104-.033.209-.064.314-.095.088-.025.175-.051.263-.075l.102-.025a10.35 10.35 0 00-2.666 4.33c-.99-.262-1.949-.63-2.859-1.1l.038-.042zm-.6.671c1.002.543 2.065.966 3.166 1.26a21.646 21.646 0 00-.842 5.771H.815a11.655 11.655 0 012.678-7.03zm0 14.897a11.656 11.656 0 01-2.678-7.031h5.002c.019 1.952.302 3.894.842 5.77a14.502 14.502 0 00-3.166 1.26zM9.476 23.8c-.084-.022-.172-.05-.258-.075a8.237 8.237 0 01-.316-.095 10.634 10.634 0 01-.262-.09 9.775 9.775 0 01-.564-.213l-.299-.125a10.65 10.65 0 01-.546-.257c-.083-.042-.167-.083-.25-.129a11.692 11.692 0 01-1.297-.807c-.076-.055-.153-.11-.228-.167a10.757 10.757 0 01-.255-.2 12.163 12.163 0 01-.22-.177c-.083-.07-.163-.142-.244-.213-.071-.063-.143-.125-.212-.19-.08-.074-.157-.151-.234-.227-.067-.067-.136-.132-.202-.2l-.036-.04c.91-.47 1.869-.838 2.859-1.1a10.353 10.353 0 002.666 4.33c-.034-.01-.068-.016-.102-.025zm2.592.363c-1.784-.254-3.35-2.117-4.334-4.868a21.2 21.2 0 014.335-.51v5.377zm0-6.213c-1.547.02-3.087.204-4.596.549-.523-1.81-.8-3.683-.821-5.566h5.418v5.017zm0-5.852H6.652c.021-1.884.297-3.756.821-5.566a21.96 21.96 0 004.596.548v5.02zm0-5.852a21.176 21.176 0 01-4.334-.51c.985-2.751 2.55-4.614 4.335-4.868v5.378zm9.41-1.179a11.656 11.656 0 012.678 7.031h-5.002a21.638 21.638 0 00-.842-5.771 14.505 14.505 0 003.166-1.26zm-5.986-3.836c.088.021.175.049.261.074.106.031.212.062.316.096.088.028.175.059.262.09a9.977 9.977 0 01.863.337 10.973 10.973 0 01.546.257 8.036 8.036 0 01.531.285c.084.046.163.094.244.142.091.055.181.112.272.17a10.804 10.804 0 01.983.705c.074.059.148.117.22.178.083.07.164.141.245.213.07.063.142.125.211.19.08.074.157.151.234.227.068.067.136.132.202.2l.036.039a14 14 0 01-2.858 1.1 10.353 10.353 0 00-2.67-4.328c.034.008.068.015.102.025zm-2.59-.363c1.786.254 3.35 2.117 4.335 4.868a21.2 21.2 0 01-4.334.51V.869zm0 6.212a21.969 21.969 0 004.597-.548c.524 1.81.8 3.682.821 5.566h-5.417V7.081zm0 5.853h5.418a20.865 20.865 0 01-.82 5.567 21.976 21.976 0 00-4.596-.549v-5.018zm0 11.23v-5.378c1.46.02 2.912.19 4.335.51-.985 2.75-2.55 4.614-4.334 4.867zm7.976-3.528c-.066.068-.134.134-.2.2-.079.076-.156.153-.236.228-.069.064-.14.125-.211.19-.081.071-.162.143-.244.212-.073.061-.147.12-.222.18-.083.066-.167.133-.253.197a8.273 8.273 0 01-.23.167c-.087.061-.173.125-.261.182a9.662 9.662 0 01-.509.323 12.418 12.418 0 01-1.062.568c-.083.04-.17.08-.256.117l-.296.125c-.087.035-.172.07-.26.103a7.938 7.938 0 01-.306.11 9.583 9.583 0 01-.577.184 6.021 6.021 0 01-.262.076c-.034.01-.068.016-.102.025a10.35 10.35 0 002.666-4.33c.99.262 1.949.63 2.859 1.101l-.038.042zm.6-.671a14.494 14.494 0 00-3.166-1.26c.54-1.877.823-3.819.842-5.771h5.002a11.654 11.654 0 01-2.678 7.03z" fill="#000"/></svg>