<svg width="262" height="369" fill="none" xmlns="http://www.w3.org/2000/svg"><g clip-path="url(#clip0)"><path d="M117.953 176.192c7.365 0 13.336-5.975 13.336-13.346s-5.971-13.346-13.336-13.346c-7.364 0-13.335 5.975-13.335 13.346s5.971 13.346 13.335 13.346z" fill="#3F3D56"/><path d="M163.111 263.826s-.75 16.752-1.829 19.997c-1.079 3.245.205 4.734-3.18 5.584-3.385.85-2.195-17.41-2.195-17.41l1.141-6.999 6.063-1.172z" fill="url(#paint0_linear)"/><path d="M127.718 268.696l7.83 45.871h6.695l1.674-26.425 1.544 33.176h7.346s6.318-36.341 5.152-43.029a19.527 19.527 0 00-2.052-6.31l-28.189-3.283z" fill="#25233A"/><path d="M132.336 197.182c-.273-3.543-.081-7.309 1.822-10.306a10.238 10.238 0 016.95-4.566c4.073-.621 8.059 1.241 11.779 3.04 5.456 2.68 10.949 5.386 15.747 9.102 4.799 3.717 8.921 8.587 10.738 14.389a33.036 33.036 0 011.295 8.686 33.475 33.475 0 01-.564 8.19 23.425 23.425 0 01-16.633 17.373c-9.299 2.42-19.895-.999-28.307 3.624a3.918 3.918 0 01-1.86.682 2.28 2.28 0 01-1.972-1.632 5.168 5.168 0 010-2.693 14.343 14.343 0 013.962-7.209c2.566-2.513 5.989-3.965 8.791-6.205a2.722 2.722 0 001.041-1.315c.335-1.241-.954-2.265-2.138-2.724-1.185-.459-2.598-.869-3.069-2.041-.385-.95 0-2.004.266-2.997 1.073-4.343-1.24-7.26-3.626-10.48-2.772-3.723-3.875-8.376-4.222-12.918z" fill="#3F3D56"/><path d="M152.98 198.467s4.179 6.992 8.984 11.621c4.804 4.628 12.988 12.949 7.774 19.265a30.998 30.998 0 01-11.637 8.73l-10.582-10.641v-17.373l5.461-11.602z" fill="#25233A"/><path d="M116.303 192.256l10.093-.751s-2.833 19.607 10.943 25.972c13.775 6.366 22.25 7.694 23.186 12.608.936 4.914 4.581 33.275 4.581 33.275l-6.937 1.62-.211-21.933.267 27.666s-15.028 8.438-19.355 6.775c-4.327-1.663-13.41-3.046-13.193-17.143.217-14.097 6.82-24.074-.347-34.802-7.167-10.727-9.213-28.206-9.027-33.287z" fill="#FF5A4C"/><path d="M116.303 192.256l10.093-.751s-2.833 19.607 10.943 25.972c13.775 6.366 22.25 7.694 23.186 12.608.936 4.914 4.581 33.275 4.581 33.275l-6.937 1.62-.211-21.933.267 27.666s-15.028 8.438-19.355 6.775c-4.327-1.663-13.41-3.046-13.193-17.143.217-14.097 6.82-24.074-.347-34.802-7.167-10.727-9.213-28.206-9.027-33.287z" fill="url(#paint1_linear)"/><path d="M140.333 218.849s.384 5.832 4.129 5.689c3.744-.142 3.751-2.016 3.751-2.016l2.38-10.163-10.26.62s1.166 4.306 0 5.87z" fill="url(#paint2_linear)"/><path d="M140.798 215.647s-.471 3.003 1.457 3.853c1.928.85 5.034-.217 5.784-1.073l.174 4.07 1.735-7.415-9.15.565z" fill="#222A72"/><path d="M137.122 198.268s-2.163 15.437 5.611 18.558c7.774 3.121 10.155-5.255 11.159-9.276 1.005-4.02-1.903-18.428-8.059-16.188a16.743 16.743 0 00-8.711 6.906z" fill="url(#paint3_linear)"/><path d="M118.852 192.07s.726-5.398.744-5.498a2.773 2.773 0 00-1.153-2.624c-.744-.559-1.562-1.862-1.562-4.871 0-3.009 3.186-6.266 4.501-4.964 1.314 1.303 1.32 2.333 2.542 2.526 1.221.192.279 3.294 0 4.343s1.5 10.616 1.5 10.616l-6.572.472z" fill="url(#paint4_linear)"/><path d="M157.959 243.071l4.03 21.015-3.819.894-.211-21.909z" fill="url(#paint5_linear)"/><path d="M145.46 321.318s-1.742 17.186 1.116 31.153h1.99l4.241-31.153h-7.347zm-9.912-6.751l3.992 35.05 1.463-.621s2.741-24.818 2.518-27.213c-.224-2.395-1.278-7.228-1.278-7.228l-6.695.012z" fill="#25233A"/><path d="M141.003 349.009s.886 1.501.787 2.568c-.074.733-5.133 7.012-8.747 10.399-3.906 3.661-7.694 2.308-7.694 2.308-1.413-.142-2.145-3.393-1.066-4.343a30.728 30.728 0 017.836-4.889c6.479-2.742 7.439-5.46 7.439-5.46l1.445-.583zm5.573 3.462a9.596 9.596 0 00-.415 3.779c.248 1.817 8.059 10.715 8.059 10.715s6.398 4.157 8.643.583c2.244-3.574-6.622-8.314-8.382-9.307-1.761-.993-5.915-5.764-5.915-5.764l-1.99-.006z" fill="#25233A"/><path d="M101.822 142.216a13.605 13.605 0 0012.697 9.549c3.564 0 7.576-1.359 11.295-5.858 9.92-11.987-8.338-33.114 16.256-58.658 24.593-25.544 27.154-70.825-17.018-73.835C91.32 11.131 77.52 32.127 73.639 45.27v13.32l23.694 9.307s9.064-27.524 23.987-24.018c14.922 3.506.867 28.187-8.55 37.569-20.75 20.68-14.748 48.948-10.948 60.768z" fill="#3F3D56"/><path d="M101.822 142.216a13.605 13.605 0 0012.697 9.549c3.564 0 7.576-1.359 11.295-5.858 9.92-11.987-8.338-33.114 16.256-58.658 24.593-25.544 27.154-70.825-17.018-73.835C91.32 11.131 77.52 32.127 73.639 45.27v13.32l23.694 9.307s9.064-27.524 23.987-24.018c14.922 3.506.867 28.187-8.55 37.569-20.75 20.68-14.748 48.948-10.948 60.768z" fill="url(#paint6_linear)"/><path d="M101.822 125.345a13.644 13.644 0 0012.697 9.549c3.564 0 7.575-1.619 11.295-6.111 9.92-11.994-9.603-23.913 14.997-49.457S169.242 3.127 125.07.136c-44.172-2.99-51.413 45.151-51.413 45.151l23.695 9.307s9.045-27.492 23.968-24c14.922 3.494.867 28.182-8.55 37.57-20.75 20.661-14.748 45.362-10.948 57.181zm16.131 42.117c7.365 0 13.336-5.975 13.336-13.346s-5.971-13.346-13.336-13.346c-7.364 0-13.335 5.975-13.335 13.346s5.971 13.346 13.335 13.346z" fill="#FF5A4C"/><path d="M64.78 160.352a5.674 5.674 0 00-2.735-7.539 5.664 5.664 0 00-7.532 2.737 5.673 5.673 0 002.734 7.539 5.664 5.664 0 007.532-2.737z" fill="#3F3D56"/><path d="M50.223 152.062a5.793 5.793 0 006.46 1.973c1.426-.508 2.827-1.644 3.664-3.983 2.219-6.205-8.134-12.018-2.003-25.799 6.131-13.78.583-32.264-17.495-27.027-13.813 3.983-16.286 14.376-15.933 20.196l1.928 5.311 10.812.273s-.372-12.304 6.1-13.073c6.473-.769 4.433 11.137 2.028 16.256-5.295 11.28 1.203 21.704 4.439 25.873z" fill="#3F3D56"/><path d="M50.223 152.062a5.793 5.793 0 006.46 1.973c1.426-.508 2.827-1.644 3.664-3.983 2.219-6.205-8.134-12.018-2.003-25.799 6.131-13.78.583-32.264-17.495-27.027-13.813 3.983-16.286 14.376-15.933 20.196l1.928 5.311 10.812.273s-.372-12.304 6.1-13.073c6.473-.769 4.433 11.137 2.028 16.256-5.295 11.28 1.203 21.704 4.439 25.873z" fill="url(#paint7_linear)"/><path d="M47.78 145.318a5.771 5.771 0 006.454 1.973c1.432-.509 2.796-1.743 3.627-4.083 2.226-6.204-7.297-8.159-1.172-21.939s.316-34.572-17.768-29.354c-18.084 5.218-13.974 25.507-13.974 25.507l10.812.267s-.365-12.298 6.1-13.067c6.467-.769 4.433 11.137 2.028 16.25-5.3 11.28.651 20.276 3.893 24.446zm13.098 14.241a5.674 5.674 0 002.599-7.587 5.665 5.665 0 00-7.58-2.601 5.674 5.674 0 00-2.6 7.587 5.665 5.665 0 007.581 2.601z" fill="#FF5A4C"/><path d="M34.68 212.352a5.678 5.678 0 01-2.311 5.858 5.663 5.663 0 01-8.423-2.396 5.676 5.676 0 013.982-7.805 5.659 5.659 0 015.872 2.308 5.69 5.69 0 01.88 2.035z" fill="#3F3D56"/><path d="M20.57 206.477a5.771 5.771 0 006.144 2.804c1.481-.316 3.025-1.241 4.153-3.462 3.02-5.882-6.485-12.986 1.395-25.842 7.88-12.856 4.811-31.886-13.8-29.087C4.246 153.024.434 163.001.024 168.815l1.24 5.522 10.664 1.7s1.24-12.242 7.761-12.155c6.522.087 2.933 11.621-.117 16.374-6.74 10.48-1.662 21.667.998 26.221z" fill="#3F3D56"/><path d="M20.57 206.477a5.771 5.771 0 006.144 2.804c1.481-.316 3.025-1.241 4.153-3.462 3.02-5.882-6.485-12.986 1.395-25.842 7.88-12.856 4.811-31.886-13.8-29.087C4.246 153.024.434 163.001.024 168.815l1.24 5.522 10.664 1.7s1.24-12.242 7.761-12.155c6.522.087 2.933 11.621-.117 16.374-6.74 10.48-1.662 21.667.998 26.221z" fill="url(#paint8_linear)"/><path d="M19.032 199.472a5.786 5.786 0 006.144 2.804c1.482-.316 2.994-1.365 4.129-3.567 3.02-5.882-6.169-9.047 1.711-21.903 7.88-12.856 4.842-34.237-13.77-31.438C-1.363 148.166.025 168.815.025 168.815l10.664 1.687s1.24-12.241 7.761-12.154c6.522.086 2.933 11.621-.117 16.374-6.708 10.492-1.966 20.196.7 24.75zm9.73 16.136a5.67 5.67 0 005.229-6.077 5.667 5.667 0 10-11.302.844 5.668 5.668 0 006.073 5.233z" fill="#FF5A4C"/><path d="M200.55 169.733a5.671 5.671 0 01-4.577 4.327 5.662 5.662 0 01-5.745-2.575 5.67 5.67 0 016.056-8.546 5.674 5.674 0 014.266 6.794z" fill="#3F3D56"/><path d="M190.302 158.391a5.777 5.777 0 004.34 5.162c1.469.348 3.267.155 5.232-1.352 5.239-4.027-.316-14.513 12.294-22.765 12.61-8.252 17.979-26.773-.056-32.202-13.763-4.151-21.475 3.239-24.327 8.32l-1.24 5.51 8.94 6.093s6.354-10.548 12.207-7.669c5.852 2.879-2.313 11.758-7.105 14.755-10.558 6.601-10.732 18.887-10.285 24.148z" fill="#3F3D56"/><path d="M190.302 158.391a5.777 5.777 0 004.34 5.162c1.469.348 3.267.155 5.232-1.352 5.239-4.027-.316-14.513 12.294-22.765 12.61-8.252 17.979-26.773-.056-32.202-13.763-4.151-21.475 3.239-24.327 8.32l-1.24 5.51 8.94 6.093s6.354-10.548 12.207-7.669c5.852 2.879-2.313 11.758-7.105 14.755-10.558 6.601-10.732 18.887-10.285 24.148z" fill="url(#paint9_linear)"/><path d="M191.901 151.398a5.776 5.776 0 004.34 5.163c1.475.353 3.298.049 5.263-1.458 5.239-4.027-1.717-10.821 10.899-19.073s18.99-28.864 1.011-34.312c-17.979-5.447-25.586 13.837-25.586 13.837l8.94 6.092s6.354-10.547 12.207-7.675c5.852 2.873-2.313 11.789-7.099 14.761-10.588 6.602-10.44 17.41-9.975 22.665zm9.203 15.545a5.673 5.673 0 00-3.169-7.366 5.665 5.665 0 00-7.36 3.172 5.673 5.673 0 003.169 7.366 5.665 5.665 0 007.36-3.172z" fill="#FF5A4C"/><path d="M229.322 220.468a4.208 4.208 0 01-7.585-1.718 4.208 4.208 0 118.297-1.429 4.213 4.213 0 01-.712 3.147z" fill="#3F3D56"/><path d="M225.478 209.771a4.306 4.306 0 001.544 4.778 4.476 4.476 0 003.98.552c4.743-1.284 3.881-10.07 14.879-12.18 10.998-2.109 19.919-13.327 9.058-22.162-8.289-6.745-15.679-3.847-19.076-1.161l-2.425 3.432 4.427 6.725s7.346-5.447 10.539-1.824c3.193 3.624-4.91 7.446-9.051 8.141-9.101 1.551-12.703 9.946-13.875 13.699z" fill="#3F3D56"/><path d="M225.478 209.771a4.306 4.306 0 001.544 4.778 4.476 4.476 0 003.98.552c4.743-1.284 3.881-10.07 14.879-12.18 10.998-2.109 19.919-13.327 9.058-22.162-8.289-6.745-15.679-3.847-19.076-1.161l-2.425 3.432 4.427 6.725s7.346-5.447 10.539-1.824c3.193 3.624-4.91 7.446-9.051 8.141-9.101 1.551-12.703 9.946-13.875 13.699z" fill="url(#paint10_linear)"/><path d="M228.553 205.41a4.305 4.305 0 001.544 4.783c.911.658 2.25.968 4.023.484 4.743-1.284 1.86-7.923 12.889-10.026 11.029-2.104 21.221-14.488 10.36-23.324-10.862-8.835-21.501 2.271-21.501 2.271l4.427 6.72s7.346-5.448 10.539-1.818c3.193 3.63-4.91 7.446-9.051 8.14-9.107 1.552-12.058 9.022-13.23 12.77zm2.391 12.742a4.222 4.222 0 00-1.091-5.866 4.213 4.213 0 00-5.861 1.092 4.221 4.221 0 001.09 5.866 4.214 4.214 0 005.862-1.092z" fill="#FF5A4C"/><path d="M118.319 332.536a.436.436 0 01-.223-.062.447.447 0 01-.215-.276.445.445 0 01.054-.345 147.935 147.935 0 0011.438-27.002c4.6-14.612 8.94-36.421 3.472-57.356-10.54-40.299-12.982-65.042-13.02-65.291a.447.447 0 01.403-.484.445.445 0 01.321.1.446.446 0 01.157.297c0 .249 2.48 24.931 12.982 65.149 5.523 21.145 1.153 43.14-3.491 57.87a149.511 149.511 0 01-11.506 27.158.45.45 0 01-.372.242z" fill="#fff"/></g><defs><linearGradient id="paint0_linear" x1="155.702" y1="276.62" x2="163.111" y2="276.62" gradientUnits="userSpaceOnUse"><stop stop-color="#ECC4D7"/><stop offset=".42" stop-color="#EFD4D1"/><stop offset="1" stop-color="#F2EAC9"/></linearGradient><linearGradient id="paint1_linear" x1="111.914" y1="240.987" x2="253.388" y2="192.209" gradientUnits="userSpaceOnUse"><stop stop-color="#fff" stop-opacity="0"/><stop offset=".99" stop-color="#fff"/></linearGradient><linearGradient id="paint2_linear" x1="4876.58" y1="4263.79" x2="4766.6" y2="4499.64" gradientUnits="userSpaceOnUse"><stop stop-color="#ECC4D7"/><stop offset=".42" stop-color="#EFD4D1"/><stop offset="1" stop-color="#F2EAC9"/></linearGradient><linearGradient id="paint3_linear" x1="7748.71" y1="8938.41" x2="8228.19" y2="8938.41" gradientUnits="userSpaceOnUse"><stop stop-color="#ECC4D7"/><stop offset=".42" stop-color="#EFD4D1"/><stop offset="1" stop-color="#F2EAC9"/></linearGradient><linearGradient id="paint4_linear" x1="3613.45" y1="5596.81" x2="3731.18" y2="5596.81" gradientUnits="userSpaceOnUse"><stop stop-color="#ECC4D7"/><stop offset=".42" stop-color="#EFD4D1"/><stop offset="1" stop-color="#F2EAC9"/></linearGradient><linearGradient id="paint5_linear" x1="164.679" y1="251.677" x2="127.963" y2="266.492" gradientUnits="userSpaceOnUse"><stop stop-opacity="0"/><stop offset="1"/></linearGradient><linearGradient id="paint6_linear" x1="116.638" y1="13.242" x2="116.638" y2="151.765" gradientUnits="userSpaceOnUse"><stop stop-color="#FF5A4C"/><stop offset="1" stop-color="#FF5A4C" stop-opacity="0"/></linearGradient><linearGradient id="paint7_linear" x1="42.814" y1="96.316" x2="42.814" y2="154.34" gradientUnits="userSpaceOnUse"><stop stop-color="#FF5A4C"/><stop offset="1" stop-color="#FF5A4C" stop-opacity="0"/></linearGradient><linearGradient id="paint8_linear" x1="18.174" y1="150.613" x2="18.174" y2="209.392" gradientUnits="userSpaceOnUse"><stop stop-color="#FF5A4C"/><stop offset="1" stop-color="#FF5A4C" stop-opacity="0"/></linearGradient><linearGradient id="paint9_linear" x1="205.131" y1="106.017" x2="205.131" y2="163.701" gradientUnits="userSpaceOnUse"><stop stop-color="#FF5A4C"/><stop offset="1" stop-color="#FF5A4C" stop-opacity="0"/></linearGradient><linearGradient id="paint10_linear" x1="242.571" y1="176.613" x2="242.571" y2="215.34" gradientUnits="userSpaceOnUse"><stop stop-color="#FF5A4C"/><stop offset="1" stop-color="#FF5A4C" stop-opacity="0"/></linearGradient><clipPath id="clip0"><path fill="#fff" d="M0 0h262v369H0z"/></clipPath></defs></svg>