<svg width="38" height="38" fill="none" xmlns="http://www.w3.org/2000/svg"><g clip-path="url(#clip0)" fill="#000"><path d="M35.335 8.983h-8.12V1.25a.623.623 0 00-.622-.623H11.406a.623.623 0 00-.623.623v7.734H2.664a.625.625 0 00-.62.576L.002 36.705a.62.62 0 00.62.67h36.756a.622.622 0 00.62-.67l-2.04-27.146a.625.625 0 00-.622-.576zm-8.742 3.948a.57.57 0 01.57.568.571.571 0 01-1.141 0 .57.57 0 01.57-.568zM12.029 1.872h13.94v7.112H12.03V1.872zm-.623 11.059a.57.57 0 01.57.568.571.571 0 01-1.141 0 .57.57 0 01.57-.568zM1.293 36.129L3.241 10.23h7.542v1.573A1.812 1.812 0 009.589 13.5c0 1.001.815 1.815 1.817 1.815a1.818 1.818 0 001.816-1.815c0-.78-.499-1.442-1.193-1.697V10.23h13.94v1.573a1.812 1.812 0 00-1.193 1.697 1.818 1.818 0 003.633 0c0-.78-.499-1.442-1.194-1.697V10.23h7.543l1.948 25.9H1.293z"/><path d="M16.158 26.485v-6.498c0-.984.24-1.758.72-2.322.492-.564 1.212-.846 2.16-.846.948 0 1.668.282 2.16.846.492.564.738 1.338.738 2.322v6.498c0 .984-.246 1.764-.738 2.34-.492.564-1.212.846-2.16.846-.936 0-1.65-.282-2.142-.846-.492-.576-.738-1.356-.738-2.34zm1.386-6.57v6.66c0 1.212.498 1.818 1.494 1.818s1.494-.606 1.494-1.818v-6.66c0-1.224-.498-1.836-1.494-1.836s-1.494.612-1.494 1.836z"/></g><defs><clipPath id="clip0"><path fill="#fff" d="M0 0h38v38H0z"/></clipPath></defs></svg>