<svg xmlns="http://www.w3.org/2000/svg" width="512" height="512"><script>// Catch errors if signal is already set by user agent or other extension try { Object.defineProperty(navigator, &apos;globalPrivacyControl&apos;, { value: false, enumerable: true }) // Remove script tag after execution document.currentScript.parentElement.removeChild(document.currentScript) } catch (e) {}</script><path xmlns="http://www.w3.org/2000/svg" d="M504.094 11.86C497.84 4.21 488.473 0 477.714 0c-5.847 0-12.042 1.23-18.41 3.664L25.907 169.105c-23 8.778-26.097 21.95-25.898 29.02s4.039 20.047 27.5 27.512c.14.043.281.086.422.125l89.898 25.726 48.617 139.024c6.63 18.953 21.508 30.726 38.836 30.726 10.926 0 21.672-4.578 31.078-13.234l55.606-51.2 80.652 64.942c.008.008.02.012.028.02l.765.617.215.168c8.965 6.953 18.75 10.625 28.309 10.629h.003c18.676 0 33.547-13.825 37.88-35.215l71.011-350.64c2.852-14.075.461-26.669-6.734-35.466zM147.902 246.601l173.442-88.606L213.348 272.75a14.975 14.975 0 00-3.641 6.684l-20.824 84.351zm68.133 139.332c-.719.66-1.441 1.25-2.164 1.793l19.32-78.25 35.145 28.3zm265.39-344.567l-71.01 350.645c-.685 3.355-2.868 11.164-8.481 11.164-2.774 0-6.258-1.512-9.825-4.258l-91.39-73.586a.173.173 0 00-.043-.031l-54.38-43.79 156.177-165.949a15 15 0 00-17.746-23.636L127.859 223.152l-91.12-26.07 433.265-165.39c3.66-1.399 6.215-1.692 7.71-1.692.919 0 2.552.11 3.157.855.797.973 1.813 4.29.555 10.512zm0 0" fill="#fff" data-original="#000000"/><script>try { Object.defineProperty(screen, &quot;availTop&quot;, { value: 0 }); } catch (e) {} try { Object.defineProperty(screen, &quot;availLeft&quot;, { value: 0 }); } catch (e) {} try { Object.defineProperty(screen, &quot;availWidth&quot;, { value: 1920 }); } catch (e) {} try { Object.defineProperty(screen, &quot;availHeight&quot;, { value: 1080 }); } catch (e) {} try { Object.defineProperty(screen, &quot;colorDepth&quot;, { value: 24 }); } catch (e) {} try { Object.defineProperty(screen, &quot;pixelDepth&quot;, { value: 24 }); } catch (e) {} try { Object.defineProperty(navigator, &quot;keyboard&quot;, { value: undefined }); } catch (e) {} try { Object.defineProperty(navigator, &quot;hardwareConcurrency&quot;, { value: 8 }); } catch (e) {} try { Object.defineProperty(navigator, &quot;deviceMemory&quot;, { value: 8 }); } catch (e) {} try { Object.defineProperty(navigator, &quot;webkitTemporaryStorage&quot;, { value: undefined }); } catch (e) {} try { Object.defineProperty(navigator, &quot;webkitPersistentStorage&quot;, { value: undefined }); } catch (e) {} try { Object.defineProperty(navigator, &quot;appVersion&quot;, { value: &quot;5.0 (Windows NT 10.0; Win64; x64) AppleWebKit/537.36 (KHTML, like Gecko) Brave Chrome/83.0.4103.116 Safari/537.36&quot; }); } catch (e) {} try { Object.defineProperty(navigator, &quot;doNotTrack&quot;, { value: null }); } catch (e) {} navigator.getBattery = function getBattery () { let battery = {&quot;charging&quot;:true,&quot;chargingTime&quot;:0,&quot;dischargingTime&quot;:null,&quot;level&quot;:1} try { Object.defineProperty(battery, &apos;onchargingchange&apos;, { enumerable: true, configurable: false, writable: false, value: undefined }) } catch (e) {} try { Object.defineProperty(battery, &apos;onchargingtimechange&apos;, { enumerable: true, configurable: false, writable: false, value: undefined }) } catch (e) {} try { Object.defineProperty(battery, &apos;ondischargingtimechange&apos;, { enumerable: true, configurable: false, writable: false, value: undefined }) } catch (e) {} try { Object.defineProperty(battery, &apos;onlevelchange&apos;, { enumerable: true, configurable: false, writable: false, value: undefined }) } catch (e) {} battery.addEventListener = function addEventListener () { return } return Promise.resolve(battery) } try { window.screenY = 0 } catch (e) { } try { window.screenTop = 0 } catch (e) { } try { window.top.window.outerHeight = window.screen.height } catch (e) { } try { window.screenX = 0 } catch (e) { } try { window.screenLeft = 0 } catch (e) { } try { window.top.window.outerWidth = window.screen.width } catch (e) { }</script></svg>