<svg width="150" height="150" fill="none" xmlns="http://www.w3.org/2000/svg"><g clip-path="url(#clip0)"><path d="M123.32 44.228a2.948 2.948 0 00-2.07-.858c-.77 0-1.526.313-2.071.858a2.955 2.955 0 00-.858 2.07c0 .77.313 1.526.858 2.07a2.954 2.954 0 002.071.86c.77 0 1.526-.314 2.07-.86a2.95 2.95 0 00.859-2.07 2.95 2.95 0 00-.859-2.07z" fill="#FF5A4C"/><path d="M121.25 37.658a2.929 2.929 0 002.929-2.928V8.81c0-4.845-3.941-8.786-8.786-8.786H8.786C3.942.024 0 3.965 0 8.81v132.38c0 4.845 3.942 8.786 8.786 8.786h106.607c4.845 0 8.787-3.941 8.787-8.786v-13.154a2.93 2.93 0 00-5.858 0v13.154a2.932 2.932 0 01-2.929 2.929H8.786a2.932 2.932 0 01-2.928-2.929V8.81a2.932 2.932 0 012.928-2.929h106.607a2.932 2.932 0 012.929 2.93V34.73a2.929 2.929 0 002.928 2.928z" fill="#6672FB"/><path d="M147.427 117.819l-15.108-15.108a32.004 32.004 0 004.088-15.684c0-17.754-14.444-32.198-32.198-32.198-.177 0-.354.004-.53.007V38.72a2.93 2.93 0 00-2.929-2.93H83.633V19.978a2.93 2.93 0 00-2.929-2.93H60.66a2.93 2.93 0 00-2.929 2.93V37.55H40.613a2.93 2.93 0 00-2.929 2.929v15.815H23.431a2.93 2.93 0 00-2.929 2.93v15.814a2.93 2.93 0 002.929 2.93h49.88a32.099 32.099 0 00-1.3 9.06c0 17.754 14.443 32.198 32.198 32.198 5.69 0 11.04-1.486 15.684-4.088l15.009 15.009c1.768 1.768 4.066 2.659 6.355 2.659a8.675 8.675 0 005.941-2.34 8.716 8.716 0 002.801-6.276 8.715 8.715 0 00-2.572-6.37zM37.684 72.109H26.36V62.15h11.324v9.958zm20.046 0H43.542V43.407H57.73v28.702zm5.857 0V22.905h14.188v30.424a2.93 2.93 0 005.858 0V41.65H97.82v13.816c-9.62 1.945-17.7 8.194-22.137 16.644H63.587zm40.622 41.258c-14.524 0-26.34-11.817-26.34-26.34 0-14.524 11.815-26.341 26.34-26.341 14.524 0 26.34 11.816 26.34 26.34 0 14.525-11.816 26.341-26.34 26.341zm38.997 12.812c-1.139 1.06-3.005.982-4.162-.176L124.8 111.759a32.481 32.481 0 004.142-4.142l14.343 14.343a2.91 2.91 0 01.858 2.124 2.913 2.913 0 01-.937 2.095z" fill="#6672FB"/><path d="M111.834 72.051a2.93 2.93 0 00-3.991 1.11l-15.747 27.895a2.93 2.93 0 005.1 2.88l15.748-27.894a2.93 2.93 0 00-1.11-3.99zm2.608 17.476c-4.845 0-8.787 3.942-8.787 8.786 0 4.845 3.942 8.787 8.787 8.787 4.845 0 8.786-3.942 8.786-8.787 0-4.845-3.941-8.786-8.786-8.786zm0 11.715a2.932 2.932 0 01-2.929-2.929 2.932 2.932 0 012.929-2.929 2.931 2.931 0 012.928 2.93 2.932 2.932 0 01-2.928 2.928zM93.975 66.953c-4.845 0-8.786 3.942-8.786 8.787 0 4.845 3.941 8.786 8.786 8.786s8.786-3.941 8.786-8.786-3.942-8.787-8.786-8.787zm0 11.715a2.932 2.932 0 01-2.929-2.928 2.932 2.932 0 012.929-2.93 2.932 2.932 0 012.929 2.93 2.932 2.932 0 01-2.93 2.928zm5.856 49.635H18.743a2.93 2.93 0 000 5.858h81.088a2.93 2.93 0 000-5.858zM62.09 111.902H43.93a2.93 2.93 0 000 5.858h18.16a2.93 2.93 0 000-5.858zm12.81.859a2.95 2.95 0 00-2.07-.859c-.771 0-1.527.314-2.072.859a2.936 2.936 0 00-.858 2.07c0 .77.31 1.526.858 2.071a2.95 2.95 0 002.071.858 2.95 2.95 0 002.07-.858 2.955 2.955 0 00.859-2.071c0-.77-.313-1.526-.858-2.07zm-12.81-17.26H43.93a2.93 2.93 0 000 5.858h18.16a2.93 2.93 0 000-5.858zm-36.904 7.466c-1.938 0-3.514-1.31-3.514-2.92 0-1.61 1.576-2.918 3.514-2.918 1.939 0 3.515 1.31 3.515 2.918a2.929 2.929 0 105.858 0c0-3.882-2.708-7.182-6.447-8.335a2.928 2.928 0 00-5.852 0c-3.738 1.153-6.446 4.453-6.446 8.335 0 4.84 4.204 8.777 9.372 8.777 1.939 0 3.515 1.31 3.515 2.919s-1.576 2.919-3.515 2.919c-1.938 0-3.514-1.31-3.514-2.919a2.93 2.93 0 00-5.857 0c0 3.882 2.705 7.18 6.443 8.335v.169a2.93 2.93 0 005.857 0v-.169c3.738-1.155 6.444-4.453 6.444-8.335 0-4.839-4.205-8.776-9.372-8.776z" fill="#FF5A4C"/></g><defs><clipPath id="clip0"><path fill="#fff" d="M0 0h150v150H0z"/></clipPath></defs></svg>