<svg width="30" height="30" viewBox="0 0 30 30" fill="none" xmlns="http://www.w3.org/2000/svg">
<g clip-path="url(#clip0)">
<path d="M27.8961 7.09236H21.4859V0.985841C21.4859 0.714422 21.2656 0.494141 20.9942 0.494141H9.0046C8.73318 0.494141 8.5129 0.714422 8.5129 0.985841V7.09236H2.10349C1.84781 7.09236 1.63225 7.29219 1.61336 7.54709L0.001375 28.9781C-0.00885236 29.1142 0.0383508 29.2495 0.130397 29.3479C0.222443 29.4486 0.353826 29.506 0.491502 29.506H29.5089C29.6466 29.506 29.7779 29.4486 29.8692 29.3487C29.962 29.2495 30.0092 29.1142 29.999 28.9773L28.387 7.54709C28.3681 7.29219 28.1526 7.09236 27.8961 7.09236ZM20.9942 10.2086C21.2428 10.2086 21.445 10.41 21.445 10.657C21.445 10.9048 21.2428 11.107 20.9942 11.107C20.7456 11.107 20.5434 10.9048 20.5434 10.657C20.5434 10.41 20.7456 10.2086 20.9942 10.2086ZM9.4963 1.47833H20.5025V7.09315H9.4963V1.47833ZM9.0046 10.2086C9.2532 10.2086 9.45539 10.41 9.45539 10.657C9.45539 10.9048 9.2532 11.107 9.0046 11.107C8.756 11.107 8.55381 10.9048 8.55381 10.657C8.55381 10.41 8.756 10.2086 9.0046 10.2086ZM1.02096 28.5234L2.559 8.07655H8.5129V9.31799C7.96456 9.51939 7.57041 10.0418 7.57041 10.6578C7.57041 11.4484 8.21395 12.0912 9.0046 12.0912C9.79525 12.0912 10.4388 11.4484 10.4388 10.6578C10.4388 10.0418 10.0446 9.51939 9.4963 9.31799V8.07655H20.5025V9.31799C19.9542 9.51939 19.56 10.0418 19.56 10.6578C19.56 11.4484 20.2036 12.0912 20.9942 12.0912C21.7849 12.0912 22.4284 11.4484 22.4284 10.6578C22.4284 10.0418 22.0343 9.51939 21.4859 9.31799V8.07655H27.4406L28.9786 28.5234H1.02096Z" fill="black"/>
</g>
<defs>
<clipPath id="clip0">
<rect width="30" height="30" fill="white"/>
</clipPath>
</defs>
</svg>
