<svg width="35" height="35" viewBox="0 0 35 35" fill="none" xmlns="http://www.w3.org/2000/svg">
<path fill-rule="evenodd" clip-rule="evenodd" d="M22.1924 24.8369C22.0906 24.7353 22.0098 24.6146 21.9546 24.4817C21.8995 24.3488 21.8711 24.2064 21.8711 24.0625C21.8711 23.9186 21.8995 23.7762 21.9546 23.6433C22.0098 23.5104 22.0906 23.3897 22.1924 23.2881L27.9827 17.5L22.1924 11.7119C22.0907 11.6102 22.0101 11.4895 21.955 11.3566C21.9 11.2237 21.8717 11.0813 21.8717 10.9375C21.8717 10.7937 21.9 10.6513 21.955 10.5184C22.0101 10.3855 22.0907 10.2648 22.1924 10.1631C22.2941 10.0614 22.4148 9.98076 22.5477 9.92573C22.6806 9.87069 22.823 9.84237 22.9668 9.84237C23.1106 9.84237 23.253 9.87069 23.3859 9.92573C23.5188 9.98076 23.6395 10.0614 23.7412 10.1631L30.3037 16.7256C30.4055 16.8272 30.4863 16.9479 30.5415 17.0808C30.5966 17.2137 30.625 17.3561 30.625 17.5C30.625 17.6439 30.5966 17.7863 30.5415 17.9192C30.4863 18.0521 30.4055 18.1728 30.3037 18.2744L23.7412 24.8369C23.6396 24.9387 23.5189 25.0195 23.386 25.0747C23.2531 25.1298 23.1107 25.1582 22.9668 25.1582C22.8229 25.1582 22.6805 25.1298 22.5476 25.0747C22.4147 25.0195 22.294 24.9387 22.1924 24.8369Z" fill="black"/>
<path fill-rule="evenodd" clip-rule="evenodd" d="M29.5303 17.5C29.5303 17.7901 29.4151 18.0683 29.21 18.2734C29.0049 18.4785 28.7267 18.5938 28.4366 18.5938H5.46783C5.17775 18.5938 4.89955 18.4785 4.69444 18.2734C4.48932 18.0683 4.37408 17.7901 4.37408 17.5C4.37408 17.2099 4.48932 16.9317 4.69444 16.7266C4.89955 16.5215 5.17775 16.4062 5.46783 16.4062H28.4366C28.7267 16.4062 29.0049 16.5215 29.21 16.7266C29.4151 16.9317 29.5303 17.2099 29.5303 17.5Z" fill="black"/>
</svg>
