<svg width="19" height="10" viewBox="0 0 19 10" fill="none" xmlns="http://www.w3.org/2000/svg">
<path fill-rule="evenodd" clip-rule="evenodd" d="M12.8527 9.19236C12.78 9.1343 12.7222 9.06533 12.6828 8.9894C12.6435 8.91347 12.6232 8.83207 12.6232 8.74986C12.6232 8.66765 12.6435 8.58625 12.6828 8.51032C12.7222 8.43439 12.78 8.36542 12.8527 8.30736L16.9886 4.99986L12.8527 1.69236C12.7801 1.63425 12.7224 1.56526 12.6831 1.48934C12.6438 1.41342 12.6236 1.33204 12.6236 1.24986C12.6236 1.16768 12.6438 1.0863 12.6831 1.01038C12.7224 0.934457 12.7801 0.86547 12.8527 0.807361C12.9253 0.74925 13.0116 0.703155 13.1065 0.671706C13.2014 0.640257 13.3031 0.624071 13.4058 0.624071C13.5086 0.624071 13.6103 0.640257 13.7052 0.671706C13.8001 0.703155 13.8863 0.74925 13.959 0.807361L18.6465 4.55736C18.7192 4.61542 18.7769 4.68439 18.8163 4.76032C18.8557 4.83625 18.876 4.91765 18.876 4.99986C18.876 5.08207 18.8557 5.16347 18.8163 5.2394C18.7769 5.31533 18.7192 5.3843 18.6465 5.44236L13.959 9.19236C13.8864 9.25056 13.8002 9.29674 13.7053 9.32825C13.6103 9.35976 13.5086 9.37598 13.4058 9.37598C13.3031 9.37598 13.2013 9.35976 13.1064 9.32825C13.0115 9.29674 12.9253 9.25056 12.8527 9.19236Z" fill="#C9C7C7"/>
<path fill-rule="evenodd" clip-rule="evenodd" d="M18.0938 5C18.0938 5.16576 18.0114 5.32473 17.8649 5.44194C17.7184 5.55915 17.5197 5.625 17.3125 5.625H0.90625C0.699049 5.625 0.500336 5.55915 0.353823 5.44194C0.20731 5.32473 0.125 5.16576 0.125 5C0.125 4.83424 0.20731 4.67527 0.353823 4.55806C0.500336 4.44085 0.699049 4.375 0.90625 4.375H17.3125C17.5197 4.375 17.7184 4.44085 17.8649 4.55806C18.0114 4.67527 18.0938 4.83424 18.0938 5Z" fill="#C9C7C7"/>
</svg>
