<svg width="38" height="38" viewBox="0 0 38 38" fill="none" xmlns="http://www.w3.org/2000/svg">
<path d="M19.0002 19.0491C8.98618 19.0491 0.838867 27.1965 0.838867 37.2105C0.838867 37.6463 1.19264 38.0001 1.62852 38.0001C2.06439 38.0001 2.41817 37.6463 2.41817 37.2105C2.41817 28.0666 9.85645 20.6283 19.0003 20.6283C28.1442 20.6283 35.5825 28.0666 35.5825 37.2105C35.5825 37.6463 35.9362 38.0001 36.3721 38.0001C36.808 38.0001 37.1618 37.6463 37.1618 37.2105C37.1617 27.1948 29.0143 19.0491 19.0002 19.0491Z" fill="black"/>
<path d="M19.0003 0C14.212 0 10.3145 3.89599 10.3145 8.68586C10.3145 13.4757 14.2121 17.3717 19.0003 17.3717C23.7886 17.3717 27.6862 13.4757 27.6862 8.68586C27.6862 3.89599 23.7886 0 19.0003 0ZM19.0003 15.7925C15.0822 15.7925 11.8937 12.604 11.8937 8.68586C11.8937 4.76774 15.0822 1.57923 19.0003 1.57923C22.9184 1.57923 26.107 4.76774 26.107 8.68586C26.107 12.604 22.9184 15.7925 19.0003 15.7925Z" fill="black"/>
</svg>
