<svg width="25" height="25" viewBox="0 0 25 25" fill="none" xmlns="http://www.w3.org/2000/svg">
<path d="M12.4855 0.00195313C12.0374 0.00195313 11.5896 0.0260434 11.1441 0.0740675C10.7357 0.115782 10.3323 0.184194 9.93433 0.267207C9.85731 0.283319 9.78024 0.300318 9.70323 0.318099C7.3585 0.851943 5.21749 2.05077 3.53696 3.77083C3.38068 3.93101 3.2277 4.09594 3.0781 4.26556C-1.46151 9.47719 -0.916715 17.3821 4.29497 21.9217C9.28446 26.2678 16.7949 25.9787 21.4355 21.2618C21.5921 21.1016 21.745 20.9367 21.8944 20.7671C23.8978 18.4856 25.0018 15.5526 25 12.5163C25 5.60476 19.3971 0.00190098 12.4855 0.00195313ZM4.09302 4.39655C4.15892 4.32814 4.22734 4.26264 4.2945 4.19632C4.37209 4.11998 4.44926 4.04322 4.52852 3.96939C4.59818 3.90431 4.66993 3.84174 4.74126 3.77833C4.82177 3.707 4.90186 3.63567 4.98446 3.56684C5.05704 3.50552 5.13171 3.4467 5.20596 3.38747C5.28939 3.32072 5.37282 3.25398 5.45876 3.18974C5.53468 3.13259 5.61185 3.07711 5.68944 3.02288C5.77579 2.96114 5.86255 2.89774 5.95057 2.84017C6.02941 2.78678 6.10909 2.73505 6.18918 2.68374C6.27845 2.62659 6.36814 2.57028 6.45866 2.51688C6.54016 2.46823 6.62218 2.42036 6.70477 2.37338C6.79712 2.32082 6.88983 2.26951 6.98301 2.21946C7.06644 2.17498 7.14987 2.13144 7.2333 2.08889C7.32841 2.04092 7.42435 1.99461 7.52071 1.94914C7.60414 1.90952 7.69091 1.86989 7.77684 1.83234C7.87487 1.79063 7.97415 1.74891 8.07343 1.7072C8.15978 1.67174 8.24572 1.63712 8.3329 1.60375C8.43385 1.56537 8.53605 1.52949 8.63825 1.49362C8.72544 1.46317 8.81262 1.43272 8.90106 1.40393C9.00492 1.37056 9.10963 1.33969 9.21475 1.30924C9.30277 1.28379 9.38995 1.25751 9.47839 1.23374C9.51218 1.22498 9.54596 1.21789 9.57975 1.20913C8.345 2.40806 7.42868 3.89602 6.91377 5.53828C5.92367 5.27714 4.96517 4.90828 4.05547 4.43826C4.06924 4.42366 4.08092 4.40906 4.09302 4.39655ZM3.49316 5.06815C4.4952 5.61107 5.55778 6.03395 6.65889 6.32794C6.1191 8.20489 5.83575 10.1462 5.81667 12.0992H0.815072C0.905958 9.52386 1.84772 7.05132 3.49316 5.06815ZM3.49316 19.9645C1.84782 17.9813 0.906062 15.5087 0.815072 12.9335H5.81667C5.83575 14.8864 6.11905 16.8277 6.65889 18.7047C5.55783 18.9988 4.49525 19.4216 3.49316 19.9645ZM9.47588 23.8006C9.39162 23.7793 9.30444 23.7518 9.21767 23.7263C9.11213 23.6954 9.00618 23.6646 8.90189 23.6308C8.81387 23.6024 8.7271 23.572 8.64034 23.5415C8.53772 23.5061 8.4351 23.4698 8.33373 23.431C8.24697 23.398 8.16145 23.3634 8.07552 23.3284C7.97582 23.2866 7.87612 23.2449 7.77726 23.2032C7.69216 23.1657 7.60748 23.127 7.52322 23.0872C7.42602 23.0414 7.32924 22.9946 7.23121 22.9463C7.14778 22.9045 7.06436 22.8628 6.98093 22.8174C6.88665 22.7669 6.79321 22.7152 6.69977 22.6618C6.61634 22.6155 6.53708 22.5679 6.45657 22.5195C6.3648 22.4644 6.2747 22.4077 6.18459 22.3497C6.10533 22.2993 6.02608 22.2479 5.94807 22.1954C5.85922 22.1353 5.7712 22.0727 5.68402 22.0102C5.60768 21.9555 5.53134 21.9009 5.45625 21.8433C5.3699 21.7782 5.28522 21.7111 5.20096 21.6435C5.12712 21.5847 5.05371 21.5263 4.98154 21.4658C4.89811 21.3965 4.8176 21.3244 4.73667 21.2526C4.66576 21.1896 4.59443 21.1275 4.52518 21.0632C4.4455 20.989 4.36833 20.9118 4.29074 20.8355C4.22358 20.7692 4.15517 20.7037 4.08926 20.6357C4.07716 20.6227 4.06548 20.6094 4.05339 20.5969C4.96303 20.1266 5.92153 19.7576 6.91168 19.4964C7.4267 21.1386 8.34296 22.6266 9.57767 23.8256C9.54388 23.8168 9.50967 23.8097 9.47588 23.8006ZM12.0685 24.1635C10.2835 23.9099 8.71876 22.0469 7.73429 19.2958C9.1576 18.9771 10.6101 18.8061 12.0685 18.7856V24.1635ZM12.0685 17.9513C10.5214 17.9717 8.98078 18.1554 7.47232 18.4995C6.94854 16.6897 6.67224 14.8174 6.65096 12.9335H12.0685V17.9513ZM12.0685 12.0992H6.65096C6.67218 10.2153 6.94849 8.34292 7.47232 6.53318C8.98078 6.87717 10.5214 7.06092 12.0685 7.08131V12.0992ZM12.0685 6.24701C10.61 6.22668 9.1576 6.0557 7.73429 5.73684C8.71876 2.98575 10.2835 1.12278 12.0685 0.86915V6.24701ZM21.478 5.06815C23.1234 7.05138 24.0651 9.52391 24.1561 12.0992H19.1545C19.1355 10.1462 18.8522 8.20489 18.3123 6.32794C19.4134 6.0338 20.476 5.61097 21.478 5.06815ZM15.492 1.23165C15.5796 1.25334 15.6668 1.28087 15.7535 1.30632C15.8591 1.33719 15.965 1.36806 16.0693 1.40185C16.1573 1.43021 16.2441 1.46066 16.3309 1.49112C16.4335 1.52657 16.5361 1.56287 16.6375 1.60166C16.7242 1.63462 16.8098 1.66924 16.8957 1.70428C16.9954 1.74599 17.0951 1.78771 17.1939 1.82942C17.279 1.86697 17.3637 1.9056 17.448 1.94539C17.5452 1.99128 17.642 2.038 17.74 2.08639C17.8234 2.1281 17.9068 2.16982 17.9903 2.21528C18.0846 2.26576 18.178 2.31749 18.2714 2.37088C18.3549 2.41718 18.4341 2.46474 18.5146 2.51313C18.6064 2.56819 18.6965 2.62492 18.7866 2.68291C18.8659 2.73338 18.9451 2.78469 19.0231 2.83725C19.112 2.89732 19.1996 2.95948 19.2868 3.02205C19.3635 3.07669 19.4399 3.13176 19.5154 3.18891C19.6013 3.25356 19.6856 3.32072 19.7702 3.3883C19.8437 3.4467 19.9175 3.5051 19.9897 3.56601C20.0731 3.63525 20.1536 3.70742 20.2345 3.77917C20.3054 3.84216 20.3768 3.90431 20.446 3.96855C20.5257 4.04281 20.6029 4.11998 20.6805 4.19632C20.7476 4.26264 20.816 4.32814 20.8819 4.39613C20.894 4.40906 20.9057 4.42241 20.9178 4.43492C20.0082 4.90515 19.0497 5.27417 18.0595 5.53536C17.5435 3.89295 16.626 2.40514 15.3902 1.20662C15.424 1.21538 15.4582 1.22247 15.492 1.23165ZM12.9027 0.86915C14.6877 1.12278 16.2524 2.98575 17.2369 5.73684C15.8136 6.05554 14.3611 6.22652 12.9027 6.24701V0.86915ZM12.9027 7.08131C14.4498 7.06097 15.9904 6.87722 17.4989 6.53318C18.0227 8.34292 18.299 10.2153 18.3202 12.0992H12.9027V7.08131ZM12.9027 12.9335H18.3202C18.299 14.8174 18.0227 16.6897 17.4989 18.4995C15.9904 18.1555 14.4498 17.9717 12.9027 17.9513V12.9335ZM12.9027 24.1635V18.7856C14.3612 18.806 15.8136 18.9769 17.2369 19.2958C16.2524 22.0469 14.6877 23.9099 12.9027 24.1635ZM20.8782 20.6361C20.8123 20.7041 20.7443 20.7696 20.6771 20.8359C20.5995 20.9122 20.5219 20.9894 20.4423 21.0637C20.373 21.1283 20.3017 21.1888 20.2308 21.2535C20.1498 21.3252 20.0693 21.397 19.9867 21.4662C19.9137 21.5271 19.8395 21.5859 19.7652 21.6452C19.6818 21.7119 19.5984 21.7787 19.5124 21.8429C19.4365 21.9 19.3594 21.9555 19.2818 22.0098C19.1954 22.0715 19.1086 22.1349 19.0206 22.1925C18.9418 22.2459 18.8621 22.2976 18.782 22.3485C18.6928 22.406 18.6028 22.4617 18.5121 22.5153C18.4287 22.5641 18.349 22.6117 18.2668 22.6588C18.1745 22.7114 18.0816 22.7627 17.9882 22.8128C17.9048 22.8572 17.8213 22.9008 17.7379 22.9433C17.6428 22.9913 17.5469 23.0376 17.4505 23.0831C17.3671 23.1227 17.2803 23.1623 17.1944 23.1999C17.0963 23.2416 16.997 23.2833 16.8978 23.325C16.8114 23.3601 16.7255 23.3951 16.6387 23.4281C16.5369 23.4669 16.4347 23.5031 16.3321 23.5386C16.2453 23.5691 16.1586 23.5995 16.0706 23.6279C15.9663 23.6617 15.862 23.6925 15.7556 23.723C15.6684 23.7488 15.5808 23.7747 15.4928 23.7985C15.459 23.8072 15.4252 23.8143 15.3914 23.8231C16.6262 22.6242 17.5425 21.1362 18.0574 19.4939C19.0475 19.7551 20.006 20.1239 20.9157 20.594C20.902 20.609 20.8903 20.6236 20.8782 20.6361ZM21.478 19.9645C20.476 19.4216 19.4134 18.9987 18.3123 18.7047C18.8521 16.8277 19.1355 14.8864 19.1545 12.9335H24.1561C24.0653 15.5087 23.1235 17.9813 21.478 19.9645Z" fill="black"/>
</svg>
