<svg width="35" height="35" viewBox="0 0 35 35" fill="none" xmlns="http://www.w3.org/2000/svg">
<path fill-rule="evenodd" clip-rule="evenodd" d="M26.8377 8.21483C25.6249 6.99404 24.1819 6.02604 22.5923 5.36693C21.0027 4.70781 19.2981 4.37067 17.5773 4.37504C10.3615 4.37504 4.48729 10.2478 4.48438 17.4665C4.48438 19.7736 5.08667 22.0252 6.23146 24.0115L4.375 30.7942L11.3152 28.9727C13.2349 30.0178 15.3857 30.5658 17.5715 30.5667H17.5773C24.7917 30.5667 30.6658 24.694 30.6687 17.4752C30.6737 15.7551 30.3377 14.0511 29.6801 12.4616C29.0225 10.8721 28.0565 9.42871 26.8377 8.21483ZM17.5773 28.3573H17.5729C15.6239 28.3575 13.7107 27.8332 12.0342 26.8392L11.6375 26.603L7.51917 27.6836L8.61729 23.6688L8.35917 23.2575C7.26948 21.5227 6.69263 19.5151 6.69521 17.4665C6.69812 11.4669 11.5792 6.58588 17.5817 6.58588C19.0112 6.5827 20.4272 6.86308 21.7476 7.41078C23.0681 7.95849 24.2668 8.76264 25.2744 9.77671C26.2874 10.7859 27.0903 11.9859 27.6367 13.3073C28.1831 14.6287 28.4623 16.0453 28.4579 17.4752C28.455 23.4748 23.574 28.3573 17.5773 28.3573ZM23.5462 20.2067C23.2181 20.0419 21.611 19.2515 21.3106 19.1421C21.0117 19.0328 20.7944 18.9788 20.5756 19.3055C20.3569 19.6321 19.7298 20.3686 19.5387 20.5873C19.3477 20.8061 19.1567 20.8323 18.83 20.669C18.5033 20.5057 17.449 20.16 16.1992 19.0459C15.2265 18.1782 14.5702 17.1077 14.3792 16.7796C14.1881 16.4515 14.3587 16.275 14.5235 16.1117C14.6708 15.9659 14.8502 15.7296 15.0135 15.5386C15.1769 15.3475 15.2308 15.2119 15.3402 14.9932C15.4496 14.7744 15.3956 14.5834 15.3125 14.42C15.2308 14.2552 14.576 12.6452 14.3033 11.9905C14.0394 11.3561 13.7696 11.4407 13.5683 11.4319C13.3599 11.4234 13.1513 11.4195 12.9427 11.4202C12.7768 11.4245 12.6136 11.4629 12.4633 11.5332C12.313 11.6035 12.1788 11.704 12.0692 11.8286C11.7687 12.1567 10.9244 12.9471 10.9244 14.5571C10.9244 16.1671 12.0969 17.7232 12.2602 17.9419C12.4235 18.1607 14.5673 21.4638 17.8485 22.8813C18.6302 23.2182 19.2398 23.4194 19.7137 23.5711C20.4969 23.8205 21.21 23.784 21.7744 23.7009C22.4029 23.6075 23.7096 22.9105 23.9823 22.1463C24.255 21.3821 24.255 20.7273 24.1733 20.5903C24.0917 20.4532 23.8715 20.37 23.5462 20.2067Z" fill="black"/>
</svg>
