<svg width="49" height="28" fill="none" xmlns="http://www.w3.org/2000/svg"><path fill-rule="evenodd" clip-rule="evenodd" d="M23.974 27.883h2.929s.884-.098 1.336-.585c.416-.448.402-1.289.402-1.289s-.057-3.936 1.767-4.516c1.798-.571 4.107 3.805 6.555 5.487 1.85 1.273 3.256.994 3.256.994l6.544-.091s3.423-.211 1.8-2.907c-.133-.22-.945-1.995-4.865-5.64-4.103-3.814-3.554-3.197 1.389-9.795 3.01-4.019 4.213-6.472 3.837-7.523-.358-1-2.572-.736-2.572-.736l-7.368.046s-.546-.075-.951.168c-.396.237-.65.792-.65.792s-1.167 3.11-2.722 5.754c-3.28 5.58-4.593 5.875-5.129 5.528-1.247-.807-.936-3.244-.936-4.975 0-5.408.82-7.662-1.594-8.246-.801-.194-1.39-.322-3.439-.343-2.629-.027-4.854.008-6.114.627-.838.41-1.484 1.327-1.09 1.38.486.065 1.59.297 2.174 1.095.755 1.029.728 3.34.728 3.34s.434 6.365-1.013 7.156c-.993.543-2.355-.565-5.28-5.627-1.499-2.594-2.63-5.46-2.63-5.46s-.218-.536-.608-.822c-.472-.347-1.132-.458-1.132-.458l-7.001.046S.546 1.313.16 1.77c-.343.407-.027 1.25-.027 1.25S5.614 15.864 11.82 22.337c5.691 5.935 12.154 5.545 12.154 5.545z" fill="#4D76A1"/></svg>