<svg width="22" height="22" fill="none" xmlns="http://www.w3.org/2000/svg"><path d="M13.102 15.446l3.291-5.803c.54-.977.825-2.087.825-3.21C17.218 2.886 14.428 0 11 0S4.783 2.886 4.783 6.433a6.57 6.57 0 00.832 3.215l3.283 5.798c-3.02.413-5.072 1.684-5.072 3.206C3.826 20.561 6.91 22 11 22s7.174-1.44 7.174-3.348c0-1.522-2.052-2.794-5.072-3.206zM6.448 9.178a5.6 5.6 0 01-.709-2.745C5.74 3.413 8.1.957 11 .957s5.261 2.456 5.261 5.476c0 .961-.244 1.912-.703 2.743L11 17.215l-.913-1.61-3.639-6.427zM11 21.044c-3.664 0-6.217-1.26-6.217-2.392 0-.909 1.722-1.995 4.624-2.306l1.177 2.074a.478.478 0 00.832 0l1.177-2.074c2.901.31 4.625 1.398 4.625 2.306 0 1.131-2.554 2.392-6.218 2.392z" fill="#000"/><path d="M14.348 6.217A3.352 3.352 0 0011 2.87a3.352 3.352 0 00-3.348 3.347A3.352 3.352 0 0011 9.565a3.352 3.352 0 003.348-3.348zm-5.74 0A2.394 2.394 0 0111 3.827a2.394 2.394 0 012.392 2.39A2.394 2.394 0 0111 8.61a2.394 2.394 0 01-2.39-2.393z" fill="#000"/></svg>