<svg xmlns="http://www.w3.org/2000/svg" height="512" viewBox="0 0 57 60" width="512"><path d="M54 9a9.01 9.01 0 00-9-9H9a9.01 9.01 0 00-9 9v42a9.01 9.01 0 009 9h29a18.968 18.968 0 0016-29.206zM9 58a7.008 7.008 0 01-7-7V9a7.008 7.008 0 017-7h36a7.008 7.008 0 017 7v19.2a19.142 19.142 0 00-2-1.915V9a5.006 5.006 0 00-5-5H9a5.006 5.006 0 00-5 5v28a5.006 5.006 0 005 5h10.051a18.9 18.9 0 004.234 11H19a1 1 0 000 2h6.2a19.039 19.039 0 004.366 3zm10.051-18H9a3 3 0 01-3-3v-1.586l10.5-10.5L18.586 27a2 2 0 002.828 0L36.5 11.914l11.5 11.5v1.461A18.94 18.94 0 0019.051 40zM48 20.586L37.914 10.5a2 2 0 00-2.828 0L20 25.586 17.914 23.5a2.047 2.047 0 00-2.828 0L6 32.586V9a3 3 0 013-3h36a3 3 0 013 3zM38 58c-9.389 0-17-7.611-17-17s7.611-17 17-17 17 7.611 17 17c-.01 9.385-7.615 16.99-17 17z" data-original="#000000" class="active-path" data-old_color="#000000" fill="#FFF"/><path d="M13 53h-3a1 1 0 000 2h3a1 1 0 000-2zm1-44a5 5 0 100 10 5 5 0 000-10zm0 8a3 3 0 110-6 3 3 0 010 6zm16 24.142V32a1 1 0 00-2 0v9.142a3.981 3.981 0 000 7.716V50a1 1 0 002 0v-1.142a3.981 3.981 0 000-7.716zM29 47a2 2 0 110-4 2 2 0 010 4zm19-5.858V32a1 1 0 00-2 0v9.142a3.981 3.981 0 000 7.716V50a1 1 0 002 0v-1.142a3.981 3.981 0 000-7.716zM47 47a2 2 0 110-4 2 2 0 010 4zm-8-13.858V32a1 1 0 00-2 0v1.142a3.981 3.981 0 000 7.716V50a1 1 0 002 0v-9.142a3.981 3.981 0 000-7.716zM38 39a2 2 0 110-4 2 2 0 010 4z" data-original="#000000" class="active-path" data-old_color="#000000" fill="#FFF"/></svg>