<svg width="165" height="44" fill="none" xmlns="http://www.w3.org/2000/svg"><path d="M18.41 43.964a.392.392 0 01-.25 0c-6.6-2.248-10.736-7.283-14.261-12.394C.35 26.427.098 21.635.03 18.136c-.068-3.507 0-14.03 0-14.03L6.767 2.63v2.418l7.34-1.65v-2.4L18.202 0l4.208.94v2.399l7.34 1.732V2.624l6.79 1.483s.067 10.522 0 14.029c-.069 3.499-.322 8.29-3.87 13.434-3.525 5.111-7.66 10.146-14.26 12.394z" fill="#6672FB"/><path d="M4.121 21.839S6.28 34.457 18.156 40.096V21.839H4.121zM18.155 5.926v15.912h13.893s.756-3.184.756-6.943V9.3L18.155 5.926z" fill="#fff"/><path fill-rule="evenodd" clip-rule="evenodd" d="M58.755 22.009L56.54 12.62h-3.873l4.225 14.505c.151.426.017.64-.402.64h-2.465l.629 3.453h2.867c.453 0 .83-.051 1.132-.154a2.04 2.04 0 00.78-.435c.2-.204.36-.443.477-.716.118-.273.218-.588.302-.946l3.899-16.347h-3.647l-1.71 9.389zm2.268-8.707l-1.609 8.83-1.312.036-2.09-8.866h-2.446l3.965 13.612c.09.264.177.682-.06 1.058-.257.408-.7.474-.98.474h-1.659l.38 2.09h2.31c.409 0 .709-.047.92-.119l.005-.002.005-.001c.238-.077.404-.175.518-.278.135-.14.244-.304.327-.496a5.05 5.05 0 00.264-.831v-.003l3.698-15.504h-2.236zM45.435 30.101c.23.229.73.435 1.71.435h3.57l.396-2.09h-2.684a.977.977 0 01-.736-.307 1.069 1.069 0 01-.262-.733V16.432c0-.213.048-.5.261-.733a.977.977 0 01.737-.308h2.69l-.38-2.089h-4.171c-.466 0-.831.142-1.135.413-.244.23-.408.589-.408 1.182v13.507c0 .96.194 1.46.412 1.697zm-.479.477c-.402-.426-.604-1.15-.604-2.174V14.897c0-.733.21-1.296.63-1.688.435-.393.964-.589 1.584-.589h4.729l.628 3.454h-3.496c-.218 0-.327.119-.327.358v10.974c0 .239.11.358.327.358h3.496l-.654 3.454h-4.124c-1.04 0-1.77-.213-2.189-.64zM73.3 28.447h-4.24l.172-.824c.18-.866.328-1.776.443-2.73.116-.96.207-1.928.273-2.905.067-.999.117-1.997.15-2.996l.1-2.943.024-.658H73.3v13.056zm-2.682-6.413c-.068.99-.16 1.97-.277 2.942a34.296 34.296 0 01-.453 2.788h2.742v-11.69h-1.76l-.102 2.941a90.742 90.742 0 01-.15 3.02zm-2.365 9.184h5.71v3.376l3.395-.639v-6.19h-1.006V12.62h-9.03c0 1.927-.058 3.778-.175 5.551a90.62 90.62 0 01-.428 4.758c-.15 1.382-.31 2.507-.478 3.377-.168.87-.302 1.356-.402 1.458h-.981v6.83l3.395-.639v-2.737zm-.67 2.17v-2.852h7.05v3.238l2.055-.386v-4.941H75.68V13.302h-7.69a83.685 83.685 0 01-.175 4.915 91.327 91.327 0 01-.43 4.792c-.153 1.389-.314 2.534-.487 3.428-.085.442-.164.801-.239 1.07a3.588 3.588 0 01-.118.365c-.032.081-.1.244-.23.375l-.196.2h-.588v5.327l2.055-.386z" fill="#6672FB"/><mask id="a" fill="#fff"><path d="M82.617 20.627h.503l2.34-7.47c.117-.358.385-.537.804-.537h2.692l.628 3.454h-1.282c-.135 0-.218.06-.252.179l-1.459 4.937 2.868 10.028h-4.05l-2.037-7.726h-.755v7.726h-3.723V12.62h3.723v8.007zm11.969-4.758c-.218 0-.327.12-.327.358v11.358c0 .137.016.239.05.307.05.051.151.077.302.077h1.383c.151 0 .243-.026.277-.077.05-.068.075-.17.075-.307V16.227c0-.239-.109-.358-.327-.358h-1.433zm5.458 12.714c0 .358-.042.7-.126 1.023-.067.307-.201.58-.402.819-.202.238-.47.435-.805.588-.336.137-.755.205-1.258.205h-4.276c-.503 0-.922-.068-1.257-.205a2.261 2.261 0 01-.805-.588 2.122 2.122 0 01-.428-.819 5.038 5.038 0 01-.1-1.023V15.025c0-.734.192-1.313.578-1.74.386-.443 1.006-.665 1.861-.665h4.578c.855 0 1.476.222 1.861.665.386.427.579 1.006.579 1.74v13.558zm10.93 2.635h-3.723v-7.419h-1.987v7.419h-3.722V12.62h3.722v7.982h1.987V12.62h3.723v18.598zm8.692-18.598l.905 3.454h-2.44v15.144h-3.722V16.074h-2.44l.956-3.454h6.741zm5.541 3.249v7.342h1.811c.151 0 .243-.026.277-.077.05-.068.075-.17.075-.307v-6.6c0-.239-.109-.358-.327-.358h-1.836zm5.709 8.007c0 .733-.201 1.322-.603 1.765-.386.426-1.006.64-1.861.64h-3.245v4.937h-3.622V12.62h6.867c.855 0 1.475.213 1.861.64.402.426.603 1.006.603 1.74v8.876zm5.427-8.007c-.218 0-.327.12-.327.358v11.358c0 .137.016.239.05.307.05.051.151.077.302.077h1.383c.151 0 .243-.026.277-.077.05-.068.075-.17.075-.307V16.227c0-.239-.109-.358-.327-.358h-1.433zm5.458 12.714c0 .358-.042.7-.126 1.023-.067.307-.201.58-.402.819-.202.238-.47.435-.805.588-.336.137-.755.205-1.258.205h-4.276c-.503 0-.922-.068-1.257-.205a2.255 2.255 0 01-.805-.588 2.115 2.115 0 01-.428-.819 5.044 5.044 0 01-.101-1.023V15.025c0-.734.193-1.313.579-1.74.386-.443 1.006-.665 1.861-.665h4.578c.855 0 1.476.222 1.861.665.386.427.579 1.006.579 1.74v13.558zm12.162 2.635h-3.722V16.074h-1.987v15.144h-4.83l-.629-3.454h1.736V12.62h9.432v18.598zm5.241-11.358h3.32c.856 0 1.476.221 1.862.665.402.426.603 1.006.603 1.74v6.574c0 .733-.201 1.313-.603 1.74-.386.426-1.006.639-1.862.639h-7.042V12.62h3.722v7.24zm1.887 8.109c.218 0 .327-.12.327-.358v-4.298c0-.136-.025-.23-.076-.281-.033-.069-.126-.103-.276-.103h-1.862v5.04h1.887z"/></mask><path d="M82.617 20.627h.503l2.34-7.47c.117-.358.385-.537.804-.537h2.692l.628 3.454h-1.282c-.135 0-.218.06-.252.179l-1.459 4.937 2.868 10.028h-4.05l-2.037-7.726h-.755v7.726h-3.723V12.62h3.723v8.007zm11.969-4.758c-.218 0-.327.12-.327.358v11.358c0 .137.016.239.05.307.05.051.151.077.302.077h1.383c.151 0 .243-.026.277-.077.05-.068.075-.17.075-.307V16.227c0-.239-.109-.358-.327-.358h-1.433zm5.458 12.714c0 .358-.042.7-.126 1.023-.067.307-.201.58-.402.819-.202.238-.47.435-.805.588-.336.137-.755.205-1.258.205h-4.276c-.503 0-.922-.068-1.257-.205a2.261 2.261 0 01-.805-.588 2.122 2.122 0 01-.428-.819 5.038 5.038 0 01-.1-1.023V15.025c0-.734.192-1.313.578-1.74.386-.443 1.006-.665 1.861-.665h4.578c.855 0 1.476.222 1.861.665.386.427.579 1.006.579 1.74v13.558zm10.93 2.635h-3.723v-7.419h-1.987v7.419h-3.722V12.62h3.722v7.982h1.987V12.62h3.723v18.598zm8.692-18.598l.905 3.454h-2.44v15.144h-3.722V16.074h-2.44l.956-3.454h6.741zm5.541 3.249v7.342h1.811c.151 0 .243-.026.277-.077.05-.068.075-.17.075-.307v-6.6c0-.239-.109-.358-.327-.358h-1.836zm5.709 8.007c0 .733-.201 1.322-.603 1.765-.386.426-1.006.64-1.861.64h-3.245v4.937h-3.622V12.62h6.867c.855 0 1.475.213 1.861.64.402.426.603 1.006.603 1.74v8.876zm5.427-8.007c-.218 0-.327.12-.327.358v11.358c0 .137.016.239.05.307.05.051.151.077.302.077h1.383c.151 0 .243-.026.277-.077.05-.068.075-.17.075-.307V16.227c0-.239-.109-.358-.327-.358h-1.433zm5.458 12.714c0 .358-.042.7-.126 1.023-.067.307-.201.58-.402.819-.202.238-.47.435-.805.588-.336.137-.755.205-1.258.205h-4.276c-.503 0-.922-.068-1.257-.205a2.255 2.255 0 01-.805-.588 2.115 2.115 0 01-.428-.819 5.044 5.044 0 01-.101-1.023V15.025c0-.734.193-1.313.579-1.74.386-.443 1.006-.665 1.861-.665h4.578c.855 0 1.476.222 1.861.665.386.427.579 1.006.579 1.74v13.558zm12.162 2.635h-3.722V16.074h-1.987v15.144h-4.83l-.629-3.454h1.736V12.62h9.432v18.598zm5.241-11.358h3.32c.856 0 1.476.221 1.862.665.402.426.603 1.006.603 1.74v6.574c0 .733-.201 1.313-.603 1.74-.386.426-1.006.639-1.862.639h-7.042V12.62h3.722v7.24zm1.887 8.109c.218 0 .327-.12.327-.358v-4.298c0-.136-.025-.23-.076-.281-.033-.069-.126-.103-.276-.103h-1.862v5.04h1.887z" fill="#6672FB"/><path d="M82.617 20.627h.503l2.34-7.47c.117-.358.385-.537.804-.537h2.692l.628 3.454h-1.282c-.135 0-.218.06-.252.179l-1.459 4.937 2.868 10.028h-4.05l-2.037-7.726h-.755v7.726h-3.723V12.62h3.723v8.007zm11.969-4.758c-.218 0-.327.12-.327.358v11.358c0 .137.016.239.05.307.05.051.151.077.302.077h1.383c.151 0 .243-.026.277-.077.05-.068.075-.17.075-.307V16.227c0-.239-.109-.358-.327-.358h-1.433zm5.458 12.714c0 .358-.042.7-.126 1.023-.067.307-.201.58-.402.819-.202.238-.47.435-.805.588-.336.137-.755.205-1.258.205h-4.276c-.503 0-.922-.068-1.257-.205a2.261 2.261 0 01-.805-.588 2.122 2.122 0 01-.428-.819 5.038 5.038 0 01-.1-1.023V15.025c0-.734.192-1.313.578-1.74.386-.443 1.006-.665 1.861-.665h4.578c.855 0 1.476.222 1.861.665.386.427.579 1.006.579 1.74v13.558zm10.93 2.635h-3.723v-7.419h-1.987v7.419h-3.722V12.62h3.722v7.982h1.987V12.62h3.723v18.598zm8.692-18.598l.905 3.454h-2.44v15.144h-3.722V16.074h-2.44l.956-3.454h6.741zm5.541 3.249v7.342h1.811c.151 0 .243-.026.277-.077.05-.068.075-.17.075-.307v-6.6c0-.239-.109-.358-.327-.358h-1.836zm5.709 8.007c0 .733-.201 1.322-.603 1.765-.386.426-1.006.64-1.861.64h-3.245v4.937h-3.622V12.62h6.867c.855 0 1.475.213 1.861.64.402.426.603 1.006.603 1.74v8.876zm5.427-8.007c-.218 0-.327.12-.327.358v11.358c0 .137.016.239.05.307.05.051.151.077.302.077h1.383c.151 0 .243-.026.277-.077.05-.068.075-.17.075-.307V16.227c0-.239-.109-.358-.327-.358h-1.433zm5.458 12.714c0 .358-.042.7-.126 1.023-.067.307-.201.58-.402.819-.202.238-.47.435-.805.588-.336.137-.755.205-1.258.205h-4.276c-.503 0-.922-.068-1.257-.205a2.255 2.255 0 01-.805-.588 2.115 2.115 0 01-.428-.819 5.044 5.044 0 01-.101-1.023V15.025c0-.734.193-1.313.579-1.74.386-.443 1.006-.665 1.861-.665h4.578c.855 0 1.476.222 1.861.665.386.427.579 1.006.579 1.74v13.558zm12.162 2.635h-3.722V16.074h-1.987v15.144h-4.83l-.629-3.454h1.736V12.62h9.432v18.598zm5.241-11.358h3.32c.856 0 1.476.221 1.862.665.402.426.603 1.006.603 1.74v6.574c0 .733-.201 1.313-.603 1.74-.386.426-1.006.639-1.862.639h-7.042V12.62h3.722v7.24zm1.887 8.109c.218 0 .327-.12.327-.358v-4.298c0-.136-.025-.23-.076-.281-.033-.069-.126-.103-.276-.103h-1.862v5.04h1.887z" stroke="#6672FB" stroke-width="4" mask="url(#a)"/></svg>