<svg width="95" height="58" fill="none" xmlns="http://www.w3.org/2000/svg"><path d="M81.354 9.646c.078-.065.156-.136.233-.2.12.668.219 1.337.297 1.996-2.231 2.613-4.628 5.126-7.052 7.542a19.807 19.807 0 01-3.309-2.55c3.065-2.94 6.475-5.541 9.506-8.555-.37.969-.792 1.908-1.33 2.818.6-.25 1.143-.624 1.656-1.052z" fill="#003D60"/><path d="M71.525 16.435a19.81 19.81 0 003.308 2.55c6.235 3.861 13.947 4.2 17.797 4.14 3.705 6.103 2.802 12.231-.878 16.63a17.283 17.283 0 00-1.125-.263c-15.158-5.516-36.4 1.16-53.428 1.237-8.832.038-16.531-1.694-21.665-7.83-1.933-2.309-3.309-5.118-4.278-8.015.779-3.292 2.737-6.497 6.1-9.304C28.37 6.387 53.511 1.51 65.72 10.417c1.356.81 3.778 3.486 4.344 4.442l.093.11c.435.52.895 1.007 1.37 1.466h-.001zm20.553 11.57c-.421-.504-1.073-.752-1.693-.273l-.037.03c-.624.521-.453 1.42.035 2.004.432.517 1.113.786 1.714.312a1 1 0 00.027-.022c.615-.513.45-1.458-.045-2.051h-.001zm-1.563-3.292c-1.63-.035-3.106.566-4.27 1.538-3.025 2.524-3.457 6.933-1.356 9.444 1.47 1.757 3.36 2.08 4.59 2.284a5.57 5.57 0 01-2.682-1.78c-2.143-2.562-2.218-7.066.88-9.652.883-.737 1.918-1.338 2.838-1.833zm1.082 10.149c.705-.589.517-1.543-.024-2.19-.57-.68-1.451-.964-2.15-.38-.684.57-.488 1.54.061 2.198.486.58 1.245.914 1.905.517a1.67 1.67 0 00.208-.145zM76.64 22.915c-.66-.788-2.177-.809-3.083-.053-1.074.896-1.332 2.694-.285 3.944.387.463.637.585 1.078.62l-.002.026a2.483 2.483 0 001.867-.575c1.316-1.098 1.159-3.085.424-3.963zm-4.433 5.174a1.512 1.512 0 00-.257-.423c-.684-.818-2.195-1.288-3.151-.49-1.276 1.065-1.727 2.917-.395 4.509.726.868 2.029.619 2.878-.09.104-.088.195-.175.282-.27.72-.829 1.045-2.164.644-3.236h-.001zm-14.486 3.87c-1.082-2.166-1.23-4.622-.8-7.025a13.542 13.542 0 00-4.637 2.544c-2.118 1.768-3.702 4.154-4.278 6.776 3.692.414 6.801-.421 9.714-2.295zm-9.967-13.54l-4.009-4.79-6.107 5.223-3.078-3.37-4.016 3.545-2.146-1.63-4.081 3.469-2.002-2.012-4.346 3.308c-.748.448-.31 1.38.698.835.151-.126 3.345-1.95 3.345-1.95l2.756 2.284 3.92-3.273 2.093 1.806 3.817-3.634 2.766 3.305 5.864-4.895 3.276 3.534c.447.527.996.53 1.444.003.36-.716.313-1.133-.193-1.758h-.001zM41.519 35.7c1.356.64 2.165-1.657.712-2.01l-6.301-2.427-3.97 2.6-2.67-2.421-4.127 2.8-3.603-1.45c-.833-.341-1.481.894-.723 1.378l4.603 2.49 3.947-2.778 2.697 2.527 4.16-3.148 5.275 2.44z" fill="#007BC3"/><path d="M90.384 27.732c.62-.478 1.272-.231 1.693.272.496.594.66 1.538.046 2.05a1 1 0 01-.027.023c-.602.474-1.282.205-1.714-.312-.489-.583-.66-1.481-.036-2.003l.037-.031h.001z" fill="#003D60"/><path d="M86.244 26.252c1.166-.972 2.642-1.573 4.272-1.538-.92.495-1.956 1.097-2.839 1.833-3.098 2.586-3.023 7.09-.88 9.652a5.56 5.56 0 002.682 1.78c-1.23-.203-3.12-.526-4.59-2.284-2.102-2.51-1.669-6.92 1.355-9.444zM66.464 0a21.85 21.85 0 012.14 2.189c3.144 3.757 3.051 7.115 1.457 12.67-.567-.957-2.989-3.632-4.344-4.442-.473-3.597-.343-6.74.746-10.417h.001z" fill="#003D60"/><path d="M91.573 32.673c.54.647.73 1.6.025 2.19a1.942 1.942 0 01-.21.145c-.66.397-1.418.063-1.903-.518-.55-.657-.746-1.627-.061-2.198.697-.583 1.58-.3 2.149.381zm-17.224-5.246c-.44-.035-.691-.157-1.078-.62-1.046-1.25-.79-3.048.285-3.944.906-.757 2.423-.736 3.083.052.734.879.891 2.864-.424 3.963-.504.421-1.16.65-1.868.575l.003-.025h-.001zm1.082-3.557c-.297-.355-.792-.483-1.319-.043-.577.481-.466 1.227-.06 1.712.31.37.784.542 1.217.181a.052.052 0 00.01-.008c.61-.52.543-1.375.153-1.842zm15.194 15.624a24.289 24.289 0 00-3.035-.44c-4.58-.378-9.511.366-13.948 1.667-3.055.893-5.872 2.049-8.188 3.275.095.753.205 1.498.33 2.248-1.746-1.51-3.287-3.895-3.312-3.932-.194-.3-.482-.303-.673-.008-.018.033-1.167 1.76-2.601 3.208a47.987 47.987 0 01-5.713.81c-1.93-1.515-3.75-4.01-3.774-4.046-.191-.262-.46-.255-.645.02-.024.038-1.827 2.674-3.771 4.166l-.003.002a61.161 61.161 0 01-5.147-.481c-1.709-1.518-3.166-3.655-3.19-3.69-.158-.23-.374-.27-.549-.124l.79-1.44c17.029-.076 38.27-6.754 53.428-1.237l.001.002z" fill="#003D60"/><path d="M74.113 23.827c.527-.44 1.021-.312 1.319.043.39.466.456 1.322-.153 1.841l-.01.009c-.433.362-.908.19-1.217-.18-.407-.486-.517-1.232.06-1.713z" fill="#007BC3"/><path d="M87.904 41.588c.29.218.228.715.096 1.082-.242.691-.615 1.316-1.055 1.894-.643.844-1.42 1.584-2.121 2.294-1.1 1.106-2.536 2.4-4.091 2.402-2.426.003-5.39-3.758-6.377-5.114-.962 1.371-3.797 5.116-6.142 5.114-.645-.002-1.332-.29-1.996-.737a61.446 61.446 0 01-.433-2.28c.81.701 1.664 1.218 2.434 1.219 2.42.002 5.756-5.106 5.789-5.156a.543.543 0 01.118-.138c.175-.146.392-.104.551.127.032.053 3.531 5.167 6.059 5.17 1.562 0 3.022-1.539 4.07-2.686.351-.39 1.608-2.259 2.45-2.963.277-.229.506-.336.648-.227v-.001z" fill="#fff"/><path d="M71.949 27.666c.11.13.2.272.256.423.401 1.072.077 2.408-.643 3.236a2.852 2.852 0 01-.282.27c-.85.709-2.152.957-2.878.09-1.333-1.593-.881-3.444.394-4.508.957-.8 2.467-.33 3.152.489zm-1.217 2.354c.55-.46.45-1.383.04-1.872-.316-.38-.764-.444-1.214-.069-.623.521-.606 1.435-.208 1.91.283.339.76.46 1.333.067.016-.014.035-.025.05-.035l-.001-.001z" fill="#003D60"/><path d="M70.773 28.147c.41.489.51 1.413-.041 1.872-.013.012-.033.022-.05.036-.572.392-1.05.272-1.333-.067-.399-.476-.416-1.39.209-1.91.45-.376.897-.31 1.214.068z" fill="#007BC3"/><path d="M56.92 24.933c-.429 2.402-.282 4.86.8 7.025-2.913 1.874-6.022 2.709-9.714 2.295.576-2.622 2.16-5.008 4.278-6.776a13.542 13.542 0 014.638-2.544h-.001zM43.745 13.63l4.009 4.79c.506.625.552 1.042.193 1.757-.448.528-.997.525-1.444-.002l-3.276-3.534-5.864 4.895-2.766-3.305-3.817 3.634-2.093-1.806-3.92 3.273-2.755-2.284s-3.194 1.824-3.346 1.95c-1.008.545-1.447-.387-.698-.835l4.346-3.308 2.002 2.012 4.081-3.47 2.146 1.631 4.017-3.545 3.077 3.37 6.107-5.223h.001z" fill="#003D60"/><path d="M61.8 42.304c.19-.297.479-.292.673.008.025.036 1.565 2.422 3.312 3.931.13.762.274 1.525.433 2.28-1.748-1.155-3.397-3.37-4.09-4.368a23.96 23.96 0 01-2.057 2.542c-.255-.408-.518-.81-.784-1.202-.028.006-.057.013-.088.017 1.434-1.448 2.583-3.175 2.602-3.207l-.001-.001z" fill="#fff"/><path d="M62.127 44.154c.694.998 2.343 3.215 4.09 4.37a65.934 65.934 0 002.302 8.139c-.614-.535-1.187-1.18-2.16-1.995.303.926.726 1.78 1.181 2.624-.54.007-1.079-.022-1.621-.098-1.852-3.481-3.731-7.163-5.849-10.498a23.913 23.913 0 002.057-2.542z" fill="#003D60"/><path d="M59.198 45.511c.03-.004.06-.01.088-.017.266.393.529.795.784 1.202-1.22 1.302-2.724 2.53-4.07 2.565a.34.34 0 01-.055 0c-1.438-.001-3.157-1.402-4.52-2.798a52.13 52.13 0 002.06-.142c.847.665 1.711 1.145 2.456 1.144l.044-.003c1.018-.023 2.188-.914 3.212-1.951z" fill="#fff"/><path d="M49.068 42.296c.186-.275.454-.282.645-.02.024.036 1.844 2.532 3.774 4.047-.68.06-1.364.108-2.06.142a27.55 27.55 0 01-2.02-2.34 25.239 25.239 0 01-1.989 2.407 59.447 59.447 0 01-2.121-.069c1.944-1.492 3.746-4.128 3.771-4.166z" fill="#fff"/><path d="M42.23 33.689c1.452.353.644 2.65-.712 2.011l-5.275-2.44-4.16 3.148-2.697-2.527-3.947 2.777-4.603-2.489c-.758-.483-.11-1.719.723-1.378l3.602 1.45 4.127-2.8 2.672 2.422 3.969-2.601 6.3 2.426v.001zm7.177 10.435a27.54 27.54 0 002.02 2.339 59.24 59.24 0 01-4.009.066 25.141 25.141 0 001.99-2.406z" fill="#003D60"/><path d="M45.296 46.462c.708.036 1.417.06 2.12.07-1.297 1.378-2.946 2.732-4.402 2.728-1.791-.001-3.87-2.042-5.235-3.659.78.14 1.57.267 2.367.382.95.835 1.97 1.482 2.867 1.478.715.002 1.512-.408 2.28-.997l.003-.002z" fill="#fff"/><path d="M37.198 40.73l-.79 1.44a.53.53 0 00-.118.137 24.943 24.943 0 01-1.931 2.523c-.392-.1-.78-.21-1.16-.324.222.287.449.57.678.85-1.063 1.115-2.307 2.109-3.375 2.106-2.42-.005-5.717-5.1-5.749-5.153-.185-.29-.495-.292-.686-.002a24.295 24.295 0 01-1.82 2.368c-2.497-1.122-4.808-2.495-6.954-5.06-2.423-2.896-3.954-6.225-4.341-9.637-3.468 2.86-7.904 1.912-9.99-.583-1.28-1.528-1.274-3.332-.032-4.369 1.245-1.04 3.62-1.193 4.717.117.799.956.393 2.33.078 2.594-.248.207-.557-.031-.863-.396-.325-.39-.65-.927-.908-1.235-.35-.42-.933-.331-1.255-.063-.557.466-.69 1.704-.065 2.452 1.024 1.223 3.98 1.757 6.997-.761.483-.404.934-.853 1.342-1.32.068-.512.16-1.021.283-1.528.97 2.896 2.346 5.706 4.279 8.015 5.133 6.135 12.832 7.868 21.664 7.829h-.001z" fill="#003D60"/><path d="M36.409 42.17c.175-.146.39-.105.548.123.024.036 1.482 2.173 3.19 3.69a66.462 66.462 0 01-2.366-.381 25.73 25.73 0 01-1.146-1.458c-.191.274-.461.641-.78 1.056a29.582 29.582 0 01-1.496-.37 24.943 24.943 0 001.932-2.521.529.529 0 01.118-.139z" fill="#fff"/><path d="M36.634 44.143c.26.358.657.88 1.146 1.458a47.975 47.975 0 01-1.927-.402c.32-.415.59-.782.781-1.057v.001z" fill="#003D60"/><path d="M34.36 44.83c.488.134.985.258 1.495.37a23.42 23.42 0 01-1.048 1.255 36.098 36.098 0 01-.93-1.097c.165-.177.326-.352.482-.528z" fill="#fff"/><path d="M42.696 53.444c-1.49-.22-2.91-.772-4.135-1.73.24.34.5.67.768.992.432.516.894 1.013 1.366 1.502-.725.156-1.48.234-2.28.247-2.362-2.482-4.603-4.187-6.733-5.472 1.088-.476 2.203-1.502 3.123-2.527a42.558 42.558 0 007.89 6.988z" fill="#003D60"/><path d="M33.876 45.358c.102.13.207.254.313.382.202.24.408.479.616.715-.92 1.025-2.035 2.052-3.123 2.528-1.983-1.192-3.87-2.015-5.664-2.749a24.432 24.432 0 01-1.615-2.086c-.202.283-.479.668-.825 1.098-.449-.188-.895-.374-1.334-.57a24.006 24.006 0 001.82-2.37c.192-.289.502-.286.687.003.032.053 3.328 5.149 5.749 5.153 1.069.003 2.312-.99 3.375-2.105z" fill="#fff"/><path d="M31.683 48.983c-.404.178-.805.278-1.187.278-1.505-.008-3.207-1.558-4.476-3.027 1.794.734 3.68 1.558 5.663 2.748z" fill="#fff"/><path d="M24.404 44.148a24.43 24.43 0 001.614 2.086c-.83-.338-1.646-.66-2.44-.988.346-.432.623-.815.826-1.099z" fill="#003D60"/><path d="M22.246 44.675c.439.197.885.383 1.334.572-1.293 1.643-3.449 3.966-5.307 4.014-2.247.053-5.263-3.442-6.45-4.95-.23-.292-.282-.853-.118-1.257.166-.401.488-.493.717-.2.856 1.084 3.788 4.61 5.795 4.61.013 0 .025.002.041 0 1.285-.032 2.82-1.448 3.989-2.788h-.001z" fill="#fff"/></svg>