<svg width="333" height="400" viewBox="0 0 333 400" fill="none" xmlns="http://www.w3.org/2000/svg">
<path d="M167.621 399.674C166.891 399.921 166.078 399.921 165.348 399.674C105.255 379.241 67.594 333.466 35.4966 286.999C3.19557 240.244 0.889514 196.68 0.274323 164.871C-0.342904 132.994 0.274323 37.3333 0.274323 37.3333L61.611 23.9008V45.8832L128.446 30.8796V9.0708L165.729 -3.05176e-05L204.044 8.54575V30.3545L270.879 46.1023V23.8553L332.695 37.3333C332.695 37.3333 333.31 132.994 332.695 164.871C332.076 196.68 329.772 240.244 297.474 286.999C265.374 333.466 227.714 379.241 167.621 399.674Z" stroke-width="10px" stroke="white" fill="#6672FB"/>
<path d="M37.52 198.532C37.52 198.532 57.1695 313.248 165.31 364.506C165.31 286.458 165.31 198.532 165.31 198.532H37.52Z" fill="white"/>
<path d="M165.31 53.8716V198.533H291.807C291.807 198.533 298.687 169.579 298.687 135.414C298.687 101.243 298.687 84.5445 298.687 84.5445L165.31 53.8716Z" fill="white"/>
</svg>
