<svg xmlns="http://www.w3.org/2000/svg" viewBox="0 0 30 30"><linearGradient id="a" gradientUnits="userSpaceOnUse" x1="2" y1="14.579" x2="28.687" y2="14.579"><stop offset="0" stop-color="#9862c2"/><stop offset="1" stop-color="#8041b3"/></linearGradient><path d="m27.9 22.7-.1-.1-1.8-1.8c1.2-2 1.9-4.2 1.9-6.7C27.8 7 22 1.2 14.9 1.2S2 7 2 14.1C2 21.2 7.8 27 14.9 27c2.4 0 4.7-.7 6.6-1.8l1.8 1.8.1.1c1.2 1.1 3.1 1.1 4.3-.1 1.3-1.1 1.3-3 .2-4.3zm-13.2-1.4c-4 0-7.2-3.2-7.2-7.2s3.2-7.2 7.2-7.2 7.2 3.2 7.2 7.2-3.2 7.2-7.2 7.2z" fill="url(#a)"/></svg>