<svg width="34" height="34" fill="none" xmlns="http://www.w3.org/2000/svg"><path d="M10.29 0C4.623 0 0 4.623 0 10.29v13.42C0 29.377 4.622 34 10.29 34h13.42C29.377 34 34 29.377 34 23.71V10.29C34 4.622 29.377 0 23.71 0H10.29zm0 2.684h13.42a7.586 7.586 0 0 1 7.606 7.606v13.42a7.586 7.586 0 0 1-7.605 7.606H10.29a7.586 7.586 0 0 1-7.606-7.605V10.29a7.585 7.585 0 0 1 7.606-7.606zm15.657 3.58a1.789 1.789 0 1 0 0 3.577 1.789 1.789 0 0 0 0-3.578zM17 8.052c-4.925 0-8.947 4.022-8.947 8.947 0 4.925 4.022 8.947 8.947 8.947 4.925 0 8.947-4.022 8.947-8.947 0-4.925-4.022-8.947-8.947-8.947zm0 2.684A6.244 6.244 0 0 1 23.263 17 6.244 6.244 0 0 1 17 23.263 6.244 6.244 0 0 1 10.737 17 6.244 6.244 0 0 1 17 10.737z" fill="#000"/></svg>