<svg width="36" height="34" fill="none" xmlns="http://www.w3.org/2000/svg"><path d="M8.571 0C3.847 0 0 3.634 0 8.095v17.81C0 30.366 3.847 34 8.571 34H27.43c4.723 0 8.57-3.634 8.57-8.095V8.095C36 3.634 32.153 0 27.429 0H8.57zm-.857 9.714h20.572c.154 0 .3.017.437.057l-8.426 7.95c-1.269 1.198-3.334 1.198-4.602 0l-8.418-7.95c.137-.04.283-.057.437-.057zM6.06 10.921 12.506 17 6.06 23.08a1.303 1.303 0 0 1-.06-.413V11.333c0-.145.017-.283.06-.412zm23.88 0c.043.13.06.267.06.412v11.334c0 .145-.017.283-.06.412L23.486 17l6.454-6.08zm-16.226 7.22.764.73c.968.914 2.245 1.367 3.514 1.367 1.277 0 2.545-.453 3.514-1.368l.771-.728 6.446 6.087c-.137.04-.283.057-.437.057H7.714c-.154 0-.3-.017-.437-.057l6.437-6.087z" fill="#000"/></svg>