<svg xmlns="http://www.w3.org/2000/svg" width="32" height="42" viewBox="0 0 32 42"><g><g><path fill="#12c2e9" d="M31.648 10.973l-1.502 1.351c.333.317.515.781.448 1.27a1.485 1.485 0 0 1-1.676 1.261l-1.06-.145a18.51 18.51 0 0 0-3.664 7.705 17.317 17.317 0 0 1-.461-4.954 20.566 20.566 0 0 1 1.806-3.068l-.529-.073a2.937 2.937 0 0 0-.13-2.238l.27-.724 2.654.363c.487-.484.626-.598 2.49-2.276a1.029 1.029 0 0 1 1.55.204c.277.422.18.986-.196 1.324zM24.536 9.72l-.492 1.323a2.975 2.975 0 0 0-1.947-.636l.518-1.392a1.026 1.026 0 0 1 1.315-.601c.53.194.802.78.606 1.306zm2.841 30.88a.81.81 0 0 1-.009 1.15.823.823 0 0 1-1.159-.009l-2.856-2.88S7.425 41.305 6.46 41.305a6.467 6.467 0 0 1-2.994-.73l-1.178 1.17a.823.823 0 0 1-1.238-.092c-.246-.327-.192-.789.098-1.077l.955-.95a6.387 6.387 0 0 1-2.107-4.742c0-3.406 2.668-6.19 6.04-6.407L7.1 25.167l-.42-4.194c.335.12.239.087 3.528.697l.351 3.51c.023.232-.002.466-.073.688l-1.027 3.205 2.082.275a3.208 3.208 0 0 0 1.238 1.704c-.885-.043-1.326.55-1.353 1.117a1.184 1.184 0 0 0 1.129 1.236l4.186.2a1.184 1.184 0 0 0 1.244-1.24c-.03-.612-.546-1.09-1.16-1.119l-.634-.03c.5-.28.875-.65 1.157-1.102l3.792.501.313-2.869 1.209 3.07 1.3.171-2.019-5.124c-1.18-3-1.629-6.2-1.344-9.354 2.1-.234 1.977-.219 2.082-.236a18.464 18.464 0 0 0 1.17 8.848l2.544 6.462c.59.347 1.08.846 1.413 1.442.308.551.484 1.185.484 1.86a3.842 3.842 0 0 1-2.897 3.714zM6.26 31.052c-1.963.099-3.557 1.683-3.657 3.633-.116 2.277 1.767 4.148 4.06 4.032 1.962-.099 3.557-1.683 3.656-3.633.116-2.277-1.767-4.148-4.059-4.032zM19.241 4.376c-.687 1.85-2.84 2.676-4.6 1.767a3.263 3.263 0 0 1-1.561-4.01c.686-1.85 2.84-2.677 4.6-1.768a3.262 3.262 0 0 1 1.561 4.011zm4.444 8.986c.002.758-.601 1.384-1.36 1.468l-5.862.654a1.492 1.492 0 0 1-1.305-.518l-3.61-4.275 2.256 4.768-.708 1.699 2.83.524a1.774 1.774 0 0 1 1.447 1.933l-.982 9.012a1.78 1.78 0 0 1-1.77 1.582 1.777 1.777 0 0 1-1.776-1.963l.803-7.38c-6.728-1.247-6.387-1.15-6.738-1.34-1.049-.397-1.495-1.674-1.046-2.848l3.292-8.612c.453-1.182 1.688-1.814 2.7-1.37 3.321 1.46 8.826 3.86 8.826 3.86l-3.743.417-3.115-2.18 3.1 3.667 5.109-.57a1.483 1.483 0 0 1 1.652 1.472z"/></g></g></svg>