<svg xmlns="http://www.w3.org/2000/svg" width="46" height="42" viewBox="0 0 46 42"><g><g><path fill="#12c2e9" d="M45.502 8.736a1.42 1.42 0 0 1-1.42 1.42h-1.197v4.008a.75.75 0 0 1-.75.75h-2.05a.75.75 0 0 1-.75-.75v-4.008h-2.92l-.82 7.747c-.194 1.833-2.468 2.5-3.645 1.153l-2.993-3.425v8.025l7.644 3.106a2.712 2.712 0 0 1 1.66 2.103l1.514 9.918a2.711 2.711 0 0 1-5.362.818l-1.281-8.395-7.016-2.85h-6.228l-7.016 2.85-1.28 8.395a2.711 2.711 0 0 1-5.362-.818l1.513-9.918a2.71 2.71 0 0 1 1.66-2.103l7.584-3.081v-7.979l-2.931 3.354c-1.21 1.384-3.456.63-3.645-1.153l-.82-7.747H6.667v4.008a.75.75 0 0 1-.75.75h-2.05a.75.75 0 0 1-.751-.75v-4.008H1.918a1.42 1.42 0 1 1 0-2.84h1.197V3.31a.75.75 0 0 1 .75-.75h2.05a.75.75 0 0 1 .75.75v4.008h2.628a2.09 2.09 0 0 1 1.856-2.272A2.09 2.09 0 0 1 13.442 6.9l.044.417h3.598a6.519 6.519 0 0 0 5.913 3.785 6.517 6.517 0 0 0 5.912-3.785h3.611l.045-.417a2.088 2.088 0 0 1 2.293-1.854 2.089 2.089 0 0 1 1.856 2.271h2.62V3.31a.75.75 0 0 1 .75-.75h2.05a.75.75 0 0 1 .751.75v4.007h1.197c.784 0 1.42.636 1.42 1.42zm-29.208 1.42h-2.508l.271 2.56 2.237-2.56zm15.926 0h-2.508l2.237 2.56.27-2.56zM22.997-.094a4.683 4.683 0 1 1 0 9.366 4.683 4.683 0 0 1 0-9.366z"/></g></g></svg>