<svg width="40" height="40" fill="none" xmlns="http://www.w3.org/2000/svg"><circle cx="20" cy="20" r="20" fill="#FF9344"/><circle cx="20" cy="20" r="14.286" fill="#E34D1C"/><g clip-path="url(#clip0)"><path fill-rule="evenodd" clip-rule="evenodd" d="M12.711 19.453c-.252-.682-.435-1.378-.38-2.118a1.73 1.73 0 01.54-1.163c.214-.202.421-.41.628-.62.144-.143.287-.288.433-.43.465-.458 1.048-.456 1.512 0 .287.281.571.568.856.856l.276.275c.184.184.37.369.553.554.485.49.488 1.062.003 1.55l-.26.26c-.261.262-.522.524-.787.78-.093.09-.102.166-.052.28.232.556.568 1.052.945 1.516.76.934 1.62 1.764 2.643 2.405.134.083.276.153.418.223.091.046.183.091.273.14.118.064.197.043.293-.055.345-.357.699-.708 1.053-1.06.464-.457 1.044-.46 1.508 0 .569.564 1.134 1.13 1.697 1.698.473.476.47 1.059-.006 1.537-.107.109-.216.215-.326.322-.218.212-.436.424-.637.65-.44.493-.998.656-1.63.621-.923-.05-1.773-.357-2.593-.754a14.113 14.113 0 01-4.68-3.661c-.963-1.149-1.758-2.396-2.28-3.806z" fill="#fff"/><path d="M26.707 14.707a1 1 0 00-1.414-1.414l1.414 1.414zm-6.414 3.586a1 1 0 001.414 1.414l-1.414-1.414zm5-5l-5 5 1.414 1.414 5-5-1.414-1.414z" fill="#fff"/><path d="M25 19h-4v-4" stroke="#fff" stroke-width="2" stroke-linecap="round" stroke-linejoin="round"/></g><defs><clipPath id="clip0"><path fill="#fff" transform="translate(12 11)" d="M0 0h17v17H0z"/></clipPath></defs></svg>