<svg width="38" height="36" viewBox="0 0 38 36" fill="none" xmlns="http://www.w3.org/2000/svg">
<path d="M28.1042 0.583252C23.8892 0.583252 20.4079 4.49829 19 6.34604C17.5921 4.49829 14.1108 0.583252 9.89581 0.583252C4.43925 0.583252 0 5.59999 0 11.7656C0 15.1294 1.3352 18.2643 3.67227 20.4098C3.70626 20.4685 3.74805 20.5226 3.79673 20.5713L18.4411 35.1854C18.5957 35.3393 18.7975 35.4166 19 35.4166C19.2025 35.4166 19.4051 35.3393 19.5598 35.1847L34.6911 20.0588L34.8473 19.9072C34.971 19.7905 35.0931 19.6722 35.2299 19.5207C35.2872 19.4643 35.3343 19.4008 35.3707 19.332C37.0677 17.2539 38 14.5735 38 11.7656C38 5.59999 33.5608 0.583252 28.1042 0.583252ZM34.0533 18.4414C34.0316 18.4669 34.0115 18.4939 33.9937 18.5218C33.9195 18.6068 33.8383 18.6818 33.758 18.7584L18.9993 33.5062L5.09638 19.6312C5.05155 19.543 4.98891 19.4626 4.91239 19.3954C2.79634 17.5477 1.58331 14.7668 1.58331 11.7656C1.58331 6.47281 5.31206 2.16663 9.89581 2.16663C14.4278 2.16663 18.2957 8.07786 18.3343 8.13738C18.6266 8.58886 19.3734 8.58886 19.6657 8.13738C19.7043 8.07786 23.5722 2.16663 28.1042 2.16663C32.6879 2.16663 36.4167 6.47288 36.4167 11.7656C36.4167 14.2596 35.5771 16.6308 34.0533 18.4414Z" fill="black"/>
</svg>
