<svg width="35" height="35" viewBox="0 0 35 35" fill="none" xmlns="http://www.w3.org/2000/svg">
<path d="M24.5066 12.0689C25.3765 12.0689 26.0816 11.3638 26.0816 10.4939C26.0816 9.6241 25.3765 8.91895 24.5066 8.91895C23.6368 8.91895 22.9316 9.6241 22.9316 10.4939C22.9316 11.3638 23.6368 12.0689 24.5066 12.0689Z" fill="black"/>
<path d="M17.5004 10.7607C16.1674 10.7607 14.8644 11.156 13.7561 11.8966C12.6477 12.6372 11.7839 13.6897 11.2738 14.9213C10.7637 16.1528 10.6302 17.5079 10.8902 18.8153C11.1503 20.1226 11.7922 21.3235 12.7348 22.2661C13.6773 23.2087 14.8782 23.8506 16.1856 24.1106C17.493 24.3707 18.8481 24.2372 20.0796 23.7271C21.3111 23.217 22.3637 22.3531 23.1043 21.2448C23.8448 20.1365 24.2401 18.8334 24.2401 17.5004C24.2401 15.713 23.53 13.9987 22.2661 12.7348C21.0022 11.4708 19.2879 10.7607 17.5004 10.7607ZM17.5004 21.8754C16.6351 21.8754 15.7893 21.6188 15.0698 21.1381C14.3503 20.6574 13.7896 19.9741 13.4585 19.1747C13.1273 18.3752 13.0407 17.4956 13.2095 16.6469C13.3783 15.7982 13.795 15.0187 14.4068 14.4068C15.0187 13.795 15.7982 13.3783 16.6469 13.2095C17.4956 13.0407 18.3752 13.1273 19.1747 13.4585C19.9741 13.7896 20.6574 14.3503 21.1381 15.0698C21.6188 15.7893 21.8754 16.6351 21.8754 17.5004C21.8754 18.6608 21.4145 19.7735 20.594 20.594C19.7736 21.4145 18.6608 21.8754 17.5004 21.8754Z" fill="black"/>
<path d="M17.5 6.73969C21.0044 6.73969 21.42 6.75281 22.8036 6.81625C23.6358 6.82613 24.46 6.97893 25.2405 7.26797C25.8067 7.48638 26.3209 7.82091 26.75 8.25002C27.1791 8.67914 27.5136 9.19334 27.732 9.75953C28.0211 10.54 28.1739 11.3642 28.1838 12.1964C28.2472 13.58 28.2603 13.9956 28.2603 17.5011C28.2603 21.0066 28.2472 21.42 28.1838 22.8036C28.1739 23.6358 28.0211 24.46 27.732 25.2405C27.5136 25.8067 27.1791 26.3209 26.75 26.75C26.3209 27.1791 25.8067 27.5136 25.2405 27.732C24.46 28.0211 23.6358 28.1739 22.8036 28.1838C21.42 28.2472 21.0044 28.2603 17.5 28.2603C13.9956 28.2603 13.58 28.2472 12.1964 28.1838C11.3642 28.1739 10.54 28.0211 9.75953 27.732C9.19334 27.5136 8.67914 27.1791 8.25002 26.75C7.82091 26.3209 7.48638 25.8067 7.26797 25.2405C6.97893 24.46 6.82613 23.6358 6.81625 22.8036C6.75281 21.42 6.73969 21.0044 6.73969 17.5C6.73969 13.9956 6.75281 13.58 6.81625 12.1964C6.82613 11.3642 6.97893 10.54 7.26797 9.75953C7.48638 9.19334 7.82091 8.67914 8.25002 8.25002C8.67914 7.82091 9.19334 7.48638 9.75953 7.26797C10.54 6.97893 11.3642 6.82613 12.1964 6.81625C13.58 6.75281 13.9956 6.73969 17.5 6.73969ZM17.5 4.375C13.9355 4.375 13.4881 4.39031 12.0881 4.45375C10.9996 4.47573 9.92267 4.68209 8.90313 5.06406C8.0311 5.40126 7.23916 5.91694 6.57805 6.57805C5.91694 7.23916 5.40126 8.0311 5.06406 8.90313C4.68197 9.92302 4.47561 11.0003 4.45375 12.0892C4.39031 13.4892 4.375 13.9344 4.375 17.5C4.375 21.0656 4.39031 21.5119 4.45375 22.9119C4.47573 24.0004 4.68209 25.0773 5.06406 26.0969C5.40126 26.9689 5.91694 27.7608 6.57805 28.4219C7.23916 29.0831 8.0311 29.5987 8.90313 29.9359C9.92302 30.318 11.0003 30.5244 12.0892 30.5462C13.4892 30.6097 13.9355 30.625 17.5 30.625C21.0645 30.625 21.5119 30.6097 22.9119 30.5462C24.0008 30.5244 25.0781 30.318 26.098 29.9359C26.97 29.5987 27.7619 29.0831 28.423 28.4219C29.0842 27.7608 29.5998 26.9689 29.937 26.0969C30.3188 25.0769 30.5247 23.9996 30.5462 22.9108C30.6097 21.5108 30.625 21.0656 30.625 17.5C30.625 13.9344 30.6097 13.4881 30.5462 12.0881C30.5243 10.9996 30.3179 9.92267 29.9359 8.90313C29.5987 8.0311 29.0831 7.23916 28.4219 6.57805C27.7608 5.91694 26.9689 5.40126 26.0969 5.06406C25.0769 4.68234 23.9996 4.47635 22.9108 4.45484C21.5108 4.38922 21.0656 4.375 17.5 4.375Z" fill="black"/>
</svg>
