<svg width="267" height="132" fill="none" xmlns="http://www.w3.org/2000/svg"><path d="M258.659 3.045c-13.943 10.637-28.615 20.24-42.787 30.636 16.481-8.218 33.264-15.684 50.13-22.97C167.753 73.015 113.441 119.685 49.14 128.21c-.705-.603-1.41-1.208-2.115-1.81 5.038-14.21-10.416-8.055 211.637-123.085v-.267l-.003-.003z" fill="#fff"/><path d="M233.661 17.1c-13.331 9.764-27.358 18.58-40.91 28.123 15.756-7.542 31.802-14.398 47.93-21.087C146.744 81.333 94.816 124.173 33.334 131.999c-.675-.553-1.347-1.109-2.022-1.663 4.814-13.043-9.957-7.395 202.349-112.99V17.1z" fill="#1895A7"/><path fill-rule="evenodd" clip-rule="evenodd" d="M35.694 46.775l-7.108 16.758s-3.322-.406-3.824.633c-.495 1.05.639 3.148.639 3.148l-2.338 8.647c-19.931 7.703-27.096 16.194-20.9 24.857l40.024 20.458s-2.453 3.846.656 4.59c10.836 2.582 41.123-14.098 87.436-40.722l43.186-24.863.934-2.224c4.152-6.392 6.217-11.659 6.196-15.832 1.756-9.21 2.308-15.676 1.644-19.313l.631-4.258-20.859-10.516-90.49 34.834-11.015-4.149-20.52 5.291-.547 2.12-3.742.546-.003-.005z" fill="#fff"/><path fill-rule="evenodd" clip-rule="evenodd" d="M11.506 105.594c19.75 2.323 44.35 6.531 41.33 13.48-1.204 2.783-4.753 5.048-9.407 6.913-.2-.041-.391-.074-.582-.12-3.109-.745-.656-4.591-.656-4.591l-30.685-15.682z" fill="#D8D8D7"/><path fill-rule="evenodd" clip-rule="evenodd" d="M182.632 18.532L97.231 57.06l-9.618-5.705-15.197-8.731 89.595-34.488 20.621 10.396z" fill="#E5E5E5"/><path fill-rule="evenodd" clip-rule="evenodd" d="M58.16 89.823L23.18 75.484l2.223-8.17s-.704-1.823-.21-2.864c.486-1.041 3.393-.916 3.393-.916l7.108-16.759 34.35 14.404L58.16 89.823z" fill="#D8D8D7"/><path fill-rule="evenodd" clip-rule="evenodd" d="M39.964 43.704l19.597-4.485c9.094 1.849 17.248 5.75 28.052 12.136l-14.737 6.321-32.95-13.839.04-.133h-.002z" fill="#B4B4B3"/><path fill-rule="evenodd" clip-rule="evenodd" d="M77.736 43.56l37.671-13.647 19.018 8.527-36.321 15.508-20.368-10.389z" fill="#9F9F9E"/><path fill-rule="evenodd" clip-rule="evenodd" d="M2.166 100.99l.554.117-.554-.291v.174zm22.181-23.489l31.838 14.096c-18.259 9.723-36.015 13.057-53.465 9.508l-.554-.118-.112-.324C-.613 92.289 6.99 84.42 24.347 77.499v.002z" fill="#B4B4B3"/><path fill-rule="evenodd" clip-rule="evenodd" d="M24.994 81.105l27.948 12.154c-17.12 8.432-33.808 11.185-50.222 7.848l-.408-.084.408.084-.405-.212c.074-7.069 7.74-13.758 22.679-19.79z" fill="#B4B4B3"/><path fill-rule="evenodd" clip-rule="evenodd" d="M24.993 81.105l27.93 12.143c-4.131 1.508-34.934 10.964-50.204 7.859l-.39-.082c-.015-7.147 7.703-13.877 22.664-19.92z" fill="#9F9F9E"/><path fill-rule="evenodd" clip-rule="evenodd" d="M29.607 60.588l35.188 12.488 43.863-18.021-.173 3.162L63.53 77.03 28.34 64.205l1.267-3.617z" fill="#27B7EF"/><path fill-rule="evenodd" clip-rule="evenodd" d="M120.836 29.113l16.516 6.973 31.537-15.8c1.418-3.816-2.75-5.966-12.833-6.454l-35.22 15.281z" fill="#B4B4B3"/><path fill-rule="evenodd" clip-rule="evenodd" d="M159.554 10.074l-5.146-3.28-10.67 3.828-14.904 16.775c-1.418 2.415.092 4.312 6.853 5.13l26.749-11.032-2.884-11.421h.002z" fill="#AD0800"/><path fill-rule="evenodd" clip-rule="evenodd" d="M65.72 82.65l-.267 3.997 5.972-2.423.311-4.285-6.015 2.712zm8.454-3.922l-.301 3.966 5.819-2.364.35-4.255-5.868 2.653zm8.265-3.835l-.333 3.936 5.662-2.3.383-4.229-5.712 2.593zm8.049-3.752l-.363 3.906 5.559-2.248.413-4.196-5.609 2.538zm7.887-3.67l-.39 3.876 5.444-2.186.445-4.168-5.499 2.478zM66.319 88.598l-.268 3.934 5.909-2.45.314-4.218-5.956 2.734zm8.371-3.958l-.301 3.905 5.766-2.382.35-4.206-5.816 2.682zm8.176-3.869l-.33 3.88 5.64-2.331.383-4.165-5.693 2.616zm8-3.783l-.36 3.846 5.51-2.268.412-4.138-5.562 2.56zm7.816-3.705l-.391 3.824 5.395-2.221.44-4.108-5.444 2.505zM66.908 94.45l-.267 3.877 5.848-2.48.314-4.16-5.895 2.764zm8.289-3.993l-.3 3.854 5.714-2.42.347-4.133-5.761 2.699zm8.106-3.905l-.33 3.822 5.586-2.358.377-4.102-5.633 2.638zm7.923-3.814l-.36 3.802 5.463-2.311.41-4.075-5.513 2.584zm7.756-3.742l-.388 3.781 5.348-2.249.44-4.059-5.4 2.527zm-31.507 21.2l-.268 3.827 5.81-2.51.315-4.095-5.857 2.778zm8.219-4.015l-.297 3.794 5.679-2.447.347-4.078-5.729 2.731zm8.034-3.936l-.328 3.77 5.546-2.388.377-4.043-5.595 2.66zm7.874-3.847l-.358 3.743 5.409-2.33.407-4.019-5.458 2.606zm7.68-3.769l-.385 3.726 5.299-2.279.437-4.001-5.351 2.554zm10.743-24.157l-.431 3.854 5.261-2.112.486-4.135-5.316 2.393zm7.48-3.462l-.456 3.825 5.146-2.056.514-4.11-5.204 2.341zm7.324-3.394l-.483 3.8 5.042-2 .539-4.081-5.098 2.281zm7.169-3.316l-.506 3.772 4.928-1.955.563-4.053-4.985 2.235zm7.018-3.25l-.528 3.75 4.827-1.91.59-4.03-4.889 2.19zm-28.78 19.196l-.431 3.805 5.228-2.14.481-4.07-5.278 2.405zm7.425-3.493l-.456 3.778 5.108-2.083.508-4.056-5.16 2.36zm7.259-3.426l-.481 3.753 5.005-2.033.535-4.03-5.059 2.31zm7.118-3.35l-.503 3.723 4.89-1.981.56-4-4.947 2.258zm6.963-3.279l-.524 3.702 4.799-1.944.582-3.971-4.857 2.213zm-28.56 19.242l-.429 3.75 5.179-2.162.481-4.026-5.231 2.437zm7.362-3.533l-.453 3.726 5.064-2.112.508-3.996-5.119 2.382zm7.207-3.451l-.475 3.694 4.964-2.064.53-3.963-5.019 2.333zm7.056-3.379l-.5 3.669 4.855-2.02.557-3.94-4.912 2.29zm6.913-3.321l-.522 3.65 4.759-1.971.576-3.915-4.813 2.236zm-28.331 19.285l-.423 3.697 5.135-2.184.478-3.974-5.19 2.461zm7.307-3.556l-.451 3.671 5.026-2.134.503-3.947-5.078 2.41zm7.143-3.49l-.473 3.65 4.925-2.088.527-3.917-4.979 2.355zm7.009-3.418l-.498 3.631 4.83-2.041.552-3.893-4.884 2.303zm6.859-3.343l-.517 3.598 4.718-1.992.574-3.868-4.775 2.262zm16.45-22.425l-.492 3.132 3.414-1.652.541-3.37-3.463 1.89zm4.888-2.743l-.505 3.122 3.382-1.63.554-3.348-3.431 1.856zm4.824-2.71l-.517 3.11 3.33-1.6.566-3.347-3.379 1.837zm4.769-2.666l-.53 3.093 3.278-1.567.579-3.329-3.327 1.802zm4.698-2.633l-.538 3.086 3.226-1.554.59-3.314-3.278 1.782zm-19.389 15.465l-.489 3.102 3.406-1.668.536-3.331-3.453 1.897zm4.862-2.764l-.5 3.088 3.366-1.633.552-3.317-3.418 1.862zm4.809-2.721l-.514 3.08 3.306-1.616.562-3.304-3.354 1.84zm4.735-2.673l-.524 3.058 3.259-1.586.576-3.299-3.311 1.827zm4.669-2.65l-.535 3.047 3.215-1.57.588-3.28-3.268 1.803zM155.002 50.68l-.486 3.065 3.392-1.68.533-3.292-3.439 1.908zm4.839-2.775l-.497 3.053 3.338-1.655.546-3.284-3.387 1.886zm4.781-2.737l-.511 3.048 3.295-1.633.56-3.277-3.344 1.862zm4.704-2.694l-.519 3.028 3.248-1.603.571-3.263-3.3 1.838zm4.656-2.661l-.533 3.01 3.199-1.577.582-3.243-3.248 1.81zM154.81 55.28l-.484 3.035 3.371-1.696.527-3.26-3.414 1.922zm4.807-2.784l-.494 3.023 3.316-1.673.541-3.25-3.363 1.9zm4.748-2.753l-.506 3.01 3.281-1.644.555-3.23-3.33 1.864zm4.684-2.713l-.516 3.001 3.229-1.616.566-3.227-3.279 1.842zm4.629-2.677l-.528 2.99 3.177-1.597.577-3.214-3.226 1.821zm-91.486 61.413c.074-.862.604-1.598 1.159-1.647.546-.054.942.603.865 1.448-.076.847-.592 1.581-1.139 1.635-.554.06-.959-.589-.885-1.439v.003zm3.85-2.119c.076-.848.587-1.576 1.136-1.636.546-.041.934.605.855 1.456-.08.847-.593 1.575-1.14 1.624-.546.058-.93-.588-.851-1.444zm3.788-2.088c.08-.85.588-1.578 1.145-1.622.541-.052.926.6.844 1.45-.082.843-.6 1.573-1.139 1.622-.552.047-.929-.599-.847-1.45h-.002zm3.774-2.069c.085-.844.582-1.57 1.117-1.616.541-.049.913.603.828 1.445-.085.845-.593 1.568-1.134 1.614-.532.046-.896-.597-.811-1.445v.003zm3.704-2.05c.087-.847.603-1.564 1.125-1.607.546-.047.904.608.814 1.444-.09.845-.587 1.562-1.133 1.606-.522.049-.894-.597-.809-1.442h.003zm3.69-2.028c.091-.845.59-1.562 1.131-1.6.514-.04.877.608.784 1.456-.09.837-.601 1.548-1.111 1.589-.541.044-.894-.605-.804-1.442v-.003zm3.656-2.009c.093-.84.59-1.551 1.117-1.595.519-.033.858.613.762 1.45-.095.84-.582 1.549-1.101 1.59-.527.04-.871-.603-.778-1.445zm3.616-1.989c.095-.84.601-1.543 1.092-1.584.528-.033.861.619.765 1.453-.095.837-.587 1.54-1.114 1.578-.489.044-.839-.608-.743-1.445v-.002zm3.582-1.967c.099-.837.585-1.543 1.098-1.58.5-.028.836.618.735 1.452-.098.834-.593 1.535-1.095 1.573-.514.038-.839-.608-.74-1.445h.002zm3.546-1.947c.101-.832.584-1.532 1.081-1.576.503-.032.828.624.727 1.456-.104.837-.593 1.526-1.095 1.565-.498.035-.814-.614-.713-1.442V87.5zm3.499-1.931c.104-.832.59-1.53 1.092-1.56.492-.032.804.614.7 1.445-.107.83-.588 1.524-1.079 1.554-.503.033-.817-.613-.713-1.442v.003zm3.471-1.914c.107-.826.596-1.53 1.077-1.554.502-.027.808.621.699 1.45-.106.823-.587 1.524-1.087 1.543-.481.038-.795-.613-.689-1.44z" fill="#B4B4B3"/><path fill-rule="evenodd" clip-rule="evenodd" d="M111.084 53.388l-.439 3.903 65.345-29.756.694-3.944-65.6 29.797zm-85.67 13.818l36.627 13.346-1.568 3.497-36.69-12.866 1.631-3.977z" fill="#27B7EF"/><path fill-rule="evenodd" clip-rule="evenodd" d="M45.266 39.543c.148-3.416 3.7-5.602 7.857-4.877 4.108.717 7.214 3.986 7.023 7.295-.191 3.287-3.573 5.438-7.635 4.825-4.111-.62-7.39-3.852-7.245-7.243zm106.237-20.84c.377-2.51 1.942-4.211 3.491-3.8 1.521.406 2.436 2.742 2.051 5.212-.382 2.464-1.912 4.16-3.425 3.792-1.538-.376-2.489-2.704-2.115-5.207l-.002.003z" fill="#fff"/><path fill-rule="evenodd" clip-rule="evenodd" d="M62.79 29.983l-5.425 18.032 2.961 1.829 8.49-3.449s-2.52-.91-3.395-3.521c-.882-2.642-.462-12.526-.462-12.526l-2.169-.365z" fill="#fff"/><path fill-rule="evenodd" clip-rule="evenodd" d="M63.735 30.142l-3.75 19.487.344.213 8.49-3.449s-2.522-.91-3.396-3.522c-.882-2.64-.462-12.525-.462-12.525l-1.226-.207v.003z" fill="#D8D8D7"/><path fill-rule="evenodd" clip-rule="evenodd" d="M64.467 47.18c.205-3.244 3.546-5.364 7.375-4.73 3.8.628 6.63 3.697 6.387 6.843-.243 3.124-3.436 5.217-7.198 4.683-3.792-.537-6.766-3.574-6.564-6.796z" fill="#fff"/><path fill-rule="evenodd" clip-rule="evenodd" d="M148.232 13.458l-12.691 19.035c-6.734-.829-8.121-2.693-6.706-5.1l14.904-16.775 10.67-3.827 5.146 3.279-11.323 3.385v.003z" fill="#D90000"/><path fill-rule="evenodd" clip-rule="evenodd" d="M148.281 6.186C124.682 21.45 96.414 30.932 63.577 31.205c-18.972 23.442-39.29 46.299-61.155 68.78l60.343-69.56c36.398-1.276 65.463-10.808 85.164-24.906l.352.665v.002z" fill="#fff"/><path fill-rule="evenodd" clip-rule="evenodd" d="M7.824 94.761s4.857 2.75 4.568 2.198c-.29-.543-1.667-4.678-1.749-4.466-.082.21-2.816 2.269-2.816 2.269h-.003z" fill="#D4D400"/><path fill-rule="evenodd" clip-rule="evenodd" d="M11.22 91.762c1.074.338 5.68 2.372 5.688 1.778.008-.587-1.437-5.212-1.51-4.953-.077.267-4.177 3.175-4.177 3.175z" fill="#F9E500"/><path fill-rule="evenodd" clip-rule="evenodd" d="M15.772 87.094c.325-.235 7.83 3.407 7.053 2.186-.778-1.23-4.092-5.7-4.242-5.111-.161.594-3.1 3.154-2.811 2.925z" fill="#fff"/><path fill-rule="evenodd" clip-rule="evenodd" d="M19.94 82.906c.524.314 5.455 4.264 5.54 3.577.084-.698-2.388-6.73-2.388-6.73l-3.152 3.156v-.003z" fill="#3F829E"/><path fill-rule="evenodd" clip-rule="evenodd" d="M23.789 78.504c.265-.09 4.963 3.898 4.895 3.522-.044-.382-2.83-5.242-2.83-5.242s-2.333 1.81-2.065 1.72z" fill="#8A8695"/><path fill-rule="evenodd" clip-rule="evenodd" d="M26.385 74.38c-.29.011 7.056 4.14 7.15 3.666.073-.482-3.159-6.929-3.159-6.929-.18 1.191-1.669 3.255-3.99 3.263z" fill="#9E2A5E"/><path fill-rule="evenodd" clip-rule="evenodd" d="M31.572 69.548s6.49 5.119 6.362 4.893c-.133-.232-3.417-7.592-3.578-7.388-1.232 1.672-.817 2.73-2.784 2.495z" fill="#fff"/><path fill-rule="evenodd" clip-rule="evenodd" d="M35.782 65.191s4.72 5.482 4.567 4.198c-.133-1.29-1.275-7.49-1.374-7.212-.745 2.02-1.674 3.044-3.196 3.014h.003z" fill="#EC9F51"/><path fill-rule="evenodd" clip-rule="evenodd" d="M39.56 61.383c.2-.335 5.66 5.07 5.51 4.133-.133-.933-2.199-8.279-2.199-8.279-.66 2.77-1.753 4.154-3.31 4.143v.003z" fill="#F2AF00"/><path fill-rule="evenodd" clip-rule="evenodd" d="M44.111 56.17s5.436 5.975 5.385 5.04c-.039-.926-1.924-9.074-1.924-9.074-.035 2.958-1.177 4.296-3.46 4.037v-.003z" fill="#58BFF0"/><path fill-rule="evenodd" clip-rule="evenodd" d="M48.102 50.76s6.326 7.814 6.476 6.839c.132-.974-3.308-10.465-3.308-10.465-.03 2.818-1.09 4.023-3.166 3.625h-.002z" fill="#6AB56F"/><path fill-rule="evenodd" clip-rule="evenodd" d="M67.242 33.84s2.207 5.28 2.298 4.628c.073-.646 1.349-4.953 1.169-4.819-.175.128-3.467.19-3.467.19z" fill="#D4D400"/><path fill-rule="evenodd" clip-rule="evenodd" d="M71.58 33.402c.623.91 3.03 5.403 3.357 4.904.353-.496 1.817-5.223 1.612-5.045-.213.177-4.969.141-4.969.141z" fill="#F9E500"/><path fill-rule="evenodd" clip-rule="evenodd" d="M77.665 32.248c.369 0 4.095 7.532 4.168 6.04.082-1.488.003-7.163-.437-6.779-.431.393-4.086.755-3.731.74z" fill="#fff"/><path fill-rule="evenodd" clip-rule="evenodd" d="M83.121 31.283c.21.567 1.817 6.782 2.26 6.258.436-.52 1.805-6.961 1.805-6.961l-4.065.703z" fill="#3F829E"/><path fill-rule="evenodd" clip-rule="evenodd" d="M88.38 29.964c.25.1 1.648 6.15 1.796 5.8.155-.354.655-5.967.655-5.967s-2.693.082-2.45.167z" fill="#8A8695"/><path fill-rule="evenodd" clip-rule="evenodd" d="M92.506 28.162c-.232-.174 3.07 7.54 3.387 7.199.32-.34 1.257-7.483 1.257-7.483-.754.848-2.923 1.652-4.644.284z" fill="#9E2A5E"/><path fill-rule="evenodd" clip-rule="evenodd" d="M98.834 27.314s2.169 7.954 2.183 7.69c.019-.265 1.36-8.12 1.144-8.055-1.743.618-1.991 1.709-3.324.362l-.003.003z" fill="#fff"/><path fill-rule="evenodd" clip-rule="evenodd" d="M104.164 26.318s.656 7.13 1.213 6.024c.544-1.112 2.814-6.733 2.603-6.57-1.554 1.168-2.737 1.448-3.816.546z" fill="#EC9F51"/><path fill-rule="evenodd" clip-rule="evenodd" d="M108.805 25.48c.32-.15 1.582 7.322 1.937 6.488.369-.831 2.483-7.829 2.483-7.829-1.822 1.802-3.3 2.255-4.422 1.341h.002z" fill="#F2AF00"/><path fill-rule="evenodd" clip-rule="evenodd" d="M114.641 24.014s.999 7.853 1.417 7.098c.407-.771 3.008-8.24 3.008-8.24-1.448 2.279-2.928 2.666-4.425 1.142z" fill="#F9E500"/><path fill-rule="evenodd" clip-rule="evenodd" d="M120.088 22.094s.784 9.759 1.344 9.07c.571-.69 2.62-10.049 2.62-10.049-1.358 2.154-2.658 2.495-3.961.98h-.003z" fill="#6AB56F"/><path fill-rule="evenodd" clip-rule="evenodd" d="M125.742 19.52c.29-.141 1.344 7.205 1.691 6.385.369-.802 2.505-7.65 2.505-7.65-1.762 1.748-3.155 2.17-4.196 1.266z" fill="#F2AF00"/><path fill-rule="evenodd" clip-rule="evenodd" d="M131.053 16.688s.628 9.677 1.18 9.004c.565-.674 2.661-9.941 2.661-9.941-1.334 2.134-2.604 2.442-3.841.937z" fill="#6AB56F"/><path fill-rule="evenodd" clip-rule="evenodd" d="M134.617 14.781s1.595 7.709 1.617 7.45c.033-.25 1.536-7.782 1.339-7.712-1.576.554-1.822 1.587-2.956.262z" fill="#fff"/><path fill-rule="evenodd" clip-rule="evenodd" d="M138.027 11.72c-.183-.175 2.254 7.27 2.53 6.953.295-.31 1.464-7.087 1.464-7.087-.688.785-2.579 1.483-3.991.133h-.003z" fill="#9E2A5E"/><path fill-rule="evenodd" clip-rule="evenodd" d="M81.248 44.976l34.914-12.553 15.612 6.913-33.77 14.417-16.756-8.777z" fill="#727171"/><path fill-rule="evenodd" clip-rule="evenodd" d="M90.035 45.134c.197-2.162 3.806-3.334 7.977-2.612 4.098.709 7.185 2.98 6.963 5.068-.221 2.082-3.649 3.26-7.72 2.625-4.144-.646-7.413-2.925-7.22-5.081zm12.957-4.729l12.776-5.525 10.039 4.405-14.382 5.896-8.433-4.776z" fill="#9BD5F8"/><path fill-rule="evenodd" clip-rule="evenodd" d="M148.682 10.483l3.037-8.469 1.88.584-2.994 8.466c-.522.373-1.658-.014-1.921-.583l-.002.002z" fill="#fff"/><path fill-rule="evenodd" clip-rule="evenodd" d="M151.88 2.324c.396 1.41-.008 4.23-1.21 8.464l2.879-8.006-1.669-.455v-.003z" fill="#E7E7E6"/><path fill-rule="evenodd" clip-rule="evenodd" d="M151.69 2.007c.036-.248.506-.308 1.066-.142.554.166.975.49.937.736-.036.245-.514.31-1.068.147-.56-.166-.973-.493-.937-.741h.002z" fill="#B4B4B3"/><path fill-rule="evenodd" clip-rule="evenodd" d="M151.992 2.054c.022-.159.347-.189.699-.085.369.11.653.322.629.477-.022.15-.339.183-.71.074-.353-.104-.642-.317-.621-.466h.003z" fill="#1C1C1B"/><path fill-rule="evenodd" clip-rule="evenodd" d="M145.637 11.514l3.029-8.496 1.904.578-3.005 8.477c-.516.39-1.661 0-1.928-.559z" fill="#fff"/><path fill-rule="evenodd" clip-rule="evenodd" d="M148.824 3.317c.418 1.412.014 4.247-1.185 8.494l2.882-8.041-1.697-.453z" fill="#E7E7E6"/><path fill-rule="evenodd" clip-rule="evenodd" d="M148.645 3.005c.035-.248.508-.311 1.062-.147.571.169.984.49.948.738-.035.246-.505.322-1.076.153-.555-.16-.97-.496-.934-.744z" fill="#B4B4B3"/><path fill-rule="evenodd" clip-rule="evenodd" d="M148.961 3.06c.022-.155.339-.196.694-.093.374.11.658.327.634.48-.022.15-.342.185-.716.076-.358-.103-.637-.319-.615-.466l.003.003z" fill="#1C1C1B"/><path fill-rule="evenodd" clip-rule="evenodd" d="M154.512 8.712l3.037-8.47 1.88.584-2.994 8.467c-.522.373-1.658-.011-1.921-.581h-.002z" fill="#fff"/><path fill-rule="evenodd" clip-rule="evenodd" d="M157.708.552c.396 1.41-.008 4.231-1.21 8.462l2.879-8.006-1.669-.456z" fill="#E7E7E6"/><path fill-rule="evenodd" clip-rule="evenodd" d="M157.52.235c.035-.248.505-.308 1.065-.141.555.166.975.49.94.736-.036.245-.514.31-1.068.147-.56-.166-.973-.496-.937-.742z" fill="#B4B4B3"/><path fill-rule="evenodd" clip-rule="evenodd" d="M157.82.282c.024-.158.346-.188.702-.084.368.109.652.321.628.48-.022.15-.339.182-.71.07-.353-.103-.642-.316-.62-.466z" fill="#1C1C1B"/><path fill-rule="evenodd" clip-rule="evenodd" d="M151.463 9.743l3.032-8.497 1.904.578-3.005 8.478c-.516.39-1.661 0-1.928-.56h-.003z" fill="#fff"/><path fill-rule="evenodd" clip-rule="evenodd" d="M154.654 1.546c.418 1.412.014 4.247-1.185 8.494l2.882-8.042-1.697-.452z" fill="#E7E7E6"/><path fill-rule="evenodd" clip-rule="evenodd" d="M154.473 1.233c.035-.248.508-.31 1.062-.147.571.166.984.49.948.736-.035.245-.505.322-1.076.155-.554-.163-.97-.496-.934-.744z" fill="#B4B4B3"/><path fill-rule="evenodd" clip-rule="evenodd" d="M154.787 1.289c.022-.156.339-.197.694-.093.374.109.658.327.634.482-.022.15-.342.186-.716.077-.358-.104-.636-.32-.615-.466h.003z" fill="#1C1C1B"/><path fill-rule="evenodd" clip-rule="evenodd" d="M67.688 71.808l-.967 3.91 4.387-1.778.866-3.833-4.286 1.701zm25.574-10.447l-1.008 3.79 4.078-1.65.913-3.72-3.983 1.58zm8.402-3.571l-1.014 3.758 3.98-1.613.927-3.68-3.893 1.534zM114.458 52l-.257 3.675 3.816-1.538.383-3.941L114.458 52zm15.401-7.242l-.32 3.633 3.65-1.471.439-3.88-3.769 1.718zm14.745-6.503l-.358 3.571 3.488-1.398.487-3.82-3.617 1.647zm14.145-6.362l-.407 3.533 3.33-1.341.541-3.764-3.464 1.572z" fill="#C7E6FB"/></svg>