<svg width="117" height="59" fill="none" xmlns="http://www.w3.org/2000/svg"><path d="M37.901 35.017l-7.857-4.567-2.075 5.327 7.859 4.568 2.073-5.328z" fill="#8F532B"/><path d="M40.943 22.784l31.973-18.46 4.447-.418 7.857 4.568-4.445.415L48.8 27.352l-10.9 7.666-7.857-4.568 10.9-7.666z" fill="#BB8640"/><path d="M80.776 8.888L48.802 27.351l-10.9 7.666-2.074 5.327.57.052 1.908-4.9 10.553-7.42L80.645 9.722l4.005-.375.582 2.743.646-.533-.657-3.085-4.445.415z" fill="#CDAA44"/><path d="M105.719 18.77L82.594 5.46 48.563 25.03l23.126 13.309 34.03-19.569z" fill="#884B28"/><path d="M71.689 38.339l-23.127-13.31-11.704 8.529-3.815 3.971 23.126 13.31 4.272-4.34 11.248-8.16z" fill="#B57F3D"/><path d="M71.69 38.34L60.44 46.5l-4.271 4.34 7.135 2.433 42.445-24.408-.031-10.094-34.03 19.569z" fill="#442414"/><path d="M36.858 33.558l23.583 12.941-4.272 4.34-23.126-13.31 3.815-3.971z" fill="#CB9946"/><path d="M112.567 30.17c.806.468.966.473.997.944.157 2.382-3.902 7.486-3.902 7.486-.062.078-4.535 5.015-4.535 5.015l-21.83 12.612c-5.57 3.456-16.804.193-17.028.064 0 0 45.737-26.448 46.298-26.121z" fill="#442414"/><path d="M99.766 38.595c0-1.754 1.232-3.886 2.751-4.765.749-.433 1.429-.48 1.925-.203l.012.006c.005.003.011.005.014.009l2.475 1.429-3.923 6.72-2.502-1.444c-.465-.302-.752-.906-.752-1.752z" fill="#884B28"/><path d="M102.232 40.017c0 1.754 1.232 2.466 2.752 1.587 1.52-.877 2.75-3.009 2.75-4.765 0-1.754-1.232-2.465-2.75-1.587-1.52.877-2.752 3.011-2.752 4.765z" fill="#442414"/><path d="M102.717 39.74c0 1.445 1.013 2.03 2.267 1.308 1.251-.723 2.265-2.48 2.265-3.925 0-1.445-1.014-2.03-2.265-1.308-1.252.722-2.267 2.48-2.267 3.925z" fill="#B57F3D"/><path d="M104.982 35.814c.364-.21.707-.309 1.012-.309.153.265.24.61.24 1.032 0 1.445-1.014 3.202-2.267 3.925-.364.21-.707.309-1.012.309-.153-.265-.238-.611-.238-1.032 0-1.445 1.013-3.202 2.267-3.925h-.002z" fill="#CB9946"/><path d="M103.506 38.103c0 .398.279.557.623.358.344-.198.623-.681.623-1.079 0-.398-.279-.557-.623-.359-.344.2-.623.682-.623 1.08z" fill="#442414"/><path d="M93.268 42.347c0-1.754 1.232-3.886 2.75-4.765.749-.433 1.429-.48 1.924-.202l.012.007c.006.002.01.005.016.009l2.475 1.429-3.923 6.72L94.02 44.1c-.465-.304-.752-.906-.752-1.752v-.002z" fill="#884B28"/><path d="M95.734 43.772c0 1.754 1.232 2.465 2.75 1.587 1.52-.877 2.75-3.011 2.75-4.765 0-1.754-1.232-2.466-2.75-1.587-1.52.877-2.75 3.009-2.75 4.765z" fill="#442414"/><path d="M96.217 43.492c0 1.445 1.014 2.031 2.267 1.309 1.251-.723 2.267-2.48 2.267-3.926 0-1.445-1.014-2.03-2.267-1.308-1.252.723-2.267 2.48-2.267 3.925z" fill="#B57F3D"/><path d="M98.484 39.565c.364-.21.706-.31 1.012-.31.152.265.238.611.238 1.032 0 1.445-1.014 3.203-2.266 3.925-.364.21-.706.31-1.011.31-.153-.265-.24-.612-.24-1.032 0-1.445 1.014-3.203 2.267-3.925z" fill="#CB9946"/><path d="M97.006 41.853c0 .396.279.557.623.359.344-.2.623-.682.623-1.08 0-.397-.279-.559-.623-.36-.343.199-.623.682-.623 1.08v.001z" fill="#442414"/><path d="M86.768 46.099c0-1.754 1.232-3.888 2.751-4.765.75-.433 1.43-.48 1.925-.202l.01.005.016.009 2.475 1.43-3.923 6.718-2.5-1.443c-.465-.303-.753-.905-.753-1.752h-.001z" fill="#884B28"/><path d="M89.234 47.524c0 1.754 1.23 2.466 2.75 1.589 1.52-.877 2.752-3.011 2.752-4.765 0-1.754-1.232-2.466-2.752-1.587-1.52.877-2.75 3.009-2.75 4.763z" fill="#442414"/><path d="M89.719 47.242c0 1.446 1.013 2.031 2.265 1.309 1.252-.723 2.267-2.48 2.267-3.925 0-1.445-1.014-2.031-2.267-1.309-1.252.723-2.265 2.48-2.265 3.925z" fill="#B57F3D"/><path d="M91.984 43.319c.364-.21.707-.31 1.012-.31.153.265.24.611.24 1.03 0 1.445-1.014 3.203-2.267 3.925-.364.21-.707.31-1.012.31-.151-.265-.238-.611-.238-1.03 0-1.445 1.013-3.203 2.265-3.925z" fill="#CB9946"/><path d="M90.508 45.607c0 .398.279.56.623.36.344-.198.623-.681.623-1.079 0-.398-.279-.56-.623-.36-.344.199-.623.681-.623 1.08z" fill="#442414"/><path d="M80.27 49.852c0-1.754 1.232-3.886 2.75-4.763.749-.433 1.428-.48 1.924-.203l.012.006.016.009 2.475 1.427-3.923 6.72-2.502-1.444c-.465-.303-.753-.905-.753-1.752z" fill="#884B28"/><path d="M82.734 51.274c0 1.754 1.232 2.466 2.752 1.59 1.52-.878 2.75-3.012 2.75-4.766s-1.232-2.465-2.75-1.587c-1.52.877-2.752 3.01-2.752 4.763z" fill="#442414"/><path d="M83.22 50.996c0 1.446 1.014 2.031 2.268 1.309 1.251-.723 2.267-2.48 2.267-3.925 0-1.445-1.016-2.031-2.267-1.309-1.252.723-2.267 2.48-2.267 3.925z" fill="#B57F3D"/><path d="M85.487 47.07c.365-.209.707-.308 1.012-.308.153.263.238.61.238 1.03 0 1.445-1.013 3.202-2.267 3.925-.364.21-.706.309-1.012.309-.152-.265-.24-.611-.24-1.03 0-1.445 1.014-3.203 2.268-3.925h.001z" fill="#CB9946"/><path d="M84.01 49.36c0 .398.278.557.623.36.344-.199.623-.681.623-1.08 0-.397-.279-.557-.623-.358-.343.2-.623.682-.623 1.08v-.002z" fill="#442414"/><path d="M73.77 53.605c0-1.754 1.232-3.886 2.75-4.765.749-.433 1.428-.477 1.926-.202l.01.005c.006.004.01.005.016.01l2.475 1.428-3.923 6.72-2.502-1.444c-.465-.303-.753-.905-.753-1.752z" fill="#884B28"/><path d="M76.236 55.027c0 1.754 1.232 2.466 2.75 1.587 1.52-.877 2.752-3.009 2.752-4.763s-1.232-2.466-2.752-1.589c-1.52.877-2.75 3.011-2.75 4.765z" fill="#442414"/><path d="M76.72 54.749c0 1.445 1.014 2.03 2.268 1.308 1.251-.722 2.267-2.48 2.267-3.925 0-1.445-1.014-2.03-2.267-1.308-1.252.722-2.267 2.48-2.267 3.925z" fill="#B57F3D"/><path d="M78.986 50.823c.364-.21.706-.309 1.012-.309.152.265.24.611.24 1.032 0 1.445-1.014 3.202-2.268 3.925-.364.21-.706.309-1.012.309-.152-.265-.24-.61-.24-1.032 0-1.445 1.014-3.202 2.268-3.925z" fill="#CB9946"/><path d="M77.51 53.11c0 .398.278.558.623.359.344-.2.623-.682.623-1.08 0-.397-.279-.557-.623-.358-.344.199-.623.681-.623 1.08z" fill="#442414"/><path d="M106.152 33c0-1.085.762-2.406 1.703-2.95.463-.267.884-.296 1.191-.125l1.548.893-2.429 4.16-1.548-.895c-.287-.187-.465-.561-.465-1.085V33z" fill="#884B28"/><path d="M107.68 33.882c0 1.085.761 1.525 1.702.984.941-.544 1.703-1.863 1.703-2.95 0-1.086-.762-1.524-1.703-.983-.941.544-1.702 1.863-1.702 2.95z" fill="#442414"/><path d="M107.98 33.709c0 .894.629 1.257 1.403.81.776-.448 1.402-1.535 1.402-2.43 0-.894-.628-1.256-1.402-.809-.774.447-1.403 1.536-1.403 2.429z" fill="#B57F3D"/><path d="M109.383 31.28c.225-.13.438-.192.627-.192.094.164.147.378.147.64 0 .894-.629 1.98-1.403 2.428a1.27 1.27 0 01-.626.192 1.276 1.276 0 01-.148-.64c0-.894.629-1.98 1.403-2.428z" fill="#CB9946"/><path d="M108.467 32.695c0 .245.172.346.385.222a.849.849 0 00.385-.668c0-.247-.172-.346-.385-.224a.852.852 0 00-.385.668v.002z" fill="#442414"/><path d="M69.861 55.125c0-.731.515-1.622 1.147-1.986.313-.181.597-.2.804-.086l1.044.602-1.637 2.803-1.043-.601c-.194-.126-.315-.379-.315-.732z" fill="#884B28"/><path d="M70.89 55.721c0 .732.516 1.028 1.147.663.634-.366 1.15-1.256 1.15-1.987 0-.731-.516-1.028-1.15-.662-.633.365-1.146 1.255-1.146 1.986z" fill="#442414"/><path d="M71.094 55.603c0 .604.422.849.944.547.522-.302.946-1.035.946-1.637 0-.603-.422-.848-.946-.546-.522.301-.944 1.035-.944 1.636z" fill="#B57F3D"/><path d="M72.038 53.967a.853.853 0 01.422-.13c.064.11.1.256.1.43 0 .604-.424 1.337-.946 1.639a.871.871 0 01-.423.13.857.857 0 01-.1-.432c0-.604.423-1.337.945-1.637h.002z" fill="#CB9946"/><path d="M71.422 54.92c0 .167.115.234.26.15a.573.573 0 00.258-.448c0-.167-.115-.235-.259-.151a.573.573 0 00-.26.449z" fill="#442414"/><path d="M61.378 51.097l.29-.053a4.45 4.45 0 01.956-1.805L62.486 49a4.85 4.85 0 01.323-.338c.286-.275.602-.513.94-.708l.375-.217 6.092-3.516.301.175.936-.541v-.35l7.47-4.312.302.176.936-.542v-.35l7.466-4.312.302.176.936-.541v-.35l7.47-4.312.302.176.935-.54v-.35l4.776-2.757c1.198-.69 2.178-1.04 2.915-1.04l1.077.625.098-.126 5.903 3.43 1.956 1.136-.259.339-.684-.398a1.665 1.665 0 00-.371-.042l-.541-.315a5.84 5.84 0 00-.96.316 5.927 5.927 0 00-.467.211c-.258.125-.528.269-.808.432l-.309.177-3.703 2.138-.764.44.002.35-.651.378.655.38v.35l-.957-.556-.282.163-.304-.175-1.069.617-.108.063-.236.136-.108.062-1.197.693-.121.069-.403.233-1.203.695-1.559.9-1.163 1.021-.653.377.655.381v.348l-.957-.555-.282.163-.302-.176-1.037.599L91.39 41.1l-3.368 1.944.002.35-.653.376.655.38.002.35-.957-.556-.28.163-.302-.176-1.593.922-3.737 2.157-1.839 1.061v.35l-.618.357-.035.021.655.38v.348l-.957-.556-.282.163-.302-.175-3.123 1.803-2.666 1.54-.377.218c-.04.023-.08.046-.119.073l-.083.051c-.032.021-.066.043-.098.066a1.25 1.25 0 00-.095.067c-.032.022-.06.045-.091.066l-.021.016a3.8 3.8 0 00-.26.211 4.399 4.399 0 00-.312.297 1.54 1.54 0 00-.073.078l-.11.12.064.11.075.128c-.007.01-.016.018-.023.027-.027.03-.052.06-.077.092l-.02.025c-.02.029-.044.057-.065.084l.48.278.136.235-.696-.405a.188.188 0 00-.021.028c-.005.01-.013.016-.022.03a.637.637 0 00-.042.063l-.05.076c-.016.027-.033.051-.05.078a3.223 3.223 0 00-.078.133c-.001.006-.005.01-.007.013-.017.033-.037.065-.053.1-.021.036-.039.074-.059.113a.987.987 0 00-.04.088c-.011.024-.023.047-.036.079l-.037.083.717.416-.288.053-.498-.291a2.705 2.705 0 00-.079.23 2.802 2.802 0 00-.047.176l-.29.053-.014.063a.225.225 0 00-.009.035c-.004.013-.005.025-.007.035l-.005.025-.016.084a3.848 3.848 0 00-.032.197l-.002.014c-.004.032-.009.062-.01.094-.002.007-.002.016-.002.025a3.737 3.737 0 01-.012.137v.016a.877.877 0 00-.006.103c-.002.04-.002.081-.002.12 0 .052.002.103.005.155 0 .026.004.05.006.074.001.025.003.05.007.073a3.018 3.018 0 00.05.305c.005.018.008.038.014.056.01.044.025.088.037.13l.023.067a1.681 1.681 0 00.14.296l.037.06a1.336 1.336 0 00.44.421l-2.252-1.31-5.604-3.258c-.476-.276-.757-.86-.759-1.64 0-.302.041-.621.121-.948l-.016.007z" fill="#442414"/><path d="M69.014 55.812c.1-1.229 1.014-1.92 1.229-2.175.575-.682 1.157-.97 4.408-2.87l12.112-6.992.02-.01v.023l8.684-5.037.02.01 5.162-3.003.524-.302 1.197-.692.108-.062.236-.137.108-.062 1.353-.781 1.255-.724.764-.44 3.703-2.138.309-.178a13.213 13.213 0 011.06-.55c.072-.032.143-.064.214-.092.02-.01.684-.256.961-.318a6.48 6.48 0 01.337-.059 2.56 2.56 0 01.341-.023c.472.094.769.15 1.175.499.259.318.391.776.392 1.358.006 1.45-.839 3.535-2.054 5.072-.15.194-.34.433-.557.712-.506.648-5.858 6.971-6.583 7.389L83.044 57.164c-3.811 2.019-5.509 1.873-6.323 1.802l-1.014-.087-1.072-.092-4.202-.36c-1.208-.105-1.517-1.433-1.42-2.614l.001-.002zm2.05.985c.077.007 2.293.197 2.216.192 7.59.449 4.667 1.633 18.317-6.194l.02-.011v.023l8.679-5.035.02.011 5.192-3.022c.007-.005.016-.008.023-.014.162-.103 5.353-6.093 5.882-6.769.22-.282.412-.529.566-.724.824-1.046 1.443-2.535 1.44-3.467 0-.354-.087-.8-.433-.977-.302-.15-.657-.016-.957.079a8.186 8.186 0 00-1.055.399 14.35 14.35 0 00-.767.407l-.189.11-.782.45-.77.446-.668.385-1.39.805-2.212 1.276s-.113.067-.115.067C70.576 54.501 71.219 54.198 70.914 54.55c-.055.133-1.3 2.113.15 2.25v-.002z" fill="#CDAA44"/><path d="M115.211 26.969l-7.857-4.566.582 2.74 7.857 4.569-.582-2.743z" fill="#884B28"/><path d="M68.464 52.637l-7.86-4.568-2.075 5.328 7.86 4.566 2.075-5.326z" fill="#8F532B"/><path d="M71.506 40.403l31.972-18.46 4.445-.418 7.86 4.566-4.446.417-31.974 18.463-10.898 7.666-7.86-4.568 10.9-7.666z" fill="#BB8640"/><path d="M111.337 26.508L79.362 44.97l-10.898 7.666-2.075 5.326.57.053 1.91-4.9 10.55-7.422 31.786-18.351 4.005-.375.583 2.743.644-.533-.655-3.087-4.445.418z" fill="#CDAA44"/><path d="M53.41 30.078l6.169-10.92L56.7 16.27l-8.207 9.33 4.916 4.478z" fill="#8F532B"/><path d="M57.587 11.666l-7.987 8.18-1.106 5.756 8.207-9.33.886-4.606z" fill="#69391E"/><path d="M76.676 24.232l20.934-11.94.08-1.355-20.936 11.938-.078 1.357zm-17.017-6.427l-2.878-2.89-.08 1.356 2.878 2.889.08-1.355z" fill="#CDAA44"/><path d="M59.658 17.805l4.444 2.924-.08 1.356-4.444-2.926.08-1.354z" fill="#CDAA44"/><path d="M64.101 20.727l4.593 2.031-.08 1.355-4.593-2.03.08-1.355zm4.594 2.031l8.06.117-.078 1.357-8.062-.12.08-1.354z" fill="#CDAA44"/><path d="M97.69 10.937L81.08 0 57.666 10.309l-.886 4.605 2.878 2.89 4.444 2.924 4.592 2.03 8.06.118L97.69 10.937z" fill="#8F532B"/><path d="M63.38 35.404l10.067.142 21.768-12.528 2.45-4.518-.055-6.21-20.934 11.942-8.062-.119-5.233 11.291z" fill="#B57F3D"/><path d="M57.64 32.866l6.383-10.782 4.592 2.03L63.38 35.4l-5.74-2.535z" fill="#8F532B"/><path d="M53.41 30.08l4.23 2.787.643-8.13-4.4-2.72-.473 8.062z" fill="#392C2E"/><path d="M53.883 22.016l5.697-2.856 4.443 2.925-5.74 2.653-4.4-2.722z" fill="#392C2E"/><path d="M53.41 30.08l4.23 2.787.643-8.13-4.4-2.72-.473 8.062z" fill="#884B28"/><path d="M53.883 22.016l5.697-2.856 4.443 2.925-5.74 2.653-4.4-2.722z" fill="#CB9946"/><path d="M94.593 10.958l-1.035.547-.02-.012-3.45 1.746-3.2-2.125 4.46-2.208 3.245 2.052zm-5.49-3.615l-1.035.548-.021-.014-3.451 1.747-3.2-2.125 4.462-2.208 3.245 2.052zm-8.738-5.67l3.246 2.053-1.035.548-.021-.014-3.45 1.747-3.2-2.125 4.46-2.209z" fill="#CDAA44"/><path d="M53.882 22.016l-1.722 2.17 3.006 1.978 3.117-1.427-4.4-2.721z" fill="#CB9946"/><path d="M58.282 24.737l5.74-2.652-6.383 10.78-2.686-3.108.21-3.593 3.119-1.427z" fill="#B57F3D"/><path d="M51.95 27.777l3.005 1.98.211-3.594-3.005-1.978-.212 3.592zm1.46 2.303l-1.46-2.302 3.005 1.98 2.686 3.108-4.23-2.787z" fill="#884B28"/><path d="M67.201 15.521c2.62 1.726 7.016 1.983 9.82.577 2.804-1.406 2.953-3.944.335-5.67-2.62-1.725-7.016-1.983-9.821-.577-2.803 1.406-2.954 3.945-.334 5.67z" fill="#CDAA44"/><path d="M67.271 14.33c2.62 1.725 7.016 1.982 9.821.576 2.803-1.405 2.952-3.944.334-5.67-2.62-1.725-7.016-1.983-9.82-.577-2.804 1.406-2.955 3.945-.335 5.67z" fill="#B57F3D"/><path d="M67.093 11.474c-.1 1.674 2.175 3.173 5.077 3.341 2.903.17 5.335-1.049 5.433-2.725.097-1.674-1.161-3.777-5.039-4.005-3.639-.213-5.373 1.713-5.471 3.39z" fill="#CDAA44"/><path d="M72.207 14.179c2.741.162 5.062-.92 5.394-2.452.007.125.009.245.002.366-.1 1.676-2.532 2.896-5.433 2.725-2.902-.17-5.175-1.667-5.077-3.341.007-.115.021-.234.044-.351.162 1.555 2.337 2.891 5.07 3.053z" fill="#CDAA44"/><path d="M75.115 10.53c-1.432-.943-3.838-1.085-5.37-.316-.562.282-.928.648-1.097 1.044-.207-.714.18-1.449 1.15-1.935 1.534-.77 3.938-.629 5.37.314.908.598 1.208 1.372.917 2.058-.12-.414-.442-.82-.968-1.165h-.002z" fill="url(#paint0_linear)"/><path d="M52.663 25.913c.236-.073.508-.03.778.147.621.41.994 1.38.832 2.168-.092.447-.337.738-.644.832L15.052 40.897c-.362-1.056-.614-2.146-1.019-3.131l38.63-11.852z" fill="#69391E"/><path d="M24.009 34.085c.333-.103.722-.041 1.105.211.886.582 1.417 1.965 1.186 3.086-.131.635-.479 1.052-.918 1.185l-9.72 2.919c.438-.135.786-.55.917-1.186.23-1.12-.3-2.503-1.186-3.085-.383-.253-.77-.315-1.106-.212l9.722-2.918z" fill="#CB9946"/><path d="M15.394 37.217c-.886-.582-1.793-.148-2.024.974-.23 1.122.3 2.504 1.186 3.088.886.582 1.792.147 2.024-.975.23-1.12-.3-2.503-1.186-3.085v-.002z" fill="#69391E"/><path d="M14.333 37.697c.234-.073.508-.028.776.15.621.41.994 1.378.832 2.167-.092.447-.337.738-.644.832l-13.654 4.1c.308-.095.553-.386.645-.833.163-.787-.21-1.758-.833-2.168-.27-.177-.541-.22-.777-.149l13.653-4.099h.002z" fill="#69391E"/><path d="M1.458 41.946c-.623-.41-1.259-.103-1.42.684-.162.788.21 1.757.832 2.167.622.41 1.26.103 1.42-.685.164-.787-.209-1.758-.832-2.168v.002z" fill="#8F532B"/><path d="M1.345 42.503c-.38-.25-.769-.064-.867.415-.099.481.128 1.072.508 1.323.38.25.767.062.866-.418.1-.479-.127-1.072-.507-1.32z" fill="#221618"/><defs><linearGradient id="paint0_linear" x1="76.188" y1="10.484" x2="68.593" y2="10.038" gradientUnits="userSpaceOnUse"><stop stop-color="#884B28"/><stop offset="1" stop-color="#872416"/></linearGradient></defs></svg>