<svg width="106" height="118" fill="none" xmlns="http://www.w3.org/2000/svg"><path d="M104.739 89.561c.747 0 1.073.43 1.073 1.03 0 1.784-5.497 6.864-11.92 6.864-.41 0-.81-.02-1.208-.063a34.908 34.908 0 002.985-5.09 23.73 23.73 0 002.67-2.269c.62.116 1.292.179 2.007.179 2.585 0 3.3-.652 4.393-.652v.001z" fill="#003D60"/><path d="M96.026 91.536a19.92 19.92 0 01-.358.766c-1.85 1.354-3.93 2.435-6.496 3.244l-1.502-.997a18.36 18.36 0 004.109-.923c.904-.305 3.826-1.166 4.247-2.089z" fill="#007FAD"/><path d="M95.668 92.302c.125-.252.24-.505.357-.766-.42.923-3.343 1.785-4.247 2.088a18.335 18.335 0 01-4.109.923l-.283-.188c-.337-.725-.474-1.543-.474-2.404 0-2.929 2.742-10.603 4.897-10.603.853 0 .989 1.523.989 2.373 0 .189-.01.368-.01.546 0 2.676 1.965 5.102 5.55 5.762a23.72 23.72 0 01-2.67 2.268v.001zm0 .001a34.956 34.956 0 01-2.985 5.09 16.244 16.244 0 01-.989-.156l-2.522-1.69c2.565-.808 4.645-1.89 6.496-3.243v-.001z" fill="#003D60"/><path d="M91.696 97.235c.326.064.663.115.989.157-3.07 4.409-7.085 8.209-11.542 11.138-2.69-.588-5.885-4.766-5.885-4.766s-3.542 4.84-6.222 4.84c-2.68-.01-6.18-4.84-6.18-4.84s-3.522 4.777-6.223 4.84c-2.701.052-6.705-4.84-6.705-4.84l.231-1.438c.462.127.957.199 1.461.199.116 0 .232 0 .347-.01a5.12 5.12 0 00.462-2.194c0-1.427-.462-2.813-.494-4.336 8.208.85 16.05 1.5 20.663 1.5 7.327 0 12.54-.64 16.576-1.941l2.522 1.69v.001z" fill="#003D60"/><path d="M89.027 106.368c.293.2.22.652.094.976-.242.62-.631 1.187-1.072 1.701-.653.756-1.44 1.427-2.155 2.068-1.114.986-2.575 2.162-4.152 2.162-1.481 0-3.153-1.217-4.467-2.456a48.44 48.44 0 001.303-.704c1.03.851 2.177 1.543 3.164 1.543 1.587 0 3.07-1.385 4.131-2.414.474-.461 2.565-3.264 3.154-2.876z" fill="#fff"/><path d="M51.932 95.986a694.55 694.55 0 01-8.545-.955c-2.932-.347-5.78-.693-8.408-1.029a2.152 2.152 0 00-.01-.588c-.263-1.69-18.699-2.583-25.489-2.897-.315-1.9-.41-3.853-.41-5.941 0-13.038 12.508-20.847 25.972-20.847 7.22 0 13.223 3.495 18.183 8.502 5.434 5.48 9.701 12.114 15.882 16.848 3.142 2.414 6.737 4.178 10.646 4.944 2.292.451 4.877.756 7.2.599.242-.022.474-.043.715-.074l1.502.998c-4.036 1.301-9.249 1.94-16.575 1.94-4.614 0-12.456-.65-20.664-1.5h.001zM27.78 86.025a2.229 2.229 0 00-4.457 0c0 1.239.999 2.225 2.228 2.225 1.23 0 2.229-.986 2.229-2.225z" fill="#007BC3"/><path d="M81.143 108.53c-.535.357-1.072.704-1.618 1.029-.315.189-.63.368-.947.556-1.628-1.343-2.963-3.086-2.985-3.107-.2-.262-.483-.252-.682.01-.031.042-3.416 4.64-5.876 4.64-2.45-.01-5.801-4.587-5.834-4.64-.189-.262-.483-.272-.683 0-.031.042-3.416 4.577-5.897 4.64h-.042c-2.491 0-6.296-4.619-6.327-4.671-.2-.231-.474-.231-.663.021-.03.041-3.573 4.65-6.139 4.65-2.563 0-6.117-4.609-6.148-4.65-.2-.262-.483-.252-.683.01-.031.042-3.416 4.64-5.875 4.64-2.46-.01-5.801-4.587-5.834-4.64-.189-.262-.503-.262-.693 0-.021.021-1.051 1.407-2.386 2.646a39.26 39.26 0 01-1.798-1.607c2.28-1.26 4.52-4.293 4.53-4.293 0 0 3.5 4.829 6.181 4.84 2.68 0 6.222-4.84 6.222-4.84s3.7 4.84 6.484 4.84c2.786 0 6.476-4.84 6.476-4.84s4.004 4.892 6.706 4.84c2.7-.063 6.221-4.84 6.221-4.84s3.5 4.829 6.18 4.84c2.68 0 6.223-4.84 6.223-4.84s3.195 4.178 5.885 4.765l.002.001z" fill="#003D60"/><path d="M75.592 107.008c.022.021 1.356 1.763 2.985 3.107-.431.242-.862.473-1.303.704a24.12 24.12 0 01-2.007-2.152c-.977 1.239-3.858 4.608-6.234 4.608-2.376-.011-5.203-3.349-6.18-4.598-.977 1.229-3.837 4.545-6.222 4.598h-.053c-2.407 0-5.612-3.433-6.642-4.619-.989 1.197-4.004 4.619-6.486 4.619-2.47 0-5.475-3.38-6.474-4.608-.977 1.239-3.858 4.608-6.232 4.608-2.376-.011-5.225-3.369-6.192-4.598-.346.43-.924 1.134-1.65 1.858-.368-.293-.736-.577-1.072-.871 1.335-1.238 2.366-2.625 2.386-2.646.19-.262.505-.262.694 0 .032.052 3.375 4.63 5.834 4.64 2.458 0 5.843-4.598 5.875-4.64.2-.262.483-.272.683-.01.03.042 3.584 4.65 6.148 4.65 2.566 0 6.108-4.608 6.139-4.65.189-.252.463-.252.662-.021.031.052 3.837 4.671 6.327 4.671h.043c2.48-.063 5.864-4.598 5.897-4.64.199-.272.494-.262.683 0 .031.052 3.384 4.63 5.833 4.64 2.46 0 5.844-4.598 5.876-4.64.2-.262.483-.272.683-.01h-.001z" fill="#fff"/><path d="M75.268 108.667a24.113 24.113 0 002.007 2.152c-9.385 4.924-20.138 6.36-30.806 6.843-10.71.484-18.383-3.107-23.565-7.127a22.483 22.483 0 001.65-1.859c.967 1.229 3.815 4.588 6.191 4.599 2.375 0 5.255-3.37 6.232-4.608 1 1.228 4.005 4.608 6.475 4.608 2.481 0 5.497-3.423 6.485-4.619 1.03 1.186 4.236 4.619 6.643 4.619h.053c2.385-.052 5.244-3.37 6.221-4.599.978 1.25 3.805 4.588 6.18 4.599 2.376 0 5.256-3.37 6.234-4.608z" fill="#003D60"/><path d="M59.386 34.4c7.756 0 12.834 4.818 12.834 6.928 0 7.222-27.633-4.997-38.921 16.502C36.64 45.495 45.439 34.4 59.387 34.4h-.001z" fill="#fff"/><path d="M52.427 100.323c0 .713-.116 1.438-.462 2.194-.116.01-.232.01-.347.01-.505 0-1-.073-1.461-.199-3.006-.818-5.35-4.073-6.768-7.295 2.816.336 5.696.651 8.544.955.032 1.522.495 2.908.495 4.336l-.001-.001z" fill="#007BC3"/><path d="M46.415.001c3.478 0 7.799 2.351 7.799 5.879 0 4.933-16.786 14.57-22.052 24.184-.031-1.49-.146-2.729-.146-4.535C32.016 12.408 37.88 0 46.415 0v.001z" fill="#fff"/><path d="M50.157 102.327l-.232 1.438s-3.689 4.84-6.475 4.84c-2.785 0-6.485-4.84-6.485-4.84s-3.541 4.84-6.221 4.84c-2.681-.01-6.18-4.84-6.18-4.84-.012 0-2.25 3.034-4.531 4.293-3.846-3.715-5.718-7.168-6.023-7.557a31.33 31.33 0 01-1.092-1.5c9.974 1.909 21.64-.903 22.061-4.997 2.628.336 5.477.681 8.409 1.028 1.42 3.222 3.763 6.477 6.768 7.296l.001-.001z" fill="#003D60"/><path d="M34.979 94.003c-.42 4.094-12.088 6.907-22.061 4.996-1.978-2.907-2.965-5.647-3.438-8.481 6.79.314 25.226 1.207 25.488 2.897.032.2.032.398.01.588zM8.85 17.237c9.89 0 23.06 10.37 22.788 29.15-.515-2.499-1.514-4.713-2.796-6.949C18.805 22.044 0 32.71 0 24.637c0-.734.221-1.533.62-2.392 1.21-2.646 4.11-5.007 8.23-5.007v-.001zM31.637 46.41c.01.051 0 .105 0 .167v-.168zm.683 15.65c-2.385-7.306-6.39-13.437-15.25-13.437-8.535 0-9.418 9.857-13.286 9.857-2.05 0-3.268-2.992-3.268-5.27 0-6.822 4.362-12.826 12.718-12.826 11.498 0 18.424 11.105 19.087 21.677v-.001z" fill="#fff"/><path d="M25.55 83.799c1.23 0 2.229.997 2.229 2.225 0 1.24-.999 2.226-2.228 2.226a2.22 2.22 0 01-2.229-2.226c0-1.228 1-2.225 2.229-2.225z" fill="#000E13"/><path d="M22.903 110.535c-1.293 1.313-3.037 2.709-4.572 2.74-2.282.042-5.34-3.097-6.548-4.451-.232-.261-.285-.777-.115-1.133.168-.357.494-.441.724-.179.873.976 3.846 4.146 5.886 4.146h.042c1.116-.031 2.418-.965 3.511-1.994.337.294.704.577 1.073.871h-.001z" fill="#fff"/></svg>