<svg width="28" height="28" fill="none" xmlns="http://www.w3.org/2000/svg"><path d="M4 28h20a1 1 0 001-1V7l-6-6H4a1 1 0 00-1 1v25a1 1 0 001 1z" fill="#FF9344"/><path d="M19 6V1l6 6h-5a1 1 0 01-1-1z" fill="#E34D1C"/><path d="M8.007 14.5V17H6.57V9.89h2.422c.703 0 1.263.219 1.68.655.42.436.63 1.002.63 1.7 0 .696-.207 1.246-.62 1.65-.414.403-.987.605-1.72.605h-.956zm0-1.196h.986c.274 0 .485-.09.635-.269.15-.179.225-.44.225-.781 0-.355-.077-.636-.23-.845a.734.734 0 00-.615-.322H8.007v2.217zM12.265 17V9.89h1.88c.83 0 1.49.264 1.982.792.495.527.747 1.25.757 2.168v1.152c0 .934-.248 1.668-.742 2.202-.492.53-1.17.796-2.037.796h-1.84zm1.435-5.913v4.722h.43c.478 0 .815-.126 1.01-.376.196-.254.298-.69.308-1.309v-1.235c0-.664-.093-1.127-.278-1.387-.186-.264-.501-.402-.947-.415H13.7zm7.886 3.013h-2.231V17h-1.436V9.89h3.936v1.197h-2.5v1.821h2.23V14.1z" fill="#fff"/><rect x="14" y="19" width="5" height="1" rx=".5" transform="rotate(90 14 19)" fill="#fff"/><path fill-rule="evenodd" clip-rule="evenodd" d="M15.783 22.19c.18.189.18.496 0 .686l-2.003 1.982c-.18.19-.47.19-.65 0l-1.995-1.975a.505.505 0 010-.686c.18-.19.47-.19.65 0l1.67 1.631 1.678-1.639a.443.443 0 01.65 0z" fill="#fff"/></svg>