<svg width="28" height="28" fill="none" xmlns="http://www.w3.org/2000/svg"><path fill-rule="evenodd" clip-rule="evenodd" d="M26 27a1 1 0 01-1 1H3.071c-.865 0-1.322-1.024-.743-1.668L24.256 1.94C24.87 1.258 26 1.692 26 2.609V6h-1.5a.5.5 0 000 1H26v2h-.5a.5.5 0 000 1h.5v2h-1.5a.5.5 0 000 1H26v2h-.5a.5.5 0 000 1h.5v2h-1.5a.5.5 0 000 1H26v2h-.5a.5.5 0 000 1h.5v2h-1.5a.5.5 0 000 1H26v2zm-13-5h7v-7l-7 7z" fill="#FF9344"/><path d="M14 27a1 1 0 01-1 1H8a1 1 0 01-1-1V9.238a1 1 0 01.106-.447l2.5-5a1 1 0 011.788 0l2.5 5a1 1 0 01.106.447V27z" fill="#FF9344"/><path d="M14 9H7v18a1 1 0 001 1h5a1 1 0 001-1V9zM9 5l1.053-2.105a.5.5 0 01.894 0L12 5.001H9z" fill="#E34D1C"/></svg>