<svg width="110" height="110" viewBox="0 0 110 110" fill="none" xmlns="http://www.w3.org/2000/svg">
<g clip-path="url(#clip0)">
<path d="M12.1577 54.7256C12.4579 55.0383 35.539 56.3084 35.539 56.3084L56.4689 35.4232L29.5644 34.8651L12.1577 54.7256Z" fill="#FEFEFE"/>
<path d="M21.5278 48.6039C25.4972 44.1921 35.0357 32.8122 36.2332 25.5474C29.0895 26.6058 17.728 36.0821 13.3171 40.0337C11.7613 41.4273 10.4036 42.938 9.29263 44.4759L0.0259345 57.2992C-0.278922 59.4915 2.1615 62.0398 4.31593 61.7784L17.0853 52.6116C18.619 51.5114 20.1276 50.1611 21.5278 48.6039Z" fill="#FEFEFE"/>
<path d="M53.2947 97.6629C52.9946 97.3502 52.2686 73.7708 52.2686 73.7708L73.1984 52.884L73.1419 80.3476L53.2947 97.6629Z" fill="#FEFEFE"/>
<path d="M59.5017 88.2376C63.9127 84.286 75.2741 74.8097 82.4178 73.7513C81.2204 81.0161 71.6818 92.396 67.7124 96.8078C66.3122 98.365 64.8021 99.7153 63.2699 100.815L50.5005 109.982C48.3461 110.244 45.9056 107.697 46.2105 105.503L55.4756 92.6798C56.5882 91.1419 57.9459 89.6328 59.5017 88.2376Z" fill="#FEFEFE"/>
<path d="M25.5129 71.9499L22.1748 75.2809L35.5984 89.2918L38.9366 85.9609L25.5129 71.9499Z" fill="#FEFEFE"/>
<path d="M33.7828 93.6661L17.6709 76.8481L21.9829 74.534L36.1462 89.3169L33.7828 93.6661Z" fill="#FEFEFE"/>
<path d="M90.8866 51.9044C99.0391 41.5573 104.94 29.3226 108.285 16.5122C109.56 11.6337 110.39 4.85801 109.814 0.273006C105.336 -0.418192 98.6809 0.277817 93.8723 1.46777C81.2474 4.5934 69.1317 10.3411 58.8121 18.427C47.8389 27.0261 40.2819 38.6963 31.3404 49.2727C26.9467 54.4703 22.553 59.6664 18.1577 64.864L31.32 78.603L44.4823 92.3419C49.6711 87.975 54.8616 83.6081 60.0504 79.2412C70.6151 70.3567 82.217 62.9075 90.8866 51.9044Z" fill="#FEFEFE"/>
<path d="M34.1573 96.0095L15.5625 76.6014C15.4651 76.5003 15.4683 76.3384 15.5673 76.2389L16.3875 75.4211C16.4865 75.3216 16.6453 75.3232 16.7427 75.4243L35.3374 94.8323C35.4349 94.9334 35.4317 95.0954 35.3327 95.1948L34.5124 96.0127C34.4134 96.1121 34.2531 96.1105 34.1573 96.0095Z" fill="#FEFEFE"/>
<path d="M84.7208 43.7369C89.7971 38.5563 89.8046 30.1645 84.7375 24.9933C79.6703 19.8221 71.4475 19.8297 66.3712 25.0103C61.2949 30.1909 61.2874 38.5827 66.3545 43.7539C71.4216 48.9251 79.6445 48.9175 84.7208 43.7369Z" fill="#090909"/>
</g>
<defs>
<clipPath id="clip0">
<rect width="110" height="110" fill="white"/>
</clipPath>
</defs>
</svg>
