<svg width="134" height="126" viewBox="0 0 134 126" fill="none" xmlns="http://www.w3.org/2000/svg">
<g clip-path="url(#clip0)">
<path d="M107.993 95.7908C108.804 95.9219 108.756 96.0538 108.86 96.0678C108.983 96.0841 110.445 95.3509 110.445 95.3509C110.445 95.3509 114.769 93.2186 114.998 93.0949L118.119 89.1718L120.524 90.2797C120.524 90.2797 117.014 94.4503 116.792 94.634C116.57 94.8176 110.37 96.9899 109.831 97.1988C109.831 97.1988 109.288 97.695 108.936 97.995C108.584 98.295 108.114 98.4135 108.002 98.4816C107.985 98.492 107.597 98.6964 107.049 98.8156C106.577 98.9186 106.97 98.5979 106.97 98.5979C106.97 98.5979 107.806 98.2453 107.765 98.1816C107.733 98.1328 107.289 98.3527 106.768 98.472C106.634 98.5023 106.502 98.5327 106.38 98.5586C106.059 98.6275 105.919 98.4446 106.24 98.3172C106.354 98.272 106.544 98.2024 106.688 98.172C106.843 98.1394 106.973 98.0587 107.099 98.0105C107.348 97.9157 107.531 97.8498 107.521 97.8417C107.509 97.8306 107.543 97.7758 107.4 97.8032C107.228 97.8365 106.88 97.992 106.622 98.0209C106.476 98.0372 106.173 98.0913 106.173 98.0913C106.173 98.0913 105.636 98.1424 105.632 98.0676C105.624 97.9032 105.955 97.8113 106.157 97.8158C106.285 97.7506 106.606 97.7032 106.606 97.7032C106.606 97.7032 107.228 97.458 107.192 97.3662C107.178 97.3292 106.801 97.3862 106.401 97.4136C105.978 97.4425 105.672 97.4425 105.65 97.361C105.614 97.2314 105.95 97.1818 105.95 97.1818C105.95 97.1818 106.247 97.1388 106.344 97.1166C106.458 97.0907 106.792 96.9862 106.792 96.9862C106.792 96.9862 107.936 96.5663 107.895 96.4819C107.853 96.3974 107.664 96.2212 107.583 96.2212C107.503 96.2219 107.359 96.3019 107.278 96.3026C107.197 96.3034 107.024 96.2878 107.012 96.1863C107 96.0849 107.448 95.8745 107.448 95.8745C107.448 95.8745 107.76 95.7531 107.993 95.7908Z" fill="#EFEFEF"/>
<path d="M115.947 91.6017C115.947 91.6017 116.726 92.3083 117.05 92.5409C117.319 92.7342 118.631 93.3652 118.631 93.3652C118.631 93.3652 119.936 91.3684 120.507 90.3671C121.2 89.1524 121.679 87.3453 121.516 87.2964C121.056 87.1586 120.424 87.075 119.841 87.3423C117.821 88.2696 115.947 91.6017 115.947 91.6017Z" fill="#E0E0E0"/>
<path d="M108.75 96.8346C108.404 96.8895 108.05 96.8235 107.896 96.5062C107.861 96.8828 108.432 97.0689 108.75 96.8346Z" fill="#FE875E"/>
<path d="M11.9726 82.8274C12.0207 81.6646 11.8502 80.5159 11.3313 79.4338C10.885 78.5021 9.78114 77.974 8.77439 77.9725C5.5777 77.9681 5.17144 82.206 3.13644 83.8406C2.51445 84.3398 1.81981 84.7472 1.23118 85.2856C-0.941711 87.2742 0.0368673 90.9567 2.03183 92.7002C3.41593 93.9104 5.59178 94.5977 7.29836 93.6519C8.18872 93.1579 8.86483 92.3373 9.34671 91.4381C10.0302 90.162 10.4713 88.6889 10.9569 87.329C11.4744 85.8804 11.9081 84.3731 11.9726 82.8274Z" fill="#828282"/>
<path d="M12.4944 88.4584C11.4958 85.4321 10.1777 85.4795 10.1777 85.4795L11.2431 91.9231C11.8599 91.755 12.6627 91.3795 13.2788 91.2062C13.0742 90.2492 12.7406 89.2035 12.4944 88.4584Z" fill="#E0E0E0"/>
<path d="M17.5407 98.7785L13.8903 95.9966C13.8903 95.9966 13.5233 93.4014 13.031 91.098C12.415 91.2721 11.859 91.7542 11.2429 91.9231L12.1711 97.0809L16.9557 99.5465L18.3072 101.282L18.6149 99.5006L17.5407 98.7785Z" fill="#F48C7F"/>
<path d="M50.8163 94.434C51.9498 94.434 53.0137 94.7325 53.9329 95.2546C54.0493 95.3205 54.1754 95.3813 54.3095 95.4361C57.1148 96.5871 60.184 94.4555 60.184 91.4255V76.5261H45.2703C42.2374 76.5261 40.1038 73.4598 41.2559 70.6572C41.3108 70.5232 41.3716 70.3973 41.4375 70.281C41.9602 69.3619 42.2589 68.2998 42.2589 67.1673C42.2589 63.5789 39.2639 60.689 35.635 60.8571C32.3508 61.0089 29.7065 63.7041 29.6145 66.9874C29.5819 68.1553 29.8666 69.2537 30.3892 70.2032C30.4545 70.3217 30.5138 70.4499 30.5686 70.5861C31.7118 73.4346 29.5434 76.5268 26.472 76.5268H11.6865V110.477C11.6865 118.486 18.1852 124.978 26.2014 124.978H60.184V110.128C60.184 107.083 57.1044 104.939 54.2821 106.086C54.1472 106.141 54.0204 106.201 53.904 106.266C52.8988 106.829 51.723 107.126 50.4731 107.06C47.2534 106.89 44.652 104.276 44.5 101.058C44.3288 97.4292 47.2223 94.434 50.8163 94.434Z" fill="#FEFEFE"/>
<path d="M83.1397 86.1684C83.1923 85.0375 83.5407 83.9895 84.1056 83.0962C84.1768 82.9837 84.2435 82.86 84.3043 82.7289C85.5861 79.9833 83.5978 76.8208 80.5687 76.6793L65.6706 75.9839L64.9744 90.867C64.8328 93.8933 61.6673 95.8797 58.9191 94.5991C58.7879 94.5377 58.6641 94.4717 58.5514 94.4006C57.6573 93.8363 56.6091 93.4889 55.4763 93.4356C51.8882 93.2682 48.859 96.1219 48.8575 99.751C48.8561 103.035 51.4271 105.801 54.7053 106.045C55.8714 106.132 56.9827 105.899 57.9568 105.422C58.0784 105.363 58.2089 105.309 58.3483 105.261C61.2492 104.253 64.2405 106.561 64.0967 109.626L63.4065 124.381L97.352 125.967C105.359 126.341 112.155 120.159 112.529 112.159L114.116 78.2458L99.2677 77.5526C96.2237 77.4104 93.9352 80.3833 94.9501 83.254C94.9983 83.391 95.0524 83.5206 95.1124 83.6399C95.6291 84.6694 95.8716 85.8566 95.747 87.1009C95.4268 90.3064 92.6912 92.7801 89.4671 92.7816C85.8315 92.7831 82.9714 89.7553 83.1397 86.1684Z" fill="#FEFEFE"/>
<path d="M41.6279 62.7339C41.685 63.8648 41.4404 64.941 40.9644 65.8845C40.9044 66.0038 40.8503 66.1327 40.8021 66.2697C39.7924 69.1263 42.0772 72.0822 45.1063 71.9296L60.0015 71.1816L59.2527 56.3007C59.1007 53.2751 62.0587 50.9917 64.9181 52.0005C65.0552 52.0486 65.1842 52.1027 65.3036 52.1627C66.2481 52.6382 67.3253 52.8826 68.4573 52.8256C72.0447 52.6456 74.7832 49.5119 74.4333 45.8991C74.1167 42.6299 71.2892 40.1266 68.0028 40.1999C66.8337 40.2258 65.7499 40.5658 64.8269 41.1346C64.712 41.2057 64.5867 41.2716 64.4533 41.3331C61.6636 42.6166 58.4625 40.6087 58.3083 37.5439L57.5654 22.7919L23.6258 24.4968C15.62 24.899 9.45569 31.7092 9.85825 39.7073L11.5648 73.6153L26.4103 72.8695C29.4535 72.7169 31.4433 69.5366 30.1548 66.7777C30.0933 66.6459 30.0273 66.5222 29.9554 66.4097C29.3408 65.435 28.985 64.2766 28.9887 63.0264C28.9969 59.8054 31.4796 57.0783 34.6889 56.765C38.3074 56.411 41.447 59.1484 41.6279 62.7339Z" fill="#FEFEFE"/>
<path d="M72.1144 54.5215C70.9808 54.5215 69.917 54.2231 68.9977 53.7009C68.8814 53.635 68.7553 53.5743 68.6211 53.5194C65.8159 52.3685 62.7467 54.5001 62.7467 57.5293V72.4287H77.6604C80.6932 72.4287 82.8268 75.495 81.6748 78.2976C81.6199 78.4316 81.5591 78.5575 81.4931 78.6738C80.9705 79.593 80.6717 80.655 80.6717 81.7875C80.6717 85.3759 83.6668 88.2658 87.2957 88.0977C90.5798 87.9459 93.2242 85.2507 93.3162 81.9674C93.3488 80.7995 93.0634 79.7011 92.5414 78.7516C92.4762 78.6331 92.4169 78.505 92.362 78.3687C91.2189 75.5202 93.3873 72.428 96.4587 72.428H111.244V38.4793C111.244 30.4707 104.746 23.9783 96.7293 23.9783H62.7467V38.8281C62.7467 41.8729 65.8263 44.0178 68.6486 42.8705C68.7835 42.8157 68.9103 42.7557 69.0267 42.6905C70.0319 42.1269 71.2077 41.8292 72.4576 41.8958C75.6773 42.0662 78.2787 44.6799 78.4306 47.898C78.6026 51.5256 75.7084 54.5215 72.1144 54.5215Z" fill="#EFF3F5"/>
<path d="M1.97915 120.265C1.97915 120.265 1.75378 121.829 1.3668 122.334C1.23706 122.504 0.999088 122.718 0.843405 123.025C0.600984 123.501 0.735168 124.211 0.913833 124.602C1.00576 124.802 0.907161 124.802 1.11696 124.866C1.73673 125.057 2.39579 124.735 2.65971 124.141C2.80723 123.809 2.93623 123.366 2.96218 122.808C3.02816 121.387 3.46926 120.665 3.46926 120.665L1.97915 120.265Z" fill="#EFEFEF"/>
<path d="M8.75832 120.981C8.75832 120.981 8.8977 122.745 8.78427 123.317C8.72348 123.624 8.38691 124.257 8.54185 124.545C8.69605 124.834 8.87249 124.907 8.87249 124.907L12.8735 124.971C13.0915 124.975 12.9477 124.834 12.772 124.705C12.4843 124.493 12.2523 124.353 11.333 123.908C11.273 123.879 11.055 123.74 10.9764 123.691C10.777 123.569 10.5768 123.377 10.4041 123.186C10.1165 122.865 10.092 121.312 10.092 121.312L8.75832 120.981Z" fill="#EFEFEF"/>
<path d="M11.8851 97.5349C11.8851 97.5349 12.3892 100.399 12.0578 102.277C11.7265 104.154 10.1392 121.557 10.1392 121.557L8.37482 121.657C8.37482 121.657 8.00489 114.387 8.07087 113.376C8.13685 112.366 8.66098 110.674 8.66098 110.674L8.48528 104.804L10.7123 97.0935L11.8851 97.5349Z" fill="#E0E0E0"/>
<path d="M6.69937 96.9327C6.69937 96.9327 5.31009 99.0265 4.9787 100.76C4.64806 102.493 5.22187 107.819 4.58505 110.09C4.24032 111.32 2.93481 113.218 2.73613 114.807C2.53745 116.395 1.75903 120.557 1.75903 120.557L3.5227 120.907L7.62161 110.515L10.8368 101.121L11.6605 96.2832L6.69937 96.9327Z" fill="#E0E0E0"/>
<path d="M7.82396 85.0182C7.82396 85.0182 5.98394 84.9011 5.25667 85.6951C4.52941 86.4891 6.87133 92.7734 7.00329 93.7836C7.13525 94.7946 6.32866 97.4824 6.32866 97.4824C6.32866 97.4824 10.65 98.3534 11.8858 97.535C11.8858 97.535 12.0185 90.2656 11.8858 89.5435C11.7538 88.8213 10.6507 85.8847 10.3861 85.5958C10.1207 85.307 7.82396 85.0182 7.82396 85.0182Z" fill="#E0E0E0"/>
<path d="M8.43619 82.5561C8.43619 82.5561 8.42655 82.6102 8.4095 82.7028C8.32721 83.1457 8.0114 84.6151 7.79789 85.0187C7.5399 85.5068 8.68083 87.0637 9.77877 86.8733C10.1057 86.817 9.50225 85.4431 9.53116 85.2972C9.58676 85.0188 9.66164 84.6388 9.73874 84.2492C9.78248 84.0293 9.82622 83.8063 9.86773 83.5975C9.98486 83.002 10.0812 82.5154 10.0812 82.5154L8.43619 82.5561Z" fill="#EFEFEF"/>
<path d="M8.4098 82.7028C8.42685 82.6102 8.43648 82.5561 8.43648 82.5561L10.0815 82.5154C10.0815 82.5154 9.9859 83.002 9.86803 83.5975C9.82725 83.8056 9.78351 84.027 9.73977 84.2463C9.48549 84.2085 9.22009 84.0855 8.95394 83.8515C8.66408 83.5975 8.47355 83.2916 8.35864 82.9657C8.38014 82.8613 8.39719 82.7716 8.4098 82.7028Z" fill="#EFEFEF"/>
<path d="M9.54384 78.8115C9.54384 78.8115 8.76839 78.7219 8.28206 79.3515C7.79574 79.981 7.27235 81.9274 8.47926 82.9858C9.68691 84.0442 10.8797 82.8458 11.0569 81.5756C11.2341 80.3061 11.3023 78.7656 9.54384 78.8115Z" fill="#EFEFEF"/>
<path d="M11.4144 81.5585C11.2706 81.8395 11.0281 81.9944 10.8739 81.9054C10.7197 81.8165 10.7116 81.5162 10.8554 81.236C10.9992 80.955 11.2416 80.7994 11.3958 80.8883C11.55 80.9773 11.5582 81.2775 11.4144 81.5585Z" fill="#EFEFEF"/>
<path d="M9.63085 78.6034C9.63085 78.6034 8.59519 80.455 7.85385 80.5402C7.1125 80.6254 7.01538 81.6097 7.01538 81.6097C7.01538 81.6097 7.28004 79.3433 8.01398 78.9064C8.74717 78.4686 9.63085 78.6034 9.63085 78.6034Z" fill="#828282"/>
<path d="M2.78014 123.828C1.81861 124.004 1.17957 123.441 0.846706 123.02C0.602061 123.497 0.483446 124.21 0.662852 124.602C0.820759 124.948 1.28336 124.937 1.6481 124.951C2.03286 124.965 2.33088 124.751 2.52215 124.415C2.61111 124.258 2.70304 124.062 2.78014 123.828Z" fill="#828282"/>
<path d="M10.9762 123.691C9.91829 123.963 9.13543 123.778 8.69803 123.602C8.58535 123.922 8.4356 124.324 8.51492 124.556C8.61204 124.839 8.75067 124.904 8.87225 124.907C9.83897 124.932 12.4129 124.967 13.1498 124.976C13.2529 124.978 13.3092 124.857 13.2432 124.778C13.0609 124.559 11.0548 123.74 10.9762 123.691Z" fill="#828282"/>
<path d="M8.04799 81.0057C8.10804 81.3349 7.9872 81.6366 7.77739 81.6796C7.56759 81.7226 7.3489 81.4913 7.28811 81.1622C7.22806 80.833 7.3489 80.5313 7.5587 80.4883C7.7685 80.4453 7.9872 80.6773 8.04799 81.0057Z" fill="#EFEFEF"/>
<path d="M9.25787 82.1445L10.1935 82.1868C10.1935 82.1868 10.1556 82.5412 9.7442 82.5345C9.24156 82.5256 9.25787 82.1445 9.25787 82.1445Z" fill="#EFEFEF"/>
<path d="M89.0237 7.62647C89.1401 7.63091 89.4596 7.73831 89.9259 8.61893C90.5219 9.7447 91.393 13.1442 91.393 13.1442L88.7924 14.1115L88.458 13.402L87.908 7.93902C87.9087 7.93902 88.9918 7.62499 89.0237 7.62647Z" fill="#E0E0E0"/>
<path d="M85.586 7.13611C86.3296 7.13685 88.1696 7.35386 89.0237 7.62642C89.0237 7.62642 89.6508 13.0131 88.4588 17.1066C88.1919 18.0228 88.6797 20.9054 88.6797 20.9054L80.9741 20.8039C80.9741 20.8039 81.8867 13.8359 81.5427 12.7109C81.1988 11.5851 81.1906 7.66345 81.1906 7.66345C81.1906 7.66345 81.2432 7.6553 82.9216 7.36571C83.7052 7.22943 84.7921 7.13537 85.586 7.13611Z" fill="#E0E0E0"/>
<path d="M84.6883 30.9041C84.6883 30.9041 84.8588 32.8697 85.1724 33.4141C85.486 33.9585 85.1561 34.8835 85.1391 35.0109C85.1228 35.1376 84.4793 35.319 83.4562 35.2101C82.4331 35.1013 82.4502 34.8657 82.5325 34.4843C82.6148 34.1036 83.1597 33.6133 83.1923 33.2504C83.2257 32.8875 82.8787 31.581 82.8787 31.581L84.6883 30.9041Z" fill="white"/>
<path d="M87.8101 19.2827C87.8101 19.2827 93.1292 18.9879 94.3169 19.7063C95.5045 20.4247 93.4732 23.9524 93.4732 23.9524C93.4732 23.9524 89.7717 23.7821 82.522 24.1998C80.8051 24.299 80.6575 19.7278 80.9786 19.3493C81.2996 18.9716 87.8101 19.2827 87.8101 19.2827Z" fill="#E0E0E0"/>
<path d="M83.3294 35.3627C82.2759 35.2509 82.4064 34.7339 82.4917 34.3414C82.545 34.0955 82.8468 33.8059 83.0269 33.5319C83.1211 33.6067 83.2745 33.7392 83.7312 33.874C84.2064 34.014 84.8573 33.737 85.2717 33.563C85.42 34.1125 85.4267 34.8139 85.4126 34.9206C85.3963 35.0509 84.3821 35.4746 83.3294 35.3627Z" fill="#828282"/>
<path d="M83.9106 23.0844C84.1234 24.6908 85.1754 32.689 85.1754 32.689L82.7341 32.9912C82.7341 32.9912 79.7317 22.5519 79.8859 20.9558C80.0401 19.359 81.164 19.2249 81.164 19.2249C81.164 19.2249 83.348 18.8316 83.9106 23.0844Z" fill="#E0E0E0"/>
<path d="M81.1076 8.26198C81.8282 7.99165 82.1803 14.4774 82.2774 17.1467C83.5533 17.2696 85.7773 17.1474 86.3311 17.106C86.5913 17.0867 87.1918 16.8667 87.4513 16.8327C87.7167 16.7979 87.9576 16.7801 88.0874 16.8023C88.1356 16.8105 89.4648 17.3541 89.579 17.4733C89.7198 17.6215 90.1016 17.994 90.0371 18.1547C89.9726 18.3162 89.3039 17.7059 89.3039 17.7059L88.977 17.5222C89.384 17.9192 90.1609 18.4428 90.049 18.6332C89.94 18.8191 89.2394 18.288 88.7405 17.9259C89.169 18.3125 89.7006 19.0035 89.5782 19.1116C89.4678 19.2086 88.8628 18.408 88.2164 18.1777C87.9769 18.0925 87.7375 18.3288 87.5492 18.3576C87.4105 18.3784 87.197 18.4236 87.0606 18.3851L86.36 18.1866C86.1213 18.208 86.1154 18.3488 85.8745 18.4006C85.595 18.4599 85.1361 18.5228 84.7802 18.6095C82.7297 19.1101 82.0454 19.3427 81.4175 19.342C79.5152 19.3412 79.4047 8.89967 81.1076 8.26198Z" fill="white"/>
<path d="M79.7398 14.35C79.6049 11.6156 79.6249 8.24567 81.1588 7.67093C81.7645 7.44429 82.8312 8.80781 82.6392 14.4056C81.8208 14.4737 80.6183 14.5278 79.7398 14.35Z" fill="#E0E0E0"/>
<path d="M91.8274 32.5852C91.8274 32.5852 91.6146 33.2673 91.9957 33.7191C92.3775 34.1702 93.9624 34.6131 94.17 34.8575C94.3783 35.1019 94.362 35.31 94.362 35.31L89.9132 35.1878L89.9614 33.8458L90.166 32.8815L91.8274 32.5852Z" fill="white"/>
<path d="M92.273 33.9437C92.273 33.9437 91.1298 34.4058 90.5775 34.1318C90.0252 33.8578 90.0423 33.7822 89.8821 33.8844C89.722 33.9866 89.6649 35.245 89.6649 35.245L94.6675 35.3916C95.016 35.3835 95.1917 35.1272 94.9085 34.908C94.7142 34.7576 94.4904 34.6569 94.3628 34.5843C93.9721 34.3606 92.273 33.9437 92.273 33.9437Z" fill="#828282"/>
<path d="M91.6592 20.5425C92.0032 19.8196 92.7854 18.8783 94.1613 19.4456C95.4735 19.9863 95.8256 21.315 95.4119 22.6755C94.9983 24.0361 92.2723 32.035 92.1774 33.1349L90.0009 33.1489C90.0009 33.1489 90.396 26.8157 90.4931 25.2848C90.5858 23.8117 91.0639 21.7934 91.6592 20.5425Z" fill="#E0E0E0"/>
<path d="M95.1926 13.1753H87.9177C87.725 13.1753 87.5522 13.2916 87.4788 13.4701L85.2385 18.9471H81.2278C81.1159 18.9471 81.0247 19.0382 81.0247 19.1508C81.0247 19.2634 81.1159 19.3545 81.2278 19.3545H92.6431C92.9566 19.3545 93.2413 19.17 93.3703 18.8827L95.6262 13.8456C95.7664 13.5308 95.5365 13.1753 95.1926 13.1753Z" fill="#4F4F4F"/>
<path d="M91.2751 16.3651C91.2261 16.6112 91.0119 16.7758 90.7969 16.7328C90.5819 16.6898 90.4477 16.4548 90.4966 16.2086C90.5456 15.9625 90.7598 15.7979 90.9748 15.8409C91.1898 15.8847 91.324 16.1189 91.2751 16.3651Z" fill="white"/>
<path d="M87.315 0.556982C87.0956 0.482917 86.8798 0.399966 86.6715 0.299239C86.4358 0.185921 86.1303 0.0526056 85.9376 0.0229799C85.5313 -0.0399745 84.8345 0.002242 84.449 0.419222C83.9693 0.939152 83.1168 0.513284 83.288 3.23662C83.4822 6.3199 85.1985 5.98143 85.24 5.92884C85.2815 5.87626 86.7701 3.95652 86.7701 3.95652C86.7701 3.95652 87.2905 5.09414 87.2905 5.05193C87.2913 5.01341 89.949 1.44353 87.315 0.556982Z" fill="#828282"/>
<path d="M86.0124 6.15781L86.1607 7.25914C86.1607 7.25914 86.4928 8.84633 86.0658 9.15221C85.6388 9.4581 84.2502 7.21396 84.2502 7.21396L84.397 4.42249L86.0124 6.15781Z" fill="white"/>
<path d="M84.3495 5.32755C84.7024 6.28001 85.5423 6.86512 86.1384 7.09175L86.0131 6.15781L84.3977 4.42249L84.3495 5.32755Z" fill="white"/>
<path d="M85.925 1.38506C86.8295 1.23915 87.6412 1.96572 87.6182 2.87078C87.6086 3.26406 87.576 3.75511 87.4944 4.28393C87.298 5.55561 86.4291 6.67545 85.8553 6.57547C85.2808 6.47548 83.8359 5.37859 84.0909 3.56847C84.2473 2.45158 84.9761 1.53837 85.925 1.38506Z" fill="white"/>
<path d="M84.4888 3.78534C84.4406 4.06556 84.216 4.2598 83.9884 4.22051C83.76 4.18047 83.6147 3.92174 83.6629 3.64151C83.7111 3.36129 83.9357 3.16705 84.1633 3.20634C84.3917 3.24638 84.537 3.50511 84.4888 3.78534Z" fill="white"/>
<path d="M84.1635 3.20723C84.1635 3.20723 84.8582 3.3798 85.1154 2.93319C85.3734 2.48733 86.2942 1.52449 87.4655 1.9237C88.6368 2.3229 86.435 0.95346 86.3409 0.95346C86.2475 0.95346 85.1228 0.945312 85.1228 0.945312C85.1228 0.945312 84.2562 1.65781 84.2251 1.73558C84.1939 1.81408 83.9441 2.6673 83.9441 2.6673L84.1635 3.20723Z" fill="#828282"/>
<path d="M85.4335 5.06763L86.6968 5.30931C86.6968 5.30931 86.5759 5.78525 86.0177 5.69481C85.3372 5.58509 85.4335 5.06763 85.4335 5.06763Z" fill="white"/>
<path d="M64.0625 92.943C64.1107 93.1097 64.1389 93.1645 64.1996 93.2763C64.5955 93.9969 65.5148 95.025 65.5148 95.025L66.2257 93.4244C66.2257 93.4244 66.1101 92.9215 65.9084 92.2039C65.2227 92.3824 64.5688 92.486 64.0625 92.943Z" fill="#EFEFEF"/>
<path d="M68.1393 91.5542C68.1393 91.5542 64.1731 93.2606 64.0449 93.228C63.9626 93.2073 62.4183 90.6247 62.4013 88.1969C62.3939 87.0755 63.5593 85.7261 64.8603 85.9927C65.5149 86.1268 65.5053 86.309 66.4742 87.7154C67.4439 89.1219 68.1393 91.5542 68.1393 91.5542Z" fill="#E0E0E0"/>
<path d="M71.5249 122.145C71.5249 122.145 71.4308 123.701 71.43 123.704C71.3952 123.902 71.2595 124.39 71.2595 124.569C71.2595 125.244 74.4666 123.996 73.7475 123.697C73.6823 123.67 73.3412 123.465 73.3205 123.236C73.2879 122.882 73.2041 122.166 73.2041 122.166L71.5249 122.145Z" fill="#EFEFEF"/>
<path d="M73.7402 123.691C73.7402 123.691 72.9869 123.898 72.6014 123.949C72.2159 124.001 71.7074 123.566 71.4346 123.684C71.1343 123.813 71.1462 124.976 71.1462 124.976C71.1462 124.976 75.1836 125.307 76.3193 124.965C76.7686 124.829 75.2792 124.172 73.7402 123.691Z" fill="#828282"/>
<path d="M64.9647 122.145C64.9647 122.145 64.8706 123.701 64.8699 123.704C64.835 123.902 64.6993 124.39 64.6993 124.569C64.6993 125.244 67.9064 123.996 67.1873 123.697C67.1221 123.67 66.6802 123.313 66.6587 123.083C66.6261 122.729 66.6432 122.166 66.6432 122.166L64.9647 122.145Z" fill="#EFEFEF"/>
<path d="M67.1798 123.691C67.1798 123.691 66.4266 123.898 66.0411 123.949C65.6556 124.001 65.1471 123.566 64.8742 123.684C64.574 123.813 64.5621 124.976 64.5621 124.976C64.5621 124.976 68.618 125.362 69.759 124.965C70.2016 124.811 68.7189 124.172 67.1798 123.691Z" fill="#828282"/>
<path d="M65.9448 93.8051L68.7694 89.8523C68.7812 89.8175 68.8072 89.7472 68.8465 89.639C68.9888 89.2465 69.2846 88.4303 69.5426 87.6186L69.5455 87.6097C69.6264 87.326 69.7983 86.8305 69.9644 86.3521C70.149 85.8195 70.3781 85.1589 70.3862 85.0463C70.3788 85.0271 70.3655 84.9923 70.3484 84.9463C70.2446 84.6775 70.1045 84.0383 70.0556 83.7598C70.0245 83.5828 69.9926 83.1525 70.2031 83.1525C70.5345 83.1525 70.3766 83.5821 70.5293 83.8509C70.5857 83.6717 70.6991 83.3154 70.7591 82.9555L70.8147 82.1149C70.8251 82.0512 70.7577 81.5875 70.9904 81.5875H71.0016C71.2106 81.6031 71.2054 82.0956 71.2922 82.9296C71.3196 82.834 71.347 82.7177 71.3678 82.6118C71.3656 82.5548 71.4071 82.3045 71.4382 82.1719C71.3959 81.9393 71.4204 81.5735 71.668 81.6075C71.7918 81.6246 71.7822 82.1363 71.7822 82.1363C71.7807 82.2067 71.7733 82.7474 71.7777 82.854C71.8029 82.6726 71.9023 81.8986 72.0965 81.8986C72.2574 81.8986 72.2707 82.1067 72.267 82.2719C72.2648 82.3696 72.164 83.2073 72.1581 83.3051C72.2337 83.1777 72.3241 82.4393 72.399 82.4393C72.7133 82.4393 72.5999 83.4895 72.4842 83.7635C72.4731 83.7917 72.462 83.8465 72.4487 83.9102C72.4094 84.0976 72.3434 84.4101 72.1796 84.6916C71.9824 85.0285 71.7103 85.5648 71.6688 85.647C71.6384 85.8144 71.5442 86.4165 71.4249 87.1742C71.3737 87.4986 71.3181 87.8533 71.2603 88.2214L71.2573 88.2207C71.2469 88.3007 71.1876 88.554 70.9645 89.5042C70.659 90.8048 70.6272 90.8611 70.6131 90.8848C70.4804 91.1196 67.4349 95.2516 67.3052 95.4271L67.2288 95.5308L65.9448 93.8051Z" fill="#EFEFEF"/>
<path d="M71.198 84.5862C71.198 84.5862 70.9689 83.9997 70.5604 83.999C70.5604 83.999 70.7888 83.9167 70.9837 84.0717C71.1787 84.2266 71.198 84.5862 71.198 84.5862Z" fill="#EFEFEF"/>
<path d="M65.2619 83.4538L64.8987 85.7512C64.8987 85.7512 66.2843 86.8629 67.0916 86.6281C67.7692 86.4311 67.3044 85.5461 67.3044 85.5461C67.3044 85.5461 66.9433 84.3196 67.0538 83.6767C67.165 83.0346 65.2619 83.4538 65.2619 83.4538Z" fill="#EFEFEF"/>
<path d="M65.5238 84.1486C65.8707 84.3123 66.5572 84.5359 67.0917 84.59C67.0406 84.2686 67.0116 83.9286 67.0546 83.6775C67.1058 83.3813 66.7277 83.3109 66.3066 83.3213C65.7551 83.3687 65.2628 83.4546 65.2628 83.4546L65.1931 83.896C65.2976 84.0064 65.4081 84.0938 65.5238 84.1486Z" fill="#EFEFEF"/>
<path d="M63.514 80.8039C63.4569 80.8039 64.0618 83.3702 64.9974 83.8117C65.9337 84.2531 67.3297 84.0227 67.5914 83.3317C67.8812 82.5674 66.8241 79.9492 65.5075 79.6167C64.1916 79.2841 63.514 80.8039 63.514 80.8039Z" fill="#EFEFEF"/>
<path d="M64.5971 78.4464C63.8491 78.8775 63.5066 79.5159 63.3909 79.7781C63.0403 79.9447 62.6155 80.3039 62.4116 81.2742C62.161 82.4659 63.0521 83.385 63.9966 83.6613C64.9411 83.9375 65.0871 84.5619 65.0871 84.5619L65.1946 83.8901C65.1946 83.8901 64.9848 83.305 64.6682 83.0125C64.3524 82.7199 64.818 82.2926 64.8588 81.9445C64.8907 81.6764 64.6927 81.1557 64.7357 80.7158C64.7357 80.7158 65.2606 79.921 65.778 79.7248C66.6595 79.39 65.5564 77.8932 64.5971 78.4464Z" fill="#828282"/>
<path d="M64.9951 82.3914C65.1174 82.6879 65.0677 82.983 64.8831 83.0497C64.6993 83.1164 64.4509 82.9296 64.3286 82.6331C64.2063 82.3365 64.256 82.0415 64.4406 81.9755C64.6244 81.908 64.8728 82.0941 64.9951 82.3914Z" fill="#EFEFEF"/>
<path d="M68.4818 93.8688L73.93 92.9815C73.93 92.9815 73.3102 91.4225 73.0885 91.4225C72.8669 91.4225 68.9689 93.1223 68.9689 93.1223L68.659 93.7444L68.4818 93.8688Z" fill="#EFEFEF"/>
<path d="M65.6913 97.6008C65.6913 97.6008 65.1479 100.226 65.3696 102.216C65.5913 104.207 65.6083 111.277 65.6083 111.277L64.7632 122.59L66.7685 122.634C66.7685 122.634 69.1468 111.326 69.1023 111.617C69.0578 111.907 69.8992 103.656 69.8992 103.656L67.0643 97.3527L65.6913 97.6008Z" fill="#E0E0E0"/>
<path d="M66.2229 97.4763C66.2229 97.4763 65.8685 99.8397 66.3118 100.877C66.7544 101.914 70.1112 112.085 70.1557 112.914C70.2002 113.743 71.3159 122.909 71.3159 122.909L73.6475 122.844L74.1516 112.653L73.0951 99.8442L72.0699 96.6061L66.2229 97.4763Z" fill="#E0E0E0"/>
<path d="M64.8987 85.7521C64.8987 85.7521 65.474 86.1294 66.01 86.0857C66.546 86.042 67.3044 85.5475 67.3044 85.5475L67.1991 85.1902C67.1991 85.1902 65.812 84.9878 65.7764 85.01C65.7416 85.0315 64.8987 85.7521 64.8987 85.7521Z" fill="#EFEFEF"/>
<path d="M71.0276 91.3455C71.0276 91.3455 73.0885 93.2882 74.0189 92.9564C74.9493 92.6245 75.3341 91.4906 73.0641 89.8316C71.0328 88.3474 71.0276 91.3455 71.0276 91.3455Z" fill="#EFEFEF"/>
<path d="M72.4242 93.7444C72.118 92.0802 69.8992 86.9024 69.722 85.9492C69.636 85.4855 68.4387 85.4752 67.2993 85.5359C66.0953 85.5996 64.8988 85.7522 64.8988 85.7522C64.8988 85.7522 63.8327 85.927 63.3642 86.3662C62.8949 86.8054 62.7704 88.0193 63.445 90.3241C63.9773 92.1431 64.6371 93.1423 64.9633 94.468C65.0292 94.9124 65.0863 95.3509 65.1612 95.8634C65.2813 97.8446 65.1597 100.463 65.1597 100.463C65.1597 100.463 70.9623 101.666 73.1329 99.8406C73.1329 99.8399 72.7378 95.4494 72.4242 93.7444Z" fill="#E0E0E0"/>
<path d="M73.9032 90.1663C73.9032 90.1663 71.6265 92.0438 71.4938 92.0438C71.4085 92.0438 68.2445 89.719 67.5142 87.8088C67.1102 86.7527 67.9575 85.5714 68.9243 85.5751C69.5944 85.578 69.8925 85.7506 71.2217 86.8697C72.5509 87.9888 73.9032 90.1663 73.9032 90.1663Z" fill="#E0E0E0"/>
<path d="M33.8497 6.35099C34.2226 5.45407 34.6022 4.55494 35.5704 4.10092C36.354 3.73357 37.1724 3.87133 37.8686 4.39496C39.8413 5.87698 38.1221 7.50935 40.3677 10.3193C41.0653 11.1926 41.9097 11.8976 42.3278 12.9205C42.9127 14.3529 42.2158 15.0402 41.0994 15.726C35.755 19.0078 32.9534 12.2694 33.0543 10.7282C33.1284 9.58166 33.6095 6.92869 33.8497 6.35099Z" fill="#828282"/>
<path d="M28.3031 23.8168C28.5284 23.7812 29.0755 23.3894 29.269 23.3539C29.4188 23.3265 29.7428 23.2776 29.8806 23.2568C30.0497 22.6266 30.9082 19.1885 31.0045 18.1805C31.1091 17.0888 31.8815 12.3657 31.8815 12.3657L33.8824 12.7294C33.8824 12.7294 33.0514 16.363 32.8216 18.1242C32.6244 19.6373 30.9623 23.0398 30.751 23.399C30.751 23.4079 30.751 23.4161 30.7502 23.425C30.7184 23.959 30.4604 23.7812 30.4604 23.7812L30.0415 23.8879C30.0415 23.8879 28.561 24.0301 28.4639 24.0656C28.3676 24.1012 28.0777 23.8523 28.3031 23.8168Z" fill="white"/>
<path d="M33.6258 9.60461C32.2113 10.0838 31.407 13.9255 31.407 13.9255C31.407 13.9255 33.6266 14.5447 34.1952 14.2195C34.1952 14.2195 34.8409 11.3614 35.0722 11.4614L33.6258 9.60461Z" fill="#E0E0E0"/>
<path d="M22.6836 30.4543C22.2507 31.5949 22.026 32.6933 22.006 32.8259C21.9964 32.8896 22.0868 33.1999 22.0779 33.2658C21.2091 34.4501 19.9606 34.7086 18.8901 34.7841C19.4358 34.2523 20.2364 33.748 20.275 33.5798C20.3365 33.3117 20.6657 32.1171 20.828 30.4625C21.4937 30.7699 21.946 30.5262 22.6836 30.4543Z" fill="#E0E0E0"/>
<path d="M34.9945 17.6962L36.9064 23.0747C36.9064 23.0747 33.8343 23.6524 32.6859 23.8627C31.5376 24.0731 25.1205 24.353 24.9581 24.4671C24.8373 24.5515 23.5118 28.8347 22.9202 31.1966C22.2485 31.3439 21.0987 31.1669 20.4871 30.9566C20.8177 27.5778 22.0113 22.2237 22.3938 21.6408C23.0151 20.6913 34.9945 17.6962 34.9945 17.6962Z" fill="#E0E0E0"/>
<path d="M27.5263 32.8119C27.315 34.0132 27.3002 35.1338 27.3054 35.2686C27.3076 35.333 27.4544 35.6204 27.4588 35.6878C26.8272 37.0135 25.6492 37.5016 24.6121 37.7764C25.048 37.152 25.7404 36.5062 25.7463 36.3336C25.756 36.0589 25.856 34.8242 25.7048 33.1674C26.4172 33.3452 26.8153 33.0207 27.5263 32.8119Z" fill="#E0E0E0"/>
<path d="M37.2258 17.9753L37.9671 19.2404C39.0962 21.1668 38.2303 23.6449 36.1479 24.4522C36.1367 24.4567 36.1256 24.4611 36.1145 24.4648C35.0262 24.8863 28.7752 26.3631 28.6373 26.5053C28.5342 26.6112 28.036 31.0662 27.8974 33.4969C27.265 33.768 26.1026 33.8088 25.4621 33.7162C25.1529 30.3351 25.3212 24.8529 25.5874 24.2086C26.0211 23.1598 37.2258 17.9753 37.2258 17.9753Z" fill="#E0E0E0"/>
<path d="M27.2095 35.3064C27.3756 35.1227 27.9872 36.1337 28.1399 36.3492C28.3119 36.5914 28.263 36.7743 28.2422 36.8128C28.1881 36.9128 24.9662 38.8066 24.1804 38.9414C24.1063 38.954 23.9773 38.9074 23.9454 38.8785C23.6385 38.6067 25.0515 36.6017 25.6868 36.3381C26.0968 36.167 26.4615 36.1322 27.2095 35.3064Z" fill="#828282"/>
<path d="M21.9031 32.8622C22.1011 32.7126 22.5118 33.8199 22.6215 34.0606C22.7446 34.3309 22.6623 34.5013 22.6348 34.5346C22.5629 34.6227 19.043 35.8796 18.2453 35.8648C18.1697 35.8633 18.0526 35.7929 18.0259 35.7589C17.7753 35.4345 19.5397 33.7295 20.2129 33.5895C20.648 33.4999 21.0128 33.5333 21.9031 32.8622Z" fill="#828282"/>
<path d="M34.967 9.59347C34.9307 9.59347 34.878 9.58088 34.8247 9.56384C34.5622 9.51718 33.9877 9.4483 33.5406 9.63643C32.9972 9.86528 32.1551 12.0065 32.2047 14.2032C32.2248 14.5395 32.2455 14.8402 32.2626 15.0498C32.3997 16.7095 32.8764 19.8239 32.9023 19.8402C33.551 20.2572 37.4631 18.6404 37.7315 18.2856C38.0006 17.9309 38.1592 13.6166 38.2897 13.4011L38.547 9.64902C38.0933 9.51496 35.6624 9.58902 34.967 9.59347Z" fill="#E0E0E0"/>
<path d="M36.5527 8.21224C36.5527 8.21224 36.3007 9.51354 36.3511 10.0275C36.4015 10.5408 36.1591 12.1954 35.0715 12.2013C33.984 12.2065 34.8647 10.0979 34.9677 9.59427C35.07 9.09138 35.0945 7.53381 35.0945 7.53381L36.5527 8.21224Z" fill="white"/>
<path d="M35.0714 8.31458C35.0885 7.88871 35.0937 7.5332 35.0937 7.5332L36.5526 8.21237C36.5526 8.21237 36.5015 8.47826 36.4496 8.81747C35.8105 8.9456 35.3479 8.70934 35.0714 8.31458Z" fill="white"/>
<path d="M37.0857 4.62011C37.0857 4.62011 37.6476 4.93191 37.853 5.60664C38.0583 6.2821 37.8248 8.02409 36.3725 8.44477C34.9202 8.86546 34.2916 7.48564 34.5903 6.40653C34.8898 5.32816 35.5407 3.96168 37.0857 4.62011Z" fill="white"/>
<path d="M34.4095 5.98934C34.4377 6.27921 34.5978 6.50087 34.7668 6.48456C34.9359 6.46825 35.0493 6.21916 35.0211 5.92929C34.9929 5.63943 34.8328 5.41776 34.6638 5.43407C34.4948 5.45038 34.3806 5.69873 34.4095 5.98934Z" fill="white"/>
<path d="M36.9153 4.5321C36.9153 4.5321 37.1785 6.47554 37.8079 6.82661C38.4365 7.17767 38.1733 8.03978 38.1733 8.03978C38.1733 8.03978 38.7442 6.03783 38.2467 5.39495C37.7493 4.75133 36.9153 4.5321 36.9153 4.5321Z" fill="#828282"/>
<path d="M37.4349 7.10529C37.2644 7.35883 37.2651 7.6576 37.4364 7.77325C37.6077 7.8889 37.8849 7.77621 38.0554 7.52267C38.2259 7.26913 38.2252 6.97037 38.0539 6.85472C37.8827 6.73981 37.6054 6.85175 37.4349 7.10529Z" fill="white"/>
<path d="M35.3199 7.21313L36.343 7.47038C36.343 7.47038 36.2199 7.85885 35.7669 7.75877C35.2139 7.63719 35.3199 7.21313 35.3199 7.21313Z" fill="white"/>
<path d="M128.728 122.209C128.728 122.209 128.814 123.737 128.815 123.74C128.847 123.934 128.971 124.414 128.971 124.591C128.971 125.253 126.028 124.028 126.687 123.734C126.747 123.708 127.06 123.507 127.079 123.281C127.11 122.934 127.186 122.23 127.186 122.23L128.728 122.209Z" fill="#EFEFEF"/>
<path d="M126.659 123.741C126.659 123.741 127.35 123.944 127.704 123.994C128.059 124.045 128.525 123.618 128.776 123.734C129.051 123.86 129.04 125.003 129.04 125.003C129.04 125.003 125.334 125.328 124.292 124.992C123.879 124.859 125.247 124.214 126.659 123.741Z" fill="#828282"/>
<path d="M133.63 122.129C133.63 122.129 133.717 123.658 133.717 123.661C133.749 123.855 133.874 124.335 133.874 124.511C133.874 125.174 130.93 123.948 131.59 123.655C131.649 123.628 132.055 123.277 132.075 123.051C132.105 122.704 132.089 122.151 132.089 122.151L133.63 122.129Z" fill="#EFEFEF"/>
<path d="M131.597 123.649C131.597 123.649 132.288 123.852 132.642 123.902C132.996 123.953 133.463 123.526 133.714 123.642C133.989 123.768 134.001 124.911 134.001 124.911C134.001 124.911 130.321 125.062 129.23 124.9C128.801 124.836 130.184 124.121 131.597 123.649Z" fill="#828282"/>
<path d="M132.757 97.8476C132.757 97.8476 133.256 100.426 133.053 102.382C132.85 104.337 132.834 111.284 132.834 111.284L133.771 122.394L131.768 122.441C131.768 122.441 129.586 111.332 129.626 111.617C129.667 111.902 128.894 103.795 128.894 103.795L131.496 97.6024L132.757 97.8476Z" fill="#E0E0E0"/>
<path d="M132.059 96.1819C132.059 96.1819 134.319 98.5601 133.479 101.158C133.141 102.201 129.991 112.169 129.951 112.984C129.91 113.799 128.885 122.804 128.885 122.804L126.745 122.74L126.282 112.727L126.893 99.2363L128.193 96.961L132.059 96.1819Z" fill="#E0E0E0"/>
<path d="M118.337 88.4414C119.077 87.6163 120.688 86.4424 120.688 86.4424C120.688 86.4424 121.648 85.6232 122.039 85.4884C122.615 85.29 123.601 84.7611 125.027 86.9208C126.048 88.4666 132.489 96.4692 133.547 96.7388L126.642 100.039C126.453 98.463 123.041 95.4849 122.549 94.9294C121.452 93.6873 117.637 89.222 118.337 88.4414Z" fill="#E0E0E0"/>
<path d="M118.659 85.0878L120.81 86.3461C120.81 86.3461 120.87 88.1807 120.167 88.6569C119.577 89.0569 119.128 88.097 119.128 88.097C119.128 88.097 118.328 86.9897 117.721 86.6446C117.114 86.3002 118.659 85.0878 118.659 85.0878Z" fill="#EFEFEF"/>
<path d="M119.02 85.8951C118.939 86.278 118.752 86.8312 118.462 87.2867C118.225 87.0305 117.959 86.7794 117.721 86.6446C117.441 86.4854 117.619 86.1417 117.893 85.8173C118.279 85.4159 118.659 85.0878 118.659 85.0878L119.073 85.3292C119.099 85.4862 119.048 85.7677 119.02 85.8951Z" fill="#EFEFEF"/>
<path d="M117.539 81.9356C117.575 81.8912 119.343 84.0894 119.126 85.1211C118.908 86.1528 117.839 87.0934 117.096 86.8349C116.274 86.5491 114.746 83.9605 115.294 82.7037C115.842 81.4468 117.539 81.9356 117.539 81.9356Z" fill="#EFEFEF"/>
<path d="M115.603 81.2417C116.374 80.8136 117.632 80.6907 118.571 81.1817C119.726 81.7861 119.989 83.3059 119.627 84.2332C119.266 85.1604 119.68 85.6848 119.68 85.6848L119.068 85.3271C119.068 85.3271 118.71 84.7686 118.663 84.3242C118.616 83.8791 117.967 83.9584 117.649 83.7562C117.406 83.6006 117.093 83.0963 116.699 82.8341C116.699 82.8341 115.704 82.7119 115.216 82.9866C114.381 83.4547 114.499 81.8557 115.603 81.2417Z" fill="#828282"/>
<path d="M118.146 84.1272C118.14 84.4568 118.297 84.7271 118.495 84.7301C118.693 84.733 118.858 84.4686 118.864 84.139C118.87 83.8095 118.713 83.5391 118.515 83.5362C118.318 83.5332 118.151 83.7976 118.146 84.1272Z" fill="#EFEFEF"/>
<path d="M116.335 85.8788L117.272 85.179C117.272 85.179 117.519 85.557 117.117 85.8773C116.625 86.2673 116.335 85.8788 116.335 85.8788Z" fill="#EFEFEF"/>
<path d="M113.984 99.7881C114.219 99.4459 114.321 98.9519 114.646 98.5749C114.754 98.4483 114.928 98.3061 115.125 98.1639C116.685 97.2521 120.748 94.9021 120.905 94.7199C121.093 94.5036 123.866 89.9013 123.866 89.9013L121.375 89.3376L118.942 93.6311C118.739 93.7926 114.875 96.6448 114.875 96.6448C114.875 96.6448 114.107 97.2447 113.687 97.5254C113.475 97.6491 113.269 97.7291 113.089 97.7921C112.862 97.8706 112.43 98.0861 112.343 98.1624C112.241 98.252 112.038 98.4423 111.917 98.5586C111.797 98.6749 111.65 98.8067 111.593 98.8756C111.559 98.9178 111.453 98.9756 111.374 99.0149C111.257 99.0734 111.272 99.2459 111.398 99.2815C111.516 99.3148 111.676 99.2408 111.775 99.1941C112.055 99.063 112.396 98.7082 112.414 98.7519C112.432 98.7949 112.085 99.5548 112.051 99.6444C112.017 99.734 111.619 100.619 111.598 100.816C111.577 101.013 111.696 101.059 111.785 100.986C111.861 100.924 112.502 99.7429 112.502 99.7429C112.502 99.7429 112.584 99.5926 112.616 99.6785C112.648 99.7644 112.068 100.839 112.012 101.015C111.955 101.192 112 101.336 112.163 101.275C112.362 101.2 112.91 100.015 112.91 100.015C112.91 100.015 112.981 99.8673 113.03 99.9184C113.079 99.9695 112.57 100.875 112.565 100.98C112.559 101.084 112.654 101.187 112.791 101.1C112.952 100.997 113.433 99.9355 113.433 99.9355C113.433 99.9355 113.492 99.8651 113.511 99.9147C113.529 99.9644 113.151 100.767 113.179 100.884C113.203 100.983 113.292 100.963 113.292 100.963C113.49 100.962 113.749 100.13 113.984 99.7881Z" fill="#EFEFEF"/>
<path d="M123.183 92.3327C123.183 92.3327 122.372 92.075 121.851 91.8372C121.503 91.678 119.983 90.9225 119.983 90.9225C119.983 90.9225 120.639 88.1614 121.081 87.1682C122.707 83.5243 124.554 86.0373 124.804 86.6231C125.365 87.9333 123.183 92.3327 123.183 92.3327Z" fill="#E0E0E0"/>
<path d="M66.535 82.7923L67.3068 82.2156C67.3068 82.2156 67.5106 82.5277 67.1785 82.7909C66.7745 83.1126 66.535 82.7923 66.535 82.7923Z" fill="#EFEFEF"/>
<path d="M44.9121 23.4287C44.8936 23.382 44.8528 23.3813 44.8113 23.3798C44.4065 23.3672 44.0017 23.3494 43.5999 23.2894C43.5332 23.2798 43.4672 23.2643 43.4057 23.2398C43.2938 23.1954 43.184 23.1961 43.0706 23.2272C43.0098 23.2443 42.9476 23.2472 42.8845 23.2472C42.6807 23.2465 42.1002 23.0487 41.8014 22.9969C41.7332 22.985 41.6791 22.9332 41.6621 22.8665C41.3685 21.7067 40.7391 19.1041 40.6575 18.2487C40.553 17.1547 39.7968 12.2206 39.7968 12.2206L37.7729 12.7842C37.7729 12.7842 38.6062 16.4259 38.836 18.1916C39.014 19.5551 40.378 22.4488 40.8058 23.2806C41.0149 23.8997 41.4834 23.9168 41.5924 23.9301C41.6546 23.9375 41.7117 23.9686 41.7525 24.016C41.8266 24.1019 41.9112 24.1767 42.0075 24.2382C42.0794 24.2834 42.1343 24.3426 42.1817 24.4115C42.2677 24.5367 42.3448 24.6678 42.4205 24.7996C42.4709 24.887 42.5235 24.9144 42.5984 24.8937C42.6784 24.8715 42.717 24.8122 42.7155 24.7144C42.7133 24.57 42.6673 24.4397 42.5947 24.316C42.5265 24.2004 42.5317 24.1338 42.611 24.0271C42.6562 23.9664 42.7037 23.9071 42.763 23.8583C42.8238 23.8086 42.8875 23.7716 42.9698 23.7827C43.1151 23.819 43.2619 23.8486 43.4109 23.8649L43.5332 23.8901C43.5377 23.8908 43.5999 23.9042 43.5999 23.9042C43.6103 23.9071 43.8253 23.9301 43.8994 23.9308C43.9587 23.9308 44.0544 23.9345 44.1359 23.939C44.2101 23.9427 44.3658 23.9042 44.3709 23.9042C44.4429 23.9027 44.5066 23.8768 44.56 23.8286C44.5822 23.8086 44.603 23.7872 44.5919 23.7531C44.5815 23.722 44.5578 23.7094 44.5259 23.7035C44.477 23.6946 44.2256 23.6642 44.2286 23.6538C44.3035 23.6538 44.537 23.6487 44.6119 23.6464C44.7127 23.6435 44.7994 23.6079 44.8691 23.5331C44.8988 23.5042 44.9299 23.4753 44.9121 23.4287Z" fill="white"/>
<path d="M38.5714 9.64247C39.57 9.46101 40.3943 13.9256 40.3943 13.9256C40.3943 13.9256 38.1748 14.5448 37.6061 14.2196C37.6061 14.2196 36.9604 11.3615 36.7291 11.4615L38.5714 9.64247Z" fill="#E0E0E0"/>
<path d="M14.4193 89.8946C14.4853 89.705 13.5645 89.5524 13.5149 89.3613C13.4659 89.1702 14.678 89.1547 14.721 88.9865C14.8011 88.6769 13.3925 88.9214 13.42 88.7762C13.4474 88.631 14.8878 88.3074 14.7322 88.0593C14.5765 87.8104 13.2739 88.5503 13.2346 88.3822C13.1953 88.2133 14.5075 87.803 14.4845 87.4334C14.4719 87.2357 12.3302 88.4192 12.0818 88.3118C11.8335 88.2044 12.3487 87.2757 12.1515 87.1372C11.9543 86.9987 11.3865 89.0251 11.2493 89.0932C11.1136 89.1606 8.21942 90.8107 7.18969 91.0729C7.0644 90.7285 6.79455 90.2634 6.68409 89.9375C6.10658 90.3486 5.67734 90.5545 5.0813 90.9285C5.5135 92.0098 6.12808 93.1941 6.42907 93.3296C7.34537 93.7429 10.889 90.807 11.597 90.3041C12.305 89.8012 12.7105 89.9642 13.1887 89.8057C13.6676 89.6472 14.3533 90.0842 14.4193 89.8946Z" fill="#EFEFEF"/>
<path d="M4.95807 91.4484C4.95807 91.4484 4.16483 87.9489 4.30272 86.9335C4.44061 85.918 5.64827 84.9722 6.48525 85.3233C7.32223 85.6744 7.7018 90.5604 7.7018 90.5604L4.95807 91.4484Z" fill="#E0E0E0"/>
</g>
<defs>
<clipPath id="clip0">
<rect width="134" height="125.983" fill="white"/>
</clipPath>
</defs>
</svg>
