<svg width="132" height="110" viewBox="0 0 132 110" fill="none" xmlns="http://www.w3.org/2000/svg">
<g clip-path="url(#clip0)">
<path opacity="0.17" d="M102.3 2.15015L102.239 2.07739H96.6401H22.1753L22.3567 2.27309H21.6209C16.964 2.27309 13.1916 6.03141 13.1916 10.6653V95.5187H6.12317L6.06269 95.5914C2.58767 99.7437 2.58767 105.775 6.06269 109.927L6.12317 110C6.12317 110 8.80692 110 13.1916 110H86.1898H86.2956C91.3633 110 95.4733 105.908 95.4733 100.863V16.7519C95.4733 16.7519 95.4708 16.6817 95.4708 16.5562H102.239L102.3 16.4835C105.777 12.3338 105.777 6.30237 102.3 2.15015Z" fill="#BDBDBD"/>
<path d="M19.552 14.4813H99.6186L99.6791 14.4086C103.154 10.2564 103.154 4.22498 99.6791 0.072758L99.6186 0H94.0193H19.552L19.9476 0.424003C23.6621 4.40562 23.5184 10.6076 19.6226 14.4111L19.552 14.4813Z" fill="#EFF3F5"/>
<path d="M83.6723 107.923H10.5684V8.58788C10.5684 3.95144 14.3433 0.195625 18.9976 0.195625H90.5191C90.5191 0.195625 97.9403 -0.243432 97.7917 0.195625C92.5829 0.29598 92.85 14.677 92.85 14.677V98.7852C92.85 103.833 88.7425 107.923 83.6723 107.923Z" fill="#FEFEFE"/>
<path d="M83.5665 107.923C80.3057 107.923 3.49988 107.923 3.49988 107.923L3.4394 107.85C-0.0356256 103.698 -0.0356256 97.6663 3.4394 93.514L3.49988 93.4413H83.5665L83.1709 93.8653C79.4564 97.8469 78.8239 104.638 83.5665 107.923C83.5665 107.923 86.8273 107.923 83.5665 107.923Z" fill="#EFF3F5"/>
<path d="M78.0932 16.2601H28.3542V20.4274H78.0932V16.2601Z" fill="#828282"/>
<path d="M85.0155 87.0687H62.7769V88.426H85.0155V87.0687Z" fill="#828282"/>
<path d="M85.018 28.2551H21.4344V29.9486H85.018V28.2551Z" fill="#EFF3F5"/>
<path d="M85.018 36.5646H21.4344V38.2581H85.018V36.5646Z" fill="#EFF3F5"/>
<path d="M85.018 44.8766H21.4344V46.5701H85.018V44.8766Z" fill="#EFF3F5"/>
<path d="M85.018 53.186H21.4344V54.8795H85.018V53.186Z" fill="#EFF3F5"/>
<path d="M85.018 61.4955H21.4344V63.189H85.018V61.4955Z" fill="#EFF3F5"/>
<path d="M85.018 78.1169H21.4344V79.8104H85.018V78.1169Z" fill="#EFF3F5"/>
<path d="M85.018 69.8075H21.4344V71.501H85.018V69.8075Z" fill="#EFF3F5"/>
<path opacity="0.28" d="M131.738 22.5474L131.005 22.0983L130.808 21.9779L130.455 21.7621L131.597 19.9156C131.667 19.8002 131.632 19.6471 131.516 19.5769L125.237 15.7333C125.121 15.663 124.967 15.6981 124.896 15.8135L123.755 17.6601L123.334 17.4042C123.241 17.3465 123.117 17.3766 123.059 17.4694L122.57 18.2622C122.512 18.3551 122.543 18.478 122.636 18.5357L123.057 18.7916L113.216 34.7331C113.146 34.8485 113.181 35.0016 113.297 35.0718L113.871 35.4231L92.404 70.2014L91.9579 69.9279C91.7967 69.8301 91.5875 69.8802 91.4867 70.0408L91.4842 70.0458C91.3859 70.2064 91.4363 70.4146 91.5976 70.515L92.094 70.8186L91.9806 71.072L91.4539 70.7508C91.2927 70.653 91.0835 70.7032 90.9827 70.8637L90.9802 70.8687C90.8819 71.0293 90.9323 71.2375 91.0936 71.3379L91.6959 71.7067L89.7001 76.1449L87.5001 81.0373L86.2906 81.795L85.1893 86.4515L85.7966 86.8228L89.5741 83.7394L89.7757 82.4297L93.3641 78.3879L93.3691 78.3804L96.6199 74.7199L97.1566 75.0486C97.3179 75.1464 97.527 75.0962 97.6253 74.9357L97.6278 74.9306C97.7261 74.7701 97.6757 74.5618 97.5144 74.4615L97.081 74.1955L97.2675 73.9873L97.6606 74.2281C97.8219 74.326 98.031 74.2758 98.1293 74.1152L98.1318 74.1102C98.2301 73.9497 98.1797 73.7414 98.0184 73.6411L97.6908 73.4404L118.168 40.2652L119.158 38.6621L119.574 38.918C119.69 38.9882 119.844 38.9531 119.914 38.8377L129.755 22.8962L129.939 23.0091C130.032 23.0668 130.062 23.1872 130.004 23.2825L123.538 33.7597C123.48 33.8525 123.51 33.9754 123.604 34.0331L124.362 34.4973C124.455 34.555 124.579 34.5249 124.637 34.4321L131.801 22.8259C131.861 22.7281 131.831 22.6051 131.738 22.5474Z" fill="#BDBDBD"/>
<path d="M91.6178 77.4495L87.9286 75.2492L90.4435 69.4863L114.386 29.7253L119.713 32.9041L95.7883 72.6375L91.6178 77.4495Z" fill="#BDBDBD"/>
<path d="M117.394 37.6986L111.072 33.9252C110.956 33.855 110.916 33.7045 110.986 33.5865L122.455 14.539C122.525 14.4236 122.676 14.3835 122.795 14.4537L129.117 18.2271C129.233 18.2973 129.274 18.4479 129.203 18.5658L117.735 37.6133C117.664 37.7287 117.513 37.7689 117.394 37.6986Z" fill="#BDBDBD"/>
<path d="M128.636 20.756L128.439 20.638L120.915 16.1471C120.821 16.0919 120.698 16.122 120.643 16.2149L120.161 17.0127C120.106 17.1055 120.136 17.2284 120.229 17.2836L127.585 21.6742C127.678 21.7294 127.711 21.8523 127.653 21.9452L121.303 32.4926C121.247 32.5854 121.278 32.7083 121.371 32.7635L122.134 33.2201C122.228 33.2753 122.351 33.2452 122.407 33.1524L129.442 21.4685C129.498 21.3756 129.467 21.2527 129.374 21.1975L128.636 20.756Z" fill="#BDBDBD"/>
<path d="M88.0722 81.5315L85.7841 80.1642L90.446 69.4863L95.7706 72.6651L88.0722 81.5315Z" fill="#BDBDBD"/>
<path d="M88.0721 81.5315L85.784 80.1642L84.582 80.9369L83.5337 85.6035L84.1435 85.9673L87.8882 82.8437L88.0721 81.5315Z" fill="#EFF3F5"/>
<path d="M95.869 73.2446L89.7656 69.6017C89.6043 69.5038 89.5514 69.2956 89.6472 69.135L89.6497 69.13C89.7455 68.9694 89.9571 68.9168 90.1184 69.0121L96.2218 72.655C96.383 72.7529 96.436 72.9611 96.3402 73.1217L96.3377 73.1267C96.2419 73.2898 96.0328 73.3399 95.869 73.2446Z" fill="#BDBDBD"/>
<path d="M95.3725 74.07L89.2692 70.4271C89.1079 70.3293 89.055 70.121 89.1507 69.9605L89.1532 69.9554C89.2515 69.7949 89.4607 69.7422 89.622 69.8375L95.7253 73.4804C95.8866 73.5783 95.9395 73.7865 95.8437 73.9471L95.8412 73.9521C95.7455 74.1127 95.5338 74.1654 95.3725 74.07Z" fill="#BDBDBD"/>
<path d="M86.026 83.2049C85.8849 83.4408 85.5749 83.5186 85.338 83.3755C85.1012 83.235 85.023 82.9264 85.1667 82.6906C85.3078 82.4548 85.6178 82.377 85.8546 82.52C86.0915 82.663 86.1671 82.9691 86.026 83.2049Z" fill="#BDBDBD"/>
<path d="M85.3725 83.0938L83.7748 85.7471L83.9823 85.8709L85.5799 83.2177L85.3725 83.0938Z" fill="#BDBDBD"/>
<path opacity="0.28" d="M111.649 34.2689L116.976 37.4477L114.03 42.34L111.649 34.2689Z" fill="#BDBDBD"/>
<path d="M35.3723 16.2601H28.3542V20.4274H35.3723V16.2601Z" fill="#4F4F4F"/>
</g>
<defs>
<clipPath id="clip0">
<rect width="131" height="110" fill="white" transform="translate(0.83374)"/>
</clipPath>
</defs>
</svg>
