<svg width="24" height="24" fill="none" xmlns="http://www.w3.org/2000/svg"><path d="M11.977.094c2 0 3.632.023 4.898.07 1.078.047 2.04.234 2.883.563a5.981 5.981 0 0 1 2.11 1.359 5.981 5.981 0 0 1 1.359 2.11c.328.843.515 1.804.562 2.882.047 1.266.07 2.899.07 4.899s-.023 3.632-.07 4.898c-.047 1.078-.234 2.04-.562 2.883a5.982 5.982 0 0 1-1.36 2.11 5.982 5.982 0 0 1-2.11 1.359c-.843.328-1.804.515-2.882.562-1.266.047-2.898.07-4.898.07-2 0-3.633-.023-4.899-.07-1.078-.047-2.039-.234-2.883-.562a5.981 5.981 0 0 1-2.11-1.36 5.981 5.981 0 0 1-1.358-2.11c-.329-.843-.516-1.804-.563-2.882-.047-1.266-.07-2.898-.07-4.898 0-2 .023-3.633.07-4.899C.211 6 .398 5.04.727 4.195a5.98 5.98 0 0 1 1.359-2.11A5.98 5.98 0 0 1 4.196.728C5.038.398 6 .21 7.077.164a137.46 137.46 0 0 1 4.899-.07zm0 1.547c-2.079 0-3.774.023-5.086.07a7.524 7.524 0 0 0-2.344.445c-1.125.469-1.922 1.266-2.39 2.39a7.524 7.524 0 0 0-.446 2.345 147.95 147.95 0 0 0-.07 5.086c0 2.078.023 3.773.07 5.085.031.844.18 1.625.445 2.344.469 1.125 1.266 1.922 2.39 2.39.72.267 1.5.415 2.345.446 1.312.047 3.007.07 5.086.07 2.078 0 3.773-.023 5.085-.07a7.526 7.526 0 0 0 2.344-.445c1.125-.469 1.922-1.266 2.39-2.39.267-.72.415-1.5.446-2.345.047-1.312.07-3.007.07-5.085 0-2.079-.023-3.774-.07-5.086a7.526 7.526 0 0 0-.445-2.344c-.469-1.125-1.266-1.922-2.39-2.39a7.524 7.524 0 0 0-2.345-.446c-1.312-.047-3.007-.07-5.085-.07zm0 15.093c1.312 0 2.433-.465 3.363-1.394.93-.93 1.394-2.05 1.394-3.363 0-1.313-.465-2.434-1.394-3.364-.93-.93-2.05-1.394-3.363-1.394-1.313 0-2.434.465-3.364 1.394-.93.93-1.394 2.051-1.394 3.364 0 1.312.465 2.433 1.394 3.363.93.93 2.051 1.394 3.364 1.394zm0-10.851c1.687 0 3.125.594 4.312 1.781 1.188 1.188 1.781 2.625 1.781 4.313 0 1.687-.593 3.125-1.78 4.312-1.188 1.188-2.626 1.781-4.313 1.781-1.688 0-3.125-.593-4.313-1.78-1.187-1.188-1.781-2.626-1.781-4.313 0-1.688.594-3.125 1.781-4.313 1.188-1.187 2.625-1.781 4.313-1.781zm7.78-.235c0 .391-.14.723-.421.997-.281.273-.625.41-1.031.41-.39 0-.723-.137-.996-.41a1.356 1.356 0 0 1-.41-.997c0-.406.136-.75.41-1.03.273-.282.605-.423.996-.423.39 0 .73.145 1.02.434a1.4 1.4 0 0 1 .433 1.02z" fill="#fff"/></svg>