<svg xmlns="http://www.w3.org/2000/svg" width="48" height="43" viewBox="0 0 48 43"><g><g><path fill="#12c2e9" d="M30.915 42.49H.252v-2.858c.557.443 1.27.712 2.037.712h26.509zM15.982 1.81a6.892 6.892 0 0 0-2.526 1.614 6.884 6.884 0 0 0-1.614 2.525 2.98 2.98 0 1 1 4.14-4.139zm-2.989 4.607a5.699 5.699 0 0 1 3.457-3.457 5.679 5.679 0 0 1 7.576 5.354 5.679 5.679 0 1 1-11.033-1.898zm-2.535 8.352c.398-.274.911-.393 1.38-.433 1.424-.125 2.963.19 4.348.558.09.02.18.045.264.07.08.02.16.044.234.07.319.104.623.248.857.472l5.549 5.265c.229.214.498.383.792.498l6.296 2.406a2.047 2.047 0 0 1 1.185 2.644 2.043 2.043 0 0 1-2.645 1.186l-7.123-2.72a2.061 2.061 0 0 1-.677-.428l-2.605-2.47c.005.025.015.044.02.064.692 2.426-2.217 3.287-3.148 5.026a15.393 15.393 0 0 0-.732 1.554H4.56c.797-1.898 3.696-9.434 5.026-12.382.224-.493.414-1.051.872-1.38zM.252 37.061v-5.249c0-1.126.911-2.037 2.037-2.037 0 0 22.395-.015 24.009-.015.936 0 1.245.22 1.768.752l6.744 6.843h9.922c1.41 0 2.586 1.116 2.61 2.525a2.573 2.573 0 0 1-2.57 2.61H33.734a2.56 2.56 0 0 1-1.828-.767l-2.59-2.625H2.289a2.036 2.036 0 0 1-2.037-2.037zm37.492-1.464a5.895 5.895 0 0 1-5.893-5.892 5.894 5.894 0 0 1 5.893-5.892 5.891 5.891 0 1 1 0 11.784z"/></g></g></svg>