<svg width="333" height="400" fill="none" xmlns="http://www.w3.org/2000/svg"><path d="M167.621 399.674a3.579 3.579 0 01-2.273 0c-60.093-20.433-97.754-66.208-129.851-112.675C3.196 240.244.89 196.68.274 164.871c-.617-31.877 0-127.538 0-127.538l61.337-13.432v21.982l66.835-15.003V9.07L165.729 0l38.315 8.546v21.809l66.835 15.747V23.855l61.816 13.478s.615 95.661 0 127.538c-.619 31.809-2.923 75.373-35.221 122.128-32.1 46.467-69.76 92.242-129.853 112.675z" stroke-width="10" stroke="#fff" fill="#6672FB"/><path d="M37.52 198.532s19.65 114.716 127.79 165.974V198.532H37.52zm127.79-144.66v144.661h126.497s6.88-28.954 6.88-63.119v-50.87L165.31 53.873z" fill="#fff"/></svg>