<svg width="104" height="34" fill="none" xmlns="http://www.w3.org/2000/svg"><g clip-path="url(#a)"><path d="M2.308.31c.016-.173.076-.31.164-.31.093 0 .153.057.231.233l4.642 9.816L11.811.251c.063-.142.123-.251.226-.251.114 0 .159.127.184.421l1.016 9.577c.068.566.168 1.441.82 1.656.44.142.794.142.943.142.078 0 .163.015.163.095 0 .09-.04.122-.226.122-.33 0-2.067-.047-2.625-.093-.35-.029-.425-.08-.425-.155 0-.065.03-.08.108-.111.103-.042.093-.28.06-.563l-.73-8.14-3.766 8.204c-.317.687-.365.827-.498.827-.113 0-.186-.155-.478-.716-.39-.764-1.697-3.464-1.775-3.622-.133-.279-1.886-4.133-2.052-4.552l-.616 7.345c-.015.25-.03.462-.03.734 0 .392.186.516.41.563.256.064.455.064.548.064.093 0 .148.029.148.075 0 .111-.073.142-.226.142-.563 0-1.338-.046-1.456-.046-.138 0-.868.046-1.278.046C.103 12.013 0 12 0 11.891c0-.064.073-.095.148-.095.124 0 .227 0 .458-.047.503-.095.528-.659.606-1.297L2.308.31z" fill="#fff"/><path d="M18.739 7.414c-.078 0-.123.044-.154.122l-.907 2.759c-.139.393-.216.77-.216 1.049 0 .31.286.452.548.452h.133c.153 0 .199.028.199.095 0 .09-.139.122-.272.122-.37 0-.976-.047-1.14-.047-.168 0-1.005.047-1.717.047-.198 0-.286-.031-.286-.122 0-.064.073-.095.211-.095.108 0 .246-.016.365-.031.696-.096 1.006-.69 1.277-1.47L20.228.607c.183-.514.241-.607.337-.607.088 0 .148.08.329.56.226.59 2.61 7.043 3.538 9.412.548 1.387.99 1.64 1.308 1.73.226.08.472.096.59.096.094 0 .17.016.17.096 0 .09-.134.121-.303.121-.231 0-1.337 0-2.383-.03-.287-.016-.453-.016-.453-.112 0-.057.04-.09.108-.106.088-.03.178-.173.088-.42l-1.416-3.842c-.025-.057-.06-.09-.128-.09h-3.274zm3.068-.565c.078 0 .078-.047.06-.112l-1.44-4.21c-.079-.233-.154-.233-.232 0L18.862 6.74c-.03.08 0 .111.04.111h2.905V6.85zm18.955.638c0 1.5 0 2.736.078 3.386.04.453.139.796.591.858.222.031.548.065.687.065.093 0 .123.044.123.095 0 .075-.078.122-.246.122-.83 0-1.79-.047-1.866-.047-.078 0-1.031.047-1.494.047-.163 0-.241-.031-.241-.122 0-.049.03-.095.123-.095.138 0 .317-.031.455-.065.302-.062.38-.405.44-.857.078-.654.078-1.886.078-3.387V.889c-.75.015-1.509.015-2.25.033-.939.01-1.308.122-1.545.499a2.627 2.627 0 0 0-.261.483c-.045.124-.093.158-.154.158-.045 0-.072-.05-.072-.143 0-.155.296-1.495.334-1.625.025-.09.093-.291.153-.291.103 0 .252.152.667.186.44.043 1.016.08 1.2.08h5.692c.488 0 .83-.034 1.077-.08.23-.034.37-.08.425-.08.078 0 .078.095.078.183 0 .473-.046 1.547-.046 1.718 0 .145-.045.207-.108.207-.073 0-.108-.05-.118-.264 0-.065-.015-.114-.015-.173-.05-.468-.41-.827-1.866-.855C42.04.907 41.404.907 40.762.89v6.596zm7.262-2.741c0-2.436 0-2.87-.035-3.374-.025-.527-.148-.78-.646-.889-.108-.03-.307-.03-.44-.046-.108-.013-.199-.029-.199-.093 0-.096.078-.127.246-.127.35 0 .76 0 1.713.047.108 0 3.133 0 3.478-.016.34-.015.61-.044.701-.096.088-.043.119-.059.164-.059.045 0 .06.06.06.14 0 .11-.088.297-.123.733-.015.235-.03.527-.06.935-.016.158-.056.264-.124.264-.093 0-.118-.075-.118-.202 0-.201-.03-.39-.078-.516-.103-.36-.425-.517-1.091-.576-.257-.029-1.909-.044-2.082-.044-.056 0-.088.044-.088.155v4.304c0 .113.01.157.088.157.2 0 2.067 0 2.416-.028.415-.036.611-.08.76-.269.078-.09.123-.152.183-.152.045 0 .078.028.078.121 0 .096-.078.36-.123.876-.045.486-.045.842-.06 1.064-.015.153-.046.23-.108.23-.093 0-.109-.124-.109-.248 0-.14-.01-.297-.055-.436-.063-.236-.241-.453-.79-.517-.41-.044-1.913-.078-2.17-.078-.078 0-.108.047-.108.111v1.37c0 .532-.015 2.343 0 2.67.03.636.118.98.498 1.138.262.108.672.142 1.263.142.462 0 .958-.016 1.365-.142.488-.158.656-.486.78-1.155.03-.17.062-.235.133-.235.093 0 .093.124.093.235 0 .124-.118 1.186-.196 1.511-.108.406-.232.406-.82.406-1.124 0-1.625-.031-2.22-.047-.607-.013-1.303-.046-1.9-.046-.364 0-.733.062-1.123.046-.164 0-.242-.03-.242-.121 0-.05.078-.08.169-.096.148-.015.241-.015.35-.049.311-.077.512-.292.538-1.467.015-.607.035-1.403.035-2.793V4.746h-.003zm8.93 0c0-2.436 0-2.87-.03-3.374-.026-.53-.149-.78-.652-.889a2.788 2.788 0 0 0-.513-.046c-.063 0-.128-.029-.128-.093 0-.093.078-.127.246-.127.682 0 1.642.05 1.713.05.168 0 1.327-.05 1.795-.05.958 0 1.974.096 2.779.687.38.282 1.046 1.049 1.046 2.121 0 1.16-.473 2.312-1.836 3.604 1.242 1.638 2.276 3.028 3.159 3.999.82.891 1.47 1.06 1.85 1.121.292.047.503.047.591.047.078 0 .139.044.139.095 0 .09-.088.122-.36.122h-1.081c-.853 0-1.232-.08-1.627-.295-.651-.359-1.185-1.121-2.047-2.291-.641-.858-1.353-1.907-1.657-2.31-.063-.06-.108-.095-.201-.095l-1.866-.029c-.078 0-.108.044-.108.124v.372c0 1.501 0 2.736.075 3.387.045.452.138.796.591.858.216.03.548.064.687.064.093 0 .118.044.118.096 0 .075-.078.121-.242.121-.83 0-1.795-.046-1.87-.046-.01 0-.969.046-1.421.046-.169 0-.247-.03-.247-.121 0-.05.03-.096.118-.096.144 0 .322-.03.456-.064.301-.062.384-.406.44-.858.078-.653.078-1.886.078-3.387V4.746h.005zm1.214 1.356c0 .075.03.14.108.189.232.136.923.242 1.594.242.365 0 .785-.041 1.14-.292.533-.372.928-1.216.928-2.4 0-1.955-1.006-3.125-2.63-3.125-.45 0-.868.049-1.017.1-.078.026-.123.09-.123.184v5.102zm9.601 5.712c-.216-.111-.231-.173-.231-.592 0-.782.068-1.408.078-1.656.015-.17.05-.248.123-.248.093 0 .108.047.108.168 0 .142 0 .36.04.582.231 1.154 1.237 1.588 2.25 1.588 1.457 0 2.17-1.075 2.17-2.077 0-1.075-.44-1.702-1.742-2.808l-.681-.579c-1.61-1.353-1.98-2.32-1.98-3.384 0-1.669 1.22-2.805 3.144-2.805.596 0 1.036.056 1.416.152.286.062.41.08.528.08.128 0 .153.034.153.111 0 .08-.063.59-.063 1.654 0 .248-.025.359-.103.359-.093 0-.108-.08-.123-.2-.015-.19-.108-.612-.201-.785-.093-.168-.498-.824-1.899-.824-1.046 0-1.865.672-1.865 1.811 0 .889.394 1.45 1.855 2.62l.425.349c1.79 1.449 2.216 2.415 2.216 3.668 0 .638-.247 1.824-1.293 2.586-.651.47-1.47.654-2.293.654-.712-.008-1.41-.114-2.032-.424zm10.069-4.885c0 2.25.488 3.213 1.144 3.854.74.713 1.426.855 2.293.855.928 0 1.836-.452 2.384-1.124.697-.888.878-2.211.878-3.823V4.743c0-2.436 0-2.87-.025-3.374-.03-.527-.153-.78-.656-.888a2.75 2.75 0 0 0-.513-.047c-.068 0-.124-.028-.124-.093 0-.096.078-.127.242-.127.681 0 1.519.05 1.61.05.107 0 .819-.05 1.276-.05.164 0 .242.031.242.127 0 .062-.06.093-.118.093-.108 0-.201.016-.385.047-.405.093-.528.346-.553.888-.035.504-.035.938-.035 3.374v1.669c0 1.687-.184 3.56-1.396 4.663-1.096 1.002-2.236 1.155-3.133 1.155-.513 0-2.047-.057-3.128-1.103-.74-.737-1.318-1.83-1.318-4.105V4.746c0-2.436 0-2.87-.03-3.374-.03-.527-.149-.78-.657-.889a2.749 2.749 0 0 0-.513-.046c-.06 0-.123-.029-.123-.093 0-.096.078-.127.242-.127.686 0 1.617.05 1.747.05.134 0 1.051-.05 1.504-.05.169 0 .246.031.246.127 0 .062-.062.093-.123.093-.108 0-.193.015-.38.046-.41.065-.533.346-.558.889-.035.504-.035.938-.035 3.374v2.183h-.005zm12.166-2.183c0-2.436 0-2.87-.025-3.374-.03-.527-.184-.796-.518-.868a1.836 1.836 0 0 0-.473-.065c-.063 0-.118-.028-.118-.093 0-.095.078-.126.241-.126.503 0 1.456.046 1.534.046.078 0 1.03-.046 1.486-.046.163 0 .242.03.242.126 0 .062-.056.093-.119.093-.108 0-.2.016-.38.047-.41.08-.532.346-.563.888-.03.499-.03.933-.03 3.372v2.743c0 1.501 0 2.736.078 3.387.045.452.138.796.591.858.216.03.533.064.626.064.139 0 .184.044.184.096 0 .075-.06.121-.232.121-.835 0-1.805-.046-1.883-.046-.078 0-1.031.046-1.486.046-.169 0-.247-.03-.247-.121 0-.05.036-.096.164-.096.098 0 .266-.015.4-.049.301-.06.395-.418.457-.87.073-.654.073-1.886.073-3.387V4.746h-.002zm9.922 2.741c0 1.5 0 2.736.073 3.386.045.453.138.796.596.858.211.031.543.065.682.065.093 0 .118.044.118.095 0 .075-.073.122-.237.122-.84 0-1.795-.047-1.865-.047-.078 0-1.037.047-1.494.047-.169 0-.247-.031-.247-.122 0-.049.036-.095.124-.095.138 0 .322-.031.455-.065.302-.062.38-.405.44-.857.078-.654.078-1.886.078-3.387V.889c-.75.015-1.504.015-2.25.033-.939.01-1.308.122-1.55.499a2.823 2.823 0 0 0-.256.483c-.046.124-.093.158-.154.158-.04 0-.078-.05-.078-.143 0-.155.302-1.495.34-1.625.03-.09.093-.291.148-.291.108 0 .257.152.666.186.44.043 1.022.08 1.205.08h5.693c.488 0 .835-.034 1.081-.08.227-.034.36-.08.425-.08.078 0 .078.095.078.183 0 .473-.05 1.547-.05 1.718 0 .145-.045.207-.108.207-.073 0-.103-.05-.118-.264 0-.065-.015-.114-.015-.173-.046-.468-.41-.827-1.871-.855-.636-.018-1.273-.018-1.909-.034v6.596z" fill="#fff"/><path d="M75 6.399c-.096.204-.184.4-.39.53-.313.196-.65.134-.893-.083-.053-.047-.08-.052-.159-.034-.52.127-.925.452-1.323.786-.422.354-.794.762-1.166 1.17-.355.39-.684.806-1.016 1.22-.392.485-.77.984-1.147 1.482-.375.499-.74 1.005-1.114 1.506-.214.29-.435.571-.651.858-.078.103-.133.093-.219.003a.798.798 0 0 1-.093-.98c.596-.945 1.265-1.836 1.899-2.753a43.23 43.23 0 0 1 1.488-2.015c.31-.398.629-.788.96-1.166.23-.26.471-.508.715-.754.43-.431.905-.8 1.481-1.015.045-.018.11.008.141-.052h.601c.448.178.724.522.885.974V6.4z" fill="#A69479"/><path d="M45.027 29.877c-.334.524-.676 1.038-1.094 1.496-.17.188-.37.364-.618.454-.199.073-.352.005-.498-.131-.302-.282-.463-.644-.523-1.05-.068-.454-.038-.906.02-1.36.09-.724.286-1.419.513-2.106.342-1.046.797-2.041 1.297-3.015.204-.395.43-.78.664-1.16.083-.134.194-.25.254-.41-.08.007-.105.064-.146.103-.555.542-1.058 1.134-1.554 1.73A60.729 60.729 0 0 0 41.6 26.63c-.513.679-1.031 1.353-1.54 2.038-.565.765-1.133 1.527-1.714 2.281a18.8 18.8 0 0 1-1.798 2.046c-.27.261-.569.49-.893.664-.352.189-.737.173-1.116.023-.569-.227-.886-.687-1.137-1.224a4.328 4.328 0 0 1-.392-1.54 9.642 9.642 0 0 1 .015-1.524c.05-.581.158-1.15.289-1.716a18.13 18.13 0 0 1 .85-2.635c.256-.643.543-1.27.855-1.886.465-.914 1.03-1.764 1.62-2.598.359-.512.756-.99 1.199-1.424.34-.33.716-.607 1.164-.752.73-.235 1.423.08 1.635.98.213.906.082 1.795-.292 2.637-.151.339-.385.63-.727.79-.395.184-.774.104-1.129-.12-.249-.158-.483-.331-.54-.667-.066-.378.22-.765.563-.796.203-.02.397.018.548.176.065.067.08.023.105-.034a2.78 2.78 0 0 0 .182-1.552c-.02-.125-.096-.073-.149-.037-.11.08-.216.168-.32.259-.48.418-.872.917-1.246 1.434-.207.284-.425.56-.601.867-.262.453-.468.936-.68 1.414a19.493 19.493 0 0 0-.683 1.782c-.189.581-.377 1.16-.528 1.754a16.225 16.225 0 0 0-.332 1.592c-.05.336-.114.674-.108 1.02.002.16-.04.318-.03.48.017.336.045.672.138.998a.77.77 0 0 0 .256.395.37.37 0 0 0 .435.054c.325-.155.578-.4.835-.64.3-.282.588-.576.86-.884.438-.49.883-.974 1.298-1.485.256-.318.535-.615.802-.928.312-.367.608-.749.928-1.108.244-.274.472-.558.711-.837.345-.403.682-.811 1.026-1.212.211-.245.428-.485.644-.728a116.66 116.66 0 0 1 1.697-1.883c.413-.447.83-.89 1.263-1.316.646-.638 1.327-1.237 2.077-1.746.266-.18.543-.349.835-.486.535-.25 1.08-.157 1.506.267.181.18.267.418.302.669.103.76-.129 1.47-.332 2.18-.073.258-.068.52-.108.78-.053.33-.096.664-.121 1-.013.155-.035.307-.04.465-.013.483-.048.966-.073 1.45-.02.413 0 .823-.025 1.273.188-.282.35-.532.52-.78.387-.558.74-1.137 1.016-1.762.322-.723.669-1.436 1.008-2.15a56.79 56.79 0 0 1 1.469-2.877c.337-.608.679-1.212 1.056-1.793.382-.59.772-1.178 1.215-1.726.342-.426.691-.847 1.058-1.25.576-.633 1.2-1.207 1.859-1.747.427-.348.865-.684 1.327-.981a25.93 25.93 0 0 1 2.392-1.372c.271-.137.545-.21.84-.261.294-.052.553-.212.787-.406a.32.32 0 0 1 .279-.072c.294.057.546.33.568.64a.746.746 0 0 1-.453.698 35.91 35.91 0 0 0-1.722.793c-.855.421-1.67.907-2.434 1.48a17.617 17.617 0 0 0-2.628 2.385c-.659.736-1.285 1.503-1.808 2.35-.526.848-1.046 1.7-1.496 2.597-.09.181-.189.357-.29.545.365-.064.722-.126 1.074-.19.486-.091.971-.192 1.459-.277.11-.018.146-.075.17-.17.235-.861.496-1.714.826-2.543a20.49 20.49 0 0 1 .741-1.707c.325-.646.712-1.25 1.157-1.82a5.634 5.634 0 0 1 1.916-1.588c.23-.114.463-.238.727-.238.294 0 .589.259.641.564.048.273-.143.638-.407.723-.933.3-1.59.956-2.127 1.751-.486.719-.87 1.499-1.207 2.305-.237.568-.435 1.152-.647 1.73-.06.163-.088.34-.125.51-.015.07.005.077.075.056.55-.162 1.101-.333 1.66-.477.802-.21 1.586-.481 2.379-.732a.451.451 0 0 0 .256-.196c.166-.253.37-.478.56-.708.184-.222.378-.434.59-.63.306-.284.613-.566.92-.848.226-.209.47-.382.731-.532.342-.196.704-.33 1.092-.403.319-.06.616.003.917.093.415.124.878.812.697 1.36-.15.459-.44.805-.784 1.115-.363.326-.778.571-1.192.811-.174.101-.373.155-.561.228a45.75 45.75 0 0 1-2.155.78c-.191.062-.262.243-.362.385-.39.553-.75 1.129-.986 1.772a4.6 4.6 0 0 0-.247 1.103c-.035.328.005.64.134.933.236.545.654.865 1.227.966.57.1 1.091-.075 1.594-.318a8.475 8.475 0 0 0 1.836-1.235c.395-.338.76-.71 1.136-1.067a17.08 17.08 0 0 0 1.431-1.573c.387-.47.76-.953 1.134-1.431a.62.62 0 0 1 .621-.243.654.654 0 0 1 .561.488c.068.235-.002.419-.14.607-.305.414-.63.809-.944 1.215-.133.173-.274.335-.417.5a29.483 29.483 0 0 1-1.707 1.817c-.599.581-1.225 1.129-1.92 1.589-.678.447-1.382.84-2.182 1.02-.948.212-1.81.07-2.572-.591-.51-.442-.87-.972-1.029-1.64-.115-.481-.105-.965-.035-1.453.108-.723.38-1.384.707-2.028.015-.028.037-.054.02-.106-.232.026-.455.101-.677.173-.686.223-1.38.416-2.077.608a8.68 8.68 0 0 1-.62.155c-.109.02-.16.072-.182.18-.168.742-.347 1.483-.508 2.227-.18.837-.334 1.68-.483 2.522-.13.744-.254 1.49-.364 2.237-.098.664-.201 1.328-.267 2-.045.449-.14.896-.178 1.345-.036.411-.114.817-.134 1.227-.032.708-.636.835-1 .613-.267-.16-.385-.47-.325-.824.043-.246.06-.496.093-.747.05-.408.113-.814.151-1.222.025-.287.06-.573.103-.858.068-.436.1-.878.181-1.312.068-.382.108-.77.166-1.155a63.685 63.685 0 0 1 .57-3.299c.114-.573.237-1.144.36-1.715.061-.28.131-.558.204-.863-.261.054-.513.103-.76.158-.356.077-.71.162-1.065.24-.34.072-.667-.124-.86-.53-.083.166-.166.318-.234.473-.217.504-.476.984-.707 1.48-.337.724-.666 1.452-1.016 2.168-.442.907-.822 1.847-1.38 2.692-.186.281-.4.53-.677.723-.563.398-1.149.018-1.345-.45-.234-.557-.254-1.157-.226-1.754.03-.614.148-1.219.163-1.836.01-.416.048-.835.086-1.25.002-.034.015-.073-.02-.112-.172.212-.295.45-.425.682-.39.69-.745 1.398-1.12 2.095-.568 1.067-1.136 2.147-1.79 3.178zM65.49 17.699c.498-.114.867-.45 1.242-.773-.498.114-.905.388-1.26.752-.013.013-.045.018-.028.039.013.02.036.005.046-.018zm-20.822 8.339c0 .054-.01.111.003.163.028.11.033.25.173.281.116.026.197-.064.267-.142.128-.15.26-.3.372-.462.956-1.354 1.75-2.808 2.512-4.28.189-.368.37-.74.493-1.138.013-.038.05-.085.008-.118-.045-.04-.09 0-.128.025a2.24 2.24 0 0 0-.395.35c-.418.477-.838.955-1.212 1.472-.586.806-1.192 1.594-1.657 2.482-.224.424-.41.871-.436 1.367zm.43-3.506-.02-.013c-.005.008-.007.019-.012.026.007.003.012.008.02.01a.103.103 0 0 0 .012-.023z" fill="#A69479"/><path d="M65.489 17.699c-.01.023-.033.036-.045.018-.018-.023.015-.028.027-.041l.018.023zm-20.391 4.833-.013.024c-.008-.003-.013-.008-.02-.01.005-.008.008-.019.013-.027.007.006.015.008.02.013zM28.159 11.92c-.217-.111-.232-.173-.232-.592 0-.783.068-1.408.078-1.656.015-.17.05-.248.123-.248.093 0 .108.047.108.168 0 .142 0 .36.04.581.232 1.155 1.238 1.59 2.251 1.59 1.456 0 2.17-1.075 2.17-2.078 0-1.075-.44-1.702-1.742-2.808l-.682-.579c-1.609-1.353-1.979-2.32-1.979-3.384 0-1.669 1.22-2.805 3.144-2.805.596 0 1.036.056 1.415.152.287.062.41.08.529.08.128 0 .153.034.153.111 0 .08-.063.59-.063 1.653 0 .248-.025.36-.103.36-.093 0-.108-.08-.123-.2-.015-.19-.108-.612-.202-.785-.092-.168-.497-.824-1.898-.824-1.046 0-1.866.672-1.866 1.811 0 .889.395 1.45 1.856 2.62l.425.348c1.79 1.45 2.215 2.416 2.215 3.669 0 .638-.246 1.824-1.292 2.586-.652.47-1.471.654-2.294.654-.714-.006-1.41-.112-2.031-.424z" fill="#fff"/></g><defs><clipPath id="a"><path fill="#fff" d="M0 0h104v34H0z"/></clipPath></defs></svg>