<svg width="30" height="30" fill="none" xmlns="http://www.w3.org/2000/svg"><g clip-path="url(#clip0)" fill="#fff"><path d="M29.061 14.063H17.186a.938.938 0 010-1.875h11.875a.938.938 0 010 1.875z"/><path d="M24.374 18.75a.938.938 0 01-.663-1.601l4.025-4.025L23.711 9.1a.938.938 0 111.327-1.326l4.687 4.688a.938.938 0 010 1.326l-4.688 4.687a.931.931 0 01-.663.276zM10 30c-.268 0-.522-.038-.775-.116l-7.523-2.506A2.523 2.523 0 010 25V2.501c0-1.379 1.121-2.5 2.5-2.5.267 0 .521.038.775.116l7.522 2.506A2.523 2.523 0 0112.5 5.001V27.5c0 1.379-1.12 2.5-2.5 2.5zM2.5 1.876a.627.627 0 00-.625.625v22.5a.65.65 0 00.434.602l7.487 2.495a.679.679 0 00.204.027.627.627 0 00.625-.625V5a.65.65 0 00-.434-.602L2.704 1.903a.679.679 0 00-.204-.027z"/><path d="M19.062 10a.938.938 0 01-.938-.937V3.438c0-.86-.7-1.562-1.562-1.562H2.5A.938.938 0 012.5 0h14.062a3.44 3.44 0 013.437 3.437v5.625c0 .518-.42.938-.937.938zm-2.499 16.25h-5a.938.938 0 010-1.875h5c.86 0 1.562-.701 1.562-1.562v-5.625a.938.938 0 011.875 0v5.625a3.44 3.44 0 01-3.438 3.437z"/></g><defs><clipPath id="clip0"><path fill="#fff" d="M0 0h30v30H0z"/></clipPath></defs></svg>