<svg width="25" height="14" fill="none" xmlns="http://www.w3.org/2000/svg"><path d="M12.133 0C7.497 0 3.293 2.455.19 6.443a.906.906 0 000 1.11C3.292 11.545 7.497 14 12.133 14c4.637 0 8.841-2.455 11.944-6.443a.906.906 0 000-1.11C20.974 2.455 16.77 0 12.133 0zm.333 11.93c-3.078.187-5.62-2.268-5.426-5.252.16-2.46 2.22-4.454 4.76-4.607 3.078-.188 5.62 2.267 5.426 5.25-.163 2.456-2.223 4.45-4.76 4.608zm-.154-2.278c-1.658.1-3.028-1.22-2.919-2.825.085-1.326 1.196-2.397 2.567-2.484 1.658-.1 3.028 1.22 2.918 2.825-.089 1.331-1.2 2.402-2.566 2.484z" fill="#3F3D56"/></svg>