<svg width="38" height="38" fill="none" xmlns="http://www.w3.org/2000/svg"><path d="M19 19.05C8.986 19.05.84 27.195.84 37.21a.79.79 0 001.58 0c0-9.143 7.437-16.582 16.581-16.582 9.144 0 16.583 7.439 16.583 16.583a.79.79 0 001.579 0c0-10.016-8.148-18.162-18.162-18.162zM19 0c-4.788 0-8.685 3.896-8.685 8.686s3.897 8.686 8.685 8.686c4.789 0 8.686-3.896 8.686-8.686S23.79 0 19 0zm0 15.793c-3.918 0-7.106-3.189-7.106-7.107S15.082 1.579 19 1.579c3.918 0 7.107 3.189 7.107 7.107S22.918 15.793 19 15.793z" fill="#000"/></svg>