<svg width="112" height="150" fill="none" xmlns="http://www.w3.org/2000/svg"><path d="M2.422 130.647A2.418 2.418 0 010 128.228c0-12.009 9.779-21.776 21.8-21.776a2.418 2.418 0 110 4.839c-9.347 0-16.956 7.599-16.956 16.937a2.418 2.418 0 01-2.422 2.419zm106.584.003a2.42 2.42 0 01-2.422-2.42c0-9.538-10.417-16.936-19.38-16.936a2.42 2.42 0 110-4.839c11.436 0 24.225 9.312 24.225 21.775a2.419 2.419 0 01-2.423 2.42z" fill="#6672FB"/><path d="M38.759 111.294l-16.958-.003a2.42 2.42 0 110-4.839l16.958.003a2.42 2.42 0 110 4.839zm48.444 0l-14.533-.006a2.42 2.42 0 110-4.839l14.533.006a2.42 2.42 0 110 4.839zM2.425 147.58a2.42 2.42 0 01-2.423-2.419L0 128.228a2.42 2.42 0 012.422-2.419 2.42 2.42 0 012.422 2.419l.003 16.933a2.42 2.42 0 01-2.422 2.419z" fill="#6672FB"/><path d="M4.844 150A4.846 4.846 0 010 145.161a2.42 2.42 0 012.422-2.419 2.418 2.418 0 012.422 2.419v.006a2.416 2.416 0 110 4.833zm101.739 0a2.419 2.419 0 110-4.839h.005a2.417 2.417 0 012.42-2.419 2.418 2.418 0 012.42 2.419 4.847 4.847 0 01-4.845 4.839z" fill="#6672FB"/><path d="M109.005 147.58a2.418 2.418 0 01-2.422-2.419V128.23a2.418 2.418 0 012.422-2.419 2.418 2.418 0 012.422 2.419v16.931a2.418 2.418 0 01-2.422 2.419z" fill="#6672FB"/><path d="M106.583 150H4.849a2.419 2.419 0 110-4.839h101.734a2.419 2.419 0 110 4.839zm-67.826-38.706a2.42 2.42 0 01-2.422-2.42V97.43a2.419 2.419 0 012.422-2.42 2.418 2.418 0 012.422 2.42v11.444a2.419 2.419 0 01-2.422 2.42zm33.913-.006a2.419 2.419 0 01-2.422-2.419V97.427a2.42 2.42 0 012.422-2.42 2.419 2.419 0 012.422 2.42v11.442a2.418 2.418 0 01-2.422 2.419z" fill="#6672FB"/><path d="M55.716 104.036c-21.368 0-38.755-17.368-38.755-38.712a2.419 2.419 0 012.422-2.42 2.418 2.418 0 012.422 2.42c0 18.678 15.211 33.873 33.911 33.873 18.7 0 33.91-15.195 33.91-33.873a2.419 2.419 0 012.423-2.42 2.418 2.418 0 012.422 2.42c0 21.344-17.386 38.712-38.755 38.712z" fill="#6672FB"/><path d="M19.383 67.743a2.42 2.42 0 01-2.422-2.42v-13.89a2.419 2.419 0 012.422-2.42 2.418 2.418 0 012.422 2.42v13.89a2.419 2.419 0 01-2.422 2.42zm72.661 0a2.42 2.42 0 01-2.422-2.42V51.448a2.42 2.42 0 012.422-2.42 2.419 2.419 0 012.422 2.42v13.877a2.419 2.419 0 01-2.422 2.42zm-46.022 48.384c-.46 0-.927-.132-1.342-.406l-7.267-4.835a2.42 2.42 0 112.69-4.024l7.267 4.834a2.416 2.416 0 01.67 3.355 2.417 2.417 0 01-2.018 1.076z" fill="#6672FB"/><path d="M46.024 116.127a2.422 2.422 0 01-2.348-1.834 2.414 2.414 0 011.764-2.932l9.688-2.417a2.417 2.417 0 012.937 1.762 2.414 2.414 0 01-1.763 2.932l-9.69 2.417a2.487 2.487 0 01-.588.072zm19.383 0a2.419 2.419 0 01-1.347-4.431l7.267-4.834a2.421 2.421 0 112.689 4.024l-7.267 4.835a2.433 2.433 0 01-1.342.406z" fill="#6672FB"/><path d="M65.406 116.127a2.5 2.5 0 01-.59-.072l-9.688-2.417a2.419 2.419 0 01-1.763-2.933 2.415 2.415 0 012.936-1.761l9.69 2.417a2.418 2.418 0 01-.585 4.766z" fill="#6672FB"/><path d="M96.9 104.027H82.36a2.419 2.419 0 110-4.839H96.9a2.419 2.419 0 110 4.839zm-67.826 0h-14.54a2.419 2.419 0 110-4.839h14.54a2.419 2.419 0 110 4.839z" fill="#FF5A4C"/><path d="M55.717 65.348c-34.94 0-38.395-12.63-38.67-14.07a2.417 2.417 0 011.918-2.832 2.418 2.418 0 012.822 1.845c.102.334 3.437 10.22 33.93 10.22 30.87 0 33.98-10.135 34.01-10.24.344-1.257 1.627-2.065 2.902-1.763 1.269.298 2.085 1.508 1.83 2.785-.285 1.437-3.815 14.055-38.742 14.055z" fill="#6672FB"/><path d="M92.085 53.238h-72.66a2.419 2.419 0 110-4.839h72.66a2.419 2.419 0 110 4.84zm0-12.099h-72.66a2.419 2.419 0 110-4.84h72.66a2.419 2.419 0 110 4.84z" fill="#6672FB"/><path d="M19.424 53.238a2.419 2.419 0 01-2.422-2.42V38.72a2.418 2.418 0 012.422-2.42 2.419 2.419 0 012.422 2.42v12.1a2.421 2.421 0 01-2.422 2.42zm72.659 0a2.419 2.419 0 01-2.422-2.42V38.72a2.418 2.418 0 012.422-2.42 2.419 2.419 0 012.423 2.42v12.1a2.421 2.421 0 01-2.423 2.42z" fill="#6672FB"/><path d="M92.08 41.138a2.42 2.42 0 01-2.082-3.659l7.224-12.108a2.42 2.42 0 013.32-.843 2.42 2.42 0 01.843 3.318l-7.223 12.109a2.418 2.418 0 01-2.083 1.183z" fill="#6672FB"/><path d="M99.307 29.03a2.418 2.418 0 01-2.02-1.083l-9.64-14.512a2.415 2.415 0 01.677-3.353 2.419 2.419 0 013.358.677l9.64 14.512a2.413 2.413 0 01-.679 3.353 2.4 2.4 0 01-1.336.405z" fill="#6672FB"/><path d="M89.664 14.517c-.223 0-.445-.032-.665-.092l-33.952-9.68a2.423 2.423 0 01-1.667-2.992C53.748.467 55.102-.262 56.373.09l33.953 9.68a2.423 2.423 0 011.666 2.991 2.425 2.425 0 01-2.328 1.757zM19.381 41.138a2.42 2.42 0 01-2.083-1.181l-7.223-12.11a2.421 2.421 0 114.163-2.475l7.223 12.11a2.42 2.42 0 01-2.08 3.656z" fill="#6672FB"/><path d="M12.16 29.03c-.458 0-.925-.132-1.338-.406a2.415 2.415 0 01-.677-3.353l9.64-14.512a2.417 2.417 0 013.358-.677 2.415 2.415 0 01.677 3.353l-9.64 14.512a2.422 2.422 0 01-2.02 1.082z" fill="#6672FB"/><path d="M21.8 14.517a2.42 2.42 0 01-.661-4.748L55.088.09c1.273-.353 2.625.376 2.993 1.664a2.422 2.422 0 01-1.667 2.992l-33.95 9.68a2.52 2.52 0 01-.665.092z" fill="#6672FB"/><path d="M55.752 31.449c-5.343 0-9.689-4.342-9.689-9.678 0-5.338 4.346-9.678 9.69-9.678 5.343 0 9.688 4.34 9.688 9.678 0 5.336-4.345 9.678-9.689 9.678zm0-14.517a4.846 4.846 0 00-4.844 4.839 4.847 4.847 0 004.844 4.839 4.847 4.847 0 004.845-4.84 4.848 4.848 0 00-4.845-4.838z" fill="#FF5A4C"/><path d="M53.331 123.386a2.41 2.41 0 01-1.708-.705l-7.305-7.258a2.413 2.413 0 01-.01-3.42 2.425 2.425 0 013.425-.011l7.306 7.259c.949.944.954 2.472.01 3.421a2.426 2.426 0 01-1.718.714z" fill="#6672FB"/><path d="M58.176 123.386a2.41 2.41 0 01-1.708-.705 2.413 2.413 0 01-.01-3.42l7.228-7.258a2.425 2.425 0 013.425-.011c.95.944.955 2.473.01 3.422l-7.228 7.258a2.426 2.426 0 01-1.717.714z" fill="#6672FB"/><path d="M58.176 123.386H53.33a2.419 2.419 0 110-4.839h4.845a2.42 2.42 0 110 4.839z" fill="#6672FB"/><path d="M48.49 150a2.424 2.424 0 01-2.388-2.852l4.845-26.614c.236-1.317 1.5-2.175 2.814-1.951a2.421 2.421 0 011.95 2.814l-4.84 26.614a2.422 2.422 0 01-2.38 1.989z" fill="#6672FB"/><path d="M62.972 150a2.42 2.42 0 01-2.381-1.988l-4.803-26.615a2.421 2.421 0 011.954-2.811 2.41 2.41 0 012.815 1.952l4.803 26.615A2.421 2.421 0 0162.972 150z" fill="#6672FB"/><path d="M82.374 137.886c-4.006 0-7.267-3.256-7.267-7.259 0-4.001 3.261-7.258 7.267-7.258 4.007 0 7.267 3.257 7.267 7.258 0 4.003-3.26 7.259-7.267 7.259zm0-9.678a2.422 2.422 0 00-2.422 2.419 2.422 2.422 0 004.844 0 2.421 2.421 0 00-2.422-2.419z" fill="#FF5A4C"/><path d="M26.683 24.19c-.887 0-1.74-.486-2.166-1.331l-4.883-9.673a2.417 2.417 0 011.073-3.249 2.417 2.417 0 013.253 1.07l4.884 9.672a2.416 2.416 0 01-1.072 3.25 2.396 2.396 0 01-1.089.261zm58.11 0c-.366 0-.738-.082-1.087-.26a2.415 2.415 0 01-1.07-3.248l4.882-9.674a2.414 2.414 0 013.254-1.069 2.416 2.416 0 011.07 3.249l-4.883 9.673a2.423 2.423 0 01-2.166 1.33z" fill="#6672FB"/></svg>