<svg width="150" height="150" fill="none" xmlns="http://www.w3.org/2000/svg"><g clip-path="url(#clip0)"><path d="M128.114 21.863a2.922 2.922 0 002.072.858 2.931 2.931 0 002.072-5.002 18.42 18.42 0 00-13.11-5.43 18.42 18.42 0 00-13.11 5.43 2.931 2.931 0 004.144 4.144 12.596 12.596 0 018.966-3.714 12.6 12.6 0 018.966 3.714z" fill="#FF5A4C"/><path d="M116.278 62.01c1.349-.095 2.877-.202 4.589-.384 8.24-.865 15.002-3.887 20.096-8.981 5.828-5.824 9.038-13.57 9.038-21.812s-3.21-15.99-9.038-21.82c-12.028-12.018-31.599-12.019-43.63.003-5.093 5.101-8.115 11.863-8.98 20.094a125.82 125.82 0 00-.38 4.589c-.431 6.202-.612 8.73-6.94 13.761-2.165-3.662-4.055-7.65-5.686-11.988a10.732 10.732 0 00-5.662-6.04 10.74 10.74 0 00-8.279-.273c-5.576 2.098-8.408 8.348-6.312 13.931a101.746 101.746 0 004.813 10.87l-.2.2c-16.318-3.836-33.611 1.036-45.503 12.929-18.937 18.937-18.937 49.751 0 68.689 7.534 7.534 17.08 12.293 27.605 13.761 2.212.308 4.441.461 6.669.461 8.028 0 16.034-1.981 23.081-5.774a2.93 2.93 0 10-2.777-5.16c-16.46 8.859-37.2 5.803-50.434-7.432-16.652-16.653-16.652-43.748 0-60.401 9.623-9.623 23.27-14.014 36.568-12.026a14.18 14.18 0 00-2.539 6.16A36.164 36.164 0 0022.91 75.793c-6.852 6.848-10.626 15.954-10.626 25.641 0 9.686 3.773 18.792 10.625 25.639 6.852 6.852 15.96 10.626 25.643 10.626 9.684 0 18.791-3.774 25.644-10.626A36.183 36.183 0 0084.613 97.61a14.17 14.17 0 006.175-2.549 42.548 42.548 0 01-4.594 26.585 2.93 2.93 0 005.163 2.774c5.634-10.489 7.198-22.549 4.469-34.145l.198-.198a101.946 101.946 0 0010.872 4.818c1.234.464 2.517.695 3.799.695 1.522 0 3.041-.326 4.472-.975a10.741 10.741 0 005.662-6.043c2.097-5.584-.739-11.833-6.321-13.93-4.337-1.632-8.324-3.523-11.985-5.689 5.033-6.326 7.559-6.508 13.755-6.943zm-46.227 60.919c-5.745 5.745-13.38 8.91-21.5 8.91-8.119 0-15.754-3.165-21.5-8.911-5.744-5.741-8.908-13.375-8.908-21.495 0-8.12 3.164-15.754 8.91-21.497a30.327 30.327 0 0125.628-8.628 14.2 14.2 0 003.707 6.445L72.225 93.59a14.191 14.191 0 006.447 3.715 30.342 30.342 0 01-8.621 25.624zM88.362 89.45a8.407 8.407 0 01-5.994 2.473 8.407 8.407 0 01-5.997-2.475l-15.84-15.84c-3.304-3.303-3.304-8.68 0-11.985l2.346-2.345c.099.163.2.322.3.484 6.92 11.289 15.973 20.308 27.3 27.2l-2.115 2.488zm24.082-9.324h.002a4.964 4.964 0 012.897 6.386 4.923 4.923 0 01-2.596 2.765 4.916 4.916 0 01-3.787.132c-23.663-8.906-39.488-24.732-48.38-48.38a4.965 4.965 0 014.636-6.707c.697 0 1.394.15 2.051.447a4.915 4.915 0 012.595 2.765c7.937 21.11 21.468 34.645 42.582 42.592zM97.609 65.734a58.867 58.867 0 01-13.359-13.36c8.374-6.607 9.05-10.794 9.569-18.269.09-1.299.192-2.771.362-4.381.722-6.865 3.178-12.439 7.297-16.565 9.744-9.736 25.598-9.737 35.341 0a24.831 24.831 0 017.321 17.674c0 6.676-2.599 12.95-7.321 17.668-4.12 4.12-9.694 6.576-16.567 7.297-1.611.171-3.084.275-4.384.366-7.467.524-11.651 1.202-18.26 9.57z" fill="#6672FB"/><path d="M78.762 131.626l-.008.008a2.924 2.924 0 00.004 4.139 2.932 2.932 0 004.148-4.148 2.932 2.932 0 00-4.144.001z" fill="#FF5A4C"/></g><defs><clipPath id="clip0"><path fill="#fff" d="M0 0h150v150H0z"/></clipPath></defs></svg>