<svg width="21" height="20" fill="none" xmlns="http://www.w3.org/2000/svg"><path d="M19.754 10.292l-8.55-9.007c-.36-.38-1.05-.38-1.41 0l-8.55 9.007a.857.857 0 00-.161.97.952.952 0 00.867.533h1.9v6.304c0 .24.1.468.278.637.178.17.42.264.672.264h2.85a.977.977 0 00.67-.264.878.878 0 00.28-.637v-3.602h3.799v3.602c0 .24.1.468.278.637.178.17.42.264.672.264h2.85a.977.977 0 00.671-.264.878.878 0 00.278-.637v-6.304h1.9c.184 0 .364-.05.519-.144a.915.915 0 00.351-.39.857.857 0 00-.164-.97v0z" stroke="#fff" stroke-width="2" stroke-linecap="round" stroke-linejoin="round"/></svg>