<svg width="174" height="370" fill="none" xmlns="http://www.w3.org/2000/svg"><path d="M79.147 343.418c-.77 4.114-2.47 7.963-4.95 11.209a72.996 72.996 0 01-8.233 9.293 18.828 18.828 0 01-6.47 4.686 6.355 6.355 0 01-3.86.3 6.669 6.669 0 01-3.384-2.009A7.945 7.945 0 0151 362.6c0-1.535.436-3.034 1.25-4.297a29.256 29.256 0 016.06-6.472c5.216-4.737 8.74-10.743 13.425-15.92 5.553-6.084 8.233 2.2 7.412 7.507zm43.118-17.283c2.593 4.145 6.116 7.568 10.263 9.972a81.262 81.262 0 0013.138 6.342 21.195 21.195 0 009.255 2.131 8.003 8.003 0 004.54-1.445 8.532 8.532 0 003.025-3.817 9.31 9.31 0 00-.441-5.295 8.865 8.865 0 00-3.241-4.099 32.5 32.5 0 00-9.507-4.237c-7.842-2.789-14.323-7.736-21.762-11.235-8.801-4.105-8.372 6.236-5.27 11.683zM108.98 142.271s45.309 17.722 52.776 17.302c7.467-.42 14.15-6.624 11.745-15.053-2.405-8.428-65.989-40.016-65.989-40.016l1.468 37.767z" fill="#FF5A4C"/><path d="M106.096 142.302s44.38 17.69 51.669 17.271c7.289-.42 13.859-6.612 11.504-15.026-2.356-8.413-64.586-40.043-64.586-40.043l1.413 37.798z" fill="url(#paint0_linear)"/><path d="M43.985 202.538A394.444 394.444 0 0145 162.301c1.344-18.744-4.487-41.46 7.606-55.798 3.55-4.202 21.474-7.436 26.976-7.64 13.031-.153 27.888 1.859 38.03 11.613 7.884 7.64 1.977 26.282 1.09 37.258-1.674 21.214.811 28.548 1.039 44.236.152 11.816-.228 25.95-9.71 33.107-5.223 3.845-18.33 3.539-24.795 3.972-8.874.637-25.024 2.853-33.162-1.426-7.682-4.049-7.809-17.572-8.088-25.085z" fill="#FF5A4C"/><path d="M43.985 202.538A394.444 394.444 0 0145 162.301c1.344-18.744-4.487-41.46 7.606-55.798 3.55-4.202 21.474-7.436 26.976-7.64 13.031-.153 27.888 1.859 38.03 11.613 7.884 7.64 1.977 26.282 1.09 37.258-1.674 21.214.811 28.548 1.039 44.236.152 11.816-.228 25.95-9.71 33.107-5.223 3.845-18.33 3.539-24.795 3.972-8.874.637-25.024 2.853-33.162-1.426-7.682-4.049-7.809-17.572-8.088-25.085z" fill="url(#paint1_linear)"/><path opacity=".31" d="M47.732 134.16l2.78 30.612c.639 7.656 3.85 14.903 9.15 20.644 5.299 5.741 12.396 9.662 20.218 11.171a20.84 20.84 0 002.551.344c9.288.688 25.081 8.181 25.081 8.181l-36.588 10.957-19.085-5.528-7.986 1.99.868-45.892 3.01-32.479z" fill="url(#paint2_linear)"/><path d="M70.866 107.798c.128 2.101.69 4.158 1.653 6.052a16.099 16.099 0 003.963 4.986c2.758 1.83 6.073 2.74 9.43 2.59a12.803 12.803 0 005.492-.871 12.263 12.263 0 004.52-3.098c2.542-3.486 1.754-8.303.585-12.467-.555-3.025-2.103-5.805-4.422-7.94-3.685-2.76-11.513-3.001-15.859-1.573-4.981 1.646-5.896 8.061-5.362 12.321z" fill="#FF5A4C"/><path d="M70.866 107.798c.128 2.101.69 4.158 1.653 6.052a16.099 16.099 0 003.963 4.986c2.758 1.83 6.073 2.74 9.43 2.59a12.803 12.803 0 005.492-.871 12.263 12.263 0 004.52-3.098c2.542-3.486 1.754-8.303.585-12.467-.555-3.025-2.103-5.805-4.422-7.94-3.685-2.76-11.513-3.001-15.859-1.573-4.981 1.646-5.896 8.061-5.362 12.321z" fill="url(#paint3_linear)"/><path d="M60.474 66.139c0-2.707 2.579-21.656-6.147-17.541-3.028 1.353-1.84 5.413-1.278 8.906.874 5.495 7.47 9.961 7.425 8.635z" fill="url(#paint4_linear)"/><path d="M106.606 66.147c.253-2.354-3.46-18.836 6.036-14.621 3.284 1.483 1.617 4.709.682 7.864-1.414 4.662-6.87 7.887-6.718 6.757z" fill="url(#paint5_linear)"/><path d="M75.919 107.047c-.123 2.396.28 4.79 1.175 7a12.895 12.895 0 002.398 3.086 8.173 8.173 0 004.294 2.86 5.654 5.654 0 002.757-.338c.88-.34 1.67-.895 2.303-1.619a11.281 11.281 0 002.399-5.168c.788-4.199.917-8.504.384-12.746l-.528-7.1a18.2 18.2 0 00-2.254-8.907 8.427 8.427 0 00-2.49-2.388 8.033 8.033 0 00-3.195-1.15c-11.825-1.555-7.411 19.545-7.243 26.47z" fill="url(#paint6_linear)"/><path d="M108.766 35.64s3.44 49.173-21.539 55.502c-24.978 6.329-28.493-35.16-29.196-49.626C57.328 27.05 68.575 14.92 87.227 17.23c8.61 1.08 19.707 6.706 21.539 18.41z" fill="url(#paint7_linear)"/><path d="M67.25 5.936C72.11-.89 83.227-1.633 90.62 2.702c3.393 2.012 6.254 4.79 10.002 6.204 2.684.982 5.672 1.126 8.432 1.94 2.759.843 5.228 2.373 7.147 4.43 1.919 2.057 3.217 4.564 3.758 7.259a14.5 14.5 0 01-.682 8.057c-.987 2.579-2.691 4.86-4.931 6.6-2.76 2.109-6.178 3.33-9.141 5.174 0-2.826-3.241-5.556-5.723-7.185a17.203 17.203 0 00-8.533-2.395l.785 1.605a22.372 22.372 0 01-13.268-.168c-4.786-1.557-9.85-4.79-14.433-2.73-2.228 1.005-4.482 3.185-6.685 2.131a4.59 4.59 0 01-1.452-1.571 4.312 4.312 0 01-.548-2.022c-1.444-9.125 6.203-16.287 11.9-24.095z" fill="#25233A"/><path d="M52.342 105.916a32.834 32.834 0 00-13.167 8.905 33.443 33.443 0 00-7.531 14.111c-4.418 17.96-20.327 88.919-20.327 88.919s15.288 1.761 20.5.705l15.164-62.885s-.62-37.329 5.36-49.755z" fill="#FF5A4C"/><path d="M52.342 105.916a32.834 32.834 0 00-13.167 8.905 33.443 33.443 0 00-7.531 14.111c-4.418 17.96-20.327 88.919-20.327 88.919s15.288 1.761 20.5.705l15.164-62.885s-.62-37.329 5.36-49.755z" fill="url(#paint8_linear)"/><path d="M51.003 355.743a7.031 7.031 0 00.87 3.583 6.577 6.577 0 005.488 2.687 14.79 14.79 0 0010.179-4.261 31.947 31.947 0 006.43-9.223 21.435 21.435 0 002.249-5.882c.943-4.842-1.015-9.926-2.925-14.525.7 1.743-9.284 3.026-10.203 3.026-3.917 0-3.385 2.421-4.69 5.665-2.466 6.197-7.447 11.885-7.398 18.93z" fill="#25233A"/><path d="M59.487 318.282l4.755 15.025s2.996 6.174 7.561 1.603c0 0 1.522-1.708 1.83-7.565L69.593 314l-10.105 4.282z" fill="url(#paint9_linear)"/><path d="M156.045 228.582c-3.39 27.321-16.127 66.536-16.692 66.536-2.799-.783-15.408 2.348-18.259 1.287-1.489-.581-2.362-29.669-1.54-44.819.282-5.051.282-20.479.282-25.478l-35.208 1.01-7.01.429A108.13 108.13 0 0176 247.015c-3.75 27.018-7.576 40.401-6.24 67.545-.18 4.419-9.734 6.237-12.995 2.828-14.612-15.352-15.588-31.588-18.592-52.42-2.004-13.887-8.578-64.666 9.655-68.454a29.781 29.781 0 018.192-.656c4.315.303 12.66.53 15.409 4.141.924.454 19.362 9.544 34.925 4.898l16.435-16.665a16.315 16.315 0 018.937-5.61 16.53 16.53 0 0110.555.989c6.42 2.98 11.299 10.1 13.353 18.256 2.055 8.156 1.515 17.802.411 26.715z" fill="#FF5A4C"/><path d="M120.319 315.824a8.979 8.979 0 00.247 3.541 7.34 7.34 0 002.093 2.795c7.424 7.05 16.274 12.12 25.84 14.803a9.151 9.151 0 006.281 0c1.544-.945 2.712-2.473 3.28-4.29a8.39 8.39 0 00-.201-5.561c-1.511-3.479-3.913-6.417-6.922-8.466-3.013-2.033-5.652-4.651-7.783-7.721-.741-1.845-1.902-3.458-3.375-4.686a7.469 7.469 0 00-3.744-.639c-2.882 0-11.307-1.411-13.647.239-2.34 1.651-1.921 6.683-2.069 9.985z" fill="#25233A"/><path d="M121.658 296.591l1.377 12.068a22.84 22.84 0 007.522 4.645 4.509 4.509 0 002.136.139 4.563 4.563 0 001.967-.864 4.722 4.722 0 001.378-1.681 4.847 4.847 0 00.493-2.138v-.985l.688-12.622-15.561 1.438z" fill="url(#paint10_linear)"/><path d="M171.588 146.042l-68.061-14.706-3.088 19.016s56.165 25.127 65.429 17.761c9.263-7.365 9.77-17.343 5.72-22.071z" fill="#FF5A4C"/><path d="M171.588 146.042l-68.061-14.706-3.088 19.016s56.165 25.127 65.429 17.761c9.263-7.365 9.77-17.343 5.72-22.071z" fill="url(#paint11_linear)"/><path d="M103.268 133.707s-22.51-10.006-31.135-9.406c-8.624.6-8.472 6.679-8.472 6.679v6.654a6.576 6.576 0 001.03 3.71 6.682 6.682 0 002.94 2.519 14.926 14.926 0 007.588 1.301c5.488-.826 6.601-3.603 6.601-3.603s4.882 4.853 7.891 3.728a17.582 17.582 0 0111.761-.551l1.796-11.031z" fill="#ECC4D7"/><path d="M97.788 129.924l-3.008 14.81 5.874.724 2.614-14.411-5.48-1.123z" fill="#25233A"/><path d="M98.407 129.924l-.798 4.793 4.911.855.748-4.482-4.86-1.166z" fill="#25233A"/><path d="M105.458 129.448l-9.472-1.845-.502 2.568 9.473 1.845.501-2.568z" fill="#FF5A4C"/><path d="M105.458 129.448l-9.472-1.845-.502 2.568 9.473 1.845.501-2.568z" fill="url(#paint12_linear)"/><path d="M60.775 36.868a129.376 129.376 0 01-2.294 19.62 17.186 17.186 0 00-.58-5.305 3.804 3.804 0 00-1.002-1.952 1.704 1.704 0 00-2.11-.25c.343-3.504-1.133-6.958-1.028-10.486.07-2.574.992-5.06 2.637-7.108a.647.647 0 01.316-.275.748.748 0 01.501 0 5.6 5.6 0 012.834 2.29 5.153 5.153 0 01.726 3.466zm46.479 22.445l1.581-7.927c0-.476.236-1.053.685-1.204.448-.15.495 0 .684-.225.09-.117.155-.254.189-.401l1.911-6.447c.283-1.003.566-1.982.778-3.01a2.932 2.932 0 000-1.43 2.327 2.327 0 00-1.014-1.28 3.565 3.565 0 00-1.394-.606 3.465 3.465 0 00-1.505.037 3.59 3.59 0 00-1.366.675 3.855 3.855 0 00-.997 1.2 5.242 5.242 0 00-.69 2.197 5.31 5.31 0 00.313 2.292 49.369 49.369 0 01.825 16.129z" fill="#25233A"/><path d="M94.78 127.707l1.024-.608 9.601 1.853.692.972-11.317-2.217z" fill="#FF5A4C"/><path d="M94.78 127.707l1.024-.608 9.601 1.853.692.972-11.317-2.217z" fill="url(#paint13_linear)"/><path d="M6.75 220.751a8.492 8.492 0 00-3.705 1.762 8.816 8.816 0 00-2.499 3.322 16.324 16.324 0 00-.123 7.88 14.351 14.351 0 001.087 4.169 3.39 3.39 0 001.17 1.5 3.251 3.251 0 001.772.61c1.804-.178 2.842-2.72 2.941-4.957a50.688 50.688 0 010-6.711 51.885 51.885 0 000 8.312 4.473 4.473 0 001.038 3 1.89 1.89 0 002.052.127 5.965 5.965 0 001.92-1.949 6.165 6.165 0 00.873-2.626c.234-1.98.184-3.984-.149-5.949.318 1.417.377 2.883.173 4.322a8.767 8.767 0 00.42 4.27c.594 1.271 2.052 2.034 2.991 1.17a4.109 4.109 0 00.989-2.542c.371-2.361.495-4.756.37-7.144a18.286 18.286 0 00.347 7.321c.79 2.263 2.892 4.068 4.77 3.229a5.538 5.538 0 001.818-2.028 5.722 5.722 0 00.654-2.675c.198-1.957 0-3.94 0-5.897a2.917 2.917 0 01.198-1.068c.518-1.017 1.754-.534 2.718-.661s2.25-1.703 2.472-3.279c.169-1.61.052-3.238-.346-4.805a98.73 98.73 0 01-13.15-.559 30.418 30.418 0 00-10.8 1.856z" fill="url(#paint14_linear)"/><path d="M156.11 228.58c-3.388 27.32-16.119 66.532-16.684 66.532-2.7-.157-5.41.038-8.059.581-4.209.606-8.701 1.287-10.267.707-.128 0-.231-.278-.359-.707-1.206-4.394-1.874-28.38-1.258-42.571v-1.54c.283-5.05.257-20.477.257-25.476l-35.163 1.01-7.007.429c.05 6.523-.492 13.038-1.617 19.467-3.748 27.017-7.572 40.399-6.237 67.542-.129 2.853-4.133 4.621-7.829 4.595a7.18 7.18 0 01-5.133-1.767c-14.604-15.352-15.58-31.587-18.583-52.418-2.002-13.887-8.573-64.663 9.65-68.451a29.75 29.75 0 018.189-.656c4.312.303 12.653.53 15.4 4.141.924.454 19.352 9.544 34.906 4.898l16.427-16.664a16.312 16.312 0 018.932-5.611 16.525 16.525 0 0110.549.99c6.417 2.979 11.294 10.1 13.347 18.255 2.053 8.156 1.643 17.801.539 26.714z" fill="#25233A"/><defs><linearGradient id="paint0_linear" x1="21282.7" y1="10711.1" x2="20946.7" y2="11460.5" gradientUnits="userSpaceOnUse"><stop stop-opacity="0"/><stop offset=".88" stop-opacity=".8"/><stop offset=".97"/></linearGradient><linearGradient id="paint1_linear" x1="86.147" y1="86.231" x2="76.069" y2="291.311" gradientUnits="userSpaceOnUse"><stop stop-opacity="0"/><stop offset=".5" stop-opacity=".19"/><stop offset=".55" stop-opacity=".24"/><stop offset=".97"/></linearGradient><linearGradient id="paint2_linear" x1="19262.4" y1="12966.8" x2="18855.9" y2="21475.1" gradientUnits="userSpaceOnUse"><stop stop-opacity="0"/><stop offset=".88" stop-opacity=".8"/><stop offset=".97"/></linearGradient><linearGradient id="paint3_linear" x1="8241.12" y1="4827.26" x2="8169.33" y2="5552.55" gradientUnits="userSpaceOnUse"><stop stop-opacity="0"/><stop offset=".5" stop-opacity=".19"/><stop offset=".55" stop-opacity=".24"/><stop offset=".97"/></linearGradient><linearGradient id="paint4_linear" x1="52.331" y1="57.206" x2="60.81" y2="57.206" gradientUnits="userSpaceOnUse"><stop stop-color="#ECC4D7"/><stop offset=".42" stop-color="#EFD4D1"/><stop offset="1" stop-color="#F2EAC9"/></linearGradient><linearGradient id="paint5_linear" x1="2748.52" y1="2650.05" x2="2777.04" y2="2650.05" gradientUnits="userSpaceOnUse"><stop stop-color="#ECC4D7"/><stop offset=".42" stop-color="#EFD4D1"/><stop offset="1" stop-color="#F2EAC9"/></linearGradient><linearGradient id="paint6_linear" x1="5214.68" y1="7338.03" x2="5268.42" y2="7624.85" gradientUnits="userSpaceOnUse"><stop stop-color="#ECC4D7"/><stop offset=".42" stop-color="#EFD4D1"/><stop offset="1" stop-color="#F2EAC9"/></linearGradient><linearGradient id="paint7_linear" x1="15457.8" y1="11319.6" x2="15505.1" y2="14037.7" gradientUnits="userSpaceOnUse"><stop stop-color="#ECC4D7"/><stop offset=".42" stop-color="#EFD4D1"/><stop offset="1" stop-color="#F2EAC9"/></linearGradient><linearGradient id="paint8_linear" x1="11448.1" y1="23611.9" x2="12065.1" y2="23668" gradientUnits="userSpaceOnUse"><stop stop-opacity="0"/><stop offset=".5" stop-opacity=".19"/><stop offset=".55" stop-opacity=".24"/><stop offset=".97"/></linearGradient><linearGradient id="paint9_linear" x1="4259.54" y1="6158.99" x2="4223.16" y2="6771.59" gradientUnits="userSpaceOnUse"><stop stop-color="#ECC4D7"/><stop offset=".42" stop-color="#EFD4D1"/><stop offset="1" stop-color="#F2EAC9"/></linearGradient><linearGradient id="paint10_linear" x1="5119.07" y1="4929.83" x2="5100.46" y2="5354.24" gradientUnits="userSpaceOnUse"><stop stop-color="#ECC4D7"/><stop offset=".42" stop-color="#EFD4D1"/><stop offset="1" stop-color="#F2EAC9"/></linearGradient><linearGradient id="paint11_linear" x1="23996.7" y1="7721.07" x2="23930.6" y2="8209.09" gradientUnits="userSpaceOnUse"><stop stop-opacity="0"/><stop offset=".88" stop-opacity=".8"/><stop offset=".97"/></linearGradient><linearGradient id="paint12_linear" x1="3081.53" y1="638.115" x2="3081.48" y2="643.51" gradientUnits="userSpaceOnUse"><stop stop-opacity="0"/><stop offset=".88" stop-opacity=".8"/><stop offset=".97"/></linearGradient><linearGradient id="paint13_linear" x1="3422.68" y1="674.727" x2="3422.56" y2="681.309" gradientUnits="userSpaceOnUse"><stop stop-color="#fff" stop-opacity="0"/><stop offset=".84" stop-color="#fff" stop-opacity=".84"/><stop offset=".97" stop-color="#fff"/></linearGradient><linearGradient id="paint14_linear" x1="8380.21" y1="5203.51" x2="8771.72" y2="5203.51" gradientUnits="userSpaceOnUse"><stop stop-color="#ECC4D7"/><stop offset=".42" stop-color="#EFD4D1"/><stop offset="1" stop-color="#F2EAC9"/></linearGradient></defs></svg>