<svg width="1440" height="830" fill="none" xmlns="http://www.w3.org/2000/svg"><g filter="url(#filter0_d)"><path d="M300.146 748.331c384.087-60.341 566.351-106.938 1052.194-29.684 106.47 16.93 174.01-686.962 0-609.335-317.91 141.821-1052.194-194.591-1439.58 0-168.368 84.574-95.466 475.193 0 537.6 134.959 88.225 177.447 134.4 387.386 101.419z" fill="#6672FB" fill-opacity=".8"/></g><path d="M1114.15 803.418c-.77 4.114-2.47 7.963-4.95 11.209a72.708 72.708 0 01-8.24 9.293 18.738 18.738 0 01-6.47 4.686 6.356 6.356 0 01-3.86.3 6.671 6.671 0 01-3.38-2.009 7.98 7.98 0 01-1.25-4.297 7.98 7.98 0 011.25-4.297 29.122 29.122 0 016.06-6.472c5.22-4.737 8.74-10.743 13.42-15.92 5.56-6.084 8.24 2.2 7.42 7.507zm43.11-17.283c2.6 4.145 6.12 7.568 10.27 9.972a81.081 81.081 0 0013.14 6.342 21.164 21.164 0 009.25 2.131 7.981 7.981 0 004.54-1.445 8.527 8.527 0 003.03-3.817 9.38 9.38 0 00-.44-5.295 8.864 8.864 0 00-3.25-4.099 32.375 32.375 0 00-9.5-4.237c-7.85-2.789-14.33-7.736-21.77-11.235-8.8-4.105-8.37 6.236-5.27 11.683zm-13.28-183.864s45.31 17.722 52.78 17.302c7.46-.42 14.15-6.624 11.74-15.053-2.4-8.428-65.99-40.016-65.99-40.016l1.47 37.767z" fill="#FF5A4C"/><path d="M1141.1 602.302s44.38 17.69 51.66 17.271c7.29-.42 13.86-6.612 11.51-15.026-2.36-8.413-64.59-40.043-64.59-40.043l1.42 37.798z" fill="url(#paint0_linear)"/><path d="M1078.99 662.538a394.298 394.298 0 011.01-40.237c1.34-18.744-4.49-41.46 7.61-55.798 3.54-4.202 21.47-7.436 26.97-7.64 13.03-.153 27.89 1.859 38.03 11.613 7.89 7.64 1.98 26.281 1.09 37.258-1.67 21.214.81 28.548 1.04 44.236.15 11.816-.23 25.95-9.71 33.107-5.22 3.845-18.33 3.539-24.8 3.972-8.87.637-25.02 2.853-33.16-1.426-7.68-4.049-7.81-17.572-8.08-25.085z" fill="#FF5A4C"/><path d="M1078.99 662.538a394.298 394.298 0 011.01-40.237c1.34-18.744-4.49-41.46 7.61-55.798 3.54-4.202 21.47-7.436 26.97-7.64 13.03-.153 27.89 1.859 38.03 11.613 7.89 7.64 1.98 26.281 1.09 37.258-1.67 21.214.81 28.548 1.04 44.236.15 11.816-.23 25.95-9.71 33.107-5.22 3.845-18.33 3.539-24.8 3.972-8.87.637-25.02 2.853-33.16-1.426-7.68-4.049-7.81-17.572-8.08-25.085z" fill="url(#paint1_linear)"/><path opacity=".31" d="M1082.73 594.16l2.78 30.612c.64 7.656 3.85 14.903 9.15 20.644 5.3 5.741 12.4 9.662 20.22 11.171.84.167 1.69.282 2.55.344 9.29.687 25.08 8.181 25.08 8.181l-36.59 10.957-19.08-5.528-7.99 1.99.87-45.892 3.01-32.479z" fill="url(#paint2_linear)"/><path d="M1105.87 567.798c.12 2.101.69 4.158 1.65 6.052a16.069 16.069 0 003.96 4.986 15.8 15.8 0 009.43 2.59c1.88.115 3.76-.183 5.49-.872a12.152 12.152 0 004.52-3.098c2.55-3.485 1.76-8.302.59-12.466-.56-3.025-2.1-5.805-4.42-7.94-3.69-2.759-11.52-3.001-15.86-1.573-4.98 1.646-5.9 8.061-5.36 12.321z" fill="#FF5A4C"/><path d="M1105.87 567.798c.12 2.101.69 4.158 1.65 6.052a16.069 16.069 0 003.96 4.986 15.8 15.8 0 009.43 2.59c1.88.115 3.76-.183 5.49-.872a12.152 12.152 0 004.52-3.098c2.55-3.485 1.76-8.302.59-12.466-.56-3.025-2.1-5.805-4.42-7.94-3.69-2.759-11.52-3.001-15.86-1.573-4.98 1.646-5.9 8.061-5.36 12.321z" fill="url(#paint3_linear)"/><path d="M1095.47 526.139c0-2.707 2.58-21.656-6.14-17.542-3.03 1.354-1.84 5.414-1.28 8.906.87 5.495 7.47 9.962 7.42 8.636z" fill="url(#paint4_linear)"/><path d="M1141.61 526.147c.25-2.354-3.46-18.836 6.03-14.621 3.29 1.483 1.62 4.709.68 7.864-1.41 4.662-6.87 7.887-6.71 6.757z" fill="url(#paint5_linear)"/><path d="M1110.92 567.047c-.12 2.397.28 4.791 1.17 7a13.226 13.226 0 002.4 3.086c1.11 1.405 2.61 2.407 4.3 2.86a5.63 5.63 0 002.75-.338 5.95 5.95 0 002.31-1.619 11.27 11.27 0 002.39-5.168c.79-4.199.92-8.503.39-12.746l-.53-7.1c.02-3.126-.76-6.2-2.25-8.907a8.6 8.6 0 00-2.49-2.388c-.98-.609-2.07-1-3.2-1.149-11.82-1.556-7.41 19.544-7.24 26.469z" fill="url(#paint6_linear)"/><path d="M1143.77 495.639s3.44 49.174-21.54 55.503c-24.98 6.329-28.5-35.16-29.2-49.626-.7-14.466 10.54-26.596 29.2-24.286 8.61 1.08 19.7 6.706 21.54 18.409z" fill="url(#paint7_linear)"/><path d="M1102.25 465.936c4.86-6.826 15.98-7.569 23.37-3.234 3.39 2.012 6.26 4.791 10 6.204 2.69.982 5.67 1.126 8.43 1.94 2.76.843 5.23 2.373 7.15 4.43 1.92 2.057 3.22 4.564 3.76 7.259a14.49 14.49 0 01-.68 8.057c-.99 2.579-2.69 4.859-4.93 6.601-2.76 2.108-6.18 3.329-9.14 5.173 0-2.826-3.25-5.556-5.73-7.185a17.2 17.2 0 00-8.53-2.395l.79 1.604a22.374 22.374 0 01-13.27-.167c-4.79-1.557-9.85-4.791-14.44-2.731-2.22 1.006-4.48 3.186-6.68 2.132a4.49 4.49 0 01-1.45-1.571 4.255 4.255 0 01-.55-2.022c-1.44-9.125 6.2-16.287 11.9-24.095z" fill="#25233A"/><path d="M1087.34 565.916a32.857 32.857 0 00-13.17 8.905 33.541 33.541 0 00-7.53 14.111c-4.41 17.96-20.32 88.919-20.32 88.919s15.29 1.761 20.5.705l15.16-62.885s-.62-37.329 5.36-49.755z" fill="#FF5A4C"/><path d="M1087.34 565.916a32.857 32.857 0 00-13.17 8.905 33.541 33.541 0 00-7.53 14.111c-4.41 17.96-20.32 88.919-20.32 88.919s15.29 1.761 20.5.705l15.16-62.885s-.62-37.329 5.36-49.755z" fill="url(#paint8_linear)"/><path d="M1086 815.743c-.03 1.25.27 2.487.87 3.583a6.57 6.57 0 002.42 2.02c.95.468 2.01.697 3.07.667 3.82-.054 7.46-1.58 10.18-4.261a31.932 31.932 0 006.43-9.223 21.404 21.404 0 002.25-5.882c.94-4.842-1.02-9.925-2.93-14.525.7 1.743-9.28 3.026-10.2 3.026-3.92 0-3.38 2.421-4.69 5.665-2.47 6.197-7.45 11.885-7.4 18.93z" fill="#25233A"/><path d="M1094.49 778.282l4.75 15.025s3 6.174 7.56 1.603c0 0 1.52-1.708 1.83-7.565L1104.59 774l-10.1 4.282z" fill="url(#paint9_linear)"/><path d="M1191.05 688.582c-3.39 27.321-16.13 66.536-16.7 66.536-2.8-.783-15.41 2.348-18.26 1.287-1.49-.58-2.36-29.669-1.54-44.819.29-5.051.29-20.479.29-25.478l-35.21 1.01-7.01.429c.05 6.524-.49 13.039-1.62 19.468-3.75 27.018-7.58 40.401-6.24 67.545-.18 4.419-9.73 6.237-12.99 2.828-14.62-15.352-15.59-31.588-18.6-52.42-2-13.887-8.57-64.666 9.66-68.454 2.68-.596 5.44-.817 8.19-.656 4.31.303 12.66.53 15.41 4.141.92.454 19.36 9.544 34.92 4.898l16.44-16.665a16.298 16.298 0 018.94-5.61c3.53-.838 7.24-.489 10.55.989 6.42 2.98 11.3 10.1 13.35 18.256 2.06 8.156 1.52 17.802.42 26.715z" fill="#FF5A4C"/><path d="M1155.32 775.824a8.814 8.814 0 00.25 3.541 7.272 7.272 0 002.09 2.795c7.42 7.05 16.27 12.12 25.84 14.804 2.04.74 4.24.74 6.28 0 1.54-.946 2.71-2.473 3.28-4.291.57-1.817.5-3.797-.2-5.561-1.51-3.479-3.91-6.417-6.92-8.466-3.02-2.033-5.65-4.651-7.79-7.721-.74-1.845-1.9-3.457-3.37-4.686a7.48 7.48 0 00-3.75-.639c-2.88 0-11.3-1.411-13.64.24-2.34 1.65-1.92 6.682-2.07 9.984z" fill="#25233A"/><path d="M1156.66 756.592l1.37 12.067a22.895 22.895 0 007.53 4.645 4.528 4.528 0 004.1-.725 4.79 4.79 0 001.38-1.681c.32-.663.49-1.396.49-2.138v-.985l.69-12.622-15.56 1.439z" fill="url(#paint10_linear)"/><path d="M1206.59 606.042l-68.06-14.706-3.09 19.016s56.16 25.127 65.43 17.761c9.26-7.366 9.77-17.344 5.72-22.071z" fill="#FF5A4C"/><path d="M1206.59 606.042l-68.06-14.706-3.09 19.016s56.16 25.127 65.43 17.761c9.26-7.366 9.77-17.344 5.72-22.071z" fill="url(#paint11_linear)"/><path d="M1138.27 593.707s-22.51-10.007-31.14-9.406c-8.62.6-8.47 6.679-8.47 6.679v6.654a6.588 6.588 0 001.03 3.71 6.706 6.706 0 002.94 2.519 14.94 14.94 0 007.59 1.301c5.49-.826 6.6-3.603 6.6-3.603s4.88 4.853 7.89 3.728c3.74-1.53 7.9-1.724 11.76-.551l1.8-11.031z" fill="#ECC4D7"/><path d="M1132.79 589.924l-3.01 14.81 5.87.724 2.62-14.41-5.48-1.124z" fill="#25233A"/><path d="M1133.41 589.924l-.8 4.793 4.91.856.75-4.483-4.86-1.166z" fill="#25233A"/><path d="M1140.46 589.448l-9.47-1.845-.51 2.568 9.48 1.845.5-2.568z" fill="#FF5A4C"/><path d="M1140.46 589.448l-9.47-1.845-.51 2.568 9.48 1.845.5-2.568z" fill="url(#paint12_linear)"/><path d="M1095.77 496.868a128.298 128.298 0 01-2.29 19.621c.09-1.786-.11-3.574-.58-5.306a3.813 3.813 0 00-1-1.952 1.659 1.659 0 00-1.01-.495c-.38-.046-.78.041-1.1.245.34-3.504-1.13-6.958-1.03-10.486.07-2.574.99-5.061 2.64-7.108a.653.653 0 01.31-.275.77.77 0 01.51 0 5.644 5.644 0 012.83 2.291c.65 1.044.9 2.265.72 3.465zm46.48 22.445l1.59-7.926c0-.477.23-1.054.68-1.204.45-.151.49 0 .68-.226a.99.99 0 00.19-.402l1.91-6.446c.29-1.003.57-1.982.78-3.01.12-.468.12-.961 0-1.43a2.336 2.336 0 00-1.01-1.279c-.42-.302-.9-.509-1.4-.607a3.438 3.438 0 00-1.5.037c-.5.122-.96.352-1.37.675-.4.322-.74.731-.99 1.199a5.135 5.135 0 00-.69 2.198c-.07.779.04 1.564.31 2.292a49.097 49.097 0 01.82 16.129z" fill="#25233A"/><path d="M1129.78 587.707l1.02-.608 9.61 1.853.69.972-11.32-2.217z" fill="#FF5A4C"/><path d="M1129.78 587.707l1.02-.608 9.61 1.853.69.972-11.32-2.217z" fill="url(#paint13_linear)"/><path d="M1041.75 680.751a8.535 8.535 0 00-3.71 1.762 8.78 8.78 0 00-2.49 3.322 16.289 16.289 0 00-.13 7.88c.15 1.439.52 2.846 1.09 4.169.24.605.65 1.126 1.17 1.5.52.374 1.14.586 1.77.61 1.81-.178 2.84-2.72 2.94-4.957a50.098 50.098 0 010-6.711 52.436 52.436 0 000 8.313 4.467 4.467 0 001.04 2.999 1.876 1.876 0 002.05.127 5.903 5.903 0 001.92-1.949c.49-.794.79-1.693.88-2.626.23-1.98.18-3.984-.15-5.949.32 1.417.37 2.883.17 4.322a8.73 8.73 0 00.42 4.27c.59 1.271 2.05 2.034 2.99 1.17.61-.704.96-1.603.99-2.542.37-2.361.5-4.756.37-7.144-.38 2.439-.26 4.932.35 7.322.79 2.262 2.89 4.067 4.77 3.228a5.51 5.51 0 001.81-2.028c.44-.821.66-1.741.66-2.675.2-1.957 0-3.94 0-5.897 0-.366.06-.729.2-1.068.52-1.017 1.75-.534 2.72-.661.96-.127 2.24-1.703 2.47-3.279.17-1.61.05-3.238-.35-4.805-4.39.106-8.78-.08-13.15-.559-3.68-.041-7.33.587-10.8 1.856z" fill="url(#paint14_linear)"/><path d="M1191.11 688.58c-3.39 27.32-16.12 66.532-16.68 66.532-2.7-.157-5.41.038-8.06.581-4.21.606-8.7 1.288-10.27.707-.13 0-.23-.278-.36-.707-1.21-4.394-1.87-28.38-1.26-42.571v-1.54c.29-5.05.26-20.477.26-25.476l-35.16 1.01-7.01.429c.05 6.523-.49 13.038-1.62 19.467-3.74 27.017-7.57 40.399-6.23 67.542-.13 2.853-4.14 4.621-7.83 4.595a7.205 7.205 0 01-5.14-1.767c-14.6-15.352-15.58-31.587-18.58-52.418-2-13.887-8.57-64.663 9.65-68.451 2.69-.596 5.44-.817 8.19-.656 4.31.303 12.65.53 15.4 4.141.92.454 19.35 9.544 34.91 4.898l16.42-16.664a16.307 16.307 0 018.93-5.61c3.54-.838 7.25-.489 10.55.989 6.42 2.979 11.3 10.1 13.35 18.255 2.05 8.156 1.64 17.801.54 26.714z" fill="#25233A"/><defs><linearGradient id="paint0_linear" x1="22317.7" y1="11171.1" x2="21981.7" y2="11920.5" gradientUnits="userSpaceOnUse"><stop stop-opacity="0"/><stop offset=".88" stop-opacity=".8"/><stop offset=".97"/></linearGradient><linearGradient id="paint1_linear" x1="1121.15" y1="546.231" x2="1111.07" y2="751.311" gradientUnits="userSpaceOnUse"><stop stop-opacity="0"/><stop offset=".5" stop-opacity=".19"/><stop offset=".55" stop-opacity=".24"/><stop offset=".97"/></linearGradient><linearGradient id="paint2_linear" x1="20297.4" y1="13426.8" x2="19890.9" y2="21935.1" gradientUnits="userSpaceOnUse"><stop stop-opacity="0"/><stop offset=".88" stop-opacity=".8"/><stop offset=".97"/></linearGradient><linearGradient id="paint3_linear" x1="9276.12" y1="5287.26" x2="9204.33" y2="6012.55" gradientUnits="userSpaceOnUse"><stop stop-opacity="0"/><stop offset=".5" stop-opacity=".19"/><stop offset=".55" stop-opacity=".24"/><stop offset=".97"/></linearGradient><linearGradient id="paint4_linear" x1="1087.33" y1="517.206" x2="1095.81" y2="517.206" gradientUnits="userSpaceOnUse"><stop stop-color="#ECC4D7"/><stop offset=".42" stop-color="#EFD4D1"/><stop offset="1" stop-color="#F2EAC9"/></linearGradient><linearGradient id="paint5_linear" x1="3783.52" y1="3110.05" x2="3812.04" y2="3110.05" gradientUnits="userSpaceOnUse"><stop stop-color="#ECC4D7"/><stop offset=".42" stop-color="#EFD4D1"/><stop offset="1" stop-color="#F2EAC9"/></linearGradient><linearGradient id="paint6_linear" x1="6249.68" y1="7798.03" x2="6303.42" y2="8084.85" gradientUnits="userSpaceOnUse"><stop stop-color="#ECC4D7"/><stop offset=".42" stop-color="#EFD4D1"/><stop offset="1" stop-color="#F2EAC9"/></linearGradient><linearGradient id="paint7_linear" x1="16492.8" y1="11779.6" x2="16540.1" y2="14497.7" gradientUnits="userSpaceOnUse"><stop stop-color="#ECC4D7"/><stop offset=".42" stop-color="#EFD4D1"/><stop offset="1" stop-color="#F2EAC9"/></linearGradient><linearGradient id="paint8_linear" x1="12483.1" y1="24071.9" x2="13100.1" y2="24128" gradientUnits="userSpaceOnUse"><stop stop-opacity="0"/><stop offset=".5" stop-opacity=".19"/><stop offset=".55" stop-opacity=".24"/><stop offset=".97"/></linearGradient><linearGradient id="paint9_linear" x1="5294.54" y1="6618.99" x2="5258.16" y2="7231.59" gradientUnits="userSpaceOnUse"><stop stop-color="#ECC4D7"/><stop offset=".42" stop-color="#EFD4D1"/><stop offset="1" stop-color="#F2EAC9"/></linearGradient><linearGradient id="paint10_linear" x1="6154.07" y1="5389.83" x2="6135.46" y2="5814.24" gradientUnits="userSpaceOnUse"><stop stop-color="#ECC4D7"/><stop offset=".42" stop-color="#EFD4D1"/><stop offset="1" stop-color="#F2EAC9"/></linearGradient><linearGradient id="paint11_linear" x1="25031.7" y1="8181.07" x2="24965.6" y2="8669.09" gradientUnits="userSpaceOnUse"><stop stop-opacity="0"/><stop offset=".88" stop-opacity=".8"/><stop offset=".97"/></linearGradient><linearGradient id="paint12_linear" x1="4116.53" y1="1098.12" x2="4116.48" y2="1103.51" gradientUnits="userSpaceOnUse"><stop stop-opacity="0"/><stop offset=".88" stop-opacity=".8"/><stop offset=".97"/></linearGradient><linearGradient id="paint13_linear" x1="4457.68" y1="1134.73" x2="4457.56" y2="1141.31" gradientUnits="userSpaceOnUse"><stop stop-color="#fff" stop-opacity="0"/><stop offset=".84" stop-color="#fff" stop-opacity=".84"/><stop offset=".97" stop-color="#fff"/></linearGradient><linearGradient id="paint14_linear" x1="9415.21" y1="5663.51" x2="9806.72" y2="5663.51" gradientUnits="userSpaceOnUse"><stop stop-color="#ECC4D7"/><stop offset=".42" stop-color="#EFD4D1"/><stop offset="1" stop-color="#F2EAC9"/></linearGradient><filter id="filter0_d" x="-238" y="0" width="1747" height="812" filterUnits="userSpaceOnUse" color-interpolation-filters="sRGB"><feFlood flood-opacity="0" result="BackgroundImageFix"/><feColorMatrix in="SourceAlpha" values="0 0 0 0 0 0 0 0 0 0 0 0 0 0 0 0 0 0 127 0"/><feOffset dy="3"/><feGaussianBlur stdDeviation="25"/><feColorMatrix values="0 0 0 0 0.4 0 0 0 0 0.447059 0 0 0 0 0.984314 0 0 0 0.5 0"/><feBlend in2="BackgroundImageFix" result="effect1_dropShadow"/><feBlend in="SourceGraphic" in2="effect1_dropShadow" result="shape"/></filter></defs></svg>