<svg width="48" height="48" fill="none" xmlns="http://www.w3.org/2000/svg"><path d="M11.25 24c0-2.378.655-4.606 1.793-6.513V9.395h-8.09C1.74 13.566 0 18.65 0 24c0 5.351 1.74 10.434 4.952 14.605h8.091v-8.091A12.672 12.672 0 0111.25 24z" fill="#FBBD00"/><path d="M24 36.75l-5.625 5.625L24 48c5.351 0 10.434-1.74 14.605-4.952v-8.083h-8.083A12.749 12.749 0 0124 36.75z" fill="#0F9D58"/><path d="M13.044 30.514l-8.09 8.09a24.383 24.383 0 002.076 2.367A23.843 23.843 0 0024.001 48V36.75c-4.652 0-8.73-2.505-10.957-6.236z" fill="#31AA52"/><path d="M48 24c0-1.46-.132-2.923-.393-4.348l-.211-1.153H24v11.25h11.386a12.693 12.693 0 01-4.864 5.216l8.083 8.083a24.364 24.364 0 002.366-2.077A23.843 23.843 0 0048 24z" fill="#3C79E6"/><path d="M33.016 14.984l.994.995 7.955-7.955-.994-.995A23.843 23.843 0 0024 0l-5.625 5.625L24 11.25c3.406 0 6.607 1.326 9.016 3.734z" fill="#CF2D48"/><path d="M24 11.25V0A23.844 23.844 0 007.027 7.03 24.36 24.36 0 004.95 9.395l8.091 8.091C15.27 13.755 19.348 11.25 24 11.25z" fill="#EB4132"/></svg>