<svg width="72" height="77" fill="none" xmlns="http://www.w3.org/2000/svg"><path fill-rule="evenodd" clip-rule="evenodd" d="M.214.395C.096.513 0 6.305 0 13.268v12.657h26.85l3.744-5.41c2.06-2.977 3.844-5.583 3.966-5.792.122-.209-.17-.948-.647-1.643l-.869-1.263-3.922 5.526-3.922 5.526-5.495.01a302.23 302.23 0 00-10.894.259l-5.4.247v-8.837l8.242-.102 8.242-.103.117-1.416.117-1.417-8.265-.102-8.264-.102-.108-3.893-.108-3.892h19.353V.483L12.979.422C7.612.387 2.593.319 1.825.27 1.057.22.332.277.215.395zm54.733 3.074v3.47h3.367l.117-1.614.116-1.614 3.2.12c1.76.067 3.752.352 4.427.635 3.24 1.357 3.035 6.115-.352 8.185-.942.576-1.908.74-4.338.742-3.082.001-3.126-.012-3.126-.948 0-.872-.14-.95-1.705-.95h-1.706v14.43h3.411v-9.379l3.62-.238c2.232-.147 4.23-.508 5.21-.943 5.995-2.657 6.49-11.378.803-14.137-1.54-.747-2.557-.89-7.414-1.047L54.947 0v3.47zm-23.226.347l4.658 8.537 2.842 5.203 1.828.008 1.828.007-1.13-1.993c-.62-1.097-2.444-4.383-4.054-7.303-1.61-2.92-3.203-5.685-3.541-6.145C33.41 1.121 32.13.483 30.85.483c-.941 0-.938.013.87 3.333zm8.081-1.585c-1.25 1.744-1.25 1.75-.616 3.085.35.735.7 1.273.777 1.195.548-.553 3.995-5.501 3.995-5.735 0-.161-.653-.293-1.451-.293-1.292 0-1.59.193-2.705 1.748zM0 41.495v12.91h48.625l-.234-7.573-.234-7.574-1.437-2.774-1.436-2.774-.101 8.829-.102 8.829H26.147v-8.734h16.674v-3.038H26.147V31.62h18.129l-.598-1.525-.598-1.525-10.266.101-10.267.101-.1 11.298-.1 11.297H3.41V28.584H0v12.91zm46.82-10.371l2.07 3.725c.348.627 2.218 4.02 4.155 7.54 1.937 3.52 3.905 6.846 4.373 7.39 1.418 1.653 2.301.862 5.283-4.728 1.434-2.687 3.388-6.253 4.342-7.923l1.736-3.038.1 10.158.102 10.158H72V28.584h-1.7c-2.04 0-1.742-.407-7.433 10.158-2.165 4.02-4.027 7.31-4.136 7.31-.19 0-1.308-1.976-7.087-12.532l-2.6-4.747-1.83-.117-1.83-.118 1.437 2.586zM18.19 73.203v3.607l1.8-.066 1.8-.066-1.611-.146c-1.593-.144-1.61-.161-1.61-1.62 0-1.423.048-1.479 1.42-1.623l1.421-.149-1.42-.063c-1.392-.063-1.422-.096-1.422-1.561 0-1.486.013-1.499 1.61-1.643l1.611-.145-1.8-.066-1.8-.067v3.608zm5.313-3.411c-.005.212.445 1.054.998 1.87l1.006 1.483-1.028 1.833c-.566 1.008-.944 1.832-.841 1.832.103 0 .57-.683 1.04-1.519.468-.835.959-1.519 1.09-1.519.132 0 .623.684 1.092 1.52.468.835.942 1.518 1.053 1.518.11 0-.267-.8-.84-1.779l-1.039-1.778 1.026-1.83c.564-1.005.942-1.828.839-1.828-.103 0-.57.684-1.04 1.52-.935 1.667-1.305 1.86-1.64.854-.293-.88-1.705-2.672-1.716-2.177zm6.687.056c-.14.14-.253 1.791-.253 3.671s.096 3.321.214 3.203c.118-.118.21-1.674.203-3.456-.012-3.05.038-3.251.827-3.405.793-.154.796-.165.05-.214-.434-.029-.903.062-1.041.201zm10.99 0c-.14.14-.254 1.763-.254 3.608v3.354l1.99-.068 1.99-.069-1.8-.142-1.8-.142v-1.475c0-1.425.048-1.48 1.42-1.625l1.421-.149-1.42-.063c-1.392-.063-1.422-.096-1.422-1.561 0-1.486.013-1.499 1.61-1.643l1.611-.145-1.547-.066c-.851-.037-1.661.047-1.8.186zm5.502 3.461L46.754 77l.212-3.418.213-3.417.8 1.731c.44.953 1.006 2.36 1.259 3.128.568 1.725 1.005 2.03 1.522 1.062.563-1.053.494-1.452-.108-.627-.455.624-.627.39-1.736-2.367-1.786-4.44-2.323-4.388-2.234.217zm6.465-3.24c-.544.686-2.026 4.173-1.849 4.35.083.083.554-.829 1.047-2.026l.897-2.177.213 3.392.212 3.392.072-3.702c.04-2.037.007-3.703-.072-3.703-.078 0-.312.214-.52.475zm-20.23.41c.294.357.444 1.127.348 1.783-.1.688-.03 1.016.174.811.527-.528.17-2.826-.47-3.036-.487-.159-.494-.095-.052.442zm3.16 3.008L36 76.81l1.61-.064 1.611-.063-1.406-.149-1.406-.148-.127-3.11-.128-3.111-.077 3.322z" fill="#000"/></svg>