<svg width="35" height="35" fill="none" xmlns="http://www.w3.org/2000/svg"><path d="M24.507 12.069a1.575 1.575 0 100-3.15 1.575 1.575 0 000 3.15zM17.5 10.76a6.74 6.74 0 100 13.479 6.74 6.74 0 000-13.478zm0 11.115a4.375 4.375 0 110-8.75 4.375 4.375 0 010 8.75z" fill="#000"/><path d="M17.5 6.74c3.504 0 3.92.013 5.304.076.832.01 1.656.163 2.437.452a4.347 4.347 0 012.491 2.492c.29.78.442 1.604.452 2.436.063 1.384.076 1.8.076 5.305 0 3.506-.013 3.919-.076 5.303a7.264 7.264 0 01-.452 2.437 4.347 4.347 0 01-2.491 2.491 7.248 7.248 0 01-2.437.452c-1.384.063-1.8.076-5.304.076-3.504 0-3.92-.013-5.304-.076a7.264 7.264 0 01-2.436-.452 4.348 4.348 0 01-2.492-2.491 7.265 7.265 0 01-.452-2.437c-.063-1.384-.076-1.8-.076-5.304 0-3.504.013-3.92.076-5.304.01-.832.163-1.656.452-2.436A4.348 4.348 0 019.76 7.268a7.265 7.265 0 012.436-.452c1.384-.063 1.8-.076 5.304-.076zm0-2.365c-3.565 0-4.012.015-5.412.079a9.633 9.633 0 00-3.185.61 6.711 6.711 0 00-3.839 3.84 9.633 9.633 0 00-.61 3.185c-.064 1.4-.079 1.845-.079 5.411s.015 4.012.079 5.412a9.633 9.633 0 00.61 3.185 6.711 6.711 0 003.84 3.839 9.63 9.63 0 003.185.61c1.4.064 1.846.079 5.411.079 3.564 0 4.012-.015 5.412-.079a9.631 9.631 0 003.186-.61 6.71 6.71 0 003.839-3.84 9.63 9.63 0 00.61-3.185c.063-1.4.078-1.845.078-5.411s-.015-4.012-.079-5.412a9.63 9.63 0 00-.61-3.185 6.71 6.71 0 00-3.84-3.839 9.633 9.633 0 00-3.185-.61c-1.4-.065-1.845-.079-5.411-.079z" fill="#000"/></svg>