<svg width="663" height="710" fill="none" xmlns="http://www.w3.org/2000/svg"><g opacity=".1"><path d="M565.169 548.495C435.392 710.68 225.603 758.471 96.593 655.239c-129.01-103.231-128.388-318.393 1.39-480.578C227.758 12.477 437.547-35.314 566.557 67.917c129.01 103.232 128.388 318.394-1.389 480.578z" fill="#A4508B"/><path d="M141.024 496.095a251.048 251.048 0 00-49.09 78.695c-2.153 5.911.894 12.448 6.805 14.6L419.81 706.296a11.39 11.39 0 0015.093-8.626c1.07-5.67 25.543-139.063 13.844-240.79a176.38 176.38 0 0110.617-74.765 703.243 703.243 0 0064.871 34.893l.791.324a11.389 11.389 0 0013.331-4.321c42.342-62.657 73.969-159.238 94.899-223.145 5.572-17.001 10.355-31.769 14.361-42.771a86.56 86.56 0 00-2.37-64.863 61.61 61.61 0 00-34.969-33.86L484.172 2.455a33.952 33.952 0 00-33.127 5.526 207.838 207.838 0 01-78.949 40.854 105.312 105.312 0 01-21.448 2.845c-29.075.658-54.44 19.915-62.887 47.744a80.238 80.238 0 005.212 61.886 62.507 62.507 0 00-7.567.409 51.367 51.367 0 00-37.837 22.987c-61.513 14.624-110.903 60.345-130.221 120.549-32.344 88.829-6.71 151.752 23.676 190.84zM465.313 25.721a11.39 11.39 0 0111.066-1.861l51.007 18.572c-9.774 19.92-35.154 59.928-76.176 44.991a295.708 295.708 0 01-50.196-23.865 252.852 252.852 0 0064.299-37.837zM309.42 106.486c5.425-18.696 22.393-31.68 41.857-32.032a127.568 127.568 0 0020.783-2.517 315.154 315.154 0 0071.41 36.91c53.415 19.45 89.968-25.144 105.556-58.535l19.168 6.979a607.017 607.017 0 00-88.736 211.946 394.892 394.892 0 00-47.924-24.444 202.28 202.28 0 01-38.449-20.339c-7.899-6.27-15.727-13.4-23.217-20.26a262.176 262.176 0 00-37.805-30.565c-20.959-15.361-30.02-42.226-22.643-67.143zm-21.402 77.82a48.501 48.501 0 0130.615 7.766c.771.61 1.613 1.125 2.509 1.532a256.23 256.23 0 0133.301 27.386c7.825 7.14 15.909 14.532 24.428 21.294a214.813 214.813 0 0043.244 23.249c29.661 13.382 63.302 28.552 81.738 56.817a11.39 11.39 0 1019.077-12.448 120.573 120.573 0 00-23.072-25.65 575.742 575.742 0 0190.255-218.98l12.372 4.505a39.863 39.863 0 0122.052 21.86 64.918 64.918 0 011.808 47.434c-4.162 11.43-9.078 26.428-14.705 43.713-19.62 59.91-48.824 149.071-86.748 209.251-31.097-15.432-138.13-72.319-216.05-160.291a100.567 100.567 0 00-38.47-39.257 29.308 29.308 0 0117.626-8.127l.02-.054zm-38.449 23.637l.16.058A76.482 76.482 0 01289.022 243c.463.984 1.06 1.899 1.774 2.718a705.544 705.544 0 00148.536 124 201.96 201.96 0 00-13.272 89.713c9.268 80.175-5.426 184.316-11.299 220.784l-296.98-108.134a227.713 227.713 0 0138.365-58.759 262.687 262.687 0 0097.511 61.566 284.39 284.39 0 0030.245 9.146 11.394 11.394 0 0013.616-14.28 11.39 11.39 0 00-8.245-7.861 242.31 242.31 0 01-124.219-72.37c-29.091-33.623-57.247-91.487-26.302-176.474 20.291-55.728 57.688-90.887 110.817-105.106z" fill="#fff"/><path d="M198.079 434.48c4.232 7.286 8.728 15.044 13.404 23.341a11.39 11.39 0 0013.913 5.066c8.916-3.348 17.348-6.399 25.274-9.258 46.646-16.786 77.361-27.905 88.475-58.428a52.223 52.223 0 00-29.619-68.458 54.754 54.754 0 00-43.323 2.468 54.754 54.754 0 00-31.594-29.746 52.225 52.225 0 00-66.702 33.386c-11.114 30.523 5.261 58.789 30.172 101.629zm28.736-113.61a35.215 35.215 0 0121.63 27.415 11.39 11.39 0 007.359 9.285l.064.024c4.02 1.445 8.51.533 11.649-2.365a35.207 35.207 0 0134.215-7.081 29.396 29.396 0 0116.008 39.259c-7.466 20.506-32.799 29.658-74.776 44.81-5.263 1.902-10.743 3.87-16.439 5.966-3.016-5.268-5.948-10.299-8.755-15.14-22.407-38.595-35.925-61.893-28.458-82.398a29.395 29.395 0 0137.503-19.775z" fill="#fff"/></g></svg>