<svg width="48" height="52" fill="none" xmlns="http://www.w3.org/2000/svg"><path fill-rule="evenodd" clip-rule="evenodd" d="M17.87 3.466C2.79 10.927-7.19 65.836 31.426 47.79c22.1-10.319 20.968-61.409-13.556-44.325z" fill="#F6E6E3"/><path d="M.406 27.417a.284.284 0 01.564.058 15.6 15.6 0 00-.043.502C.574 33.006 2.607 38.111 6.19 42.11c3.589 4.005 8.73 6.899 14.584 7.498.225.023.458.043.699.06h.004c6.397.563 11.94-1.288 16.24-4.534 4.812-3.631 8.073-9.006 9.242-14.697.711-3.464.56-7.058-.361-10.464a23.574 23.574 0 00-5-9.36c-.426-.485-.869-.95-1.326-1.392-4.329-4.184-9.957-6.331-15.65-6.427a23.738 23.738 0 00-17.514 7.274c-2.873 2.973-4.969 6.397-5.94 9.371C.72 20.807.514 22.075.58 23.151c.064 1.043.385 1.902.995 2.492.313.303.705.537 1.18.693 1.034.337 2.123.345 3.165.107a7.634 7.634 0 003.12-1.553l.206-.172c.8-.661 1.763-1.458 2.841-2.15 3.11-1.996 7.088-3.088 10.607 2.393 1.02 1.59 1.834 3.296 1.797 4.919-.038 1.658-.944 3.202-3.376 4.409-.226.112-.387.044-.496-.174l-.012-.03c-.128-.318-.05-1.17.04-2.148.128-1.395.282-3.07-.028-3.346-.052-.046-.213.07-.536.432-.002.003.007.09.01.171.006.165.012.312-.097.436-.16.184-.395.18-.818-.191-.002-.002-.027.012-.067.024l-.015.003a.14.14 0 00-.03.015c.004.01.017.03.042.066.114.16.168.31.166.433a.37.37 0 01-.14.296.412.412 0 01-.288.086h-.001a.983.983 0 01-.4-.136l-.003.09c-.008.261-.016.525-.168.67-.114.11-.245.146-.398.077l-.002.009c-.036.203-.069.383-.231.463h-.002c-.048.044.024.633.125 1.461.282 2.304.756 6.184-2.352 8.024-.41.243-1.305.274-2.246.306-1.12.038-2.316.08-2.515.408-.2.33.559 1.104 3.332 2.787 1.776 1.076 3.06-.224 4.105-1.282.523-.53.992-1.004 1.482-1.174.774-.267 1.464.171 2.147 2.145.383 1.106 1.273 1.96 2.393 2.46a6.002 6.002 0 003.888.32c4.093-1.04 6.631-2.842 8.345-5.216 1.723-2.388 2.629-5.373 3.442-8.75a4.816 4.816 0 01.818-1.77c.426-.58 1.037-1.16 1.918-1.747a5.247 5.247 0 001.16-1.055c1.067-1.307 1.535-3.115 1.46-5.015a11.066 11.066 0 00-1.827-5.608 9.63 9.63 0 00-1.917-2.13l-.075-.06c-2.047-1.642-4.668-2.544-7.226-2.486-2.543.058-5.023 1.07-6.806 3.256l-.052.064c-2.683 3.347-1.65 5.32-.695 7.146.858 1.64 1.66 3.173.092 5.373-.049.07.43.584 1.156 1.237.396.357.87.731 1.387 1.078.516.345 1.08.664 1.659.913 1.636.703 3.387.824 4.47-.72.48-.684 1.344-.694 2.205-.703.713-.008 1.423-.015 1.72-.46.8-1.2.965-1.933.811-2.354a.642.642 0 00-.354-.365 1.456 1.456 0 00-.641-.107c-.477.016-.93.169-.988.336a.283.283 0 01-.535-.185c.127-.368.818-.695 1.505-.718.309-.01.624.035.895.158.293.133.53.354.652.688.21.574.045 1.485-.874 2.863-.462.693-1.322.702-2.187.711-.714.008-1.433.016-1.745.461-1.284 1.833-3.295 1.718-5.159.918a11.015 11.015 0 01-1.75-.965 12.992 12.992 0 01-1.452-1.126c-.945-.852-1.455-1.683-1.237-1.988 1.365-1.918.642-3.302-.133-4.783-1.038-1.984-2.16-4.127.756-7.764l.053-.065c1.898-2.327 4.534-3.404 7.236-3.466 2.688-.06 5.443.887 7.593 2.61l.076.062a10.205 10.205 0 012.034 2.257 11.64 11.64 0 011.92 5.9c.08 2.032-.428 3.976-1.586 5.395a5.823 5.823 0 01-1.287 1.171c-.822.547-1.385 1.08-1.774 1.609a4.26 4.26 0 00-.725 1.566c-.828 3.439-1.754 6.484-3.533 8.95-1.79 2.48-4.428 4.359-8.665 5.435a6.574 6.574 0 01-4.26-.352c-1.257-.562-2.26-1.53-2.698-2.794-.54-1.563-.983-1.946-1.426-1.793-.363.125-.788.556-1.262 1.036-1.186 1.201-2.645 2.677-4.803 1.368-3.14-1.904-3.897-2.95-3.524-3.564.36-.593 1.713-.639 2.982-.682.865-.03 1.687-.058 1.975-.228 2.787-1.65 2.341-5.299 2.076-7.465-.128-1.051-.22-1.8.165-2.026l.03-.017c.097-.047-.089.001-.08-.051.035-.192.074-.41.198-.528.112-.108.232-.147.36-.087l.001-.058c.007-.232.014-.465.12-.612.127-.179.293-.233.518-.09a.541.541 0 01.196-.557.71.71 0 01.216-.114l.03-.01c.196-.057.427-.031.57.075a.563.563 0 01.134-.346c.593-.666 1.023-.759 1.338-.479.523.466.354 2.298.215 3.822-.066.71-.124 1.346-.114 1.671 2.03-1.073 2.794-2.392 2.826-3.79.034-1.486-.74-3.09-1.708-4.6-3.26-5.08-6.945-4.07-9.822-2.223-1.046.671-1.997 1.458-2.786 2.11l-.207.171a8.206 8.206 0 01-3.354 1.67c-1.138.26-2.33.25-3.467-.121a3.577 3.577 0 01-1.399-.824C.463 25.357.086 24.37.013 23.185c-.07-1.149.146-2.487.615-3.921.996-3.05 3.138-6.555 6.071-9.59.482-.498.982-.973 1.496-1.423A24.303 24.303 0 0124.63 2.227c5.834.098 11.6 2.298 16.035 6.585.468.452.921.928 1.36 1.428a24.146 24.146 0 015.122 9.586c.943 3.488 1.097 7.171.368 10.724-1.196 5.823-4.533 11.323-9.456 15.038-4.407 3.326-10.083 5.224-16.63 4.647a24.074 24.074 0 01-.712-.062c-6.002-.614-11.271-3.58-14.95-7.685-3.681-4.11-5.77-9.365-5.407-14.549a16.2 16.2 0 01.046-.522zm19.163 1.84c.021-.025.008-.021-.01-.02-.011.035-.017.05.01.02z" fill="#B47251"/><path d="M17.255 38.384c1.954-2.333 6.302-7.391 7.375-.832 1.623 9.925 2.138 2.084 4.325 3.642.569.406 3.277-.344 3.42-.969.027 0-4.106 1.235-5.311-2.247-2.75-7.946.908.91 4.212-3.73 1.103-1.549-7.295-5.953-6.068.07" stroke="#B06D4C" stroke-width=".569" stroke-miterlimit="22.926" stroke-linecap="round" stroke-linejoin="round"/></svg>