<svg width="547" height="174" viewBox="0 0 547 174" fill="none" xmlns="http://www.w3.org/2000/svg">
<g clip-path="url(#clip0)">
<path d="M13.0211 1.76822C13.1003 0.886433 13.4172 0.188904 13.8794 0.188904C14.3679 0.188904 14.6848 0.478444 15.0941 1.37339L39.4681 51.3849L62.9178 1.46551C63.2479 0.741663 63.5648 0.188904 64.1062 0.188904C64.7003 0.188904 64.938 0.83379 65.07 2.33414L70.4043 51.1217C70.7608 54.004 71.289 58.4655 74.7087 59.5579C77.0194 60.2817 78.8811 60.2817 79.6601 60.2817C80.0694 60.2817 80.5183 60.3607 80.5183 60.7687C80.5183 61.2293 80.3071 61.3873 79.33 61.3873C77.6003 61.3873 68.4766 61.1504 65.5454 60.9135C63.7101 60.7687 63.3139 60.5055 63.3139 60.1238C63.3139 59.7948 63.4724 59.7158 63.8817 59.5579C64.4231 59.3473 64.3702 58.1365 64.1986 56.6888L60.3695 15.2187L40.5904 57.0178C38.9267 60.5186 38.6759 61.2293 37.9761 61.2293C37.3819 61.2293 36.999 60.4397 35.4674 57.5838C33.4208 53.6881 26.5549 39.9349 26.1456 39.1321C25.4458 37.7107 16.2428 18.0746 15.3714 15.9425L12.1365 53.3591C12.0573 54.6357 11.978 55.7149 11.978 57.0968C11.978 59.0973 12.9551 59.729 14.1302 59.9659C15.477 60.2949 16.5201 60.2949 17.0086 60.2949C17.4972 60.2949 17.7877 60.4397 17.7877 60.6766C17.7877 61.2425 17.4047 61.4004 16.5993 61.4004C13.6417 61.4004 9.57496 61.1635 8.95439 61.1635C8.22819 61.1635 4.39912 61.4004 2.24692 61.4004C1.4415 61.3873 0.900146 61.3215 0.900146 60.7687C0.900146 60.4397 1.28305 60.2817 1.67916 60.2817C2.32614 60.2817 2.86749 60.2817 4.08223 60.0448C6.72297 59.5579 6.85501 56.6888 7.26432 53.4381L13.0211 1.76822Z" fill="#1F1F1D"/>
<path d="M99.2941 37.9608C98.8847 37.9608 98.6471 38.1845 98.4886 38.5794L93.7221 52.6352C92.9959 54.6357 92.5866 56.5572 92.5866 57.9786C92.5866 59.5579 94.0918 60.2817 95.465 60.2817H96.1648C96.9702 60.2817 97.2079 60.4265 97.2079 60.7687C97.2079 61.2293 96.4817 61.3873 95.7819 61.3873C93.8409 61.3873 90.6589 61.1504 89.8006 61.1504C88.916 61.1504 84.5191 61.3873 80.7825 61.3873C79.7394 61.3873 79.2773 61.2293 79.2773 60.7687C79.2773 60.4397 79.6602 60.2817 80.3864 60.2817C80.9542 60.2817 81.6804 60.2028 82.3009 60.1238C85.9583 59.6369 87.5824 56.6098 89.0084 52.6352L107.111 3.28172C108.075 0.662697 108.378 0.188904 108.88 0.188904C109.342 0.188904 109.659 0.596893 110.61 3.04483C111.798 6.04552 124.315 38.9215 129.187 50.9901C132.066 58.0575 134.389 59.3473 136.053 59.8079C137.241 60.2159 138.535 60.2949 139.156 60.2949C139.645 60.2949 140.041 60.3739 140.041 60.7819C140.041 61.2425 139.341 61.4004 138.456 61.4004C137.241 61.4004 131.432 61.4004 125.939 61.2425C124.434 61.1635 123.562 61.1635 123.562 60.6766C123.562 60.387 123.774 60.2159 124.13 60.137C124.592 59.979 125.068 59.2552 124.592 57.9917L117.159 38.4214C117.027 38.1319 116.842 37.9608 116.485 37.9608H99.2941ZM115.403 35.0785C115.812 35.0785 115.812 34.8417 115.719 34.5126L108.154 13.0603C107.744 11.8758 107.348 11.8758 106.939 13.0603L99.941 34.5258C99.7826 34.9338 99.941 35.0917 100.152 35.0917H115.403V35.0785Z" fill="#1F1F1D"/>
<path d="M214.932 38.3294C214.932 45.9759 214.932 52.2668 215.341 55.5834C215.552 57.8865 216.067 59.637 218.444 59.9528C219.606 60.1107 221.322 60.2818 222.049 60.2818C222.537 60.2818 222.695 60.5056 222.695 60.7688C222.695 61.1505 222.286 61.3874 221.402 61.3874C217.044 61.3874 212 61.1505 211.604 61.1505C211.195 61.1505 206.191 61.3874 203.761 61.3874C202.903 61.3874 202.494 61.2294 202.494 60.7688C202.494 60.5187 202.652 60.2818 203.141 60.2818C203.867 60.2818 204.804 60.1239 205.531 59.9528C207.115 59.637 207.524 57.8865 207.841 55.5834C208.251 52.2537 208.251 45.9759 208.251 38.3294V4.71635C204.316 4.79532 200.328 4.79532 196.433 4.88744C191.508 4.94009 189.567 5.50601 188.326 7.4275C187.442 8.76992 187.191 9.32268 186.953 9.8886C186.715 10.5203 186.465 10.6914 186.148 10.6914C185.91 10.6914 185.765 10.4414 185.765 9.96756C185.765 9.17791 187.323 2.34738 187.521 1.68933C187.653 1.2287 188.009 0.202148 188.326 0.202148C188.868 0.202148 189.647 0.978644 191.825 1.14974C194.136 1.37347 197.16 1.55773 198.123 1.55773H228.017C230.578 1.55773 232.374 1.38663 233.668 1.14974C234.882 0.978644 235.609 0.741747 235.899 0.741747C236.308 0.741747 236.308 1.2287 236.308 1.67617C236.308 4.08463 236.071 9.55958 236.071 10.4282C236.071 11.1652 235.833 11.4811 235.503 11.4811C235.12 11.4811 234.935 11.231 234.882 10.1387C234.882 9.80963 234.803 9.55958 234.803 9.25687C234.539 6.87474 232.651 5.04537 225.006 4.9006C221.639 4.80848 218.299 4.80848 214.932 4.72951V38.3294Z" fill="#1F1F1D"/>
<path d="M253.064 24.3656C253.064 11.9548 253.064 9.74377 252.879 7.17738C252.747 4.49255 252.1 3.20278 249.486 2.65002C248.918 2.49209 247.875 2.49209 247.175 2.41312C246.607 2.34732 246.132 2.26835 246.132 1.93933C246.132 1.45238 246.541 1.29444 247.426 1.29444C249.261 1.29444 251.413 1.29444 256.418 1.53134C256.985 1.53134 272.869 1.53134 274.678 1.45238C276.461 1.37341 277.887 1.22864 278.362 0.965421C278.824 0.741685 278.983 0.66272 279.22 0.66272C279.458 0.66272 279.537 0.965421 279.537 1.37341C279.537 1.93933 279.075 2.88692 278.89 5.11112C278.811 6.30876 278.732 7.79595 278.573 9.87538C278.494 10.6782 278.283 11.2178 277.926 11.2178C277.438 11.2178 277.306 10.8361 277.306 10.1912C277.306 9.16469 277.147 8.20394 276.896 7.55905C276.355 5.72968 274.665 4.92686 271.166 4.62416C269.819 4.47939 261.144 4.40043 260.233 4.40043C259.943 4.40043 259.771 4.62416 259.771 5.19008V27.1162C259.771 27.6953 259.824 27.919 260.233 27.919C261.29 27.919 271.087 27.919 272.922 27.7743C275.101 27.59 276.131 27.3663 276.91 26.4055C277.319 25.9449 277.557 25.629 277.874 25.629C278.111 25.629 278.283 25.7738 278.283 26.2476C278.283 26.7345 277.873 28.077 277.636 30.7091C277.398 33.1834 277.398 34.9996 277.319 36.1315C277.24 36.9079 277.081 37.3028 276.751 37.3028C276.263 37.3028 276.183 36.671 276.183 36.0393C276.183 35.3286 276.131 34.5258 275.893 33.8151C275.563 32.6175 274.625 31.512 271.747 31.1829C269.595 30.9592 261.699 30.7881 260.352 30.7881C259.943 30.7881 259.784 31.025 259.784 31.354V38.3293C259.784 41.0405 259.705 50.2663 259.784 51.9377C259.943 55.1753 260.405 56.9257 262.399 57.7286C263.772 58.2813 265.924 58.4524 269.027 58.4524C271.457 58.4524 274.058 58.3734 276.197 57.7286C278.758 56.9257 279.643 55.2543 280.29 51.8456C280.448 50.977 280.62 50.648 280.99 50.648C281.478 50.648 281.478 51.2797 281.478 51.8456C281.478 52.4773 280.858 57.8865 280.448 59.5448C279.88 61.611 279.233 61.611 276.144 61.611C270.242 61.611 267.614 61.4531 264.485 61.3741C261.303 61.3083 257.645 61.1372 254.516 61.1372C252.602 61.1372 250.661 61.4531 248.614 61.3741C247.756 61.3741 247.347 61.2162 247.347 60.7556C247.347 60.5055 247.756 60.3476 248.231 60.2686C249.01 60.1896 249.499 60.1896 250.067 60.0186C251.704 59.6237 252.76 58.5314 252.892 52.5431C252.971 49.4503 253.077 45.3968 253.077 38.3162V24.3656H253.064Z" fill="#1F1F1D"/>
<path d="M299.95 24.3656C299.95 11.9548 299.95 9.74379 299.792 7.1774C299.66 4.47941 299.013 3.2028 296.372 2.65004C295.725 2.49211 294.378 2.41314 293.678 2.41314C293.348 2.41314 293.005 2.26837 293.005 1.93935C293.005 1.46556 293.414 1.29446 294.299 1.29446C297.877 1.29446 302.921 1.54452 303.291 1.54452C304.175 1.54452 310.262 1.29446 312.718 1.29446C317.749 1.29446 323.083 1.78142 327.308 4.79527C329.302 6.22982 332.801 10.1386 332.801 15.6004C332.801 21.5097 330.318 27.3794 323.162 33.9599C329.685 42.304 335.111 49.3845 339.746 54.3331C344.05 58.8736 347.47 59.729 349.464 60.0449C350.995 60.2818 352.105 60.2818 352.567 60.2818C352.976 60.2818 353.293 60.5055 353.293 60.7688C353.293 61.2294 352.831 61.3873 351.405 61.3873H345.727C341.251 61.3873 339.257 60.9793 337.184 59.887C333.765 58.0576 330.965 54.1751 326.437 48.2132C323.07 43.8438 319.333 38.5004 317.735 36.4473C317.405 36.1446 317.168 35.9604 316.679 35.9604L306.882 35.8156C306.473 35.8156 306.314 36.0393 306.314 36.4473V38.3425C306.314 45.989 306.314 52.2799 306.71 55.5965C306.948 57.8997 307.437 59.6501 309.813 59.9659C310.949 60.1239 312.692 60.295 313.418 60.295C313.906 60.295 314.038 60.5187 314.038 60.7819C314.038 61.1636 313.629 61.4005 312.771 61.4005C308.414 61.4005 303.343 61.1636 302.947 61.1636C302.894 61.1636 297.864 61.4005 295.487 61.4005C294.603 61.4005 294.193 61.2425 294.193 60.7819C294.193 60.5319 294.352 60.295 294.814 60.295C295.566 60.295 296.504 60.137 297.204 59.9659C298.788 59.6501 299.224 57.8997 299.514 55.5965C299.924 52.2668 299.924 45.989 299.924 38.3425V24.3656H299.95ZM306.327 31.2751C306.327 31.6568 306.486 31.9858 306.895 32.2358C308.11 32.9334 311.741 33.473 315.266 33.473C317.181 33.473 319.386 33.2624 321.248 31.9858C324.047 30.0906 326.12 25.787 326.12 19.7593C326.12 9.79643 320.838 3.83453 312.309 3.83453C309.945 3.83453 307.753 4.08458 306.974 4.3478C306.565 4.47941 306.327 4.80844 306.327 5.28223V31.2751Z" fill="#1F1F1D"/>
<path d="M356.739 60.374C355.604 59.808 355.524 59.4922 355.524 57.3601C355.524 53.3723 355.881 50.1874 355.934 48.9239C356.013 48.0553 356.198 47.6605 356.581 47.6605C357.069 47.6605 357.148 47.8974 357.148 48.516C357.148 49.2398 357.148 50.3453 357.36 51.4772C358.574 57.3601 363.856 59.5711 369.177 59.5711C376.822 59.5711 380.572 54.0962 380.572 48.9897C380.572 43.5148 378.261 40.3167 371.422 34.6838L367.843 31.7358C359.393 24.8394 357.452 19.9172 357.452 14.4949C357.452 5.99296 363.856 0.202148 373.957 0.202148C377.086 0.202148 379.397 0.491689 381.39 0.978644C382.896 1.29451 383.543 1.38663 384.163 1.38663C384.837 1.38663 384.969 1.55773 384.969 1.95255C384.969 2.36054 384.639 4.95325 384.639 10.3756C384.639 11.639 384.507 12.2049 384.097 12.2049C383.609 12.2049 383.529 11.7969 383.45 11.1915C383.371 10.2176 382.882 8.07239 382.394 7.19061C381.905 6.33515 379.78 2.99227 372.425 2.99227C366.932 2.99227 362.628 6.41411 362.628 12.2181C362.628 16.7454 364.701 19.6014 372.372 25.5633L374.604 27.34C384.005 34.7233 386.236 39.6455 386.236 46.0285C386.236 49.2793 384.942 55.3202 379.45 59.2026C376.03 61.5979 371.725 62.5324 367.408 62.5324C363.671 62.4929 360 61.9533 356.739 60.374Z" fill="#1F1F1D"/>
<path d="M409.607 35.4865C409.607 46.9497 412.168 51.8587 415.615 55.1227C419.496 58.7551 423.101 59.4789 427.656 59.4789C432.528 59.4789 437.295 57.1758 440.173 53.7539C443.831 49.2266 444.781 42.4882 444.781 34.2757V24.3524C444.781 11.9416 444.781 9.73057 444.649 7.16419C444.491 4.47936 443.844 3.18959 441.203 2.63683C440.583 2.4789 439.209 2.39993 438.51 2.39993C438.153 2.39993 437.863 2.25516 437.863 1.92614C437.863 1.43918 438.272 1.28125 439.13 1.28125C442.708 1.28125 447.105 1.53131 447.581 1.53131C448.148 1.53131 451.885 1.28125 454.288 1.28125C455.146 1.28125 455.556 1.43918 455.556 1.92614C455.556 2.242 455.239 2.39993 454.935 2.39993C454.367 2.39993 453.879 2.4789 452.915 2.63683C450.789 3.11062 450.142 4.40039 450.01 7.16419C449.825 9.73057 449.825 11.9416 449.825 24.3524V32.8543C449.825 41.4484 448.861 50.9901 442.497 56.6098C436.74 61.7163 430.759 62.4928 426.045 62.4928C423.352 62.4928 415.298 62.2032 409.62 56.8731C405.738 53.1222 402.701 47.5551 402.701 35.9603V24.3655C402.701 11.9548 402.701 9.74373 402.543 7.17735C402.384 4.49252 401.764 3.20275 399.097 2.64999C398.476 2.49206 397.103 2.41309 396.403 2.41309C396.086 2.41309 395.756 2.26832 395.756 1.9393C395.756 1.45234 396.166 1.29441 397.024 1.29441C400.628 1.29441 405.514 1.54447 406.2 1.54447C406.9 1.54447 411.719 1.29441 414.096 1.29441C414.981 1.29441 415.39 1.45234 415.39 1.9393C415.39 2.25516 415.06 2.41309 414.743 2.41309C414.175 2.41309 413.726 2.49206 412.749 2.64999C410.597 2.97901 409.95 4.41355 409.818 7.17735C409.633 9.74373 409.633 11.9548 409.633 24.3655V35.4865H409.607Z" fill="#1F1F1D"/>
<path d="M473.486 24.3656C473.486 11.9548 473.486 9.74378 473.354 7.1774C473.195 4.49256 472.39 3.12383 470.634 2.75532C469.776 2.50526 468.719 2.4263 468.152 2.4263C467.822 2.4263 467.531 2.28153 467.531 1.9525C467.531 1.46555 467.94 1.30762 468.799 1.30762C471.439 1.30762 476.444 1.54451 476.853 1.54451C477.262 1.54451 482.266 1.30762 484.656 1.30762C485.514 1.30762 485.924 1.46555 485.924 1.9525C485.924 2.26837 485.633 2.4263 485.303 2.4263C484.735 2.4263 484.247 2.50526 483.309 2.66319C481.157 3.07118 480.51 4.42676 480.352 7.19056C480.193 9.73062 480.193 11.9417 480.193 24.3656V38.3425C480.193 45.989 480.193 52.2799 480.603 55.5965C480.84 57.8997 481.329 59.6501 483.706 59.9659C484.841 60.1238 486.505 60.2949 486.993 60.2949C487.719 60.2949 487.957 60.5187 487.957 60.7819C487.957 61.1636 487.64 61.4005 486.742 61.4005C482.359 61.4005 477.262 61.1636 476.853 61.1636C476.444 61.1636 471.439 61.4005 469.049 61.4005C468.165 61.4005 467.756 61.2425 467.756 60.7819C467.756 60.5318 467.94 60.2949 468.614 60.2949C469.129 60.2949 470.013 60.216 470.713 60.0449C472.298 59.7422 472.786 57.9128 473.116 55.6096C473.499 52.2799 473.499 46.0022 473.499 38.3557V24.3656H473.486Z" fill="#1F1F1D"/>
<path d="M525.588 38.3294C525.588 45.9759 525.588 52.2668 525.971 55.5834C526.208 57.8865 526.697 59.637 529.1 59.9528C530.209 60.1107 531.952 60.2818 532.678 60.2818C533.167 60.2818 533.299 60.5056 533.299 60.7688C533.299 61.1505 532.916 61.3874 532.057 61.3874C527.647 61.3874 522.63 61.1505 522.26 61.1505C521.851 61.1505 516.82 61.3874 514.417 61.3874C513.533 61.3874 513.123 61.2294 513.123 60.7688C513.123 60.5187 513.308 60.2818 513.77 60.2818C514.497 60.2818 515.46 60.1239 516.16 59.9528C517.745 59.637 518.154 57.8865 518.471 55.5834C518.88 52.2537 518.88 45.9759 518.88 38.3294V4.71635C514.945 4.79532 510.984 4.79532 507.063 4.88744C502.138 4.94009 500.197 5.50601 498.929 7.4275C498.071 8.76992 497.82 9.32268 497.583 9.8886C497.345 10.5203 497.094 10.6914 496.777 10.6914C496.566 10.6914 496.368 10.4414 496.368 9.96756C496.368 9.17791 497.952 2.34738 498.15 1.68933C498.309 1.2287 498.639 0.202148 498.929 0.202148C499.497 0.202148 500.276 0.978644 502.428 1.14974C504.739 1.37347 507.789 1.55773 508.753 1.55773H538.646C541.208 1.55773 543.03 1.38663 544.324 1.14974C545.512 0.978644 546.212 0.741747 546.555 0.741747C546.964 0.741747 546.964 1.2287 546.964 1.67617C546.964 4.08463 546.7 9.55958 546.7 10.4282C546.7 11.1652 546.463 11.4811 546.133 11.4811C545.75 11.4811 545.591 11.231 545.512 10.1387C545.512 9.80963 545.433 9.55958 545.433 9.25687C545.195 6.87474 543.281 5.04537 535.609 4.9006C532.269 4.80848 528.928 4.80848 525.588 4.72951V38.3294Z" fill="#1F1F1D"/>
<path d="M394.7 32.7886C394.198 33.8283 393.736 34.8285 392.653 35.4865C391.016 36.4868 389.247 36.1709 387.966 35.0654C387.689 34.8285 387.543 34.8022 387.134 34.8943C384.401 35.5392 382.275 37.1975 380.189 38.8952C377.971 40.6983 376.017 42.7777 374.062 44.8571C372.201 46.8444 370.471 48.9633 368.728 51.0691C366.668 53.5434 364.688 56.0834 362.707 58.6235C360.74 61.1635 358.825 63.7431 356.858 66.2963C355.736 67.7703 354.574 69.2049 353.438 70.6657C353.029 71.1922 352.739 71.1395 352.29 70.6789C350.969 69.3102 350.758 67.2834 351.801 65.6909C354.93 60.874 358.442 56.3335 361.77 51.6613C364.265 48.1605 366.893 44.7518 369.586 41.3958C371.21 39.369 372.887 37.3817 374.63 35.4602C375.832 34.131 377.099 32.8675 378.38 31.6172C380.638 29.4194 383.133 27.5373 386.157 26.445C386.395 26.3529 386.738 26.4845 386.896 26.1818C387.953 26.1818 388.996 26.1818 390.052 26.1818C392.402 27.0899 393.855 28.8403 394.7 31.1434C394.7 31.683 394.7 32.2358 394.7 32.7886Z" fill="#A69479"/>
<path d="M237.325 152.395C235.569 155.067 233.773 157.686 231.582 160.015C230.684 160.976 229.641 161.871 228.333 162.332C227.29 162.7 226.485 162.358 225.719 161.66C224.135 160.226 223.29 158.383 222.973 156.317C222.616 154.001 222.775 151.698 223.078 149.381C223.554 145.696 224.584 142.156 225.772 138.655C227.568 133.325 229.958 128.258 232.585 123.296C233.655 121.283 234.843 119.322 236.071 117.387C236.507 116.703 237.087 116.11 237.404 115.294C236.982 115.334 236.85 115.623 236.639 115.821C233.721 118.585 231.08 121.599 228.479 124.639C225.336 128.297 222.299 132.048 219.329 135.852C216.635 139.313 213.915 142.748 211.248 146.236C208.277 150.131 205.293 154.014 202.243 157.857C199.325 161.529 196.235 165.056 192.802 168.28C191.39 169.61 189.818 170.781 188.115 171.663C186.267 172.623 184.246 172.545 182.253 171.781C179.269 170.623 177.605 168.28 176.285 165.543C175.083 163.055 174.423 160.41 174.225 157.699C174.027 155.133 174.08 152.527 174.304 149.934C174.568 146.973 175.136 144.077 175.822 141.195C176.932 136.589 178.476 132.14 180.285 127.771C181.632 124.494 183.137 121.296 184.775 118.164C187.217 113.505 190.188 109.175 193.278 104.924C195.166 102.318 197.252 99.883 199.576 97.6719C201.358 95.9873 203.339 94.5791 205.689 93.8421C209.518 92.6445 213.162 94.2501 214.272 98.8301C215.394 103.45 214.707 107.977 212.74 112.267C211.948 113.991 210.72 115.479 208.924 116.295C206.851 117.229 204.857 116.821 202.996 115.676C201.688 114.873 200.46 113.991 200.157 112.281C199.814 110.359 201.319 108.385 203.114 108.227C204.184 108.122 205.201 108.319 205.993 109.122C206.336 109.464 206.415 109.24 206.547 108.951C207.643 106.411 207.96 103.765 207.498 101.041C207.392 100.409 206.996 100.673 206.719 100.857C206.138 101.265 205.584 101.712 205.042 102.173C202.52 104.305 200.46 106.845 198.493 109.477C197.41 110.925 196.262 112.333 195.337 113.899C193.964 116.203 192.882 118.664 191.772 121.098C190.426 124.06 189.224 127.1 188.181 130.179C187.191 133.141 186.201 136.089 185.408 139.116C184.709 141.787 184.088 144.485 183.665 147.223C183.401 148.934 183.071 150.658 183.098 152.421C183.111 153.237 182.886 154.04 182.939 154.869C183.032 156.58 183.177 158.291 183.665 159.949C183.903 160.765 184.352 161.437 185.012 161.963C185.699 162.516 186.425 162.647 187.296 162.239C189 161.45 190.333 160.2 191.68 158.976C193.251 157.541 194.77 156.041 196.196 154.475C198.493 151.974 200.83 149.513 203.009 146.907C204.356 145.288 205.821 143.775 207.221 142.182C208.858 140.313 210.416 138.366 212.093 136.536C213.374 135.141 214.575 133.693 215.83 132.272C217.638 130.219 219.408 128.14 221.217 126.1C222.326 124.849 223.461 123.625 224.597 122.388C227.541 119.164 230.499 115.952 233.509 112.794C235.675 110.517 237.867 108.266 240.138 106.095C243.531 102.844 247.109 99.7908 251.044 97.1981C252.443 96.2769 253.896 95.4214 255.427 94.7239C258.24 93.4473 261.105 93.9211 263.336 96.0795C264.287 97.0007 264.736 98.2115 264.921 99.4881C265.462 103.357 264.247 106.977 263.178 110.596C262.795 111.912 262.821 113.241 262.61 114.571C262.333 116.255 262.108 117.953 261.976 119.664C261.91 120.454 261.792 121.23 261.765 122.033C261.699 124.494 261.514 126.955 261.382 129.416C261.277 131.522 261.382 133.614 261.25 135.904C262.24 134.47 263.086 133.193 263.983 131.93C266.017 129.087 267.865 126.139 269.318 122.954C271.008 119.269 272.83 115.637 274.612 112.004C277.055 107.056 279.59 102.147 282.323 97.3429C284.093 94.2501 285.888 91.1704 287.869 88.2092C289.876 85.2085 291.922 82.2078 294.246 79.4177C296.042 77.2461 297.877 75.1009 299.805 73.0478C302.829 69.8234 306.103 66.9016 309.562 64.151C311.807 62.3743 314.105 60.6634 316.534 59.1498C320.601 56.6098 324.773 54.2671 329.091 52.1614C330.517 51.4639 331.956 51.0954 333.501 50.8321C335.046 50.5689 336.406 49.7529 337.634 48.7659C338.082 48.3974 338.571 48.3052 339.099 48.3974C340.644 48.6869 341.964 50.082 342.083 51.6613C342.162 52.7273 341.489 54.4777 339.707 55.2147C336.656 56.4782 333.646 57.8338 330.662 59.2551C326.173 61.4004 321.895 63.8746 317.881 66.7964C315.174 68.7705 312.52 70.8236 310.038 73.0873C307.978 74.9693 305.971 76.8908 304.083 78.9439C300.624 82.6948 297.336 86.6036 294.59 90.9204C291.83 95.2372 289.097 99.5803 286.733 104.147C286.258 105.068 285.743 105.963 285.215 106.924C287.129 106.595 289.004 106.279 290.853 105.95C293.401 105.49 295.949 104.976 298.511 104.542C299.092 104.45 299.277 104.16 299.409 103.673C300.637 99.2907 302.01 94.9476 303.74 90.7229C304.941 87.7749 306.169 84.84 307.635 82.0236C309.338 78.7333 311.371 75.6537 313.708 72.7583C316.481 69.3233 319.809 66.5989 323.77 64.6643C324.971 64.0852 326.199 63.4535 327.586 63.4535C329.13 63.4535 330.675 64.7696 330.952 66.3226C331.203 67.7176 330.2 69.5733 328.813 70.0076C323.915 71.5343 320.469 74.8772 317.643 78.9307C315.095 82.5895 313.075 86.5641 311.305 90.6703C310.064 93.5657 309.021 96.5401 307.912 99.4881C307.595 100.317 307.45 101.212 307.252 102.081C307.173 102.436 307.278 102.476 307.648 102.37C310.54 101.541 313.431 100.673 316.362 99.9356C320.574 98.8696 324.694 97.4877 328.853 96.2111C329.447 96.0268 329.87 95.7109 330.2 95.2108C331.071 93.9211 332.141 92.7761 333.144 91.6047C334.108 90.4729 335.125 89.3937 336.234 88.3935C337.845 86.9458 339.456 85.5112 341.066 84.0767C342.255 83.0106 343.536 82.1289 344.909 81.3655C346.704 80.3653 348.606 79.6809 350.639 79.3124C352.316 79.0097 353.874 79.3256 355.458 79.7862C357.637 80.4179 360.067 83.9187 359.116 86.7089C358.324 89.0515 356.805 90.8151 354.996 92.3944C353.095 94.0527 350.916 95.303 348.738 96.5269C347.827 97.0402 346.784 97.3166 345.793 97.6851C342.044 99.0802 338.294 100.449 334.478 101.66C333.474 101.976 333.105 102.897 332.577 103.621C330.53 106.437 328.642 109.372 327.401 112.649C326.714 114.465 326.318 116.347 326.107 118.269C325.922 119.94 326.133 121.533 326.807 123.02C328.048 125.797 330.239 127.429 333.25 127.942C336.247 128.455 338.98 127.56 341.621 126.323C345.12 124.678 348.289 122.52 351.26 120.032C353.333 118.308 355.247 116.413 357.228 114.597C359.935 112.109 362.377 109.372 364.741 106.582C366.774 104.187 368.728 101.725 370.696 99.2907C371.554 98.2379 372.689 97.843 373.957 98.0536C375.396 98.2773 376.452 99.067 376.901 100.541C377.258 101.739 376.888 102.673 376.162 103.634C374.564 105.74 372.861 107.753 371.21 109.819C370.511 110.701 369.771 111.53 369.019 112.373C366.153 115.571 363.183 118.677 360.053 121.625C356.911 124.586 353.623 127.376 349.979 129.719C346.414 131.996 342.717 133.996 338.518 134.917C333.54 135.997 329.012 135.273 325.011 131.904C322.33 129.653 320.442 126.955 319.611 123.546C319.003 121.098 319.056 118.637 319.426 116.15C319.993 112.465 321.419 109.096 323.136 105.819C323.215 105.674 323.334 105.542 323.242 105.279C322.027 105.411 320.852 105.792 319.69 106.161C316.085 107.293 312.441 108.28 308.783 109.254C307.701 109.543 306.618 109.833 305.522 110.043C304.954 110.148 304.69 110.412 304.572 110.964C303.687 114.742 302.749 118.519 301.904 122.309C300.954 126.573 300.148 130.864 299.369 135.154C298.683 138.945 298.036 142.748 297.455 146.552C296.94 149.934 296.398 153.316 296.055 156.738C295.817 159.028 295.316 161.305 295.118 163.595C294.933 165.688 294.524 167.754 294.418 169.847C294.246 173.453 291.077 174.098 289.163 172.966C287.763 172.15 287.143 170.57 287.46 168.767C287.684 167.517 287.776 166.24 287.948 164.964C288.212 162.884 288.542 160.818 288.74 158.739C288.872 157.278 289.057 155.817 289.282 154.369C289.638 152.145 289.81 149.895 290.232 147.684C290.589 145.736 290.8 143.762 291.104 141.801C291.539 139.037 291.975 136.286 292.464 133.535C292.965 130.68 293.52 127.837 294.101 124.994C294.695 122.072 295.342 119.164 295.989 116.255C296.306 114.834 296.676 113.412 297.059 111.859C295.685 112.136 294.365 112.386 293.071 112.662C291.196 113.057 289.334 113.491 287.473 113.886C285.69 114.255 283.974 113.254 282.957 111.188C282.521 112.031 282.086 112.807 281.729 113.597C280.594 116.163 279.234 118.611 278.019 121.138C276.25 124.823 274.52 128.534 272.685 132.18C270.361 136.799 268.367 141.59 265.436 145.894C264.459 147.328 263.336 148.592 261.884 149.579C258.926 151.605 255.85 149.671 254.82 147.289C253.592 144.446 253.486 141.393 253.632 138.352C253.79 135.22 254.411 132.14 254.49 128.995C254.543 126.876 254.741 124.744 254.939 122.625C254.952 122.454 255.018 122.257 254.833 122.059C253.935 123.138 253.288 124.349 252.602 125.534C250.555 129.048 248.694 132.654 246.726 136.207C243.742 141.643 240.758 147.144 237.325 152.395ZM344.763 90.3544C347.378 89.7754 349.319 88.0644 351.286 86.4193C348.672 86.9984 346.533 88.3935 344.671 90.2492C344.605 90.315 344.433 90.3413 344.526 90.4466C344.592 90.5519 344.711 90.4729 344.763 90.3544ZM235.437 132.838C235.437 133.114 235.384 133.404 235.45 133.667C235.595 134.233 235.622 134.944 236.361 135.102C236.969 135.233 237.391 134.773 237.761 134.378C238.434 133.614 239.121 132.851 239.715 132.022C244.732 125.126 248.905 117.716 252.906 110.214C253.896 108.345 254.846 106.45 255.493 104.423C255.559 104.226 255.758 103.989 255.533 103.818C255.295 103.621 255.058 103.818 254.86 103.95C254.107 104.476 253.394 105.042 252.787 105.726C250.595 108.161 248.39 110.596 246.422 113.228C243.346 117.334 240.164 121.348 237.721 125.876C236.546 128.034 235.569 130.311 235.437 132.838ZM237.695 114.979C237.655 114.952 237.629 114.939 237.589 114.913C237.563 114.952 237.55 115.005 237.523 115.044C237.563 115.058 237.589 115.084 237.629 115.097C237.655 115.058 237.682 115.018 237.695 114.979Z" fill="#A69479"/>
<path d="M344.764 90.355C344.711 90.474 344.592 90.5401 344.526 90.4476C344.433 90.3286 344.605 90.3021 344.671 90.236C344.711 90.2889 344.737 90.3154 344.764 90.355Z" fill="#1F1F1D"/>
<path d="M237.694 114.979C237.668 115.018 237.655 115.058 237.628 115.097C237.589 115.084 237.563 115.058 237.523 115.044C237.549 115.005 237.563 114.952 237.589 114.913C237.628 114.939 237.668 114.952 237.694 114.979Z" fill="#1F1F1D"/>
<path d="M148.755 60.9135C147.619 60.3476 147.54 60.0317 147.54 57.8996C147.54 53.9119 147.897 50.7269 147.949 49.4635C148.029 48.5949 148.213 48.2 148.596 48.2C149.085 48.2 149.164 48.4369 149.164 49.0555C149.164 49.7794 149.164 50.8849 149.375 52.0167C150.59 57.8997 155.872 60.1107 161.193 60.1107C168.838 60.1107 172.587 54.6357 172.587 49.5293C172.587 44.0543 170.277 40.8562 163.437 35.2234L159.859 32.2753C151.409 25.379 149.468 20.4568 149.468 15.0345C149.468 6.53251 155.872 0.741699 165.972 0.741699C169.102 0.741699 171.412 1.03124 173.406 1.51819C174.911 1.83406 175.558 1.92618 176.179 1.92618C176.852 1.92618 176.984 2.09728 176.984 2.4921C176.984 2.90009 176.654 5.4928 176.654 10.9151C176.654 12.1786 176.522 12.7445 176.113 12.7445C175.624 12.7445 175.545 12.3365 175.466 11.7311C175.387 10.7572 174.898 8.61194 174.41 7.73016C173.921 6.8747 171.795 3.53182 164.441 3.53182C158.948 3.53182 154.644 6.95366 154.644 12.7576C154.644 17.285 156.717 20.1409 164.388 26.1028L166.619 27.8796C176.02 35.2628 178.252 40.185 178.252 46.5681C178.252 49.8188 176.958 55.8597 171.465 59.7422C168.045 62.1375 163.741 63.0719 159.423 63.0719C155.674 63.0456 152.016 62.506 148.755 60.9135Z" fill="#1F1F1D"/>
</g>
<defs>
<clipPath id="clip0">
<rect width="546.078" height="173.211" fill="white" transform="translate(0.900146 0.188904)"/>
</clipPath>
</defs>
</svg>
