<svg width="530" height="273" fill="none" xmlns="http://www.w3.org/2000/svg"><path d="M78.12 128.772l-66.902-23.928C6.05 102.972-1.275 107.611.19 111.843l13.144 38.863 64.786-21.934zM510.782 8.643c-15.667-8.71-33.532-10.5-49.688-5.047l-53.879 18.232-30.684 10.377-355.098 120.17c-7.244 2.442-5.779 13.958 1.953 15.179 106.823 17.01 214.54 8.22 315.3-25.841l86.19-29.178 11.679-3.947 41.387-13.999c17.824-6.023 33.369-17.499 44.926-33.044 12.453-16.766 6.552-42.566-12.086-52.902z" fill="#F2F2F2"/><path d="M453.035 57.19l-3.459 1.18c-2.564.855-5.331-.487-6.185-3.051l-3.459-10.215c-1.18-3.5.691-7.325 4.191-8.505 3.5-1.18 7.325.692 8.505 4.192l3.459 10.214c.896 2.564-.488 5.331-3.052 6.186zM415.15 70.05l-3.459 1.18c-2.564.855-5.331-.488-6.185-3.052l-3.459-10.214c-1.18-3.5.691-7.325 4.191-8.505 3.5-1.18 7.325.692 8.505 4.191l3.459 10.215c.855 2.523-.488 5.29-3.052 6.185zm-37.928 12.819l-3.459 1.18c-2.564.855-5.331-.488-6.185-3.052l-3.459-10.214c-1.18-3.5.691-7.325 4.191-8.505 3.5-1.18 7.325.691 8.505 4.191l3.459 10.214c.896 2.523-.488 5.29-3.052 6.186zm-37.886 12.819l-3.459 1.18c-2.564.855-5.331-.488-6.186-3.052l-3.459-10.214c-1.18-3.5.692-7.325 4.191-8.505 3.5-1.18 7.325.691 8.506 4.191l3.459 10.214c.895 2.523-.489 5.331-3.052 6.186zm-37.887 12.818l-3.459 1.18c-2.564.855-5.331-.488-6.186-3.052l-3.459-10.214c-1.18-3.5.692-7.325 4.192-8.505 3.499-1.18 7.325.692 8.505 4.191l3.459 10.215c.854 2.563-.529 5.331-3.052 6.185zm-37.927 12.819l-3.459 1.18c-2.563.855-5.331-.488-6.185-3.052l-3.459-10.214c-1.18-3.5.692-7.325 4.191-8.505 3.5-1.18 7.325.691 8.505 4.191l3.459 10.214c.896 2.564-.488 5.331-3.052 6.186zm-37.886 12.819l-3.459 1.18c-2.564.855-5.331-.488-6.186-3.052l-3.459-10.214c-1.18-3.5.692-7.325 4.192-8.505 3.499-1.181 7.325.691 8.505 4.191l3.459 10.214c.854 2.564-.529 5.331-3.052 6.186zm-37.927 12.859l-3.459 1.18c-2.563.855-5.331-.488-6.185-3.052l-3.459-10.214c-1.18-3.5.692-7.325 4.191-8.505 3.5-1.18 7.325.692 8.505 4.191l3.459 10.215c.896 2.523-.488 5.29-3.052 6.185zm-37.886 12.819l-3.459 1.18c-2.564.854-5.331-.489-6.186-3.052l-3.459-10.215c-1.18-3.499.692-7.325 4.192-8.505 3.499-1.18 7.325.692 8.505 4.192l3.459 10.214c.854 2.523-.489 5.331-3.052 6.186z" fill="#fff"/><path d="M268.651 118.232l-94.98 145.483c-3.663 5.575 3.703 11.76 8.586 7.202L372.869 92.351c4.111-3.826.082-10.54-5.249-8.75l-96.242 32.556a5.154 5.154 0 00-2.727 2.075z" fill="#F2F2F2"/></svg>