<svg width="80" height="79" fill="none" xmlns="http://www.w3.org/2000/svg"><g filter="url(#filter0_d)"><path d="M62.49 57.422a2.135 2.135 0 114.107 1.169 10.673 10.673 0 01-7.683 7.443L24.202 74.71c-5.867 1.356-11.623-2.191-12.956-7.966l-8.97-38.873C.966 22.2 4.442 16.525 10.09 15.112l8.068-2.016a2.135 2.135 0 111.035 4.143l-8.067 2.017a6.406 6.406 0 00-4.689 7.656l8.97 38.872c.8 3.465 4.253 5.593 7.797 4.775l34.674-8.669a6.403 6.403 0 004.611-4.468zM72.94 43.96V10.677a6.406 6.406 0 00-6.406-6.406H28.096a6.406 6.406 0 00-6.407 6.406v24.74l9.168-9.166a2.135 2.135 0 013.02 0l15.845 15.845 11.356-7.57a2.135 2.135 0 012.695.266l9.167 9.168zm-.054 5.986L61.991 39.05l-11.356 7.571a2.135 2.135 0 01-2.695-.267L32.367 30.781 21.689 41.458v7.657a6.406 6.406 0 006.407 6.406h38.438a6.408 6.408 0 006.352-5.575zM28.096 0h38.438C72.43 0 77.21 4.78 77.21 10.677v38.438c0 5.897-4.78 10.677-10.677 10.677H28.096c-5.897 0-10.678-4.78-10.678-10.677V10.677C17.418 4.78 22.198 0 28.096 0zm27.76 8.542h8.542a4.27 4.27 0 014.27 4.27v8.542a4.27 4.27 0 01-4.27 4.271h-8.542a4.271 4.271 0 01-4.27-4.27v-8.542a4.27 4.27 0 014.27-4.271zm0 4.27v8.542h8.542v-8.541h-8.542z" fill="#fff"/></g><defs><filter id="filter0_d" x="0" y="0" width="79.211" height="79" filterUnits="userSpaceOnUse" color-interpolation-filters="sRGB"><feFlood flood-opacity="0" result="BackgroundImageFix"/><feColorMatrix in="SourceAlpha" values="0 0 0 0 0 0 0 0 0 0 0 0 0 0 0 0 0 0 127 0"/><feOffset dy="2"/><feGaussianBlur stdDeviation="1"/><feColorMatrix values="0 0 0 0 0 0 0 0 0 0 0 0 0 0 0 0 0 0 0.25 0"/><feBlend in2="BackgroundImageFix" result="effect1_dropShadow"/><feBlend in="SourceGraphic" in2="effect1_dropShadow" result="shape"/></filter></defs></svg>