<svg width="30" height="48" fill="none" xmlns="http://www.w3.org/2000/svg"><path d="M15 0C7.82 0 2 5.373 2 12s5.82 12 13 12 13-5.373 13-12S22.18 0 15 0zm0 16.96c-2.968 0-5.374-2.22-5.374-4.96 0-2.74 2.406-4.96 5.374-4.96 2.968 0 5.374 2.22 5.374 4.96 0 2.74-2.406 4.96-5.374 4.96z" fill="#F7931E"/><path d="M19.928 34.045c5.343-1.07 8.544-3.558 8.713-3.692a3.53 3.53 0 00.561-5.017c-1.253-1.537-3.537-1.784-5.1-.551-.034.026-3.448 2.602-9.066 2.606-5.618-.004-9.105-2.58-9.138-2.606-1.563-1.233-3.847-.986-5.1.551a3.53 3.53 0 00.56 5.017c.172.135 3.506 2.688 8.998 3.734l-7.654 7.867A3.527 3.527 0 002.795 47c.704.668 1.612 1 2.518 1 .95 0 1.9-.365 2.613-1.092l7.11-7.45 7.83 7.499a3.671 3.671 0 005.13-.004 3.527 3.527 0 00-.004-5.047l-8.064-7.86z" fill="#F7931E"/></svg>