<svg width="80" height="79" fill="none" xmlns="http://www.w3.org/2000/svg"><g filter="url(#filter0_d)"><path d="M16.214 48.899a1.875 1.875 0 011.473.191 24.25 24.25 0 0012.44 3.408c13.461 0 24.374-10.912 24.374-24.374C54.5 14.663 43.588 3.75 30.126 3.75c-13.461 0-24.374 10.913-24.374 24.374a24.25 24.25 0 003.409 12.44c.264.443.333.976.19 1.473l-2.744 9.606 9.607-2.744zm40.832-28.944C68.784 23.51 77 34.38 77 46.874c0 4.842-1.227 9.508-3.526 13.644l3.454 12.09c.404 1.414-.904 2.722-2.318 2.318l-12.09-3.454a28.004 28.004 0 01-13.644 3.526c-12.482 0-23.357-8.203-26.919-19.955a27.946 27.946 0 01-5.475-2.32l-12.09 3.453c-1.414.404-2.722-.903-2.318-2.318l3.455-12.09a28.003 28.003 0 01-3.527-13.644C2.002 12.592 14.594 0 30.126 0c12.692 0 23.42 8.406 26.92 19.955zm.941 4.303c.174 1.264.264 2.554.264 3.866 0 15.533-12.592 28.124-28.125 28.124-1.303 0-2.595-.089-3.866-.264 3.657 9.086 12.532 15.264 22.616 15.264a24.25 24.25 0 0012.44-3.409 1.875 1.875 0 011.473-.19l9.606 2.744-2.745-9.607a1.875 1.875 0 01.192-1.473 24.25 24.25 0 003.408-12.44c0-10.092-6.187-18.963-15.263-22.615z" fill="#fff"/></g><defs><filter id="filter0_d" x="0" y="0" width="79.002" height="79" filterUnits="userSpaceOnUse" color-interpolation-filters="sRGB"><feFlood flood-opacity="0" result="BackgroundImageFix"/><feColorMatrix in="SourceAlpha" values="0 0 0 0 0 0 0 0 0 0 0 0 0 0 0 0 0 0 127 0"/><feOffset dy="2"/><feGaussianBlur stdDeviation="1"/><feColorMatrix values="0 0 0 0 0 0 0 0 0 0 0 0 0 0 0 0 0 0 0.25 0"/><feBlend in2="BackgroundImageFix" result="effect1_dropShadow"/><feBlend in="SourceGraphic" in2="effect1_dropShadow" result="shape"/></filter></defs></svg>