<svg width="79" height="79" fill="none" xmlns="http://www.w3.org/2000/svg"><g filter="url(#filter0_d)"><path d="M62 60V9.375a5.625 5.625 0 00-5.625-5.625H15.997A7.465 7.465 0 0117 7.5v60a3.75 3.75 0 107.5 0v-5.625c0-1.035.84-1.875 1.875-1.875H62zm3.75 0h9.375C76.16 60 77 60.84 77 61.875v3.75A9.375 9.375 0 0167.625 75H20.75a7.5 7.5 0 01-7.5-7.5V15H9.5a7.5 7.5 0 010-15h46.875a9.375 9.375 0 019.375 9.375V60zm-37.5 3.75v3.75a7.465 7.465 0 01-1.003 3.75h40.378a5.625 5.625 0 005.625-5.625V63.75h-45zm-15-52.5V7.5a3.75 3.75 0 10-3.75 3.75h3.75zm13.125 7.5a1.875 1.875 0 010-3.75h26.25a1.875 1.875 0 010 3.75h-26.25zm0 11.25a1.875 1.875 0 010-3.75h26.25a1.875 1.875 0 010 3.75h-26.25zm0 11.25a1.875 1.875 0 010-3.75h26.25a1.875 1.875 0 010 3.75h-26.25zm0 11.25a1.875 1.875 0 010-3.75h18.75a1.875 1.875 0 010 3.75h-18.75z" fill="#fff"/></g><defs><filter id="filter0_d" x="0" y="0" width="79" height="79" filterUnits="userSpaceOnUse" color-interpolation-filters="sRGB"><feFlood flood-opacity="0" result="BackgroundImageFix"/><feColorMatrix in="SourceAlpha" values="0 0 0 0 0 0 0 0 0 0 0 0 0 0 0 0 0 0 127 0"/><feOffset dy="2"/><feGaussianBlur stdDeviation="1"/><feColorMatrix values="0 0 0 0 0 0 0 0 0 0 0 0 0 0 0 0 0 0 0.25 0"/><feBlend in2="BackgroundImageFix" result="effect1_dropShadow"/><feBlend in="SourceGraphic" in2="effect1_dropShadow" result="shape"/></filter></defs></svg>