<svg width="146" height="396" fill="none" xmlns="http://www.w3.org/2000/svg"><path d="M55.508 22.335a130.654 130.654 0 00-1.98 17.735 20.764 20.764 0 00.391 6.648 7.38 7.38 0 004.064 5.026c1.255.506 2.706.54 3.822 1.288.9.663 1.54 1.619 1.808 2.703a18.198 18.198 0 010 6.222c-.15 2.082 0 4.348 1.29 5.97a7.797 7.797 0 003.856 2.3 20.859 20.859 0 0010.799.448 3.63 3.63 0 001.577-.656 3.76 3.76 0 001.013-1.76 100.423 100.423 0 003.155-12.168c1.255-5.75 2.556-11.627 2.67-17.562.116-5.935-1.07-12.053-4.409-16.953-3.338-4.9-9.095-8.396-15.024-8.05a28.459 28.459 0 00-9.463 2.875c-2.487 1.127-3.051 3.266-3.57 5.934z" fill="url(#paint0_linear)"/><path d="M55.508 14.204c-.161-2.956 2.176-5.417 4.536-7.188.44-.29.83-.652 1.151-1.07a8.808 8.808 0 00.737-2.07c.956-2.68 4.156-3.876 7-3.876 2.844 0 5.653.863 8.496.782 2.303-.057 4.606-.678 6.7.265a8.493 8.493 0 012.948 2.668 13.165 13.165 0 012.89 5.75c.172.944.16 1.921.403 2.853a8.807 8.807 0 001.52 2.887c2.97 4.071 7.299 7.475 8.358 12.398.667 3.117 1.347 6.705-.162 9.511C85.591 64.142 81.918 65.707 80.433 65.5c-1.485-.208-9.717-.599-10.58-10.938a6.27 6.27 0 01-.207-2.15 3.899 3.899 0 011.036-1.496c1.026-1 1.875-2.167 2.51-3.45a4.667 4.667 0 00-.058-4.175 3.716 3.716 0 00-4.48-1.355 3.719 3.719 0 00-1.368.964c-.967-2.76 1.9-5.878.725-8.557-.714-1.622-2.694-2.416-3.385-4.06-.91-2.174.714-5.21-1.013-6.809a12.142 12.142 0 00-1.842-1.058c-.979-.598-1.151-1.415-1.67-2.358-.517-.943-.61-.862-1.657-1.403a5.34 5.34 0 01-2.936-4.451z" fill="#3F3D56"/><path d="M82.205 68.225s20.573 4.992 23.36 11.674c2.786 6.682 25.328 27.522 24.763 35.815-.564 8.292-16.037 18.804-16.037 18.804l-11.835-11.501-5.503 89.457s-22.542 5.75-40.018 0c-17.477-5.751-20.482-10.041-20.482-10.041l3.005-82.682-14.218 18.505-18.88-16.239s27.86-45.35 32.603-48.11c4.743-2.76 25.996-5.97 25.996-5.97s9.337 5.66 17.246.288z" fill="#FF5A4C"/><path d="M130.329 115.714s14.759 19.978 15.151 23.267c.391 3.289-39.915 51.939-39.915 51.939s-3.039 10.846-8.059 12.387l1.6-26.039s21.944-36.424 24.626-35.849l-7.794-8.143s12.549-8.649 14.391-17.562z" fill="url(#paint1_linear)"/><path d="M25.24 138.233l-5.503 7.729 17.488 35.182s6.251 3.186 6.585 6.096c.334 2.91-6.804 0-6.804 0l-.553 15.17s-7.702-8.396-11.213-15.17c-3.511-6.774-24.177-36.804-25.075-40.53-1.67-6.682 9.89-21.542 9.89-21.542l15.185 13.065z" fill="url(#paint2_linear)"/><path d="M96.953 212.451v162.167H78.256l-8.554-123.857-7.506-1.368-13.435 125.213H34.22l2.233-172.15s24.43 8.499 60.5 9.995z" fill="#25233A"/><path d="M61.955 393.4c.01.35.037.699.08 1.046 0 0 27.424 2.829 31.937.828 4.513-2.001 4.19-3.174 4.19-3.174l-1.208-17.528H78.257c-13.412 2.036-15.922 11.375-16.279 16.493v.115a16.22 16.22 0 00-.023 2.22zm-12.733-18.839l1.151 17.539s.334 1.15-4.19 3.174c-4.525 2.024-31.937-.828-31.937-.828s-2.475-17.045 16.222-19.885h18.754z" fill="#FF5A4C"/><path d="M61.955 393.4c.01.35.037.699.08 1.046 0 0 27.424 2.829 31.937.828 4.513-2.001 4.19-3.174 4.19-3.174l-1.208-17.528H78.257c-13.412 2.036-15.922 11.375-16.279 16.493v.115a16.22 16.22 0 00-.023 2.22z" fill="url(#paint3_linear)"/><path d="M49.222 374.561l1.151 17.539s.334 1.15-4.19 3.174c-4.525 2.024-31.937-.828-31.937-.828s-2.475-17.045 16.222-19.885h18.754z" fill="url(#paint4_linear)"/><path d="M61.955 393.399c.01.35.037.7.08 1.047 0 0 27.424 2.829 31.937.828 4.513-2.001 4.19-3.174 4.19-3.174l-1.208-17.528-9.498-.23.058.23.449 1.495s2.498 10.524 0 13.365c-2.499 2.84-25.455 1.667-25.985 1.633v.115l-.023 2.219z" fill="url(#paint5_linear)"/><path d="M14.211 393.399c.01.35.037.7.081 1.047 0 0 27.423 2.829 31.936.828 4.513-2.001 4.18-3.174 4.18-3.174l-1.152-17.528-9.51-.23.07.23.449 1.495s2.498 10.524 0 13.365c-2.498 2.84-25.455 1.667-25.985 1.633v2.3l-.069.034z" fill="url(#paint6_linear)"/><defs><linearGradient id="paint0_linear" x1="88.031" y1="42.325" x2="53.436" y2="42.325" gradientUnits="userSpaceOnUse"><stop stop-color="#ECC4D7"/><stop offset=".42" stop-color="#EFD4D1"/><stop offset="1" stop-color="#F2EAC9"/></linearGradient><linearGradient id="paint1_linear" x1="-12839.8" y1="34265.7" x2="-14838.5" y2="34265.7" gradientUnits="userSpaceOnUse"><stop stop-color="#ECC4D7"/><stop offset=".42" stop-color="#EFD4D1"/><stop offset="1" stop-color="#F2EAC9"/></linearGradient><linearGradient id="paint2_linear" x1="-15686.2" y1="30525.4" x2="-17354" y2="30525.4" gradientUnits="userSpaceOnUse"><stop stop-color="#ECC4D7"/><stop offset=".42" stop-color="#EFD4D1"/><stop offset="1" stop-color="#F2EAC9"/></linearGradient><linearGradient id="paint3_linear" x1="85.752" y1="357.136" x2="61.623" y2="502.807" gradientUnits="userSpaceOnUse"><stop stop-opacity="0"/><stop offset=".08" stop-opacity=".19"/><stop offset=".99"/></linearGradient><linearGradient id="paint4_linear" x1="-13101.1" y1="12273.3" x2="-13372.2" y2="15036.7" gradientUnits="userSpaceOnUse"><stop stop-opacity="0"/><stop offset=".08" stop-opacity=".19"/><stop offset=".99"/></linearGradient><linearGradient id="paint5_linear" x1="-11735.8" y1="12867.3" x2="-11802.2" y2="15213.5" gradientUnits="userSpaceOnUse"><stop stop-opacity="0"/><stop offset=".08" stop-opacity=".19"/><stop offset=".99"/></linearGradient><linearGradient id="paint6_linear" x1="-13277.6" y1="12824.9" x2="-13344.2" y2="15171" gradientUnits="userSpaceOnUse"><stop stop-opacity="0"/><stop offset=".08" stop-opacity=".19"/><stop offset=".99"/></linearGradient></defs></svg>