<svg viewBox="0 0 1503 400" fill="none" xmlns="http://www.w3.org/2000/svg"><path d="M167.621 399.674a3.579 3.579 0 01-2.273 0c-60.093-20.433-97.754-66.208-129.851-112.675C3.196 240.244.89 196.68.274 164.871c-.617-31.877 0-127.538 0-127.538l61.337-13.432v21.982l66.835-15.003V9.07L165.729 0l38.315 8.546v21.809l66.835 15.747V23.855l61.816 13.478s.615 95.661 0 127.538c-.619 31.809-2.923 75.373-35.221 122.128-32.1 46.467-69.76 92.242-129.853 112.675z" stroke-width="10" stroke="#fff" fill="#6672FB"/><path d="M37.52 198.532s19.65 114.716 127.79 165.974V198.532H37.52zM165.31 53.871v144.661h126.497s6.88-28.953 6.88-63.118v-50.87L165.31 53.871z" fill="#fff"/><path stroke="#fff" stroke-width="4" fill-rule="evenodd" clip-rule="evenodd" d="M534.966 200.078l-20.154-85.349h-35.268l38.475 131.86c1.374 3.876.152 5.814-3.665 5.814h-22.443l5.725 31.396h26.108c4.122 0 7.558-.466 10.306-1.396 2.901-.93 5.267-2.248 7.099-3.953 1.833-1.861 3.283-4.031 4.352-6.512 1.069-2.481 1.985-5.349 2.748-8.605l35.498-148.604h-33.208l-15.573 85.349zm20.653-79.148l-14.648 80.277-11.944.317-19.03-80.594h-22.274l36.106 123.743c.823 2.396 1.605 6.197-.552 9.62-2.337 3.708-6.377 4.312-8.923 4.312h-15.101l3.463 18.992h21.028c3.72 0 6.451-.426 8.375-1.077l.046-.016.046-.014c2.171-.697 3.676-1.585 4.718-2.526 1.232-1.276 2.224-2.765 2.977-4.512.893-2.074 1.704-4.578 2.402-7.555l.006-.025 33.667-140.942h-20.362zM413.693 273.644c2.086 2.079 6.651 3.953 15.562 3.953h32.516l3.602-18.992h-24.438c-2.055 0-4.685-.584-6.708-2.796-1.944-2.126-2.377-4.73-2.377-6.662V149.38c0-1.932.433-4.536 2.377-6.662 2.023-2.212 4.653-2.795 6.708-2.795h24.491l-3.463-18.993h-37.976c-4.241 0-7.568 1.285-10.335 3.751-2.22 2.097-3.711 5.356-3.711 10.745v122.791c0 8.721 1.761 13.283 3.752 15.427zm-4.363 4.341c-3.664-3.876-5.496-10.466-5.496-19.768V135.426c0-6.666 1.908-11.783 5.725-15.348 3.97-3.566 8.779-5.349 14.428-5.349h43.056l5.725 31.395h-31.833c-1.985 0-2.977 1.085-2.977 3.256v99.767c0 2.171.992 3.256 2.977 3.256h31.833l-5.954 31.396h-37.559c-9.466 0-16.108-1.938-19.925-5.814zm258.071-19.38h-38.604l1.559-7.485c1.641-7.875 2.987-16.147 4.036-24.822a505.769 505.769 0 002.488-26.407 819.006 819.006 0 001.363-27.233c.306-9.151.611-18.069.917-26.755l.21-5.98h28.031v118.682zm-24.428-58.295a511.284 511.284 0 01-2.52 26.744 311.848 311.848 0 01-2.904 19.148 277.881 277.881 0 01-1.218 6.201h24.963V146.124h-16.031c-.306 8.682-.611 17.597-.916 26.744a828.755 828.755 0 01-1.374 27.442zm-21.528 83.489h51.987v30.697l30.917-5.814v-56.279h-9.16V114.729h-82.218c0 17.519-.534 34.341-1.603 50.465-1.068 16.124-2.366 30.543-3.893 43.256-1.374 12.558-2.825 22.79-4.351 30.697-1.527 7.907-2.749 12.326-3.665 13.256h-8.931v62.093l30.917-5.814v-24.883zm-6.107 19.725v-25.927h64.201v29.444l18.703-3.517v-44.919h-9.161V120.93h-70.025c-.112 15.428-.643 30.322-1.594 44.68-1.074 16.195-2.38 30.718-3.921 43.559-1.382 12.629-2.854 23.037-4.424 31.172-.776 4.014-1.499 7.282-2.175 9.727-.335 1.214-.692 2.346-1.079 3.315-.295.737-.918 2.22-2.085 3.405l-1.789 1.817h-5.354v48.436l18.703-3.517z" fill="#fff"/><mask id="a" fill="#fff"><path d="M752.245 187.519h4.58l21.299-67.907c1.069-3.255 3.512-4.883 7.329-4.883h24.504l5.726 31.395h-11.68c-1.221 0-1.985.543-2.29 1.628l-13.283 44.884 26.108 91.163h-36.872l-18.55-70.233h-6.871v70.233h-33.894v-169.07h33.894v72.79zm108.977-43.255c-1.985 0-2.978 1.085-2.978 3.255v103.256c0 1.241.153 2.171.458 2.791.458.465 1.374.698 2.749.698h12.595c1.375 0 2.214-.233 2.52-.698.458-.62.687-1.55.687-2.791V147.519c0-2.17-.993-3.255-2.977-3.255h-13.054zm49.696 115.581c0 3.256-.381 6.357-1.145 9.302a17.002 17.002 0 01-3.664 7.442c-1.832 2.171-4.275 3.954-7.329 5.349-3.053 1.24-6.87 1.861-11.451 1.861h-38.932c-4.581 0-8.398-.621-11.451-1.861-3.054-1.395-5.497-3.178-7.329-5.349-1.832-2.17-3.13-4.651-3.893-7.442-.611-2.945-.916-6.046-.916-9.302V136.589c0-6.666 1.756-11.938 5.267-15.814 3.512-4.031 9.161-6.046 16.947-6.046h41.682c7.786 0 13.435 2.015 16.947 6.046 3.511 3.876 5.267 9.148 5.267 15.814v123.256zm99.522 23.954h-33.898v-67.442H958.45v67.442h-33.894v-169.07h33.894v72.558h18.092v-72.558h33.898v169.07zm79.14-169.07l8.24 31.395h-22.21v137.675h-33.9V146.124h-22.21l8.7-31.395h61.38zm50.45 29.535v66.744h16.49c1.38 0 2.22-.233 2.52-.698.46-.62.69-1.55.69-2.791v-60c0-2.17-.99-3.255-2.98-3.255h-16.72zm51.99 72.79c0 6.667-1.83 12.016-5.5 16.047-3.51 3.876-9.16 5.814-16.94 5.814h-29.55v44.884h-32.98v-169.07h62.53c7.78 0 13.43 1.938 16.94 5.814 3.67 3.876 5.5 9.147 5.5 15.814v80.697zm49.41-72.79c-1.99 0-2.98 1.085-2.98 3.255v103.256c0 1.241.15 2.171.46 2.791.45.465 1.37.698 2.74.698h12.6c1.37 0 2.21-.233 2.52-.698.46-.62.69-1.55.69-2.791V147.519c0-2.17-1-3.255-2.98-3.255h-13.05zm49.69 115.581c0 3.256-.38 6.357-1.14 9.302a16.916 16.916 0 01-3.67 7.442c-1.83 2.171-4.27 3.954-7.33 5.349-3.05 1.24-6.87 1.861-11.45 1.861h-38.93c-4.58 0-8.4-.621-11.45-1.861-3.05-1.395-5.5-3.178-7.33-5.349a19.25 19.25 0 01-3.89-7.442c-.61-2.945-.92-6.046-.92-9.302V136.589c0-6.666 1.76-11.938 5.27-15.814 3.51-4.031 9.16-6.046 16.95-6.046h41.68c7.78 0 13.43 2.015 16.95 6.046 3.51 3.876 5.26 9.148 5.26 15.814v123.256zm110.74 23.954h-33.89V146.124h-18.09v137.675h-43.98l-5.72-31.396h15.8V114.729h85.88v169.07zm47.72-103.256h30.23c7.79 0 13.44 2.015 16.95 6.046 3.67 3.876 5.5 9.148 5.5 15.814v59.768c0 6.666-1.83 11.938-5.5 15.814-3.51 3.876-9.16 5.814-16.95 5.814h-64.12v-169.07h33.89v65.814zm17.18 73.721c1.99 0 2.98-1.086 2.98-3.256v-39.07c0-1.24-.23-2.093-.69-2.558-.3-.62-1.14-.93-2.52-.93h-16.95v45.814h17.18z"/></mask><path d="M752.245 187.519h4.58l21.299-67.907c1.069-3.255 3.512-4.883 7.329-4.883h24.504l5.726 31.395h-11.68c-1.221 0-1.985.543-2.29 1.628l-13.283 44.884 26.108 91.163h-36.872l-18.55-70.233h-6.871v70.233h-33.894v-169.07h33.894v72.79zm108.977-43.255c-1.985 0-2.978 1.085-2.978 3.255v103.256c0 1.241.153 2.171.458 2.791.458.465 1.374.698 2.749.698h12.595c1.375 0 2.214-.233 2.52-.698.458-.62.687-1.55.687-2.791V147.519c0-2.17-.993-3.255-2.977-3.255h-13.054zm49.696 115.581c0 3.256-.381 6.357-1.145 9.302a17.002 17.002 0 01-3.664 7.442c-1.832 2.171-4.275 3.954-7.329 5.349-3.053 1.24-6.87 1.861-11.451 1.861h-38.932c-4.581 0-8.398-.621-11.451-1.861-3.054-1.395-5.497-3.178-7.329-5.349-1.832-2.17-3.13-4.651-3.893-7.442-.611-2.945-.916-6.046-.916-9.302V136.589c0-6.666 1.756-11.938 5.267-15.814 3.512-4.031 9.161-6.046 16.947-6.046h41.682c7.786 0 13.435 2.015 16.947 6.046 3.511 3.876 5.267 9.148 5.267 15.814v123.256zm99.522 23.954h-33.898v-67.442H958.45v67.442h-33.894v-169.07h33.894v72.558h18.092v-72.558h33.898v169.07zm79.14-169.07l8.24 31.395h-22.21v137.675h-33.9V146.124h-22.21l8.7-31.395h61.38zm50.45 29.535v66.744h16.49c1.38 0 2.22-.233 2.52-.698.46-.62.69-1.55.69-2.791v-60c0-2.17-.99-3.255-2.98-3.255h-16.72zm51.99 72.79c0 6.667-1.83 12.016-5.5 16.047-3.51 3.876-9.16 5.814-16.94 5.814h-29.55v44.884h-32.98v-169.07h62.53c7.78 0 13.43 1.938 16.94 5.814 3.67 3.876 5.5 9.147 5.5 15.814v80.697zm49.41-72.79c-1.99 0-2.98 1.085-2.98 3.255v103.256c0 1.241.15 2.171.46 2.791.45.465 1.37.698 2.74.698h12.6c1.37 0 2.21-.233 2.52-.698.46-.62.69-1.55.69-2.791V147.519c0-2.17-1-3.255-2.98-3.255h-13.05zm49.69 115.581c0 3.256-.38 6.357-1.14 9.302a16.916 16.916 0 01-3.67 7.442c-1.83 2.171-4.27 3.954-7.33 5.349-3.05 1.24-6.87 1.861-11.45 1.861h-38.93c-4.58 0-8.4-.621-11.45-1.861-3.05-1.395-5.5-3.178-7.33-5.349a19.25 19.25 0 01-3.89-7.442c-.61-2.945-.92-6.046-.92-9.302V136.589c0-6.666 1.76-11.938 5.27-15.814 3.51-4.031 9.16-6.046 16.95-6.046h41.68c7.78 0 13.43 2.015 16.95 6.046 3.51 3.876 5.26 9.148 5.26 15.814v123.256zm110.74 23.954h-33.89V146.124h-18.09v137.675h-43.98l-5.72-31.396h15.8V114.729h85.88v169.07zm47.72-103.256h30.23c7.79 0 13.44 2.015 16.95 6.046 3.67 3.876 5.5 9.148 5.5 15.814v59.768c0 6.666-1.83 11.938-5.5 15.814-3.51 3.876-9.16 5.814-16.95 5.814h-64.12v-169.07h33.89v65.814zm17.18 73.721c1.99 0 2.98-1.086 2.98-3.256v-39.07c0-1.24-.23-2.093-.69-2.558-.3-.62-1.14-.93-2.52-.93h-16.95v45.814h17.18z" fill="#fff"/><path d="M752.245 187.519h4.58l21.299-67.907c1.069-3.255 3.512-4.883 7.329-4.883h24.504l5.726 31.395h-11.68c-1.221 0-1.985.543-2.29 1.628l-13.283 44.884 26.108 91.163h-36.872l-18.55-70.233h-6.871v70.233h-33.894v-169.07h33.894v72.79zm108.977-43.255c-1.985 0-2.978 1.085-2.978 3.255v103.256c0 1.241.153 2.171.458 2.791.458.465 1.374.698 2.749.698h12.595c1.375 0 2.214-.233 2.52-.698.458-.62.687-1.55.687-2.791V147.519c0-2.17-.993-3.255-2.977-3.255h-13.054zm49.696 115.581c0 3.256-.381 6.357-1.145 9.302a17.002 17.002 0 01-3.664 7.442c-1.832 2.171-4.275 3.954-7.329 5.349-3.053 1.24-6.87 1.861-11.451 1.861h-38.932c-4.581 0-8.398-.621-11.451-1.861-3.054-1.395-5.497-3.178-7.329-5.349-1.832-2.17-3.13-4.651-3.893-7.442-.611-2.945-.916-6.046-.916-9.302V136.589c0-6.666 1.756-11.938 5.267-15.814 3.512-4.031 9.161-6.046 16.947-6.046h41.682c7.786 0 13.435 2.015 16.947 6.046 3.511 3.876 5.267 9.148 5.267 15.814v123.256zm99.522 23.954h-33.898v-67.442H958.45v67.442h-33.894v-169.07h33.894v72.558h18.092v-72.558h33.898v169.07zm79.14-169.07l8.24 31.395h-22.21v137.675h-33.9V146.124h-22.21l8.7-31.395h61.38zm50.45 29.535v66.744h16.49c1.38 0 2.22-.233 2.52-.698.46-.62.69-1.55.69-2.791v-60c0-2.17-.99-3.255-2.98-3.255h-16.72zm51.99 72.79c0 6.667-1.83 12.016-5.5 16.047-3.51 3.876-9.16 5.814-16.94 5.814h-29.55v44.884h-32.98v-169.07h62.53c7.78 0 13.43 1.938 16.94 5.814 3.67 3.876 5.5 9.147 5.5 15.814v80.697zm49.41-72.79c-1.99 0-2.98 1.085-2.98 3.255v103.256c0 1.241.15 2.171.46 2.791.45.465 1.37.698 2.74.698h12.6c1.37 0 2.21-.233 2.52-.698.46-.62.69-1.55.69-2.791V147.519c0-2.17-1-3.255-2.98-3.255h-13.05zm49.69 115.581c0 3.256-.38 6.357-1.14 9.302a16.916 16.916 0 01-3.67 7.442c-1.83 2.171-4.27 3.954-7.33 5.349-3.05 1.24-6.87 1.861-11.45 1.861h-38.93c-4.58 0-8.4-.621-11.45-1.861-3.05-1.395-5.5-3.178-7.33-5.349a19.25 19.25 0 01-3.89-7.442c-.61-2.945-.92-6.046-.92-9.302V136.589c0-6.666 1.76-11.938 5.27-15.814 3.51-4.031 9.16-6.046 16.95-6.046h41.68c7.78 0 13.43 2.015 16.95 6.046 3.51 3.876 5.26 9.148 5.26 15.814v123.256zm110.74 23.954h-33.89V146.124h-18.09v137.675h-43.98l-5.72-31.396h15.8V114.729h85.88v169.07zm47.72-103.256h30.23c7.79 0 13.44 2.015 16.95 6.046 3.67 3.876 5.5 9.148 5.5 15.814v59.768c0 6.666-1.83 11.938-5.5 15.814-3.51 3.876-9.16 5.814-16.95 5.814h-64.12v-169.07h33.89v65.814zm17.18 73.721c1.99 0 2.98-1.086 2.98-3.256v-39.07c0-1.24-.23-2.093-.69-2.558-.3-.62-1.14-.93-2.52-.93h-16.95v45.814h17.18z" fill="#fff" mask="url(#a)"/></svg>