<svg width="150" height="150" fill="none" xmlns="http://www.w3.org/2000/svg"><g clip-path="url(#clip0)"><path d="M148.954 53.886l-16.759-43.572c-3.175-8.237-12.427-12.34-20.664-9.164a16.53 16.53 0 00-.357.143L27.428 36.008c-7.975 3.271-11.894 12.297-8.84 20.357l2.304 6.147h-5.283C6.993 62.522.01 69.504 0 78.12v56.194c.01 8.616 6.993 15.6 15.61 15.609h106.143c8.617-.009 15.6-6.993 15.61-15.609V78.121a15.405 15.405 0 00-.225-2.527l2.899-1.174c8.046-3.298 12-12.404 8.917-20.535zM15.609 67.505h106.144a10.6 10.6 0 0110.552 9.99H5.057a10.599 10.599 0 0110.552-9.99zm25.103-15.044l16.693-8.35 3.432 8.585-16.694 8.346-3.431-8.581zm91.656 81.853c-.007 5.86-4.755 10.608-10.615 10.614H15.609c-5.86-.006-10.607-4.754-10.614-10.614v-31.843h127.373v31.843zm0-36.838H4.995V82.492h127.373v14.985zm5.796-27.672l-2.61 1.056a15.616 15.616 0 00-13.801-8.35H52.378l12.75-6.375a2.498 2.498 0 001.203-3.162l-5.297-13.237a2.498 2.498 0 00-3.436-1.306L36.42 49.025a2.498 2.498 0 00-1.2 3.162l4.13 10.325H26.224l-2.957-7.887c-2.097-5.538.596-11.738 6.074-13.986l83.743-34.716c5.599-2.32 12.019.335 14.341 5.934.036.087.071.175.105.263l16.758 43.571c2.12 5.587-.595 11.846-6.124 14.114z" fill="#6672FB"/><path d="M89.84 137.906a14.985 14.985 0 0015.055 0c7.156 4.158 16.328 1.727 20.485-5.429 4.157-7.156 1.726-16.328-5.43-20.485a14.986 14.986 0 00-7.562-2.028 14.879 14.879 0 00-7.493 2.028c-7.156-4.157-16.327-1.727-20.485 5.429-4.157 7.157-1.726 16.328 5.43 20.485zm19.231-22.337a9.88 9.88 0 013.317-.61c5.517 0 9.99 4.473 9.99 9.99 0 5.518-4.473 9.99-9.99 9.99a9.855 9.855 0 01-3.317-.609 14.924 14.924 0 000-18.761zm-4.176 2.842a9.808 9.808 0 010 13.077 9.808 9.808 0 010-13.077zm-7.492-3.452a9.88 9.88 0 013.316.61 14.925 14.925 0 000 18.761 9.855 9.855 0 01-3.316.609c-5.518 0-9.99-4.472-9.99-9.99 0-5.517 4.472-9.99 9.99-9.99zm7.947-63.341l2.029 4.565 23.826-10.591-2.029-4.565-23.826 10.591zm18.509-21.165L89.444 46.338l2.093 4.533 34.415-15.884-2.093-4.534z" fill="#FF5A4C"/></g><defs><clipPath id="clip0"><path fill="#fff" d="M0 0h150v150H0z"/></clipPath></defs></svg>