<svg width="113" height="110" viewBox="0 0 113 110" fill="none" xmlns="http://www.w3.org/2000/svg">
<path fill-rule="evenodd" clip-rule="evenodd" d="M17.5215 36.5476L6.7959 42.1185L17.1285 59.0557L17.5215 36.5476Z" fill="#E0E0E0"/>
<path fill-rule="evenodd" clip-rule="evenodd" d="M6.79591 42.1185L1.35222 47.7813L12.3436 51.2095L6.79591 42.1185Z" fill="#FEFEFE"/>
<path fill-rule="evenodd" clip-rule="evenodd" d="M1.35215 47.7813L-0.000106812 49.9342L4.49585 48.771L1.35215 47.7813Z" fill="#BDBDBD"/>
<path fill-rule="evenodd" clip-rule="evenodd" d="M17.325 47.2405L16.9205 71.5138L40.8566 58.6987L17.325 47.2405Z" fill="#FEFEFE"/>
<path fill-rule="evenodd" clip-rule="evenodd" d="M17.5215 36.5476L40.8566 58.6986L17.325 47.2405L17.5215 36.5476Z" fill="#BDBDBD"/>
<path fill-rule="evenodd" clip-rule="evenodd" d="M91.6412 0L91.8608 38.3026L68.5951 23.4774L91.6412 0Z" fill="#FEFEFE"/>
<path fill-rule="evenodd" clip-rule="evenodd" d="M68.5952 23.4774L43.434 35.8742L78.8353 65.8408L68.5952 23.4774Z" fill="#E0E0E0"/>
<path fill-rule="evenodd" clip-rule="evenodd" d="M68.5951 23.4774L91.8608 38.3026L78.8353 65.8408L68.5951 23.4774Z" fill="#BDBDBD"/>
<path fill-rule="evenodd" clip-rule="evenodd" d="M43.434 35.8742L78.8353 65.8408L39.643 74.4421L43.434 35.8742Z" fill="#FEFEFE"/>
<path fill-rule="evenodd" clip-rule="evenodd" d="M39.643 74.4421L28.5938 76.1664L43.434 35.8742L39.643 74.4421Z" fill="#E0E0E0"/>
<path fill-rule="evenodd" clip-rule="evenodd" d="M33.5984 62.5861L22.8613 93.8485L16.9206 71.5138L33.5984 62.5861Z" fill="#BDBDBD"/>
<path fill-rule="evenodd" clip-rule="evenodd" d="M49.4902 72.279L39.643 74.4421L55.5002 84.1759L49.4902 72.279Z" fill="#BDBDBD"/>
<path fill-rule="evenodd" clip-rule="evenodd" d="M55.5002 84.1758L82.2333 106.449L75.5645 106.99L55.5002 84.1758Z" fill="#FEFEFE"/>
<path fill-rule="evenodd" clip-rule="evenodd" d="M55.5002 84.1759L39.643 74.4421L28.9521 76.1154L55.5002 84.1759Z" fill="#FEFEFE"/>
<path fill-rule="evenodd" clip-rule="evenodd" d="M55.5002 84.1759L28.9521 76.1154L22.8727 93.8383L55.5002 84.1759Z" fill="#E0E0E0"/>
<path fill-rule="evenodd" clip-rule="evenodd" d="M55.5002 84.1758L22.8727 93.8382L37.1119 104.347L55.5002 84.1758Z" fill="#BDBDBD"/>
<path fill-rule="evenodd" clip-rule="evenodd" d="M86.0243 109.602L96.484 107.714L55.5003 84.1758L86.0243 109.602Z" fill="#E0E0E0"/>
<path fill-rule="evenodd" clip-rule="evenodd" d="M55.5003 84.1758L100.46 110L113 106.531L55.5003 84.1758Z" fill="#BDBDBD"/>
<path fill-rule="evenodd" clip-rule="evenodd" d="M55.5002 84.1758L70.9182 101.715L37.1118 104.347L55.5002 84.1758Z" fill="#E0E0E0"/>
</svg>
