<svg width="127" height="110" viewBox="0 0 127 110" fill="none" xmlns="http://www.w3.org/2000/svg">
<g clip-path="url(#clip0)">
<path d="M126.689 29.2581L126.455 28.9079L118.529 20.6574C118.061 19.9588 118.369 18.9372 119.224 18.6804C120.426 18.3145 121.57 17.6705 122.551 16.7384C125.857 13.59 126.003 8.40812 122.847 5.26359C119.84 1.96924 114.657 1.88557 111.357 5.04566C110.381 5.97967 109.684 7.09271 109.269 8.27775C108.971 9.11836 107.937 9.37911 107.261 8.88291L99.364 0.599346L99.0212 0.352221C98.5245 -0.124517 97.7259 -0.120626 97.2097 0.377517L88.049 9.15533C87.4802 9.1923 86.9212 8.87707 86.7478 8.27191C85.9687 5.58272 83.7306 3.2613 79.9323 2.5277C79.5427 2.45181 79.1297 2.44792 78.7363 2.51797C70.9604 3.88397 68.958 11.9613 73.1362 16.3434C74.0205 17.2716 75.086 17.9273 76.2274 18.3126C76.843 18.5208 77.1176 19.1474 77.0066 19.735L67.7932 28.5654C67.2576 29.0771 67.2303 29.9061 67.727 30.4178L76.058 39.0945L76.206 39.2093L76.2567 39.2618C76.9637 40.0013 78.1987 39.6101 78.4577 38.5944C79.2213 35.662 81.6483 33.0448 85.6979 32.2489C86.4556 32.1944 87.2172 32.2431 87.9594 32.3987C89.6637 32.8638 91.0175 33.6772 92.0245 34.7026C93.0023 35.7554 93.7581 37.1428 94.1418 38.8668C94.2685 39.6101 94.286 40.371 94.1964 41.1299C93.2147 45.1364 90.4877 47.4403 87.5211 48.0669C86.4965 48.2848 86.0485 49.499 86.7575 50.2346L86.8082 50.2871L86.9173 50.4428L95.2171 59.1447C95.7099 59.6623 96.5416 59.6701 97.0734 59.1622L106.316 50.3591C106.91 50.2754 107.524 50.581 107.705 51.2036C108.042 52.3653 108.649 53.455 109.538 54.3793C113.731 58.7478 121.893 57.1113 123.611 49.4134C123.697 49.0204 123.714 48.6078 123.652 48.2187C123.089 44.395 120.866 42.0541 118.215 41.1571C117.619 40.9547 117.321 40.3826 117.391 39.8183L126.577 31.0717C127.1 30.5755 127.138 29.7796 126.689 29.2581Z" fill="#EFF3F5"/>
<path d="M84.5972 109.92H84.6673L84.8582 109.948L96.8881 110C97.6049 110.004 98.1835 109.407 98.1873 108.673L98.2399 95.9159C98.5906 95.4333 99.2333 95.1998 99.8099 95.5033C100.879 96.0618 102.089 96.3829 103.371 96.3829C109.428 96.3907 113.903 89.3777 109.536 82.8027C109.315 82.4719 109.025 82.1722 108.704 81.9445C105.552 79.7029 102.328 79.6815 99.843 80.9716C99.282 81.2596 98.6665 81.0728 98.3062 80.635L98.3568 67.9576C98.3627 67.2454 97.8134 66.6617 97.1258 66.6305L96.7089 66.5508L85.2633 66.543C84.4375 66.397 83.9115 65.4688 84.3206 64.673C84.8874 63.5541 85.2147 62.2835 85.2205 60.933C85.24 56.37 81.6033 52.6728 77.1447 52.7662C72.6822 52.6475 69.0299 56.3272 69.0241 60.8922C69.028 62.2426 69.3416 63.5152 69.9123 64.638C70.3136 65.4338 69.7818 66.362 68.954 66.5041L57.5045 66.4515L57.0916 66.5274C56.6007 66.5488 56.1877 66.8582 55.9832 67.2921C56.0533 67.4906 56.0962 67.7066 56.0962 67.9284L56.0748 81.0183L55.358 80.8762C55.0327 81.0183 54.6606 81.0436 54.3042 80.8548L54.0821 80.7575C53.6964 80.7614 53.2991 80.7887 52.8881 80.8471L52.7829 80.8607L52.6777 80.8432C52.2258 80.7595 51.8226 80.6875 51.433 80.6875C47.7613 80.6953 44.7207 83.5265 44.261 87.2062C44.2201 87.5233 44.1929 87.8425 44.1929 88.1733C44.1929 89.4945 44.5474 90.9053 45.3109 92.3335C45.4746 92.6429 45.6401 92.9562 45.8446 93.2675C46.0219 93.5322 46.2537 93.7715 46.5128 93.9525C48.1996 95.1453 49.8533 95.624 51.3941 95.6279C51.807 95.624 52.2102 95.5909 52.6056 95.5267L52.7108 95.5053L52.816 95.5228C53.151 95.5773 53.4121 95.6298 53.6536 95.659C53.8562 95.5753 54.0626 95.4917 54.2594 95.3885C54.6762 95.1725 55.1262 95.2426 55.4729 95.4761L56.0456 95.3613L56.0241 108.65C56.0241 108.819 55.9949 108.986 55.956 109.148C56.1663 109.589 56.5968 109.901 57.1071 109.901L69.141 109.909L69.326 109.883H69.3981C70.4227 109.887 70.9934 108.726 70.4402 107.832C68.8527 105.254 68.6482 101.695 70.8804 98.2237C71.3654 97.636 71.9283 97.1262 72.5536 96.6981C74.071 95.7913 75.5962 95.3808 77.0356 95.3652C78.4731 95.3885 79.9944 95.8088 81.5059 96.7195C82.1273 97.1495 82.6902 97.6633 83.1733 98.2548C85.388 101.736 85.1601 105.295 83.559 107.867C83.0097 108.757 83.5726 109.92 84.5972 109.92Z" fill="#FEFEFE"/>
<path d="M42.0113 64.8792L41.9841 64.9492L41.9724 64.9745L41.9042 65.2489C41.9003 65.5369 42.136 65.8288 42.4262 65.891L53.79 65.8716C53.9536 65.8716 54.09 65.9163 54.2322 65.9514V65.9475C54.6315 65.965 54.9957 66.1031 55.2957 66.3288L55.3678 65.9708L55.4204 53.2137C55.7729 52.7311 56.4138 52.5015 56.9903 52.7992C58.0578 53.3577 59.2674 53.6788 60.551 53.6788C66.6127 53.6865 71.085 46.6736 66.7179 40.0985C66.4958 39.7677 66.2095 39.47 65.8862 39.2404C62.7365 36.9988 59.5089 36.9774 57.0215 38.2675C56.4644 38.5555 55.843 38.3687 55.4866 37.9308L55.5411 25.2535C55.5411 24.5413 54.9938 23.9575 54.3062 23.9264L53.8894 23.8466L42.4438 23.8388C41.6159 23.6929 41.09 22.7647 41.4971 21.9689C42.0678 20.85 42.3931 19.5774 42.4009 18.2289C42.4223 13.6639 38.7838 9.96869 34.3232 10.0621C29.8645 9.94534 26.2104 13.625 26.2045 18.188C26.2065 19.5404 26.524 20.813 27.0927 21.9338C27.494 22.7297 26.9642 23.6579 26.1363 23.796L14.6849 23.7474L14.27 23.8233C13.5805 23.8525 13.0312 24.4323 13.0312 25.1484L13.0195 37.8258C12.6553 38.2597 12.0378 38.4484 11.4826 38.1527C9.00303 36.8528 5.77349 36.8567 2.61407 39.0847C2.29073 39.3105 2.00245 39.6101 1.77649 39.939C-2.62565 46.4888 1.81545 53.5231 7.87522 53.5464C9.15886 53.5542 10.3704 53.2409 11.4378 52.6844C12.0183 52.3867 12.6611 52.6221 13.0059 53.1086L12.9961 65.8657C12.9961 66.0253 13.0331 66.1751 13.0838 66.3172C13.3818 66.0973 13.7441 65.963 14.1415 65.9455V65.9494C14.2817 65.9144 14.422 65.8696 14.5836 65.8696L25.9474 65.8891C26.2357 65.8268 26.4714 65.5349 26.4655 65.2508L26.3993 64.9726L26.3857 64.9414L26.3701 64.9103L26.3545 64.8714C25.776 63.7 25.441 62.3787 25.4312 60.9797H25.4293V60.9427V60.9349V60.9135C25.4293 60.0281 25.5968 59.205 25.8169 58.4325C26.8609 54.8151 30.0963 52.1318 33.994 52.1318L34.2005 52.1357L34.3738 52.1318C38.2676 52.1318 41.5049 54.8151 42.549 58.4325C42.7691 59.205 42.9346 60.0281 42.9346 60.9174V60.9349C42.9385 62.3573 42.5976 63.6941 42.0113 64.8792Z" fill="#FEFEFE"/>
<path d="M45.9576 81.4171C47.4536 80.0823 49.4053 79.265 51.548 79.2592L51.5519 79.8994V79.2592C52.072 79.2592 52.5278 79.3487 52.9504 79.4226C53.3829 79.3662 53.8133 79.3292 54.2438 79.3253C54.4561 79.3253 54.6684 79.3351 54.8827 79.3565L54.8983 67.8116C54.8983 67.4458 54.6392 67.1831 54.3334 67.1481L54.2906 67.1364L54.1912 67.1325L54.0958 67.0975L53.9029 67.0586L42.3989 67.078L42.3424 67.0683C41.4425 66.9049 40.8231 66.1654 40.7393 65.2995L40.7082 65.1263C40.7082 64.8539 40.7725 64.5776 40.901 64.3091H40.8952L40.9205 64.2429L40.9361 64.2215C41.4464 63.1921 41.7405 62.0421 41.7405 60.8123V60.7948C41.7405 60.0729 41.6061 59.3743 41.4055 58.6758C40.5056 55.576 37.7591 53.3207 34.4887 53.3207L34.3212 53.3246H34.3036H34.2842L34.1108 53.3207C32.572 53.3207 31.1598 53.8325 29.9911 54.6828C28.6743 55.6422 27.6693 57.0315 27.1959 58.6758C27.0791 59.0727 26.9972 59.4716 26.9388 59.8744C26.894 60.176 26.857 60.4796 26.857 60.789V60.7929V60.8143C26.857 62.0441 27.1531 63.1941 27.6673 64.2196L27.6829 64.2487L27.6946 64.2799L27.7102 64.3188L27.7043 64.3227C27.8251 64.5834 27.8913 64.8617 27.8913 65.1322L27.8621 65.2878C27.7842 66.1596 27.1609 66.9068 26.259 67.0703L26.2045 67.08L14.7005 67.0605L14.607 67.078L14.5057 67.0994L14.4122 67.1345L14.3109 67.1384C13.9875 67.152 13.7032 67.4302 13.7012 67.8097L13.7226 80.7225L13.5726 80.9073C13.2123 81.3374 12.6825 81.6137 12.0962 81.6137C11.804 81.6137 11.5001 81.5436 11.2255 81.3977C10.2457 80.8898 9.14907 80.6018 7.97647 80.6018C6.42792 80.6018 4.74303 81.1019 3.0445 82.3084C2.78739 82.4893 2.54975 82.7287 2.37639 82.9933C1.21352 84.7349 0.724609 86.4745 0.724609 88.0856C0.724609 92.2284 3.97752 95.5636 7.95699 95.5695H7.97062C9.13933 95.5695 10.2438 95.2854 11.2216 94.7736C11.4884 94.6354 11.7806 94.5654 12.065 94.5654C12.7078 94.5654 13.2746 94.8981 13.6272 95.3885L13.7518 95.5617L13.7713 108.527C13.7713 108.912 14.0713 109.2 14.4083 109.2L26.3934 109.181L26.5843 109.152H26.633H26.7031C26.896 109.148 27.0187 109.082 27.1278 108.971C27.2329 108.852 27.2992 108.683 27.2992 108.502L27.1862 108.103C26.3467 106.747 25.8578 105.135 25.8578 103.411C25.8578 101.602 26.3973 99.6675 27.5991 97.7916L27.6225 97.7566L27.6459 97.7294C28.1699 97.0931 28.7815 96.5365 29.4574 96.0754L29.473 96.0657L29.4866 96.0559C31.0936 95.0908 32.7356 94.6413 34.292 94.614H34.2978H34.3134C35.8697 94.6413 37.5098 95.0908 39.1168 96.0559L39.1324 96.0637L39.1499 96.0773C39.8258 96.5404 40.4355 97.095 40.9595 97.7313L40.9848 97.7624L41.0062 97.7936C42.2061 99.6713 42.7476 101.604 42.7456 103.417C42.7456 105.137 42.2626 106.75 41.4192 108.109L41.3042 108.504C41.3023 108.685 41.3724 108.854 41.4776 108.973C41.5847 109.084 41.7113 109.15 41.9022 109.154H42.0171L42.0639 109.161L42.208 109.183L54.1971 109.202C54.534 109.202 54.834 108.914 54.836 108.529L54.8574 96.8206C54.5866 96.8557 54.3081 96.881 54.0159 96.881H54.012C53.5173 96.8771 53.1257 96.7681 52.7985 96.7136C52.3778 96.7759 51.9551 96.8206 51.5168 96.8206C49.7638 96.8206 47.8997 96.2641 46.0784 95.0304L45.8719 94.9059C45.4863 94.6277 45.1434 94.2813 44.8746 93.8765C44.189 92.8511 43.7157 91.8061 43.4099 90.769C43.3164 90.446 43.2462 90.123 43.1859 89.8038C43.0729 89.2123 43.0028 88.6285 43.0028 88.0545C43.0008 85.4081 44.1442 83.0342 45.9576 81.4171Z" fill="#FEFEFE"/>
</g>
<defs>
<clipPath id="clip0">
<rect width="127" height="110" fill="white"/>
</clipPath>
</defs>
</svg>
