<svg width="90" height="110" viewBox="0 0 90 110" fill="none" xmlns="http://www.w3.org/2000/svg">
<g clip-path="url(#clip0)">
<path d="M62.9662 25.494L63.9053 28.886L72.3292 26.558L71.3901 23.166C66.7447 6.38202 49.2921 -3.49598 32.4863 1.14602C15.6825 5.78802 5.79286 23.22 10.4403 40.004L18.1454 67.828L26.5693 65.5L18.8643 37.678C15.5023 25.532 22.6587 12.92 34.817 9.56002C46.9754 6.20002 59.6042 13.35 62.9662 25.494Z" fill="#BDBDBD"/>
<path d="M90 106.614C90 108.484 88.4822 110 86.61 110H3.38999C1.51779 110 0 108.484 0 106.614V52.606C0 50.736 1.51779 49.22 3.38999 49.22H86.612C88.4842 49.22 90.002 50.736 90.002 52.606V106.614H90Z" fill="#FEFEFE"/>
<path d="M89.9999 106.614V73.522C62.5816 96.692 23.0511 105.398 0.648682 108.592C1.26541 109.442 2.25858 110 3.38991 110H86.6119C88.4821 110 89.9999 108.484 89.9999 106.614Z" fill="#E0E0E0"/>
<path d="M52.4377 70.4579C52.4377 66.3559 49.1078 63.0299 45.001 63.0299C40.8941 63.0299 37.5642 66.3559 37.5642 70.4579C37.5642 72.9039 38.7536 75.0659 40.5778 76.4199L38.211 93.2179H51.791L49.4242 76.4199C51.2483 75.0659 52.4377 72.9039 52.4377 70.4579Z" fill="#090909"/>
<path d="M3.28589 55.6259V67.256C3.59425 62.318 5.97305 51.5699 20.8566 51.5699H7.34467C5.11204 51.5699 3.28589 53.3959 3.28589 55.6259Z" fill="#E0E0E0"/>
<path d="M38.2109 93.2179C38.2109 93.2179 48.2888 90.3719 49.4241 76.4199L51.7909 93.2179H38.2109Z" fill="#090909"/>
</g>
<defs>
<clipPath id="clip0">
<rect width="90" height="110" fill="white"/>
</clipPath>
</defs>
</svg>
