<svg width="262" height="369" viewBox="0 0 262 369" fill="none" xmlns="http://www.w3.org/2000/svg">
<g clip-path="url(#clip0)">
<path d="M117.953 176.192C125.318 176.192 131.289 170.217 131.289 162.846C131.289 155.475 125.318 149.5 117.953 149.5C110.589 149.5 104.618 155.475 104.618 162.846C104.618 170.217 110.589 176.192 117.953 176.192Z" fill="#3F3D56"/>
<path d="M163.111 263.826C163.111 263.826 162.361 280.578 161.282 283.823C160.203 287.068 161.487 288.557 158.102 289.407C154.717 290.257 155.907 271.997 155.907 271.997L157.048 264.998L163.111 263.826Z" fill="url(#paint0_linear)"/>
<path d="M127.718 268.696L135.548 314.567H142.243L143.917 288.142L145.461 321.318H152.807C152.807 321.318 159.125 284.977 157.959 278.289C157.64 276.084 156.946 273.95 155.907 271.979L127.718 268.696Z" fill="#25233A"/>
<path d="M132.336 197.182C132.063 193.639 132.255 189.873 134.158 186.876C134.933 185.671 135.952 184.642 137.149 183.856C138.346 183.069 139.695 182.542 141.108 182.31C145.181 181.689 149.167 183.551 152.887 185.35C158.343 188.03 163.836 190.736 168.634 194.452C173.433 198.169 177.555 203.039 179.372 208.841C180.188 211.665 180.624 214.587 180.667 217.527C180.816 220.27 180.626 223.021 180.103 225.717C179.16 229.848 177.114 233.645 174.185 236.704C171.256 239.763 167.553 241.97 163.47 243.09C154.171 245.51 143.575 242.091 135.163 246.714C134.611 247.097 133.971 247.332 133.303 247.396C132.849 247.352 132.418 247.174 132.067 246.883C131.716 246.592 131.459 246.202 131.331 245.764C131.093 244.883 131.093 243.953 131.331 243.071C131.92 240.332 133.297 237.826 135.293 235.862C137.859 233.349 141.282 231.897 144.084 229.657C144.561 229.339 144.925 228.879 145.125 228.342C145.46 227.101 144.171 226.077 142.987 225.618C141.802 225.159 140.389 224.749 139.918 223.577C139.533 222.627 139.918 221.573 140.184 220.58C141.257 216.237 138.944 213.32 136.558 210.1C133.786 206.377 132.683 201.724 132.336 197.182Z" fill="#3F3D56"/>
<path d="M152.98 198.467C152.98 198.467 157.159 205.459 161.964 210.088C166.768 214.716 174.952 223.037 169.738 229.353C166.606 233.145 162.617 236.138 158.101 238.083L147.519 227.442V210.069L152.98 198.467Z" fill="#25233A"/>
<path d="M116.303 192.256L126.396 191.505C126.396 191.505 123.563 211.112 137.339 217.477C151.114 223.843 159.589 225.171 160.525 230.085C161.461 234.999 165.106 263.36 165.106 263.36L158.169 264.98L157.958 243.047L158.225 270.713C158.225 270.713 143.197 279.151 138.87 277.488C134.543 275.825 125.46 274.442 125.677 260.345C125.894 246.248 132.497 236.271 125.33 225.543C118.163 214.816 116.117 197.337 116.303 192.256Z" fill="#FF5A4C"/>
<path d="M116.303 192.256L126.396 191.505C126.396 191.505 123.563 211.112 137.339 217.477C151.114 223.843 159.589 225.171 160.525 230.085C161.461 234.999 165.106 263.36 165.106 263.36L158.169 264.98L157.958 243.047L158.225 270.713C158.225 270.713 143.197 279.151 138.87 277.488C134.543 275.825 125.46 274.442 125.677 260.345C125.894 246.248 132.497 236.271 125.33 225.543C118.163 214.816 116.117 197.337 116.303 192.256Z" fill="url(#paint1_linear)"/>
<path d="M140.333 218.849C140.333 218.849 140.717 224.681 144.462 224.538C148.206 224.396 148.213 222.522 148.213 222.522L150.593 212.359L140.333 212.979C140.333 212.979 141.499 217.285 140.333 218.849Z" fill="url(#paint2_linear)"/>
<path d="M140.798 215.647C140.798 215.647 140.327 218.65 142.255 219.5C144.183 220.35 147.289 219.283 148.039 218.427L148.213 222.497L149.948 215.082L140.798 215.647Z" fill="#222A72"/>
<path d="M137.122 198.268C137.122 198.268 134.959 213.705 142.733 216.826C150.507 219.947 152.888 211.571 153.892 207.55C154.897 203.53 151.989 189.122 145.833 191.362C142.228 192.604 139.155 195.041 137.122 198.268Z" fill="url(#paint3_linear)"/>
<path d="M118.852 192.07C118.852 192.07 119.578 186.672 119.596 186.572C119.661 186.071 119.587 185.562 119.384 185.1C119.181 184.637 118.855 184.239 118.443 183.948C117.699 183.389 116.881 182.086 116.881 179.077C116.881 176.068 120.067 172.811 121.382 174.113C122.696 175.416 122.702 176.446 123.924 176.639C125.145 176.831 124.203 179.933 123.924 180.982C123.645 182.031 125.424 191.598 125.424 191.598L118.852 192.07Z" fill="url(#paint4_linear)"/>
<path d="M157.959 243.071L161.989 264.086L158.17 264.98L157.959 243.071Z" fill="url(#paint5_linear)"/>
<path d="M145.46 321.318C145.46 321.318 143.718 338.504 146.576 352.471H148.566L152.807 321.318H145.46Z" fill="#25233A"/>
<path d="M135.548 314.567L139.54 349.617L141.003 348.996C141.003 348.996 143.744 324.178 143.521 321.783C143.297 319.388 142.243 314.555 142.243 314.555L135.548 314.567Z" fill="#25233A"/>
<path d="M141.003 349.009C141.003 349.009 141.889 350.51 141.79 351.577C141.716 352.31 136.657 358.589 133.043 361.976C129.137 365.637 125.349 364.284 125.349 364.284C123.936 364.142 123.204 360.891 124.283 359.941C126.634 357.926 129.276 356.277 132.119 355.052C138.598 352.31 139.558 349.592 139.558 349.592L141.003 349.009Z" fill="#25233A"/>
<path d="M146.576 352.471C146.187 353.69 146.046 354.975 146.161 356.25C146.409 358.067 154.22 366.965 154.22 366.965C154.22 366.965 160.618 371.122 162.863 367.548C165.107 363.974 156.241 359.234 154.481 358.241C152.72 357.248 148.566 352.477 148.566 352.477L146.576 352.471Z" fill="#25233A"/>
<path d="M101.822 142.216C102.671 144.938 104.354 147.325 106.632 149.038C108.911 150.752 111.669 151.706 114.519 151.765C118.083 151.765 122.095 150.406 125.814 145.907C135.734 133.92 117.476 112.793 142.07 87.2491C166.663 61.7047 169.224 16.4236 125.052 13.4143C91.3198 11.1311 77.5196 32.1274 73.6387 45.2688V58.59L97.3334 67.8969C97.3334 67.8969 106.397 40.3733 121.32 43.8789C136.242 47.3845 122.187 72.0664 112.77 81.4478C92.0204 102.128 98.0216 130.396 101.822 142.216Z" fill="#3F3D56"/>
<path d="M101.822 142.216C102.671 144.938 104.354 147.325 106.632 149.038C108.911 150.752 111.669 151.706 114.519 151.765C118.083 151.765 122.095 150.406 125.814 145.907C135.734 133.92 117.476 112.793 142.07 87.2491C166.663 61.7047 169.224 16.4236 125.052 13.4143C91.3198 11.1311 77.5196 32.1274 73.6387 45.2688V58.59L97.3334 67.8969C97.3334 67.8969 106.397 40.3733 121.32 43.8789C136.242 47.3845 122.187 72.0664 112.77 81.4478C92.0204 102.128 98.0216 130.396 101.822 142.216Z" fill="url(#paint6_linear)"/>
<path d="M101.822 125.345C102.677 128.065 104.361 130.448 106.638 132.16C108.915 133.873 111.671 134.829 114.519 134.894C118.083 134.894 122.094 133.275 125.814 128.783C135.734 116.789 116.211 104.87 140.811 79.3258C165.411 53.7815 169.242 3.12712 125.07 0.136501C80.8983 -2.85412 73.6572 45.2874 73.6572 45.2874L97.352 54.5943C97.352 54.5943 106.397 27.1017 121.32 30.5949C136.242 34.0881 122.187 58.7762 112.77 68.1637C92.0203 88.8251 98.0215 113.526 101.822 125.345Z" fill="#FF5A4C"/>
<path d="M117.953 167.462C125.318 167.462 131.289 161.487 131.289 154.116C131.289 146.745 125.318 140.77 117.953 140.77C110.589 140.77 104.618 146.745 104.618 154.116C104.618 161.487 110.589 167.462 117.953 167.462Z" fill="#FF5A4C"/>
<path d="M64.7793 160.352C66.1044 157.515 64.8802 154.14 62.0451 152.813C59.21 151.487 55.8375 152.712 54.5125 155.55C53.1874 158.387 54.4116 161.763 57.2467 163.089C60.0818 164.415 63.4543 163.19 64.7793 160.352Z" fill="#3F3D56"/>
<path d="M50.2227 152.062C50.9584 153.026 51.9772 153.734 53.1359 154.088C54.2945 154.442 55.5349 154.423 56.6826 154.035C58.1086 153.527 59.5097 152.391 60.3466 150.052C62.566 143.847 52.2128 138.034 58.3441 124.253C64.4755 110.473 58.9269 91.9894 40.8489 97.2261C27.0363 101.209 24.5627 111.602 24.9161 117.422L26.8441 122.733L37.6562 123.006C37.6562 123.006 37.2842 110.702 43.7565 109.933C50.2289 109.164 48.1892 121.07 45.7838 126.189C40.4894 137.469 46.9865 147.893 50.2227 152.062Z" fill="#3F3D56"/>
<path d="M50.2227 152.062C50.9584 153.026 51.9772 153.734 53.1359 154.088C54.2945 154.442 55.5349 154.423 56.6826 154.035C58.1086 153.527 59.5097 152.391 60.3466 150.052C62.566 143.847 52.2128 138.034 58.3441 124.253C64.4755 110.473 58.9269 91.9894 40.8489 97.2261C27.0363 101.209 24.5627 111.602 24.9161 117.422L26.8441 122.733L37.6562 123.006C37.6562 123.006 37.2842 110.702 43.7565 109.933C50.2289 109.164 48.1892 121.07 45.7838 126.189C40.4894 137.469 46.9865 147.893 50.2227 152.062Z" fill="url(#paint7_linear)"/>
<path d="M47.7803 145.318C48.5132 146.283 49.5308 146.993 50.6891 147.347C51.8473 147.701 53.0875 147.681 54.2341 147.291C55.6662 146.782 57.0301 145.548 57.8608 143.208C60.0865 137.004 50.564 135.049 56.6891 121.269C62.8143 107.489 57.0053 86.6969 38.9212 91.915C20.837 97.133 24.9473 117.422 24.9473 117.422L35.7594 117.689C35.7594 117.689 35.3936 105.391 41.8598 104.622C48.3259 103.853 46.2924 115.759 43.887 120.872C38.5864 132.152 44.538 141.148 47.7803 145.318Z" fill="#FF5A4C"/>
<path d="M60.8783 159.559C63.6891 158.182 64.8524 154.785 63.4767 151.972C62.1009 149.159 58.7069 147.994 55.8961 149.371C53.0853 150.748 51.9219 154.145 53.2977 156.958C54.6735 159.771 58.0675 160.935 60.8783 159.559Z" fill="#FF5A4C"/>
<path d="M34.6799 212.352C34.9162 213.448 34.8227 214.589 34.4114 215.632C34 216.674 33.2892 217.572 32.3687 218.21C31.4482 218.848 30.3593 219.2 29.2395 219.219C28.1197 219.239 27.0192 218.925 26.0771 218.319C25.135 217.713 24.3934 216.841 23.9461 215.814C23.4988 214.786 23.3659 213.649 23.564 212.546C23.7621 211.443 24.2824 210.423 25.0592 209.615C25.836 208.808 26.8345 208.249 27.9285 208.009C28.6569 207.849 29.4098 207.834 30.1439 207.966C30.8781 208.097 31.579 208.373 32.2063 208.776C32.8337 209.18 33.3752 209.704 33.7997 210.317C34.2242 210.931 34.5233 211.623 34.6799 212.352Z" fill="#3F3D56"/>
<path d="M20.5698 206.477C21.1707 207.53 22.0872 208.367 23.1897 208.871C24.2923 209.374 25.525 209.518 26.7136 209.281C28.1953 208.965 29.7389 208.04 30.8673 205.819C33.8865 199.937 24.3825 192.833 32.2622 179.977C40.1418 167.121 37.073 148.091 18.4619 150.89C4.24632 153.024 0.433586 163.001 0.0244141 168.815L1.26433 174.337L11.9276 176.037C11.9276 176.037 13.1675 163.795 19.6894 163.882C26.2114 163.969 22.6218 175.503 19.5717 180.256C12.8327 190.736 17.9102 201.923 20.5698 206.477Z" fill="#3F3D56"/>
<path d="M20.5698 206.477C21.1707 207.53 22.0872 208.367 23.1897 208.871C24.2923 209.374 25.525 209.518 26.7136 209.281C28.1953 208.965 29.7389 208.04 30.8673 205.819C33.8865 199.937 24.3825 192.833 32.2622 179.977C40.1418 167.121 37.073 148.091 18.4619 150.89C4.24632 153.024 0.433586 163.001 0.0244141 168.815L1.26433 174.337L11.9276 176.037C11.9276 176.037 13.1675 163.795 19.6894 163.882C26.2114 163.969 22.6218 175.503 19.5717 180.256C12.8327 190.736 17.9102 201.923 20.5698 206.477Z" fill="url(#paint8_linear)"/>
<path d="M19.0323 199.472C19.6338 200.524 20.5505 201.361 21.6528 201.864C22.7551 202.368 23.9875 202.512 25.176 202.276C26.6577 201.96 28.1704 200.911 29.305 198.709C32.3242 192.827 23.1364 189.662 31.0161 176.806C38.8957 163.95 35.8579 142.569 17.2468 145.368C-1.36431 148.166 0.0243934 168.815 0.0243934 168.815L10.6877 170.502C10.6877 170.502 11.9276 158.261 18.4495 158.348C24.9715 158.434 21.3819 169.969 18.3317 174.722C11.6238 185.214 16.3665 194.918 19.0323 199.472Z" fill="#FF5A4C"/>
<path d="M28.762 215.608C31.8828 215.375 34.2238 212.654 33.9908 209.531C33.7578 206.407 31.039 204.064 27.9182 204.298C24.7975 204.531 22.4565 207.252 22.6895 210.375C22.9225 213.498 25.6413 215.841 28.762 215.608Z" fill="#FF5A4C"/>
<path d="M200.55 169.733C200.3 170.826 199.732 171.821 198.917 172.591C198.103 173.361 197.078 173.872 195.973 174.06C194.869 174.247 193.733 174.103 192.711 173.644C191.688 173.186 190.824 172.435 190.228 171.485C189.632 170.536 189.33 169.431 189.362 168.31C189.393 167.189 189.756 166.102 190.404 165.188C191.052 164.273 191.957 163.571 193.003 163.171C194.05 162.771 195.192 162.69 196.284 162.939C197.75 163.275 199.022 164.179 199.822 165.453C200.621 166.727 200.883 168.266 200.55 169.733Z" fill="#3F3D56"/>
<path d="M190.302 158.391C190.394 159.598 190.863 160.745 191.642 161.671C192.42 162.597 193.469 163.256 194.642 163.553C196.111 163.901 197.909 163.708 199.874 162.201C205.113 158.174 199.558 147.688 212.168 139.436C224.778 131.184 230.147 112.663 212.112 107.234C198.349 103.083 190.637 110.473 187.785 115.554L186.545 121.064L195.485 127.157C195.485 127.157 201.839 116.609 207.692 119.488C213.544 122.367 205.379 131.246 200.587 134.243C190.029 140.844 189.855 153.13 190.302 158.391Z" fill="#3F3D56"/>
<path d="M190.302 158.391C190.394 159.598 190.863 160.745 191.642 161.671C192.42 162.597 193.469 163.256 194.642 163.553C196.111 163.901 197.909 163.708 199.874 162.201C205.113 158.174 199.558 147.688 212.168 139.436C224.778 131.184 230.147 112.663 212.112 107.234C198.349 103.083 190.637 110.473 187.785 115.554L186.545 121.064L195.485 127.157C195.485 127.157 201.839 116.609 207.692 119.488C213.544 122.367 205.379 131.246 200.587 134.243C190.029 140.844 189.855 153.13 190.302 158.391Z" fill="url(#paint9_linear)"/>
<path d="M191.901 151.398C191.993 152.606 192.461 153.753 193.24 154.679C194.019 155.606 195.068 156.264 196.241 156.561C197.716 156.914 199.539 156.61 201.504 155.103C206.743 151.076 199.787 144.282 212.403 136.03C225.019 127.778 231.393 107.166 213.414 101.718C195.435 96.2706 187.828 115.555 187.828 115.555L196.768 121.647C196.768 121.647 203.122 111.1 208.975 113.972C214.827 116.845 206.662 125.761 201.876 128.733C191.288 135.335 191.436 146.143 191.901 151.398Z" fill="#FF5A4C"/>
<path d="M201.104 166.943C202.261 164.033 200.842 160.735 197.935 159.577C195.027 158.419 191.732 159.839 190.575 162.749C189.418 165.659 190.837 168.957 193.744 170.115C196.652 171.273 199.947 169.853 201.104 166.943Z" fill="#FF5A4C"/>
<path d="M229.322 220.468C228.841 221.148 228.17 221.67 227.393 221.969C226.616 222.267 225.768 222.328 224.956 222.144C224.144 221.96 223.405 221.54 222.832 220.935C222.259 220.331 221.878 219.571 221.737 218.75C221.596 217.929 221.701 217.084 222.039 216.323C222.377 215.562 222.933 214.919 223.637 214.474C224.34 214.029 225.16 213.802 225.992 213.824C226.824 213.845 227.631 214.112 228.311 214.592C228.764 214.911 229.148 215.317 229.444 215.785C229.74 216.253 229.94 216.775 230.034 217.321C230.128 217.866 230.113 218.425 229.991 218.965C229.869 219.505 229.641 220.016 229.322 220.468Z" fill="#3F3D56"/>
<path d="M225.478 209.771C225.203 210.629 225.204 211.552 225.481 212.409C225.758 213.266 226.297 214.015 227.022 214.549C227.596 214.945 228.256 215.201 228.947 215.297C229.638 215.393 230.342 215.326 231.002 215.101C235.745 213.817 234.883 205.031 245.881 202.921C256.879 200.812 265.8 189.594 254.939 180.759C246.65 174.014 239.26 176.912 235.863 179.598L233.438 183.03L237.865 189.755C237.865 189.755 245.211 184.308 248.404 187.931C251.597 191.555 243.494 195.377 239.353 196.072C230.252 197.623 226.65 206.018 225.478 209.771Z" fill="#3F3D56"/>
<path d="M225.478 209.771C225.203 210.629 225.204 211.552 225.481 212.409C225.758 213.266 226.297 214.015 227.022 214.549C227.596 214.945 228.256 215.201 228.947 215.297C229.638 215.393 230.342 215.326 231.002 215.101C235.745 213.817 234.883 205.031 245.881 202.921C256.879 200.812 265.8 189.594 254.939 180.759C246.65 174.014 239.26 176.912 235.863 179.598L233.438 183.03L237.865 189.755C237.865 189.755 245.211 184.308 248.404 187.931C251.597 191.555 243.494 195.377 239.353 196.072C230.252 197.623 226.65 206.018 225.478 209.771Z" fill="url(#paint10_linear)"/>
<path d="M228.553 205.41C228.277 206.268 228.278 207.192 228.555 208.05C228.832 208.909 229.371 209.658 230.097 210.193C231.008 210.851 232.347 211.161 234.12 210.677C238.863 209.393 235.98 202.754 247.009 200.651C258.038 198.547 268.23 186.163 257.369 177.327C246.507 168.492 235.868 179.598 235.868 179.598L240.295 186.318C240.295 186.318 247.641 180.87 250.834 184.5C254.027 188.13 245.924 191.946 241.783 192.64C232.676 194.192 229.725 201.662 228.553 205.41Z" fill="#FF5A4C"/>
<path d="M230.944 218.152C232.261 216.231 231.773 213.605 229.853 212.286C227.933 210.968 225.309 211.456 223.992 213.378C222.674 215.299 223.163 217.925 225.082 219.244C227.002 220.562 229.626 220.074 230.944 218.152Z" fill="#FF5A4C"/>
<path d="M118.319 332.536C118.24 332.536 118.163 332.514 118.096 332.474C118.043 332.445 117.997 332.405 117.96 332.358C117.923 332.311 117.896 332.256 117.881 332.198C117.866 332.14 117.863 332.079 117.872 332.02C117.881 331.961 117.903 331.904 117.935 331.853C122.632 323.254 126.464 314.209 129.373 304.851C133.973 290.239 138.313 268.43 132.845 247.495C122.305 207.196 119.863 182.453 119.825 182.204C119.815 182.087 119.852 181.97 119.927 181.879C120.003 181.788 120.111 181.731 120.228 181.72C120.344 181.71 120.459 181.746 120.549 181.82C120.638 181.895 120.695 182.002 120.706 182.117C120.706 182.366 123.186 207.048 133.688 247.266C139.211 268.411 134.841 290.406 130.197 305.136C127.266 314.546 123.412 323.643 118.691 332.294C118.655 332.363 118.602 332.422 118.537 332.464C118.472 332.507 118.397 332.531 118.319 332.536Z" fill="white"/>
</g>
<defs>
<linearGradient id="paint0_linear" x1="155.702" y1="276.62" x2="163.111" y2="276.62" gradientUnits="userSpaceOnUse">
<stop stop-color="#ECC4D7"/>
<stop offset="0.42" stop-color="#EFD4D1"/>
<stop offset="1" stop-color="#F2EAC9"/>
</linearGradient>
<linearGradient id="paint1_linear" x1="111.914" y1="240.987" x2="253.388" y2="192.209" gradientUnits="userSpaceOnUse">
<stop stop-color="white" stop-opacity="0"/>
<stop offset="0.99" stop-color="white"/>
</linearGradient>
<linearGradient id="paint2_linear" x1="4876.58" y1="4263.79" x2="4766.6" y2="4499.64" gradientUnits="userSpaceOnUse">
<stop stop-color="#ECC4D7"/>
<stop offset="0.42" stop-color="#EFD4D1"/>
<stop offset="1" stop-color="#F2EAC9"/>
</linearGradient>
<linearGradient id="paint3_linear" x1="7748.71" y1="8938.41" x2="8228.19" y2="8938.41" gradientUnits="userSpaceOnUse">
<stop stop-color="#ECC4D7"/>
<stop offset="0.42" stop-color="#EFD4D1"/>
<stop offset="1" stop-color="#F2EAC9"/>
</linearGradient>
<linearGradient id="paint4_linear" x1="3613.45" y1="5596.81" x2="3731.18" y2="5596.81" gradientUnits="userSpaceOnUse">
<stop stop-color="#ECC4D7"/>
<stop offset="0.42" stop-color="#EFD4D1"/>
<stop offset="1" stop-color="#F2EAC9"/>
</linearGradient>
<linearGradient id="paint5_linear" x1="164.679" y1="251.677" x2="127.963" y2="266.492" gradientUnits="userSpaceOnUse">
<stop stop-opacity="0"/>
<stop offset="1"/>
</linearGradient>
<linearGradient id="paint6_linear" x1="116.638" y1="13.2425" x2="116.638" y2="151.765" gradientUnits="userSpaceOnUse">
<stop stop-color="#FF5A4C"/>
<stop offset="1" stop-color="#FF5A4C" stop-opacity="0"/>
</linearGradient>
<linearGradient id="paint7_linear" x1="42.8139" y1="96.3164" x2="42.8139" y2="154.34" gradientUnits="userSpaceOnUse">
<stop stop-color="#FF5A4C"/>
<stop offset="1" stop-color="#FF5A4C" stop-opacity="0"/>
</linearGradient>
<linearGradient id="paint8_linear" x1="18.1735" y1="150.613" x2="18.1735" y2="209.392" gradientUnits="userSpaceOnUse">
<stop stop-color="#FF5A4C"/>
<stop offset="1" stop-color="#FF5A4C" stop-opacity="0"/>
</linearGradient>
<linearGradient id="paint9_linear" x1="205.131" y1="106.017" x2="205.131" y2="163.701" gradientUnits="userSpaceOnUse">
<stop stop-color="#FF5A4C"/>
<stop offset="1" stop-color="#FF5A4C" stop-opacity="0"/>
</linearGradient>
<linearGradient id="paint10_linear" x1="242.571" y1="176.613" x2="242.571" y2="215.34" gradientUnits="userSpaceOnUse">
<stop stop-color="#FF5A4C"/>
<stop offset="1" stop-color="#FF5A4C" stop-opacity="0"/>
</linearGradient>
<clipPath id="clip0">
<rect width="262" height="369" fill="white"/>
</clipPath>
</defs>
</svg>
