<svg width="68" height="82" fill="none" xmlns="http://www.w3.org/2000/svg"><path d="M34.232 80.998a.738.738 0 01-.464 0C21.495 76.871 13.804 67.623 7.249 58.237.653 48.79.182 39.99.056 33.565c-.126-6.44 0-25.764 0-25.764l12.526-2.714v4.441l13.65-3.031V2.091L33.846.26l7.825 1.726v4.406l13.649 3.18V5.078l12.624 2.723s.126 19.325 0 25.764c-.126 6.426-.597 15.226-7.193 24.672-6.555 9.386-14.246 18.634-26.519 22.761z" fill="#6672FB"/><path d="M7.756 40.388S11.77 63.651 33.87 74.045V40.388H7.756zm26.115-29.514v29.514H59.62s1.4-5.907 1.4-12.878V17.132l-27.148-6.258z" fill="#fff"/></svg>