<svg width="74" height="79" fill="none" xmlns="http://www.w3.org/2000/svg"><g filter="url(#filter0_d)" fill="#fff"><path d="M10.533 16.36l.92-.494v14.111a1.306 1.306 0 001.306 1.306h6.76a1.306 1.306 0 001.306-1.306V23.99h4.41v5.988a1.306 1.306 0 001.307 1.306h6.76a1.306 1.306 0 001.306-1.306v-14.11l.94.498a1.305 1.305 0 101.223-2.307L23.562 7.06a1.305 1.305 0 00-1.23 0l-13.033 7a1.306 1.306 0 001.235 2.301zm12.421-6.666l9.042 4.79v14.187h-4.148v-5.988a1.306 1.306 0 00-1.306-1.306h-7.023a1.308 1.308 0 00-1.308 1.306v5.988h-4.146V14.465l8.89-4.77zM9.814 38.128h28.099a1.306 1.306 0 100-2.612h-28.1a1.306 1.306 0 000 2.612zm0 6.152h13.37a1.306 1.306 0 000-2.612H9.815a1.306 1.306 0 000 2.612zm23.489 3.54H9.813a1.306 1.306 0 000 2.612h23.49a1.306 1.306 0 000-2.612zM9.814 56.58h13.37a1.306 1.306 0 000-2.611H9.815a1.306 1.306 0 100 2.612zm23.489 3.541H9.813a1.306 1.306 0 000 2.612h23.49a1.306 1.306 0 000-2.612zm-10.119 6.152H9.915a1.306 1.306 0 000 2.612h13.269a1.306 1.306 0 000-2.612z"/><path d="M71.736 54.037a17.206 17.206 0 00-15.882-17.134V12.127c0-.346-.138-.679-.383-.923L44.65.383A1.306 1.306 0 0043.727 0H3.306A1.306 1.306 0 002 1.306v72.388A1.306 1.306 0 003.306 75h51.242a1.306 1.306 0 001.306-1.306V71.17a17.207 17.207 0 0015.882-17.133zM45.034 4.46l6.36 6.361h-6.36V4.46zM4.612 72.389V2.611h37.81v9.515a1.306 1.306 0 001.306 1.306h9.514v23.47a17.182 17.182 0 000 34.266v1.218l-48.63.001zm49.936-3.776a14.576 14.576 0 1114.576-14.576 14.593 14.593 0 01-14.576 14.576z"/><path d="M57.37 49.909a1.306 1.306 0 002.612 0 5.438 5.438 0 00-4.127-5.268v-.937a1.306 1.306 0 00-2.612 0v.937a5.425 5.425 0 000 10.536v5.471a2.814 2.814 0 01-1.515-2.485 1.306 1.306 0 00-2.612 0 5.438 5.438 0 004.127 5.268v.955a1.306 1.306 0 102.612 0v-.955a5.425 5.425 0 000-10.536v-5.471a2.814 2.814 0 011.515 2.485zm-5.643 0a2.815 2.815 0 011.515-2.486v4.971a2.814 2.814 0 01-1.515-2.485zm5.643 8.254a2.815 2.815 0 01-1.515 2.485v-4.97a2.814 2.814 0 011.515 2.485z"/></g><defs><filter id="filter0_d" x="0" y="0" width="73.736" height="79" filterUnits="userSpaceOnUse" color-interpolation-filters="sRGB"><feFlood flood-opacity="0" result="BackgroundImageFix"/><feColorMatrix in="SourceAlpha" values="0 0 0 0 0 0 0 0 0 0 0 0 0 0 0 0 0 0 127 0"/><feOffset dy="2"/><feGaussianBlur stdDeviation="1"/><feColorMatrix values="0 0 0 0 0 0 0 0 0 0 0 0 0 0 0 0 0 0 0.25 0"/><feBlend in2="BackgroundImageFix" result="effect1_dropShadow"/><feBlend in="SourceGraphic" in2="effect1_dropShadow" result="shape"/></filter></defs></svg>