<svg width="86" height="79" fill="none" xmlns="http://www.w3.org/2000/svg"><g filter="url(#filter0_d)" fill="#fff"><path d="M75.196 5.184H32.713l-1.749-2.51A6.25 6.25 0 0025.84 0H10.35C5.746 0 2 3.745 2 8.35v59.953A6.704 6.704 0 008.697 75h68.15a6.705 6.705 0 006.698-6.697v-54.77c0-4.603-3.745-8.349-8.349-8.349zM10.35 3.185h15.49c1 0 1.939.49 2.51 1.311l2.225 3.192c.298.427.786.682 1.307.682h43.314a5.17 5.17 0 015.164 5.164v9.144a5.726 5.726 0 00-2.575-.608h-.65v-4.204a4.922 4.922 0 00-4.916-4.916H13.326a4.922 4.922 0 00-4.916 4.915v4.205h-.65c-.925 0-1.8.22-2.575.608V8.35a5.17 5.17 0 015.165-5.164zm63.6 18.885H11.595v-4.204c0-.954.777-1.73 1.731-1.73h58.893c.955 0 1.731.776 1.731 1.73v4.204zm6.41 46.232a3.516 3.516 0 01-3.512 3.512H8.697a3.516 3.516 0 01-3.512-3.511V27.83a2.578 2.578 0 012.575-2.575h70.025a2.577 2.577 0 012.575 2.574v40.472z"/><path d="M62.144 61.385h-5.55V48.06h1.797a1.593 1.593 0 001.112-2.733L43.886 30.086a1.593 1.593 0 00-2.225 0L26.043 45.328a1.592 1.592 0 001.113 2.733h1.796v13.324H13.046a1.593 1.593 0 100 3.185h49.098a1.593 1.593 0 000-3.185zM42.774 33.45l11.705 11.424H31.068L42.773 33.45zm-2.417 27.934v-5.262h4.833v5.262h-4.833zm8.018 0V54.53c0-.88-.713-1.593-1.593-1.593h-8.018c-.88 0-1.593.714-1.593 1.593v6.855h-5.034V48.06H53.41v13.324h-5.034z"/></g><defs><filter id="filter0_d" x="0" y="0" width="85.545" height="79" filterUnits="userSpaceOnUse" color-interpolation-filters="sRGB"><feFlood flood-opacity="0" result="BackgroundImageFix"/><feColorMatrix in="SourceAlpha" values="0 0 0 0 0 0 0 0 0 0 0 0 0 0 0 0 0 0 127 0"/><feOffset dy="2"/><feGaussianBlur stdDeviation="1"/><feColorMatrix values="0 0 0 0 0 0 0 0 0 0 0 0 0 0 0 0 0 0 0.25 0"/><feBlend in2="BackgroundImageFix" result="effect1_dropShadow"/><feBlend in="SourceGraphic" in2="effect1_dropShadow" result="shape"/></filter></defs></svg>