<?xml version="1.0" encoding="utf-8"?><svg xmlns="http://www.w3.org/2000/svg" xmlns:xlink="http://www.w3.org/1999/xlink"><symbol fill="none" viewBox="0 0 29 29" id="closeButton-icon" xmlns="http://www.w3.org/2000/svg"><path d="M14.36.28C6.584.28.28 6.585.28 14.36c0 7.776 6.304 14.08 14.08 14.08 7.775 0 14.08-6.305 14.08-14.08S22.135.28 14.36.28zm5.198 19.43l-2.074-.01-3.124-3.724-3.121 3.72-2.078.01a.25.25 0 01-.25-.251c0-.06.021-.117.059-.164l4.089-4.871-4.09-4.869a.252.252 0 01.192-.415l2.078.01 3.12 3.724 3.122-3.72 2.074-.01a.25.25 0 01.251.251c0 .06-.022.116-.06.164l-4.082 4.868 4.086 4.871a.252.252 0 01-.192.415z" fill="#A4508B"/></symbol><symbol fill="none" viewBox="0 0 14 18" id="gps-icon" xmlns="http://www.w3.org/2000/svg"><path d="M11.437 10.057c-.59 1.195-1.388 2.386-2.205 3.454a35.435 35.435 0 01-2.482 2.892 35.427 35.427 0 01-2.482-2.892c-.817-1.068-1.615-2.259-2.205-3.454-.596-1.207-.938-2.337-.938-3.307a5.625 5.625 0 0111.25 0c0 .97-.343 2.1-.938 3.307zM6.75 18s6.75-6.397 6.75-11.25a6.75 6.75 0 00-13.5 0C0 11.603 6.75 18 6.75 18z" fill="#A4508B"/><path d="M6.75 9a2.25 2.25 0 110-4.5 2.25 2.25 0 010 4.5zm0 1.125a3.375 3.375 0 100-6.75 3.375 3.375 0 000 6.75z" fill="#A4508B"/></symbol><symbol fill="none" viewBox="0 0 22 22" id="inst-icon" xmlns="http://www.w3.org/2000/svg"><path fill-rule="evenodd" clip-rule="evenodd" d="M6.7.477C7.812.427 8.167.415 11 .415c2.833 0 3.188.012 4.299.062 1.111.05 1.87.228 2.533.485a5.131 5.131 0 011.847 1.204c.531.52.94 1.15 1.203 1.846.257.664.434 1.422.485 2.532.051 1.114.063 1.468.063 4.3 0 2.834-.013 3.188-.063 4.3-.05 1.11-.228 1.868-.486 2.532a5.116 5.116 0 01-1.202 1.848 5.112 5.112 0 01-1.847 1.202c-.663.258-1.422.434-2.531.486-1.113.05-1.468.062-4.301.062s-3.188-.012-4.3-.062c-1.11-.05-1.868-.228-2.531-.486a5.116 5.116 0 01-1.848-1.202 5.113 5.113 0 01-1.204-1.847c-.257-.664-.433-1.422-.484-2.532-.051-1.114-.063-1.468-.063-4.3 0-2.834.013-3.188.063-4.3.05-1.11.227-1.87.484-2.533a5.116 5.116 0 011.205-1.847c.52-.53 1.15-.94 1.846-1.203C4.83.705 5.59.529 6.699.477H6.7zm8.514 1.878c-1.1-.05-1.43-.06-4.214-.06-2.785 0-3.115.01-4.215.06-1.017.046-1.569.216-1.937.36-.486.189-.834.414-1.199.779a3.235 3.235 0 00-.78 1.199c-.143.368-.312.92-.359 1.937-.05 1.1-.06 1.43-.06 4.215 0 2.784.01 3.114.06 4.214.047 1.017.216 1.57.36 1.937.166.452.433.863.779 1.2.337.346.747.612 1.2.779.367.143.92.313 1.936.36 1.1.05 1.43.06 4.215.06 2.786 0 3.115-.01 4.214-.06 1.018-.047 1.57-.217 1.937-.36.487-.19.835-.414 1.2-.78.346-.336.612-.747.78-1.199.142-.368.312-.92.359-1.937.05-1.1.06-1.43.06-4.214 0-2.785-.01-3.115-.06-4.215-.047-1.017-.216-1.57-.36-1.937a3.238 3.238 0 00-.78-1.2 3.235 3.235 0 00-1.199-.779c-.367-.143-.92-.313-1.937-.36zM9.668 14.06a3.479 3.479 0 102.504-6.491 3.48 3.48 0 00-2.504 6.49zM7.209 7.054a5.36 5.36 0 117.582 7.581 5.36 5.36 0 01-7.582-7.581zm10.34-.772a1.267 1.267 0 10-1.738-1.844 1.267 1.267 0 001.739 1.844z" fill="#A4508B"/></symbol><symbol fill="none" viewBox="0 0 30 34" id="play-icon" xmlns="http://www.w3.org/2000/svg"><path d="M1.5 1.667v30.666M28.333 17L1.5 32.333M28.333 17L1.5 1.666" stroke="#FAFAFA" stroke-width="2" stroke-linecap="round" stroke-linejoin="round"/></symbol><symbol fill="none" viewBox="0 0 7 11" id="sideArrow-icon" xmlns="http://www.w3.org/2000/svg"><path d="M1.26 1l5 5L1 10.438" stroke="#A4508B" stroke-linecap="round"/></symbol><symbol fill="none" viewBox="0 0 20 24" id="tikTok-icon" xmlns="http://www.w3.org/2000/svg"><path d="M10.592.486c1.241-.02 2.475-.008 3.707-.02.075 1.452.597 2.93 1.66 3.957 1.06 1.051 2.56 1.533 4.019 1.696v3.818c-1.368-.045-2.742-.33-3.983-.918-.54-.245-1.043-.56-1.536-.882-.007 2.77.011 5.537-.018 8.296a7.217 7.217 0 01-1.282 3.737c-1.24 1.818-3.393 3.004-5.604 3.04-1.356.078-2.71-.291-3.866-.973C1.774 21.108.426 19.041.23 16.822c-.025-.47-.028-.94-.011-1.41a7.107 7.107 0 012.448-4.705c1.57-1.367 3.77-2.018 5.829-1.633.02 1.404-.037 2.807-.037 4.212-.94-.304-2.04-.22-2.862.352a3.284 3.284 0 00-1.294 1.659c-.196.48-.14 1.015-.128 1.525.225 1.556 1.721 2.864 3.318 2.722 1.06-.011 2.074-.625 2.626-1.525.178-.315.378-.637.389-1.008.093-1.696.056-3.384.067-5.08.008-3.823-.011-7.634.018-11.444V.486z" fill="#A4508B"/></symbol><symbol fill="none" viewBox="0 0 14 14" id="write-icon" xmlns="http://www.w3.org/2000/svg"><path d="M4.503 9.6l1.027-.297 6.186-6.26a.266.266 0 00-.002-.372l-.37-.375a.258.258 0 00-.37-.002L4.807 8.537 4.503 9.6zm7.574-8.046l.37.375a1.33 1.33 0 01.01 1.865l-6.374 6.45-2.196.632a.526.526 0 01-.647-.363.534.534 0 01-.002-.295l.64-2.24 6.356-6.434a1.293 1.293 0 011.843.01zm-6.72.673c.29 0 .524.237.524.53a.527.527 0 01-.524.53H3.262c-.579 0-1.048.475-1.048 1.06v6.362c0 .586.47 1.06 1.048 1.06h6.286c.579 0 1.048-.474 1.048-1.06v-2.12c0-.293.235-.53.524-.53.29 0 .524.237.524.53v2.12c0 1.171-.939 2.12-2.096 2.12H3.262c-1.158 0-2.095-.949-2.095-2.12V4.347c0-1.17.937-2.12 2.095-2.12h2.095z" fill="#FAFAFA"/></symbol><symbol fill="none" viewBox="0 0 24 18" id="yt-icon" xmlns="http://www.w3.org/2000/svg"><path d="M23.289 8.771c0-.058 0-.123-.003-.2-.002-.212-.007-.451-.012-.706a40.944 40.944 0 00-.112-2.151c-.076-.948-.188-1.739-.34-2.332a3.696 3.696 0 00-.914-1.639 3.518 3.518 0 00-1.583-.948c-.718-.2-2.125-.324-4.107-.4-.942-.036-1.95-.06-2.958-.073-.353-.005-.68-.008-.975-.01h-.747a115.507 115.507 0 00-3.934.084c-1.981.078-3.39.202-4.107.399a3.514 3.514 0 00-1.583.948 3.691 3.691 0 00-.913 1.639C.846 3.975.737 4.766.66 5.714a40.886 40.886 0 00-.112 2.151c-.008.255-.01.494-.013.706 0 .077-.003.142-.003.2v.147c0 .058 0 .124.003.2l.013.706c.02.733.056 1.463.111 2.151.077.949.188 1.739.34 2.333.326 1.258 1.28 2.25 2.497 2.587.716.2 2.126.323 4.107.399.942.037 1.95.06 2.959.073.353.006.68.008.975.01h.747c.294-.002.622-.004.975-.01 1.008-.013 2.016-.036 2.958-.073 1.982-.079 3.391-.202 4.107-.4 1.217-.335 2.172-1.326 2.497-2.586.155-.594.264-1.384.34-2.333.056-.688.091-1.418.112-2.15.007-.255.01-.494.012-.707 0-.076.003-.142.003-.2v-.147zm-1.829.137c0 .055 0 .115-.002.186l-.013.675a36.666 36.666 0 01-.107 2.046c-.068.846-.165 1.54-.284 2.004a1.74 1.74 0 01-1.204 1.248c-.533.147-1.877.265-3.703.336a111.74 111.74 0 01-3.873.081h-.726l-.96-.008a112.03 112.03 0 01-2.913-.073c-1.826-.074-3.172-.19-3.703-.336a1.744 1.744 0 01-1.204-1.248c-.119-.465-.215-1.158-.284-2.004a39.321 39.321 0 01-.107-2.046c-.007-.244-.01-.473-.012-.675 0-.07-.003-.134-.003-.186v-.126c0-.056 0-.116.003-.187.002-.205.007-.43.012-.675a36.71 36.71 0 01.107-2.046c.069-.846.165-1.539.284-2.004a1.74 1.74 0 011.204-1.247c.534-.148 1.877-.266 3.703-.337a111.563 111.563 0 013.873-.081h.726l.96.008c.993.013 1.986.037 2.913.073 1.826.074 3.173.19 3.703.337.584.162 1.047.64 1.204 1.247.12.465.216 1.158.285 2.004.053.649.086 1.347.106 2.046.008.244.01.473.013.675l.002.187v.126zM9.65 12.364l5.893-3.546-5.892-3.493v7.04z" fill="#A4508B"/></symbol></svg>