<svg width="180" height="45" fill="none" xmlns="http://www.w3.org/2000/svg"><path d="M163.936 37H36.064C27.19 37 20 31.053 20 23.713v-3.426C20 12.947 27.19 7 36.064 7h127.872C172.81 7 180 12.947 180 20.287v3.426C180 31.053 172.804 37 163.936 37z" fill="#940005"/><path d="M44.175 22.752C44.175 35.04 34.287 45 22.088 45 9.888 45 0 35.04 0 22.752S9.888.503 22.088.503c12.199 0 22.087 9.96 22.087 22.249z" fill="#940005"/><path d="M39.712 21.63c0 10.484-8.439 18.988-18.851 18.988-10.413 0-18.851-8.5-18.851-18.988S10.448 2.642 20.86 2.642c10.409 0 18.852 8.5 18.852 18.988z" fill="#EC1B23"/><path d="M33.87 18.878c0 7.588-6.36 13.74-14.203 13.74-7.845 0-14.204-6.152-14.204-13.74 0-7.587 6.36-13.738 14.204-13.738S33.87 11.29 33.87 18.878z" fill="#FFC600"/><path d="M22.613 8.41c0 4.64-3.89 8.41-8.69 8.41-4.8 0-8.69-3.764-8.69-8.41 0-4.641 3.89-8.41 8.69-8.41 4.8 0 8.69 3.764 8.69 8.41zm64.655 8.79V27h-2.24v-3.528c-.85.308-1.638.462-2.366.462-1.316 0-2.324-.313-3.024-.938-.7-.635-1.05-1.545-1.05-2.73V17.2h2.24v2.814c0 .672.177 1.18.532 1.526.364.336.887.504 1.568.504a5.13 5.13 0 002.1-.434V17.2h2.24zm2.268 2.268h2.17v4.48l3.668-4.48h2.002V27h-2.17v-4.48L91.552 27h-2.016v-7.532zm13.258 4.676h-1.134V27h-2.184v-7.532h2.184v2.926h1.176l2.044-2.926h2.324l-2.632 3.612 2.814 3.92h-2.576l-2.016-2.856zm8.453-4.788c1.167 0 2.063.28 2.688.84.626.55.938 1.386.938 2.506V27h-2.044v-.938c-.41.7-1.176 1.05-2.296 1.05-.578 0-1.082-.098-1.512-.294a2.251 2.251 0 01-.966-.812 2.113 2.113 0 01-.336-1.176c0-.7.262-1.25.784-1.652.532-.401 1.349-.602 2.45-.602h1.736c0-.476-.144-.84-.434-1.092-.289-.261-.723-.392-1.302-.392-.401 0-.798.065-1.19.196-.382.121-.709.29-.98.504l-.784-1.526c.411-.29.901-.513 1.47-.672a6.698 6.698 0 011.778-.238zm-.168 6.286c.374 0 .705-.084.994-.252.29-.177.495-.434.616-.77v-.77h-1.498c-.896 0-1.344.294-1.344.882 0 .28.108.504.322.672.224.159.528.238.91.238zm11.726-4.382h-3.864V27h-2.17v-7.532h6.034v1.792zm4.371 5.852c-.794 0-1.508-.163-2.142-.49a3.747 3.747 0 01-1.47-1.386c-.355-.588-.532-1.255-.532-2.002 0-.747.177-1.414.532-2.002a3.649 3.649 0 011.47-1.372c.634-.336 1.348-.504 2.142-.504.793 0 1.502.168 2.128.504a3.662 3.662 0 011.47 1.372c.354.588.532 1.255.532 2.002 0 .747-.178 1.414-.532 2.002a3.76 3.76 0 01-1.47 1.386c-.626.327-1.335.49-2.128.49zm0-1.792c.56 0 1.017-.187 1.372-.56.364-.383.546-.891.546-1.526s-.182-1.139-.546-1.512c-.355-.383-.812-.574-1.372-.574s-1.022.191-1.386.574c-.364.373-.546.877-.546 1.512s.182 1.143.546 1.526c.364.373.826.56 1.386.56z" fill="#fff"/></svg>