<svg width="180" height="45" fill="none" xmlns="http://www.w3.org/2000/svg"><path d="M22.613 8.41c0 4.64-3.89 8.41-8.69 8.41-4.8 0-8.69-3.764-8.69-8.41 0-4.641 3.89-8.41 8.69-8.41 4.8 0 8.69 3.764 8.69 8.41z" fill="#fff"/><path d="M163.936 37H36.064C27.19 37 20 31.053 20 23.713v-3.426C20 12.947 27.19 7 36.064 7h127.872C172.81 7 180 12.947 180 20.287v3.426C180 31.053 172.804 37 163.936 37z" fill="#940005"/><path d="M44.175 22.752C44.175 35.04 34.287 45 22.088 45 9.888 45 0 35.04 0 22.752S9.888.503 22.088.503c12.199 0 22.087 9.96 22.087 22.249z" fill="#940005"/><path d="M39.712 21.63c0 10.484-8.439 18.988-18.851 18.988-10.413 0-18.851-8.5-18.851-18.988S10.448 2.642 20.86 2.642c10.409 0 18.852 8.5 18.852 18.988z" fill="#EC1B23"/><path d="M33.87 18.878c0 7.588-6.36 13.74-14.203 13.74-7.845 0-14.204-6.152-14.204-13.74 0-7.587 6.36-13.738 14.204-13.738S33.87 11.29 33.87 18.878z" fill="#FFC600"/><path d="M70.008 21.89c.597.177 1.055.467 1.372.868.317.401.476.896.476 1.484 0 .868-.331 1.545-.994 2.03-.653.485-1.591.728-2.814.728h-4.83v-9.8h4.564c1.139 0 2.025.22 2.66.658.635.439.952 1.064.952 1.876 0 .485-.121.915-.364 1.288a2.533 2.533 0 01-1.022.868zm-4.536-.63h2.114c.495 0 .868-.098 1.12-.294.252-.205.378-.504.378-.896 0-.383-.13-.677-.392-.882-.252-.205-.62-.308-1.106-.308h-2.114v2.38zm2.492 4.06c1.064 0 1.596-.42 1.596-1.26 0-.812-.532-1.218-1.596-1.218h-2.492v2.478h2.492zm8.444-5.964c1.166 0 2.062.28 2.688.84.625.55.938 1.386.938 2.506V27H77.99v-.938c-.411.7-1.176 1.05-2.296 1.05-.579 0-1.083-.098-1.512-.294a2.251 2.251 0 01-.966-.812 2.113 2.113 0 01-.336-1.176c0-.7.261-1.25.784-1.652.532-.401 1.348-.602 2.45-.602h1.736c0-.476-.145-.84-.434-1.092-.29-.261-.724-.392-1.302-.392a3.74 3.74 0 00-1.19.196c-.383.121-.71.29-.98.504l-.784-1.526c.41-.29.9-.513 1.47-.672a6.693 6.693 0 011.778-.238zm-.168 6.286c.373 0 .704-.084.994-.252a1.45 1.45 0 00.616-.77v-.77h-1.498c-.896 0-1.344.294-1.344.882 0 .28.107.504.322.672.224.159.527.238.91.238zm17.185-6.174V27H81.93v-7.532h2.17v5.74h2.506v-5.74h2.17v5.74h2.478v-5.74h2.17zm2.096 0h2.17v4.48l3.668-4.48h2.002V27h-2.17v-4.48L97.537 27H95.52v-7.532zm9.939 0h2.17v2.94h3.276v-2.94h2.184V27h-2.184v-2.814h-3.276V27h-2.17v-7.532zm15.755 1.792h-3.864V27h-2.17v-7.532h6.034v1.792zm7.554 0h-2.548V27h-2.17v-5.74h-2.548v-1.792h7.266v1.792zm4.377 5.852c-.793 0-1.507-.163-2.142-.49a3.76 3.76 0 01-1.47-1.386c-.354-.588-.532-1.255-.532-2.002 0-.747.178-1.414.532-2.002a3.662 3.662 0 011.47-1.372c.635-.336 1.349-.504 2.142-.504.794 0 1.503.168 2.128.504a3.649 3.649 0 011.47 1.372c.355.588.532 1.255.532 2.002 0 .747-.177 1.414-.532 2.002a3.747 3.747 0 01-1.47 1.386c-.625.327-1.334.49-2.128.49zm0-1.792c.56 0 1.018-.187 1.372-.56.364-.383.546-.891.546-1.526s-.182-1.139-.546-1.512c-.354-.383-.812-.574-1.372-.574s-1.022.191-1.386.574c-.364.373-.546.877-.546 1.512s.182 1.143.546 1.526c.364.373.826.56 1.386.56zm5.633-5.852h2.17v2.94h3.276v-2.94h2.184V27h-2.184v-2.814h-3.276V27h-2.17v-7.532z" fill="#fff"/></svg>