<svg width="19" height="28" fill="none" xmlns="http://www.w3.org/2000/svg"><path fill-rule="evenodd" clip-rule="evenodd" d="M0 3.507A2.519 2.519 0 012.519.988h13.356a2.519 2.519 0 012.518 2.519v20.988a2.519 2.519 0 01-2.518 2.519H2.519A2.519 2.519 0 010 24.495V3.507z" fill="#0094F7"/><path d="M3.361 5.415c0-.06.05-.11.11-.11H14.92c.061 0 .111.05.111.11v3.816a.11.11 0 01-.11.11H3.471a.11.11 0 01-.11-.11V5.415z" stroke="#fff"/><path d="M3.949 14.956a1.431 1.431 0 100-2.862 1.431 1.431 0 000 2.862zm6.678-1.431a1.431 1.431 0 11-2.862 0 1.431 1.431 0 012.862 0zm3.816 1.431a1.431 1.431 0 100-2.862 1.431 1.431 0 000 2.862zM5.38 18.295a1.431 1.431 0 11-2.862 0 1.431 1.431 0 012.862 0zm3.816 1.431a1.431 1.431 0 100-2.862 1.431 1.431 0 000 2.862zM5.38 23.065a1.431 1.431 0 11-2.862 0 1.431 1.431 0 012.862 0zm3.816 1.431a1.431 1.431 0 100-2.862 1.431 1.431 0 000 2.862zm5.247-7.632c.79 0 1.43.64 1.43 1.43v4.77a1.431 1.431 0 01-2.861 0v-4.77c0-.79.64-1.43 1.43-1.43z" fill="#fff"/></svg>