<svg width="18" height="26" fill="none" xmlns="http://www.w3.org/2000/svg"><path fill-rule="evenodd" clip-rule="evenodd" d="M6.556 2.587C6.556 1.178 7.62 0 9 0s2.481 1.238 2.481 2.595c0 1.46-.028 2.535-.028 2.535h2.455c.046 0 .091.006.135.013h.683v2.44H3.274v-2.44h.683a.804.804 0 01.135-.013h2.455s.01-1.187.01-2.543zm3.262.752A.825.825 0 009 2.506a.825.825 0 00-.818.833c0 .462.366.835.818.835a.825.825 0 00.818-.835z" fill="#0094F7"/><path d="M0 26V2.474h5.703v1.704H1.649v20.114h14.703V4.178h-4.055V2.474H18V26H0z" fill="#0094F7"/><path d="M5.729 9.67c0-.231.183-.418.408-.418h8.18c.226 0 .409.187.409.417 0 .23-.183.417-.408.417h-8.18a.413.413 0 01-.409-.417zm0 3.148c0-.23.183-.418.409-.418h8.179c.226 0 .409.187.409.418a.413.413 0 01-.409.418h-8.18a.414.414 0 01-.408-.418zm0 3.149c0-.23.183-.417.408-.417h8.18c.226 0 .409.187.409.417a.413.413 0 01-.408.418h-8.18a.413.413 0 01-.409-.418zm0 3.151c0-.231.183-.418.408-.418h8.18c.226 0 .409.187.409.418 0 .23-.183.417-.408.417h-8.18a.413.413 0 01-.409-.417zm0 3.148c0-.23.183-.417.408-.417h8.18c.226 0 .409.186.409.417 0 .23-.183.417-.408.417h-8.18a.413.413 0 01-.409-.417zm-2-11.866c.374 0 .678-.31.678-.693a.686.686 0 00-.678-.694.686.686 0 00-.678.694c0 .383.303.693.678.693zm.678 2.427a.686.686 0 01-.678.693.686.686 0 01-.678-.693c0-.383.303-.694.678-.694.374 0 .678.31.678.694zm-.678 3.813c.374 0 .678-.31.678-.693a.686.686 0 00-.678-.694.686.686 0 00-.678.694c0 .383.303.693.678.693zm.678 2.427a.686.686 0 01-.678.693.686.686 0 01-.678-.693c0-.383.303-.694.678-.694.374 0 .678.31.678.694zm-.678 3.813c.374 0 .678-.31.678-.693a.686.686 0 00-.678-.694.686.686 0 00-.678.694c0 .383.303.693.678.693z" fill="#0094F7"/></svg>