<svg width="22" height="22" fill="none" xmlns="http://www.w3.org/2000/svg"><path d="M19.556 0H2.444A2.447 2.447 0 000 2.444v17.112A2.447 2.447 0 002.444 22h17.112A2.447 2.447 0 0022 19.556V2.444A2.447 2.447 0 0019.556 0zm.002 19.556H2.444V4.889h17.112l.002 14.667z" fill="#0094F7"/><path fill="#0094F7" fill-opacity=".4" d="M9.777 7.332h2.444v2.444H9.777zm0 3.668h2.444v2.444H9.777zm0 3.668h2.444v2.444H9.777zm4.891-7.336h2.444v2.444h-2.444zm0 3.668h2.444v2.444h-2.444zm0 3.668h2.444v2.444h-2.444z"/><path d="M9.777 16.395l6.975-6.975-1.728-1.729-5.247 5.247-2.803-2.802-1.728 1.728 4.53 4.53z" fill="#0094F7"/></svg>