<svg width="24" height="24" viewBox="0 0 24 24" fill="none" xmlns="http://www.w3.org/2000/svg">
<g clip-path="url(#clip0)">
<path fill-rule="evenodd" clip-rule="evenodd" d="M7.05285 0.072C8.33249 0.0130909 8.74049 0 12.0001 0C15.2598 0 15.6678 0.0141818 16.9463 0.072C18.2248 0.129818 19.0976 0.333818 19.8612 0.629455C20.6608 0.931636 21.3863 1.404 21.9863 2.01491C22.5972 2.61382 23.0685 3.33818 23.3696 4.13891C23.6663 4.90255 23.8692 5.77527 23.9281 7.05164C23.987 8.33346 24.0001 8.74146 24.0001 12C24.0001 15.2596 23.9859 15.6676 23.9281 16.9473C23.8703 18.2236 23.6663 19.0964 23.3696 19.86C23.0685 20.6608 22.5964 21.3864 21.9863 21.9862C21.3863 22.5971 20.6608 23.0684 19.8612 23.3695C19.0976 23.6662 18.2248 23.8691 16.9485 23.928C15.6678 23.9869 15.2598 24 12.0001 24C8.74049 24 8.33249 23.9858 7.05285 23.928C5.77649 23.8702 4.90376 23.6662 4.14012 23.3695C3.33931 23.0683 2.61374 22.5963 2.01394 21.9862C1.40345 21.3869 0.931011 20.6617 0.629577 19.8611C0.33394 19.0975 0.131031 18.2247 0.072122 16.9484C0.013213 15.6665 0.00012207 15.2585 0.00012207 12C0.00012207 8.74036 0.0143039 8.33236 0.072122 7.05382C0.12994 5.77527 0.33394 4.90255 0.629577 4.13891C0.931456 3.33827 1.40425 2.61307 2.01503 2.01382C2.61398 1.40346 3.33882 0.931029 4.13903 0.629455C4.90267 0.333818 5.77539 0.130909 7.05176 0.072H7.05285ZM16.8492 2.232C15.5838 2.17418 15.2041 2.16218 12.0001 2.16218C8.79612 2.16218 8.41648 2.17418 7.15103 2.232C5.98048 2.28545 5.34558 2.48073 4.9223 2.64545C4.36267 2.86364 3.9623 3.12218 3.5423 3.54218C3.14417 3.92951 2.83777 4.40104 2.64558 4.92218C2.48085 5.34545 2.28558 5.98036 2.23212 7.15091C2.1743 8.41636 2.1623 8.796 2.1623 12C2.1623 15.204 2.1743 15.5836 2.23212 16.8491C2.28558 18.0196 2.48085 18.6545 2.64558 19.0778C2.83758 19.5982 3.14412 20.0705 3.5423 20.4578C3.92958 20.856 4.40194 21.1625 4.9223 21.3545C5.34558 21.5193 5.98048 21.7145 7.15103 21.768C8.41648 21.8258 8.79503 21.8378 12.0001 21.8378C15.2052 21.8378 15.5838 21.8258 16.8492 21.768C18.0198 21.7145 18.6547 21.5193 19.0779 21.3545C19.6376 21.1364 20.0379 20.8778 20.4579 20.4578C20.8561 20.0705 21.1627 19.5982 21.3547 19.0778C21.5194 18.6545 21.7147 18.0196 21.7681 16.8491C21.8259 15.5836 21.8379 15.204 21.8379 12C21.8379 8.796 21.8259 8.41636 21.7681 7.15091C21.7147 5.98036 21.5194 5.34545 21.3547 4.92218C21.1365 4.36255 20.8779 3.96218 20.4579 3.54218C20.0706 3.14408 19.5991 2.83768 19.0779 2.64545C18.6547 2.48073 18.0198 2.28545 16.8492 2.232ZM10.4674 15.6993C11.3234 16.0556 12.2765 16.1037 13.164 15.8353C14.0516 15.567 14.8184 14.9988 15.3335 14.2279C15.8487 13.457 16.0802 12.5311 15.9885 11.6085C15.8969 10.6858 15.4878 9.82361 14.831 9.16909C14.4124 8.7507 13.9062 8.43034 13.3488 8.23107C12.7915 8.0318 12.197 7.95858 11.6079 8.01667C11.0189 8.07477 10.4501 8.26274 9.94245 8.56705C9.4348 8.87136 9.00093 9.28445 8.67209 9.77657C8.34324 10.2687 8.1276 10.8276 8.04068 11.413C7.95377 11.9985 7.99774 12.596 8.16944 13.1624C8.34113 13.7288 8.63628 14.2501 9.03364 14.6888C9.43099 15.1275 9.92066 15.4726 10.4674 15.6993ZM7.63867 7.63855C8.21142 7.06579 8.89138 6.61146 9.63972 6.30149C10.3881 5.99151 11.1901 5.83197 12.0001 5.83197C12.8101 5.83197 13.6122 5.99151 14.3605 6.30149C15.1089 6.61146 15.7888 7.06579 16.3616 7.63855C16.9343 8.2113 17.3887 8.89126 17.6986 9.6396C18.0086 10.3879 18.1681 11.19 18.1681 12C18.1681 12.81 18.0086 13.6121 17.6986 14.3604C17.3887 15.1087 16.9343 15.7887 16.3616 16.3615C15.2048 17.5182 13.636 18.168 12.0001 18.168C10.3643 18.168 8.7954 17.5182 7.63867 16.3615C6.48194 15.2047 5.83209 13.6359 5.83209 12C5.83209 10.3641 6.48194 8.79528 7.63867 7.63855ZM19.5361 6.75055C19.6781 6.61666 19.7917 6.45565 19.8703 6.27706C19.9489 6.09847 19.9908 5.90593 19.9937 5.71083C19.9965 5.51574 19.9602 5.32205 19.8868 5.14125C19.8135 4.96044 19.7046 4.79619 19.5666 4.65822C19.4287 4.52026 19.2644 4.41137 19.0836 4.33802C18.9028 4.26467 18.7091 4.22834 18.514 4.23118C18.3189 4.23403 18.1264 4.27599 17.9478 4.35458C17.7692 4.43317 17.6082 4.54679 17.4743 4.68873C17.2139 4.96476 17.0714 5.33141 17.0769 5.71083C17.0824 6.09026 17.2356 6.4526 17.5039 6.72092C17.7723 6.98924 18.1346 7.14243 18.514 7.14796C18.8934 7.15349 19.2601 7.01093 19.5361 6.75055Z" fill="#FEFEFE"/>
</g>
<defs>
<clipPath id="clip0">
<rect width="24" height="24" fill="white"/>
</clipPath>
</defs>
</svg>
