<svg width="91" height="38" viewBox="0 0 91 38" fill="none" xmlns="http://www.w3.org/2000/svg">
<path d="M27.6963 18.868C27.3313 18.5581 26.7843 18.6028 26.4744 18.9677C26.1645 19.3327 26.2092 19.8798 26.5742 20.1897L27.6963 18.868ZM33.0893 21.954C33.5672 21.9249 33.931 21.5139 33.9018 21.036C33.8727 20.5581 33.4617 20.1943 32.9838 20.2234L33.0893 21.954ZM26.5742 20.1897C27.1026 20.6383 27.4447 20.8705 27.8691 21.0237C28.0494 21.0888 28.244 21.1384 28.4081 21.1834C28.5856 21.2322 28.7971 21.2931 29.0829 21.3938L29.6592 19.7585C29.3221 19.6398 29.0686 19.5668 28.8673 19.5115C28.6526 19.4526 28.5549 19.428 28.4578 19.3929C28.3274 19.3458 28.1745 19.2739 27.6963 18.868L26.5742 20.1897ZM29.0829 21.3938C30.432 21.8692 31.5248 22.0495 33.0893 21.954L32.9838 20.2234C31.6628 20.304 30.8015 20.1611 29.6592 19.7585L29.0829 21.3938Z" fill="#FEFEFE"/>
<path d="M19.2499 16.7516C19.6046 16.43 19.6315 15.8818 19.3099 15.5271C18.9883 15.1724 18.4401 15.1455 18.0854 15.4671L19.2499 16.7516ZM16.615 28.704L16.0068 29.3218L16.615 28.704ZM16.9211 34.8549C16.9211 35.3337 17.3092 35.7218 17.788 35.7218C18.2668 35.7218 18.6549 35.3337 18.6549 34.8549H16.9211ZM18.0854 15.4671C16.9056 16.5368 15.9713 17.3296 15.2244 17.9529C14.4884 18.5673 13.9005 19.0445 13.4555 19.4507C13.0017 19.865 12.6381 20.2562 12.3625 20.728C12.0843 21.204 11.9265 21.7088 11.8062 22.3097L13.5063 22.6501C13.6059 22.1526 13.7138 21.852 13.8595 21.6026C14.0077 21.349 14.226 21.0949 14.6244 20.7312C15.0317 20.3594 15.5663 19.9259 16.3354 19.284C17.0937 18.6511 18.0471 17.8421 19.2499 16.7516L18.0854 15.4671ZM11.8062 22.3097C11.517 23.7536 12.0698 24.9784 12.8903 26.0635C13.6889 27.1196 14.8624 28.1951 16.0068 29.3218L17.2232 28.0863C15.9974 26.8793 14.9715 25.9411 14.2733 25.0178C13.597 24.1234 13.3555 23.403 13.5063 22.6501L11.8062 22.3097ZM16.0068 29.3218C16.6279 29.9333 16.8938 30.8471 16.9703 31.9159C17.0078 32.4401 16.9977 32.9688 16.9762 33.4729C16.9557 33.951 16.9211 34.4648 16.9211 34.8549H18.6549C18.6549 34.5127 18.6848 34.0994 18.7084 33.5469C18.7309 33.0203 18.7443 32.4146 18.6997 31.7921C18.6121 30.5674 18.2915 29.138 17.2232 28.0863L16.0068 29.3218Z" fill="#FEFEFE"/>
<path d="M10.3616 14.2558C9.985 14.5513 9.91929 15.0963 10.2149 15.4729C10.5105 15.8496 11.0554 15.9153 11.4321 15.6197L10.3616 14.2558ZM17.2182 22.3823C16.8003 22.616 16.6511 23.1442 16.8848 23.5621C17.1185 23.9799 17.6467 24.1292 18.0646 23.8955L17.2182 22.3823ZM11.4321 15.6197C12.5057 14.7771 12.9942 14.3404 13.6413 13.8844C14.2581 13.4498 15.0015 13.0147 16.4892 12.2717L15.7145 10.7206C14.1965 11.4787 13.3638 11.9589 12.6426 12.4671C11.9518 12.9539 11.3407 13.4874 10.3616 14.2558L11.4321 15.6197ZM16.4892 12.2717C17.5674 11.7333 18.7235 12.0255 19.9122 12.953C21.102 13.8815 22.147 15.3308 22.8043 16.6438L24.3547 15.8677C23.6191 14.3981 22.4282 12.7171 20.9788 11.5861C19.5283 10.4543 17.642 9.75796 15.7145 10.7206L16.4892 12.2717ZM22.8043 16.6438C22.9504 16.9357 22.9344 17.3665 22.507 18.0412C22.0879 18.7028 21.3838 19.4076 20.58 20.073C19.7866 20.7297 18.9448 21.3085 18.2962 21.7255C17.9732 21.9332 17.701 22.0989 17.5106 22.2121C17.4155 22.2687 17.341 22.312 17.2909 22.3408C17.2658 22.3552 17.2469 22.366 17.2347 22.373C17.2285 22.3765 17.224 22.379 17.2213 22.3806C17.2199 22.3813 17.2189 22.3819 17.2184 22.3822C17.2182 22.3823 17.218 22.3824 17.218 22.3824C17.2179 22.3824 17.218 22.3824 17.218 22.3824C17.2181 22.3824 17.2182 22.3823 17.6414 23.1389C18.0646 23.8955 18.0647 23.8954 18.0649 23.8953C18.065 23.8952 18.0653 23.8951 18.0655 23.895C18.0659 23.8948 18.0664 23.8945 18.067 23.8941C18.0683 23.8934 18.07 23.8925 18.0721 23.8913C18.0764 23.8888 18.0824 23.8855 18.0901 23.8811C18.1054 23.8724 18.1275 23.8598 18.1559 23.8435C18.2125 23.8109 18.2941 23.7634 18.3967 23.7024C18.6018 23.5805 18.8914 23.4041 19.2339 23.1839C19.9164 22.7451 20.8203 22.1248 21.6856 21.4086C22.5404 20.701 23.4079 19.8589 23.9716 18.9691C24.527 18.0923 24.9051 16.9672 24.3547 15.8677L22.8043 16.6438Z" fill="#FEFEFE"/>
<path d="M39.5336 0H17.5956C16.73 0 16.0286 0.696476 16.0286 1.55602V5.25387C16.0286 6.11341 16.2589 6.41513 17.1245 6.41513C17.9901 6.41513 18.2515 6.11341 18.2515 5.25387C18.2515 4.39432 18.2515 2.16727 18.2515 2.16727H39.144V34.9365L18.7716 35.1561L18.625 31.4807C18.4784 30.4314 18.4612 30.0953 17.5956 30.0953C16.73 30.0953 16.7778 30.1648 16.7778 31.0244V35.7885C16.7778 36.6481 16.73 37.3446 17.5956 37.3446H39.5336C40.3992 37.3446 41.1006 36.6481 41.1006 35.7885V1.55602C41.1006 0.696476 40.3992 0 39.5336 0Z" fill="#FEFEFE"/>
<path d="M31.9496 9.95835C31.9496 12.0668 30.2381 13.7778 28.1247 13.7778C26.0113 13.7778 24.2998 12.0668 24.2998 9.95835C24.2998 7.84987 26.0113 6.13888 28.1247 6.13888C30.2381 6.13888 31.9496 7.84987 31.9496 9.95835Z" stroke="#FEFEFE" stroke-width="1.73382"/>
<path d="M3.85639 28.5161C3.46941 28.2342 2.92716 28.3194 2.64525 28.7064C2.36334 29.0933 2.44852 29.6356 2.8355 29.9175L3.85639 28.5161ZM11.6922 29.5534C12.0284 29.2126 12.0247 28.6637 11.6839 28.3275C11.3431 27.9912 10.7942 27.9949 10.458 28.3357L11.6922 29.5534ZM7.23138 30.8277L7.24343 31.6946L7.23138 30.8277ZM3.34595 29.2168C2.8355 29.9175 2.83563 29.9176 2.83577 29.9177C2.83583 29.9177 2.83598 29.9178 2.83609 29.9179C2.83632 29.9181 2.83659 29.9183 2.83689 29.9185C2.83749 29.9189 2.83823 29.9195 2.8391 29.9201C2.84085 29.9214 2.84315 29.923 2.84598 29.9251C2.85164 29.9292 2.85944 29.9347 2.86929 29.9417C2.889 29.9558 2.91694 29.9754 2.95242 30C3.02334 30.049 3.12466 30.1177 3.25075 30.1993C3.5021 30.3621 3.85611 30.5794 4.26699 30.797C5.04862 31.2108 6.18743 31.7092 7.24343 31.6946L7.21933 29.9609C6.63261 29.9691 5.8287 29.662 5.0783 29.2647C4.72315 29.0767 4.41382 28.8869 4.19332 28.7441C4.08349 28.673 3.99677 28.6142 3.93862 28.5739C3.90957 28.5539 3.88773 28.5385 3.87378 28.5285C3.86681 28.5236 3.86181 28.52 3.85888 28.5179C3.85742 28.5168 3.85647 28.5162 3.85606 28.5159C3.85585 28.5157 3.85577 28.5156 3.85582 28.5157C3.85585 28.5157 3.85591 28.5158 3.85601 28.5158C3.85606 28.5159 3.85615 28.5159 3.85618 28.5159C3.85628 28.516 3.85639 28.5161 3.34595 29.2168ZM7.24343 31.6946C8.49378 31.6772 9.62225 31.1022 10.3851 30.5996C10.7771 30.3414 11.0983 30.085 11.3223 29.8926C11.4348 29.796 11.5239 29.7146 11.5865 29.6558C11.6178 29.6263 11.6425 29.6025 11.6602 29.5851C11.6691 29.5765 11.6762 29.5694 11.6815 29.5641C11.6842 29.5614 11.6864 29.5592 11.6882 29.5574C11.6891 29.5565 11.6899 29.5558 11.6905 29.5551C11.6909 29.5548 11.6912 29.5545 11.6914 29.5542C11.6916 29.554 11.6917 29.5539 11.6918 29.5538C11.692 29.5536 11.6922 29.5534 11.0751 28.9446C10.458 28.3357 10.4581 28.3356 10.4583 28.3354C10.4583 28.3354 10.4584 28.3352 10.4585 28.3351C10.4587 28.335 10.4588 28.3348 10.4589 28.3347C10.4591 28.3345 10.4592 28.3344 10.4592 28.3344C10.4592 28.3344 10.4588 28.3349 10.4579 28.3357C10.4562 28.3374 10.4528 28.3408 10.4478 28.3457C10.4377 28.3555 10.4212 28.3716 10.3985 28.3929C10.353 28.4357 10.2834 28.4994 10.1928 28.5772C10.0108 28.7335 9.74855 28.9427 9.43124 29.1518C8.77559 29.5837 7.98223 29.9503 7.21933 29.9609L7.24343 31.6946Z" fill="#FEFEFE"/>
<path d="M1 6.73667H10.8236M10.8236 6.73667L7.59791 3.07544M10.8236 6.73667C11.3367 6.73667 7.59791 10.3979 7.59791 10.3979" stroke="#FEFEFE" stroke-width="1.73382" stroke-linecap="round"/>
<line x1="46.4421" y1="20.4739" x2="57.3098" y2="35.9945" stroke="#FEFEFE" stroke-width="1.73382" stroke-linecap="round"/>
<line x1="0.86691" y1="-0.86691" x2="19.8141" y2="-0.86691" transform="matrix(0.573528 -0.819186 0.819118 0.573625 46.2527 37.2273)" stroke="#FEFEFE" stroke-width="1.73382" stroke-linecap="round"/>
<line x1="69.4506" y1="36.4776" x2="69.4506" y2="19.8836" stroke="#FEFEFE" stroke-width="1.73382" stroke-linecap="round"/>
<line x1="84.7447" y1="36.4776" x2="84.7447" y2="21.2616" stroke="#FEFEFE" stroke-width="1.73382" stroke-linecap="round"/>
<line x1="78.5018" y1="20.979" x2="90.1332" y2="20.979" stroke="#FEFEFE" stroke-width="1.73382" stroke-linecap="round"/>
</svg>
