<svg width="24" height="24" viewBox="0 0 24 24" fill="none" xmlns="http://www.w3.org/2000/svg">
<g clip-path="url(#clip0)">
<path d="M2.65247 11.9401C2.71795 12.0084 7.75384 12.2855 7.75384 12.2855L12.3204 7.7287L6.45029 7.60693L2.65247 11.9401Z" fill="#FEFEFE"/>
<path d="M4.69684 10.6045C5.5629 9.64191 7.64404 7.15902 7.90529 5.57397C6.34667 5.80491 3.86781 7.87247 2.90542 8.73462C2.56599 9.03869 2.26976 9.36829 2.02736 9.70385L0.00553636 12.5016C-0.0609778 12.98 0.471478 13.536 0.941535 13.4789L3.72759 11.4789C4.06221 11.2389 4.39136 10.9442 4.69684 10.6045Z" fill="#FEFEFE"/>
<path d="M0.892639 12.3179C0.756182 12.1654 0.616982 11.9988 0.49801 11.8193L0.0111516 12.4929C-0.0553629 12.9712 0.477095 13.5272 0.947496 13.4701L1.64316 12.9708C1.35755 12.8074 1.11138 12.5629 0.892639 12.3179Z" fill="#FEFEFE"/>
<path opacity="0.12" d="M9.38506 7.6675L5.83853 12.1753L4.77258 12.1102L9.0302 7.66016L9.38506 7.6675Z" fill="#FEFEFE"/>
<path d="M11.6277 21.3083C11.5622 21.24 11.4038 16.0954 11.4038 16.0954L15.9703 11.5383L15.958 17.5304L11.6277 21.3083Z" fill="#FEFEFE"/>
<path d="M12.9821 19.252C13.9445 18.3898 16.4233 16.3222 17.982 16.0913C17.7207 17.6764 15.6396 20.1592 14.7735 21.1218C14.468 21.4616 14.1385 21.7562 13.8043 21.9962L11.0182 23.9963C10.5481 24.0533 10.0157 23.4976 10.0822 23.019L12.1037 20.2212C12.3464 19.8856 12.6427 19.5564 12.9821 19.252Z" fill="#FEFEFE"/>
<path d="M11.2181 23.0952C11.3645 23.238 11.5246 23.3839 11.6977 23.5092L11.0271 23.9906C10.5571 24.0477 10.0246 23.492 10.0911 23.0133L10.5958 22.3149C10.7491 22.6103 10.9832 22.8667 11.2181 23.0952Z" fill="#FEFEFE"/>
<path opacity="0.12" d="M15.9643 14.5342L11.4691 18.0517L11.5089 19.1409L15.9636 14.8967L15.9643 14.5342Z" fill="#FEFEFE"/>
<path d="M5.56633 15.6981L4.83801 16.4248L7.7668 19.4817L8.49512 18.755L5.56633 15.6981Z" fill="#FEFEFE"/>
<path d="M7.37078 20.4362L3.85547 16.7669L4.79627 16.262L7.88644 19.4873L7.37078 20.4362Z" fill="#FEFEFE"/>
<path d="M19.8297 11.3246C21.6084 9.06704 22.8958 6.39765 23.6258 3.60265C23.9038 2.53825 24.0849 1.05992 23.9594 0.0595605C22.9822 -0.0912464 21.5302 0.0606102 20.4811 0.320236C17.7266 1.00219 15.0831 2.25623 12.8316 4.02043C10.4374 5.89659 8.78863 8.44282 6.83778 10.7504C5.87915 11.8844 4.92052 13.0181 3.96155 14.1521L6.83332 17.1497L9.70509 20.1473C10.8372 19.1945 11.9697 18.2418 13.1018 17.289C15.4068 15.3505 17.9381 13.7253 19.8297 11.3246Z" fill="#FEFEFE"/>
<path d="M7.45248 20.9475L3.39545 16.713C3.37419 16.691 3.37487 16.6557 3.39647 16.634L3.57545 16.4555C3.59705 16.4338 3.63168 16.4342 3.65293 16.4562L7.70997 20.6907C7.73123 20.7127 7.73054 20.7481 7.70894 20.7698L7.52997 20.9482C7.50837 20.9699 7.4734 20.9696 7.45248 20.9475Z" fill="#FEFEFE"/>
<path opacity="0.15" d="M5.50332 15.761L8.43234 18.8181L7.94686 19.3024L5.36755 15.8967L5.50332 15.761Z" fill="#FEFEFE"/>
<path opacity="0.19" d="M3.9408 14.1301L9.68468 20.1253L11.3688 18.7141L5.35405 12.5366L3.9408 14.1301Z" fill="#FEFEFE"/>
<path d="M0.497437 11.8194C0.497437 11.8194 1.21401 12.8187 1.64258 12.9706L1.99984 12.719C1.99984 12.719 1.18349 12.0769 0.773437 11.4387L0.497437 11.8194Z" fill="#FEFEFE"/>
<path d="M10.4564 22.4542C10.4564 22.4542 11.173 23.4535 11.6016 23.6053L11.9588 23.3538C11.9588 23.3538 11.1425 22.7117 10.7324 22.0735L10.4564 22.4542Z" fill="#FEFEFE"/>
<path d="M22.8309 6.04871C23.1436 5.24954 23.4097 4.43182 23.626 3.6029C23.9041 2.5385 24.0851 1.06017 23.9596 0.0598048C22.9825 -0.0910025 21.5305 0.0608545 20.4813 0.320481C19.6763 0.519925 18.8809 0.768354 18.1016 1.06402C18.9186 2.2131 20.4134 4.03293 22.8309 6.04871Z" fill="#FEFEFE"/>
<path d="M18.4844 9.54285C19.592 8.41254 19.5936 6.5816 18.4881 5.45334C17.3825 4.32507 15.5884 4.32673 14.4809 5.45705C13.3733 6.58736 13.3717 8.4183 14.4772 9.54657C15.5828 10.6748 17.3769 10.6732 18.4844 9.54285Z" fill="#090909"/>
<path opacity="0.2" d="M16.6647 4.59473C17.2356 4.678 17.7865 4.93973 18.2316 5.3806C19.3534 6.49224 19.3781 8.32291 18.2871 9.46954C17.6734 10.1148 16.8372 10.4059 16.0236 10.3394L16.6647 4.59473Z" fill="#FEFEFE"/>
<path d="M14.373 9.71651C13.1771 8.53175 13.1507 6.57336 14.3137 5.35081C15.4767 4.12826 17.3957 4.09782 18.5916 5.28258C19.7875 6.46734 19.8139 8.42573 18.6509 9.64828C17.4879 10.8708 15.5689 10.9013 14.373 9.71651ZM18.3245 5.56355C17.2801 4.5289 15.6042 4.55549 14.5887 5.62303C13.5728 6.69058 13.5961 8.40089 14.6405 9.43554C15.6848 10.4702 17.3607 10.4436 18.3762 9.37606C19.3918 8.30852 19.3688 6.5982 18.3245 5.56355Z" fill="#FEFEFE"/>
</g>
<defs>
<clipPath id="clip0">
<rect width="24" height="24" fill="white"/>
</clipPath>
</defs>
</svg>
