<svg width="24" height="24" viewBox="0 0 24 24" fill="none" xmlns="http://www.w3.org/2000/svg">
<path d="M4.45309 0C3.27347 0.00459671 2.14348 0.475236 1.30936 1.30936C0.475236 2.14348 0.00459671 3.27347 0 4.45309V19.5469C0.00459671 20.7265 0.475236 21.8565 1.30936 22.6906C2.14348 23.5248 3.27347 23.9954 4.45309 24H19.5469C20.7265 23.9954 21.8565 23.5248 22.6906 22.6906C23.5248 21.8565 23.9954 20.7265 24 19.5469V4.45309C23.9954 3.27347 23.5248 2.14348 22.6906 1.30936C21.8565 0.475236 20.7265 0.00459671 19.5469 0H4.45309ZM4.45309 2.18182H19.5469C20.8124 2.18182 21.8182 3.18764 21.8182 4.45309V19.5469C21.8182 20.8124 20.8124 21.8182 19.5469 21.8182H4.45309C4.1543 21.8201 3.8581 21.7626 3.58169 21.6491C3.30527 21.5357 3.05414 21.3684 2.84286 21.1571C2.63158 20.9459 2.46435 20.6947 2.35087 20.4183C2.2374 20.1419 2.17993 19.8457 2.18182 19.5469V4.45309C2.18182 3.18764 3.18764 2.18182 4.45309 2.18182ZM11.6935 7.88727C10.8916 7.87964 10.2098 7.88727 9.82691 8.07491C9.57055 8.19927 9.37527 8.47964 9.49418 8.49273C9.64364 8.51455 9.97964 8.58655 10.1596 8.82982C10.3887 9.14073 10.3811 9.84436 10.3811 9.84436C10.3811 9.84436 10.5087 11.7785 10.0691 12.0218C9.76691 12.1876 9.35345 11.8505 8.45891 10.3124C8.00291 9.52036 7.65818 8.64655 7.65818 8.64655C7.65818 8.64655 7.59273 8.484 7.47491 8.39891C7.32982 8.29309 7.12909 8.25818 7.12909 8.25818L4.99418 8.27127C4.99418 8.27127 4.67455 8.28436 4.56 8.42073C4.45309 8.54836 4.55127 8.79927 4.55127 8.79927C4.55127 8.79927 6.22146 12.7069 8.11309 14.676C9.84764 16.4836 11.8167 16.3636 11.8167 16.3636H12.7113C12.7113 16.3636 12.9796 16.3342 13.116 16.1891C13.2447 16.0527 13.2404 15.7964 13.2404 15.7964C13.2404 15.7964 13.2229 14.5996 13.7771 14.4207C14.3269 14.2495 15.0251 15.5793 15.7713 16.0909C16.3385 16.4782 16.7684 16.3931 16.7684 16.3931L18.7636 16.3636C18.7636 16.3636 19.8033 16.2993 19.3091 15.4767C19.2709 15.4135 19.0233 14.8724 17.8309 13.764C16.5775 12.6055 16.7444 12.7931 18.252 10.7858C19.1684 9.56291 19.5349 8.81673 19.4193 8.49273C19.3102 8.19055 18.636 8.27127 18.636 8.27127L16.3898 8.28436C16.3898 8.28436 16.224 8.26255 16.1007 8.33564C16.016 8.39859 15.9484 8.48188 15.9044 8.57782C15.9044 8.57782 15.5465 9.52364 15.0731 10.3298C14.076 12.0251 13.6713 12.1189 13.5098 12.0131C13.1302 11.7655 13.224 11.0236 13.224 10.5C13.224 8.85055 13.4749 8.16873 12.7385 7.99091C12.4953 7.93091 12.3164 7.89273 11.6945 7.88727H11.6935Z" fill="#FEFEFE"/>
</svg>
