<svg width="20" height="21" fill="none" xmlns="http://www.w3.org/2000/svg"><path opacity=".7" d="M6.842 7.07l-6.309.733a.61.61 0 00-.504.43.641.641 0 00.168.654c1.875 1.794 4.693 4.48 4.693 4.48-.002 0-.774 3.909-1.286 6.516a.648.648 0 00.235.636.571.571 0 00.644.035c2.208-1.316 5.515-3.294 5.515-3.294l5.514 3.295a.58.58 0 00.648-.036c.196-.15.277-.4.233-.634-.512-2.61-1.282-6.517-1.282-6.517l4.693-4.477a.654.654 0 00.167-.658.604.604 0 00-.503-.428c-2.524-.296-6.31-.736-6.31-.736l-2.614-6.063a.605.605 0 00-.546-.37.597.597 0 00-.542.37C8.409 3.43 6.842 7.069 6.842 7.069z" fill="#fff"/></svg>