<svg width="264" height="48" fill="none" xmlns="http://www.w3.org/2000/svg"><path fill-rule="evenodd" clip-rule="evenodd" d="M31.517 20.508L26.673 0h-8.477l9.248 31.683c.33.932.036 1.397-.881 1.397h-5.394l1.376 7.544h6.275c.99 0 1.816-.112 2.477-.335.697-.224 1.266-.54 1.706-.95a5.06 5.06 0 001.046-1.565c.257-.596.477-1.285.66-2.067L43.241 0H35.26l-3.743 20.508zM36.48 1.49l-3.52 19.29-2.87.076L25.514 1.49h-5.353l8.678 29.733c.198.576.386 1.489-.133 2.311-.561.891-1.532 1.036-2.144 1.036h-3.63l.833 4.564h5.054c.894 0 1.55-.102 2.012-.259l.011-.004.012-.003c.521-.168.883-.381 1.134-.607.296-.306.534-.664.715-1.084.215-.498.41-1.1.577-1.816l.002-.006L41.374 1.49H36.48zM2.37 38.184c.5.5 1.598.95 3.74.95h7.815l.865-4.564H8.917c-.494 0-1.126-.14-1.612-.671-.468-.511-.571-1.137-.571-1.601V8.326c0-.464.103-1.09.57-1.6.487-.532 1.12-.672 1.613-.672h5.886l-.832-4.564H4.844c-1.02 0-1.82.309-2.484.901-.534.504-.892 1.287-.892 2.582v29.504c0 2.096.423 3.192.902 3.707zm-1.05 1.043C.441 38.296 0 36.713 0 34.477V4.973c0-1.602.459-2.831 1.376-3.688C2.33.428 3.486 0 4.844 0h10.348l1.376 7.544H8.917c-.477 0-.716.26-.716.782v23.972c0 .522.239.782.716.782h7.65l-1.43 7.544H6.11c-2.275 0-3.872-.466-4.789-1.397zm62.026-4.657h-9.279l.375-1.798a71.18 71.18 0 00.97-5.964c.254-2.096.453-4.211.598-6.345.146-2.181.255-4.363.328-6.544.073-2.199.147-4.341.22-6.429l.05-1.436h6.738V34.57zm-5.872-14.007a121.892 121.892 0 01-.605 6.427 74.752 74.752 0 01-.698 4.6c-.093.503-.19 1-.293 1.49h6V7.544h-3.853c-.074 2.086-.147 4.228-.22 6.426a198.47 198.47 0 01-.33 6.593zM52.3 40.624h12.495V48l7.43-1.397V33.08h-2.2V0H50.264c0 4.21-.129 8.251-.386 12.126-.256 3.874-.568 7.339-.935 10.393-.33 3.018-.679 5.476-1.046 7.376-.367 1.9-.66 2.962-.88 3.185H44.87V48l7.43-1.397v-5.979zm-1.467 4.74v-6.23h15.43v7.075l4.495-.846V34.57h-2.202V1.49h-16.83a182.348 182.348 0 01-.383 10.736c-.258 3.891-.572 7.38-.942 10.466-.333 3.035-.686 5.535-1.064 7.49-.186.965-.36 1.75-.522 2.337a7.63 7.63 0 01-.26.797c-.07.177-.22.533-.5.818l-.43.436h-1.287v11.64l4.495-.846z" fill="#6672FB"/><mask id="a" fill="#fff"><path d="M83.74 17.49h1.1l5.119-16.317C90.216.391 90.803 0 91.72 0h5.89l1.376 7.544h-2.807c-.294 0-.477.13-.55.39L92.435 18.72l6.275 21.905h-8.862L85.39 23.749h-1.65v16.875h-8.147V0h8.146v17.49zm26.191-10.393c-.477 0-.716.26-.716.782v24.81c0 .298.037.522.11.67.11.112.331.168.661.168h3.027c.331 0 .532-.056.606-.167.11-.15.165-.373.165-.67V7.878c0-.522-.239-.782-.716-.782h-3.137zm11.944 27.771a8.9 8.9 0 01-.275 2.236 4.08 4.08 0 01-.881 1.788c-.44.521-1.027.95-1.761 1.285-.734.298-1.651.447-2.752.447h-9.358c-1.1 0-2.018-.149-2.752-.447-.734-.335-1.321-.764-1.761-1.285a4.643 4.643 0 01-.936-1.788 10.971 10.971 0 01-.22-2.236V5.253c0-1.602.422-2.869 1.266-3.8C103.289.484 104.647 0 106.518 0h10.018c1.871 0 3.229.484 4.073 1.453.844.931 1.266 2.198 1.266 3.8v29.615zm23.919 5.756h-8.146V24.419h-4.349v16.205h-8.146V0h8.146v17.434h4.349V0h8.146v40.624zM164.815 0l1.982 7.544h-5.34v33.08h-8.146V7.544h-5.339L150.064 0h14.751zm12.126 7.097v16.037h3.963c.331 0 .532-.056.606-.168.11-.149.165-.372.165-.67V7.879c0-.522-.239-.782-.716-.782h-4.018zm12.495 17.49c0 1.602-.44 2.887-1.321 3.855-.844.932-2.202 1.397-4.073 1.397h-7.101v10.785h-7.926V0h15.027c1.871 0 3.229.466 4.073 1.397.881.931 1.321 2.198 1.321 3.8v19.39zm11.875-17.49c-.477 0-.716.26-.716.782v24.81c0 .298.037.522.11.67.11.112.33.168.661.168h3.027c.33 0 .532-.056.605-.167.11-.15.166-.373.166-.67V7.878c0-.522-.239-.782-.716-.782h-3.137zm11.944 27.771a8.9 8.9 0 01-.275 2.236 4.09 4.09 0 01-.881 1.788c-.44.521-1.028.95-1.761 1.285-.734.298-1.652.447-2.753.447h-9.357c-1.101 0-2.018-.149-2.752-.447-.734-.335-1.321-.764-1.761-1.285a4.616 4.616 0 01-.936-1.788 10.971 10.971 0 01-.22-2.236V5.253c0-1.602.422-2.869 1.266-3.8C194.669.484 196.026 0 197.898 0h10.018c1.871 0 3.229.484 4.073 1.453.844.931 1.266 2.198 1.266 3.8v29.615zm26.616 5.756h-8.147V7.544h-4.348v33.08h-10.568l-1.376-7.544h3.798V0h20.641v40.624zm11.469-24.81h7.266c1.871 0 3.229.484 4.073 1.453.881.93 1.321 2.198 1.321 3.8v14.36c0 1.602-.44 2.869-1.321 3.8-.844.931-2.202 1.397-4.073 1.397h-15.412V0h8.146v15.814zm4.128 17.713c.477 0 .716-.26.716-.782v-9.388c0-.298-.055-.502-.165-.614-.074-.15-.275-.224-.606-.224h-4.073v11.008h4.128z"/></mask><path d="M83.74 17.49h1.1l5.119-16.317C90.216.391 90.803 0 91.72 0h5.89l1.376 7.544h-2.807c-.294 0-.477.13-.55.39L92.435 18.72l6.275 21.905h-8.862L85.39 23.749h-1.65v16.875h-8.147V0h8.146v17.49zm26.191-10.393c-.477 0-.716.26-.716.782v24.81c0 .298.037.522.11.67.11.112.331.168.661.168h3.027c.331 0 .532-.056.606-.167.11-.15.165-.373.165-.67V7.878c0-.522-.239-.782-.716-.782h-3.137zm11.944 27.771a8.9 8.9 0 01-.275 2.236 4.08 4.08 0 01-.881 1.788c-.44.521-1.027.95-1.761 1.285-.734.298-1.651.447-2.752.447h-9.358c-1.1 0-2.018-.149-2.752-.447-.734-.335-1.321-.764-1.761-1.285a4.643 4.643 0 01-.936-1.788 10.971 10.971 0 01-.22-2.236V5.253c0-1.602.422-2.869 1.266-3.8C103.289.484 104.647 0 106.518 0h10.018c1.871 0 3.229.484 4.073 1.453.844.931 1.266 2.198 1.266 3.8v29.615zm23.919 5.756h-8.146V24.419h-4.349v16.205h-8.146V0h8.146v17.434h4.349V0h8.146v40.624zM164.815 0l1.982 7.544h-5.34v33.08h-8.146V7.544h-5.339L150.064 0h14.751zm12.126 7.097v16.037h3.963c.331 0 .532-.056.606-.168.11-.149.165-.372.165-.67V7.879c0-.522-.239-.782-.716-.782h-4.018zm12.495 17.49c0 1.602-.44 2.887-1.321 3.855-.844.932-2.202 1.397-4.073 1.397h-7.101v10.785h-7.926V0h15.027c1.871 0 3.229.466 4.073 1.397.881.931 1.321 2.198 1.321 3.8v19.39zm11.875-17.49c-.477 0-.716.26-.716.782v24.81c0 .298.037.522.11.67.11.112.33.168.661.168h3.027c.33 0 .532-.056.605-.167.11-.15.166-.373.166-.67V7.878c0-.522-.239-.782-.716-.782h-3.137zm11.944 27.771a8.9 8.9 0 01-.275 2.236 4.09 4.09 0 01-.881 1.788c-.44.521-1.028.95-1.761 1.285-.734.298-1.652.447-2.753.447h-9.357c-1.101 0-2.018-.149-2.752-.447-.734-.335-1.321-.764-1.761-1.285a4.616 4.616 0 01-.936-1.788 10.971 10.971 0 01-.22-2.236V5.253c0-1.602.422-2.869 1.266-3.8C194.669.484 196.026 0 197.898 0h10.018c1.871 0 3.229.484 4.073 1.453.844.931 1.266 2.198 1.266 3.8v29.615zm26.616 5.756h-8.147V7.544h-4.348v33.08h-10.568l-1.376-7.544h3.798V0h20.641v40.624zm11.469-24.81h7.266c1.871 0 3.229.484 4.073 1.453.881.93 1.321 2.198 1.321 3.8v14.36c0 1.602-.44 2.869-1.321 3.8-.844.931-2.202 1.397-4.073 1.397h-15.412V0h8.146v15.814zm4.128 17.713c.477 0 .716-.26.716-.782v-9.388c0-.298-.055-.502-.165-.614-.074-.15-.275-.224-.606-.224h-4.073v11.008h4.128z" fill="#6672FB"/><path d="M83.74 17.49h1.1l5.119-16.317C90.216.391 90.803 0 91.72 0h5.89l1.376 7.544h-2.807c-.294 0-.477.13-.55.39L92.435 18.72l6.275 21.905h-8.862L85.39 23.749h-1.65v16.875h-8.147V0h8.146v17.49zm26.191-10.393c-.477 0-.716.26-.716.782v24.81c0 .298.037.522.11.67.11.112.331.168.661.168h3.027c.331 0 .532-.056.606-.167.11-.15.165-.373.165-.67V7.878c0-.522-.239-.782-.716-.782h-3.137zm11.944 27.771a8.9 8.9 0 01-.275 2.236 4.08 4.08 0 01-.881 1.788c-.44.521-1.027.95-1.761 1.285-.734.298-1.651.447-2.752.447h-9.358c-1.1 0-2.018-.149-2.752-.447-.734-.335-1.321-.764-1.761-1.285a4.643 4.643 0 01-.936-1.788 10.971 10.971 0 01-.22-2.236V5.253c0-1.602.422-2.869 1.266-3.8C103.289.484 104.647 0 106.518 0h10.018c1.871 0 3.229.484 4.073 1.453.844.931 1.266 2.198 1.266 3.8v29.615zm23.919 5.756h-8.146V24.419h-4.349v16.205h-8.146V0h8.146v17.434h4.349V0h8.146v40.624zM164.815 0l1.982 7.544h-5.34v33.08h-8.146V7.544h-5.339L150.064 0h14.751zm12.126 7.097v16.037h3.963c.331 0 .532-.056.606-.168.11-.149.165-.372.165-.67V7.879c0-.522-.239-.782-.716-.782h-4.018zm12.495 17.49c0 1.602-.44 2.887-1.321 3.855-.844.932-2.202 1.397-4.073 1.397h-7.101v10.785h-7.926V0h15.027c1.871 0 3.229.466 4.073 1.397.881.931 1.321 2.198 1.321 3.8v19.39zm11.875-17.49c-.477 0-.716.26-.716.782v24.81c0 .298.037.522.11.67.11.112.33.168.661.168h3.027c.33 0 .532-.056.605-.167.11-.15.166-.373.166-.67V7.878c0-.522-.239-.782-.716-.782h-3.137zm11.944 27.771a8.9 8.9 0 01-.275 2.236 4.09 4.09 0 01-.881 1.788c-.44.521-1.028.95-1.761 1.285-.734.298-1.652.447-2.753.447h-9.357c-1.101 0-2.018-.149-2.752-.447-.734-.335-1.321-.764-1.761-1.285a4.616 4.616 0 01-.936-1.788 10.971 10.971 0 01-.22-2.236V5.253c0-1.602.422-2.869 1.266-3.8C194.669.484 196.026 0 197.898 0h10.018c1.871 0 3.229.484 4.073 1.453.844.931 1.266 2.198 1.266 3.8v29.615zm26.616 5.756h-8.147V7.544h-4.348v33.08h-10.568l-1.376-7.544h3.798V0h20.641v40.624zm11.469-24.81h7.266c1.871 0 3.229.484 4.073 1.453.881.93 1.321 2.198 1.321 3.8v14.36c0 1.602-.44 2.869-1.321 3.8-.844.931-2.202 1.397-4.073 1.397h-15.412V0h8.146v15.814zm4.128 17.713c.477 0 .716-.26.716-.782v-9.388c0-.298-.055-.502-.165-.614-.074-.15-.275-.224-.606-.224h-4.073v11.008h4.128z" stroke="#6672FB" stroke-width="4" mask="url(#a)"/></svg>