<svg width="98" height="79" fill="none" xmlns="http://www.w3.org/2000/svg"><g filter="url(#filter0_d)"><path d="M16.064 42.188H81.69v-30.47a7.031 7.031 0 00-7.03-7.03H23.095a7.031 7.031 0 00-7.032 7.03v30.47zm70.313 1.874l8.834 21.202A7.032 7.032 0 0188.721 75H9.033a7.031 7.031 0 01-6.49-9.736l8.834-21.201V11.718C11.377 5.247 16.623 0 23.096 0h51.562c6.472 0 11.719 5.247 11.719 11.719v32.343zm-71.094 2.813L6.87 67.067a2.344 2.344 0 002.163 3.246h79.688a2.344 2.344 0 002.163-3.246l-8.413-20.192H15.283zm7.813 9.375a2.344 2.344 0 110-4.688h4.687a2.344 2.344 0 110 4.688h-4.687zm-4.688 9.375a2.344 2.344 0 110-4.688h4.688a2.344 2.344 0 110 4.688h-4.688zm14.063 0a2.344 2.344 0 110-4.688h18.75a2.344 2.344 0 110 4.688H32.47zm28.125 0a2.344 2.344 0 110-4.688h4.687a2.344 2.344 0 110 4.688h-4.687zm14.062 0a2.344 2.344 0 110-4.688h4.688a2.344 2.344 0 110 4.688h-4.688zm-37.5-9.375a2.344 2.344 0 110-4.688h4.688a2.344 2.344 0 110 4.688h-4.688zm14.063 0a2.344 2.344 0 110-4.688h4.687a2.344 2.344 0 110 4.688h-4.687zm14.062 0a2.344 2.344 0 110-4.688h4.688a2.344 2.344 0 110 4.688h-4.688z" fill="#fff"/></g><defs><filter id="filter0_d" x="0" y="0" width="97.752" height="79" filterUnits="userSpaceOnUse" color-interpolation-filters="sRGB"><feFlood flood-opacity="0" result="BackgroundImageFix"/><feColorMatrix in="SourceAlpha" values="0 0 0 0 0 0 0 0 0 0 0 0 0 0 0 0 0 0 127 0"/><feOffset dy="2"/><feGaussianBlur stdDeviation="1"/><feColorMatrix values="0 0 0 0 0 0 0 0 0 0 0 0 0 0 0 0 0 0 0.25 0"/><feBlend in2="BackgroundImageFix" result="effect1_dropShadow"/><feBlend in="SourceGraphic" in2="effect1_dropShadow" result="shape"/></filter></defs></svg>