<svg width="44" height="64" fill="none" xmlns="http://www.w3.org/2000/svg"><path d="M43.331 21.65c0 11.957-13.904 41.36-21.665 41.36C14.228 63.01 0 33.608 0 21.65S9.7 0 21.666 0C33.63 0 43.33 9.693 43.33 21.65z" fill="#D70000"/><path d="M21.667 41.644c-11.033 0-20.009-8.97-20.009-19.994 0-11.025 8.976-19.994 20.009-19.994s20.008 8.969 20.008 19.994S32.7 41.644 21.667 41.644z" fill="#fff"/><path d="M21.666 2.262c10.716 0 19.402 8.68 19.402 19.388 0 10.707-8.686 19.388-19.402 19.388-10.715 0-19.402-8.68-19.402-19.388 0-10.708 8.687-19.388 19.402-19.388zm0-1.213c-11.367 0-20.615 9.242-20.615 20.6 0 11.36 9.248 20.601 20.615 20.601 11.368 0 20.616-9.241 20.616-20.6 0-11.36-9.248-20.6-20.616-20.6z" fill="#A00"/><path d="M41.068 21.65c0 10.707-8.687 19.388-19.402 19.388-10.716 0-19.402-8.68-19.402-19.388 0-10.708 8.686-19.388 19.402-19.388 10.715 0 19.402 8.68 19.402 19.388z" fill="#FBCA00"/><path d="M25.377 30.776c-1.058.192-2.075.304-3.096.841-.885.466-1.821.9-2.745 1.449-.12-.753.177-1.313.855-1.662.413-.213.57-.46.579-.874a4.23 4.23 0 01.202-1.17c.584-1.833-.097-3.462-.974-5.063-.083-.152-.19-.328-.411-.291-.225.037-.236.24-.258.407-.08.612.078 1.187.376 1.729.657 1.19.67 2.46.587 3.741-.015.223.001.5-.294.572-.29.07-.46-.156-.583-.352-.327-.517-.624-1.05-.953-1.565-.126-.198-.316-.381-.604-.332-.224.038-.232.24-.265.407-.058.298.014.738-.379.797-.52.078-.357-.51-.623-.719-.046-.037-.08-.087-.119-.131-.435-1.285-1.39-2.143-2.782-2.559-.838-.25-1.446-.669-1.815-1.375-.28-.538-.54-1.085-.814-1.626-.143-.282-.286-.546-.611-.728-1.875-1.048-5.538-.81-7.295.505.505.253 1.056.118 1.576.18.813.097 1.361.415 1.41 1.222.01.196.06.393.122.583.325 1.013 1.504 1.516 3.105 1.369 1.26-.117.726-.968.83-1.563.014-.076.066-.145.2-.429.276.316.463.569.693.785.498.47.93 1.026 1.638 1.26.905.298 1.542.847 2.043 1.565.135.193.2.52.604.419.477-.119.757.198 1.091.396.14.678.392 1.308.915 1.836.323.327.525.68.397 1.16-.115.435.324.71.517 1.057.072.127.184.258.092.393-.123.18-.325.123-.508.077-.624-.154-1.135-.487-1.62-.85-.461-.345-.895-.717-1.36-1.056-.736-.535-1.421-.957-2.41-.248-.703.506-1.03.265-1.003-.556.015-.454.014-.906-.168-1.342-.157-.38-.4-.636-.916-.565.832.632.91 1.338.196 2.026-.34.327-.912.581-.043.95.149.063.18.313.067.463-.114.153-.282.042-.422-.011-1.303-.502-2.62-.978-3.903-1.517-.81-.34-1.485-.858-1.923-1.583-.263-.435-.261-.756.413-.821.5-.05 1-.111 1.495-.196.212-.037.437-.136.413-.39-.019-.199-.205-.264-.387-.324-.484-.16-.99-.172-1.494-.162-.783.015-1.528-.056-2.153-.46a19.412 19.412 0 01-.413-7.478c.27.028.513-.008.744.01.384.028.935.028.919.41-.034.811.547.589 1.014.628 1.034.085 2.07.165 3.1.274 2.094.222 4.18.565 6.242-.208.49-.184 1.068-.123 1.582.044 1.074.35 2.175.309 3.272.188 1.26-.138 2.507-.1 3.77-.014.833.056 1.647.436 2.514.145.321-.108.63-.15.386-.557-.345-.577-.193-1.222-.288-1.834-.032-.205-.034-.408.213-.513.223-.095.487-.055.61.102.558.706 1.338 1.05 2.245 1.237.133.027.276.162.342.28.276.494.752.529 1.281.516.472-.01.944.026 1.416.043.313.357.586.738.75 1.17.089.234.236.516-.016.714-.26.205-.547.033-.773-.11-.958-.606-2.242-.539-3.155-1.246-.158-.123-.41-.151-.633-.08-.211.069-.428.174-.466.38-.04.213.211.243.368.324 1.586.826 3.277 1.258 5.128 1.195 2.204-.074 4.4.002 6.562.462.25.053.627.183.748-.133.118-.306-.177-.526-.45-.669a2.228 2.228 0 00-.704-.231c-2.524-.36-4.95-1.039-7.361-1.774-1.403-.58-2.678-1.353-3.97-2.103-.556-.323-1.209-.477-1.865-.582-2.675-.426-5.346-.135-8.005.105-2.668.24-5.23.072-7.593-1.165-.815-.427-1.561-.958-2.376-1.384-.511-.268-1.074-.591-1.925-.087 1.54.204 2.486 1.002 3.485 1.723a9.058 9.058 0 003.64 1.55c.404.077.818.143 1.12.413.402.359.424.77.006 1.118-.436.365-.888.256-1.217-.142-.178-.213-.25-.497-.423-.86-.419.365-.805.685-1.17 1.023-.394.367-.764.508-1.14-.01-.124-.17-.23-.331-.518-.152-1.475.918-2.978.489-4.422-.033-.936-.338-1.85-.596-2.935-.52a19.25 19.25 0 011.521-5.038c1.886-.061 3.732.095 5.504.855.467.2.931.435 1.132.86.268.564.759.699 1.34.766.563.065 1.131.11 1.683.22 1.59.317 3.089.308 4.77.069 3.603-.514 7.227-.433 10.608 1.404 4.143 2.252 4.218 2.133 9.06 2.27.817.022 1.63.147 2.446.204.173.012.324.036.455.076a19.446 19.446 0 01-.398 5.496c-.153-.114-.396-.116-.6-.107-.806.034-1.34-.347-1.868-.83-.67-.612-1.171-1.385-2.16-1.792.25.8.613 1.525.218 2.376-.372.798.064 1.287 1.036 1.369.982.082 1.939-.107 2.896-.25.102-.016.214-.037.314-.072-1.837 7.145-7.648 12.697-14.939 14.165.035-.073.097-.159.19-.259.319-.34.46-.753.505-1.173.082-.761.49-1.3 1.15-1.77.976-.693 1.01-1.46.093-2.228-.894-.747-2.093-1.154-2.87-2.053-.203-.234-.586-.144-.895-.056-.27.077-.535.185-.812.223-.487.067-1.011.049-1.194-.446-.184-.497.3-.695.694-.866.99-.431 1.992-.84 2.99-1.258 1.884-.63 3.708-1.367 5.349-2.427-1.912.58-3.98.888-5.342 2.434zm-22.045-2.77a8.724 8.724 0 011.751 2.02c.105.167.27.334.454.425 1.535.763 2.557 1.981 3.633 3.172.468.518 1.07 1.31 1.895.225.164-.217.533-.069.79.05.428.2.755.514 1.057.84.777.84 1.726 1.484 2.776 2.022.932.477 1.83.996 2.482 1.803.485-.663.442-.645-.505-2.533-.415-.83-1.212-1.438-1.556-2.319 1.284.022 2.952 1.57 3.07 2.817.062.654.01 1.301-.23 1.93-.103.266-.258.609.177.71.454.105.62-.266.643-.572.056-.733.034-1.471.06-2.207.009-.213-.083-.492.208-.602.267-.1.475.093.67.228 1.192.825 1.28 1.65.266 2.716a6.934 6.934 0 01-3.18 1.92c-6.757-1.368-12.24-6.245-14.461-12.645zm21.007 1.11c-1.09-.913-1.438-1.988-1.62-3.121-.055-.351-.155-.645-.512-.854-.5-.293-.788-.734-.855-1.263-.068-.531-.657-.736-.85-1.193-.309-.729-.92.039-1.463-.382.262.624.622.9.994 1.151.678.457 1.183.99 1.306 1.783.042.265.236.524.411.755.441.58.655 1.2.64 1.909-.013.702.923 1.334 1.95 1.215zm.961-6.02c.204 1.748.406 3.476.322 5.221-.011.224.174.36.44.345.264-.014.38-.172.406-.393.073-.601-.076-1.185-.209-1.765-.262-1.145-.383-2.321-.959-3.407zm-7.314 2.058a5.305 5.305 0 00-1.452-2.053c-.298-.263-.644-.449-1.074-.462-.444-.013-.744.137-.403.535.763.89 1.667 1.64 2.93 1.98zm6.015-6.298c.099-.586-.685-1.149-1.587-1.155a5.25 5.25 0 00-1.12.14 6.94 6.94 0 01-3.267-.071c-.3-.08-.613-.146-.923-.165-.374-.022-.732.091-.742.486-.009.351.323.47.657.478.49.013.946.06 1.254.459.313.405.702.526 1.226.31.389-.16.802-.07 1.209-.01.59.09 1.182.161 1.783.242.54-.19 1.371.107 1.51-.714z" fill="#4C2260"/></svg>