<svg width="24" height="24" viewBox="0 0 24 24" fill="none" xmlns="http://www.w3.org/2000/svg">
<path d="M15.5968 23.1124C15.5153 21.8939 15.3523 21.3392 15.3523 20.0958C15.3523 19.5239 15.6375 18.9769 16.0037 18.4298C16.1259 18.2556 16.4926 17.9076 16.3296 17.6837C16.1259 17.3855 15.1486 17.3606 14.7417 17.3357C13.52 17.286 12.1358 17.2113 10.9554 17.3855C9.93737 17.5099 8.91935 17.5596 7.98336 17.6837C7.86113 17.7086 7.41351 17.7086 7.33202 17.7584C7.16905 17.9076 7.77965 18.3054 7.90187 18.4298C8.39024 18.9022 8.47173 19.3995 8.59396 19.9217C8.87915 21.0904 8.67544 21.5704 8.51247 22.7392C8.43044 23.4355 15.6375 23.7838 15.5968 23.1124Z" fill="#FEFEFE"/>
<path d="M0.979482 11.5516C2.77107 10.6966 4.52191 12.6919 5.86533 13.6686C6.96483 14.4014 7.33097 13.7501 7.69765 12.7321C7.94211 11.9178 8.02359 10.9405 8.06434 10.1262C8.14582 8.41009 8.18928 3.31402 8.34953 2.55295C8.47176 1.90161 8.60377 0.527229 9.83636 1.07155C10.4426 1.33936 10.2226 5.56572 10.3041 6.46151C10.3448 7.03137 10.1411 9.06741 10.9962 8.94518C11.7697 8.82295 12.5433 4.18156 12.8285 3.32651C12.9507 2.87889 13.6021 1.00582 13.7243 0.802105C14.2534 0.0692826 15.5974 0.19151 15.6381 1.16879C15.6788 1.61641 15.4344 1.9831 15.3122 2.43072C15.1492 2.83814 13.4798 8.33458 13.6428 9.18963C13.6504 9.23472 13.6651 9.27872 13.6835 9.32218C14.5386 9.88171 14.895 8.65346 15.2307 8.04939C16.0857 6.42077 16.8593 4.71067 17.7143 3.08206C18.2027 2.18626 19.343 2.34923 19.343 3.44874C19.343 4.26305 18.6916 5.15884 18.3657 5.9324C17.999 6.78745 17.6329 7.68325 17.1847 8.49755C16.8995 9.06741 16.2802 10.2891 16.5654 10.9812C16.9728 11.9992 20.3202 8.98592 20.9716 8.5785C21.2568 8.37478 21.8266 7.9679 22.2335 8.13087C22.6409 8.33458 22.478 8.90444 22.2335 9.23038C21.7451 10.0447 20.6049 10.859 19.9128 11.5103C18.3657 12.8945 17.7551 14.5638 17.1439 16.4369C16.5333 18.3507 15.9222 20.0608 13.9682 20.9159C13.199 21.2521 12.3439 21.4243 11.5035 21.3901C10.7436 21.3597 9.83256 21.0495 9.11115 20.8165C8.52989 20.6285 8.13713 20.1222 7.65691 19.7756C6.92409 19.2465 6.06904 18.473 5.45844 17.8211C4.76636 17.0888 4.56265 16.356 4.07374 15.5417C3.54463 14.6459 2.68958 13.8316 1.79379 13.2617C1.22394 12.895 -0.526904 12.2844 0.979482 11.5516Z" fill="#FEFEFE"/>
<g opacity="0.8">
<path opacity="0.8" d="M12.5895 19.9228C13.4586 20.2851 14.871 19.1986 15.342 18.5826C15.8489 17.9307 16.1026 17.0979 16.4285 16.3733C16.718 15.6491 17.0804 14.9609 17.3699 14.2367C17.6959 13.404 17.9854 12.7157 18.6373 12.1361C19.3614 11.4842 20.267 11.1218 20.9911 10.5063C21.3534 10.1804 22.7295 9.05755 22.1498 8.40567C21.6788 7.86243 20.4479 9.41988 20.0855 9.70943C19.3973 10.2527 16.3193 12.4978 16.0292 10.5422C15.9206 9.74528 16.4274 8.62296 16.8984 7.97108C17.4052 7.21055 17.8762 6.37777 18.2744 5.54445C18.5281 5.03762 19.2158 3.87836 18.854 3.29927C18.2744 2.35785 17.5867 4.31349 17.4416 4.67528C16.7897 6.26858 15.957 8.26062 14.6168 9.34709C13.6754 10.1076 13.313 9.0934 13.313 8.22423C13.313 7.24641 16.3915 0.908498 14.7977 0.763998C14.0008 0.691748 13.7476 2.3573 13.5662 2.93693C13.3125 3.8425 12.9507 4.74753 12.7693 5.6531C12.5884 6.55867 12.3711 7.50009 11.9723 8.29702C11.7914 8.62296 11.5014 9.23844 11.1032 9.31124C10.6686 9.34763 10.3062 8.87665 10.1617 8.51431C9.61851 6.81236 9.8358 4.74807 9.8358 2.97333C9.8358 2.61099 9.90806 2.10416 9.79941 1.77821C9.58212 1.27138 9.18393 1.01769 8.93023 1.63317C8.5679 2.3937 8.60429 3.48017 8.64069 4.31294C8.67709 5.32716 8.78573 6.30498 8.71294 7.31866C8.64069 8.26008 8.45925 9.20205 8.387 10.1071C8.31475 11.1571 8.31475 14.8511 6.46776 14.1993C5.56219 13.9097 4.9467 12.8591 4.18617 12.3159C3.60654 11.9177 2.66512 11.193 1.90459 11.6276C0.854522 12.2072 2.77377 12.9313 3.09971 13.2573C3.96888 14.0542 4.58436 15.032 5.34489 15.9371C5.81588 16.4803 6.32271 16.9513 6.86595 17.4581C7.40918 17.9649 7.88016 18.6168 8.5679 18.9792C9.11113 19.2329 9.76301 19.3051 10.3062 19.486C10.7772 19.6669 11.5378 20.0292 12.0446 19.7397L12.5895 19.9228Z" fill="#FEFEFE"/>
</g>
<path d="M8.62085 13.7483C9.13513 13.8649 9.61415 14.1215 10.0315 14.4453C10.2421 14.6064 10.438 14.7852 10.6231 14.9747C10.7152 15.0703 10.8039 15.1682 10.8891 15.2696C10.9758 15.3705 11.0546 15.4792 11.1271 15.5909C11.1996 15.7031 11.2628 15.8216 11.3181 15.9431C11.373 16.065 11.421 16.1899 11.4572 16.3187C11.5307 16.5754 11.5684 16.8418 11.5733 17.1073C11.5817 17.3742 11.5415 17.6392 11.4891 17.8969C11.4342 18.1545 11.374 18.4097 11.3392 18.6707C11.3681 18.1447 11.5302 17.6304 11.4969 17.1102C11.4744 16.5906 11.327 16.0778 11.0448 15.6438C10.9077 15.4249 10.7343 15.2294 10.556 15.0384C10.3773 14.8484 10.1857 14.6706 9.98395 14.505C9.78166 14.3405 9.56762 14.1896 9.33987 14.0613C9.11358 13.9305 8.87211 13.8257 8.62085 13.7483Z" fill="#F2F2F2"/>
<path d="M12.8514 9.32179C12.7711 9.32032 12.6917 9.30954 12.6138 9.29583C12.536 9.2826 12.4591 9.26546 12.3827 9.24979C12.3062 9.23265 12.2298 9.21746 12.1534 9.20179L11.9208 9.1582C12.079 9.12881 12.2426 9.14498 12.3978 9.17779C12.4757 9.19493 12.5521 9.2155 12.6276 9.23999C12.703 9.26399 12.7774 9.29044 12.8514 9.32179Z" fill="#F2F2F2"/>
<path d="M14.2065 3.86852C14.1477 3.88371 14.0884 3.89154 14.0282 3.89399C13.968 3.89644 13.9072 3.89252 13.847 3.87979C13.7867 3.86706 13.727 3.84452 13.6755 3.80926C13.6236 3.77497 13.5795 3.72795 13.5536 3.67261C13.6031 3.70787 13.652 3.73677 13.703 3.75881C13.7544 3.78036 13.8073 3.79604 13.8626 3.80779C13.9175 3.81955 13.9738 3.82787 14.0316 3.83669C14.0889 3.8455 14.1472 3.85334 14.2065 3.86852Z" fill="#F2F2F2"/>
<path d="M13.5042 6.74208C13.4268 6.75727 13.3494 6.76608 13.2705 6.76853C13.1922 6.77147 13.1123 6.76608 13.0335 6.7509C12.9551 6.73473 12.8762 6.70779 12.8087 6.65979C12.7411 6.61326 12.6882 6.54224 12.6715 6.46436C12.7166 6.5295 12.7739 6.5775 12.839 6.61081C12.9042 6.64363 12.9752 6.66469 13.0482 6.67889C13.1211 6.69408 13.1966 6.70241 13.273 6.71122C13.3494 6.71955 13.4268 6.7269 13.5042 6.74208Z" fill="#F2F2F2"/>
<path d="M17.5862 5.56667C17.5324 5.58186 17.4765 5.58724 17.4207 5.58528C17.3649 5.58381 17.308 5.57353 17.2542 5.55296C17.1459 5.51231 17.0558 5.42561 17.0151 5.32178C17.0602 5.35557 17.1013 5.38839 17.1449 5.41631C17.1885 5.44374 17.2331 5.46676 17.2806 5.48488C17.3276 5.503 17.3771 5.51671 17.4285 5.52896C17.479 5.5412 17.5319 5.55149 17.5862 5.56667Z" fill="#F2F2F2"/>
<path d="M16.198 8.30951C16.1437 8.31245 16.0888 8.29776 16.0394 8.27376C15.9894 8.25025 15.9453 8.21694 15.9056 8.18119C15.866 8.14494 15.8312 8.10527 15.7989 8.06364C15.7665 8.02249 15.7367 7.97988 15.7083 7.93384C15.7572 7.95735 15.8003 7.99017 15.8405 8.02347C15.8812 8.05678 15.9184 8.09253 15.9556 8.12682C15.9928 8.16111 16.03 8.19392 16.0692 8.22478C16.1089 8.25564 16.151 8.28307 16.198 8.30951Z" fill="#F2F2F2"/>
<path d="M15.0392 10.5297C14.9912 10.5116 14.9476 10.4905 14.904 10.4685C14.8604 10.4469 14.8183 10.4239 14.7761 10.4004C14.7345 10.3764 14.6929 10.3519 14.6522 10.325C14.6116 10.2985 14.5709 10.2701 14.5327 10.2358C14.5837 10.2422 14.6317 10.2559 14.6777 10.2736C14.7242 10.2907 14.7693 10.3118 14.8124 10.3362C14.8555 10.3607 14.8966 10.3887 14.9348 10.4205C14.9735 10.4528 15.0098 10.4881 15.0392 10.5297Z" fill="#F2F2F2"/>
<path d="M10.0755 9.30535C9.982 9.29555 9.89138 9.30143 9.80126 9.31171C9.71114 9.32249 9.62151 9.33816 9.53285 9.35825C9.44371 9.37735 9.35604 9.40233 9.26934 9.42976C9.18265 9.45866 9.09742 9.49049 9.01465 9.53408C9.0793 9.46551 9.16306 9.41604 9.24828 9.37637C9.334 9.33669 9.42461 9.3078 9.51669 9.28624C9.60926 9.26665 9.7033 9.25392 9.79832 9.25441C9.89236 9.2549 9.98983 9.26616 10.0755 9.30535Z" fill="#F2F2F2"/>
<path d="M16.9003 11.8523C16.9659 11.8753 17.0252 11.9155 17.0766 11.962C17.1285 12.0085 17.1726 12.0634 17.2118 12.1207C17.2495 12.179 17.2823 12.2402 17.3068 12.3049C17.3318 12.369 17.3504 12.4361 17.3573 12.5052C17.2867 12.3867 17.2235 12.2711 17.1501 12.1613C17.1143 12.106 17.0756 12.0531 17.035 12.0012C16.9938 11.9503 16.9492 11.9013 16.9003 11.8523Z" fill="#F2F2F2"/>
<path d="M18.6959 11.1013C18.6626 11.1038 18.6313 11.096 18.6019 11.0832C18.5725 11.071 18.5455 11.0519 18.523 11.0293C18.5005 11.0068 18.4814 10.9799 18.4691 10.9505C18.4564 10.9211 18.4486 10.8898 18.451 10.8564C18.477 10.8775 18.497 10.8986 18.5166 10.9186L18.5749 10.9774L18.6337 11.0357C18.6538 11.0553 18.6748 11.0759 18.6959 11.1013Z" fill="#F2F2F2"/>
<path d="M20.0841 10.1707C20.043 10.1472 20.0068 10.1208 19.9715 10.0924C19.9362 10.064 19.9029 10.0326 19.8721 9.99785C19.8417 9.96307 19.8143 9.92487 19.7937 9.88226C19.7731 9.84013 19.7584 9.79409 19.7574 9.74658L19.8422 9.8514L19.9274 9.94985C19.9558 9.98266 19.9852 10.0165 20.0121 10.0527C20.0396 10.0885 20.0655 10.1267 20.0841 10.1707Z" fill="#F2F2F2"/>
<path d="M9.84724 6.75831C9.80267 6.81268 9.74341 6.85627 9.67581 6.8837C9.60822 6.91162 9.5323 6.92141 9.45883 6.91309C9.38536 6.90378 9.31434 6.87586 9.25508 6.83423C9.19532 6.79309 9.14585 6.73872 9.11255 6.67651C9.16888 6.71864 9.22471 6.75586 9.28398 6.78476C9.34324 6.81268 9.40447 6.83325 9.46765 6.84011C9.53083 6.84843 9.595 6.84354 9.65818 6.82933C9.72136 6.81513 9.78357 6.78917 9.84724 6.75831Z" fill="#F2F2F2"/>
<path d="M9.86363 4.57085C9.83424 4.63893 9.77743 4.69869 9.70494 4.73101C9.63245 4.76481 9.55016 4.76824 9.47424 4.75746C9.39784 4.74522 9.32584 4.71975 9.25971 4.68448C9.19359 4.64971 9.13237 4.60661 9.07947 4.55469C9.14902 4.58114 9.21563 4.60856 9.28273 4.63207C9.34984 4.65509 9.41743 4.67518 9.48502 4.68497C9.55261 4.69575 9.62069 4.69575 9.68486 4.67762C9.74951 4.65901 9.80878 4.6213 9.86363 4.57085Z" fill="#F2F2F2"/>
<path d="M4.78579 12.4399C4.8235 12.509 4.84799 12.5883 4.84603 12.6721C4.84505 12.7559 4.81028 12.8406 4.75591 12.9038C4.70105 12.967 4.63395 13.0145 4.56391 13.0522C4.49387 13.0899 4.42138 13.1193 4.34546 13.1423C4.40717 13.0924 4.47183 13.0492 4.53354 13.0037C4.59477 12.9581 4.65403 12.9116 4.70007 12.8568C4.74758 12.8029 4.77746 12.7377 4.7897 12.6667C4.80146 12.5952 4.79509 12.5188 4.78579 12.4399Z" fill="#F2F2F2"/>
<path d="M6.141 13.583C6.17137 13.6168 6.189 13.6668 6.18068 13.7182C6.17333 13.7696 6.14198 13.8132 6.10769 13.8455C6.07292 13.8779 6.03324 13.9019 5.9921 13.9195C5.95096 13.9381 5.90883 13.9509 5.86377 13.9587C5.89463 13.9244 5.9294 13.897 5.96271 13.8705C5.99602 13.8436 6.02883 13.8186 6.05773 13.7917C6.08663 13.7647 6.11112 13.7368 6.12582 13.7035C6.14002 13.6697 6.14345 13.6291 6.141 13.583Z" fill="#F2F2F2"/>
<path d="M7.32788 18.4502C7.59923 18.6662 7.86764 18.8846 8.14584 19.0879C8.42453 19.2897 8.714 19.4768 9.02208 19.6252C9.32919 19.7756 9.65539 19.8853 9.99188 19.9465C10.3289 20.0068 10.6747 20.019 11.0205 19.9935C10.68 20.0572 10.3269 20.0714 9.97964 20.0219C9.93653 20.0156 9.89245 20.0126 9.84935 20.0033L9.72102 19.9754C9.67841 19.9651 9.63482 19.9578 9.59319 19.9455L9.46731 19.9073C9.42568 19.8941 9.38306 19.8828 9.34192 19.8672L9.21947 19.8192C9.17882 19.8025 9.13719 19.7888 9.098 19.7697L8.97898 19.7139C8.66404 19.5601 8.37115 19.3656 8.09931 19.1491C7.82649 18.9326 7.57376 18.6946 7.32788 18.4502Z" fill="#F2F2F2"/>
<path d="M12.4677 19.844C12.6562 19.8166 12.8487 19.8274 13.0378 19.8426C13.2273 19.8587 13.4154 19.8818 13.602 19.8813C13.6956 19.8822 13.7881 19.8744 13.8797 19.8631C13.9723 19.8509 14.0595 19.8279 14.154 19.8053C14.3397 19.7618 14.5258 19.728 14.7006 19.6677C14.875 19.6099 15.0386 19.5198 15.1454 19.3758C15.2002 19.3053 15.2399 19.224 15.2698 19.1378C15.3006 19.0476 15.333 18.958 15.3673 18.8693C15.4353 18.6911 15.5108 18.5157 15.597 18.3458C15.6846 18.1763 15.7797 18.0112 15.885 17.853C15.7086 18.19 15.5602 18.5378 15.4402 18.8958L15.3521 19.1652C15.3222 19.2582 15.2801 19.3513 15.2203 19.4321C15.1611 19.5134 15.0837 19.5815 14.9999 19.6359C14.9157 19.6893 14.8246 19.7299 14.7325 19.7608C14.5473 19.8225 14.3588 19.8558 14.1746 19.896C14.0845 19.9151 13.987 19.9381 13.891 19.9484C13.7945 19.9586 13.6975 19.9626 13.601 19.9577C13.2141 19.9435 12.8487 19.8284 12.4677 19.844Z" fill="#F2F2F2"/>
</svg>
