<svg width="59" height="79" fill="none" xmlns="http://www.w3.org/2000/svg"><g filter="url(#filter0_d)"><path d="M41.205 37.5h5.113V8.523a5.114 5.114 0 00-5.113-5.114H10.523a5.114 5.114 0 00-5.114 5.114V37.5h5.114v-1.253a8.523 8.523 0 014.138-7.308l3.306-1.984a10.186 10.186 0 01-2.33-6.5c0-5.649 4.578-10.228 10.227-10.228 5.648 0 10.227 4.58 10.227 10.227 0 2.47-.875 4.733-2.331 6.5l3.307 1.985a8.523 8.523 0 014.138 7.308V37.5zm-3.41 0v-1.253a5.113 5.113 0 00-2.482-4.385l-4.29-2.574a10.18 10.18 0 01-5.16 1.394 10.18 10.18 0 01-5.158-1.394l-4.29 2.574a5.114 5.114 0 00-2.483 4.385V37.5h23.863zm8.523 3.41H5.41v18.75a5.114 5.114 0 005.114 5.113h30.682a5.114 5.114 0 005.113-5.114V40.91zm3.267-33.95a8.525 8.525 0 016.96 8.38v51.136A8.523 8.523 0 0148.023 75H17.34c-4.174 0-7.646-3-8.38-6.961A8.525 8.525 0 012 59.659V8.523A8.523 8.523 0 0110.523 0h30.682c4.173 0 7.646 3 8.38 6.961zM12.518 68.18a5.116 5.116 0 004.823 3.41h30.682a5.114 5.114 0 005.113-5.114V15.341a5.116 5.116 0 00-3.409-4.823V59.66a8.523 8.523 0 01-8.522 8.523H12.518zm13.346-40.908a6.818 6.818 0 100-13.637 6.818 6.818 0 000 13.637zM13.932 51.136a1.705 1.705 0 010-3.409h23.863a1.704 1.704 0 110 3.41H13.932zm0 6.819a1.704 1.704 0 110-3.41h17.045a1.704 1.704 0 110 3.41H13.932z" fill="#fff"/></g><defs><filter id="filter0_d" x="0" y="0" width="58.545" height="79" filterUnits="userSpaceOnUse" color-interpolation-filters="sRGB"><feFlood flood-opacity="0" result="BackgroundImageFix"/><feColorMatrix in="SourceAlpha" values="0 0 0 0 0 0 0 0 0 0 0 0 0 0 0 0 0 0 127 0"/><feOffset dy="2"/><feGaussianBlur stdDeviation="1"/><feColorMatrix values="0 0 0 0 0 0 0 0 0 0 0 0 0 0 0 0 0 0 0.25 0"/><feBlend in2="BackgroundImageFix" result="effect1_dropShadow"/><feBlend in="SourceGraphic" in2="effect1_dropShadow" result="shape"/></filter></defs></svg>