<svg width="22" height="22" fill="none" xmlns="http://www.w3.org/2000/svg"><g clip-path="url(#clip0)"><path d="M20.457 5.201h-4.7V.723a.36.36 0 00-.361-.36H6.603a.36.36 0 00-.36.36V5.2h-4.7a.362.362 0 00-.36.333L.001 21.251a.359.359 0 00.36.387H21.64a.358.358 0 00.36-.388L20.816 5.534a.362.362 0 00-.36-.333zm-5.061 2.285a.33.33 0 110 .66.33.33 0 010-.66zM6.964 1.084h8.071v4.118H6.964V1.084zm-.36 6.402a.33.33 0 110 .66.33.33 0 010-.66zM.748 20.917L1.877 5.923h4.366v.91a1.05 1.05 0 00-.691.983 1.053 1.053 0 002.103 0 1.05 1.05 0 00-.691-.983v-.91h8.071v.91a1.05 1.05 0 00-.691.983 1.053 1.053 0 002.104 0c0-.452-.29-.835-.692-.983v-.91h4.367l1.128 14.994H.749z" fill="#828282"/></g><defs><clipPath id="clip0"><path fill="#fff" d="M0 0h22v22H0z"/></clipPath></defs></svg>