<svg width="22" height="22" fill="none" xmlns="http://www.w3.org/2000/svg"><g clip-path="url(#clip0)" fill="#828282"><path d="M11 11.028C5.202 11.028.485 15.745.485 21.543a.457.457 0 00.915 0c0-5.294 4.306-9.6 9.6-9.6s9.6 4.306 9.6 9.6a.457.457 0 00.914 0c0-5.799-4.716-10.515-10.514-10.515zM11 0a5.035 5.035 0 00-5.028 5.029A5.035 5.035 0 0011 10.057a5.035 5.035 0 005.03-5.027A5.035 5.035 0 0011 0zm0 9.143a4.12 4.12 0 01-4.114-4.114A4.12 4.12 0 0111 .914a4.12 4.12 0 014.115 4.115A4.12 4.12 0 0111 9.143z"/></g><defs><clipPath id="clip0"><path fill="#fff" d="M0 0h22v22H0z"/></clipPath></defs></svg>