<svg width="1099" height="200" fill="none" xmlns="http://www.w3.org/2000/svg"><path fill-rule="evenodd" clip-rule="evenodd" d="M131.132 85.349L110.978 0H75.71l38.475 131.86c1.374 3.876.152 5.814-3.665 5.814H88.077l5.725 31.396h26.108c4.122 0 7.558-.465 10.306-1.396 2.901-.93 5.267-2.248 7.099-3.953 1.833-1.861 3.283-4.031 4.352-6.512 1.069-2.48 1.985-5.349 2.748-8.604L179.913 0h-33.208l-15.573 85.349zm20.653-79.147l-14.648 80.277-11.944.316-19.03-80.593H83.889l36.106 123.742c.823 2.397 1.605 6.198-.552 9.62-2.337 3.708-6.377 4.312-8.923 4.312H95.419l3.463 18.992h21.028c3.72 0 6.452-.426 8.375-1.077l.046-.015.046-.015c2.171-.697 3.676-1.585 4.718-2.526 1.233-1.275 2.224-2.764 2.977-4.511.893-2.074 1.704-4.579 2.402-7.556l.006-.025L172.147 6.202h-20.362zM9.859 158.915c2.086 2.08 6.65 3.953 15.562 3.953h32.516l3.602-18.992H37.1c-2.055 0-4.685-.583-6.708-2.796-1.944-2.125-2.377-4.73-2.377-6.661V34.651c0-1.932.433-4.536 2.377-6.662 2.023-2.212 4.653-2.795 6.708-2.795h24.491L58.13 6.202H20.154c-4.242 0-7.57 1.284-10.336 3.75-2.22 2.098-3.71 5.356-3.71 10.746v122.79c0 8.721 1.76 13.283 3.75 15.427zm-4.363 4.341C1.832 159.38 0 152.791 0 143.488V20.698C0 14.03 1.908 8.915 5.725 5.348 9.695 1.784 14.505 0 20.154 0h43.055l5.725 31.395H37.101c-1.985 0-2.977 1.086-2.977 3.256v99.768c0 2.17.992 3.255 2.977 3.255h31.833L62.98 169.07H25.42c-9.465 0-16.107-1.938-19.924-5.814zm258.071-19.38h-38.604l1.559-7.485c1.641-7.874 2.987-16.147 4.036-24.821a505.79 505.79 0 002.488-26.408 819.024 819.024 0 001.363-27.233c.306-9.15.611-18.069.917-26.755l.21-5.98h28.031v118.682zm-24.428-58.295a511.378 511.378 0 01-2.52 26.745 311.814 311.814 0 01-2.904 19.147 277.881 277.881 0 01-1.218 6.201h24.963V31.395h-16.031c-.306 8.683-.611 17.597-.916 26.744a828.885 828.885 0 01-1.374 27.442zm-21.528 83.489h51.987v30.697l30.917-5.813v-56.28h-9.16V0h-82.218c0 17.52-.534 34.341-1.603 50.465-1.068 16.124-2.366 30.543-3.893 43.256-1.374 12.558-2.825 22.791-4.351 30.698-1.527 7.907-2.749 12.325-3.665 13.255h-8.931v62.093l30.917-5.813V169.07zm-6.107 19.725v-25.927h64.201v29.444l18.703-3.517v-44.919h-9.161V6.202h-70.025c-.112 15.427-.643 30.321-1.594 44.68-1.074 16.195-2.38 30.717-3.921 43.558-1.382 12.629-2.854 23.038-4.424 31.172-.775 4.014-1.499 7.283-2.175 9.727-.335 1.214-.692 2.346-1.079 3.316-.295.736-.918 2.219-2.085 3.405l-1.789 1.816h-5.354v48.436l18.703-3.517z" fill="#fff"/><mask id="a" fill="#fff"><path d="M348.411 72.79h4.58L374.29 4.885C375.359 1.628 377.802 0 381.619 0h24.504l5.726 31.395h-11.68c-1.221 0-1.985.543-2.29 1.628l-13.283 44.884 26.108 91.163h-36.872l-18.55-70.233h-6.871v70.233h-33.894V0h33.894v72.79zm108.977-43.255c-1.985 0-2.978 1.085-2.978 3.256v103.256c0 1.24.153 2.17.458 2.79.458.465 1.374.698 2.749.698h12.596c1.374 0 2.213-.233 2.519-.698.458-.62.687-1.55.687-2.79V32.791c0-2.17-.993-3.256-2.977-3.256h-13.054zm49.696 115.581c0 3.256-.381 6.357-1.145 9.303a17.003 17.003 0 01-3.664 7.441c-1.832 2.171-4.275 3.954-7.329 5.349-3.053 1.241-6.87 1.861-11.451 1.861h-38.932c-4.581 0-8.398-.62-11.451-1.861-3.054-1.395-5.497-3.178-7.329-5.349-1.832-2.17-3.13-4.651-3.893-7.441-.611-2.946-.916-6.047-.916-9.303V21.86c0-6.666 1.756-11.938 5.267-15.813C429.753 2.016 435.402 0 443.188 0h41.682c7.786 0 13.435 2.016 16.947 6.047 3.511 3.875 5.267 9.147 5.267 15.813v123.256zm99.519 23.954h-33.895v-67.442h-18.092v67.442h-33.894V0h33.894v72.558h18.092V0h33.895v169.07zM685.745 0l8.244 31.395h-22.215V169.07H637.88V31.395h-22.215L624.368 0h61.377zm50.453 29.535v66.744h16.489c1.374 0 2.214-.233 2.52-.698.458-.62.687-1.55.687-2.79v-60c0-2.17-.993-3.256-2.978-3.256h-16.718zm51.987 72.791c0 6.666-1.832 12.015-5.496 16.046-3.512 3.876-9.161 5.814-16.948 5.814h-29.543v44.884H703.22V0h62.521c7.787 0 13.436 1.938 16.948 5.814 3.664 3.876 5.496 9.147 5.496 15.814v80.698zm49.407-72.791c-1.985 0-2.977 1.085-2.977 3.256v103.256c0 1.24.152 2.17.458 2.79.458.465 1.374.698 2.748.698h12.596c1.374 0 2.214-.233 2.519-.698.458-.62.687-1.55.687-2.79V32.791c0-2.17-.992-3.256-2.977-3.256h-13.054zm49.697 115.581c0 3.256-.382 6.357-1.146 9.303a16.993 16.993 0 01-3.664 7.441c-1.832 2.171-4.275 3.954-7.328 5.349-3.054 1.241-6.871 1.861-11.451 1.861h-38.933c-4.58 0-8.397-.62-11.451-1.861-3.053-1.395-5.496-3.178-7.329-5.349-1.832-2.17-3.129-4.651-3.893-7.441-.61-2.946-.916-6.047-.916-9.303V21.86c0-6.666 1.756-11.938 5.268-15.813C809.957 2.016 815.606 0 823.393 0h41.681c7.787 0 13.436 2.016 16.947 6.047 3.512 3.875 5.268 9.147 5.268 15.813v123.256zm110.74 23.954h-33.894V31.395h-18.093V169.07h-43.971l-5.725-31.396h15.802V0h85.881v169.07zm47.721-103.256h30.23c7.79 0 13.44 2.016 16.95 6.047 3.66 3.875 5.49 9.147 5.49 15.813v59.768c0 6.667-1.83 11.938-5.49 15.814-3.51 3.876-9.16 5.814-16.95 5.814h-64.12V0h33.89v65.814zm17.18 73.721c1.98 0 2.97-1.085 2.97-3.256v-39.07c0-1.24-.22-2.093-.68-2.558-.31-.62-1.15-.93-2.52-.93h-16.95v45.814h17.18z"/></mask><path d="M348.411 72.79h4.58L374.29 4.885C375.359 1.628 377.802 0 381.619 0h24.504l5.726 31.395h-11.68c-1.221 0-1.985.543-2.29 1.628l-13.283 44.884 26.108 91.163h-36.872l-18.55-70.233h-6.871v70.233h-33.894V0h33.894v72.79zm108.977-43.255c-1.985 0-2.978 1.085-2.978 3.256v103.256c0 1.24.153 2.17.458 2.79.458.465 1.374.698 2.749.698h12.596c1.374 0 2.213-.233 2.519-.698.458-.62.687-1.55.687-2.79V32.791c0-2.17-.993-3.256-2.977-3.256h-13.054zm49.696 115.581c0 3.256-.381 6.357-1.145 9.303a17.003 17.003 0 01-3.664 7.441c-1.832 2.171-4.275 3.954-7.329 5.349-3.053 1.241-6.87 1.861-11.451 1.861h-38.932c-4.581 0-8.398-.62-11.451-1.861-3.054-1.395-5.497-3.178-7.329-5.349-1.832-2.17-3.13-4.651-3.893-7.441-.611-2.946-.916-6.047-.916-9.303V21.86c0-6.666 1.756-11.938 5.267-15.813C429.753 2.016 435.402 0 443.188 0h41.682c7.786 0 13.435 2.016 16.947 6.047 3.511 3.875 5.267 9.147 5.267 15.813v123.256zm99.519 23.954h-33.895v-67.442h-18.092v67.442h-33.894V0h33.894v72.558h18.092V0h33.895v169.07zM685.745 0l8.244 31.395h-22.215V169.07H637.88V31.395h-22.215L624.368 0h61.377zm50.453 29.535v66.744h16.489c1.374 0 2.214-.233 2.52-.698.458-.62.687-1.55.687-2.79v-60c0-2.17-.993-3.256-2.978-3.256h-16.718zm51.987 72.791c0 6.666-1.832 12.015-5.496 16.046-3.512 3.876-9.161 5.814-16.948 5.814h-29.543v44.884H703.22V0h62.521c7.787 0 13.436 1.938 16.948 5.814 3.664 3.876 5.496 9.147 5.496 15.814v80.698zm49.407-72.791c-1.985 0-2.977 1.085-2.977 3.256v103.256c0 1.24.152 2.17.458 2.79.458.465 1.374.698 2.748.698h12.596c1.374 0 2.214-.233 2.519-.698.458-.62.687-1.55.687-2.79V32.791c0-2.17-.992-3.256-2.977-3.256h-13.054zm49.697 115.581c0 3.256-.382 6.357-1.146 9.303a16.993 16.993 0 01-3.664 7.441c-1.832 2.171-4.275 3.954-7.328 5.349-3.054 1.241-6.871 1.861-11.451 1.861h-38.933c-4.58 0-8.397-.62-11.451-1.861-3.053-1.395-5.496-3.178-7.329-5.349-1.832-2.17-3.129-4.651-3.893-7.441-.61-2.946-.916-6.047-.916-9.303V21.86c0-6.666 1.756-11.938 5.268-15.813C809.957 2.016 815.606 0 823.393 0h41.681c7.787 0 13.436 2.016 16.947 6.047 3.512 3.875 5.268 9.147 5.268 15.813v123.256zm110.74 23.954h-33.894V31.395h-18.093V169.07h-43.971l-5.725-31.396h15.802V0h85.881v169.07zm47.721-103.256h30.23c7.79 0 13.44 2.016 16.95 6.047 3.66 3.875 5.49 9.147 5.49 15.813v59.768c0 6.667-1.83 11.938-5.49 15.814-3.51 3.876-9.16 5.814-16.95 5.814h-64.12V0h33.89v65.814zm17.18 73.721c1.98 0 2.97-1.085 2.97-3.256v-39.07c0-1.24-.22-2.093-.68-2.558-.31-.62-1.15-.93-2.52-.93h-16.95v45.814h17.18z" fill="#6672FB"/><path d="M348.411 72.79h4.58L374.29 4.885C375.359 1.628 377.802 0 381.619 0h24.504l5.726 31.395h-11.68c-1.221 0-1.985.543-2.29 1.628l-13.283 44.884 26.108 91.163h-36.872l-18.55-70.233h-6.871v70.233h-33.894V0h33.894v72.79zm108.977-43.255c-1.985 0-2.978 1.085-2.978 3.256v103.256c0 1.24.153 2.17.458 2.79.458.465 1.374.698 2.749.698h12.596c1.374 0 2.213-.233 2.519-.698.458-.62.687-1.55.687-2.79V32.791c0-2.17-.993-3.256-2.977-3.256h-13.054zm49.696 115.581c0 3.256-.381 6.357-1.145 9.303a17.003 17.003 0 01-3.664 7.441c-1.832 2.171-4.275 3.954-7.329 5.349-3.053 1.241-6.87 1.861-11.451 1.861h-38.932c-4.581 0-8.398-.62-11.451-1.861-3.054-1.395-5.497-3.178-7.329-5.349-1.832-2.17-3.13-4.651-3.893-7.441-.611-2.946-.916-6.047-.916-9.303V21.86c0-6.666 1.756-11.938 5.267-15.813C429.753 2.016 435.402 0 443.188 0h41.682c7.786 0 13.435 2.016 16.947 6.047 3.511 3.875 5.267 9.147 5.267 15.813v123.256zm99.519 23.954h-33.895v-67.442h-18.092v67.442h-33.894V0h33.894v72.558h18.092V0h33.895v169.07zM685.745 0l8.244 31.395h-22.215V169.07H637.88V31.395h-22.215L624.368 0h61.377zm50.453 29.535v66.744h16.489c1.374 0 2.214-.233 2.52-.698.458-.62.687-1.55.687-2.79v-60c0-2.17-.993-3.256-2.978-3.256h-16.718zm51.987 72.791c0 6.666-1.832 12.015-5.496 16.046-3.512 3.876-9.161 5.814-16.948 5.814h-29.543v44.884H703.22V0h62.521c7.787 0 13.436 1.938 16.948 5.814 3.664 3.876 5.496 9.147 5.496 15.814v80.698zm49.407-72.791c-1.985 0-2.977 1.085-2.977 3.256v103.256c0 1.24.152 2.17.458 2.79.458.465 1.374.698 2.748.698h12.596c1.374 0 2.214-.233 2.519-.698.458-.62.687-1.55.687-2.79V32.791c0-2.17-.992-3.256-2.977-3.256h-13.054zm49.697 115.581c0 3.256-.382 6.357-1.146 9.303a16.993 16.993 0 01-3.664 7.441c-1.832 2.171-4.275 3.954-7.328 5.349-3.054 1.241-6.871 1.861-11.451 1.861h-38.933c-4.58 0-8.397-.62-11.451-1.861-3.053-1.395-5.496-3.178-7.329-5.349-1.832-2.17-3.129-4.651-3.893-7.441-.61-2.946-.916-6.047-.916-9.303V21.86c0-6.666 1.756-11.938 5.268-15.813C809.957 2.016 815.606 0 823.393 0h41.681c7.787 0 13.436 2.016 16.947 6.047 3.512 3.875 5.268 9.147 5.268 15.813v123.256zm110.74 23.954h-33.894V31.395h-18.093V169.07h-43.971l-5.725-31.396h15.802V0h85.881v169.07zm47.721-103.256h30.23c7.79 0 13.44 2.016 16.95 6.047 3.66 3.875 5.49 9.147 5.49 15.813v59.768c0 6.667-1.83 11.938-5.49 15.814-3.51 3.876-9.16 5.814-16.95 5.814h-64.12V0h33.89v65.814zm17.18 73.721c1.98 0 2.97-1.085 2.97-3.256v-39.07c0-1.24-.22-2.093-.68-2.558-.31-.62-1.15-.93-2.52-.93h-16.95v45.814h17.18z" stroke="#6672FB" stroke-width="4" mask="url(#a)"/></svg>