<svg width="28" height="28" fill="none" xmlns="http://www.w3.org/2000/svg"><circle cx="14" cy="14" r="14" fill="url(#paint0_linear)"/><path fill-rule="evenodd" clip-rule="evenodd" d="M7 11a4 4 0 014-4h6a4 4 0 014 4v6a4 4 0 01-4 4h-6a4 4 0 01-4-4v-6zm7 4.2a1.2 1.2 0 100-2.4 1.2 1.2 0 000 2.4zm0 3a4.2 4.2 0 100-8.4 4.2 4.2 0 000 8.4zm4.9-8.4a.7.7 0 100-1.4.7.7 0 000 1.4z" fill="#fff"/><defs><linearGradient id="paint0_linear" x1="6.5" y1="26.5" x2="23" y2="0" gradientUnits="userSpaceOnUse"><stop stop-color="#FECF6C"/><stop offset=".328" stop-color="#F25640"/><stop offset=".714" stop-color="#7C3CB0"/><stop offset="1" stop-color="#A236B7"/></linearGradient></defs></svg>