<svg width="38" height="38" viewBox="0 0 38 38" fill="none" xmlns="http://www.w3.org/2000/svg">
<g clip-path="url(#clip0)">
<path d="M35.3351 8.98348H27.2155V1.24855C27.2155 0.904756 26.9365 0.625732 26.5927 0.625732H11.4058C11.062 0.625732 10.783 0.904756 10.783 1.24855V8.98348H2.66442C2.34056 8.98348 2.06751 9.23659 2.0436 9.55946L0.00174167 36.7054C-0.011213 36.8778 0.0485777 37.0492 0.16517 37.1738C0.281762 37.3014 0.448179 37.3741 0.622569 37.3741H37.3779C37.5523 37.3741 37.7187 37.3014 37.8343 37.1748C37.9519 37.0492 38.0117 36.8778 37.9988 36.7045L35.9569 9.55946C35.933 9.23659 35.6599 8.98348 35.3351 8.98348ZM26.5927 12.9307C26.9076 12.9307 27.1637 13.1858 27.1637 13.4987C27.1637 13.8126 26.9076 14.0687 26.5927 14.0687C26.2778 14.0687 26.0217 13.8126 26.0217 13.4987C26.0217 13.1858 26.2778 12.9307 26.5927 12.9307ZM12.0286 1.87237H25.9699V8.98448H12.0286V1.87237ZM11.4058 12.9307C11.7207 12.9307 11.9768 13.1858 11.9768 13.4987C11.9768 13.8126 11.7207 14.0687 11.4058 14.0687C11.0909 14.0687 10.8348 13.8126 10.8348 13.4987C10.8348 13.1858 11.0909 12.9307 11.4058 12.9307ZM1.29322 36.1295L3.2414 10.2301H10.783V11.8026C10.0884 12.0577 9.58919 12.7194 9.58919 13.4997C9.58919 14.5012 10.4043 15.3153 11.4058 15.3153C12.4073 15.3153 13.2225 14.5012 13.2225 13.4997C13.2225 12.7194 12.7232 12.0577 12.0286 11.8026V10.2301H25.9699V11.8026C25.2753 12.0577 24.776 12.7194 24.776 13.4997C24.776 14.5012 25.5912 15.3153 26.5927 15.3153C27.5942 15.3153 28.4093 14.5012 28.4093 13.4997C28.4093 12.7194 27.9101 12.0577 27.2155 11.8026V10.2301H34.7581L36.7063 36.1295H1.29322Z" fill="black"/>
<path d="M16.1579 26.4854V19.9874C16.1579 19.0034 16.3979 18.2294 16.8779 17.6654C17.3699 17.1014 18.0899 16.8194 19.0379 16.8194C19.9859 16.8194 20.7059 17.1014 21.1979 17.6654C21.6899 18.2294 21.9359 19.0034 21.9359 19.9874V26.4854C21.9359 27.4694 21.6899 28.2494 21.1979 28.8254C20.7059 29.3894 19.9859 29.6714 19.0379 29.6714C18.1019 29.6714 17.3879 29.3894 16.8959 28.8254C16.4039 28.2494 16.1579 27.4694 16.1579 26.4854ZM17.5439 19.9154V26.5754C17.5439 27.7874 18.0419 28.3934 19.0379 28.3934C20.0339 28.3934 20.5319 27.7874 20.5319 26.5754V19.9154C20.5319 18.6914 20.0339 18.0794 19.0379 18.0794C18.0419 18.0794 17.5439 18.6914 17.5439 19.9154Z" fill="black"/>
</g>
<defs>
<clipPath id="clip0">
<rect width="38" height="38" fill="white"/>
</clipPath>
</defs>
</svg>
