<svg width="15" height="15" viewBox="0 0 15 15" fill="none" xmlns="http://www.w3.org/2000/svg">
<path d="M7.49997 0C3.36444 0 0 3.36444 0 7.49997C0 11.6355 3.36444 14.9999 7.49997 14.9999C11.6355 14.9999 14.9999 11.6355 14.9999 7.49997C14.9999 3.36444 11.6355 0 7.49997 0ZM7.49997 14.0243C3.9025 14.0243 0.975733 11.0975 0.975733 7.49997C0.975733 3.90244 3.9025 0.975733 7.49997 0.975733C11.0974 0.975733 14.0242 3.9025 14.0242 7.49997C14.0242 11.0974 11.0975 14.0243 7.49997 14.0243Z" fill="black" fill-opacity="0.4"/>
<path d="M10.5598 8.72242C10.3327 8.57731 10.0311 8.6436 9.88586 8.87051C9.41458 9.60736 8.61182 10.0472 7.73849 10.0472C6.33408 10.0472 5.19155 8.90467 5.19155 7.50026C5.19155 6.09586 6.33408 4.95327 7.73849 4.95327C8.58591 4.95327 9.37555 5.37322 9.85084 6.07661C10.0016 6.29978 10.3048 6.35854 10.5282 6.20769C10.7514 6.05688 10.8102 5.75359 10.6593 5.53031C10.0024 4.55799 8.91045 3.97754 7.73849 3.97754C5.79607 3.97754 4.21582 5.55779 4.21582 7.50026C4.21582 9.44273 5.79607 11.023 7.73849 11.023C8.94628 11.023 10.0563 10.4149 10.7079 9.39627C10.853 9.16931 10.7867 8.86764 10.5598 8.72242Z" fill="black" fill-opacity="0.4"/>
</svg>
