<svg width="180" height="45" fill="none" xmlns="http://www.w3.org/2000/svg"><path d="M16.064 37h127.872C152.81 37 160 31.053 160 23.713v-3.426C160 12.947 152.81 7 143.936 7H16.064C7.19 7 0 12.947 0 20.287v3.426C0 31.053 7.196 37 16.064 37z" fill="#940005"/><path d="M135.825 22.752c0 12.288 9.888 22.248 22.087 22.248C170.112 45 180 35.04 180 22.752S170.112.503 157.912.503c-12.199 0-22.087 9.96-22.087 22.249z" fill="#940005"/><path d="M140.288 21.63c0 10.484 8.439 18.988 18.851 18.988 10.413 0 18.851-8.5 18.851-18.988s-8.438-18.988-18.851-18.988c-10.408 0-18.851 8.5-18.851 18.988z" fill="#EC1B23"/><path d="M146.13 18.878c0 7.588 6.359 13.74 14.203 13.74 7.845 0 14.204-6.152 14.204-13.74 0-7.587-6.359-13.738-14.204-13.738-7.844 0-14.203 6.151-14.203 13.738z" fill="#FFC600"/><path d="M157.387 8.41c0 4.64 3.889 8.41 8.69 8.41s8.691-3.764 8.691-8.41c0-4.641-3.89-8.41-8.691-8.41s-8.69 3.764-8.69 8.41zM62.852 28.168c-.999 0-1.904-.215-2.716-.644a4.99 4.99 0 01-1.904-1.806c-.457-.775-.686-1.647-.686-2.618 0-.97.229-1.839.686-2.604a4.855 4.855 0 011.904-1.806c.812-.439 1.722-.658 2.73-.658.85 0 1.615.15 2.296.448a4.6 4.6 0 011.736 1.288l-1.456 1.344c-.663-.765-1.484-1.148-2.464-1.148-.607 0-1.148.135-1.624.406a2.83 2.83 0 00-1.12 1.106c-.261.476-.392 1.017-.392 1.624 0 .607.13 1.148.392 1.624.27.476.644.85 1.12 1.12.476.261 1.017.392 1.624.392.98 0 1.801-.387 2.464-1.162l1.456 1.344a4.54 4.54 0 01-1.736 1.302c-.69.299-1.46.448-2.31.448zm5.356-7.7h2.17v4.48l3.668-4.48h2.002V28h-2.17v-4.48L70.224 28h-2.016v-7.532zm12.42-.14c.811 0 1.535.168 2.17.504a3.68 3.68 0 011.511 1.386c.364.597.546 1.27.546 2.016 0 .747-.182 1.419-.546 2.016a3.777 3.777 0 01-1.512 1.4c-.634.327-1.358.49-2.17.49a5.28 5.28 0 01-1.96-.35 3.79 3.79 0 01-1.442-1.036l1.246-1.176c.57.588 1.26.882 2.072.882.542 0 1.008-.135 1.4-.406.392-.27.658-.64.798-1.106h-3.164V23.45h3.136a2.03 2.03 0 00-.798-1.064c-.382-.261-.84-.392-1.372-.392-.802 0-1.493.299-2.072.896l-1.246-1.162a3.602 3.602 0 011.442-1.036c.588-.243 1.242-.364 1.96-.364zm11.764 1.932h-2.548V28h-2.17v-5.74h-2.548v-1.792h7.266v1.792zm7.841-1.792V28h-2.184v-5.74h-2.38l-.07 1.33c-.037.99-.13 1.81-.28 2.464-.15.653-.392 1.167-.728 1.54-.336.373-.803.56-1.4.56a4.69 4.69 0 01-1.134-.168l.112-1.792c.15.019.257.028.322.028.327 0 .57-.117.728-.35.168-.243.28-.546.336-.91.056-.373.098-.863.126-1.47l.112-3.024h6.44z" fill="#fff"/></svg>