<svg width="180" height="45" fill="none" xmlns="http://www.w3.org/2000/svg"><path d="M16.064 37h127.872C152.81 37 160 31.053 160 23.713v-3.426C160 12.947 152.81 7 143.936 7H16.064C7.19 7 0 12.947 0 20.287v3.426C0 31.053 7.196 37 16.064 37z" fill="#940005"/><path d="M135.825 22.752c0 12.288 9.888 22.248 22.087 22.248C170.112 45 180 35.04 180 22.752S170.112.503 157.912.503c-12.199 0-22.087 9.96-22.087 22.249z" fill="#940005"/><path d="M140.288 21.63c0 10.484 8.439 18.988 18.851 18.988 10.413 0 18.851-8.5 18.851-18.988s-8.438-18.988-18.851-18.988c-10.408 0-18.851 8.5-18.851 18.988z" fill="#EC1B23"/><path d="M146.13 18.878c0 7.588 6.359 13.74 14.203 13.74 7.845 0 14.204-6.152 14.204-13.74 0-7.587-6.359-13.738-14.204-13.738-7.844 0-14.203 6.151-14.203 13.738z" fill="#FFC600"/><path d="M157.387 8.41c0 4.64 3.889 8.41 8.69 8.41s8.691-3.764 8.691-8.41c0-4.641-3.89-8.41-8.691-8.41s-8.69 3.764-8.69 8.41zM17.852 26.168c-.999 0-1.904-.215-2.716-.644a4.99 4.99 0 01-1.904-1.806c-.457-.775-.686-1.647-.686-2.618 0-.97.229-1.839.686-2.604a4.855 4.855 0 011.904-1.806c.812-.439 1.722-.658 2.73-.658.85 0 1.615.15 2.296.448a4.6 4.6 0 011.736 1.288l-1.456 1.344c-.663-.765-1.484-1.148-2.464-1.148-.607 0-1.148.135-1.624.406a2.83 2.83 0 00-1.12 1.106c-.261.476-.392 1.017-.392 1.624 0 .607.13 1.148.392 1.624.27.476.644.85 1.12 1.12.476.261 1.017.392 1.624.392.98 0 1.801-.387 2.464-1.162l1.456 1.344a4.54 4.54 0 01-1.736 1.302c-.69.299-1.46.448-2.31.448zm8.227-7.812c1.167 0 2.063.28 2.688.84.626.55.939 1.386.939 2.506V26h-2.044v-.938c-.411.7-1.177 1.05-2.296 1.05-.58 0-1.083-.098-1.512-.294a2.251 2.251 0 01-.966-.812 2.113 2.113 0 01-.337-1.176c0-.7.262-1.25.785-1.652.532-.401 1.348-.602 2.45-.602h1.735c0-.476-.144-.84-.434-1.092-.289-.261-.723-.392-1.302-.392a3.74 3.74 0 00-1.19.196c-.382.121-.709.29-.98.504l-.784-1.526c.411-.29.901-.513 1.47-.672a6.692 6.692 0 011.779-.238zm-.168 6.286c.374 0 .705-.084.994-.252a1.45 1.45 0 00.616-.77v-.77h-1.498c-.895 0-1.343.294-1.343.882 0 .28.107.504.322.672.224.159.527.238.91.238zm5.692-6.174h2.17v2.94h3.276v-2.94h2.184V26h-2.184v-2.814h-3.276V26h-2.17v-7.532zM41 21.184h3.962v1.75H41v-1.75zm17.552-.112c0 1.297-.444 2.32-1.33 3.066-.878.737-2.142 1.148-3.794 1.232v1.064h-2.087v-1.078c-1.66-.093-2.935-.509-3.822-1.246-.877-.747-1.316-1.76-1.316-3.038 0-1.288.44-2.296 1.316-3.024.887-.737 2.161-1.157 3.822-1.26V15.78h2.087v.994c1.651.093 2.916.513 3.793 1.26.887.747 1.33 1.76 1.33 3.038zm-5.124 2.52c.989-.093 1.726-.345 2.212-.756.485-.42.727-1.013.727-1.778 0-1.493-.98-2.324-2.94-2.492v5.026zm-5.026-2.52c0 1.475.98 2.315 2.94 2.52v-5.026c-1 .093-1.741.345-2.227.756-.475.401-.713.985-.713 1.75zm16.116-2.716c.7 0 1.335.163 1.904.49.579.317 1.032.77 1.358 1.358.327.579.49 1.255.49 2.03 0 .775-.163 1.456-.49 2.044a3.516 3.516 0 01-1.358 1.358 3.843 3.843 0 01-1.904.476c-.961 0-1.717-.303-2.268-.91v3.514h-2.184V18.468h2.086v.868c.542-.653 1.33-.98 2.366-.98zm-.378 5.964c.56 0 1.018-.187 1.372-.56.364-.383.546-.891.546-1.526s-.182-1.139-.546-1.512c-.354-.383-.812-.574-1.372-.574s-1.022.191-1.386.574c-.354.373-.532.877-.532 1.512s.178 1.143.532 1.526c.364.373.826.56 1.386.56zm8.464-5.964c1.167 0 2.063.28 2.688.84.625.55.938 1.386.938 2.506V26h-2.044v-.938c-.41.7-1.176 1.05-2.296 1.05-.579 0-1.083-.098-1.512-.294a2.251 2.251 0 01-.966-.812 2.113 2.113 0 01-.336-1.176c0-.7.261-1.25.784-1.652.532-.401 1.349-.602 2.45-.602h1.736c0-.476-.145-.84-.434-1.092-.29-.261-.723-.392-1.302-.392a3.74 3.74 0 00-1.19.196c-.383.121-.71.29-.98.504l-.784-1.526c.41-.29.9-.513 1.47-.672a6.692 6.692 0 011.778-.238zm-.168 6.286c.373 0 .705-.084.994-.252a1.45 1.45 0 00.616-.77v-.77h-1.498c-.896 0-1.344.294-1.344.882 0 .28.107.504.322.672.224.159.527.238.91.238zm5.691-6.174h2.17v2.94h3.276v-2.94h2.184V26h-2.184v-2.814h-3.276V26h-2.17v-7.532zm18.205 5.74v3.444h-2.03V26h-6.454v-7.532h2.17v5.74h3.038v-5.74h2.184v5.74h1.092zm1.373-5.74h2.17v4.48l3.668-4.48h2.002V26h-2.17v-4.48L99.722 26h-2.016v-7.532zm13.524 7.644c-.803 0-1.526-.163-2.17-.49a3.831 3.831 0 01-1.498-1.386c-.355-.588-.532-1.255-.532-2.002 0-.747.177-1.414.532-2.002a3.731 3.731 0 011.498-1.372c.644-.336 1.367-.504 2.17-.504.793 0 1.484.168 2.072.504a2.908 2.908 0 011.302 1.414l-1.694.91c-.392-.69-.957-1.036-1.694-1.036-.57 0-1.041.187-1.414.56-.374.373-.56.882-.56 1.526s.186 1.153.56 1.526c.373.373.844.56 1.414.56.746 0 1.311-.345 1.694-1.036l1.694.924a3.002 3.002 0 01-1.302 1.4c-.588.336-1.279.504-2.072.504zm8.019-2.968h-1.134V26h-2.184v-7.532h2.184v2.926h1.176l2.044-2.926h2.324l-2.632 3.612L123.84 26h-2.576l-2.016-2.856zm8.96 2.968c-.793 0-1.507-.163-2.142-.49a3.76 3.76 0 01-1.47-1.386c-.355-.588-.532-1.255-.532-2.002 0-.747.177-1.414.532-2.002a3.662 3.662 0 011.47-1.372c.635-.336 1.349-.504 2.142-.504.793 0 1.503.168 2.128.504a3.662 3.662 0 011.47 1.372c.355.588.532 1.255.532 2.002 0 .747-.177 1.414-.532 2.002a3.76 3.76 0 01-1.47 1.386c-.625.327-1.335.49-2.128.49zm0-1.792c.56 0 1.017-.187 1.372-.56.364-.383.546-.891.546-1.526s-.182-1.139-.546-1.512c-.355-.383-.812-.574-1.372-.574s-1.022.191-1.386.574c-.364.373-.546.877-.546 1.512s.182 1.143.546 1.526c.364.373.826.56 1.386.56z" fill="#fff"/></svg>