<svg width="180" height="45" fill="none" xmlns="http://www.w3.org/2000/svg"><path d="M16.064 37h127.872C152.81 37 160 31.053 160 23.713v-3.426C160 12.947 152.81 7 143.936 7H16.064C7.19 7 0 12.947 0 20.287v3.426C0 31.053 7.196 37 16.064 37z" fill="#940005"/><path d="M135.825 22.752c0 12.288 9.888 22.248 22.087 22.248C170.112 45 180 35.04 180 22.752S170.112.503 157.912.503c-12.199 0-22.087 9.96-22.087 22.249z" fill="#940005"/><path d="M140.288 21.63c0 10.484 8.439 18.988 18.851 18.988 10.413 0 18.851-8.5 18.851-18.988s-8.438-18.988-18.851-18.988c-10.408 0-18.851 8.5-18.851 18.988z" fill="#EC1B23"/><path d="M146.13 18.878c0 7.588 6.359 13.74 14.203 13.74 7.845 0 14.204-6.152 14.204-13.74 0-7.587-6.359-13.738-14.204-13.738-7.844 0-14.203 6.151-14.203 13.738z" fill="#FFC600"/><path d="M157.387 8.41c0 4.64 3.889 8.41 8.69 8.41s8.691-3.764 8.691-8.41c0-4.641-3.89-8.41-8.691-8.41s-8.69 3.764-8.69 8.41zM46.854 24.9h-4.55l-.868 2.1h-2.324l4.368-9.8h2.24l4.382 9.8h-2.38l-.868-2.1zm-.714-1.722l-1.554-3.752-1.554 3.752h3.108zm5.094-3.71h2.17v2.94h3.276v-2.94h2.184V27H56.68v-2.814h-3.276V27h-2.17v-7.532zm13.038 4.676h-1.134V27h-2.184v-7.532h2.184v2.926h1.176l2.044-2.926h2.324L66.05 23.08 68.864 27h-2.576l-2.016-2.856zm8.96 2.968c-.793 0-1.507-.163-2.142-.49a3.756 3.756 0 01-1.47-1.386c-.354-.588-.532-1.255-.532-2.002 0-.747.178-1.414.532-2.002a3.658 3.658 0 011.47-1.372c.635-.336 1.349-.504 2.142-.504.794 0 1.503.168 2.128.504a3.658 3.658 0 011.47 1.372c.355.588.532 1.255.532 2.002 0 .747-.177 1.414-.532 2.002a3.756 3.756 0 01-1.47 1.386c-.625.327-1.334.49-2.128.49zm0-1.792c.56 0 1.018-.187 1.372-.56.364-.383.546-.891.546-1.526s-.182-1.139-.546-1.512c-.354-.383-.812-.574-1.372-.574s-1.022.191-1.386.574c-.364.373-.546.877-.546 1.512s.182 1.143.546 1.526c.364.373.826.56 1.386.56zm10.07-5.964c.7 0 1.335.163 1.904.49.58.317 1.032.77 1.358 1.358.327.579.49 1.255.49 2.03 0 .775-.163 1.456-.49 2.044a3.517 3.517 0 01-1.357 1.358 3.844 3.844 0 01-1.904.476c-.962 0-1.718-.303-2.269-.91v3.514H78.85V19.468h2.087v.868c.54-.653 1.33-.98 2.365-.98zm-.378 5.964c.56 0 1.018-.187 1.372-.56.364-.383.546-.891.546-1.526s-.181-1.139-.546-1.512c-.354-.383-.812-.574-1.372-.574s-1.022.191-1.386.574c-.354.373-.531.877-.531 1.512s.177 1.143.531 1.526c.365.373.827.56 1.386.56zm5.661-5.852h2.17v4.48l3.668-4.48h2.002V27h-2.17v-4.48L90.601 27h-2.016v-7.532zm18.382 5.74v3.416h-2.03V27h-5.292v1.624h-2.03v-3.416h.308c.466-.01.788-.285.966-.826.177-.541.289-1.311.336-2.31l.098-2.604h6.566v5.74h1.078zm-5.768-2.982c-.028.765-.089 1.39-.182 1.876-.084.485-.248.854-.49 1.106h3.178V21.26h-2.464l-.042.966zm14.604 1.918h-1.05V27h-2.156v-2.856h-1.05L109.951 27h-2.576l2.366-3.892-2.198-3.64h2.31l1.666 2.926h1.078v-2.926h2.156v2.926h1.064l1.68-2.926h2.31l-2.198 3.64 2.38 3.892h-2.59l-1.596-2.856z" fill="#fff"/></svg>