<svg width="180" height="45" fill="none" xmlns="http://www.w3.org/2000/svg"><path d="M16.064 37h127.872C152.81 37 160 31.053 160 23.713v-3.426C160 12.947 152.81 7 143.936 7H16.064C7.19 7 0 12.947 0 20.287v3.426C0 31.053 7.196 37 16.064 37z" fill="#940005"/><path d="M135.825 22.752c0 12.288 9.888 22.248 22.087 22.248C170.112 45 180 35.04 180 22.752S170.112.503 157.912.503c-12.199 0-22.087 9.96-22.087 22.249z" fill="#940005"/><path d="M140.288 21.63c0 10.484 8.439 18.988 18.851 18.988 10.413 0 18.851-8.5 18.851-18.988s-8.438-18.988-18.851-18.988c-10.408 0-18.851 8.5-18.851 18.988z" fill="#EC1B23"/><path d="M146.13 18.878c0 7.588 6.359 13.74 14.203 13.74 7.845 0 14.204-6.152 14.204-13.74 0-7.587-6.359-13.738-14.204-13.738-7.844 0-14.203 6.151-14.203 13.738z" fill="#FFC600"/><path d="M157.387 8.41c0 4.64 3.889 8.41 8.69 8.41s8.691-3.764 8.691-8.41c0-4.641-3.89-8.41-8.691-8.41s-8.69 3.764-8.69 8.41zM62.326 25.152v3.878h-2.1V27H53.31v2.03h-2.1l.014-3.878h.392c.588-.019 1.003-.448 1.246-1.288.243-.84.392-2.04.448-3.598l.112-3.066h7.532v7.952h1.372zm-7.014-4.676c-.047 1.167-.145 2.147-.294 2.94-.15.784-.378 1.363-.686 1.736h4.382v-6.104h-3.36l-.042 1.428zm10.811-1.148c.812 0 1.536.168 2.17.504a3.68 3.68 0 011.512 1.386c.364.597.546 1.27.546 2.016 0 .747-.182 1.419-.546 2.016a3.777 3.777 0 01-1.512 1.4c-.634.327-1.358.49-2.17.49a5.28 5.28 0 01-1.96-.35 3.79 3.79 0 01-1.442-1.036l1.246-1.176c.57.588 1.26.882 2.072.882.542 0 1.008-.135 1.4-.406.392-.27.658-.64.798-1.106h-3.164V22.45h3.136a2.03 2.03 0 00-.798-1.064c-.382-.261-.84-.392-1.372-.392-.802 0-1.493.299-2.072.896l-1.246-1.162a3.602 3.602 0 011.442-1.036c.588-.243 1.242-.364 1.96-.364zm5.71.14h2.17v2.94h3.276v-2.94h2.184V27H77.28v-2.814h-3.276V27h-2.17v-7.532zm15.475 3.598c.887.299 1.33.896 1.33 1.792 0 .681-.257 1.209-.77 1.582s-1.279.56-2.296.56h-4.018v-7.532h3.85c.943 0 1.68.173 2.212.518.532.336.798.812.798 1.428 0 .373-.098.705-.294.994-.187.28-.457.5-.812.658zm-3.752-.504h1.652c.765 0 1.148-.27 1.148-.812 0-.532-.383-.798-1.148-.798h-1.652v1.61zm1.834 2.954c.803 0 1.204-.275 1.204-.826 0-.29-.093-.5-.28-.63-.187-.14-.48-.21-.882-.21h-1.876v1.666h1.834zm12.195-2.254c0 .028-.014.224-.042.588h-5.698c.103.467.345.835.728 1.106.383.27.859.406 1.428.406.392 0 .737-.056 1.036-.168a2.6 2.6 0 00.854-.56l1.162 1.26c-.71.812-1.745 1.218-3.108 1.218-.85 0-1.6-.163-2.254-.49a3.69 3.69 0 01-1.512-1.386c-.355-.588-.532-1.255-.532-2.002 0-.737.173-1.4.518-1.988a3.676 3.676 0 011.442-1.386 4.227 4.227 0 012.058-.504c.737 0 1.405.159 2.002.476a3.417 3.417 0 011.4 1.372c.345.588.518 1.274.518 2.058zm-3.906-2.254c-.495 0-.91.14-1.246.42-.336.28-.541.663-.616 1.148h3.71c-.075-.476-.28-.854-.616-1.134-.336-.29-.747-.434-1.232-.434zm10.018-1.652c.7 0 1.335.163 1.904.49.579.317 1.031.77 1.358 1.358.327.579.49 1.255.49 2.03 0 .775-.163 1.456-.49 2.044a3.517 3.517 0 01-1.358 1.358 3.843 3.843 0 01-1.904.476c-.961 0-1.717-.303-2.268-.91v3.514h-2.184V19.468h2.086v.868c.541-.653 1.33-.98 2.366-.98zm-.378 5.964c.56 0 1.017-.187 1.372-.56.364-.383.546-.891.546-1.526s-.182-1.139-.546-1.512c-.355-.383-.812-.574-1.372-.574s-1.022.191-1.386.574c-.355.373-.532.877-.532 1.512s.177 1.143.532 1.526c.364.373.826.56 1.386.56z" fill="#fff"/></svg>