<svg width="180" height="45" fill="none" xmlns="http://www.w3.org/2000/svg"><path d="M16.064 37h127.872C152.81 37 160 31.053 160 23.713v-3.426C160 12.947 152.81 7 143.936 7H16.064C7.19 7 0 12.947 0 20.287v3.426C0 31.053 7.196 37 16.064 37z" fill="#940005"/><path d="M135.825 22.752c0 12.288 9.888 22.248 22.087 22.248C170.112 45 180 35.04 180 22.752S170.112.503 157.912.503c-12.199 0-22.087 9.96-22.087 22.249z" fill="#940005"/><path d="M140.288 21.63c0 10.484 8.439 18.988 18.851 18.988 10.413 0 18.851-8.5 18.851-18.988s-8.438-18.988-18.851-18.988c-10.408 0-18.851 8.5-18.851 18.988z" fill="#EC1B23"/><path d="M146.13 18.878c0 7.588 6.359 13.74 14.203 13.74 7.845 0 14.204-6.152 14.204-13.74 0-7.587-6.359-13.738-14.204-13.738-7.844 0-14.203 6.151-14.203 13.738z" fill="#FFC600"/><path d="M157.387 8.41c0 4.64 3.889 8.41 8.69 8.41s8.691-3.764 8.691-8.41c0-4.641-3.89-8.41-8.691-8.41s-8.69 3.764-8.69 8.41zM26.954 17.2V27h-2.24v-7.952h-3.36l-.07 2.044c-.047 1.39-.159 2.52-.336 3.388-.177.859-.476 1.521-.896 1.988-.41.457-.99.686-1.736.686a5.03 5.03 0 01-1.12-.154l.14-1.918c.121.037.257.056.406.056.541 0 .92-.317 1.134-.952.215-.644.35-1.647.406-3.01l.14-3.976h7.532zm5.808 9.912c-.794 0-1.508-.163-2.142-.49a3.756 3.756 0 01-1.47-1.386c-.355-.588-.532-1.255-.532-2.002 0-.747.177-1.414.532-2.002a3.658 3.658 0 011.47-1.372c.634-.336 1.348-.504 2.142-.504.793 0 1.502.168 2.128.504a3.658 3.658 0 011.47 1.372c.354.588.532 1.255.532 2.002 0 .747-.178 1.414-.532 2.002a3.756 3.756 0 01-1.47 1.386c-.626.327-1.335.49-2.128.49zm0-1.792c.56 0 1.017-.187 1.372-.56.364-.383.546-.891.546-1.526s-.182-1.139-.546-1.512c-.355-.383-.812-.574-1.372-.574s-1.022.191-1.386.574c-.364.373-.546.877-.546 1.512s.182 1.143.546 1.526c.364.373.826.56 1.386.56zm9.216 1.792c-.803 0-1.526-.163-2.17-.49a3.833 3.833 0 01-1.498-1.386c-.355-.588-.532-1.255-.532-2.002 0-.747.177-1.414.532-2.002a3.733 3.733 0 011.498-1.372c.644-.336 1.367-.504 2.17-.504.793 0 1.484.168 2.072.504a2.905 2.905 0 011.302 1.414l-1.694.91c-.392-.69-.957-1.036-1.694-1.036-.57 0-1.04.187-1.414.56-.374.373-.56.882-.56 1.526s.186 1.153.56 1.526c.373.373.844.56 1.414.56.746 0 1.311-.345 1.694-1.036l1.694.924a2.999 2.999 0 01-1.302 1.4c-.588.336-1.279.504-2.072.504zm4.105-4.928h3.962v1.75h-3.962v-1.75zM58.282 24.9h-4.55l-.868 2.1H50.54l4.368-9.8h2.24L61.53 27h-2.38l-.868-2.1zm-.714-1.722l-1.554-3.752-1.554 3.752h3.108zm5.093-3.71h2.17v2.94h3.276v-2.94h2.184V27h-2.184v-2.814h-3.276V27h-2.17v-7.532zm18.163 5.74v3.416h-2.03V27h-5.292v1.624h-2.03v-3.416h.308c.467-.01.789-.285.966-.826.177-.541.29-1.311.336-2.31l.098-2.604h6.566v5.74h1.078zm-5.768-2.982c-.028.765-.089 1.39-.182 1.876-.084.485-.247.854-.49 1.106h3.178V21.26h-2.464l-.042.966zm14.604 1.918h-1.05V27h-2.156v-2.856h-1.05L83.808 27h-2.576l2.366-3.892-2.198-3.64h2.31l1.666 2.926h1.078v-2.926h2.156v2.926h1.064l1.68-2.926h2.31l-2.198 3.64L93.846 27h-2.59l-1.596-2.856zm12.411-.882c0 .028-.014.224-.042.588h-5.698c.103.467.346.835.728 1.106.383.27.859.406 1.428.406.392 0 .738-.056 1.036-.168.308-.121.593-.308.854-.56l1.162 1.26c-.709.812-1.745 1.218-3.108 1.218-.85 0-1.6-.163-2.254-.49a3.69 3.69 0 01-1.512-1.386c-.354-.588-.532-1.255-.532-2.002 0-.737.173-1.4.518-1.988a3.677 3.677 0 011.442-1.386 4.227 4.227 0 012.058-.504c.738 0 1.405.159 2.002.476a3.413 3.413 0 011.4 1.372c.346.588.518 1.274.518 2.058zm-3.906-2.254c-.494 0-.91.14-1.246.42-.336.28-.541.663-.616 1.148h3.71c-.074-.476-.28-.854-.616-1.134-.336-.29-.746-.434-1.232-.434zm12.736-1.54V27h-2.184v-5.74h-2.38l-.07 1.33c-.037.99-.131 1.81-.28 2.464-.149.653-.392 1.167-.728 1.54-.336.373-.803.56-1.4.56-.317 0-.695-.056-1.134-.168l.112-1.792c.149.019.257.028.322.028.327 0 .569-.117.728-.35.168-.243.28-.546.336-.91.056-.373.098-.863.126-1.47l.112-3.024h6.44zm9.422 3.794c0 .028-.014.224-.042.588h-5.698c.103.467.346.835.728 1.106.383.27.859.406 1.428.406.392 0 .738-.056 1.036-.168.308-.121.593-.308.854-.56l1.162 1.26c-.709.812-1.745 1.218-3.108 1.218-.849 0-1.6-.163-2.254-.49a3.694 3.694 0 01-1.512-1.386c-.354-.588-.532-1.255-.532-2.002 0-.737.173-1.4.518-1.988a3.683 3.683 0 011.442-1.386 4.227 4.227 0 012.058-.504c.738 0 1.405.159 2.002.476a3.413 3.413 0 011.4 1.372c.346.588.518 1.274.518 2.058zm-3.906-2.254c-.494 0-.91.14-1.246.42-.336.28-.541.663-.616 1.148h3.71c-.074-.476-.28-.854-.616-1.134-.336-.29-.746-.434-1.232-.434zm9.164 6.104c-.802 0-1.526-.163-2.17-.49a3.838 3.838 0 01-1.498-1.386c-.354-.588-.532-1.255-.532-2.002 0-.747.178-1.414.532-2.002a3.737 3.737 0 011.498-1.372c.644-.336 1.368-.504 2.17-.504.794 0 1.484.168 2.072.504a2.898 2.898 0 011.302 1.414l-1.694.91c-.392-.69-.956-1.036-1.694-1.036-.569 0-1.04.187-1.414.56-.373.373-.56.882-.56 1.526s.187 1.153.56 1.526c.374.373.845.56 1.414.56.747 0 1.312-.345 1.694-1.036l1.694.924a2.992 2.992 0 01-1.302 1.4c-.588.336-1.278.504-2.072.504z" fill="#fff"/></svg>