<svg width="180" height="45" fill="none" xmlns="http://www.w3.org/2000/svg"><path d="M163.936 37H36.064C27.19 37 20 31.053 20 23.713v-3.426C20 12.947 27.19 7 36.064 7h127.872C172.81 7 180 12.947 180 20.287v3.426C180 31.053 172.804 37 163.936 37z" fill="#940005"/><path d="M44.175 22.752C44.175 35.04 34.287 45 22.088 45 9.888 45 0 35.04 0 22.752S9.888.503 22.088.503c12.199 0 22.087 9.96 22.087 22.249z" fill="#940005"/><path d="M39.712 21.63c0 10.484-8.439 18.988-18.851 18.988-10.413 0-18.851-8.5-18.851-18.988S10.448 2.642 20.86 2.642c10.409 0 18.852 8.5 18.852 18.988z" fill="#EC1B23"/><path d="M33.87 18.878c0 7.588-6.36 13.74-14.203 13.74-7.845 0-14.204-6.152-14.204-13.74 0-7.587 6.36-13.738 14.204-13.738S33.87 11.29 33.87 18.878z" fill="#FFC600"/><path d="M22.613 8.41c0 4.64-3.89 8.41-8.69 8.41-4.8 0-8.69-3.764-8.69-8.41 0-4.641 3.89-8.41 8.69-8.41 4.8 0 8.69 3.764 8.69 8.41zm53.593 8.79V27h-2.268v-4.018h-4.452V27h-2.268v-9.8h2.268v3.864h4.452V17.2h2.268zm6.361 4.676c.98.01 1.732.233 2.254.672.523.43.784 1.04.784 1.834 0 .83-.294 1.48-.882 1.946-.578.457-1.395.686-2.45.686L78.493 27v-7.532h2.17v2.408h1.904zm-.49 3.584c.42.01.742-.08.966-.266.224-.187.336-.467.336-.84 0-.364-.112-.63-.336-.798-.214-.168-.536-.257-.966-.266l-1.414-.014v2.184h1.414zm12.019-6.104c.765 0 1.451.168 2.058.504a3.607 3.607 0 011.428 1.372c.345.588.518 1.255.518 2.002 0 .747-.173 1.414-.518 2.002a3.706 3.706 0 01-1.428 1.386c-.607.327-1.293.49-2.058.49-.663 0-1.27-.121-1.82-.364a3.748 3.748 0 01-1.372-1.05 3.673 3.673 0 01-.728-1.568H89.14V27h-2.17v-7.532h2.17v2.772h1.05c.215-.877.672-1.577 1.372-2.1.7-.523 1.545-.784 2.534-.784zm0 5.964c.532 0 .97-.187 1.316-.56.355-.383.532-.891.532-1.526 0-.644-.177-1.153-.532-1.526-.345-.373-.784-.56-1.316-.56-.541 0-.99.187-1.344.56-.345.373-.518.882-.518 1.526 0 .635.173 1.143.518 1.526.355.373.803.56 1.344.56zm5.335-3.136h3.962v1.75h-3.962v-1.75zm5.891-4.984h2.254v6.384l4.676-6.384h2.128V27h-2.24v-6.37L107.464 27h-2.142v-9.8zm4.522-.63c-1.792 0-2.698-.714-2.716-2.142h1.554c.018.681.406 1.022 1.162 1.022.373 0 .658-.084.854-.252.196-.177.298-.434.308-.77h1.554c-.01.7-.238 1.232-.686 1.596-.448.364-1.125.546-2.03.546zm10.336 10.542c-.794 0-1.508-.163-2.142-.49a3.747 3.747 0 01-1.47-1.386c-.355-.588-.532-1.255-.532-2.002 0-.747.177-1.414.532-2.002a3.649 3.649 0 011.47-1.372c.634-.336 1.348-.504 2.142-.504.793 0 1.502.168 2.128.504a3.662 3.662 0 011.47 1.372c.354.588.532 1.255.532 2.002 0 .747-.178 1.414-.532 2.002a3.76 3.76 0 01-1.47 1.386c-.626.327-1.335.49-2.128.49zm0-1.792c.56 0 1.017-.187 1.372-.56.364-.383.546-.891.546-1.526s-.182-1.139-.546-1.512c-.355-.383-.812-.574-1.372-.574s-1.022.191-1.386.574c-.364.373-.546.877-.546 1.512s.182 1.143.546 1.526c.364.373.826.56 1.386.56zm10.07-5.964c.7 0 1.334.163 1.904.49a3.4 3.4 0 011.358 1.358c.326.579.49 1.255.49 2.03 0 .775-.164 1.456-.49 2.044a3.523 3.523 0 01-1.358 1.358 3.846 3.846 0 01-1.904.476c-.962 0-1.718-.303-2.268-.91v3.514h-2.184V19.468h2.086v.868c.541-.653 1.33-.98 2.366-.98zm-.378 5.964c.56 0 1.017-.187 1.372-.56.364-.383.546-.891.546-1.526s-.182-1.139-.546-1.512c-.355-.383-.812-.574-1.372-.574s-1.022.191-1.386.574c-.355.373-.532.877-.532 1.512s.177 1.143.532 1.526c.364.373.826.56 1.386.56zm8.978-1.176h-1.134V27h-2.184v-7.532h2.184v2.926h1.176l2.044-2.926h2.324l-2.632 3.612 2.814 3.92h-2.576l-2.016-2.856z" fill="#fff"/></svg>