<svg width="180" height="45" fill="none" xmlns="http://www.w3.org/2000/svg"><path d="M163.936 37H36.064C27.19 37 20 31.053 20 23.713v-3.426C20 12.947 27.19 7 36.064 7h127.872C172.81 7 180 12.947 180 20.287v3.426C180 31.053 172.804 37 163.936 37z" fill="#940005"/><path d="M44.175 22.752C44.175 35.04 34.287 45 22.088 45 9.888 45 0 35.04 0 22.752S9.888.503 22.088.503c12.199 0 22.087 9.96 22.087 22.249z" fill="#940005"/><path d="M39.712 21.63c0 10.484-8.439 18.988-18.851 18.988-10.413 0-18.851-8.5-18.851-18.988S10.448 2.642 20.86 2.642c10.409 0 18.852 8.5 18.852 18.988z" fill="#EC1B23"/><path d="M33.87 18.878c0 7.588-6.36 13.74-14.203 13.74-7.845 0-14.204-6.152-14.204-13.74 0-7.587 6.36-13.738 14.204-13.738S33.87 11.29 33.87 18.878z" fill="#FFC600"/><path d="M22.613 8.41c0 4.64-3.89 8.41-8.69 8.41-4.8 0-8.69-3.764-8.69-8.41 0-4.641 3.89-8.41 8.69-8.41 4.8 0 8.69 3.764 8.69 8.41zm40.211 12.662c0 1.297-.443 2.32-1.33 3.066-.877.737-2.142 1.148-3.794 1.232v1.064h-2.086v-1.078c-1.661-.093-2.935-.509-3.822-1.246-.877-.747-1.316-1.76-1.316-3.038 0-1.288.439-2.296 1.316-3.024.887-.737 2.16-1.157 3.822-1.26V15.78H57.7v.994c1.652.093 2.917.513 3.794 1.26.887.747 1.33 1.76 1.33 3.038zm-5.124 2.52c.99-.093 1.727-.345 2.212-.756.485-.42.728-1.013.728-1.778 0-1.493-.98-2.324-2.94-2.492v5.026zm-5.026-2.52c0 1.475.98 2.315 2.94 2.52v-5.026c-.999.093-1.74.345-2.226.756-.476.401-.714.985-.714 1.75zm11.679-2.604h2.17v4.48l3.668-4.48h2.002V26h-2.17v-4.48L66.369 26h-2.016v-7.532zm17.163 0V26h-2.184v-5.74h-2.38l-.07 1.33c-.037.99-.13 1.81-.28 2.464-.15.653-.392 1.167-.728 1.54-.336.373-.802.56-1.4.56a4.69 4.69 0 01-1.134-.168l.112-1.792c.15.019.257.028.322.028.327 0 .57-.117.728-.35.168-.243.28-.546.336-.91.056-.373.098-.863.126-1.47l.112-3.024h6.44zm5.026-.112c1.167 0 2.063.28 2.688.84.626.55.938 1.386.938 2.506V26h-2.044v-.938c-.41.7-1.176 1.05-2.296 1.05-.578 0-1.082-.098-1.512-.294a2.251 2.251 0 01-.966-.812 2.113 2.113 0 01-.336-1.176c0-.7.262-1.25.784-1.652.532-.401 1.35-.602 2.45-.602h1.736c0-.476-.144-.84-.434-1.092-.289-.261-.723-.392-1.302-.392a3.74 3.74 0 00-1.19.196c-.382.121-.709.29-.98.504l-.784-1.526c.411-.29.901-.513 1.47-.672a6.692 6.692 0 011.778-.238zm-.168 6.286c.374 0 .705-.084.994-.252a1.45 1.45 0 00.616-.77v-.77h-1.498c-.896 0-1.344.294-1.344.882 0 .28.108.504.322.672.224.159.528.238.91.238zm14.134-.434v3.416h-2.03V26h-5.292v1.624h-2.03v-3.416h.308c.466-.01.788-.285.966-.826.177-.541.289-1.311.336-2.31l.098-2.604h6.566v5.74h1.078zm-5.768-2.982c-.028.765-.089 1.39-.182 1.876-.084.485-.248.854-.49 1.106h3.178V20.26h-2.464l-.042.966zm14.464 1.036c0 .028-.014.224-.042.588h-5.698c.103.467.345.835.728 1.106.383.27.859.406 1.428.406.392 0 .737-.056 1.036-.168.308-.121.593-.308.854-.56l1.162 1.26c-.709.812-1.745 1.218-3.108 1.218-.849 0-1.601-.163-2.254-.49a3.694 3.694 0 01-1.512-1.386c-.355-.588-.532-1.255-.532-2.002 0-.737.173-1.4.518-1.988a3.676 3.676 0 011.442-1.386 4.227 4.227 0 012.058-.504c.737 0 1.405.159 2.002.476a3.419 3.419 0 011.4 1.372c.345.588.518 1.274.518 2.058zm-3.906-2.254c-.495 0-.91.14-1.246.42-.336.28-.541.663-.616 1.148h3.71c-.075-.476-.28-.854-.616-1.134-.336-.29-.747-.434-1.232-.434zm12.736-1.54V26h-2.184v-5.74h-2.38l-.07 1.33c-.038.99-.131 1.81-.28 2.464-.15.653-.392 1.167-.728 1.54-.336.373-.803.56-1.4.56-.318 0-.696-.056-1.134-.168l.112-1.792c.149.019.256.028.322.028.326 0 .569-.117.728-.35.168-.243.28-.546.336-.91.056-.373.098-.863.126-1.47l.112-3.024h6.44zm6.174 2.408c.98.01 1.731.233 2.254.672.523.43.784 1.04.784 1.834 0 .83-.294 1.48-.882 1.946-.579.457-1.395.686-2.45.686l-3.78-.014v-7.532h2.17v2.408h1.904zm-.49 3.584c.42.01.742-.08.966-.266.224-.187.336-.467.336-.84 0-.364-.112-.63-.336-.798-.215-.168-.537-.257-.966-.266l-1.414-.014v2.184h1.414zm15.295-2.254c0 1.167-.392 2.09-1.176 2.772-.775.672-1.886 1.06-3.332 1.162v2.576h-2.002V26.14c-1.447-.103-2.562-.485-3.346-1.148-.775-.672-1.162-1.6-1.162-2.786 0-1.167.382-2.072 1.148-2.716.774-.644 1.894-1.017 3.36-1.12v-2.758h2.002v2.758c1.446.103 2.557.48 3.332 1.134.784.653 1.176 1.554 1.176 2.702zm-8.904 0c0 .672.191 1.19.574 1.554.382.364.989.593 1.82.686v-4.382c-.831.084-1.438.303-1.82.658-.383.345-.574.84-.574 1.484zm4.396 2.24c.83-.093 1.437-.322 1.82-.686.392-.364.588-.882.588-1.554 0-.644-.196-1.139-.588-1.484-.383-.355-.99-.574-1.82-.658v4.382zm5.986-5.978h2.17v4.48l3.668-4.48h2.002V26h-2.17v-4.48L142.507 26h-2.016v-7.532zm16.632 0V26h-1.946v-2.156h-1.61L152.139 26h-2.324l1.722-2.464c-.523-.205-.924-.5-1.204-.882-.271-.392-.406-.863-.406-1.414 0-.887.317-1.568.952-2.044.644-.485 1.526-.728 2.646-.728h3.598zm-3.556 1.778c-.467 0-.821.084-1.064.252-.233.168-.35.439-.35.812 0 .373.112.649.336.826.233.168.583.252 1.05.252h1.638v-2.142h-1.61z" fill="#fff"/></svg>