<svg width="180" height="45" fill="none" xmlns="http://www.w3.org/2000/svg"><path d="M16.064 37h127.872C152.81 37 160 31.053 160 23.713v-3.426C160 12.947 152.81 7 143.936 7H16.064C7.19 7 0 12.947 0 20.287v3.426C0 31.053 7.196 37 16.064 37z" fill="#940005"/><path d="M135.825 22.752c0 12.288 9.888 22.248 22.087 22.248C170.112 45 180 35.04 180 22.752S170.112.503 157.912.503c-12.199 0-22.087 9.96-22.087 22.249z" fill="#940005"/><path d="M140.288 21.63c0 10.484 8.439 18.988 18.851 18.988 10.413 0 18.851-8.5 18.851-18.988s-8.438-18.988-18.851-18.988c-10.408 0-18.851 8.5-18.851 18.988z" fill="#EC1B23"/><path d="M146.13 18.878c0 7.588 6.359 13.74 14.203 13.74 7.845 0 14.204-6.152 14.204-13.74 0-7.587-6.359-13.738-14.204-13.738-7.844 0-14.203 6.151-14.203 13.738z" fill="#FFC600"/><path d="M157.387 8.41c0 4.64 3.889 8.41 8.69 8.41s8.691-3.764 8.691-8.41c0-4.641-3.89-8.41-8.691-8.41s-8.69 3.764-8.69 8.41zM37.852 27.168c-.999 0-1.904-.215-2.716-.644a4.99 4.99 0 01-1.904-1.806c-.457-.775-.686-1.647-.686-2.618 0-.97.229-1.839.686-2.604a4.855 4.855 0 011.904-1.806c.812-.439 1.722-.658 2.73-.658.85 0 1.615.15 2.296.448a4.6 4.6 0 011.736 1.288l-1.456 1.344c-.663-.765-1.484-1.148-2.464-1.148-.607 0-1.148.135-1.624.406a2.83 2.83 0 00-1.12 1.106c-.261.476-.392 1.017-.392 1.624 0 .607.13 1.148.392 1.624.27.476.644.85 1.12 1.12.476.261 1.017.392 1.624.392.98 0 1.801-.387 2.464-1.162l1.456 1.344a4.54 4.54 0 01-1.736 1.302c-.69.299-1.46.448-2.31.448zm8.228-7.812c1.166 0 2.062.28 2.688.84.625.55.938 1.386.938 2.506V27H47.66v-.938c-.41.7-1.175 1.05-2.296 1.05-.578 0-1.082-.098-1.512-.294a2.251 2.251 0 01-.965-.812 2.113 2.113 0 01-.337-1.176c0-.7.262-1.25.785-1.652.532-.401 1.348-.602 2.45-.602h1.736c0-.476-.145-.84-.434-1.092-.29-.261-.724-.392-1.303-.392a3.74 3.74 0 00-1.19.196c-.382.121-.709.29-.98.504l-.784-1.526c.411-.29.901-.513 1.47-.672a6.692 6.692 0 011.779-.238zm-.169 6.286c.374 0 .705-.084.995-.252a1.45 1.45 0 00.616-.77v-.77h-1.498c-.897 0-1.345.294-1.345.882 0 .28.108.504.322.672.224.159.528.238.91.238zm5.692-6.174h2.17v2.94h3.276v-2.94h2.184V27h-2.184v-2.814h-3.276V27h-2.17v-7.532zM61 22.184h3.962v1.75H61v-1.75zm15.93 2.968v3.878h-2.1V27h-6.916v2.03h-2.1l.014-3.878h.393c.588-.019 1.003-.448 1.246-1.288.242-.84.391-2.04.447-3.598l.112-3.066h7.532v7.952h1.373zm-7.013-4.676c-.047 1.167-.145 2.147-.294 2.94-.15.784-.378 1.363-.686 1.736h4.382v-6.104h-3.36l-.042 1.428zm8.372-1.008h2.17v4.48l3.668-4.48h2.002V27h-2.17v-4.48L80.306 27H78.29v-7.532zm17.262 3.794c0 .028-.014.224-.042.588h-5.698c.102.467.345.835.728 1.106.382.27.858.406 1.428.406.392 0 .737-.056 1.036-.168a2.6 2.6 0 00.854-.56l1.162 1.26c-.71.812-1.746 1.218-3.108 1.218-.85 0-1.601-.163-2.254-.49a3.69 3.69 0 01-1.512-1.386c-.355-.588-.532-1.255-.532-2.002 0-.737.172-1.4.518-1.988a3.676 3.676 0 011.442-1.386 4.227 4.227 0 012.058-.504c.737 0 1.404.159 2.002.476a3.417 3.417 0 011.4 1.372c.345.588.518 1.274.518 2.058zm-3.906-2.254c-.495 0-.91.14-1.246.42-.336.28-.542.663-.616 1.148h3.71c-.075-.476-.28-.854-.616-1.134-.336-.29-.747-.434-1.232-.434zm11.614.252h-3.864V27h-2.17v-7.532h6.034v1.792zm4.371 5.852c-.794 0-1.508-.163-2.142-.49a3.747 3.747 0 01-1.47-1.386c-.355-.588-.532-1.255-.532-2.002 0-.747.177-1.414.532-2.002a3.649 3.649 0 011.47-1.372c.634-.336 1.348-.504 2.142-.504.793 0 1.502.168 2.128.504a3.662 3.662 0 011.47 1.372c.354.588.532 1.255.532 2.002 0 .747-.178 1.414-.532 2.002a3.76 3.76 0 01-1.47 1.386c-.626.327-1.335.49-2.128.49zm0-1.792c.56 0 1.017-.187 1.372-.56.364-.383.546-.891.546-1.526s-.182-1.139-.546-1.512c-.355-.383-.812-.574-1.372-.574s-1.022.191-1.386.574c-.364.373-.546.877-.546 1.512s.182 1.143.546 1.526c.364.373.826.56 1.386.56z" fill="#fff"/></svg>