<svg width="71" height="79" fill="none" xmlns="http://www.w3.org/2000/svg"><g filter="url(#filter0_d)"><path d="M27 6.25a2.083 2.083 0 11-4.167 0A6.25 6.25 0 0129.083 0h12.5a6.25 6.25 0 016.25 6.25 2.083 2.083 0 11-4.166 0c0-1.15-.933-2.083-2.084-2.083h-12.5c-1.15 0-2.083.932-2.083 2.083zM12.417 4.167a2.083 2.083 0 110 4.166 6.25 6.25 0 00-6.25 6.25v50a6.25 6.25 0 006.25 6.25H58.25a6.25 6.25 0 006.25-6.25v-50a6.25 6.25 0 00-6.25-6.25 2.083 2.083 0 110-4.166c5.753 0 10.417 4.663 10.417 10.416v50C68.667 70.336 64.003 75 58.25 75H12.417C6.664 75 2 70.336 2 64.583v-50C2 8.83 6.664 4.167 12.417 4.167z" fill="#fff"/></g><g filter="url(#filter1_d)"><path d="M48.443 26.61a2.083 2.083 0 112.946 2.947L30.556 50.39a2.083 2.083 0 01-2.947 0l-8.333-8.334a2.083 2.083 0 112.947-2.946l6.86 6.86 19.36-19.36z" fill="#fff"/></g><defs><filter id="filter0_d" x="0" y="0" width="70.667" height="79" filterUnits="userSpaceOnUse" color-interpolation-filters="sRGB"><feFlood flood-opacity="0" result="BackgroundImageFix"/><feColorMatrix in="SourceAlpha" values="0 0 0 0 0 0 0 0 0 0 0 0 0 0 0 0 0 0 127 0"/><feOffset dy="2"/><feGaussianBlur stdDeviation="1"/><feColorMatrix values="0 0 0 0 0 0 0 0 0 0 0 0 0 0 0 0 0 0 0.25 0"/><feBlend in2="BackgroundImageFix" result="effect1_dropShadow"/><feBlend in="SourceGraphic" in2="effect1_dropShadow" result="shape"/></filter><filter id="filter1_d" x="16.666" y="26" width="37.333" height="29" filterUnits="userSpaceOnUse" color-interpolation-filters="sRGB"><feFlood flood-opacity="0" result="BackgroundImageFix"/><feColorMatrix in="SourceAlpha" values="0 0 0 0 0 0 0 0 0 0 0 0 0 0 0 0 0 0 127 0"/><feOffset dy="2"/><feGaussianBlur stdDeviation="1"/><feColorMatrix values="0 0 0 0 0 0 0 0 0 0 0 0 0 0 0 0 0 0 0.25 0"/><feBlend in2="BackgroundImageFix" result="effect1_dropShadow"/><feBlend in="SourceGraphic" in2="effect1_dropShadow" result="shape"/></filter></defs></svg>