<svg width="79" height="80" fill="none" xmlns="http://www.w3.org/2000/svg"><g filter="url(#filter0_d)" fill="#fff"><path d="M24.611 10.841l1.44-.78v17.263c0 .35.138.685.383.933.244.247.576.386.923.386h7.991a1.3 1.3 0 00.924-.386 1.33 1.33 0 00.382-.933v-7.396h5.688v7.396c0 .35.138.685.383.933a1.3 1.3 0 00.923.386h7.994a1.3 1.3 0 00.924-.386 1.33 1.33 0 00.382-.933V10.067l1.461.781a1.294 1.294 0 001.458-.135 1.316 1.316 0 00.472-.9 1.333 1.333 0 00-.304-.973 1.307 1.307 0 00-.403-.323L40.016.155a1.293 1.293 0 00-1.228 0l-15.411 8.36a1.332 1.332 0 00-.515 1.776c.162.306.436.534.763.637.328.103.681.072.986-.087zm14.797-8.024L50.336 8.67v17.335h-5.382v-7.396c0-.35-.138-.685-.383-.933a1.299 1.299 0 00-.923-.386h-8.3a1.3 1.3 0 00-.923.386 1.326 1.326 0 00-.382.933v7.396h-5.38V8.644l10.745-5.827z"/><path d="M76.784 52.152a1.31 1.31 0 00-.827-.568 1.29 1.29 0 00-.982.191l-1.92 1.278-11.768-17.765 15.087-9.308a1.332 1.332 0 00.405-1.796 1.295 1.295 0 00-1.765-.457L50.804 38.66a1.313 1.313 0 00-.596.85 1.335 1.335 0 00.2 1.022l.913 1.35H38.484a7.433 7.433 0 00-4.205 1.3l-6.342-1.66.672-.988a1.33 1.33 0 00-.397-1.871L4.002 23.726a1.294 1.294 0 00-.974-.134c-.33.085-.614.298-.791.591a1.332 1.332 0 00.404 1.796l15.088 9.309L5.96 53.055l-1.92-1.278a1.3 1.3 0 00-.987-.203 1.298 1.298 0 00-.836.568 1.328 1.328 0 00.387 1.838l2.993 1.993 7.574 5.043a1.294 1.294 0 001.796-.356l1.711-2.515L27.485 68.21l5.761 5.63a3.55 3.55 0 005.003.249c.274-.254.507-.55.69-.878a3.937 3.937 0 003.505.494 3.956 3.956 0 001.545-.97c.433-.44.76-.975.953-1.565a3.925 3.925 0 003.905-.802 4.01 4.01 0 001.132-1.744 4.047 4.047 0 00.11-2.083 3.973 3.973 0 002.189-1.322 4.047 4.047 0 00.946-2.392c.005-.09-.01-.175-.011-.264l8.797-4.912 2.04 3.01a1.293 1.293 0 001.795.355l7.576-5.044 2.994-1.993a1.33 1.33 0 00.37-1.827zm-23.674-7.63l5.683 8.387-14.445-2.616a3.488 3.488 0 00-2.577.543l-5.372 3.62a5.685 5.685 0 01-7.13-.658 1.54 1.54 0 01-.464-1.107 1.554 1.554 0 01.464-1.106l5.79-5.663a4.872 4.872 0 013.424-1.4H53.11zM13.54 58.1l-5.4-3.594L19.96 36.66l5.715 3.526L13.54 58.101zm36.609 5.546a1.39 1.39 0 01-1.006.356 1.382 1.382 0 01-.96-.468l-6.049-6.85a1.298 1.298 0 00-1.828-.089 1.326 1.326 0 00-.12 1.847l7.034 7.964a1.412 1.412 0 01.372 1.024 1.42 1.42 0 01-.464.986 1.39 1.39 0 01-1.021.355 1.38 1.38 0 01-.966-.49l-.985-1.114-7.246-8.205a1.309 1.309 0 00-.904-.456 1.291 1.291 0 00-.955.333 1.318 1.318 0 00-.434.92 1.332 1.332 0 00.345.96l7.237 8.199.005.007a1.41 1.41 0 01.352 1.017 1.418 1.418 0 01-.463.97 1.385 1.385 0 01-1.967-.112l-8.066-9.136a1.31 1.31 0 00-.903-.456 1.294 1.294 0 00-.955.332 1.32 1.32 0 00-.435.921 1.333 1.333 0 00.345.96l6.472 7.329a.974.974 0 01-.08 1.361.951.951 0 01-1.348-.072c-.02-.025-.044-.048-.066-.07l-5.803-5.666-.013-.01-.01-.012-11.098-10.337 8.207-12.107 5.574 1.46-4.489 4.392c-.398.39-.714.856-.93 1.371a4.219 4.219 0 00.93 4.632 8.29 8.29 0 0010.396.958l5.01-3.375 7.404 8.383a1.41 1.41 0 01.351 1.018 1.419 1.419 0 01-.464.97h-.006zm2.061-3.745l-5.785-6.552 13.505 2.445-7.61 4.251c-.042-.046-.07-.098-.11-.144zM65.477 58.1L54.883 42.467v-.006L53.34 40.19l5.715-3.53 11.819 17.843-5.399 3.597z"/></g><defs><filter id="filter0_d" x="0" y="0" width="79" height="79.002" filterUnits="userSpaceOnUse" color-interpolation-filters="sRGB"><feFlood flood-opacity="0" result="BackgroundImageFix"/><feColorMatrix in="SourceAlpha" values="0 0 0 0 0 0 0 0 0 0 0 0 0 0 0 0 0 0 127 0"/><feOffset dy="2"/><feGaussianBlur stdDeviation="1"/><feColorMatrix values="0 0 0 0 0 0 0 0 0 0 0 0 0 0 0 0 0 0 0.25 0"/><feBlend in2="BackgroundImageFix" result="effect1_dropShadow"/><feBlend in="SourceGraphic" in2="effect1_dropShadow" result="shape"/></filter></defs></svg>