<svg width="69" height="79" fill="none" xmlns="http://www.w3.org/2000/svg"><g filter="url(#filter0_d)" fill="#fff"><path d="M36.358 10.073h-7.455a1.305 1.305 0 00-1.305 1.305v.56h-1.74v-.46a3.956 3.956 0 00-3.951-3.952h-1.443v-.921A6.533 6.533 0 0013.93 0a6.535 6.535 0 00-6.535 6.605v.92H5.952A3.956 3.956 0 002 11.478v12.849a3.956 3.956 0 003.952 3.951h1.443v40.186a6.535 6.535 0 0013.07 0V28.277h1.443a3.956 3.956 0 003.951-3.951v-.46h1.739v.56a1.305 1.305 0 001.305 1.304h7.455a1.305 1.305 0 001.305-1.305V11.378a1.305 1.305 0 00-1.305-1.305zM10.005 6.605a3.924 3.924 0 015.44-3.676 3.925 3.925 0 012.41 3.676v.92h-7.85v-.92zm7.85 61.86a3.925 3.925 0 01-7.85 0V28.28h7.85v40.187zm5.394-44.137a1.342 1.342 0 01-1.342 1.342H5.952a1.342 1.342 0 01-1.342-1.342v-12.85a1.342 1.342 0 011.342-1.343h15.955a1.342 1.342 0 011.342 1.342v12.85zm2.61-3.069v-6.71h1.739v6.71h-1.74zm9.194 1.864h-4.846V12.685h4.846v10.438zm24.581 33.176V23.41A13.139 13.139 0 0058.906.205a1.305 1.305 0 00-1.882 1.17v9.32h-7.85v-9.32a1.304 1.304 0 00-1.882-1.17 13.14 13.14 0 00-.727 23.205V56.3a10.92 10.92 0 001.708 18.565 1.304 1.304 0 001.882-1.17v-7.33h5.89v7.331a1.306 1.306 0 001.881 1.17A10.921 10.921 0 0059.634 56.3zm-.98 14.961v-6.2a1.305 1.305 0 00-1.305-1.304h-8.5a1.305 1.305 0 00-1.304 1.305v6.2a8.315 8.315 0 011.034-13.187 1.308 1.308 0 00.597-1.095V22.624a1.304 1.304 0 00-.728-1.17 10.531 10.531 0 01-1.882-17.729v8.276a1.305 1.305 0 001.305 1.305h10.458a1.305 1.305 0 001.305-1.305V3.725a10.53 10.53 0 01-1.882 17.73 1.304 1.304 0 00-.728 1.169V56.98a1.307 1.307 0 00.597 1.095 8.313 8.313 0 011.035 13.186h-.002z"/></g><defs><filter id="filter0_d" x="0" y="0" width="68.258" height="79" filterUnits="userSpaceOnUse" color-interpolation-filters="sRGB"><feFlood flood-opacity="0" result="BackgroundImageFix"/><feColorMatrix in="SourceAlpha" values="0 0 0 0 0 0 0 0 0 0 0 0 0 0 0 0 0 0 127 0"/><feOffset dy="2"/><feGaussianBlur stdDeviation="1"/><feColorMatrix values="0 0 0 0 0 0 0 0 0 0 0 0 0 0 0 0 0 0 0.25 0"/><feBlend in2="BackgroundImageFix" result="effect1_dropShadow"/><feBlend in="SourceGraphic" in2="effect1_dropShadow" result="shape"/></filter></defs></svg>