<svg width="79" height="79" fill="none" xmlns="http://www.w3.org/2000/svg"><g filter="url(#filter0_d)" fill="#fff"><path d="M77 9.95C77 4.464 73.359 0 68.884 0H10.116C5.638 0 2 4.463 2 9.95v63.744A1.306 1.306 0 003.306 75h65.578a1.306 1.306 0 001.306-1.306V19.76c3.855-.768 6.81-4.872 6.81-9.81zM4.612 72.389V9.951c0-4.047 2.47-7.34 5.504-7.34 3.006 0 5.454 3.235 5.499 7.23h-7.52a1.306 1.306 0 00-1.305 1.306c0 3.857 1.988 7.33 4.948 8.643h.008c.072.031.147.056.223.074.012 0 .022.008.033.01.036.008.075.008.111.012.05.008.1.013.15.015h55.312v52.487H4.612zm7.313-55.516a6.76 6.76 0 01-2.425-4.42h5.778a6.77 6.77 0 01-3.353 4.42zm56.96.418H15.601a10.746 10.746 0 002.52-5.706c.08-.194.1-.407.063-.612.029-.338.048-.677.048-1.021a11.03 11.03 0 00-2.654-7.34h53.307c3.034 0 5.504 3.293 5.504 7.34 0 4.046-2.47 7.339-5.505 7.339h.001z"/><path d="M16.409 36.596l1.105-.593v15.173a1.306 1.306 0 001.306 1.306h7.2a1.306 1.306 0 001.306-1.306v-6.464h4.869v6.464a1.306 1.306 0 001.306 1.306h7.2a1.306 1.306 0 001.306-1.306V36.009l1.126.597a1.308 1.308 0 101.224-2.313l-14.07-7.452a1.308 1.308 0 00-1.229 0l-13.886 7.452a1.306 1.306 0 101.235 2.301l.002.002zm13.27-7.12l9.717 5.148V49.87h-4.589v-6.464a1.306 1.306 0 00-1.306-1.306h-7.48a1.306 1.306 0 00-1.306 1.306v6.464h-4.589V34.6l9.553-5.126zM19.522 57.582H15.79a1.306 1.306 0 000 2.612h3.732a1.306 1.306 0 100-2.612zm13.645 0h-6.822a1.306 1.306 0 000 2.612h6.822a1.306 1.306 0 100-2.612zm13.646 0h-6.825a1.306 1.306 0 100 2.612h6.825a1.306 1.306 0 100-2.612zm10.551 0h-3.732a1.306 1.306 0 000 2.612h3.732a1.306 1.306 0 100-2.612zM51.142 33.03a1.306 1.306 0 001.306-1.305v-3.732a1.306 1.306 0 10-2.612 0v3.732a1.306 1.306 0 001.306 1.306zm0 11.663a1.306 1.306 0 001.306-1.306v-5.831a1.306 1.306 0 10-2.612 0v5.83a1.306 1.306 0 001.306 1.307zm0 11.661a1.306 1.306 0 001.306-1.306v-5.832a1.306 1.306 0 00-2.612 0v5.83a1.307 1.307 0 001.306 1.308zm0 3.22a1.306 1.306 0 00-1.306 1.306v3.732a1.306 1.306 0 102.612 0V60.88a1.306 1.306 0 00-1.306-1.306z"/></g><defs><filter id="filter0_d" x="0" y="0" width="79" height="79" filterUnits="userSpaceOnUse" color-interpolation-filters="sRGB"><feFlood flood-opacity="0" result="BackgroundImageFix"/><feColorMatrix in="SourceAlpha" values="0 0 0 0 0 0 0 0 0 0 0 0 0 0 0 0 0 0 127 0"/><feOffset dy="2"/><feGaussianBlur stdDeviation="1"/><feColorMatrix values="0 0 0 0 0 0 0 0 0 0 0 0 0 0 0 0 0 0 0.25 0"/><feBlend in2="BackgroundImageFix" result="effect1_dropShadow"/><feBlend in="SourceGraphic" in2="effect1_dropShadow" result="shape"/></filter></defs></svg>