<svg width="22" height="22" fill="none" xmlns="http://www.w3.org/2000/svg"><path d="M16.27.917c-2.44 0-4.455 2.266-5.27 3.336C10.185 3.183 8.17.917 5.73.917 2.57.917 0 3.82 0 7.39c0 1.948.773 3.763 2.126 5.005a.5.5 0 00.072.094l8.478 8.46a.457.457 0 00.648 0l8.76-8.757.09-.088c.072-.067.143-.136.222-.224a.446.446 0 00.082-.109C21.46 10.568 22 9.016 22 7.391 22 3.82 19.43.916 16.27.916zm3.445 10.338a.44.44 0 00-.034.047c-.043.05-.09.093-.137.137L11 19.977l-8.05-8.033a.46.46 0 00-.106-.136C1.619 10.738.917 9.128.917 7.39c0-3.064 2.158-5.557 4.812-5.557 2.624 0 4.863 3.422 4.886 3.457.169.261.601.261.77 0 .023-.035 2.262-3.457 4.886-3.457 2.654 0 4.812 2.493 4.812 5.557 0 1.444-.486 2.817-1.368 3.865z" fill="#828282"/></svg>